<?xml version="1.0" encoding="utf-8" standalone="no"?>
<!DOCTYPE svg PUBLIC "-//W3C//DTD SVG 1.1//EN"
  "http://www.w3.org/Graphics/SVG/1.1/DTD/svg11.dtd">
<svg xmlns:xlink="http://www.w3.org/1999/xlink" width="435.6pt" height="333.36pt" viewBox="0 0 435.6 333.36" xmlns="http://www.w3.org/2000/svg" version="1.1">
 <metadata>
  <rdf:RDF xmlns:dc="http://purl.org/dc/elements/1.1/" xmlns:cc="http://creativecommons.org/ns#" xmlns:rdf="http://www.w3.org/1999/02/22-rdf-syntax-ns#">
   <cc:Work>
    <dc:type rdf:resource="http://purl.org/dc/dcmitype/StillImage"/>
    <dc:date>2024-01-20T15:26:45.998793</dc:date>
    <dc:format>image/svg+xml</dc:format>
    <dc:creator>
     <cc:Agent>
      <dc:title>Matplotlib v3.7.1, https://matplotlib.org/</dc:title>
     </cc:Agent>
    </dc:creator>
   </cc:Work>
  </rdf:RDF>
 </metadata>
 <defs>
  <style type="text/css">*{stroke-linejoin: round; stroke-linecap: butt}</style>
 </defs>
 <g id="figure_1">
  <g id="patch_1">
   <path d="M 0 333.36 
L 435.6 333.36 
L 435.6 0 
L 0 0 
z
" style="fill: #ffffff; fill-opacity: 0.95"/>
  </g>
  <g id="axes_1"/>
  <g id="axes_2"/>
  <g id="axes_3">
   <g id="patch_2">
    <path d="M 381.569796 150.012 
L 386.459076 150.012 
L 386.459076 52.2264 
L 381.569796 52.2264 
z
" style="fill: #ffffff; fill-opacity: 0.95"/>
   </g>
   <g id="QuadMesh_1">
    <path d="M 381.569796 150.012 
L 386.459076 150.012 
L 386.459076 139.146933 
L 381.569796 139.146933 
L 381.569796 150.012 
" clip-path="url(#p927ee60cbe)" style="fill: #dae319"/>
    <path d="M 381.569796 139.146933 
L 386.459076 139.146933 
L 386.459076 128.281867 
L 381.569796 128.281867 
L 381.569796 139.146933 
" clip-path="url(#p927ee60cbe)" style="fill: #90d743"/>
    <path d="M 381.569796 128.281867 
L 386.459076 128.281867 
L 386.459076 117.4168 
L 381.569796 117.4168 
L 381.569796 128.281867 
" clip-path="url(#p927ee60cbe)" style="fill: #4ec36b"/>
    <path d="M 381.569796 117.4168 
L 386.459076 117.4168 
L 386.459076 106.551733 
L 381.569796 106.551733 
L 381.569796 117.4168 
" clip-path="url(#p927ee60cbe)" style="fill: #25ab82"/>
    <path d="M 381.569796 106.551733 
L 386.459076 106.551733 
L 386.459076 95.686667 
L 381.569796 95.686667 
L 381.569796 106.551733 
" clip-path="url(#p927ee60cbe)" style="fill: #21908d"/>
    <path d="M 381.569796 95.686667 
L 386.459076 95.686667 
L 386.459076 84.8216 
L 381.569796 84.8216 
L 381.569796 95.686667 
" clip-path="url(#p927ee60cbe)" style="fill: #2b758e"/>
    <path d="M 381.569796 84.8216 
L 386.459076 84.8216 
L 386.459076 73.956533 
L 381.569796 73.956533 
L 381.569796 84.8216 
" clip-path="url(#p927ee60cbe)" style="fill: #375a8c"/>
    <path d="M 381.569796 73.956533 
L 386.459076 73.956533 
L 386.459076 63.091467 
L 381.569796 63.091467 
L 381.569796 73.956533 
" clip-path="url(#p927ee60cbe)" style="fill: #443983"/>
    <path d="M 381.569796 63.091467 
L 386.459076 63.091467 
L 386.459076 52.2264 
L 381.569796 52.2264 
L 381.569796 63.091467 
" clip-path="url(#p927ee60cbe)" style="fill: #481668"/>
   </g>
   <g id="matplotlib.axis_1"/>
   <g id="matplotlib.axis_2">
    <g id="ytick_1">
     <g id="line2d_1">
      <defs>
       <path id="m8810fb1f29" d="M 0 0 
L 3.5 0 
" style="stroke: #000000; stroke-width: 0.8"/>
      </defs>
      <g>
       <use xlink:href="#m8810fb1f29" x="386.459076" y="150.012" style="stroke: #000000; stroke-width: 0.8"/>
      </g>
     </g>
     <g id="text_1">
      <!-- 2.0 -->
      <g transform="translate(393.459076 153.948797) scale(0.11 -0.11)">
       <defs>
        <path id="ArialMT-32" d="M 3222 541 
L 3222 0 
L 194 0 
Q 188 203 259 391 
Q 375 700 629 1000 
Q 884 1300 1366 1694 
Q 2113 2306 2375 2664 
Q 2638 3022 2638 3341 
Q 2638 3675 2398 3904 
Q 2159 4134 1775 4134 
Q 1369 4134 1125 3890 
Q 881 3647 878 3216 
L 300 3275 
Q 359 3922 746 4261 
Q 1134 4600 1788 4600 
Q 2447 4600 2831 4234 
Q 3216 3869 3216 3328 
Q 3216 3053 3103 2787 
Q 2991 2522 2730 2228 
Q 2469 1934 1863 1422 
Q 1356 997 1212 845 
Q 1069 694 975 541 
L 3222 541 
z
" transform="scale(0.015625)"/>
        <path id="ArialMT-2e" d="M 581 0 
L 581 641 
L 1222 641 
L 1222 0 
L 581 0 
z
" transform="scale(0.015625)"/>
        <path id="ArialMT-30" d="M 266 2259 
Q 266 3072 433 3567 
Q 600 4063 929 4331 
Q 1259 4600 1759 4600 
Q 2128 4600 2406 4451 
Q 2684 4303 2865 4023 
Q 3047 3744 3150 3342 
Q 3253 2941 3253 2259 
Q 3253 1453 3087 958 
Q 2922 463 2592 192 
Q 2263 -78 1759 -78 
Q 1097 -78 719 397 
Q 266 969 266 2259 
z
M 844 2259 
Q 844 1131 1108 757 
Q 1372 384 1759 384 
Q 2147 384 2411 759 
Q 2675 1134 2675 2259 
Q 2675 3391 2411 3762 
Q 2147 4134 1753 4134 
Q 1366 4134 1134 3806 
Q 844 3388 844 2259 
z
" transform="scale(0.015625)"/>
       </defs>
       <use xlink:href="#ArialMT-32"/>
       <use xlink:href="#ArialMT-2e" x="55.615234"/>
       <use xlink:href="#ArialMT-30" x="83.398438"/>
      </g>
     </g>
    </g>
    <g id="ytick_2">
     <g id="line2d_2">
      <g>
       <use xlink:href="#m8810fb1f29" x="386.459076" y="125.5656" style="stroke: #000000; stroke-width: 0.8"/>
      </g>
     </g>
     <g id="text_2">
      <!-- 3.5 -->
      <g transform="translate(393.459076 129.502397) scale(0.11 -0.11)">
       <defs>
        <path id="ArialMT-33" d="M 269 1209 
L 831 1284 
Q 928 806 1161 595 
Q 1394 384 1728 384 
Q 2125 384 2398 659 
Q 2672 934 2672 1341 
Q 2672 1728 2419 1979 
Q 2166 2231 1775 2231 
Q 1616 2231 1378 2169 
L 1441 2663 
Q 1497 2656 1531 2656 
Q 1891 2656 2178 2843 
Q 2466 3031 2466 3422 
Q 2466 3731 2256 3934 
Q 2047 4138 1716 4138 
Q 1388 4138 1169 3931 
Q 950 3725 888 3313 
L 325 3413 
Q 428 3978 793 4289 
Q 1159 4600 1703 4600 
Q 2078 4600 2393 4439 
Q 2709 4278 2876 4000 
Q 3044 3722 3044 3409 
Q 3044 3113 2884 2869 
Q 2725 2625 2413 2481 
Q 2819 2388 3044 2092 
Q 3269 1797 3269 1353 
Q 3269 753 2831 336 
Q 2394 -81 1725 -81 
Q 1122 -81 723 278 
Q 325 638 269 1209 
z
" transform="scale(0.015625)"/>
        <path id="ArialMT-35" d="M 266 1200 
L 856 1250 
Q 922 819 1161 601 
Q 1400 384 1738 384 
Q 2144 384 2425 690 
Q 2706 997 2706 1503 
Q 2706 1984 2436 2262 
Q 2166 2541 1728 2541 
Q 1456 2541 1237 2417 
Q 1019 2294 894 2097 
L 366 2166 
L 809 4519 
L 3088 4519 
L 3088 3981 
L 1259 3981 
L 1013 2750 
Q 1425 3038 1878 3038 
Q 2478 3038 2890 2622 
Q 3303 2206 3303 1553 
Q 3303 931 2941 478 
Q 2500 -78 1738 -78 
Q 1113 -78 717 272 
Q 322 622 266 1200 
z
" transform="scale(0.015625)"/>
       </defs>
       <use xlink:href="#ArialMT-33"/>
       <use xlink:href="#ArialMT-2e" x="55.615234"/>
       <use xlink:href="#ArialMT-35" x="83.398438"/>
      </g>
     </g>
    </g>
    <g id="ytick_3">
     <g id="line2d_3">
      <g>
       <use xlink:href="#m8810fb1f29" x="386.459076" y="101.1192" style="stroke: #000000; stroke-width: 0.8"/>
      </g>
     </g>
     <g id="text_3">
      <!-- 5.0 -->
      <g transform="translate(393.459076 105.055997) scale(0.11 -0.11)">
       <use xlink:href="#ArialMT-35"/>
       <use xlink:href="#ArialMT-2e" x="55.615234"/>
       <use xlink:href="#ArialMT-30" x="83.398438"/>
      </g>
     </g>
    </g>
    <g id="ytick_4">
     <g id="line2d_4">
      <g>
       <use xlink:href="#m8810fb1f29" x="386.459076" y="76.6728" style="stroke: #000000; stroke-width: 0.8"/>
      </g>
     </g>
     <g id="text_4">
      <!-- 6.5 -->
      <g transform="translate(393.459076 80.609597) scale(0.11 -0.11)">
       <defs>
        <path id="ArialMT-36" d="M 3184 3459 
L 2625 3416 
Q 2550 3747 2413 3897 
Q 2184 4138 1850 4138 
Q 1581 4138 1378 3988 
Q 1113 3794 959 3422 
Q 806 3050 800 2363 
Q 1003 2672 1297 2822 
Q 1591 2972 1913 2972 
Q 2475 2972 2870 2558 
Q 3266 2144 3266 1488 
Q 3266 1056 3080 686 
Q 2894 316 2569 119 
Q 2244 -78 1831 -78 
Q 1128 -78 684 439 
Q 241 956 241 2144 
Q 241 3472 731 4075 
Q 1159 4600 1884 4600 
Q 2425 4600 2770 4297 
Q 3116 3994 3184 3459 
z
M 888 1484 
Q 888 1194 1011 928 
Q 1134 663 1356 523 
Q 1578 384 1822 384 
Q 2178 384 2434 671 
Q 2691 959 2691 1453 
Q 2691 1928 2437 2201 
Q 2184 2475 1800 2475 
Q 1419 2475 1153 2201 
Q 888 1928 888 1484 
z
" transform="scale(0.015625)"/>
       </defs>
       <use xlink:href="#ArialMT-36"/>
       <use xlink:href="#ArialMT-2e" x="55.615234"/>
       <use xlink:href="#ArialMT-35" x="83.398438"/>
      </g>
     </g>
    </g>
    <g id="ytick_5">
     <g id="line2d_5">
      <g>
       <use xlink:href="#m8810fb1f29" x="386.459076" y="52.2264" style="stroke: #000000; stroke-width: 0.8"/>
      </g>
     </g>
     <g id="text_5">
      <!-- 8.0 -->
      <g transform="translate(393.459076 56.163197) scale(0.11 -0.11)">
       <defs>
        <path id="ArialMT-38" d="M 1131 2484 
Q 781 2613 612 2850 
Q 444 3088 444 3419 
Q 444 3919 803 4259 
Q 1163 4600 1759 4600 
Q 2359 4600 2725 4251 
Q 3091 3903 3091 3403 
Q 3091 3084 2923 2848 
Q 2756 2613 2416 2484 
Q 2838 2347 3058 2040 
Q 3278 1734 3278 1309 
Q 3278 722 2862 322 
Q 2447 -78 1769 -78 
Q 1091 -78 675 323 
Q 259 725 259 1325 
Q 259 1772 486 2073 
Q 713 2375 1131 2484 
z
M 1019 3438 
Q 1019 3113 1228 2906 
Q 1438 2700 1772 2700 
Q 2097 2700 2305 2904 
Q 2513 3109 2513 3406 
Q 2513 3716 2298 3927 
Q 2084 4138 1766 4138 
Q 1444 4138 1231 3931 
Q 1019 3725 1019 3438 
z
M 838 1322 
Q 838 1081 952 856 
Q 1066 631 1291 507 
Q 1516 384 1775 384 
Q 2178 384 2440 643 
Q 2703 903 2703 1303 
Q 2703 1709 2433 1975 
Q 2163 2241 1756 2241 
Q 1359 2241 1098 1978 
Q 838 1716 838 1322 
z
" transform="scale(0.015625)"/>
       </defs>
       <use xlink:href="#ArialMT-38"/>
       <use xlink:href="#ArialMT-2e" x="55.615234"/>
       <use xlink:href="#ArialMT-30" x="83.398438"/>
      </g>
     </g>
    </g>
   </g>
   <g id="LineCollection_1"/>
   <g id="patch_3">
    <path d="M 381.569796 150.012 
L 384.014436 150.012 
L 386.459076 150.012 
L 386.459076 52.2264 
L 384.014436 52.2264 
L 381.569796 52.2264 
L 381.569796 150.012 
z
" style="fill: none; stroke: #000000; stroke-width: 0.8; stroke-linejoin: miter; stroke-linecap: square"/>
   </g>
   <g id="text_6">
    <!-- MSP -->
    <g transform="translate(371.012248 30.8814) scale(0.12 -0.12)">
     <defs>
      <path id="ArialMT-4d" d="M 475 0 
L 475 4581 
L 1388 4581 
L 2472 1338 
Q 2622 884 2691 659 
Q 2769 909 2934 1394 
L 4031 4581 
L 4847 4581 
L 4847 0 
L 4263 0 
L 4263 3834 
L 2931 0 
L 2384 0 
L 1059 3900 
L 1059 0 
L 475 0 
z
" transform="scale(0.015625)"/>
      <path id="ArialMT-53" d="M 288 1472 
L 859 1522 
Q 900 1178 1048 958 
Q 1197 738 1509 602 
Q 1822 466 2213 466 
Q 2559 466 2825 569 
Q 3091 672 3220 851 
Q 3350 1031 3350 1244 
Q 3350 1459 3225 1620 
Q 3100 1781 2813 1891 
Q 2628 1963 1997 2114 
Q 1366 2266 1113 2400 
Q 784 2572 623 2826 
Q 463 3081 463 3397 
Q 463 3744 659 4045 
Q 856 4347 1234 4503 
Q 1613 4659 2075 4659 
Q 2584 4659 2973 4495 
Q 3363 4331 3572 4012 
Q 3781 3694 3797 3291 
L 3216 3247 
Q 3169 3681 2898 3903 
Q 2628 4125 2100 4125 
Q 1550 4125 1298 3923 
Q 1047 3722 1047 3438 
Q 1047 3191 1225 3031 
Q 1400 2872 2139 2705 
Q 2878 2538 3153 2413 
Q 3553 2228 3743 1945 
Q 3934 1663 3934 1294 
Q 3934 928 3725 604 
Q 3516 281 3123 101 
Q 2731 -78 2241 -78 
Q 1619 -78 1198 103 
Q 778 284 539 648 
Q 300 1013 288 1472 
z
" transform="scale(0.015625)"/>
      <path id="ArialMT-50" d="M 494 0 
L 494 4581 
L 2222 4581 
Q 2678 4581 2919 4538 
Q 3256 4481 3484 4323 
Q 3713 4166 3852 3881 
Q 3991 3597 3991 3256 
Q 3991 2672 3619 2267 
Q 3247 1863 2275 1863 
L 1100 1863 
L 1100 0 
L 494 0 
z
M 1100 2403 
L 2284 2403 
Q 2872 2403 3119 2622 
Q 3366 2841 3366 3238 
Q 3366 3525 3220 3729 
Q 3075 3934 2838 4000 
Q 2684 4041 2272 4041 
L 1100 4041 
L 1100 2403 
z
" transform="scale(0.015625)"/>
     </defs>
     <use xlink:href="#ArialMT-4d"/>
     <use xlink:href="#ArialMT-53" x="83.300781"/>
     <use xlink:href="#ArialMT-50" x="150"/>
    </g>
    <!-- [$\mathrm{USD} \cdot \mathrm{kg}^{\mathrm{-1}}$] -->
    <g transform="translate(349.874436 46.2264) scale(0.12 -0.12)">
     <defs>
      <path id="ArialMT-5b" d="M 434 -1272 
L 434 4581 
L 1675 4581 
L 1675 4116 
L 997 4116 
L 997 -806 
L 1675 -806 
L 1675 -1272 
L 434 -1272 
z
" transform="scale(0.015625)"/>
      <path id="DejaVuSans-55" d="M 556 4666 
L 1191 4666 
L 1191 1831 
Q 1191 1081 1462 751 
Q 1734 422 2344 422 
Q 2950 422 3222 751 
Q 3494 1081 3494 1831 
L 3494 4666 
L 4128 4666 
L 4128 1753 
Q 4128 841 3676 375 
Q 3225 -91 2344 -91 
Q 1459 -91 1007 375 
Q 556 841 556 1753 
L 556 4666 
z
" transform="scale(0.015625)"/>
      <path id="DejaVuSans-53" d="M 3425 4513 
L 3425 3897 
Q 3066 4069 2747 4153 
Q 2428 4238 2131 4238 
Q 1616 4238 1336 4038 
Q 1056 3838 1056 3469 
Q 1056 3159 1242 3001 
Q 1428 2844 1947 2747 
L 2328 2669 
Q 3034 2534 3370 2195 
Q 3706 1856 3706 1288 
Q 3706 609 3251 259 
Q 2797 -91 1919 -91 
Q 1588 -91 1214 -16 
Q 841 59 441 206 
L 441 856 
Q 825 641 1194 531 
Q 1563 422 1919 422 
Q 2459 422 2753 634 
Q 3047 847 3047 1241 
Q 3047 1584 2836 1778 
Q 2625 1972 2144 2069 
L 1759 2144 
Q 1053 2284 737 2584 
Q 422 2884 422 3419 
Q 422 4038 858 4394 
Q 1294 4750 2059 4750 
Q 2388 4750 2728 4690 
Q 3069 4631 3425 4513 
z
" transform="scale(0.015625)"/>
      <path id="DejaVuSans-44" d="M 1259 4147 
L 1259 519 
L 2022 519 
Q 2988 519 3436 956 
Q 3884 1394 3884 2338 
Q 3884 3275 3436 3711 
Q 2988 4147 2022 4147 
L 1259 4147 
z
M 628 4666 
L 1925 4666 
Q 3281 4666 3915 4102 
Q 4550 3538 4550 2338 
Q 4550 1131 3912 565 
Q 3275 0 1925 0 
L 628 0 
L 628 4666 
z
" transform="scale(0.015625)"/>
      <path id="DejaVuSans-22c5" d="M 684 2619 
L 1344 2619 
L 1344 1825 
L 684 1825 
L 684 2619 
z
" transform="scale(0.015625)"/>
      <path id="DejaVuSans-6b" d="M 581 4863 
L 1159 4863 
L 1159 1991 
L 2875 3500 
L 3609 3500 
L 1753 1863 
L 3688 0 
L 2938 0 
L 1159 1709 
L 1159 0 
L 581 0 
L 581 4863 
z
" transform="scale(0.015625)"/>
      <path id="DejaVuSans-67" d="M 2906 1791 
Q 2906 2416 2648 2759 
Q 2391 3103 1925 3103 
Q 1463 3103 1205 2759 
Q 947 2416 947 1791 
Q 947 1169 1205 825 
Q 1463 481 1925 481 
Q 2391 481 2648 825 
Q 2906 1169 2906 1791 
z
M 3481 434 
Q 3481 -459 3084 -895 
Q 2688 -1331 1869 -1331 
Q 1566 -1331 1297 -1286 
Q 1028 -1241 775 -1147 
L 775 -588 
Q 1028 -725 1275 -790 
Q 1522 -856 1778 -856 
Q 2344 -856 2625 -561 
Q 2906 -266 2906 331 
L 2906 616 
Q 2728 306 2450 153 
Q 2172 0 1784 0 
Q 1141 0 747 490 
Q 353 981 353 1791 
Q 353 2603 747 3093 
Q 1141 3584 1784 3584 
Q 2172 3584 2450 3431 
Q 2728 3278 2906 2969 
L 2906 3500 
L 3481 3500 
L 3481 434 
z
" transform="scale(0.015625)"/>
      <path id="DejaVuSans-2212" d="M 678 2272 
L 4684 2272 
L 4684 1741 
L 678 1741 
L 678 2272 
z
" transform="scale(0.015625)"/>
      <path id="DejaVuSans-31" d="M 794 531 
L 1825 531 
L 1825 4091 
L 703 3866 
L 703 4441 
L 1819 4666 
L 2450 4666 
L 2450 531 
L 3481 531 
L 3481 0 
L 794 0 
L 794 531 
z
" transform="scale(0.015625)"/>
      <path id="ArialMT-5d" d="M 1363 -1272 
L 122 -1272 
L 122 -806 
L 800 -806 
L 800 4116 
L 122 4116 
L 122 4581 
L 1363 4581 
L 1363 -1272 
z
" transform="scale(0.015625)"/>
     </defs>
     <use xlink:href="#ArialMT-5b" transform="translate(0 0.684375)"/>
     <use xlink:href="#DejaVuSans-55" transform="translate(27.783203 0.684375)"/>
     <use xlink:href="#DejaVuSans-53" transform="translate(100.976562 0.684375)"/>
     <use xlink:href="#DejaVuSans-44" transform="translate(164.453125 0.684375)"/>
     <use xlink:href="#DejaVuSans-22c5" transform="translate(260.9375 0.684375)"/>
     <use xlink:href="#DejaVuSans-6b" transform="translate(312.207031 0.684375)"/>
     <use xlink:href="#DejaVuSans-67" transform="translate(370.117188 0.684375)"/>
     <use xlink:href="#DejaVuSans-2212" transform="translate(434.550781 38.965625) scale(0.7)"/>
     <use xlink:href="#DejaVuSans-31" transform="translate(493.203125 38.965625) scale(0.7)"/>
     <use xlink:href="#ArialMT-5d" transform="translate(540.473633 0.684375)"/>
    </g>
   </g>
  </g>
  <g id="axes_4">
   <g id="patch_4">
    <path d="M 381.569796 284.4672 
L 386.459076 284.4672 
L 386.459076 186.6816 
L 381.569796 186.6816 
z
" style="fill: #ffffff; fill-opacity: 0.95"/>
   </g>
   <g id="QuadMesh_2">
    <path d="M 381.569796 284.4672 
L 386.459076 284.4672 
L 386.459076 273.602133 
L 381.569796 273.602133 
L 381.569796 284.4672 
" clip-path="url(#pff18694c03)" style="fill: #ffbc78"/>
    <path d="M 381.569796 273.602133 
L 386.459076 273.602133 
L 386.459076 262.737067 
L 381.569796 262.737067 
L 381.569796 273.602133 
" clip-path="url(#pff18694c03)" style="fill: #ffa66a"/>
    <path d="M 381.569796 262.737067 
L 386.459076 262.737067 
L 386.459076 251.872 
L 381.569796 251.872 
L 381.569796 262.737067 
" clip-path="url(#pff18694c03)" style="fill: #e3905c"/>
    <path d="M 381.569796 251.872 
L 386.459076 251.872 
L 386.459076 241.006933 
L 381.569796 241.006933 
L 381.569796 251.872 
" clip-path="url(#pff18694c03)" style="fill: #c17a4e"/>
    <path d="M 381.569796 241.006933 
L 386.459076 241.006933 
L 386.459076 230.141867 
L 381.569796 230.141867 
L 381.569796 241.006933 
" clip-path="url(#pff18694c03)" style="fill: #9d633f"/>
    <path d="M 381.569796 230.141867 
L 386.459076 230.141867 
L 386.459076 219.2768 
L 381.569796 219.2768 
L 381.569796 230.141867 
" clip-path="url(#pff18694c03)" style="fill: #7a4d31"/>
    <path d="M 381.569796 219.2768 
L 386.459076 219.2768 
L 386.459076 208.411733 
L 381.569796 208.411733 
L 381.569796 219.2768 
" clip-path="url(#pff18694c03)" style="fill: #583723"/>
    <path d="M 381.569796 208.411733 
L 386.459076 208.411733 
L 386.459076 197.546667 
L 381.569796 197.546667 
L 381.569796 208.411733 
" clip-path="url(#pff18694c03)" style="fill: #342115"/>
    <path d="M 381.569796 197.546667 
L 386.459076 197.546667 
L 386.459076 186.6816 
L 381.569796 186.6816 
L 381.569796 197.546667 
" clip-path="url(#pff18694c03)" style="fill: #110b07"/>
   </g>
   <g id="matplotlib.axis_3"/>
   <g id="matplotlib.axis_4">
    <g id="ytick_6">
     <g id="line2d_6">
      <g>
       <use xlink:href="#m8810fb1f29" x="386.459076" y="284.4672" style="stroke: #000000; stroke-width: 0.8"/>
      </g>
     </g>
     <g id="text_7">
      <!-- 10 -->
      <g transform="translate(393.459076 288.403997) scale(0.11 -0.11)">
       <defs>
        <path id="ArialMT-31" d="M 2384 0 
L 1822 0 
L 1822 3584 
Q 1619 3391 1289 3197 
Q 959 3003 697 2906 
L 697 3450 
Q 1169 3672 1522 3987 
Q 1875 4303 2022 4600 
L 2384 4600 
L 2384 0 
z
" transform="scale(0.015625)"/>
       </defs>
       <use xlink:href="#ArialMT-31"/>
       <use xlink:href="#ArialMT-30" x="55.615234"/>
      </g>
     </g>
    </g>
    <g id="ytick_7">
     <g id="line2d_7">
      <g>
       <use xlink:href="#m8810fb1f29" x="386.459076" y="260.0208" style="stroke: #000000; stroke-width: 0.8"/>
      </g>
     </g>
     <g id="text_8">
      <!-- 15 -->
      <g transform="translate(393.459076 263.957597) scale(0.11 -0.11)">
       <use xlink:href="#ArialMT-31"/>
       <use xlink:href="#ArialMT-35" x="55.615234"/>
      </g>
     </g>
    </g>
    <g id="ytick_8">
     <g id="line2d_8">
      <g>
       <use xlink:href="#m8810fb1f29" x="386.459076" y="235.5744" style="stroke: #000000; stroke-width: 0.8"/>
      </g>
     </g>
     <g id="text_9">
      <!-- 20 -->
      <g transform="translate(393.459076 239.511197) scale(0.11 -0.11)">
       <use xlink:href="#ArialMT-32"/>
       <use xlink:href="#ArialMT-30" x="55.615234"/>
      </g>
     </g>
    </g>
    <g id="ytick_9">
     <g id="line2d_9">
      <g>
       <use xlink:href="#m8810fb1f29" x="386.459076" y="211.128" style="stroke: #000000; stroke-width: 0.8"/>
      </g>
     </g>
     <g id="text_10">
      <!-- 25 -->
      <g transform="translate(393.459076 215.064797) scale(0.11 -0.11)">
       <use xlink:href="#ArialMT-32"/>
       <use xlink:href="#ArialMT-35" x="55.615234"/>
      </g>
     </g>
    </g>
    <g id="ytick_10">
     <g id="line2d_10">
      <g>
       <use xlink:href="#m8810fb1f29" x="386.459076" y="186.6816" style="stroke: #000000; stroke-width: 0.8"/>
      </g>
     </g>
     <g id="text_11">
      <!-- 30 -->
      <g transform="translate(393.459076 190.618397) scale(0.11 -0.11)">
       <use xlink:href="#ArialMT-33"/>
       <use xlink:href="#ArialMT-30" x="55.615234"/>
      </g>
     </g>
    </g>
   </g>
   <g id="LineCollection_2"/>
   <g id="patch_5">
    <path d="M 381.569796 284.4672 
L 384.014436 284.4672 
L 386.459076 284.4672 
L 386.459076 186.6816 
L 384.014436 186.6816 
L 381.569796 186.6816 
L 381.569796 284.4672 
z
" style="fill: none; stroke: #000000; stroke-width: 0.8; stroke-linejoin: miter; stroke-linecap: square"/>
   </g>
   <g id="text_12">
    <!-- GWP -->
    <g transform="translate(369.681936 165.3366) scale(0.12 -0.12)">
     <defs>
      <path id="ArialMT-47" d="M 2638 1797 
L 2638 2334 
L 4578 2338 
L 4578 638 
Q 4131 281 3656 101 
Q 3181 -78 2681 -78 
Q 2006 -78 1454 211 
Q 903 500 622 1047 
Q 341 1594 341 2269 
Q 341 2938 620 3517 
Q 900 4097 1425 4378 
Q 1950 4659 2634 4659 
Q 3131 4659 3532 4498 
Q 3934 4338 4162 4050 
Q 4391 3763 4509 3300 
L 3963 3150 
Q 3859 3500 3706 3700 
Q 3553 3900 3268 4020 
Q 2984 4141 2638 4141 
Q 2222 4141 1919 4014 
Q 1616 3888 1430 3681 
Q 1244 3475 1141 3228 
Q 966 2803 966 2306 
Q 966 1694 1177 1281 
Q 1388 869 1791 669 
Q 2194 469 2647 469 
Q 3041 469 3416 620 
Q 3791 772 3984 944 
L 3984 1797 
L 2638 1797 
z
" transform="scale(0.015625)"/>
      <path id="ArialMT-57" d="M 1294 0 
L 78 4581 
L 700 4581 
L 1397 1578 
Q 1509 1106 1591 641 
Q 1766 1375 1797 1488 
L 2669 4581 
L 3400 4581 
L 4056 2263 
Q 4303 1400 4413 641 
Q 4500 1075 4641 1638 
L 5359 4581 
L 5969 4581 
L 4713 0 
L 4128 0 
L 3163 3491 
Q 3041 3928 3019 4028 
Q 2947 3713 2884 3491 
L 1913 0 
L 1294 0 
z
" transform="scale(0.015625)"/>
     </defs>
     <use xlink:href="#ArialMT-47"/>
     <use xlink:href="#ArialMT-57" x="77.783203"/>
     <use xlink:href="#ArialMT-50" x="172.167969"/>
    </g>
    <!-- [$\mathrm{kg} \cdot \mathrm{CO}_{\mathrm{2}}\mathrm{e} \cdot \mathrm{kg}^{\mathrm{-1}}$] -->
    <g transform="translate(335.654436 180.6816) scale(0.12 -0.12)">
     <defs>
      <path id="DejaVuSans-43" d="M 4122 4306 
L 4122 3641 
Q 3803 3938 3442 4084 
Q 3081 4231 2675 4231 
Q 1875 4231 1450 3742 
Q 1025 3253 1025 2328 
Q 1025 1406 1450 917 
Q 1875 428 2675 428 
Q 3081 428 3442 575 
Q 3803 722 4122 1019 
L 4122 359 
Q 3791 134 3420 21 
Q 3050 -91 2638 -91 
Q 1578 -91 968 557 
Q 359 1206 359 2328 
Q 359 3453 968 4101 
Q 1578 4750 2638 4750 
Q 3056 4750 3426 4639 
Q 3797 4528 4122 4306 
z
" transform="scale(0.015625)"/>
      <path id="DejaVuSans-4f" d="M 2522 4238 
Q 1834 4238 1429 3725 
Q 1025 3213 1025 2328 
Q 1025 1447 1429 934 
Q 1834 422 2522 422 
Q 3209 422 3611 934 
Q 4013 1447 4013 2328 
Q 4013 3213 3611 3725 
Q 3209 4238 2522 4238 
z
M 2522 4750 
Q 3503 4750 4090 4092 
Q 4678 3434 4678 2328 
Q 4678 1225 4090 567 
Q 3503 -91 2522 -91 
Q 1538 -91 948 565 
Q 359 1222 359 2328 
Q 359 3434 948 4092 
Q 1538 4750 2522 4750 
z
" transform="scale(0.015625)"/>
      <path id="DejaVuSans-32" d="M 1228 531 
L 3431 531 
L 3431 0 
L 469 0 
L 469 531 
Q 828 903 1448 1529 
Q 2069 2156 2228 2338 
Q 2531 2678 2651 2914 
Q 2772 3150 2772 3378 
Q 2772 3750 2511 3984 
Q 2250 4219 1831 4219 
Q 1534 4219 1204 4116 
Q 875 4013 500 3803 
L 500 4441 
Q 881 4594 1212 4672 
Q 1544 4750 1819 4750 
Q 2544 4750 2975 4387 
Q 3406 4025 3406 3419 
Q 3406 3131 3298 2873 
Q 3191 2616 2906 2266 
Q 2828 2175 2409 1742 
Q 1991 1309 1228 531 
z
" transform="scale(0.015625)"/>
      <path id="DejaVuSans-65" d="M 3597 1894 
L 3597 1613 
L 953 1613 
Q 991 1019 1311 708 
Q 1631 397 2203 397 
Q 2534 397 2845 478 
Q 3156 559 3463 722 
L 3463 178 
Q 3153 47 2828 -22 
Q 2503 -91 2169 -91 
Q 1331 -91 842 396 
Q 353 884 353 1716 
Q 353 2575 817 3079 
Q 1281 3584 2069 3584 
Q 2775 3584 3186 3129 
Q 3597 2675 3597 1894 
z
M 3022 2063 
Q 3016 2534 2758 2815 
Q 2500 3097 2075 3097 
Q 1594 3097 1305 2825 
Q 1016 2553 972 2059 
L 3022 2063 
z
" transform="scale(0.015625)"/>
     </defs>
     <use xlink:href="#ArialMT-5b" transform="translate(0 0.684375)"/>
     <use xlink:href="#DejaVuSans-6b" transform="translate(27.783203 0.684375)"/>
     <use xlink:href="#DejaVuSans-67" transform="translate(85.693359 0.684375)"/>
     <use xlink:href="#DejaVuSans-22c5" transform="translate(168.652344 0.684375)"/>
     <use xlink:href="#DejaVuSans-43" transform="translate(219.921875 0.684375)"/>
     <use xlink:href="#DejaVuSans-4f" transform="translate(289.746094 0.684375)"/>
     <use xlink:href="#DejaVuSans-32" transform="translate(369.414062 -15.721875) scale(0.7)"/>
     <use xlink:href="#DejaVuSans-65" transform="translate(416.68457 0.684375)"/>
     <use xlink:href="#DejaVuSans-22c5" transform="translate(497.69043 0.684375)"/>
     <use xlink:href="#DejaVuSans-6b" transform="translate(548.959961 0.684375)"/>
     <use xlink:href="#DejaVuSans-67" transform="translate(606.870117 0.684375)"/>
     <use xlink:href="#DejaVuSans-2212" transform="translate(671.303711 38.965625) scale(0.7)"/>
     <use xlink:href="#DejaVuSans-31" transform="translate(729.956055 38.965625) scale(0.7)"/>
     <use xlink:href="#ArialMT-5d" transform="translate(777.226562 0.684375)"/>
    </g>
   </g>
  </g>
  <g id="axes_5">
   <g id="patch_6">
    <path d="M 85.045714 162.2352 
L 334.750204 162.2352 
L 334.750204 40.0032 
L 85.045714 40.0032 
z
" style="fill: #ffffff; fill-opacity: 0.95"/>
   </g>
   <g id="PathCollection_1"/>
   <g id="PathCollection_2">
    <path d="M 334.750204 149.342864 
L 334.750204 148.653867 
L 334.750204 135.072533 
L 334.750204 121.4912 
L 334.750204 107.909867 
L 334.750204 94.328533 
L 334.750204 80.7472 
L 334.750204 67.165867 
L 334.750204 53.584533 
L 334.750204 40.0032 
L 300.069025 40.0032 
L 265.387846 40.0032 
L 265.343253 40.0032 
L 265.387846 41.074328 
L 266.026363 53.584533 
L 267.355427 67.165867 
L 269.259728 80.7472 
L 271.895867 94.328533 
L 275.963316 107.909867 
L 282.92426 121.4912 
L 296.357783 135.072533 
L 300.069025 137.122013 
L 332.735281 148.653867 
z
" clip-path="url(#pd35e839314)" style="fill: #90d743"/>
   </g>
   <g id="PathCollection_3">
    <path d="M 265.387846 162.2352 
L 300.069025 162.2352 
L 334.750204 162.2352 
L 334.750204 149.342864 
L 332.735281 148.653867 
L 300.069025 137.122013 
L 296.357783 135.072533 
L 282.92426 121.4912 
L 275.963316 107.909867 
L 271.895867 94.328533 
L 269.259728 80.7472 
L 267.355427 67.165867 
L 266.026363 53.584533 
L 265.387846 41.074328 
L 265.343253 40.0032 
L 230.706667 40.0032 
L 196.025488 40.0032 
L 194.821508 40.0032 
L 195.117959 53.584533 
L 195.689924 67.165867 
L 196.025488 72.461443 
L 196.654533 80.7472 
L 198.213092 94.328533 
L 200.710778 107.909867 
L 205.089957 121.4912 
L 214.080851 135.072533 
L 230.706667 148.0416 
L 231.631854 148.653867 
L 253.264837 162.2352 
z
" clip-path="url(#pd35e839314)" style="fill: #4ec36b"/>
   </g>
   <g id="PathCollection_4">
    <path d="M 196.025488 162.2352 
L 230.706667 162.2352 
L 253.264837 162.2352 
L 231.631854 148.653867 
L 230.706667 148.0416 
L 214.080851 135.072533 
L 205.089957 121.4912 
L 200.710778 107.909867 
L 198.213092 94.328533 
L 196.654533 80.7472 
L 196.025488 72.461443 
L 195.689924 67.165867 
L 195.117959 53.584533 
L 194.821508 40.0032 
L 161.344308 40.0032 
L 143.648432 40.0032 
L 143.768152 53.584533 
L 143.996405 67.165867 
L 144.384753 80.7472 
L 145.08813 94.328533 
L 146.485913 107.909867 
L 149.253664 121.4912 
L 155.281464 135.072533 
L 161.344308 141.930468 
L 168.515103 148.653867 
L 184.081184 162.2352 
z
" clip-path="url(#pd35e839314)" style="fill: #25ab82"/>
   </g>
   <g id="PathCollection_5">
    <path d="M 126.663129 156.366743 
L 132.237577 162.2352 
L 161.344308 162.2352 
L 184.081184 162.2352 
L 168.515103 148.653867 
L 161.344308 141.930468 
L 155.281464 135.072533 
L 149.253664 121.4912 
L 146.485913 107.909867 
L 145.08813 94.328533 
L 144.384753 80.7472 
L 143.996405 67.165867 
L 143.768152 53.584533 
L 143.648432 40.0032 
L 126.663129 40.0032 
L 103.431382 40.0032 
L 103.343333 53.584533 
L 103.292304 67.165867 
L 103.376183 80.7472 
L 103.677766 94.328533 
L 104.479815 107.909867 
L 106.402405 121.4912 
L 111.030347 135.072533 
L 120.655824 148.653867 
z
" clip-path="url(#pd35e839314)" style="fill: #21908d"/>
   </g>
   <g id="PathCollection_6">
    <path d="M 91.98195 162.2352 
L 126.663129 162.2352 
L 132.237577 162.2352 
L 126.663129 156.366743 
L 120.655824 148.653867 
L 111.030347 135.072533 
L 106.402405 121.4912 
L 104.479815 107.909867 
L 103.677766 94.328533 
L 103.376183 80.7472 
L 103.292304 67.165867 
L 103.343333 53.584533 
L 103.431382 40.0032 
L 91.98195 40.0032 
L 69.30218 40.0032 
L 69.066977 53.584533 
L 68.810208 67.165867 
L 68.666363 80.7472 
L 68.731098 94.328533 
L 69.176738 107.909867 
L 70.572987 121.4912 
L 74.382255 135.072533 
L 82.552129 148.653867 
L 91.662945 162.2352 
z
" clip-path="url(#pd35e839314)" style="fill: #2b758e"/>
   </g>
   <g id="PathCollection_7">
    <path d="M 57.300771 162.2352 
L 91.662945 162.2352 
L 82.552129 148.653867 
L 74.382255 135.072533 
L 70.572987 121.4912 
L 69.176738 107.909867 
L 68.731098 94.328533 
L 68.666363 80.7472 
L 68.810208 67.165867 
L 69.066977 53.584533 
L 69.30218 40.0032 
L 57.300771 40.0032 
L 30.577032 40.0032 
L 30.108525 53.584533 
L 29.548377 67.165867 
L 29.056737 80.7472 
L 28.869758 94.328533 
L 29.12117 107.909867 
L 30.512306 121.4912 
L 35.116537 135.072533 
L 45.324861 148.653867 
L 56.768826 162.2352 
z
" clip-path="url(#pd35e839314)" style="fill: #375a8c"/>
   </g>
   <g id="PathCollection_8">
    <path d="M 45.324861 148.653867 
L 35.116537 135.072533 
L 30.512306 121.4912 
L 29.12117 107.909867 
L 28.869758 94.328533 
L 29.056737 80.7472 
L 29.548377 67.165867 
L 30.108525 53.584533 
L 30.577032 40.0032 
L 22.619592 40.0032 
L 22.619592 53.584533 
L 22.619592 67.165867 
L 22.619592 80.7472 
L 22.619592 94.328533 
L 22.619592 107.909867 
L 22.619592 121.4912 
L 22.619592 135.072533 
L 22.619592 148.653867 
L 22.619592 162.2352 
L 56.768826 162.2352 
z
" clip-path="url(#pd35e839314)" style="fill: #443983"/>
   </g>
   <g id="PathCollection_9"/>
   <g id="PathCollection_10"/>
   <g id="PathCollection_11"/>
   <g id="PathCollection_12">
    <path d="M 334.750204 149.342864 
L 332.735281 148.653867 
L 300.069025 137.122013 
L 296.357783 135.072533 
L 282.92426 121.4912 
L 275.963316 107.909867 
L 275.143443 105.172287 
" clip-path="url(#pd35e839314)" style="fill: none; stroke: #3d4240; stroke-opacity: 0.1; stroke-width: 0.8"/>
    <path d="M 269.733812 83.18967 
L 269.259728 80.7472 
L 267.355427 67.165867 
L 266.026363 53.584533 
L 265.387846 41.074328 
L 265.343253 40.0032 
" clip-path="url(#pd35e839314)" style="fill: none; stroke: #3d4240; stroke-opacity: 0.1; stroke-width: 0.8"/>
   </g>
   <g id="PathCollection_13">
    <path d="M 253.264837 162.2352 
L 231.631854 148.653867 
L 230.706667 148.0416 
L 214.080851 135.072533 
L 205.089957 121.4912 
L 200.710778 107.909867 
L 198.213092 94.328533 
L 196.654533 80.7472 
L 196.025488 72.461443 
L 195.689924 67.165867 
L 195.117959 53.584533 
L 194.821508 40.0032 
" clip-path="url(#pd35e839314)" style="fill: none; stroke: #3d4240; stroke-opacity: 0.1; stroke-width: 0.8"/>
   </g>
   <g id="PathCollection_14">
    <path d="M 184.081184 162.2352 
L 168.515103 148.653867 
L 161.344308 141.930468 
L 155.281464 135.072533 
L 149.253664 121.4912 
L 148.751283 119.026024 
" clip-path="url(#pd35e839314)" style="fill: none; stroke: #3d4240; stroke-opacity: 0.1; stroke-width: 0.8"/>
    <path d="M 145.32268 96.607499 
L 145.08813 94.328533 
L 144.384753 80.7472 
L 143.996405 67.165867 
L 143.768152 53.584533 
L 143.648432 40.0032 
" clip-path="url(#pd35e839314)" style="fill: none; stroke: #3d4240; stroke-opacity: 0.1; stroke-width: 0.8"/>
   </g>
   <g id="PathCollection_15">
    <path d="M 132.237577 162.2352 
L 126.663129 156.366743 
L 120.655824 148.653867 
L 111.030347 135.072533 
L 106.402405 121.4912 
L 104.479815 107.909867 
L 103.677766 94.328533 
L 103.376183 80.7472 
L 103.292304 67.165867 
L 103.343333 53.584533 
L 103.431382 40.0032 
" clip-path="url(#pd35e839314)" style="fill: none; stroke: #3d4240; stroke-opacity: 0.1; stroke-width: 0.8"/>
   </g>
   <g id="PathCollection_16">
    <path d="M 91.662945 162.2352 
L 82.552129 148.653867 
L 74.382255 135.072533 
L 70.572987 121.4912 
L 69.864625 114.600953 
" clip-path="url(#pd35e839314)" style="fill: none; stroke: #3d4240; stroke-opacity: 0.1; stroke-width: 0.8"/>
    <path d="M 68.956039 101.18383 
L 68.731098 94.328533 
L 68.666363 80.7472 
L 68.810208 67.165867 
L 69.066977 53.584533 
L 69.30218 40.0032 
" clip-path="url(#pd35e839314)" style="fill: none; stroke: #3d4240; stroke-opacity: 0.1; stroke-width: 0.8"/>
   </g>
   <g id="PathCollection_17">
    <path d="M 56.768826 162.2352 
L 45.324861 148.653867 
L 35.116537 135.072533 
L 30.512306 121.4912 
L 29.12117 107.909867 
L 28.869758 94.328533 
L 29.056737 80.7472 
L 29.548377 67.165867 
L 30.108525 53.584533 
L 30.577032 40.0032 
" clip-path="url(#pd35e839314)" style="fill: none; stroke: #3d4240; stroke-opacity: 0.1; stroke-width: 0.8"/>
   </g>
   <g id="PathCollection_18"/>
   <g id="PathCollection_19"/>
   <g id="text_13">
    <g clip-path="url(#pd35e839314)">
     <!-- 3.3 -->
     <g transform="translate(264.250867 97.172205) scale(0.11 -0.11)">
      <use xlink:href="#ArialMT-33"/>
      <use xlink:href="#ArialMT-2e" x="55.615234"/>
      <use xlink:href="#ArialMT-33" x="83.398438"/>
     </g>
    </g>
   </g>
   <g id="text_14">
    <g clip-path="url(#pd35e839314)">
     <!-- 4.7 -->
     <g transform="translate(138.840913 110.753539) scale(0.11 -0.11)">
      <defs>
       <path id="ArialMT-34" d="M 2069 0 
L 2069 1097 
L 81 1097 
L 81 1613 
L 2172 4581 
L 2631 4581 
L 2631 1613 
L 3250 1613 
L 3250 1097 
L 2631 1097 
L 2631 0 
L 2069 0 
z
M 2069 1613 
L 2069 3678 
L 634 1613 
L 2069 1613 
z
" transform="scale(0.015625)"/>
       <path id="ArialMT-37" d="M 303 3981 
L 303 4522 
L 3269 4522 
L 3269 4084 
Q 2831 3619 2401 2847 
Q 1972 2075 1738 1259 
Q 1569 684 1522 0 
L 944 0 
Q 953 541 1156 1306 
Q 1359 2072 1739 2783 
Q 2119 3494 2547 3981 
L 303 3981 
z
" transform="scale(0.015625)"/>
      </defs>
      <use xlink:href="#ArialMT-34"/>
      <use xlink:href="#ArialMT-2e" x="55.615234"/>
      <use xlink:href="#ArialMT-37" x="83.398438"/>
     </g>
    </g>
   </g>
   <g id="text_15">
    <g clip-path="url(#pd35e839314)">
     <!-- 6 -->
     <g transform="translate(66.118223 110.753539) scale(0.11 -0.11)">
      <use xlink:href="#ArialMT-36"/>
     </g>
    </g>
   </g>
   <g id="matplotlib.axis_5">
    <g id="xtick_1">
     <g id="line2d_11">
      <defs>
       <path id="m1e1462b2b2" d="M 0 2 
L 0 -2 
" style="stroke: #000000; stroke-width: 0.8"/>
      </defs>
      <g>
       <use xlink:href="#m1e1462b2b2" x="85.045714" y="162.2352" style="stroke: #000000; stroke-width: 0.8"/>
      </g>
     </g>
    </g>
    <g id="xtick_2">
     <g id="line2d_12">
      <g>
       <use xlink:href="#m1e1462b2b2" x="147.471837" y="162.2352" style="stroke: #000000; stroke-width: 0.8"/>
      </g>
     </g>
    </g>
    <g id="xtick_3">
     <g id="line2d_13">
      <g>
       <use xlink:href="#m1e1462b2b2" x="209.897959" y="162.2352" style="stroke: #000000; stroke-width: 0.8"/>
      </g>
     </g>
    </g>
    <g id="xtick_4">
     <g id="line2d_14">
      <g>
       <use xlink:href="#m1e1462b2b2" x="272.324082" y="162.2352" style="stroke: #000000; stroke-width: 0.8"/>
      </g>
     </g>
    </g>
    <g id="xtick_5">
     <g id="line2d_15">
      <g>
       <use xlink:href="#m1e1462b2b2" x="334.750204" y="162.2352" style="stroke: #000000; stroke-width: 0.8"/>
      </g>
     </g>
    </g>
   </g>
   <g id="matplotlib.axis_6">
    <g id="ytick_11">
     <g id="line2d_16">
      <defs>
       <path id="m4c6f088ad4" d="M 2 0 
L -2 -0 
" style="stroke: #000000; stroke-width: 0.8"/>
      </defs>
      <g>
       <use xlink:href="#m4c6f088ad4" x="85.045714" y="162.2352" style="stroke: #000000; stroke-width: 0.8"/>
      </g>
     </g>
     <g id="text_16">
      <!-- 0.2 -->
      <g transform="translate(64.255714 166.171997) scale(0.11 -0.11)">
       <use xlink:href="#ArialMT-30"/>
       <use xlink:href="#ArialMT-2e" x="55.615234"/>
       <use xlink:href="#ArialMT-32" x="83.398438"/>
      </g>
     </g>
    </g>
    <g id="ytick_12">
     <g id="line2d_17">
      <g>
       <use xlink:href="#m4c6f088ad4" x="85.045714" y="141.8632" style="stroke: #000000; stroke-width: 0.8"/>
      </g>
     </g>
     <g id="text_17">
      <!-- 0.5 -->
      <g transform="translate(64.255714 145.799997) scale(0.11 -0.11)">
       <use xlink:href="#ArialMT-30"/>
       <use xlink:href="#ArialMT-2e" x="55.615234"/>
       <use xlink:href="#ArialMT-35" x="83.398438"/>
      </g>
     </g>
    </g>
    <g id="ytick_13">
     <g id="line2d_18">
      <g>
       <use xlink:href="#m4c6f088ad4" x="85.045714" y="121.4912" style="stroke: #000000; stroke-width: 0.8"/>
      </g>
     </g>
     <g id="text_18">
      <!-- 0.8 -->
      <g transform="translate(64.255714 125.427997) scale(0.11 -0.11)">
       <use xlink:href="#ArialMT-30"/>
       <use xlink:href="#ArialMT-2e" x="55.615234"/>
       <use xlink:href="#ArialMT-38" x="83.398438"/>
      </g>
     </g>
    </g>
    <g id="ytick_14">
     <g id="line2d_19">
      <g>
       <use xlink:href="#m4c6f088ad4" x="85.045714" y="101.1192" style="stroke: #000000; stroke-width: 0.8"/>
      </g>
     </g>
     <g id="text_19">
      <!-- 1.1 -->
      <g transform="translate(64.255714 105.055997) scale(0.11 -0.11)">
       <use xlink:href="#ArialMT-31"/>
       <use xlink:href="#ArialMT-2e" x="55.615234"/>
       <use xlink:href="#ArialMT-31" x="83.398438"/>
      </g>
     </g>
    </g>
    <g id="ytick_15">
     <g id="line2d_20">
      <g>
       <use xlink:href="#m4c6f088ad4" x="85.045714" y="80.7472" style="stroke: #000000; stroke-width: 0.8"/>
      </g>
     </g>
     <g id="text_20">
      <!-- 1.4 -->
      <g transform="translate(64.255714 84.683997) scale(0.11 -0.11)">
       <use xlink:href="#ArialMT-31"/>
       <use xlink:href="#ArialMT-2e" x="55.615234"/>
       <use xlink:href="#ArialMT-34" x="83.398438"/>
      </g>
     </g>
    </g>
    <g id="ytick_16">
     <g id="line2d_21">
      <g>
       <use xlink:href="#m4c6f088ad4" x="85.045714" y="60.3752" style="stroke: #000000; stroke-width: 0.8"/>
      </g>
     </g>
     <g id="text_21">
      <!-- 1.7 -->
      <g transform="translate(64.255714 64.311997) scale(0.11 -0.11)">
       <use xlink:href="#ArialMT-31"/>
       <use xlink:href="#ArialMT-2e" x="55.615234"/>
       <use xlink:href="#ArialMT-37" x="83.398438"/>
      </g>
     </g>
    </g>
    <g id="ytick_17">
     <g id="line2d_22">
      <g>
       <use xlink:href="#m4c6f088ad4" x="85.045714" y="40.0032" style="stroke: #000000; stroke-width: 0.8"/>
      </g>
     </g>
     <g id="text_22">
      <!-- 2.0 -->
      <g transform="translate(64.255714 43.939997) scale(0.11 -0.11)">
       <use xlink:href="#ArialMT-32"/>
       <use xlink:href="#ArialMT-2e" x="55.615234"/>
       <use xlink:href="#ArialMT-30" x="83.398438"/>
      </g>
     </g>
    </g>
    <g id="text_23">
     <!-- AcEster Productivity -->
     <g transform="translate(43.750558 150.327872) rotate(-90) scale(0.11 -0.11)">
      <defs>
       <path id="ArialMT-41" d="M -9 0 
L 1750 4581 
L 2403 4581 
L 4278 0 
L 3588 0 
L 3053 1388 
L 1138 1388 
L 634 0 
L -9 0 
z
M 1313 1881 
L 2866 1881 
L 2388 3150 
Q 2169 3728 2063 4100 
Q 1975 3659 1816 3225 
L 1313 1881 
z
" transform="scale(0.015625)"/>
       <path id="ArialMT-63" d="M 2588 1216 
L 3141 1144 
Q 3050 572 2676 248 
Q 2303 -75 1759 -75 
Q 1078 -75 664 370 
Q 250 816 250 1647 
Q 250 2184 428 2587 
Q 606 2991 970 3192 
Q 1334 3394 1763 3394 
Q 2303 3394 2647 3120 
Q 2991 2847 3088 2344 
L 2541 2259 
Q 2463 2594 2264 2762 
Q 2066 2931 1784 2931 
Q 1359 2931 1093 2626 
Q 828 2322 828 1663 
Q 828 994 1084 691 
Q 1341 388 1753 388 
Q 2084 388 2306 591 
Q 2528 794 2588 1216 
z
" transform="scale(0.015625)"/>
       <path id="ArialMT-45" d="M 506 0 
L 506 4581 
L 3819 4581 
L 3819 4041 
L 1113 4041 
L 1113 2638 
L 3647 2638 
L 3647 2100 
L 1113 2100 
L 1113 541 
L 3925 541 
L 3925 0 
L 506 0 
z
" transform="scale(0.015625)"/>
       <path id="ArialMT-73" d="M 197 991 
L 753 1078 
Q 800 744 1014 566 
Q 1228 388 1613 388 
Q 2000 388 2187 545 
Q 2375 703 2375 916 
Q 2375 1106 2209 1216 
Q 2094 1291 1634 1406 
Q 1016 1563 777 1677 
Q 538 1791 414 1992 
Q 291 2194 291 2438 
Q 291 2659 392 2848 
Q 494 3038 669 3163 
Q 800 3259 1026 3326 
Q 1253 3394 1513 3394 
Q 1903 3394 2198 3281 
Q 2494 3169 2634 2976 
Q 2775 2784 2828 2463 
L 2278 2388 
Q 2241 2644 2061 2787 
Q 1881 2931 1553 2931 
Q 1166 2931 1000 2803 
Q 834 2675 834 2503 
Q 834 2394 903 2306 
Q 972 2216 1119 2156 
Q 1203 2125 1616 2013 
Q 2213 1853 2448 1751 
Q 2684 1650 2818 1456 
Q 2953 1263 2953 975 
Q 2953 694 2789 445 
Q 2625 197 2315 61 
Q 2006 -75 1616 -75 
Q 969 -75 630 194 
Q 291 463 197 991 
z
" transform="scale(0.015625)"/>
       <path id="ArialMT-74" d="M 1650 503 
L 1731 6 
Q 1494 -44 1306 -44 
Q 1000 -44 831 53 
Q 663 150 594 308 
Q 525 466 525 972 
L 525 2881 
L 113 2881 
L 113 3319 
L 525 3319 
L 525 4141 
L 1084 4478 
L 1084 3319 
L 1650 3319 
L 1650 2881 
L 1084 2881 
L 1084 941 
Q 1084 700 1114 631 
Q 1144 563 1211 522 
Q 1278 481 1403 481 
Q 1497 481 1650 503 
z
" transform="scale(0.015625)"/>
       <path id="ArialMT-65" d="M 2694 1069 
L 3275 997 
Q 3138 488 2766 206 
Q 2394 -75 1816 -75 
Q 1088 -75 661 373 
Q 234 822 234 1631 
Q 234 2469 665 2931 
Q 1097 3394 1784 3394 
Q 2450 3394 2872 2941 
Q 3294 2488 3294 1666 
Q 3294 1616 3291 1516 
L 816 1516 
Q 847 969 1125 678 
Q 1403 388 1819 388 
Q 2128 388 2347 550 
Q 2566 713 2694 1069 
z
M 847 1978 
L 2700 1978 
Q 2663 2397 2488 2606 
Q 2219 2931 1791 2931 
Q 1403 2931 1139 2672 
Q 875 2413 847 1978 
z
" transform="scale(0.015625)"/>
       <path id="ArialMT-72" d="M 416 0 
L 416 3319 
L 922 3319 
L 922 2816 
Q 1116 3169 1280 3281 
Q 1444 3394 1641 3394 
Q 1925 3394 2219 3213 
L 2025 2691 
Q 1819 2813 1613 2813 
Q 1428 2813 1281 2702 
Q 1134 2591 1072 2394 
Q 978 2094 978 1738 
L 978 0 
L 416 0 
z
" transform="scale(0.015625)"/>
       <path id="ArialMT-20" transform="scale(0.015625)"/>
       <path id="ArialMT-6f" d="M 213 1659 
Q 213 2581 725 3025 
Q 1153 3394 1769 3394 
Q 2453 3394 2887 2945 
Q 3322 2497 3322 1706 
Q 3322 1066 3130 698 
Q 2938 331 2570 128 
Q 2203 -75 1769 -75 
Q 1072 -75 642 372 
Q 213 819 213 1659 
z
M 791 1659 
Q 791 1022 1069 705 
Q 1347 388 1769 388 
Q 2188 388 2466 706 
Q 2744 1025 2744 1678 
Q 2744 2294 2464 2611 
Q 2184 2928 1769 2928 
Q 1347 2928 1069 2612 
Q 791 2297 791 1659 
z
" transform="scale(0.015625)"/>
       <path id="ArialMT-64" d="M 2575 0 
L 2575 419 
Q 2259 -75 1647 -75 
Q 1250 -75 917 144 
Q 584 363 401 755 
Q 219 1147 219 1656 
Q 219 2153 384 2558 
Q 550 2963 881 3178 
Q 1213 3394 1622 3394 
Q 1922 3394 2156 3267 
Q 2391 3141 2538 2938 
L 2538 4581 
L 3097 4581 
L 3097 0 
L 2575 0 
z
M 797 1656 
Q 797 1019 1065 703 
Q 1334 388 1700 388 
Q 2069 388 2326 689 
Q 2584 991 2584 1609 
Q 2584 2291 2321 2609 
Q 2059 2928 1675 2928 
Q 1300 2928 1048 2622 
Q 797 2316 797 1656 
z
" transform="scale(0.015625)"/>
       <path id="ArialMT-75" d="M 2597 0 
L 2597 488 
Q 2209 -75 1544 -75 
Q 1250 -75 995 37 
Q 741 150 617 320 
Q 494 491 444 738 
Q 409 903 409 1263 
L 409 3319 
L 972 3319 
L 972 1478 
Q 972 1038 1006 884 
Q 1059 663 1231 536 
Q 1403 409 1656 409 
Q 1909 409 2131 539 
Q 2353 669 2445 892 
Q 2538 1116 2538 1541 
L 2538 3319 
L 3100 3319 
L 3100 0 
L 2597 0 
z
" transform="scale(0.015625)"/>
       <path id="ArialMT-69" d="M 425 3934 
L 425 4581 
L 988 4581 
L 988 3934 
L 425 3934 
z
M 425 0 
L 425 3319 
L 988 3319 
L 988 0 
L 425 0 
z
" transform="scale(0.015625)"/>
       <path id="ArialMT-76" d="M 1344 0 
L 81 3319 
L 675 3319 
L 1388 1331 
Q 1503 1009 1600 663 
Q 1675 925 1809 1294 
L 2547 3319 
L 3125 3319 
L 1869 0 
L 1344 0 
z
" transform="scale(0.015625)"/>
       <path id="ArialMT-79" d="M 397 -1278 
L 334 -750 
Q 519 -800 656 -800 
Q 844 -800 956 -737 
Q 1069 -675 1141 -563 
Q 1194 -478 1313 -144 
Q 1328 -97 1363 -6 
L 103 3319 
L 709 3319 
L 1400 1397 
Q 1534 1031 1641 628 
Q 1738 1016 1872 1384 
L 2581 3319 
L 3144 3319 
L 1881 -56 
Q 1678 -603 1566 -809 
Q 1416 -1088 1222 -1217 
Q 1028 -1347 759 -1347 
Q 597 -1347 397 -1278 
z
" transform="scale(0.015625)"/>
      </defs>
      <use xlink:href="#ArialMT-41"/>
      <use xlink:href="#ArialMT-63" x="66.699219"/>
      <use xlink:href="#ArialMT-45" x="116.699219"/>
      <use xlink:href="#ArialMT-73" x="183.398438"/>
      <use xlink:href="#ArialMT-74" x="233.398438"/>
      <use xlink:href="#ArialMT-65" x="261.181641"/>
      <use xlink:href="#ArialMT-72" x="316.796875"/>
      <use xlink:href="#ArialMT-20" x="350.097656"/>
      <use xlink:href="#ArialMT-50" x="377.880859"/>
      <use xlink:href="#ArialMT-72" x="444.580078"/>
      <use xlink:href="#ArialMT-6f" x="477.880859"/>
      <use xlink:href="#ArialMT-64" x="533.496094"/>
      <use xlink:href="#ArialMT-75" x="589.111328"/>
      <use xlink:href="#ArialMT-63" x="644.726562"/>
      <use xlink:href="#ArialMT-74" x="694.726562"/>
      <use xlink:href="#ArialMT-69" x="722.509766"/>
      <use xlink:href="#ArialMT-76" x="744.726562"/>
      <use xlink:href="#ArialMT-69" x="794.726562"/>
      <use xlink:href="#ArialMT-74" x="816.943359"/>
      <use xlink:href="#ArialMT-79" x="844.726562"/>
     </g>
     <!-- [$\mathrm{g} \cdot \mathrm{L}^{\mathrm{-1}} \cdot \mathrm{h}^{\mathrm{-1}}$] -->
     <g transform="translate(57.945714 133.7892) rotate(-90) scale(0.11 -0.11)">
      <defs>
       <path id="DejaVuSans-4c" d="M 628 4666 
L 1259 4666 
L 1259 531 
L 3531 531 
L 3531 0 
L 628 0 
L 628 4666 
z
" transform="scale(0.015625)"/>
       <path id="DejaVuSans-68" d="M 3513 2113 
L 3513 0 
L 2938 0 
L 2938 2094 
Q 2938 2591 2744 2837 
Q 2550 3084 2163 3084 
Q 1697 3084 1428 2787 
Q 1159 2491 1159 1978 
L 1159 0 
L 581 0 
L 581 4863 
L 1159 4863 
L 1159 2956 
Q 1366 3272 1645 3428 
Q 1925 3584 2291 3584 
Q 2894 3584 3203 3211 
Q 3513 2838 3513 2113 
z
" transform="scale(0.015625)"/>
      </defs>
      <use xlink:href="#ArialMT-5b" transform="translate(0 0.684375)"/>
      <use xlink:href="#DejaVuSans-67" transform="translate(27.783203 0.684375)"/>
      <use xlink:href="#DejaVuSans-22c5" transform="translate(110.742188 0.684375)"/>
      <use xlink:href="#DejaVuSans-4c" transform="translate(162.011719 0.684375)"/>
      <use xlink:href="#DejaVuSans-2212" transform="translate(218.681641 38.965625) scale(0.7)"/>
      <use xlink:href="#DejaVuSans-31" transform="translate(277.333984 38.965625) scale(0.7)"/>
      <use xlink:href="#DejaVuSans-22c5" transform="translate(344.086914 0.684375)"/>
      <use xlink:href="#DejaVuSans-68" transform="translate(395.356445 0.684375)"/>
      <use xlink:href="#DejaVuSans-2212" transform="translate(459.692383 38.965625) scale(0.7)"/>
      <use xlink:href="#DejaVuSans-31" transform="translate(518.344727 38.965625) scale(0.7)"/>
      <use xlink:href="#ArialMT-5d" transform="translate(565.615234 0.684375)"/>
     </g>
    </g>
   </g>
   <g id="patch_7">
    <path d="M 85.045714 162.2352 
L 85.045714 40.0032 
" style="fill: none; stroke: #000000; stroke-width: 0.8; stroke-linejoin: miter; stroke-linecap: square"/>
   </g>
   <g id="patch_8">
    <path d="M 334.750204 162.2352 
L 334.750204 40.0032 
" style="fill: none; stroke: #000000; stroke-width: 0.8; stroke-linejoin: miter; stroke-linecap: square"/>
   </g>
   <g id="patch_9">
    <path d="M 85.045714 162.2352 
L 334.750204 162.2352 
" style="fill: none; stroke: #000000; stroke-width: 0.8; stroke-linejoin: miter; stroke-linecap: square"/>
   </g>
   <g id="patch_10">
    <path d="M 85.045714 40.0032 
L 334.750204 40.0032 
" style="fill: none; stroke: #000000; stroke-width: 0.8; stroke-linejoin: miter; stroke-linecap: square"/>
   </g>
  </g>
  <g id="axes_6">
   <g id="patch_11">
    <path d="M 85.045714 296.6904 
L 334.750204 296.6904 
L 334.750204 174.4584 
L 85.045714 174.4584 
z
" style="fill: #ffffff; fill-opacity: 0.95"/>
   </g>
   <g id="PathCollection_20">
    <path d="M 265.387846 296.6904 
L 300.069025 296.6904 
L 334.750204 296.6904 
L 334.750204 283.109067 
L 334.750204 269.527733 
L 334.750204 255.9464 
L 334.750204 242.365067 
L 334.750204 228.783733 
L 334.750204 215.2024 
L 334.750204 201.621067 
L 334.750204 188.039733 
L 334.750204 176.46947 
L 328.064653 188.039733 
L 316.358975 201.621067 
L 303.475954 215.2024 
L 300.069025 218.701096 
L 293.768012 228.783733 
L 285.083063 242.365067 
L 276.297709 255.9464 
L 267.940815 269.527733 
L 265.387846 274.994258 
L 262.176138 283.109067 
L 259.565184 296.6904 
z
" clip-path="url(#pf44a6c2879)" style="fill: #ffbc78"/>
   </g>
   <g id="PathCollection_21">
    <path d="M 196.025488 296.6904 
L 230.706667 296.6904 
L 259.565184 296.6904 
L 262.176138 283.109067 
L 265.387846 274.994258 
L 267.940815 269.527733 
L 276.297709 255.9464 
L 285.083063 242.365067 
L 293.768012 228.783733 
L 300.069025 218.701096 
L 303.475954 215.2024 
L 316.358975 201.621067 
L 328.064653 188.039733 
L 334.750204 176.46947 
L 334.750204 174.4584 
L 300.069025 174.4584 
L 265.387846 174.4584 
L 253.18337 174.4584 
L 248.363448 188.039733 
L 241.150319 201.621067 
L 233.176952 215.2024 
L 230.706667 219.273256 
L 225.696915 228.783733 
L 218.346804 242.365067 
L 210.779722 255.9464 
L 203.275744 269.527733 
L 196.932099 283.109067 
L 196.025488 286.553746 
L 193.729751 296.6904 
z
" clip-path="url(#pf44a6c2879)" style="fill: #ffa66a"/>
   </g>
   <g id="PathCollection_22">
    <path d="M 161.344308 296.6904 
L 193.729751 296.6904 
L 196.025488 286.553746 
L 196.932099 283.109067 
L 203.275744 269.527733 
L 210.779722 255.9464 
L 218.346804 242.365067 
L 225.696915 228.783733 
L 230.706667 219.273256 
L 233.176952 215.2024 
L 241.150319 201.621067 
L 248.363448 188.039733 
L 253.18337 174.4584 
L 230.706667 174.4584 
L 199.461451 174.4584 
L 196.025488 184.364806 
L 194.942163 188.039733 
L 188.977867 201.621067 
L 182.341789 215.2024 
L 175.34778 228.783733 
L 168.064167 242.365067 
L 161.344308 254.429762 
L 160.625198 255.9464 
L 154.233619 269.527733 
L 148.540088 283.109067 
L 145.017562 296.6904 
z
" clip-path="url(#pf44a6c2879)" style="fill: #e3905c"/>
   </g>
   <g id="PathCollection_23">
    <path d="M 126.663129 296.6904 
L 145.017562 296.6904 
L 148.540088 283.109067 
L 154.233619 269.527733 
L 160.625198 255.9464 
L 161.344308 254.429762 
L 168.064167 242.365067 
L 175.34778 228.783733 
L 182.341789 215.2024 
L 188.977867 201.621067 
L 194.942163 188.039733 
L 196.025488 184.364806 
L 199.461451 174.4584 
L 196.025488 174.4584 
L 161.344308 174.4584 
L 157.46142 174.4584 
L 153.748299 188.039733 
L 148.097043 201.621067 
L 141.792697 215.2024 
L 135.138803 228.783733 
L 128.155926 242.365067 
L 126.663129 245.190852 
L 121.868249 255.9464 
L 115.679161 269.527733 
L 109.970825 283.109067 
L 106.266397 296.6904 
z
" clip-path="url(#pf44a6c2879)" style="fill: #c17a4e"/>
   </g>
   <g id="PathCollection_24">
    <path d="M 91.98195 296.6904 
L 106.266397 296.6904 
L 109.970825 283.109067 
L 115.679161 269.527733 
L 121.868249 255.9464 
L 126.663129 245.190852 
L 128.155926 242.365067 
L 135.138803 228.783733 
L 141.792697 215.2024 
L 148.097043 201.621067 
L 153.748299 188.039733 
L 157.46142 174.4584 
L 126.663129 174.4584 
L 123.261475 174.4584 
L 119.82628 188.039733 
L 114.591868 201.621067 
L 108.764279 215.2024 
L 102.59484 228.783733 
L 96.059742 242.365067 
L 91.98195 250.480174 
L 89.505845 255.9464 
L 83.249496 269.527733 
L 77.339643 283.109067 
L 73.376695 296.6904 
z
" clip-path="url(#pf44a6c2879)" style="fill: #9d633f"/>
   </g>
   <g id="PathCollection_25">
    <path d="M 57.300771 296.6904 
L 73.376695 296.6904 
L 77.339643 283.109067 
L 83.249496 269.527733 
L 89.505845 255.9464 
L 91.98195 250.480174 
L 96.059742 242.365067 
L 102.59484 228.783733 
L 108.764279 215.2024 
L 114.591868 201.621067 
L 119.82628 188.039733 
L 123.261475 174.4584 
L 94.568111 174.4584 
L 91.98195 183.676426 
L 90.892116 188.039733 
L 85.781882 201.621067 
L 80.081289 215.2024 
L 74.037474 228.783733 
L 67.626454 242.365067 
L 60.812766 255.9464 
L 57.300771 262.768641 
L 52.690827 269.527733 
L 43.911796 283.109067 
L 37.885509 296.6904 
z
" clip-path="url(#pf44a6c2879)" style="fill: #7a4d31"/>
   </g>
   <g id="PathCollection_26">
    <path d="M 43.911796 283.109067 
L 52.690827 269.527733 
L 57.300771 262.768641 
L 60.812766 255.9464 
L 67.626454 242.365067 
L 74.037474 228.783733 
L 80.081289 215.2024 
L 85.781882 201.621067 
L 90.892116 188.039733 
L 91.98195 183.676426 
L 94.568111 174.4584 
L 91.98195 174.4584 
L 69.045023 174.4584 
L 65.346972 188.039733 
L 59.719092 201.621067 
L 57.300771 206.90872 
L 52.296304 215.2024 
L 43.715011 228.783733 
L 34.643767 242.365067 
L 24.910328 255.9464 
L 22.619592 259.056488 
L 22.619592 269.527733 
L 22.619592 283.109067 
L 22.619592 296.6904 
L 37.885509 296.6904 
z
" clip-path="url(#pf44a6c2879)" style="fill: #583723"/>
   </g>
   <g id="PathCollection_27">
    <path d="M 24.910328 255.9464 
L 34.643767 242.365067 
L 43.715011 228.783733 
L 52.296304 215.2024 
L 57.300771 206.90872 
L 59.719092 201.621067 
L 65.346972 188.039733 
L 69.045023 174.4584 
L 57.300771 174.4584 
L 39.981563 174.4584 
L 34.768539 188.039733 
L 26.837336 201.621067 
L 22.619592 208.118297 
L 22.619592 215.2024 
L 22.619592 228.783733 
L 22.619592 242.365067 
L 22.619592 255.9464 
L 22.619592 259.056488 
z
" clip-path="url(#pf44a6c2879)" style="fill: #342115"/>
   </g>
   <g id="PathCollection_28">
    <path d="M 26.837336 201.621067 
L 34.768539 188.039733 
L 39.981563 174.4584 
L 22.619592 174.4584 
L 22.619592 188.039733 
L 22.619592 201.621067 
L 22.619592 208.118297 
z
" clip-path="url(#pf44a6c2879)" style="fill: #110b07"/>
   </g>
   <g id="PathCollection_29"/>
   <g id="PathCollection_30">
    <path d="M 259.565184 296.6904 
L 262.176138 283.109067 
L 265.387846 274.994258 
L 267.940815 269.527733 
L 276.297709 255.9464 
L 285.083063 242.365067 
L 293.768012 228.783733 
L 300.069025 218.701096 
L 303.475954 215.2024 
L 316.358975 201.621067 
L 328.064653 188.039733 
L 334.750204 176.46947 
" clip-path="url(#pf44a6c2879)" style="fill: none; stroke: #3d4240; stroke-opacity: 0.1; stroke-width: 0.8"/>
   </g>
   <g id="PathCollection_31">
    <path d="M 193.729751 296.6904 
L 196.025488 286.553746 
L 196.932099 283.109067 
L 203.275744 269.527733 
L 210.779722 255.9464 
L 218.346804 242.365067 
L 218.89452 241.353013 
" clip-path="url(#pf44a6c2879)" style="fill: none; stroke: #3d4240; stroke-opacity: 0.1; stroke-width: 0.8"/>
    <path d="M 232.543187 216.246799 
L 233.176952 215.2024 
L 241.150319 201.621067 
L 248.363448 188.039733 
L 253.18337 174.4584 
" clip-path="url(#pf44a6c2879)" style="fill: none; stroke: #3d4240; stroke-opacity: 0.1; stroke-width: 0.8"/>
   </g>
   <g id="PathCollection_32">
    <path d="M 145.017562 296.6904 
L 148.540088 283.109067 
L 154.233619 269.527733 
L 160.625198 255.9464 
L 161.344308 254.429762 
L 168.064167 242.365067 
L 175.34778 228.783733 
L 182.341789 215.2024 
L 188.977867 201.621067 
L 194.942163 188.039733 
L 196.025488 184.364806 
L 199.461451 174.4584 
" clip-path="url(#pf44a6c2879)" style="fill: none; stroke: #3d4240; stroke-opacity: 0.1; stroke-width: 0.8"/>
   </g>
   <g id="PathCollection_33">
    <path d="M 106.266397 296.6904 
L 109.970825 283.109067 
L 115.679161 269.527733 
L 121.868249 255.9464 
L 122.130409 255.358339 
" clip-path="url(#pf44a6c2879)" style="fill: none; stroke: #3d4240; stroke-opacity: 0.1; stroke-width: 0.8"/>
    <path d="M 134.696818 229.643371 
L 135.138803 228.783733 
L 141.792697 215.2024 
L 148.097043 201.621067 
L 153.748299 188.039733 
L 157.46142 174.4584 
" clip-path="url(#pf44a6c2879)" style="fill: none; stroke: #3d4240; stroke-opacity: 0.1; stroke-width: 0.8"/>
   </g>
   <g id="PathCollection_34">
    <path d="M 73.376695 296.6904 
L 77.339643 283.109067 
L 83.249496 269.527733 
L 89.505845 255.9464 
L 91.98195 250.480174 
L 96.059742 242.365067 
L 102.59484 228.783733 
L 108.764279 215.2024 
L 114.591868 201.621067 
L 119.82628 188.039733 
L 123.261475 174.4584 
" clip-path="url(#pf44a6c2879)" style="fill: none; stroke: #3d4240; stroke-opacity: 0.1; stroke-width: 0.8"/>
   </g>
   <g id="PathCollection_35">
    <path d="M 37.885509 296.6904 
L 43.911796 283.109067 
L 52.690827 269.527733 
L 57.300771 262.768641 
L 60.812766 255.9464 
L 67.626454 242.365067 
L 67.922709 241.737469 
" clip-path="url(#pf44a6c2879)" style="fill: none; stroke: #3d4240; stroke-opacity: 0.1; stroke-width: 0.8"/>
    <path d="M 79.86642 215.68524 
L 80.081289 215.2024 
L 85.781882 201.621067 
L 90.892116 188.039733 
L 91.98195 183.676426 
L 94.568111 174.4584 
" clip-path="url(#pf44a6c2879)" style="fill: none; stroke: #3d4240; stroke-opacity: 0.1; stroke-width: 0.8"/>
   </g>
   <g id="PathCollection_36">
    <path d="M 22.619592 259.056488 
L 24.910328 255.9464 
L 34.643767 242.365067 
L 43.715011 228.783733 
L 52.296304 215.2024 
L 57.300771 206.90872 
L 59.719092 201.621067 
L 65.346972 188.039733 
L 69.045023 174.4584 
" clip-path="url(#pf44a6c2879)" style="fill: none; stroke: #3d4240; stroke-opacity: 0.1; stroke-width: 0.8"/>
   </g>
   <g id="PathCollection_37">
    <path d="M 22.619592 208.118297 
L 26.837336 201.621067 
L 27.571525 200.363847 
" clip-path="url(#pf44a6c2879)" style="fill: none; stroke: #3d4240; stroke-opacity: 0.1; stroke-width: 0.8"/>
    <path d="M 39.915902 174.629464 
L 39.981563 174.4584 
" clip-path="url(#pf44a6c2879)" style="fill: none; stroke: #3d4240; stroke-opacity: 0.1; stroke-width: 0.8"/>
   </g>
   <g id="PathCollection_38"/>
   <g id="text_24">
    <g clip-path="url(#pf44a6c2879)">
     <!-- 14.4 -->
     <g transform="translate(214.993399 231.627405) scale(0.11 -0.11)">
      <use xlink:href="#ArialMT-31"/>
      <use xlink:href="#ArialMT-34" x="55.615234"/>
      <use xlink:href="#ArialMT-2e" x="111.230469"/>
      <use xlink:href="#ArialMT-34" x="139.013672"/>
     </g>
    </g>
   </g>
   <g id="text_25">
    <g clip-path="url(#pf44a6c2879)">
     <!-- 18.9 -->
     <g transform="translate(117.45241 245.208739) scale(0.11 -0.11)">
      <defs>
       <path id="ArialMT-39" d="M 350 1059 
L 891 1109 
Q 959 728 1153 556 
Q 1347 384 1650 384 
Q 1909 384 2104 503 
Q 2300 622 2425 820 
Q 2550 1019 2634 1356 
Q 2719 1694 2719 2044 
Q 2719 2081 2716 2156 
Q 2547 1888 2255 1720 
Q 1963 1553 1622 1553 
Q 1053 1553 659 1965 
Q 266 2378 266 3053 
Q 266 3750 677 4175 
Q 1088 4600 1706 4600 
Q 2153 4600 2523 4359 
Q 2894 4119 3086 3673 
Q 3278 3228 3278 2384 
Q 3278 1506 3087 986 
Q 2897 466 2520 194 
Q 2144 -78 1638 -78 
Q 1100 -78 759 220 
Q 419 519 350 1059 
z
M 2653 3081 
Q 2653 3566 2395 3850 
Q 2138 4134 1775 4134 
Q 1400 4134 1122 3828 
Q 844 3522 844 3034 
Q 844 2597 1108 2323 
Q 1372 2050 1759 2050 
Q 2150 2050 2401 2323 
Q 2653 2597 2653 3081 
z
" transform="scale(0.015625)"/>
      </defs>
      <use xlink:href="#ArialMT-31"/>
      <use xlink:href="#ArialMT-38" x="55.615234"/>
      <use xlink:href="#ArialMT-2e" x="111.230469"/>
      <use xlink:href="#ArialMT-39" x="139.013672"/>
     </g>
    </g>
   </g>
   <g id="text_26">
    <g clip-path="url(#pf44a6c2879)">
     <!-- 23.3 -->
     <g transform="translate(63.333958 231.627405) scale(0.11 -0.11)">
      <use xlink:href="#ArialMT-32"/>
      <use xlink:href="#ArialMT-33" x="55.615234"/>
      <use xlink:href="#ArialMT-2e" x="111.230469"/>
      <use xlink:href="#ArialMT-33" x="139.013672"/>
     </g>
    </g>
   </g>
   <g id="text_27">
    <g clip-path="url(#pf44a6c2879)">
     <!-- 27.8 -->
     <g transform="translate(24.065024 190.883405) scale(0.11 -0.11)">
      <use xlink:href="#ArialMT-32"/>
      <use xlink:href="#ArialMT-37" x="55.615234"/>
      <use xlink:href="#ArialMT-2e" x="111.230469"/>
      <use xlink:href="#ArialMT-38" x="139.013672"/>
     </g>
    </g>
   </g>
   <g id="matplotlib.axis_7">
    <g id="xtick_6">
     <g id="line2d_23">
      <g>
       <use xlink:href="#m1e1462b2b2" x="85.045714" y="296.6904" style="stroke: #000000; stroke-width: 0.8"/>
      </g>
     </g>
    </g>
    <g id="xtick_7">
     <g id="line2d_24">
      <g>
       <use xlink:href="#m1e1462b2b2" x="147.471837" y="296.6904" style="stroke: #000000; stroke-width: 0.8"/>
      </g>
     </g>
     <g id="text_28">
      <!-- 60 -->
      <g transform="translate(141.354805 310.063994) scale(0.11 -0.11)">
       <use xlink:href="#ArialMT-36"/>
       <use xlink:href="#ArialMT-30" x="55.615234"/>
      </g>
     </g>
    </g>
    <g id="xtick_8">
     <g id="line2d_25">
      <g>
       <use xlink:href="#m1e1462b2b2" x="209.897959" y="296.6904" style="stroke: #000000; stroke-width: 0.8"/>
      </g>
     </g>
     <g id="text_29">
      <!-- 70 -->
      <g transform="translate(203.780928 310.063994) scale(0.11 -0.11)">
       <use xlink:href="#ArialMT-37"/>
       <use xlink:href="#ArialMT-30" x="55.615234"/>
      </g>
     </g>
    </g>
    <g id="xtick_9">
     <g id="line2d_26">
      <g>
       <use xlink:href="#m1e1462b2b2" x="272.324082" y="296.6904" style="stroke: #000000; stroke-width: 0.8"/>
      </g>
     </g>
     <g id="text_30">
      <!-- 80 -->
      <g transform="translate(266.20705 310.063994) scale(0.11 -0.11)">
       <use xlink:href="#ArialMT-38"/>
       <use xlink:href="#ArialMT-30" x="55.615234"/>
      </g>
     </g>
    </g>
    <g id="xtick_10">
     <g id="line2d_27">
      <g>
       <use xlink:href="#m1e1462b2b2" x="334.750204" y="296.6904" style="stroke: #000000; stroke-width: 0.8"/>
      </g>
     </g>
     <g id="text_31">
      <!-- 90 -->
      <g transform="translate(328.633173 310.063994) scale(0.11 -0.11)">
       <use xlink:href="#ArialMT-39"/>
       <use xlink:href="#ArialMT-30" x="55.615234"/>
      </g>
     </g>
    </g>
    <g id="text_32">
     <!-- AcEster Yield [$\mathrm{g} \cdot \mathrm{L}^{\mathrm{-1}}$] -->
     <g transform="translate(155.942959 326.150244) scale(0.11 -0.11)">
      <defs>
       <path id="ArialMT-59" d="M 1784 0 
L 1784 1941 
L 19 4581 
L 756 4581 
L 1659 3200 
Q 1909 2813 2125 2425 
Q 2331 2784 2625 3234 
L 3513 4581 
L 4219 4581 
L 2391 1941 
L 2391 0 
L 1784 0 
z
" transform="scale(0.015625)"/>
       <path id="ArialMT-6c" d="M 409 0 
L 409 4581 
L 972 4581 
L 972 0 
L 409 0 
z
" transform="scale(0.015625)"/>
      </defs>
      <use xlink:href="#ArialMT-41" transform="translate(0 0.684375)"/>
      <use xlink:href="#ArialMT-63" transform="translate(66.699219 0.684375)"/>
      <use xlink:href="#ArialMT-45" transform="translate(116.699219 0.684375)"/>
      <use xlink:href="#ArialMT-73" transform="translate(183.398438 0.684375)"/>
      <use xlink:href="#ArialMT-74" transform="translate(233.398438 0.684375)"/>
      <use xlink:href="#ArialMT-65" transform="translate(261.181641 0.684375)"/>
      <use xlink:href="#ArialMT-72" transform="translate(316.796875 0.684375)"/>
      <use xlink:href="#ArialMT-20" transform="translate(350.097656 0.684375)"/>
      <use xlink:href="#ArialMT-59" transform="translate(377.880859 0.684375)"/>
      <use xlink:href="#ArialMT-69" transform="translate(444.580078 0.684375)"/>
      <use xlink:href="#ArialMT-65" transform="translate(466.796875 0.684375)"/>
      <use xlink:href="#ArialMT-6c" transform="translate(522.412109 0.684375)"/>
      <use xlink:href="#ArialMT-64" transform="translate(544.628906 0.684375)"/>
      <use xlink:href="#ArialMT-20" transform="translate(600.244141 0.684375)"/>
      <use xlink:href="#ArialMT-5b" transform="translate(628.027344 0.684375)"/>
      <use xlink:href="#DejaVuSans-67" transform="translate(655.810547 0.684375)"/>
      <use xlink:href="#DejaVuSans-22c5" transform="translate(738.769531 0.684375)"/>
      <use xlink:href="#DejaVuSans-4c" transform="translate(790.039062 0.684375)"/>
      <use xlink:href="#DejaVuSans-2212" transform="translate(846.708984 38.965625) scale(0.7)"/>
      <use xlink:href="#DejaVuSans-31" transform="translate(905.361328 38.965625) scale(0.7)"/>
      <use xlink:href="#ArialMT-5d" transform="translate(952.631836 0.684375)"/>
     </g>
    </g>
   </g>
   <g id="matplotlib.axis_8">
    <g id="ytick_18">
     <g id="line2d_28">
      <g>
       <use xlink:href="#m4c6f088ad4" x="85.045714" y="296.6904" style="stroke: #000000; stroke-width: 0.8"/>
      </g>
     </g>
     <g id="text_33">
      <!-- 0.2 -->
      <g transform="translate(64.255714 300.627197) scale(0.11 -0.11)">
       <use xlink:href="#ArialMT-30"/>
       <use xlink:href="#ArialMT-2e" x="55.615234"/>
       <use xlink:href="#ArialMT-32" x="83.398438"/>
      </g>
     </g>
    </g>
    <g id="ytick_19">
     <g id="line2d_29">
      <g>
       <use xlink:href="#m4c6f088ad4" x="85.045714" y="276.3184" style="stroke: #000000; stroke-width: 0.8"/>
      </g>
     </g>
     <g id="text_34">
      <!-- 0.5 -->
      <g transform="translate(64.255714 280.255197) scale(0.11 -0.11)">
       <use xlink:href="#ArialMT-30"/>
       <use xlink:href="#ArialMT-2e" x="55.615234"/>
       <use xlink:href="#ArialMT-35" x="83.398438"/>
      </g>
     </g>
    </g>
    <g id="ytick_20">
     <g id="line2d_30">
      <g>
       <use xlink:href="#m4c6f088ad4" x="85.045714" y="255.9464" style="stroke: #000000; stroke-width: 0.8"/>
      </g>
     </g>
     <g id="text_35">
      <!-- 0.8 -->
      <g transform="translate(64.255714 259.883197) scale(0.11 -0.11)">
       <use xlink:href="#ArialMT-30"/>
       <use xlink:href="#ArialMT-2e" x="55.615234"/>
       <use xlink:href="#ArialMT-38" x="83.398438"/>
      </g>
     </g>
    </g>
    <g id="ytick_21">
     <g id="line2d_31">
      <g>
       <use xlink:href="#m4c6f088ad4" x="85.045714" y="235.5744" style="stroke: #000000; stroke-width: 0.8"/>
      </g>
     </g>
     <g id="text_36">
      <!-- 1.1 -->
      <g transform="translate(64.255714 239.511197) scale(0.11 -0.11)">
       <use xlink:href="#ArialMT-31"/>
       <use xlink:href="#ArialMT-2e" x="55.615234"/>
       <use xlink:href="#ArialMT-31" x="83.398438"/>
      </g>
     </g>
    </g>
    <g id="ytick_22">
     <g id="line2d_32">
      <g>
       <use xlink:href="#m4c6f088ad4" x="85.045714" y="215.2024" style="stroke: #000000; stroke-width: 0.8"/>
      </g>
     </g>
     <g id="text_37">
      <!-- 1.4 -->
      <g transform="translate(64.255714 219.139197) scale(0.11 -0.11)">
       <use xlink:href="#ArialMT-31"/>
       <use xlink:href="#ArialMT-2e" x="55.615234"/>
       <use xlink:href="#ArialMT-34" x="83.398438"/>
      </g>
     </g>
    </g>
    <g id="ytick_23">
     <g id="line2d_33">
      <g>
       <use xlink:href="#m4c6f088ad4" x="85.045714" y="194.8304" style="stroke: #000000; stroke-width: 0.8"/>
      </g>
     </g>
     <g id="text_38">
      <!-- 1.7 -->
      <g transform="translate(64.255714 198.767197) scale(0.11 -0.11)">
       <use xlink:href="#ArialMT-31"/>
       <use xlink:href="#ArialMT-2e" x="55.615234"/>
       <use xlink:href="#ArialMT-37" x="83.398438"/>
      </g>
     </g>
    </g>
    <g id="ytick_24">
     <g id="line2d_34">
      <g>
       <use xlink:href="#m4c6f088ad4" x="85.045714" y="174.4584" style="stroke: #000000; stroke-width: 0.8"/>
      </g>
     </g>
     <g id="text_39">
      <!-- 2.0 -->
      <g transform="translate(64.255714 178.395197) scale(0.11 -0.11)">
       <use xlink:href="#ArialMT-32"/>
       <use xlink:href="#ArialMT-2e" x="55.615234"/>
       <use xlink:href="#ArialMT-30" x="83.398438"/>
      </g>
     </g>
    </g>
    <g id="text_40">
     <!-- AcEster Productivity -->
     <g transform="translate(43.750558 284.783072) rotate(-90) scale(0.11 -0.11)">
      <use xlink:href="#ArialMT-41"/>
      <use xlink:href="#ArialMT-63" x="66.699219"/>
      <use xlink:href="#ArialMT-45" x="116.699219"/>
      <use xlink:href="#ArialMT-73" x="183.398438"/>
      <use xlink:href="#ArialMT-74" x="233.398438"/>
      <use xlink:href="#ArialMT-65" x="261.181641"/>
      <use xlink:href="#ArialMT-72" x="316.796875"/>
      <use xlink:href="#ArialMT-20" x="350.097656"/>
      <use xlink:href="#ArialMT-50" x="377.880859"/>
      <use xlink:href="#ArialMT-72" x="444.580078"/>
      <use xlink:href="#ArialMT-6f" x="477.880859"/>
      <use xlink:href="#ArialMT-64" x="533.496094"/>
      <use xlink:href="#ArialMT-75" x="589.111328"/>
      <use xlink:href="#ArialMT-63" x="644.726562"/>
      <use xlink:href="#ArialMT-74" x="694.726562"/>
      <use xlink:href="#ArialMT-69" x="722.509766"/>
      <use xlink:href="#ArialMT-76" x="744.726562"/>
      <use xlink:href="#ArialMT-69" x="794.726562"/>
      <use xlink:href="#ArialMT-74" x="816.943359"/>
      <use xlink:href="#ArialMT-79" x="844.726562"/>
     </g>
     <!-- [$\mathrm{g} \cdot \mathrm{L}^{\mathrm{-1}} \cdot \mathrm{h}^{\mathrm{-1}}$] -->
     <g transform="translate(57.945714 268.2444) rotate(-90) scale(0.11 -0.11)">
      <use xlink:href="#ArialMT-5b" transform="translate(0 0.684375)"/>
      <use xlink:href="#DejaVuSans-67" transform="translate(27.783203 0.684375)"/>
      <use xlink:href="#DejaVuSans-22c5" transform="translate(110.742188 0.684375)"/>
      <use xlink:href="#DejaVuSans-4c" transform="translate(162.011719 0.684375)"/>
      <use xlink:href="#DejaVuSans-2212" transform="translate(218.681641 38.965625) scale(0.7)"/>
      <use xlink:href="#DejaVuSans-31" transform="translate(277.333984 38.965625) scale(0.7)"/>
      <use xlink:href="#DejaVuSans-22c5" transform="translate(344.086914 0.684375)"/>
      <use xlink:href="#DejaVuSans-68" transform="translate(395.356445 0.684375)"/>
      <use xlink:href="#DejaVuSans-2212" transform="translate(459.692383 38.965625) scale(0.7)"/>
      <use xlink:href="#DejaVuSans-31" transform="translate(518.344727 38.965625) scale(0.7)"/>
      <use xlink:href="#ArialMT-5d" transform="translate(565.615234 0.684375)"/>
     </g>
    </g>
   </g>
   <g id="patch_12">
    <path d="M 85.045714 296.6904 
L 85.045714 174.4584 
" style="fill: none; stroke: #000000; stroke-width: 0.8; stroke-linejoin: miter; stroke-linecap: square"/>
   </g>
   <g id="patch_13">
    <path d="M 334.750204 296.6904 
L 334.750204 174.4584 
" style="fill: none; stroke: #000000; stroke-width: 0.8; stroke-linejoin: miter; stroke-linecap: square"/>
   </g>
   <g id="patch_14">
    <path d="M 85.045714 296.6904 
L 334.750204 296.6904 
" style="fill: none; stroke: #000000; stroke-width: 0.8; stroke-linejoin: miter; stroke-linecap: square"/>
   </g>
   <g id="patch_15">
    <path d="M 85.045714 174.4584 
L 334.750204 174.4584 
" style="fill: none; stroke: #000000; stroke-width: 0.8; stroke-linejoin: miter; stroke-linecap: square"/>
   </g>
  </g>
  <g id="axes_7">
   <g id="matplotlib.axis_9">
    <g id="ytick_25">
     <g id="line2d_35">
      <defs>
       <path id="m6ddb1bb623" d="M 0 0 
L -4 0 
" style="stroke: #000000; stroke-width: 0.8"/>
      </defs>
      <g>
       <use xlink:href="#m6ddb1bb623" x="334.750204" y="162.2352" style="stroke: #000000; stroke-width: 0.8"/>
      </g>
     </g>
    </g>
    <g id="ytick_26">
     <g id="line2d_36">
      <g>
       <use xlink:href="#m6ddb1bb623" x="334.750204" y="141.8632" style="stroke: #000000; stroke-width: 0.8"/>
      </g>
     </g>
    </g>
    <g id="ytick_27">
     <g id="line2d_37">
      <g>
       <use xlink:href="#m6ddb1bb623" x="334.750204" y="121.4912" style="stroke: #000000; stroke-width: 0.8"/>
      </g>
     </g>
    </g>
    <g id="ytick_28">
     <g id="line2d_38">
      <g>
       <use xlink:href="#m6ddb1bb623" x="334.750204" y="101.1192" style="stroke: #000000; stroke-width: 0.8"/>
      </g>
     </g>
    </g>
    <g id="ytick_29">
     <g id="line2d_39">
      <g>
       <use xlink:href="#m6ddb1bb623" x="334.750204" y="80.7472" style="stroke: #000000; stroke-width: 0.8"/>
      </g>
     </g>
    </g>
    <g id="ytick_30">
     <g id="line2d_40">
      <g>
       <use xlink:href="#m6ddb1bb623" x="334.750204" y="60.3752" style="stroke: #000000; stroke-width: 0.8"/>
      </g>
     </g>
    </g>
    <g id="ytick_31">
     <g id="line2d_41">
      <g>
       <use xlink:href="#m6ddb1bb623" x="334.750204" y="40.0032" style="stroke: #000000; stroke-width: 0.8"/>
      </g>
     </g>
    </g>
   </g>
   <g id="patch_16">
    <path d="M 85.045714 162.2352 
L 85.045714 40.0032 
" style="fill: none; stroke: #000000; stroke-width: 0.8; stroke-linejoin: miter; stroke-linecap: square"/>
   </g>
   <g id="patch_17">
    <path d="M 334.750204 162.2352 
L 334.750204 40.0032 
" style="fill: none; stroke: #000000; stroke-width: 0.8; stroke-linejoin: miter; stroke-linecap: square"/>
   </g>
   <g id="patch_18">
    <path d="M 85.045714 162.2352 
L 334.750204 162.2352 
" style="fill: none; stroke: #000000; stroke-width: 0.8; stroke-linejoin: miter; stroke-linecap: square"/>
   </g>
   <g id="patch_19">
    <path d="M 85.045714 40.0032 
L 334.750204 40.0032 
" style="fill: none; stroke: #000000; stroke-width: 0.8; stroke-linejoin: miter; stroke-linecap: square"/>
   </g>
  </g>
  <g id="axes_8">
   <g id="matplotlib.axis_10">
    <g id="xtick_11">
     <g id="line2d_42">
      <defs>
       <path id="mce8cd5d5f1" d="M 0 0 
L 0 4 
" style="stroke: #000000; stroke-width: 0.8"/>
      </defs>
      <g>
       <use xlink:href="#mce8cd5d5f1" x="85.045714" y="40.0032" style="stroke: #000000; stroke-width: 0.8"/>
      </g>
     </g>
    </g>
    <g id="xtick_12">
     <g id="line2d_43">
      <g>
       <use xlink:href="#mce8cd5d5f1" x="147.471837" y="40.0032" style="stroke: #000000; stroke-width: 0.8"/>
      </g>
     </g>
    </g>
    <g id="xtick_13">
     <g id="line2d_44">
      <g>
       <use xlink:href="#mce8cd5d5f1" x="209.897959" y="40.0032" style="stroke: #000000; stroke-width: 0.8"/>
      </g>
     </g>
    </g>
    <g id="xtick_14">
     <g id="line2d_45">
      <g>
       <use xlink:href="#mce8cd5d5f1" x="272.324082" y="40.0032" style="stroke: #000000; stroke-width: 0.8"/>
      </g>
     </g>
    </g>
    <g id="xtick_15">
     <g id="line2d_46">
      <g>
       <use xlink:href="#mce8cd5d5f1" x="334.750204" y="40.0032" style="stroke: #000000; stroke-width: 0.8"/>
      </g>
     </g>
    </g>
   </g>
   <g id="patch_20">
    <path d="M 85.045714 162.2352 
L 85.045714 40.0032 
" style="fill: none; stroke: #000000; stroke-width: 0.8; stroke-linejoin: miter; stroke-linecap: square"/>
   </g>
   <g id="patch_21">
    <path d="M 334.750204 162.2352 
L 334.750204 40.0032 
" style="fill: none; stroke: #000000; stroke-width: 0.8; stroke-linejoin: miter; stroke-linecap: square"/>
   </g>
   <g id="patch_22">
    <path d="M 85.045714 162.2352 
L 334.750204 162.2352 
" style="fill: none; stroke: #000000; stroke-width: 0.8; stroke-linejoin: miter; stroke-linecap: square"/>
   </g>
   <g id="patch_23">
    <path d="M 85.045714 40.0032 
L 334.750204 40.0032 
" style="fill: none; stroke: #000000; stroke-width: 0.8; stroke-linejoin: miter; stroke-linecap: square"/>
   </g>
  </g>
  <g id="axes_9">
   <g id="matplotlib.axis_11">
    <g id="ytick_32">
     <g id="line2d_47">
      <g>
       <use xlink:href="#m6ddb1bb623" x="334.750204" y="296.6904" style="stroke: #000000; stroke-width: 0.8"/>
      </g>
     </g>
    </g>
    <g id="ytick_33">
     <g id="line2d_48">
      <g>
       <use xlink:href="#m6ddb1bb623" x="334.750204" y="276.3184" style="stroke: #000000; stroke-width: 0.8"/>
      </g>
     </g>
    </g>
    <g id="ytick_34">
     <g id="line2d_49">
      <g>
       <use xlink:href="#m6ddb1bb623" x="334.750204" y="255.9464" style="stroke: #000000; stroke-width: 0.8"/>
      </g>
     </g>
    </g>
    <g id="ytick_35">
     <g id="line2d_50">
      <g>
       <use xlink:href="#m6ddb1bb623" x="334.750204" y="235.5744" style="stroke: #000000; stroke-width: 0.8"/>
      </g>
     </g>
    </g>
    <g id="ytick_36">
     <g id="line2d_51">
      <g>
       <use xlink:href="#m6ddb1bb623" x="334.750204" y="215.2024" style="stroke: #000000; stroke-width: 0.8"/>
      </g>
     </g>
    </g>
    <g id="ytick_37">
     <g id="line2d_52">
      <g>
       <use xlink:href="#m6ddb1bb623" x="334.750204" y="194.8304" style="stroke: #000000; stroke-width: 0.8"/>
      </g>
     </g>
    </g>
    <g id="ytick_38">
     <g id="line2d_53">
      <g>
       <use xlink:href="#m6ddb1bb623" x="334.750204" y="174.4584" style="stroke: #000000; stroke-width: 0.8"/>
      </g>
     </g>
    </g>
   </g>
   <g id="patch_24">
    <path d="M 85.045714 296.6904 
L 85.045714 174.4584 
" style="fill: none; stroke: #000000; stroke-width: 0.8; stroke-linejoin: miter; stroke-linecap: square"/>
   </g>
   <g id="patch_25">
    <path d="M 334.750204 296.6904 
L 334.750204 174.4584 
" style="fill: none; stroke: #000000; stroke-width: 0.8; stroke-linejoin: miter; stroke-linecap: square"/>
   </g>
   <g id="patch_26">
    <path d="M 85.045714 296.6904 
L 334.750204 296.6904 
" style="fill: none; stroke: #000000; stroke-width: 0.8; stroke-linejoin: miter; stroke-linecap: square"/>
   </g>
   <g id="patch_27">
    <path d="M 85.045714 174.4584 
L 334.750204 174.4584 
" style="fill: none; stroke: #000000; stroke-width: 0.8; stroke-linejoin: miter; stroke-linecap: square"/>
   </g>
  </g>
  <g id="axes_10">
   <g id="matplotlib.axis_12">
    <g id="xtick_16">
     <g id="line2d_54">
      <g>
       <use xlink:href="#mce8cd5d5f1" x="85.045714" y="174.4584" style="stroke: #000000; stroke-width: 0.8"/>
      </g>
     </g>
    </g>
    <g id="xtick_17">
     <g id="line2d_55">
      <g>
       <use xlink:href="#mce8cd5d5f1" x="147.471837" y="174.4584" style="stroke: #000000; stroke-width: 0.8"/>
      </g>
     </g>
    </g>
    <g id="xtick_18">
     <g id="line2d_56">
      <g>
       <use xlink:href="#mce8cd5d5f1" x="209.897959" y="174.4584" style="stroke: #000000; stroke-width: 0.8"/>
      </g>
     </g>
    </g>
    <g id="xtick_19">
     <g id="line2d_57">
      <g>
       <use xlink:href="#mce8cd5d5f1" x="272.324082" y="174.4584" style="stroke: #000000; stroke-width: 0.8"/>
      </g>
     </g>
    </g>
    <g id="xtick_20">
     <g id="line2d_58">
      <g>
       <use xlink:href="#mce8cd5d5f1" x="334.750204" y="174.4584" style="stroke: #000000; stroke-width: 0.8"/>
      </g>
     </g>
    </g>
   </g>
   <g id="patch_28">
    <path d="M 85.045714 296.6904 
L 85.045714 174.4584 
" style="fill: none; stroke: #000000; stroke-width: 0.8; stroke-linejoin: miter; stroke-linecap: square"/>
   </g>
   <g id="patch_29">
    <path d="M 334.750204 296.6904 
L 334.750204 174.4584 
" style="fill: none; stroke: #000000; stroke-width: 0.8; stroke-linejoin: miter; stroke-linecap: square"/>
   </g>
   <g id="patch_30">
    <path d="M 85.045714 296.6904 
L 334.750204 296.6904 
" style="fill: none; stroke: #000000; stroke-width: 0.8; stroke-linejoin: miter; stroke-linecap: square"/>
   </g>
   <g id="patch_31">
    <path d="M 85.045714 174.4584 
L 334.750204 174.4584 
" style="fill: none; stroke: #000000; stroke-width: 0.8; stroke-linejoin: miter; stroke-linecap: square"/>
   </g>
  </g>
 </g>
 <defs>
  <clipPath id="p927ee60cbe">
   <rect x="381.569796" y="52.2264" width="4.88928" height="97.7856"/>
  </clipPath>
  <clipPath id="pff18694c03">
   <rect x="381.569796" y="186.6816" width="4.88928" height="97.7856"/>
  </clipPath>
  <clipPath id="pd35e839314">
   <rect x="85.045714" y="40.0032" width="249.70449" height="122.232"/>
  </clipPath>
  <clipPath id="pf44a6c2879">
   <rect x="85.045714" y="174.4584" width="249.70449" height="122.232"/>
  </clipPath>
 </defs>
</svg>
