<?xml version="1.0" encoding="utf-8" standalone="no"?>
<!DOCTYPE svg PUBLIC "-//W3C//DTD SVG 1.1//EN"
  "http://www.w3.org/Graphics/SVG/1.1/DTD/svg11.dtd">
<svg xmlns:xlink="http://www.w3.org/1999/xlink" width="460.8pt" height="345.6pt" viewBox="0 0 460.8 345.6" xmlns="http://www.w3.org/2000/svg" version="1.1">
 <metadata>
  <rdf:RDF xmlns:dc="http://purl.org/dc/elements/1.1/" xmlns:cc="http://creativecommons.org/ns#" xmlns:rdf="http://www.w3.org/1999/02/22-rdf-syntax-ns#">
   <cc:Work>
    <dc:type rdf:resource="http://purl.org/dc/dcmitype/StillImage"/>
    <dc:date>2024-01-20T15:29:47.228106</dc:date>
    <dc:format>image/svg+xml</dc:format>
    <dc:creator>
     <cc:Agent>
      <dc:title>Matplotlib v3.7.1, https://matplotlib.org/</dc:title>
     </cc:Agent>
    </dc:creator>
   </cc:Work>
  </rdf:RDF>
 </metadata>
 <defs>
  <style type="text/css">*{stroke-linejoin: round; stroke-linecap: butt}</style>
 </defs>
 <g id="figure_1">
  <g id="patch_1">
   <path d="M 0 345.6 
L 460.8 345.6 
L 460.8 0 
L 0 0 
z
" style="fill: #ffffff; fill-opacity: 0.95"/>
  </g>
  <g id="axes_1"/>
  <g id="axes_2"/>
  <g id="axes_3">
   <g id="patch_2">
    <path d="M 380.708571 155.52 
L 385.777371 155.52 
L 385.777371 54.144 
L 380.708571 54.144 
z
" style="fill: #ffffff; fill-opacity: 0.95"/>
   </g>
   <g id="QuadMesh_1">
    <path d="M 380.708571 155.52 
L 385.777371 155.52 
L 385.777371 144.256 
L 380.708571 144.256 
L 380.708571 155.52 
" clip-path="url(#p079519800c)" style="fill: #dae319"/>
    <path d="M 380.708571 144.256 
L 385.777371 144.256 
L 385.777371 132.992 
L 380.708571 132.992 
L 380.708571 144.256 
" clip-path="url(#p079519800c)" style="fill: #90d743"/>
    <path d="M 380.708571 132.992 
L 385.777371 132.992 
L 385.777371 121.728 
L 380.708571 121.728 
L 380.708571 132.992 
" clip-path="url(#p079519800c)" style="fill: #4ec36b"/>
    <path d="M 380.708571 121.728 
L 385.777371 121.728 
L 385.777371 110.464 
L 380.708571 110.464 
L 380.708571 121.728 
" clip-path="url(#p079519800c)" style="fill: #25ab82"/>
    <path d="M 380.708571 110.464 
L 385.777371 110.464 
L 385.777371 99.2 
L 380.708571 99.2 
L 380.708571 110.464 
" clip-path="url(#p079519800c)" style="fill: #21908d"/>
    <path d="M 380.708571 99.2 
L 385.777371 99.2 
L 385.777371 87.936 
L 380.708571 87.936 
L 380.708571 99.2 
" clip-path="url(#p079519800c)" style="fill: #2b758e"/>
    <path d="M 380.708571 87.936 
L 385.777371 87.936 
L 385.777371 76.672 
L 380.708571 76.672 
L 380.708571 87.936 
" clip-path="url(#p079519800c)" style="fill: #375a8c"/>
    <path d="M 380.708571 76.672 
L 385.777371 76.672 
L 385.777371 65.408 
L 380.708571 65.408 
L 380.708571 76.672 
" clip-path="url(#p079519800c)" style="fill: #443983"/>
    <path d="M 380.708571 65.408 
L 385.777371 65.408 
L 385.777371 54.144 
L 380.708571 54.144 
L 380.708571 65.408 
" clip-path="url(#p079519800c)" style="fill: #481668"/>
   </g>
   <g id="matplotlib.axis_1"/>
   <g id="matplotlib.axis_2">
    <g id="ytick_1">
     <g id="line2d_1">
      <defs>
       <path id="m371c40c41f" d="M 0 0 
L 3.5 0 
" style="stroke: #000000; stroke-width: 0.8"/>
      </defs>
      <g>
       <use xlink:href="#m371c40c41f" x="385.777371" y="155.52" style="stroke: #000000; stroke-width: 0.8"/>
      </g>
     </g>
     <g id="text_1">
      <!-- 4 -->
      <g transform="translate(392.777371 159.456797) scale(0.11 -0.11)">
       <defs>
        <path id="ArialMT-34" d="M 2069 0 
L 2069 1097 
L 81 1097 
L 81 1613 
L 2172 4581 
L 2631 4581 
L 2631 1613 
L 3250 1613 
L 3250 1097 
L 2631 1097 
L 2631 0 
L 2069 0 
z
M 2069 1613 
L 2069 3678 
L 634 1613 
L 2069 1613 
z
" transform="scale(0.015625)"/>
       </defs>
       <use xlink:href="#ArialMT-34"/>
      </g>
     </g>
    </g>
    <g id="ytick_2">
     <g id="line2d_2">
      <g>
       <use xlink:href="#m371c40c41f" x="385.777371" y="130.176" style="stroke: #000000; stroke-width: 0.8"/>
      </g>
     </g>
     <g id="text_2">
      <!-- 7 -->
      <g transform="translate(392.777371 134.112797) scale(0.11 -0.11)">
       <defs>
        <path id="ArialMT-37" d="M 303 3981 
L 303 4522 
L 3269 4522 
L 3269 4084 
Q 2831 3619 2401 2847 
Q 1972 2075 1738 1259 
Q 1569 684 1522 0 
L 944 0 
Q 953 541 1156 1306 
Q 1359 2072 1739 2783 
Q 2119 3494 2547 3981 
L 303 3981 
z
" transform="scale(0.015625)"/>
       </defs>
       <use xlink:href="#ArialMT-37"/>
      </g>
     </g>
    </g>
    <g id="ytick_3">
     <g id="line2d_3">
      <g>
       <use xlink:href="#m371c40c41f" x="385.777371" y="104.832" style="stroke: #000000; stroke-width: 0.8"/>
      </g>
     </g>
     <g id="text_3">
      <!-- 10 -->
      <g transform="translate(392.777371 108.768797) scale(0.11 -0.11)">
       <defs>
        <path id="ArialMT-31" d="M 2384 0 
L 1822 0 
L 1822 3584 
Q 1619 3391 1289 3197 
Q 959 3003 697 2906 
L 697 3450 
Q 1169 3672 1522 3987 
Q 1875 4303 2022 4600 
L 2384 4600 
L 2384 0 
z
" transform="scale(0.015625)"/>
        <path id="ArialMT-30" d="M 266 2259 
Q 266 3072 433 3567 
Q 600 4063 929 4331 
Q 1259 4600 1759 4600 
Q 2128 4600 2406 4451 
Q 2684 4303 2865 4023 
Q 3047 3744 3150 3342 
Q 3253 2941 3253 2259 
Q 3253 1453 3087 958 
Q 2922 463 2592 192 
Q 2263 -78 1759 -78 
Q 1097 -78 719 397 
Q 266 969 266 2259 
z
M 844 2259 
Q 844 1131 1108 757 
Q 1372 384 1759 384 
Q 2147 384 2411 759 
Q 2675 1134 2675 2259 
Q 2675 3391 2411 3762 
Q 2147 4134 1753 4134 
Q 1366 4134 1134 3806 
Q 844 3388 844 2259 
z
" transform="scale(0.015625)"/>
       </defs>
       <use xlink:href="#ArialMT-31"/>
       <use xlink:href="#ArialMT-30" x="55.615234"/>
      </g>
     </g>
    </g>
    <g id="ytick_4">
     <g id="line2d_4">
      <g>
       <use xlink:href="#m371c40c41f" x="385.777371" y="79.488" style="stroke: #000000; stroke-width: 0.8"/>
      </g>
     </g>
     <g id="text_4">
      <!-- 13 -->
      <g transform="translate(392.777371 83.424797) scale(0.11 -0.11)">
       <defs>
        <path id="ArialMT-33" d="M 269 1209 
L 831 1284 
Q 928 806 1161 595 
Q 1394 384 1728 384 
Q 2125 384 2398 659 
Q 2672 934 2672 1341 
Q 2672 1728 2419 1979 
Q 2166 2231 1775 2231 
Q 1616 2231 1378 2169 
L 1441 2663 
Q 1497 2656 1531 2656 
Q 1891 2656 2178 2843 
Q 2466 3031 2466 3422 
Q 2466 3731 2256 3934 
Q 2047 4138 1716 4138 
Q 1388 4138 1169 3931 
Q 950 3725 888 3313 
L 325 3413 
Q 428 3978 793 4289 
Q 1159 4600 1703 4600 
Q 2078 4600 2393 4439 
Q 2709 4278 2876 4000 
Q 3044 3722 3044 3409 
Q 3044 3113 2884 2869 
Q 2725 2625 2413 2481 
Q 2819 2388 3044 2092 
Q 3269 1797 3269 1353 
Q 3269 753 2831 336 
Q 2394 -81 1725 -81 
Q 1122 -81 723 278 
Q 325 638 269 1209 
z
" transform="scale(0.015625)"/>
       </defs>
       <use xlink:href="#ArialMT-31"/>
       <use xlink:href="#ArialMT-33" x="55.615234"/>
      </g>
     </g>
    </g>
    <g id="ytick_5">
     <g id="line2d_5">
      <g>
       <use xlink:href="#m371c40c41f" x="385.777371" y="54.144" style="stroke: #000000; stroke-width: 0.8"/>
      </g>
     </g>
     <g id="text_5">
      <!-- 16 -->
      <g transform="translate(392.777371 58.080797) scale(0.11 -0.11)">
       <defs>
        <path id="ArialMT-36" d="M 3184 3459 
L 2625 3416 
Q 2550 3747 2413 3897 
Q 2184 4138 1850 4138 
Q 1581 4138 1378 3988 
Q 1113 3794 959 3422 
Q 806 3050 800 2363 
Q 1003 2672 1297 2822 
Q 1591 2972 1913 2972 
Q 2475 2972 2870 2558 
Q 3266 2144 3266 1488 
Q 3266 1056 3080 686 
Q 2894 316 2569 119 
Q 2244 -78 1831 -78 
Q 1128 -78 684 439 
Q 241 956 241 2144 
Q 241 3472 731 4075 
Q 1159 4600 1884 4600 
Q 2425 4600 2770 4297 
Q 3116 3994 3184 3459 
z
M 888 1484 
Q 888 1194 1011 928 
Q 1134 663 1356 523 
Q 1578 384 1822 384 
Q 2178 384 2434 671 
Q 2691 959 2691 1453 
Q 2691 1928 2437 2201 
Q 2184 2475 1800 2475 
Q 1419 2475 1153 2201 
Q 888 1928 888 1484 
z
" transform="scale(0.015625)"/>
       </defs>
       <use xlink:href="#ArialMT-31"/>
       <use xlink:href="#ArialMT-36" x="55.615234"/>
      </g>
     </g>
    </g>
   </g>
   <g id="LineCollection_1"/>
   <g id="patch_3">
    <path d="M 380.708571 155.52 
L 383.242971 155.52 
L 385.777371 155.52 
L 385.777371 54.144 
L 383.242971 54.144 
L 380.708571 54.144 
L 380.708571 155.52 
z
" style="fill: none; stroke: #000000; stroke-width: 0.8; stroke-linejoin: miter; stroke-linecap: square"/>
   </g>
   <g id="text_6">
    <!-- MSP -->
    <g transform="translate(370.240784 32.799) scale(0.12 -0.12)">
     <defs>
      <path id="ArialMT-4d" d="M 475 0 
L 475 4581 
L 1388 4581 
L 2472 1338 
Q 2622 884 2691 659 
Q 2769 909 2934 1394 
L 4031 4581 
L 4847 4581 
L 4847 0 
L 4263 0 
L 4263 3834 
L 2931 0 
L 2384 0 
L 1059 3900 
L 1059 0 
L 475 0 
z
" transform="scale(0.015625)"/>
      <path id="ArialMT-53" d="M 288 1472 
L 859 1522 
Q 900 1178 1048 958 
Q 1197 738 1509 602 
Q 1822 466 2213 466 
Q 2559 466 2825 569 
Q 3091 672 3220 851 
Q 3350 1031 3350 1244 
Q 3350 1459 3225 1620 
Q 3100 1781 2813 1891 
Q 2628 1963 1997 2114 
Q 1366 2266 1113 2400 
Q 784 2572 623 2826 
Q 463 3081 463 3397 
Q 463 3744 659 4045 
Q 856 4347 1234 4503 
Q 1613 4659 2075 4659 
Q 2584 4659 2973 4495 
Q 3363 4331 3572 4012 
Q 3781 3694 3797 3291 
L 3216 3247 
Q 3169 3681 2898 3903 
Q 2628 4125 2100 4125 
Q 1550 4125 1298 3923 
Q 1047 3722 1047 3438 
Q 1047 3191 1225 3031 
Q 1400 2872 2139 2705 
Q 2878 2538 3153 2413 
Q 3553 2228 3743 1945 
Q 3934 1663 3934 1294 
Q 3934 928 3725 604 
Q 3516 281 3123 101 
Q 2731 -78 2241 -78 
Q 1619 -78 1198 103 
Q 778 284 539 648 
Q 300 1013 288 1472 
z
" transform="scale(0.015625)"/>
      <path id="ArialMT-50" d="M 494 0 
L 494 4581 
L 2222 4581 
Q 2678 4581 2919 4538 
Q 3256 4481 3484 4323 
Q 3713 4166 3852 3881 
Q 3991 3597 3991 3256 
Q 3991 2672 3619 2267 
Q 3247 1863 2275 1863 
L 1100 1863 
L 1100 0 
L 494 0 
z
M 1100 2403 
L 2284 2403 
Q 2872 2403 3119 2622 
Q 3366 2841 3366 3238 
Q 3366 3525 3220 3729 
Q 3075 3934 2838 4000 
Q 2684 4041 2272 4041 
L 1100 4041 
L 1100 2403 
z
" transform="scale(0.015625)"/>
     </defs>
     <use xlink:href="#ArialMT-4d"/>
     <use xlink:href="#ArialMT-53" x="83.300781"/>
     <use xlink:href="#ArialMT-50" x="150"/>
    </g>
    <!-- [$\mathrm{USD} \cdot \mathrm{kg}^{\mathrm{-1}}$] -->
    <g transform="translate(349.102971 48.144) scale(0.12 -0.12)">
     <defs>
      <path id="ArialMT-5b" d="M 434 -1272 
L 434 4581 
L 1675 4581 
L 1675 4116 
L 997 4116 
L 997 -806 
L 1675 -806 
L 1675 -1272 
L 434 -1272 
z
" transform="scale(0.015625)"/>
      <path id="DejaVuSans-55" d="M 556 4666 
L 1191 4666 
L 1191 1831 
Q 1191 1081 1462 751 
Q 1734 422 2344 422 
Q 2950 422 3222 751 
Q 3494 1081 3494 1831 
L 3494 4666 
L 4128 4666 
L 4128 1753 
Q 4128 841 3676 375 
Q 3225 -91 2344 -91 
Q 1459 -91 1007 375 
Q 556 841 556 1753 
L 556 4666 
z
" transform="scale(0.015625)"/>
      <path id="DejaVuSans-53" d="M 3425 4513 
L 3425 3897 
Q 3066 4069 2747 4153 
Q 2428 4238 2131 4238 
Q 1616 4238 1336 4038 
Q 1056 3838 1056 3469 
Q 1056 3159 1242 3001 
Q 1428 2844 1947 2747 
L 2328 2669 
Q 3034 2534 3370 2195 
Q 3706 1856 3706 1288 
Q 3706 609 3251 259 
Q 2797 -91 1919 -91 
Q 1588 -91 1214 -16 
Q 841 59 441 206 
L 441 856 
Q 825 641 1194 531 
Q 1563 422 1919 422 
Q 2459 422 2753 634 
Q 3047 847 3047 1241 
Q 3047 1584 2836 1778 
Q 2625 1972 2144 2069 
L 1759 2144 
Q 1053 2284 737 2584 
Q 422 2884 422 3419 
Q 422 4038 858 4394 
Q 1294 4750 2059 4750 
Q 2388 4750 2728 4690 
Q 3069 4631 3425 4513 
z
" transform="scale(0.015625)"/>
      <path id="DejaVuSans-44" d="M 1259 4147 
L 1259 519 
L 2022 519 
Q 2988 519 3436 956 
Q 3884 1394 3884 2338 
Q 3884 3275 3436 3711 
Q 2988 4147 2022 4147 
L 1259 4147 
z
M 628 4666 
L 1925 4666 
Q 3281 4666 3915 4102 
Q 4550 3538 4550 2338 
Q 4550 1131 3912 565 
Q 3275 0 1925 0 
L 628 0 
L 628 4666 
z
" transform="scale(0.015625)"/>
      <path id="DejaVuSans-22c5" d="M 684 2619 
L 1344 2619 
L 1344 1825 
L 684 1825 
L 684 2619 
z
" transform="scale(0.015625)"/>
      <path id="DejaVuSans-6b" d="M 581 4863 
L 1159 4863 
L 1159 1991 
L 2875 3500 
L 3609 3500 
L 1753 1863 
L 3688 0 
L 2938 0 
L 1159 1709 
L 1159 0 
L 581 0 
L 581 4863 
z
" transform="scale(0.015625)"/>
      <path id="DejaVuSans-67" d="M 2906 1791 
Q 2906 2416 2648 2759 
Q 2391 3103 1925 3103 
Q 1463 3103 1205 2759 
Q 947 2416 947 1791 
Q 947 1169 1205 825 
Q 1463 481 1925 481 
Q 2391 481 2648 825 
Q 2906 1169 2906 1791 
z
M 3481 434 
Q 3481 -459 3084 -895 
Q 2688 -1331 1869 -1331 
Q 1566 -1331 1297 -1286 
Q 1028 -1241 775 -1147 
L 775 -588 
Q 1028 -725 1275 -790 
Q 1522 -856 1778 -856 
Q 2344 -856 2625 -561 
Q 2906 -266 2906 331 
L 2906 616 
Q 2728 306 2450 153 
Q 2172 0 1784 0 
Q 1141 0 747 490 
Q 353 981 353 1791 
Q 353 2603 747 3093 
Q 1141 3584 1784 3584 
Q 2172 3584 2450 3431 
Q 2728 3278 2906 2969 
L 2906 3500 
L 3481 3500 
L 3481 434 
z
" transform="scale(0.015625)"/>
      <path id="DejaVuSans-2212" d="M 678 2272 
L 4684 2272 
L 4684 1741 
L 678 1741 
L 678 2272 
z
" transform="scale(0.015625)"/>
      <path id="DejaVuSans-31" d="M 794 531 
L 1825 531 
L 1825 4091 
L 703 3866 
L 703 4441 
L 1819 4666 
L 2450 4666 
L 2450 531 
L 3481 531 
L 3481 0 
L 794 0 
L 794 531 
z
" transform="scale(0.015625)"/>
      <path id="ArialMT-5d" d="M 1363 -1272 
L 122 -1272 
L 122 -806 
L 800 -806 
L 800 4116 
L 122 4116 
L 122 4581 
L 1363 4581 
L 1363 -1272 
z
" transform="scale(0.015625)"/>
     </defs>
     <use xlink:href="#ArialMT-5b" transform="translate(0 0.684375)"/>
     <use xlink:href="#DejaVuSans-55" transform="translate(27.783203 0.684375)"/>
     <use xlink:href="#DejaVuSans-53" transform="translate(100.976562 0.684375)"/>
     <use xlink:href="#DejaVuSans-44" transform="translate(164.453125 0.684375)"/>
     <use xlink:href="#DejaVuSans-22c5" transform="translate(260.9375 0.684375)"/>
     <use xlink:href="#DejaVuSans-6b" transform="translate(312.207031 0.684375)"/>
     <use xlink:href="#DejaVuSans-67" transform="translate(370.117188 0.684375)"/>
     <use xlink:href="#DejaVuSans-2212" transform="translate(434.550781 38.965625) scale(0.7)"/>
     <use xlink:href="#DejaVuSans-31" transform="translate(493.203125 38.965625) scale(0.7)"/>
     <use xlink:href="#ArialMT-5d" transform="translate(540.473633 0.684375)"/>
    </g>
   </g>
  </g>
  <g id="axes_4">
   <g id="patch_4">
    <path d="M 380.708571 294.912 
L 385.777371 294.912 
L 385.777371 193.536 
L 380.708571 193.536 
z
" style="fill: #ffffff; fill-opacity: 0.95"/>
   </g>
   <g id="QuadMesh_2">
    <path d="M 380.708571 294.912 
L 385.777371 294.912 
L 385.777371 283.648 
L 380.708571 283.648 
L 380.708571 294.912 
" clip-path="url(#pc514847d06)" style="fill: #ffbc78"/>
    <path d="M 380.708571 283.648 
L 385.777371 283.648 
L 385.777371 272.384 
L 380.708571 272.384 
L 380.708571 283.648 
" clip-path="url(#pc514847d06)" style="fill: #ffa66a"/>
    <path d="M 380.708571 272.384 
L 385.777371 272.384 
L 385.777371 261.12 
L 380.708571 261.12 
L 380.708571 272.384 
" clip-path="url(#pc514847d06)" style="fill: #e3905c"/>
    <path d="M 380.708571 261.12 
L 385.777371 261.12 
L 385.777371 249.856 
L 380.708571 249.856 
L 380.708571 261.12 
" clip-path="url(#pc514847d06)" style="fill: #c17a4e"/>
    <path d="M 380.708571 249.856 
L 385.777371 249.856 
L 385.777371 238.592 
L 380.708571 238.592 
L 380.708571 249.856 
" clip-path="url(#pc514847d06)" style="fill: #9d633f"/>
    <path d="M 380.708571 238.592 
L 385.777371 238.592 
L 385.777371 227.328 
L 380.708571 227.328 
L 380.708571 238.592 
" clip-path="url(#pc514847d06)" style="fill: #7a4d31"/>
    <path d="M 380.708571 227.328 
L 385.777371 227.328 
L 385.777371 216.064 
L 380.708571 216.064 
L 380.708571 227.328 
" clip-path="url(#pc514847d06)" style="fill: #583723"/>
    <path d="M 380.708571 216.064 
L 385.777371 216.064 
L 385.777371 204.8 
L 380.708571 204.8 
L 380.708571 216.064 
" clip-path="url(#pc514847d06)" style="fill: #342115"/>
    <path d="M 380.708571 204.8 
L 385.777371 204.8 
L 385.777371 193.536 
L 380.708571 193.536 
L 380.708571 204.8 
" clip-path="url(#pc514847d06)" style="fill: #110b07"/>
   </g>
   <g id="matplotlib.axis_3"/>
   <g id="matplotlib.axis_4">
    <g id="ytick_6">
     <g id="line2d_6">
      <g>
       <use xlink:href="#m371c40c41f" x="385.777371" y="294.912" style="stroke: #000000; stroke-width: 0.8"/>
      </g>
     </g>
     <g id="text_7">
      <!-- 14.0 -->
      <g transform="translate(392.777371 298.848797) scale(0.11 -0.11)">
       <defs>
        <path id="ArialMT-2e" d="M 581 0 
L 581 641 
L 1222 641 
L 1222 0 
L 581 0 
z
" transform="scale(0.015625)"/>
       </defs>
       <use xlink:href="#ArialMT-31"/>
       <use xlink:href="#ArialMT-34" x="55.615234"/>
       <use xlink:href="#ArialMT-2e" x="111.230469"/>
       <use xlink:href="#ArialMT-30" x="139.013672"/>
      </g>
     </g>
    </g>
    <g id="ytick_7">
     <g id="line2d_7">
      <g>
       <use xlink:href="#m371c40c41f" x="385.777371" y="269.568" style="stroke: #000000; stroke-width: 0.8"/>
      </g>
     </g>
     <g id="text_8">
      <!-- 35.5 -->
      <g transform="translate(392.777371 273.504797) scale(0.11 -0.11)">
       <defs>
        <path id="ArialMT-35" d="M 266 1200 
L 856 1250 
Q 922 819 1161 601 
Q 1400 384 1738 384 
Q 2144 384 2425 690 
Q 2706 997 2706 1503 
Q 2706 1984 2436 2262 
Q 2166 2541 1728 2541 
Q 1456 2541 1237 2417 
Q 1019 2294 894 2097 
L 366 2166 
L 809 4519 
L 3088 4519 
L 3088 3981 
L 1259 3981 
L 1013 2750 
Q 1425 3038 1878 3038 
Q 2478 3038 2890 2622 
Q 3303 2206 3303 1553 
Q 3303 931 2941 478 
Q 2500 -78 1738 -78 
Q 1113 -78 717 272 
Q 322 622 266 1200 
z
" transform="scale(0.015625)"/>
       </defs>
       <use xlink:href="#ArialMT-33"/>
       <use xlink:href="#ArialMT-35" x="55.615234"/>
       <use xlink:href="#ArialMT-2e" x="111.230469"/>
       <use xlink:href="#ArialMT-35" x="139.013672"/>
      </g>
     </g>
    </g>
    <g id="ytick_8">
     <g id="line2d_8">
      <g>
       <use xlink:href="#m371c40c41f" x="385.777371" y="244.224" style="stroke: #000000; stroke-width: 0.8"/>
      </g>
     </g>
     <g id="text_9">
      <!-- 57.0 -->
      <g transform="translate(392.777371 248.160797) scale(0.11 -0.11)">
       <use xlink:href="#ArialMT-35"/>
       <use xlink:href="#ArialMT-37" x="55.615234"/>
       <use xlink:href="#ArialMT-2e" x="111.230469"/>
       <use xlink:href="#ArialMT-30" x="139.013672"/>
      </g>
     </g>
    </g>
    <g id="ytick_9">
     <g id="line2d_9">
      <g>
       <use xlink:href="#m371c40c41f" x="385.777371" y="218.88" style="stroke: #000000; stroke-width: 0.8"/>
      </g>
     </g>
     <g id="text_10">
      <!-- 78.5 -->
      <g transform="translate(392.777371 222.816797) scale(0.11 -0.11)">
       <defs>
        <path id="ArialMT-38" d="M 1131 2484 
Q 781 2613 612 2850 
Q 444 3088 444 3419 
Q 444 3919 803 4259 
Q 1163 4600 1759 4600 
Q 2359 4600 2725 4251 
Q 3091 3903 3091 3403 
Q 3091 3084 2923 2848 
Q 2756 2613 2416 2484 
Q 2838 2347 3058 2040 
Q 3278 1734 3278 1309 
Q 3278 722 2862 322 
Q 2447 -78 1769 -78 
Q 1091 -78 675 323 
Q 259 725 259 1325 
Q 259 1772 486 2073 
Q 713 2375 1131 2484 
z
M 1019 3438 
Q 1019 3113 1228 2906 
Q 1438 2700 1772 2700 
Q 2097 2700 2305 2904 
Q 2513 3109 2513 3406 
Q 2513 3716 2298 3927 
Q 2084 4138 1766 4138 
Q 1444 4138 1231 3931 
Q 1019 3725 1019 3438 
z
M 838 1322 
Q 838 1081 952 856 
Q 1066 631 1291 507 
Q 1516 384 1775 384 
Q 2178 384 2440 643 
Q 2703 903 2703 1303 
Q 2703 1709 2433 1975 
Q 2163 2241 1756 2241 
Q 1359 2241 1098 1978 
Q 838 1716 838 1322 
z
" transform="scale(0.015625)"/>
       </defs>
       <use xlink:href="#ArialMT-37"/>
       <use xlink:href="#ArialMT-38" x="55.615234"/>
       <use xlink:href="#ArialMT-2e" x="111.230469"/>
       <use xlink:href="#ArialMT-35" x="139.013672"/>
      </g>
     </g>
    </g>
    <g id="ytick_10">
     <g id="line2d_10">
      <g>
       <use xlink:href="#m371c40c41f" x="385.777371" y="193.536" style="stroke: #000000; stroke-width: 0.8"/>
      </g>
     </g>
     <g id="text_11">
      <!-- 100.0 -->
      <g transform="translate(392.777371 197.472797) scale(0.11 -0.11)">
       <use xlink:href="#ArialMT-31"/>
       <use xlink:href="#ArialMT-30" x="55.615234"/>
       <use xlink:href="#ArialMT-30" x="111.230469"/>
       <use xlink:href="#ArialMT-2e" x="166.845703"/>
       <use xlink:href="#ArialMT-30" x="194.628906"/>
      </g>
     </g>
    </g>
   </g>
   <g id="LineCollection_2"/>
   <g id="patch_5">
    <path d="M 380.708571 294.912 
L 383.242971 294.912 
L 385.777371 294.912 
L 385.777371 193.536 
L 383.242971 193.536 
L 380.708571 193.536 
L 380.708571 294.912 
z
" style="fill: none; stroke: #000000; stroke-width: 0.8; stroke-linejoin: miter; stroke-linecap: square"/>
   </g>
   <g id="text_12">
    <!-- GWP -->
    <g transform="translate(368.910471 172.191) scale(0.12 -0.12)">
     <defs>
      <path id="ArialMT-47" d="M 2638 1797 
L 2638 2334 
L 4578 2338 
L 4578 638 
Q 4131 281 3656 101 
Q 3181 -78 2681 -78 
Q 2006 -78 1454 211 
Q 903 500 622 1047 
Q 341 1594 341 2269 
Q 341 2938 620 3517 
Q 900 4097 1425 4378 
Q 1950 4659 2634 4659 
Q 3131 4659 3532 4498 
Q 3934 4338 4162 4050 
Q 4391 3763 4509 3300 
L 3963 3150 
Q 3859 3500 3706 3700 
Q 3553 3900 3268 4020 
Q 2984 4141 2638 4141 
Q 2222 4141 1919 4014 
Q 1616 3888 1430 3681 
Q 1244 3475 1141 3228 
Q 966 2803 966 2306 
Q 966 1694 1177 1281 
Q 1388 869 1791 669 
Q 2194 469 2647 469 
Q 3041 469 3416 620 
Q 3791 772 3984 944 
L 3984 1797 
L 2638 1797 
z
" transform="scale(0.015625)"/>
      <path id="ArialMT-57" d="M 1294 0 
L 78 4581 
L 700 4581 
L 1397 1578 
Q 1509 1106 1591 641 
Q 1766 1375 1797 1488 
L 2669 4581 
L 3400 4581 
L 4056 2263 
Q 4303 1400 4413 641 
Q 4500 1075 4641 1638 
L 5359 4581 
L 5969 4581 
L 4713 0 
L 4128 0 
L 3163 3491 
Q 3041 3928 3019 4028 
Q 2947 3713 2884 3491 
L 1913 0 
L 1294 0 
z
" transform="scale(0.015625)"/>
     </defs>
     <use xlink:href="#ArialMT-47"/>
     <use xlink:href="#ArialMT-57" x="77.783203"/>
     <use xlink:href="#ArialMT-50" x="172.167969"/>
    </g>
    <!-- [$\mathrm{kg} \cdot \mathrm{CO}_{\mathrm{2}}\mathrm{e} \cdot \mathrm{kg}^{\mathrm{-1}}$] -->
    <g transform="translate(334.882971 187.536) scale(0.12 -0.12)">
     <defs>
      <path id="DejaVuSans-43" d="M 4122 4306 
L 4122 3641 
Q 3803 3938 3442 4084 
Q 3081 4231 2675 4231 
Q 1875 4231 1450 3742 
Q 1025 3253 1025 2328 
Q 1025 1406 1450 917 
Q 1875 428 2675 428 
Q 3081 428 3442 575 
Q 3803 722 4122 1019 
L 4122 359 
Q 3791 134 3420 21 
Q 3050 -91 2638 -91 
Q 1578 -91 968 557 
Q 359 1206 359 2328 
Q 359 3453 968 4101 
Q 1578 4750 2638 4750 
Q 3056 4750 3426 4639 
Q 3797 4528 4122 4306 
z
" transform="scale(0.015625)"/>
      <path id="DejaVuSans-4f" d="M 2522 4238 
Q 1834 4238 1429 3725 
Q 1025 3213 1025 2328 
Q 1025 1447 1429 934 
Q 1834 422 2522 422 
Q 3209 422 3611 934 
Q 4013 1447 4013 2328 
Q 4013 3213 3611 3725 
Q 3209 4238 2522 4238 
z
M 2522 4750 
Q 3503 4750 4090 4092 
Q 4678 3434 4678 2328 
Q 4678 1225 4090 567 
Q 3503 -91 2522 -91 
Q 1538 -91 948 565 
Q 359 1222 359 2328 
Q 359 3434 948 4092 
Q 1538 4750 2522 4750 
z
" transform="scale(0.015625)"/>
      <path id="DejaVuSans-32" d="M 1228 531 
L 3431 531 
L 3431 0 
L 469 0 
L 469 531 
Q 828 903 1448 1529 
Q 2069 2156 2228 2338 
Q 2531 2678 2651 2914 
Q 2772 3150 2772 3378 
Q 2772 3750 2511 3984 
Q 2250 4219 1831 4219 
Q 1534 4219 1204 4116 
Q 875 4013 500 3803 
L 500 4441 
Q 881 4594 1212 4672 
Q 1544 4750 1819 4750 
Q 2544 4750 2975 4387 
Q 3406 4025 3406 3419 
Q 3406 3131 3298 2873 
Q 3191 2616 2906 2266 
Q 2828 2175 2409 1742 
Q 1991 1309 1228 531 
z
" transform="scale(0.015625)"/>
      <path id="DejaVuSans-65" d="M 3597 1894 
L 3597 1613 
L 953 1613 
Q 991 1019 1311 708 
Q 1631 397 2203 397 
Q 2534 397 2845 478 
Q 3156 559 3463 722 
L 3463 178 
Q 3153 47 2828 -22 
Q 2503 -91 2169 -91 
Q 1331 -91 842 396 
Q 353 884 353 1716 
Q 353 2575 817 3079 
Q 1281 3584 2069 3584 
Q 2775 3584 3186 3129 
Q 3597 2675 3597 1894 
z
M 3022 2063 
Q 3016 2534 2758 2815 
Q 2500 3097 2075 3097 
Q 1594 3097 1305 2825 
Q 1016 2553 972 2059 
L 3022 2063 
z
" transform="scale(0.015625)"/>
     </defs>
     <use xlink:href="#ArialMT-5b" transform="translate(0 0.684375)"/>
     <use xlink:href="#DejaVuSans-6b" transform="translate(27.783203 0.684375)"/>
     <use xlink:href="#DejaVuSans-67" transform="translate(85.693359 0.684375)"/>
     <use xlink:href="#DejaVuSans-22c5" transform="translate(168.652344 0.684375)"/>
     <use xlink:href="#DejaVuSans-43" transform="translate(219.921875 0.684375)"/>
     <use xlink:href="#DejaVuSans-4f" transform="translate(289.746094 0.684375)"/>
     <use xlink:href="#DejaVuSans-32" transform="translate(369.414062 -15.721875) scale(0.7)"/>
     <use xlink:href="#DejaVuSans-65" transform="translate(416.68457 0.684375)"/>
     <use xlink:href="#DejaVuSans-22c5" transform="translate(497.69043 0.684375)"/>
     <use xlink:href="#DejaVuSans-6b" transform="translate(548.959961 0.684375)"/>
     <use xlink:href="#DejaVuSans-67" transform="translate(606.870117 0.684375)"/>
     <use xlink:href="#DejaVuSans-2212" transform="translate(671.303711 38.965625) scale(0.7)"/>
     <use xlink:href="#DejaVuSans-31" transform="translate(729.956055 38.965625) scale(0.7)"/>
     <use xlink:href="#ArialMT-5d" transform="translate(777.226562 0.684375)"/>
    </g>
   </g>
  </g>
  <g id="axes_5">
   <g id="patch_6">
    <path d="M 57.6 168.192 
L 329.691429 168.192 
L 329.691429 41.472 
L 57.6 41.472 
z
" style="fill: #ffffff; fill-opacity: 0.95"/>
   </g>
   <g id="PathCollection_1">
    <path d="M 238.994286 168.192 
L 269.226667 168.192 
L 299.459048 168.192 
L 329.691429 168.192 
L 329.691429 154.112 
L 329.691429 140.032 
L 329.691429 125.952 
L 329.691429 111.872 
L 329.691429 97.792 
L 329.691429 83.712 
L 329.691429 69.632 
L 329.691429 55.552 
L 329.691429 41.472 
L 299.459048 41.472 
L 269.226667 41.472 
L 239.051995 41.472 
L 238.994286 42.013213 
L 237.868139 55.552 
L 236.522292 69.632 
L 235.203359 83.712 
L 233.840831 97.792 
L 232.885431 111.872 
L 232.673301 125.952 
L 233.340809 140.032 
L 234.945021 154.112 
L 236.697683 168.192 
z
" clip-path="url(#pc60c6e4626)" style="fill: #dae319"/>
   </g>
   <g id="PathCollection_2">
    <path d="M 178.529524 168.192 
L 208.761905 168.192 
L 236.697683 168.192 
L 234.945021 154.112 
L 233.340809 140.032 
L 232.673301 125.952 
L 232.885431 111.872 
L 233.840831 97.792 
L 235.203359 83.712 
L 236.522292 69.632 
L 237.868139 55.552 
L 238.994286 42.013213 
L 239.051995 41.472 
L 238.994286 41.472 
L 208.761905 41.472 
L 178.529524 41.472 
L 166.050973 41.472 
L 165.838624 55.552 
L 165.169032 69.632 
L 163.882144 83.712 
L 162.44251 97.792 
L 160.838366 111.872 
L 160.021253 125.952 
L 160.648866 140.032 
L 162.476535 154.112 
L 164.502035 168.192 
z
" clip-path="url(#pc60c6e4626)" style="fill: #90d743"/>
   </g>
   <g id="PathCollection_3">
    <path d="M 148.297143 168.192 
L 164.502035 168.192 
L 162.476535 154.112 
L 160.648866 140.032 
L 160.021253 125.952 
L 160.838366 111.872 
L 162.44251 97.792 
L 163.882144 83.712 
L 165.169032 69.632 
L 165.838624 55.552 
L 166.050973 41.472 
L 148.297143 41.472 
L 134.150099 41.472 
L 133.820211 55.552 
L 133.374484 69.632 
L 132.645834 83.712 
L 131.703682 97.792 
L 130.624903 111.872 
L 130.158029 125.952 
L 130.644105 140.032 
L 131.790723 154.112 
L 133.091525 168.192 
z
" clip-path="url(#pc60c6e4626)" style="fill: #4ec36b"/>
   </g>
   <g id="PathCollection_4">
    <path d="M 118.064762 168.192 
L 133.091525 168.192 
L 131.790723 154.112 
L 130.644105 140.032 
L 130.158029 125.952 
L 130.624903 111.872 
L 131.703682 97.792 
L 132.645834 83.712 
L 133.374484 69.632 
L 133.820211 55.552 
L 134.150099 41.472 
L 118.064762 41.472 
L 114.163172 41.472 
L 113.848389 55.552 
L 113.532259 69.632 
L 113.116572 83.712 
L 112.565807 97.792 
L 111.970288 111.872 
L 111.70487 125.952 
L 111.938625 140.032 
L 112.568758 154.112 
L 113.334954 168.192 
z
" clip-path="url(#pc60c6e4626)" style="fill: #25ab82"/>
   </g>
   <g id="PathCollection_5">
    <path d="M 112.568758 154.112 
L 111.938625 140.032 
L 111.70487 125.952 
L 111.970288 111.872 
L 112.565807 97.792 
L 113.116572 83.712 
L 113.532259 69.632 
L 113.848389 55.552 
L 114.163172 41.472 
L 101.407722 41.472 
L 101.033034 55.552 
L 100.633985 69.632 
L 100.172289 83.712 
L 99.630236 97.792 
L 99.091259 111.872 
L 98.794788 125.952 
L 98.900361 140.032 
L 99.472459 154.112 
L 100.283021 168.192 
L 113.334954 168.192 
z
" clip-path="url(#pc60c6e4626)" style="fill: #21908d"/>
   </g>
   <g id="PathCollection_6">
    <path d="M 87.832381 168.192 
L 100.283021 168.192 
L 99.472459 154.112 
L 98.900361 140.032 
L 98.794788 125.952 
L 99.091259 111.872 
L 99.630236 97.792 
L 100.172289 83.712 
L 100.633985 69.632 
L 101.033034 55.552 
L 101.407722 41.472 
L 88.652272 41.472 
L 88.217679 55.552 
L 87.832381 66.822471 
L 87.739509 69.632 
L 87.250514 83.712 
L 86.73319 97.792 
L 86.257503 111.872 
L 85.931615 125.952 
L 85.909543 140.032 
L 86.415341 154.112 
L 87.249204 168.192 
z
" clip-path="url(#pc60c6e4626)" style="fill: #2b758e"/>
   </g>
   <g id="PathCollection_7">
    <path d="M 86.415341 154.112 
L 85.909543 140.032 
L 85.931615 125.952 
L 86.257503 111.872 
L 86.73319 97.792 
L 87.250514 83.712 
L 87.739509 69.632 
L 87.832381 66.822471 
L 88.217679 55.552 
L 88.652272 41.472 
L 87.832381 41.472 
L 76.324254 41.472 
L 75.884188 55.552 
L 75.34792 69.632 
L 74.788265 83.712 
L 74.235652 97.792 
L 73.738356 111.872 
L 73.332463 125.952 
L 73.185259 140.032 
L 73.671401 154.112 
L 74.59048 168.192 
L 87.249204 168.192 
z
" clip-path="url(#pc60c6e4626)" style="fill: #375a8c"/>
   </g>
   <g id="PathCollection_8">
    <path d="M 73.671401 154.112 
L 73.185259 140.032 
L 73.332463 125.952 
L 73.738356 111.872 
L 74.235652 97.792 
L 74.788265 83.712 
L 75.34792 69.632 
L 75.884188 55.552 
L 76.324254 41.472 
L 64.025597 41.472 
L 63.565634 55.552 
L 62.95633 69.632 
L 62.326017 83.712 
L 61.738113 97.792 
L 61.219208 111.872 
L 60.733312 125.952 
L 60.460975 140.032 
L 60.927461 154.112 
L 61.931757 168.192 
L 74.59048 168.192 
z
" clip-path="url(#pc60c6e4626)" style="fill: #443983"/>
   </g>
   <g id="PathCollection_9">
    <path d="M 60.927461 154.112 
L 60.460975 140.032 
L 60.733312 125.952 
L 61.219208 111.872 
L 61.738113 97.792 
L 62.326017 83.712 
L 62.95633 69.632 
L 63.565634 55.552 
L 64.025597 41.472 
L 57.6 41.472 
L 57.6 55.552 
L 57.6 69.632 
L 57.6 83.712 
L 57.6 97.792 
L 57.6 111.872 
L 57.6 125.952 
L 57.6 140.032 
L 57.6 154.112 
L 57.6 168.192 
L 61.931757 168.192 
z
" clip-path="url(#pc60c6e4626)" style="fill: #481668"/>
   </g>
   <g id="PathCollection_10"/>
   <g id="PathCollection_11">
    <path d="M 236.697683 168.192 
L 234.945021 154.112 
L 233.340809 140.032 
L 232.673301 125.952 
L 232.885431 111.872 
L 233.840831 97.792 
L 235.203359 83.712 
L 236.522292 69.632 
L 237.868139 55.552 
L 238.994286 42.013213 
L 239.051995 41.472 
" clip-path="url(#pc60c6e4626)" style="fill: none; stroke: #3d4240; stroke-opacity: 0.1; stroke-width: 0.8"/>
   </g>
   <g id="PathCollection_12">
    <path d="M 164.502035 168.192 
L 162.476535 154.112 
L 160.648866 140.032 
L 160.021253 125.952 
L 160.838366 111.872 
L 161.108387 109.501961 
" clip-path="url(#pc60c6e4626)" style="fill: none; stroke: #3d4240; stroke-opacity: 0.1; stroke-width: 0.8"/>
    <path d="M 163.641311 86.067413 
L 163.882144 83.712 
L 165.169032 69.632 
L 165.838624 55.552 
L 166.050973 41.472 
" clip-path="url(#pc60c6e4626)" style="fill: none; stroke: #3d4240; stroke-opacity: 0.1; stroke-width: 0.8"/>
   </g>
   <g id="PathCollection_13">
    <path d="M 133.091525 168.192 
L 131.790723 154.112 
L 130.644105 140.032 
L 130.158029 125.952 
L 130.624903 111.872 
L 131.703682 97.792 
L 132.645834 83.712 
L 133.374484 69.632 
L 133.820211 55.552 
L 134.150099 41.472 
" clip-path="url(#pc60c6e4626)" style="fill: none; stroke: #3d4240; stroke-opacity: 0.1; stroke-width: 0.8"/>
   </g>
   <g id="PathCollection_14">
    <path d="M 113.334954 168.192 
L 112.568758 154.112 
L 111.938625 140.032 
L 111.70487 125.952 
L 111.970288 111.872 
L 112.067771 109.567187 
" clip-path="url(#pc60c6e4626)" style="fill: none; stroke: #3d4240; stroke-opacity: 0.1; stroke-width: 0.8"/>
    <path d="M 113.026474 86.015292 
L 113.116572 83.712 
L 113.532259 69.632 
L 113.848389 55.552 
L 114.163172 41.472 
" clip-path="url(#pc60c6e4626)" style="fill: none; stroke: #3d4240; stroke-opacity: 0.1; stroke-width: 0.8"/>
   </g>
   <g id="PathCollection_15">
    <path d="M 100.283021 168.192 
L 99.472459 154.112 
L 98.900361 140.032 
L 98.794788 125.952 
L 99.091259 111.872 
L 99.630236 97.792 
L 100.172289 83.712 
L 100.633985 69.632 
L 101.033034 55.552 
L 101.407722 41.472 
" clip-path="url(#pc60c6e4626)" style="fill: none; stroke: #3d4240; stroke-opacity: 0.1; stroke-width: 0.8"/>
   </g>
   <g id="PathCollection_16">
    <path d="M 87.249204 168.192 
L 86.415341 154.112 
L 85.909543 140.032 
L 85.931615 125.952 
L 86.257503 111.872 
L 86.389362 107.969051 
" clip-path="url(#pc60c6e4626)" style="fill: none; stroke: #3d4240; stroke-opacity: 0.1; stroke-width: 0.8"/>
    <path d="M 87.107074 87.616009 
L 87.250514 83.712 
L 87.739509 69.632 
L 87.832381 66.822471 
L 88.217679 55.552 
L 88.652272 41.472 
" clip-path="url(#pc60c6e4626)" style="fill: none; stroke: #3d4240; stroke-opacity: 0.1; stroke-width: 0.8"/>
   </g>
   <g id="PathCollection_17">
    <path d="M 74.59048 168.192 
L 73.671401 154.112 
L 73.185259 140.032 
L 73.332463 125.952 
L 73.738356 111.872 
L 74.235652 97.792 
L 74.788265 83.712 
L 75.34792 69.632 
L 75.884188 55.552 
L 76.324254 41.472 
" clip-path="url(#pc60c6e4626)" style="fill: none; stroke: #3d4240; stroke-opacity: 0.1; stroke-width: 0.8"/>
   </g>
   <g id="PathCollection_18">
    <path d="M 61.931757 168.192 
L 60.927461 154.112 
L 60.460975 140.032 
L 60.733312 125.952 
L 61.188104 112.773333 
" clip-path="url(#pc60c6e4626)" style="fill: none; stroke: #3d4240; stroke-opacity: 0.1; stroke-width: 0.8"/>
    <path d="M 62.366229 82.81374 
L 62.95633 69.632 
L 63.565634 55.552 
L 64.025597 41.472 
" clip-path="url(#pc60c6e4626)" style="fill: none; stroke: #3d4240; stroke-opacity: 0.1; stroke-width: 0.8"/>
   </g>
   <g id="PathCollection_19"/>
   <g id="text_13">
    <g clip-path="url(#pc60c6e4626)">
     <!-- 6.7 -->
     <g transform="translate(154.79751 100.635672) scale(0.11 -0.11)">
      <use xlink:href="#ArialMT-36"/>
      <use xlink:href="#ArialMT-2e" x="55.615234"/>
      <use xlink:href="#ArialMT-37" x="83.398438"/>
     </g>
    </g>
   </g>
   <g id="text_14">
    <g clip-path="url(#pc60c6e4626)">
     <!-- 9.3 -->
     <g transform="translate(104.920807 100.635672) scale(0.11 -0.11)">
      <defs>
       <path id="ArialMT-39" d="M 350 1059 
L 891 1109 
Q 959 728 1153 556 
Q 1347 384 1650 384 
Q 1909 384 2104 503 
Q 2300 622 2425 820 
Q 2550 1019 2634 1356 
Q 2719 1694 2719 2044 
Q 2719 2081 2716 2156 
Q 2547 1888 2255 1720 
Q 1963 1553 1622 1553 
Q 1053 1553 659 1965 
Q 266 2378 266 3053 
Q 266 3750 677 4175 
Q 1088 4600 1706 4600 
Q 2153 4600 2523 4359 
Q 2894 4119 3086 3673 
Q 3278 3228 3278 2384 
Q 3278 1506 3087 986 
Q 2897 466 2520 194 
Q 2144 -78 1638 -78 
Q 1100 -78 759 220 
Q 419 519 350 1059 
z
M 2653 3081 
Q 2653 3566 2395 3850 
Q 2138 4134 1775 4134 
Q 1400 4134 1122 3828 
Q 844 3522 844 3034 
Q 844 2597 1108 2323 
Q 1372 2050 1759 2050 
Q 2150 2050 2401 2323 
Q 2653 2597 2653 3081 
z
" transform="scale(0.015625)"/>
      </defs>
      <use xlink:href="#ArialMT-39"/>
      <use xlink:href="#ArialMT-2e" x="55.615234"/>
      <use xlink:href="#ArialMT-33" x="83.398438"/>
     </g>
    </g>
   </g>
   <g id="text_15">
    <g clip-path="url(#pc60c6e4626)">
     <!-- 12 -->
     <g transform="translate(80.616159 100.635672) scale(0.11 -0.11)">
      <defs>
       <path id="ArialMT-32" d="M 3222 541 
L 3222 0 
L 194 0 
Q 188 203 259 391 
Q 375 700 629 1000 
Q 884 1300 1366 1694 
Q 2113 2306 2375 2664 
Q 2638 3022 2638 3341 
Q 2638 3675 2398 3904 
Q 2159 4134 1775 4134 
Q 1369 4134 1125 3890 
Q 881 3647 878 3216 
L 300 3275 
Q 359 3922 746 4261 
Q 1134 4600 1788 4600 
Q 2447 4600 2831 4234 
Q 3216 3869 3216 3328 
Q 3216 3053 3103 2787 
Q 2991 2522 2730 2228 
Q 2469 1934 1863 1422 
Q 1356 997 1212 845 
Q 1069 694 975 541 
L 3222 541 
z
" transform="scale(0.015625)"/>
      </defs>
      <use xlink:href="#ArialMT-31"/>
      <use xlink:href="#ArialMT-32" x="55.615234"/>
     </g>
    </g>
   </g>
   <g id="text_16">
    <g clip-path="url(#pc60c6e4626)">
     <!-- 14.7 -->
     <g transform="translate(51.034598 100.635672) scale(0.11 -0.11)">
      <use xlink:href="#ArialMT-31"/>
      <use xlink:href="#ArialMT-34" x="55.615234"/>
      <use xlink:href="#ArialMT-2e" x="111.230469"/>
      <use xlink:href="#ArialMT-37" x="139.013672"/>
     </g>
    </g>
   </g>
   <g id="matplotlib.axis_5">
    <g id="xtick_1">
     <g id="line2d_11">
      <defs>
       <path id="m8692f2dc5e" d="M 0 2 
L 0 -2 
" style="stroke: #000000; stroke-width: 0.8"/>
      </defs>
      <g>
       <use xlink:href="#m8692f2dc5e" x="57.6" y="168.192" style="stroke: #000000; stroke-width: 0.8"/>
      </g>
     </g>
    </g>
    <g id="xtick_2">
     <g id="line2d_12">
      <g>
       <use xlink:href="#m8692f2dc5e" x="87.832381" y="168.192" style="stroke: #000000; stroke-width: 0.8"/>
      </g>
     </g>
    </g>
    <g id="xtick_3">
     <g id="line2d_13">
      <g>
       <use xlink:href="#m8692f2dc5e" x="148.297143" y="168.192" style="stroke: #000000; stroke-width: 0.8"/>
      </g>
     </g>
    </g>
    <g id="xtick_4">
     <g id="line2d_14">
      <g>
       <use xlink:href="#m8692f2dc5e" x="208.761905" y="168.192" style="stroke: #000000; stroke-width: 0.8"/>
      </g>
     </g>
    </g>
    <g id="xtick_5">
     <g id="line2d_15">
      <g>
       <use xlink:href="#m8692f2dc5e" x="269.226667" y="168.192" style="stroke: #000000; stroke-width: 0.8"/>
      </g>
     </g>
    </g>
    <g id="xtick_6">
     <g id="line2d_16">
      <g>
       <use xlink:href="#m8692f2dc5e" x="329.691429" y="168.192" style="stroke: #000000; stroke-width: 0.8"/>
      </g>
     </g>
    </g>
   </g>
   <g id="matplotlib.axis_6">
    <g id="ytick_11">
     <g id="line2d_17">
      <defs>
       <path id="mee640e7ff7" d="M 2 0 
L -2 -0 
" style="stroke: #000000; stroke-width: 0.8"/>
      </defs>
      <g>
       <use xlink:href="#mee640e7ff7" x="57.6" y="168.192" style="stroke: #000000; stroke-width: 0.8"/>
      </g>
     </g>
     <g id="text_17">
      <!-- 1 -->
      <g transform="translate(45.982969 172.128797) scale(0.11 -0.11)">
       <use xlink:href="#ArialMT-31"/>
      </g>
     </g>
    </g>
    <g id="ytick_12">
     <g id="line2d_18">
      <g>
       <use xlink:href="#mee640e7ff7" x="57.6" y="142.848" style="stroke: #000000; stroke-width: 0.8"/>
      </g>
     </g>
     <g id="text_18">
      <!-- 1.4 -->
      <g transform="translate(36.81 146.784797) scale(0.11 -0.11)">
       <use xlink:href="#ArialMT-31"/>
       <use xlink:href="#ArialMT-2e" x="55.615234"/>
       <use xlink:href="#ArialMT-34" x="83.398438"/>
      </g>
     </g>
    </g>
    <g id="ytick_13">
     <g id="line2d_19">
      <g>
       <use xlink:href="#mee640e7ff7" x="57.6" y="117.504" style="stroke: #000000; stroke-width: 0.8"/>
      </g>
     </g>
     <g id="text_19">
      <!-- 1.8 -->
      <g transform="translate(36.81 121.440797) scale(0.11 -0.11)">
       <use xlink:href="#ArialMT-31"/>
       <use xlink:href="#ArialMT-2e" x="55.615234"/>
       <use xlink:href="#ArialMT-38" x="83.398438"/>
      </g>
     </g>
    </g>
    <g id="ytick_14">
     <g id="line2d_20">
      <g>
       <use xlink:href="#mee640e7ff7" x="57.6" y="92.16" style="stroke: #000000; stroke-width: 0.8"/>
      </g>
     </g>
     <g id="text_20">
      <!-- 2.2 -->
      <g transform="translate(36.81 96.096797) scale(0.11 -0.11)">
       <use xlink:href="#ArialMT-32"/>
       <use xlink:href="#ArialMT-2e" x="55.615234"/>
       <use xlink:href="#ArialMT-32" x="83.398438"/>
      </g>
     </g>
    </g>
    <g id="ytick_15">
     <g id="line2d_21">
      <g>
       <use xlink:href="#mee640e7ff7" x="57.6" y="66.816" style="stroke: #000000; stroke-width: 0.8"/>
      </g>
     </g>
     <g id="text_21">
      <!-- 2.6 -->
      <g transform="translate(36.81 70.752797) scale(0.11 -0.11)">
       <use xlink:href="#ArialMT-32"/>
       <use xlink:href="#ArialMT-2e" x="55.615234"/>
       <use xlink:href="#ArialMT-36" x="83.398438"/>
      </g>
     </g>
    </g>
    <g id="ytick_16">
     <g id="line2d_22">
      <g>
       <use xlink:href="#mee640e7ff7" x="57.6" y="41.472" style="stroke: #000000; stroke-width: 0.8"/>
      </g>
     </g>
     <g id="text_22">
      <!-- 3 -->
      <g transform="translate(45.982969 45.408797) scale(0.11 -0.11)">
       <use xlink:href="#ArialMT-33"/>
      </g>
     </g>
    </g>
    <g id="text_23">
     <!-- AcOH Productivity -->
     <g transform="translate(16.304844 149.454187) rotate(-90) scale(0.11 -0.11)">
      <defs>
       <path id="ArialMT-41" d="M -9 0 
L 1750 4581 
L 2403 4581 
L 4278 0 
L 3588 0 
L 3053 1388 
L 1138 1388 
L 634 0 
L -9 0 
z
M 1313 1881 
L 2866 1881 
L 2388 3150 
Q 2169 3728 2063 4100 
Q 1975 3659 1816 3225 
L 1313 1881 
z
" transform="scale(0.015625)"/>
       <path id="ArialMT-63" d="M 2588 1216 
L 3141 1144 
Q 3050 572 2676 248 
Q 2303 -75 1759 -75 
Q 1078 -75 664 370 
Q 250 816 250 1647 
Q 250 2184 428 2587 
Q 606 2991 970 3192 
Q 1334 3394 1763 3394 
Q 2303 3394 2647 3120 
Q 2991 2847 3088 2344 
L 2541 2259 
Q 2463 2594 2264 2762 
Q 2066 2931 1784 2931 
Q 1359 2931 1093 2626 
Q 828 2322 828 1663 
Q 828 994 1084 691 
Q 1341 388 1753 388 
Q 2084 388 2306 591 
Q 2528 794 2588 1216 
z
" transform="scale(0.015625)"/>
       <path id="ArialMT-4f" d="M 309 2231 
Q 309 3372 921 4017 
Q 1534 4663 2503 4663 
Q 3138 4663 3647 4359 
Q 4156 4056 4423 3514 
Q 4691 2972 4691 2284 
Q 4691 1588 4409 1038 
Q 4128 488 3612 205 
Q 3097 -78 2500 -78 
Q 1853 -78 1343 234 
Q 834 547 571 1087 
Q 309 1628 309 2231 
z
M 934 2222 
Q 934 1394 1379 917 
Q 1825 441 2497 441 
Q 3181 441 3623 922 
Q 4066 1403 4066 2288 
Q 4066 2847 3877 3264 
Q 3688 3681 3323 3911 
Q 2959 4141 2506 4141 
Q 1863 4141 1398 3698 
Q 934 3256 934 2222 
z
" transform="scale(0.015625)"/>
       <path id="ArialMT-48" d="M 513 0 
L 513 4581 
L 1119 4581 
L 1119 2700 
L 3500 2700 
L 3500 4581 
L 4106 4581 
L 4106 0 
L 3500 0 
L 3500 2159 
L 1119 2159 
L 1119 0 
L 513 0 
z
" transform="scale(0.015625)"/>
       <path id="ArialMT-20" transform="scale(0.015625)"/>
       <path id="ArialMT-72" d="M 416 0 
L 416 3319 
L 922 3319 
L 922 2816 
Q 1116 3169 1280 3281 
Q 1444 3394 1641 3394 
Q 1925 3394 2219 3213 
L 2025 2691 
Q 1819 2813 1613 2813 
Q 1428 2813 1281 2702 
Q 1134 2591 1072 2394 
Q 978 2094 978 1738 
L 978 0 
L 416 0 
z
" transform="scale(0.015625)"/>
       <path id="ArialMT-6f" d="M 213 1659 
Q 213 2581 725 3025 
Q 1153 3394 1769 3394 
Q 2453 3394 2887 2945 
Q 3322 2497 3322 1706 
Q 3322 1066 3130 698 
Q 2938 331 2570 128 
Q 2203 -75 1769 -75 
Q 1072 -75 642 372 
Q 213 819 213 1659 
z
M 791 1659 
Q 791 1022 1069 705 
Q 1347 388 1769 388 
Q 2188 388 2466 706 
Q 2744 1025 2744 1678 
Q 2744 2294 2464 2611 
Q 2184 2928 1769 2928 
Q 1347 2928 1069 2612 
Q 791 2297 791 1659 
z
" transform="scale(0.015625)"/>
       <path id="ArialMT-64" d="M 2575 0 
L 2575 419 
Q 2259 -75 1647 -75 
Q 1250 -75 917 144 
Q 584 363 401 755 
Q 219 1147 219 1656 
Q 219 2153 384 2558 
Q 550 2963 881 3178 
Q 1213 3394 1622 3394 
Q 1922 3394 2156 3267 
Q 2391 3141 2538 2938 
L 2538 4581 
L 3097 4581 
L 3097 0 
L 2575 0 
z
M 797 1656 
Q 797 1019 1065 703 
Q 1334 388 1700 388 
Q 2069 388 2326 689 
Q 2584 991 2584 1609 
Q 2584 2291 2321 2609 
Q 2059 2928 1675 2928 
Q 1300 2928 1048 2622 
Q 797 2316 797 1656 
z
" transform="scale(0.015625)"/>
       <path id="ArialMT-75" d="M 2597 0 
L 2597 488 
Q 2209 -75 1544 -75 
Q 1250 -75 995 37 
Q 741 150 617 320 
Q 494 491 444 738 
Q 409 903 409 1263 
L 409 3319 
L 972 3319 
L 972 1478 
Q 972 1038 1006 884 
Q 1059 663 1231 536 
Q 1403 409 1656 409 
Q 1909 409 2131 539 
Q 2353 669 2445 892 
Q 2538 1116 2538 1541 
L 2538 3319 
L 3100 3319 
L 3100 0 
L 2597 0 
z
" transform="scale(0.015625)"/>
       <path id="ArialMT-74" d="M 1650 503 
L 1731 6 
Q 1494 -44 1306 -44 
Q 1000 -44 831 53 
Q 663 150 594 308 
Q 525 466 525 972 
L 525 2881 
L 113 2881 
L 113 3319 
L 525 3319 
L 525 4141 
L 1084 4478 
L 1084 3319 
L 1650 3319 
L 1650 2881 
L 1084 2881 
L 1084 941 
Q 1084 700 1114 631 
Q 1144 563 1211 522 
Q 1278 481 1403 481 
Q 1497 481 1650 503 
z
" transform="scale(0.015625)"/>
       <path id="ArialMT-69" d="M 425 3934 
L 425 4581 
L 988 4581 
L 988 3934 
L 425 3934 
z
M 425 0 
L 425 3319 
L 988 3319 
L 988 0 
L 425 0 
z
" transform="scale(0.015625)"/>
       <path id="ArialMT-76" d="M 1344 0 
L 81 3319 
L 675 3319 
L 1388 1331 
Q 1503 1009 1600 663 
Q 1675 925 1809 1294 
L 2547 3319 
L 3125 3319 
L 1869 0 
L 1344 0 
z
" transform="scale(0.015625)"/>
       <path id="ArialMT-79" d="M 397 -1278 
L 334 -750 
Q 519 -800 656 -800 
Q 844 -800 956 -737 
Q 1069 -675 1141 -563 
Q 1194 -478 1313 -144 
Q 1328 -97 1363 -6 
L 103 3319 
L 709 3319 
L 1400 1397 
Q 1534 1031 1641 628 
Q 1738 1016 1872 1384 
L 2581 3319 
L 3144 3319 
L 1881 -56 
Q 1678 -603 1566 -809 
Q 1416 -1088 1222 -1217 
Q 1028 -1347 759 -1347 
Q 597 -1347 397 -1278 
z
" transform="scale(0.015625)"/>
      </defs>
      <use xlink:href="#ArialMT-41"/>
      <use xlink:href="#ArialMT-63" x="66.699219"/>
      <use xlink:href="#ArialMT-4f" x="116.699219"/>
      <use xlink:href="#ArialMT-48" x="194.482422"/>
      <use xlink:href="#ArialMT-20" x="266.699219"/>
      <use xlink:href="#ArialMT-50" x="294.482422"/>
      <use xlink:href="#ArialMT-72" x="361.181641"/>
      <use xlink:href="#ArialMT-6f" x="394.482422"/>
      <use xlink:href="#ArialMT-64" x="450.097656"/>
      <use xlink:href="#ArialMT-75" x="505.712891"/>
      <use xlink:href="#ArialMT-63" x="561.328125"/>
      <use xlink:href="#ArialMT-74" x="611.328125"/>
      <use xlink:href="#ArialMT-69" x="639.111328"/>
      <use xlink:href="#ArialMT-76" x="661.328125"/>
      <use xlink:href="#ArialMT-69" x="711.328125"/>
      <use xlink:href="#ArialMT-74" x="733.544922"/>
      <use xlink:href="#ArialMT-79" x="761.328125"/>
     </g>
     <!-- [$\mathrm{g} \cdot \mathrm{L}^{\mathrm{-1}} \cdot \mathrm{h}^{\mathrm{-1}}$] -->
     <g transform="translate(30.5 137.502) rotate(-90) scale(0.11 -0.11)">
      <defs>
       <path id="DejaVuSans-4c" d="M 628 4666 
L 1259 4666 
L 1259 531 
L 3531 531 
L 3531 0 
L 628 0 
L 628 4666 
z
" transform="scale(0.015625)"/>
       <path id="DejaVuSans-68" d="M 3513 2113 
L 3513 0 
L 2938 0 
L 2938 2094 
Q 2938 2591 2744 2837 
Q 2550 3084 2163 3084 
Q 1697 3084 1428 2787 
Q 1159 2491 1159 1978 
L 1159 0 
L 581 0 
L 581 4863 
L 1159 4863 
L 1159 2956 
Q 1366 3272 1645 3428 
Q 1925 3584 2291 3584 
Q 2894 3584 3203 3211 
Q 3513 2838 3513 2113 
z
" transform="scale(0.015625)"/>
      </defs>
      <use xlink:href="#ArialMT-5b" transform="translate(0 0.684375)"/>
      <use xlink:href="#DejaVuSans-67" transform="translate(27.783203 0.684375)"/>
      <use xlink:href="#DejaVuSans-22c5" transform="translate(110.742188 0.684375)"/>
      <use xlink:href="#DejaVuSans-4c" transform="translate(162.011719 0.684375)"/>
      <use xlink:href="#DejaVuSans-2212" transform="translate(218.681641 38.965625) scale(0.7)"/>
      <use xlink:href="#DejaVuSans-31" transform="translate(277.333984 38.965625) scale(0.7)"/>
      <use xlink:href="#DejaVuSans-22c5" transform="translate(344.086914 0.684375)"/>
      <use xlink:href="#DejaVuSans-68" transform="translate(395.356445 0.684375)"/>
      <use xlink:href="#DejaVuSans-2212" transform="translate(459.692383 38.965625) scale(0.7)"/>
      <use xlink:href="#DejaVuSans-31" transform="translate(518.344727 38.965625) scale(0.7)"/>
      <use xlink:href="#ArialMT-5d" transform="translate(565.615234 0.684375)"/>
     </g>
    </g>
   </g>
   <g id="patch_7">
    <path d="M 57.6 168.192 
L 57.6 41.472 
" style="fill: none; stroke: #000000; stroke-width: 0.8; stroke-linejoin: miter; stroke-linecap: square"/>
   </g>
   <g id="patch_8">
    <path d="M 329.691429 168.192 
L 329.691429 41.472 
" style="fill: none; stroke: #000000; stroke-width: 0.8; stroke-linejoin: miter; stroke-linecap: square"/>
   </g>
   <g id="patch_9">
    <path d="M 57.6 168.192 
L 329.691429 168.192 
" style="fill: none; stroke: #000000; stroke-width: 0.8; stroke-linejoin: miter; stroke-linecap: square"/>
   </g>
   <g id="patch_10">
    <path d="M 57.6 41.472 
L 329.691429 41.472 
" style="fill: none; stroke: #000000; stroke-width: 0.8; stroke-linejoin: miter; stroke-linecap: square"/>
   </g>
  </g>
  <g id="axes_6">
   <g id="patch_11">
    <path d="M 57.6 307.584 
L 329.691429 307.584 
L 329.691429 180.864 
L 57.6 180.864 
z
" style="fill: #ffffff; fill-opacity: 0.95"/>
   </g>
   <g id="PathCollection_20">
    <path d="M 178.529524 307.584 
L 208.761905 307.584 
L 238.994286 307.584 
L 269.226667 307.584 
L 299.459048 307.584 
L 329.691429 307.584 
L 329.691429 293.504 
L 329.691429 279.424 
L 329.691429 265.344 
L 329.691429 251.264 
L 329.691429 237.184 
L 329.691429 223.104 
L 329.691429 209.024 
L 329.691429 194.944 
L 329.691429 180.864 
L 299.459048 180.864 
L 269.226667 180.864 
L 249.030533 180.864 
L 242.014092 194.944 
L 238.994286 199.021303 
L 233.151811 209.024 
L 223.572273 223.104 
L 212.694889 237.184 
L 208.761905 241.935919 
L 202.717127 251.264 
L 192.510285 265.344 
L 181.81163 279.424 
L 178.529524 284.23969 
L 174.722982 293.504 
L 171.165155 307.584 
z
" clip-path="url(#p1587132474)" style="fill: #ffbc78"/>
   </g>
   <g id="PathCollection_21">
    <path d="M 148.297143 307.584 
L 171.165155 307.584 
L 174.722982 293.504 
L 178.529524 284.23969 
L 181.81163 279.424 
L 192.510285 265.344 
L 202.717127 251.264 
L 208.761905 241.935919 
L 212.694889 237.184 
L 223.572273 223.104 
L 233.151811 209.024 
L 238.994286 199.021303 
L 242.014092 194.944 
L 249.030533 180.864 
L 238.994286 180.864 
L 208.761905 180.864 
L 178.529524 180.864 
L 169.828521 180.864 
L 166.894867 194.944 
L 161.79781 209.024 
L 155.133444 223.104 
L 148.297143 235.278241 
L 147.720206 237.184 
L 142.777554 251.264 
L 138.048377 265.344 
L 134.064488 279.424 
L 130.215957 293.504 
L 127.39121 307.584 
z
" clip-path="url(#p1587132474)" style="fill: #ffa66a"/>
   </g>
   <g id="PathCollection_22">
    <path d="M 118.064762 307.584 
L 127.39121 307.584 
L 130.215957 293.504 
L 134.064488 279.424 
L 138.048377 265.344 
L 142.777554 251.264 
L 147.720206 237.184 
L 148.297143 235.278241 
L 155.133444 223.104 
L 161.79781 209.024 
L 166.894867 194.944 
L 169.828521 180.864 
L 148.297143 180.864 
L 136.962888 180.864 
L 134.749532 194.944 
L 131.276021 209.024 
L 126.924708 223.104 
L 121.643856 237.184 
L 118.064762 245.384642 
L 116.614823 251.264 
L 113.433005 265.344 
L 110.546569 279.424 
L 107.498926 293.504 
L 105.15034 307.584 
z
" clip-path="url(#p1587132474)" style="fill: #e3905c"/>
   </g>
   <g id="PathCollection_23">
    <path d="M 87.832381 307.584 
L 105.15034 307.584 
L 107.498926 293.504 
L 110.546569 279.424 
L 113.433005 265.344 
L 116.614823 251.264 
L 118.064762 245.384642 
L 121.643856 237.184 
L 126.924708 223.104 
L 131.276021 209.024 
L 134.749532 194.944 
L 136.962888 180.864 
L 118.064762 180.864 
L 116.170797 180.864 
L 114.521262 194.944 
L 112.124974 209.024 
L 109.219194 223.104 
L 105.766621 237.184 
L 101.880122 251.264 
L 98.04618 265.344 
L 94.24235 279.424 
L 90.187183 293.504 
L 87.832381 304.249295 
L 87.093033 307.584 
z
" clip-path="url(#p1587132474)" style="fill: #c17a4e"/>
   </g>
   <g id="PathCollection_24">
    <path d="M 87.832381 304.249295 
L 90.187183 293.504 
L 94.24235 279.424 
L 98.04618 265.344 
L 101.880122 251.264 
L 105.766621 237.184 
L 109.219194 223.104 
L 112.124974 209.024 
L 114.521262 194.944 
L 116.170797 180.864 
L 103.850969 180.864 
L 101.86044 194.944 
L 98.938849 209.024 
L 95.484714 223.104 
L 91.511965 237.184 
L 87.832381 249.110013 
L 87.163781 251.264 
L 82.774475 265.344 
L 78.149675 279.424 
L 73.251736 293.504 
L 69.578602 307.584 
L 87.093033 307.584 
z
" clip-path="url(#p1587132474)" style="fill: #9d633f"/>
   </g>
   <g id="PathCollection_25">
    <path d="M 73.251736 293.504 
L 78.149675 279.424 
L 82.774475 265.344 
L 87.163781 251.264 
L 87.832381 249.110013 
L 91.511965 237.184 
L 95.484714 223.104 
L 98.938849 209.024 
L 101.86044 194.944 
L 103.850969 180.864 
L 91.531141 180.864 
L 89.199619 194.944 
L 87.832381 200.666487 
L 85.830407 209.024 
L 81.962045 223.104 
L 77.596691 237.184 
L 72.822884 251.264 
L 67.730064 265.344 
L 62.194049 279.424 
L 57.6 290.670059 
L 57.6 293.504 
L 57.6 307.584 
L 69.578602 307.584 
z
" clip-path="url(#p1587132474)" style="fill: #7a4d31"/>
   </g>
   <g id="PathCollection_26">
    <path d="M 62.194049 279.424 
L 67.730064 265.344 
L 72.822884 251.264 
L 77.596691 237.184 
L 81.962045 223.104 
L 85.830407 209.024 
L 87.832381 200.666487 
L 89.199619 194.944 
L 91.531141 180.864 
L 87.832381 180.864 
L 79.498726 180.864 
L 76.955926 194.944 
L 73.136832 209.024 
L 68.705868 223.104 
L 63.799504 237.184 
L 58.481987 251.264 
L 57.6 253.494903 
L 57.6 265.344 
L 57.6 279.424 
L 57.6 290.670059 
z
" clip-path="url(#p1587132474)" style="fill: #583723"/>
   </g>
   <g id="PathCollection_27">
    <path d="M 58.481987 251.264 
L 63.799504 237.184 
L 68.705868 223.104 
L 73.136832 209.024 
L 76.955926 194.944 
L 79.498726 180.864 
L 67.589621 180.864 
L 64.762733 194.944 
L 60.443256 209.024 
L 57.6 217.190168 
L 57.6 223.104 
L 57.6 237.184 
L 57.6 251.264 
L 57.6 253.494903 
z
" clip-path="url(#p1587132474)" style="fill: #342115"/>
   </g>
   <g id="PathCollection_28">
    <path d="M 60.443256 209.024 
L 64.762733 194.944 
L 67.589621 180.864 
L 57.6 180.864 
L 57.6 194.944 
L 57.6 209.024 
L 57.6 217.190168 
z
" clip-path="url(#p1587132474)" style="fill: #110b07"/>
   </g>
   <g id="PathCollection_29"/>
   <g id="PathCollection_30">
    <path d="M 171.165155 307.584 
L 174.722982 293.504 
L 178.529524 284.23969 
L 181.81163 279.424 
L 192.510285 265.344 
L 202.717127 251.264 
L 208.761905 241.935919 
L 212.694889 237.184 
L 223.572273 223.104 
L 233.151811 209.024 
L 238.994286 199.021303 
L 242.014092 194.944 
L 249.030533 180.864 
" clip-path="url(#p1587132474)" style="fill: none; stroke: #3d4240; stroke-opacity: 0.1; stroke-width: 0.8"/>
   </g>
   <g id="PathCollection_31">
    <path d="M 127.39121 307.584 
L 130.215957 293.504 
L 134.064488 279.424 
L 138.048377 265.344 
L 142.755556 251.329494 
" clip-path="url(#p1587132474)" style="fill: none; stroke: #3d4240; stroke-opacity: 0.1; stroke-width: 0.8"/>
    <path d="M 154.66238 223.942881 
L 155.133444 223.104 
L 161.79781 209.024 
L 166.894867 194.944 
L 169.828521 180.864 
" clip-path="url(#p1587132474)" style="fill: none; stroke: #3d4240; stroke-opacity: 0.1; stroke-width: 0.8"/>
   </g>
   <g id="PathCollection_32">
    <path d="M 105.15034 307.584 
L 107.498926 293.504 
L 110.546569 279.424 
L 113.433005 265.344 
L 116.614823 251.264 
L 118.064762 245.384642 
L 121.643856 237.184 
L 126.924708 223.104 
L 131.276021 209.024 
L 134.749532 194.944 
L 136.962888 180.864 
" clip-path="url(#p1587132474)" style="fill: none; stroke: #3d4240; stroke-opacity: 0.1; stroke-width: 0.8"/>
   </g>
   <g id="PathCollection_33">
    <path d="M 87.093033 307.584 
L 87.832381 304.249295 
L 90.187183 293.504 
L 94.24235 279.424 
L 97.942176 265.728974 
" clip-path="url(#p1587132474)" style="fill: none; stroke: #3d4240; stroke-opacity: 0.1; stroke-width: 0.8"/>
    <path d="M 105.858282 236.810194 
L 109.219194 223.104 
L 112.124974 209.024 
L 114.521262 194.944 
L 116.170797 180.864 
" clip-path="url(#p1587132474)" style="fill: none; stroke: #3d4240; stroke-opacity: 0.1; stroke-width: 0.8"/>
   </g>
   <g id="PathCollection_34">
    <path d="M 69.578602 307.584 
L 73.251736 293.504 
L 78.149675 279.424 
L 82.774475 265.344 
L 87.163781 251.264 
L 87.832381 249.110013 
L 91.511965 237.184 
L 95.484714 223.104 
L 98.938849 209.024 
L 101.86044 194.944 
L 103.850969 180.864 
" clip-path="url(#p1587132474)" style="fill: none; stroke: #3d4240; stroke-opacity: 0.1; stroke-width: 0.8"/>
   </g>
   <g id="PathCollection_35">
    <path d="M 57.6 290.670059 
L 62.194049 279.424 
L 67.730064 265.344 
L 72.822884 251.264 
L 77.516341 237.420987 
" clip-path="url(#p1587132474)" style="fill: none; stroke: #3d4240; stroke-opacity: 0.1; stroke-width: 0.8"/>
    <path d="M 85.921187 208.645026 
L 87.832381 200.666487 
L 89.199619 194.944 
L 91.531141 180.864 
" clip-path="url(#p1587132474)" style="fill: none; stroke: #3d4240; stroke-opacity: 0.1; stroke-width: 0.8"/>
   </g>
   <g id="PathCollection_36">
    <path d="M 57.6 253.494903 
L 58.481987 251.264 
L 63.799504 237.184 
L 68.705868 223.104 
L 73.136832 209.024 
L 76.955926 194.944 
L 79.498726 180.864 
" clip-path="url(#p1587132474)" style="fill: none; stroke: #3d4240; stroke-opacity: 0.1; stroke-width: 0.8"/>
   </g>
   <g id="PathCollection_37">
    <path d="M 57.6 217.190168 
L 60.356529 209.273092 
" clip-path="url(#p1587132474)" style="fill: none; stroke: #3d4240; stroke-opacity: 0.1; stroke-width: 0.8"/>
   </g>
   <g id="PathCollection_38"/>
   <g id="text_24">
    <g clip-path="url(#p1587132474)">
     <!-- 33.1 -->
     <g transform="translate(137.016691 240.027672) scale(0.11 -0.11)">
      <use xlink:href="#ArialMT-33"/>
      <use xlink:href="#ArialMT-33" x="55.615234"/>
      <use xlink:href="#ArialMT-2e" x="111.230469"/>
      <use xlink:href="#ArialMT-31" x="139.013672"/>
     </g>
    </g>
   </g>
   <g id="text_25">
    <g clip-path="url(#p1587132474)">
     <!-- 52.2 -->
     <g transform="translate(91.176607 254.107672) scale(0.11 -0.11)">
      <use xlink:href="#ArialMT-35"/>
      <use xlink:href="#ArialMT-32" x="55.615234"/>
      <use xlink:href="#ArialMT-2e" x="111.230469"/>
      <use xlink:href="#ArialMT-32" x="139.013672"/>
     </g>
    </g>
   </g>
   <g id="text_26">
    <g clip-path="url(#p1587132474)">
     <!-- 71.3 -->
     <g transform="translate(71.258529 225.947672) scale(0.11 -0.11)">
      <use xlink:href="#ArialMT-37"/>
      <use xlink:href="#ArialMT-31" x="55.615234"/>
      <use xlink:href="#ArialMT-2e" x="111.230469"/>
      <use xlink:href="#ArialMT-33" x="139.013672"/>
     </g>
    </g>
   </g>
   <g id="text_27">
    <g clip-path="url(#p1587132474)">
     <!-- 90.4 -->
     <g transform="translate(54.059218 197.787672) scale(0.11 -0.11)">
      <use xlink:href="#ArialMT-39"/>
      <use xlink:href="#ArialMT-30" x="55.615234"/>
      <use xlink:href="#ArialMT-2e" x="111.230469"/>
      <use xlink:href="#ArialMT-34" x="139.013672"/>
     </g>
    </g>
   </g>
   <g id="matplotlib.axis_7">
    <g id="xtick_7">
     <g id="line2d_23">
      <g>
       <use xlink:href="#m8692f2dc5e" x="57.6" y="307.584" style="stroke: #000000; stroke-width: 0.8"/>
      </g>
     </g>
    </g>
    <g id="xtick_8">
     <g id="line2d_24">
      <g>
       <use xlink:href="#m8692f2dc5e" x="87.832381" y="307.584" style="stroke: #000000; stroke-width: 0.8"/>
      </g>
     </g>
     <g id="text_28">
      <!-- 20 -->
      <g transform="translate(81.71535 320.957594) scale(0.11 -0.11)">
       <use xlink:href="#ArialMT-32"/>
       <use xlink:href="#ArialMT-30" x="55.615234"/>
      </g>
     </g>
    </g>
    <g id="xtick_9">
     <g id="line2d_25">
      <g>
       <use xlink:href="#m8692f2dc5e" x="148.297143" y="307.584" style="stroke: #000000; stroke-width: 0.8"/>
      </g>
     </g>
     <g id="text_29">
      <!-- 40 -->
      <g transform="translate(142.180112 320.957594) scale(0.11 -0.11)">
       <use xlink:href="#ArialMT-34"/>
       <use xlink:href="#ArialMT-30" x="55.615234"/>
      </g>
     </g>
    </g>
    <g id="xtick_10">
     <g id="line2d_26">
      <g>
       <use xlink:href="#m8692f2dc5e" x="208.761905" y="307.584" style="stroke: #000000; stroke-width: 0.8"/>
      </g>
     </g>
     <g id="text_30">
      <!-- 60 -->
      <g transform="translate(202.644874 320.957594) scale(0.11 -0.11)">
       <use xlink:href="#ArialMT-36"/>
       <use xlink:href="#ArialMT-30" x="55.615234"/>
      </g>
     </g>
    </g>
    <g id="xtick_11">
     <g id="line2d_27">
      <g>
       <use xlink:href="#m8692f2dc5e" x="269.226667" y="307.584" style="stroke: #000000; stroke-width: 0.8"/>
      </g>
     </g>
     <g id="text_31">
      <!-- 80 -->
      <g transform="translate(263.109635 320.957594) scale(0.11 -0.11)">
       <use xlink:href="#ArialMT-38"/>
       <use xlink:href="#ArialMT-30" x="55.615234"/>
      </g>
     </g>
    </g>
    <g id="xtick_12">
     <g id="line2d_28">
      <g>
       <use xlink:href="#m8692f2dc5e" x="329.691429" y="307.584" style="stroke: #000000; stroke-width: 0.8"/>
      </g>
     </g>
     <g id="text_32">
      <!-- 100 -->
      <g transform="translate(320.515882 320.957594) scale(0.11 -0.11)">
       <use xlink:href="#ArialMT-31"/>
       <use xlink:href="#ArialMT-30" x="55.615234"/>
       <use xlink:href="#ArialMT-30" x="111.230469"/>
      </g>
     </g>
    </g>
    <g id="text_33">
     <!-- AcOH Titer [$\mathrm{g} \cdot \mathrm{L}^{\mathrm{-1}}$] -->
     <g transform="translate(145.520714 337.043844) scale(0.11 -0.11)">
      <defs>
       <path id="ArialMT-54" d="M 1659 0 
L 1659 4041 
L 150 4041 
L 150 4581 
L 3781 4581 
L 3781 4041 
L 2266 4041 
L 2266 0 
L 1659 0 
z
" transform="scale(0.015625)"/>
       <path id="ArialMT-65" d="M 2694 1069 
L 3275 997 
Q 3138 488 2766 206 
Q 2394 -75 1816 -75 
Q 1088 -75 661 373 
Q 234 822 234 1631 
Q 234 2469 665 2931 
Q 1097 3394 1784 3394 
Q 2450 3394 2872 2941 
Q 3294 2488 3294 1666 
Q 3294 1616 3291 1516 
L 816 1516 
Q 847 969 1125 678 
Q 1403 388 1819 388 
Q 2128 388 2347 550 
Q 2566 713 2694 1069 
z
M 847 1978 
L 2700 1978 
Q 2663 2397 2488 2606 
Q 2219 2931 1791 2931 
Q 1403 2931 1139 2672 
Q 875 2413 847 1978 
z
" transform="scale(0.015625)"/>
      </defs>
      <use xlink:href="#ArialMT-41" transform="translate(0 0.684375)"/>
      <use xlink:href="#ArialMT-63" transform="translate(66.699219 0.684375)"/>
      <use xlink:href="#ArialMT-4f" transform="translate(116.699219 0.684375)"/>
      <use xlink:href="#ArialMT-48" transform="translate(194.482422 0.684375)"/>
      <use xlink:href="#ArialMT-20" transform="translate(266.699219 0.684375)"/>
      <use xlink:href="#ArialMT-54" transform="translate(294.482422 0.684375)"/>
      <use xlink:href="#ArialMT-69" transform="translate(355.566406 0.684375)"/>
      <use xlink:href="#ArialMT-74" transform="translate(377.783203 0.684375)"/>
      <use xlink:href="#ArialMT-65" transform="translate(405.566406 0.684375)"/>
      <use xlink:href="#ArialMT-72" transform="translate(461.181641 0.684375)"/>
      <use xlink:href="#ArialMT-20" transform="translate(494.482422 0.684375)"/>
      <use xlink:href="#ArialMT-5b" transform="translate(522.265625 0.684375)"/>
      <use xlink:href="#DejaVuSans-67" transform="translate(550.048828 0.684375)"/>
      <use xlink:href="#DejaVuSans-22c5" transform="translate(633.007812 0.684375)"/>
      <use xlink:href="#DejaVuSans-4c" transform="translate(684.277344 0.684375)"/>
      <use xlink:href="#DejaVuSans-2212" transform="translate(740.947266 38.965625) scale(0.7)"/>
      <use xlink:href="#DejaVuSans-31" transform="translate(799.599609 38.965625) scale(0.7)"/>
      <use xlink:href="#ArialMT-5d" transform="translate(846.870117 0.684375)"/>
     </g>
    </g>
   </g>
   <g id="matplotlib.axis_8">
    <g id="ytick_17">
     <g id="line2d_29">
      <g>
       <use xlink:href="#mee640e7ff7" x="57.6" y="307.584" style="stroke: #000000; stroke-width: 0.8"/>
      </g>
     </g>
     <g id="text_34">
      <!-- 1 -->
      <g transform="translate(45.982969 311.520797) scale(0.11 -0.11)">
       <use xlink:href="#ArialMT-31"/>
      </g>
     </g>
    </g>
    <g id="ytick_18">
     <g id="line2d_30">
      <g>
       <use xlink:href="#mee640e7ff7" x="57.6" y="282.24" style="stroke: #000000; stroke-width: 0.8"/>
      </g>
     </g>
     <g id="text_35">
      <!-- 1.4 -->
      <g transform="translate(36.81 286.176797) scale(0.11 -0.11)">
       <use xlink:href="#ArialMT-31"/>
       <use xlink:href="#ArialMT-2e" x="55.615234"/>
       <use xlink:href="#ArialMT-34" x="83.398438"/>
      </g>
     </g>
    </g>
    <g id="ytick_19">
     <g id="line2d_31">
      <g>
       <use xlink:href="#mee640e7ff7" x="57.6" y="256.896" style="stroke: #000000; stroke-width: 0.8"/>
      </g>
     </g>
     <g id="text_36">
      <!-- 1.8 -->
      <g transform="translate(36.81 260.832797) scale(0.11 -0.11)">
       <use xlink:href="#ArialMT-31"/>
       <use xlink:href="#ArialMT-2e" x="55.615234"/>
       <use xlink:href="#ArialMT-38" x="83.398438"/>
      </g>
     </g>
    </g>
    <g id="ytick_20">
     <g id="line2d_32">
      <g>
       <use xlink:href="#mee640e7ff7" x="57.6" y="231.552" style="stroke: #000000; stroke-width: 0.8"/>
      </g>
     </g>
     <g id="text_37">
      <!-- 2.2 -->
      <g transform="translate(36.81 235.488797) scale(0.11 -0.11)">
       <use xlink:href="#ArialMT-32"/>
       <use xlink:href="#ArialMT-2e" x="55.615234"/>
       <use xlink:href="#ArialMT-32" x="83.398438"/>
      </g>
     </g>
    </g>
    <g id="ytick_21">
     <g id="line2d_33">
      <g>
       <use xlink:href="#mee640e7ff7" x="57.6" y="206.208" style="stroke: #000000; stroke-width: 0.8"/>
      </g>
     </g>
     <g id="text_38">
      <!-- 2.6 -->
      <g transform="translate(36.81 210.144797) scale(0.11 -0.11)">
       <use xlink:href="#ArialMT-32"/>
       <use xlink:href="#ArialMT-2e" x="55.615234"/>
       <use xlink:href="#ArialMT-36" x="83.398438"/>
      </g>
     </g>
    </g>
    <g id="ytick_22">
     <g id="line2d_34">
      <g>
       <use xlink:href="#mee640e7ff7" x="57.6" y="180.864" style="stroke: #000000; stroke-width: 0.8"/>
      </g>
     </g>
     <g id="text_39">
      <!-- 3 -->
      <g transform="translate(45.982969 184.800797) scale(0.11 -0.11)">
       <use xlink:href="#ArialMT-33"/>
      </g>
     </g>
    </g>
    <g id="text_40">
     <!-- AcOH Productivity -->
     <g transform="translate(16.304844 288.846187) rotate(-90) scale(0.11 -0.11)">
      <use xlink:href="#ArialMT-41"/>
      <use xlink:href="#ArialMT-63" x="66.699219"/>
      <use xlink:href="#ArialMT-4f" x="116.699219"/>
      <use xlink:href="#ArialMT-48" x="194.482422"/>
      <use xlink:href="#ArialMT-20" x="266.699219"/>
      <use xlink:href="#ArialMT-50" x="294.482422"/>
      <use xlink:href="#ArialMT-72" x="361.181641"/>
      <use xlink:href="#ArialMT-6f" x="394.482422"/>
      <use xlink:href="#ArialMT-64" x="450.097656"/>
      <use xlink:href="#ArialMT-75" x="505.712891"/>
      <use xlink:href="#ArialMT-63" x="561.328125"/>
      <use xlink:href="#ArialMT-74" x="611.328125"/>
      <use xlink:href="#ArialMT-69" x="639.111328"/>
      <use xlink:href="#ArialMT-76" x="661.328125"/>
      <use xlink:href="#ArialMT-69" x="711.328125"/>
      <use xlink:href="#ArialMT-74" x="733.544922"/>
      <use xlink:href="#ArialMT-79" x="761.328125"/>
     </g>
     <!-- [$\mathrm{g} \cdot \mathrm{L}^{\mathrm{-1}} \cdot \mathrm{h}^{\mathrm{-1}}$] -->
     <g transform="translate(30.5 276.894) rotate(-90) scale(0.11 -0.11)">
      <use xlink:href="#ArialMT-5b" transform="translate(0 0.684375)"/>
      <use xlink:href="#DejaVuSans-67" transform="translate(27.783203 0.684375)"/>
      <use xlink:href="#DejaVuSans-22c5" transform="translate(110.742188 0.684375)"/>
      <use xlink:href="#DejaVuSans-4c" transform="translate(162.011719 0.684375)"/>
      <use xlink:href="#DejaVuSans-2212" transform="translate(218.681641 38.965625) scale(0.7)"/>
      <use xlink:href="#DejaVuSans-31" transform="translate(277.333984 38.965625) scale(0.7)"/>
      <use xlink:href="#DejaVuSans-22c5" transform="translate(344.086914 0.684375)"/>
      <use xlink:href="#DejaVuSans-68" transform="translate(395.356445 0.684375)"/>
      <use xlink:href="#DejaVuSans-2212" transform="translate(459.692383 38.965625) scale(0.7)"/>
      <use xlink:href="#DejaVuSans-31" transform="translate(518.344727 38.965625) scale(0.7)"/>
      <use xlink:href="#ArialMT-5d" transform="translate(565.615234 0.684375)"/>
     </g>
    </g>
   </g>
   <g id="patch_12">
    <path d="M 57.6 307.584 
L 57.6 180.864 
" style="fill: none; stroke: #000000; stroke-width: 0.8; stroke-linejoin: miter; stroke-linecap: square"/>
   </g>
   <g id="patch_13">
    <path d="M 329.691429 307.584 
L 329.691429 180.864 
" style="fill: none; stroke: #000000; stroke-width: 0.8; stroke-linejoin: miter; stroke-linecap: square"/>
   </g>
   <g id="patch_14">
    <path d="M 57.6 307.584 
L 329.691429 307.584 
" style="fill: none; stroke: #000000; stroke-width: 0.8; stroke-linejoin: miter; stroke-linecap: square"/>
   </g>
   <g id="patch_15">
    <path d="M 57.6 180.864 
L 329.691429 180.864 
" style="fill: none; stroke: #000000; stroke-width: 0.8; stroke-linejoin: miter; stroke-linecap: square"/>
   </g>
  </g>
  <g id="axes_7">
   <g id="matplotlib.axis_9">
    <g id="ytick_23">
     <g id="line2d_35">
      <defs>
       <path id="m0bfc6cac3c" d="M 0 0 
L -4 0 
" style="stroke: #000000; stroke-width: 0.8"/>
      </defs>
      <g>
       <use xlink:href="#m0bfc6cac3c" x="329.691429" y="168.192" style="stroke: #000000; stroke-width: 0.8"/>
      </g>
     </g>
    </g>
    <g id="ytick_24">
     <g id="line2d_36">
      <g>
       <use xlink:href="#m0bfc6cac3c" x="329.691429" y="142.848" style="stroke: #000000; stroke-width: 0.8"/>
      </g>
     </g>
    </g>
    <g id="ytick_25">
     <g id="line2d_37">
      <g>
       <use xlink:href="#m0bfc6cac3c" x="329.691429" y="117.504" style="stroke: #000000; stroke-width: 0.8"/>
      </g>
     </g>
    </g>
    <g id="ytick_26">
     <g id="line2d_38">
      <g>
       <use xlink:href="#m0bfc6cac3c" x="329.691429" y="92.16" style="stroke: #000000; stroke-width: 0.8"/>
      </g>
     </g>
    </g>
    <g id="ytick_27">
     <g id="line2d_39">
      <g>
       <use xlink:href="#m0bfc6cac3c" x="329.691429" y="66.816" style="stroke: #000000; stroke-width: 0.8"/>
      </g>
     </g>
    </g>
    <g id="ytick_28">
     <g id="line2d_40">
      <g>
       <use xlink:href="#m0bfc6cac3c" x="329.691429" y="41.472" style="stroke: #000000; stroke-width: 0.8"/>
      </g>
     </g>
    </g>
   </g>
   <g id="patch_16">
    <path d="M 57.6 168.192 
L 57.6 41.472 
" style="fill: none; stroke: #000000; stroke-width: 0.8; stroke-linejoin: miter; stroke-linecap: square"/>
   </g>
   <g id="patch_17">
    <path d="M 329.691429 168.192 
L 329.691429 41.472 
" style="fill: none; stroke: #000000; stroke-width: 0.8; stroke-linejoin: miter; stroke-linecap: square"/>
   </g>
   <g id="patch_18">
    <path d="M 57.6 168.192 
L 329.691429 168.192 
" style="fill: none; stroke: #000000; stroke-width: 0.8; stroke-linejoin: miter; stroke-linecap: square"/>
   </g>
   <g id="patch_19">
    <path d="M 57.6 41.472 
L 329.691429 41.472 
" style="fill: none; stroke: #000000; stroke-width: 0.8; stroke-linejoin: miter; stroke-linecap: square"/>
   </g>
  </g>
  <g id="axes_8">
   <g id="matplotlib.axis_10">
    <g id="xtick_13">
     <g id="line2d_41">
      <defs>
       <path id="m6307557bd3" d="M 0 0 
L 0 4 
" style="stroke: #000000; stroke-width: 0.8"/>
      </defs>
      <g>
       <use xlink:href="#m6307557bd3" x="57.6" y="41.472" style="stroke: #000000; stroke-width: 0.8"/>
      </g>
     </g>
    </g>
    <g id="xtick_14">
     <g id="line2d_42">
      <g>
       <use xlink:href="#m6307557bd3" x="87.832381" y="41.472" style="stroke: #000000; stroke-width: 0.8"/>
      </g>
     </g>
    </g>
    <g id="xtick_15">
     <g id="line2d_43">
      <g>
       <use xlink:href="#m6307557bd3" x="148.297143" y="41.472" style="stroke: #000000; stroke-width: 0.8"/>
      </g>
     </g>
    </g>
    <g id="xtick_16">
     <g id="line2d_44">
      <g>
       <use xlink:href="#m6307557bd3" x="208.761905" y="41.472" style="stroke: #000000; stroke-width: 0.8"/>
      </g>
     </g>
    </g>
    <g id="xtick_17">
     <g id="line2d_45">
      <g>
       <use xlink:href="#m6307557bd3" x="269.226667" y="41.472" style="stroke: #000000; stroke-width: 0.8"/>
      </g>
     </g>
    </g>
    <g id="xtick_18">
     <g id="line2d_46">
      <g>
       <use xlink:href="#m6307557bd3" x="329.691429" y="41.472" style="stroke: #000000; stroke-width: 0.8"/>
      </g>
     </g>
    </g>
   </g>
   <g id="patch_20">
    <path d="M 57.6 168.192 
L 57.6 41.472 
" style="fill: none; stroke: #000000; stroke-width: 0.8; stroke-linejoin: miter; stroke-linecap: square"/>
   </g>
   <g id="patch_21">
    <path d="M 329.691429 168.192 
L 329.691429 41.472 
" style="fill: none; stroke: #000000; stroke-width: 0.8; stroke-linejoin: miter; stroke-linecap: square"/>
   </g>
   <g id="patch_22">
    <path d="M 57.6 168.192 
L 329.691429 168.192 
" style="fill: none; stroke: #000000; stroke-width: 0.8; stroke-linejoin: miter; stroke-linecap: square"/>
   </g>
   <g id="patch_23">
    <path d="M 57.6 41.472 
L 329.691429 41.472 
" style="fill: none; stroke: #000000; stroke-width: 0.8; stroke-linejoin: miter; stroke-linecap: square"/>
   </g>
  </g>
  <g id="axes_9">
   <g id="matplotlib.axis_11">
    <g id="ytick_29">
     <g id="line2d_47">
      <g>
       <use xlink:href="#m0bfc6cac3c" x="329.691429" y="307.584" style="stroke: #000000; stroke-width: 0.8"/>
      </g>
     </g>
    </g>
    <g id="ytick_30">
     <g id="line2d_48">
      <g>
       <use xlink:href="#m0bfc6cac3c" x="329.691429" y="282.24" style="stroke: #000000; stroke-width: 0.8"/>
      </g>
     </g>
    </g>
    <g id="ytick_31">
     <g id="line2d_49">
      <g>
       <use xlink:href="#m0bfc6cac3c" x="329.691429" y="256.896" style="stroke: #000000; stroke-width: 0.8"/>
      </g>
     </g>
    </g>
    <g id="ytick_32">
     <g id="line2d_50">
      <g>
       <use xlink:href="#m0bfc6cac3c" x="329.691429" y="231.552" style="stroke: #000000; stroke-width: 0.8"/>
      </g>
     </g>
    </g>
    <g id="ytick_33">
     <g id="line2d_51">
      <g>
       <use xlink:href="#m0bfc6cac3c" x="329.691429" y="206.208" style="stroke: #000000; stroke-width: 0.8"/>
      </g>
     </g>
    </g>
    <g id="ytick_34">
     <g id="line2d_52">
      <g>
       <use xlink:href="#m0bfc6cac3c" x="329.691429" y="180.864" style="stroke: #000000; stroke-width: 0.8"/>
      </g>
     </g>
    </g>
   </g>
   <g id="patch_24">
    <path d="M 57.6 307.584 
L 57.6 180.864 
" style="fill: none; stroke: #000000; stroke-width: 0.8; stroke-linejoin: miter; stroke-linecap: square"/>
   </g>
   <g id="patch_25">
    <path d="M 329.691429 307.584 
L 329.691429 180.864 
" style="fill: none; stroke: #000000; stroke-width: 0.8; stroke-linejoin: miter; stroke-linecap: square"/>
   </g>
   <g id="patch_26">
    <path d="M 57.6 307.584 
L 329.691429 307.584 
" style="fill: none; stroke: #000000; stroke-width: 0.8; stroke-linejoin: miter; stroke-linecap: square"/>
   </g>
   <g id="patch_27">
    <path d="M 57.6 180.864 
L 329.691429 180.864 
" style="fill: none; stroke: #000000; stroke-width: 0.8; stroke-linejoin: miter; stroke-linecap: square"/>
   </g>
  </g>
  <g id="axes_10">
   <g id="matplotlib.axis_12">
    <g id="xtick_19">
     <g id="line2d_53">
      <g>
       <use xlink:href="#m6307557bd3" x="57.6" y="180.864" style="stroke: #000000; stroke-width: 0.8"/>
      </g>
     </g>
    </g>
    <g id="xtick_20">
     <g id="line2d_54">
      <g>
       <use xlink:href="#m6307557bd3" x="87.832381" y="180.864" style="stroke: #000000; stroke-width: 0.8"/>
      </g>
     </g>
    </g>
    <g id="xtick_21">
     <g id="line2d_55">
      <g>
       <use xlink:href="#m6307557bd3" x="148.297143" y="180.864" style="stroke: #000000; stroke-width: 0.8"/>
      </g>
     </g>
    </g>
    <g id="xtick_22">
     <g id="line2d_56">
      <g>
       <use xlink:href="#m6307557bd3" x="208.761905" y="180.864" style="stroke: #000000; stroke-width: 0.8"/>
      </g>
     </g>
    </g>
    <g id="xtick_23">
     <g id="line2d_57">
      <g>
       <use xlink:href="#m6307557bd3" x="269.226667" y="180.864" style="stroke: #000000; stroke-width: 0.8"/>
      </g>
     </g>
    </g>
    <g id="xtick_24">
     <g id="line2d_58">
      <g>
       <use xlink:href="#m6307557bd3" x="329.691429" y="180.864" style="stroke: #000000; stroke-width: 0.8"/>
      </g>
     </g>
    </g>
   </g>
   <g id="patch_28">
    <path d="M 57.6 307.584 
L 57.6 180.864 
" style="fill: none; stroke: #000000; stroke-width: 0.8; stroke-linejoin: miter; stroke-linecap: square"/>
   </g>
   <g id="patch_29">
    <path d="M 329.691429 307.584 
L 329.691429 180.864 
" style="fill: none; stroke: #000000; stroke-width: 0.8; stroke-linejoin: miter; stroke-linecap: square"/>
   </g>
   <g id="patch_30">
    <path d="M 57.6 307.584 
L 329.691429 307.584 
" style="fill: none; stroke: #000000; stroke-width: 0.8; stroke-linejoin: miter; stroke-linecap: square"/>
   </g>
   <g id="patch_31">
    <path d="M 57.6 180.864 
L 329.691429 180.864 
" style="fill: none; stroke: #000000; stroke-width: 0.8; stroke-linejoin: miter; stroke-linecap: square"/>
   </g>
  </g>
 </g>
 <defs>
  <clipPath id="p079519800c">
   <rect x="380.708571" y="54.144" width="5.0688" height="101.376"/>
  </clipPath>
  <clipPath id="pc514847d06">
   <rect x="380.708571" y="193.536" width="5.0688" height="101.376"/>
  </clipPath>
  <clipPath id="pc60c6e4626">
   <rect x="57.6" y="41.472" width="272.091429" height="126.72"/>
  </clipPath>
  <clipPath id="p1587132474">
   <rect x="57.6" y="180.864" width="272.091429" height="126.72"/>
  </clipPath>
 </defs>
</svg>
