<?xml version="1.0" encoding="utf-8" standalone="no"?>
<!DOCTYPE svg PUBLIC "-//W3C//DTD SVG 1.1//EN"
  "http://www.w3.org/Graphics/SVG/1.1/DTD/svg11.dtd">
<svg xmlns:xlink="http://www.w3.org/1999/xlink" width="476.2224pt" height="285.73344pt" viewBox="0 0 476.2224 285.73344" xmlns="http://www.w3.org/2000/svg" version="1.1">
 <metadata>
  <rdf:RDF xmlns:dc="http://purl.org/dc/elements/1.1/" xmlns:cc="http://creativecommons.org/ns#" xmlns:rdf="http://www.w3.org/1999/02/22-rdf-syntax-ns#">
   <cc:Work>
    <dc:type rdf:resource="http://purl.org/dc/dcmitype/StillImage"/>
    <dc:date>2025-08-27T17:16:35.879444</dc:date>
    <dc:format>image/svg+xml</dc:format>
    <dc:creator>
     <cc:Agent>
      <dc:title>Matplotlib v3.10.1, https://matplotlib.org/</dc:title>
     </cc:Agent>
    </dc:creator>
   </cc:Work>
  </rdf:RDF>
 </metadata>
 <defs>
  <style type="text/css">*{stroke-linejoin: round; stroke-linecap: butt}</style>
 </defs>
 <g id="figure_1">
  <g id="patch_1">
   <path d="M 0 285.73344 
L 476.2224 285.73344 
L 476.2224 0 
L 0 0 
L 0 285.73344 
z
" style="fill: none"/>
  </g>
  <g id="axes_1">
   <g id="patch_2">
    <path d="M 59.5278 228.586752 
L 216.681192 228.586752 
L 216.681192 14.286672 
L 59.5278 14.286672 
L 59.5278 228.586752 
z
" style="fill: none"/>
   </g>
   <g id="matplotlib.axis_1">
    <g id="xtick_1">
     <g id="line2d_1">
      <defs>
       <path id="m8a88c78b86" d="M 0 3 
L 0 -3 
" style="stroke: #262626; stroke-width: 1.25"/>
      </defs>
      <g>
       <use xlink:href="#m8a88c78b86" x="85.720032" y="228.586752" style="fill: #262626; stroke: #262626; stroke-width: 1.25"/>
      </g>
     </g>
     <g id="text_1">
      <!-- acetate -->
      <g style="fill: #262626" transform="translate(69.320032 242.244564) scale(0.1 -0.1)">
       <defs>
        <path id="ArialMT-61" d="M 2588 409 
Q 2275 144 1986 34 
Q 1697 -75 1366 -75 
Q 819 -75 525 192 
Q 231 459 231 875 
Q 231 1119 342 1320 
Q 453 1522 633 1644 
Q 813 1766 1038 1828 
Q 1203 1872 1538 1913 
Q 2219 1994 2541 2106 
Q 2544 2222 2544 2253 
Q 2544 2597 2384 2738 
Q 2169 2928 1744 2928 
Q 1347 2928 1158 2789 
Q 969 2650 878 2297 
L 328 2372 
Q 403 2725 575 2942 
Q 747 3159 1072 3276 
Q 1397 3394 1825 3394 
Q 2250 3394 2515 3294 
Q 2781 3194 2906 3042 
Q 3031 2891 3081 2659 
Q 3109 2516 3109 2141 
L 3109 1391 
Q 3109 606 3145 398 
Q 3181 191 3288 0 
L 2700 0 
Q 2613 175 2588 409 
z
M 2541 1666 
Q 2234 1541 1622 1453 
Q 1275 1403 1131 1340 
Q 988 1278 909 1158 
Q 831 1038 831 891 
Q 831 666 1001 516 
Q 1172 366 1500 366 
Q 1825 366 2078 508 
Q 2331 650 2450 897 
Q 2541 1088 2541 1459 
L 2541 1666 
z
" transform="scale(0.015625)"/>
        <path id="ArialMT-63" d="M 2588 1216 
L 3141 1144 
Q 3050 572 2676 248 
Q 2303 -75 1759 -75 
Q 1078 -75 664 370 
Q 250 816 250 1647 
Q 250 2184 428 2587 
Q 606 2991 970 3192 
Q 1334 3394 1763 3394 
Q 2303 3394 2647 3120 
Q 2991 2847 3088 2344 
L 2541 2259 
Q 2463 2594 2264 2762 
Q 2066 2931 1784 2931 
Q 1359 2931 1093 2626 
Q 828 2322 828 1663 
Q 828 994 1084 691 
Q 1341 388 1753 388 
Q 2084 388 2306 591 
Q 2528 794 2588 1216 
z
" transform="scale(0.015625)"/>
        <path id="ArialMT-65" d="M 2694 1069 
L 3275 997 
Q 3138 488 2766 206 
Q 2394 -75 1816 -75 
Q 1088 -75 661 373 
Q 234 822 234 1631 
Q 234 2469 665 2931 
Q 1097 3394 1784 3394 
Q 2450 3394 2872 2941 
Q 3294 2488 3294 1666 
Q 3294 1616 3291 1516 
L 816 1516 
Q 847 969 1125 678 
Q 1403 388 1819 388 
Q 2128 388 2347 550 
Q 2566 713 2694 1069 
z
M 847 1978 
L 2700 1978 
Q 2663 2397 2488 2606 
Q 2219 2931 1791 2931 
Q 1403 2931 1139 2672 
Q 875 2413 847 1978 
z
" transform="scale(0.015625)"/>
        <path id="ArialMT-74" d="M 1650 503 
L 1731 6 
Q 1494 -44 1306 -44 
Q 1000 -44 831 53 
Q 663 150 594 308 
Q 525 466 525 972 
L 525 2881 
L 113 2881 
L 113 3319 
L 525 3319 
L 525 4141 
L 1084 4478 
L 1084 3319 
L 1650 3319 
L 1650 2881 
L 1084 2881 
L 1084 941 
Q 1084 700 1114 631 
Q 1144 563 1211 522 
Q 1278 481 1403 481 
Q 1497 481 1650 503 
z
" transform="scale(0.015625)"/>
       </defs>
       <use xlink:href="#ArialMT-61"/>
       <use xlink:href="#ArialMT-63" transform="translate(55.615234 0)"/>
       <use xlink:href="#ArialMT-65" transform="translate(105.615234 0)"/>
       <use xlink:href="#ArialMT-74" transform="translate(161.230469 0)"/>
       <use xlink:href="#ArialMT-61" transform="translate(189.013672 0)"/>
       <use xlink:href="#ArialMT-74" transform="translate(244.628906 0)"/>
       <use xlink:href="#ArialMT-65" transform="translate(272.412109 0)"/>
      </g>
     </g>
    </g>
    <g id="xtick_2">
     <g id="line2d_2">
      <g>
       <use xlink:href="#m8a88c78b86" x="138.104496" y="228.586752" style="fill: #262626; stroke: #262626; stroke-width: 1.25"/>
      </g>
     </g>
     <g id="text_2">
      <!-- acetate &amp; -->
      <g style="fill: #262626" transform="translate(116.980277 242.244564) scale(0.1 -0.1)">
       <defs>
        <path id="ArialMT-20" transform="scale(0.015625)"/>
        <path id="ArialMT-26" d="M 3041 541 
Q 2763 231 2434 76 
Q 2106 -78 1725 -78 
Q 1022 -78 609 397 
Q 275 784 275 1263 
Q 275 1688 548 2030 
Q 822 2372 1366 2631 
Q 1056 2988 953 3209 
Q 850 3431 850 3638 
Q 850 4050 1173 4354 
Q 1497 4659 1988 4659 
Q 2456 4659 2754 4371 
Q 3053 4084 3053 3681 
Q 3053 3028 2188 2566 
L 3009 1519 
Q 3150 1794 3228 2156 
L 3813 2031 
Q 3663 1431 3406 1044 
Q 3722 625 4122 341 
L 3744 -106 
Q 3403 113 3041 541 
z
M 1897 2928 
Q 2263 3144 2370 3306 
Q 2478 3469 2478 3666 
Q 2478 3900 2329 4048 
Q 2181 4197 1959 4197 
Q 1731 4197 1579 4050 
Q 1428 3903 1428 3691 
Q 1428 3584 1483 3467 
Q 1538 3350 1647 3219 
L 1897 2928 
z
M 2688 984 
L 1656 2263 
Q 1200 1991 1040 1758 
Q 881 1525 881 1297 
Q 881 1019 1103 719 
Q 1325 419 1731 419 
Q 1984 419 2254 576 
Q 2525 734 2688 984 
z
" transform="scale(0.015625)"/>
       </defs>
       <use xlink:href="#ArialMT-61"/>
       <use xlink:href="#ArialMT-63" transform="translate(55.615234 0)"/>
       <use xlink:href="#ArialMT-65" transform="translate(105.615234 0)"/>
       <use xlink:href="#ArialMT-74" transform="translate(161.230469 0)"/>
       <use xlink:href="#ArialMT-61" transform="translate(189.013672 0)"/>
       <use xlink:href="#ArialMT-74" transform="translate(244.628906 0)"/>
       <use xlink:href="#ArialMT-65" transform="translate(272.412109 0)"/>
       <use xlink:href="#ArialMT-20" transform="translate(328.027344 0)"/>
       <use xlink:href="#ArialMT-26" transform="translate(355.810547 0)"/>
      </g>
      <!-- glucose-seed -->
      <g style="fill: #262626" transform="translate(108.365433 252.821439) scale(0.1 -0.1)">
       <defs>
        <path id="ArialMT-67" d="M 319 -275 
L 866 -356 
Q 900 -609 1056 -725 
Q 1266 -881 1628 -881 
Q 2019 -881 2231 -725 
Q 2444 -569 2519 -288 
Q 2563 -116 2559 434 
Q 2191 0 1641 0 
Q 956 0 581 494 
Q 206 988 206 1678 
Q 206 2153 378 2554 
Q 550 2956 876 3175 
Q 1203 3394 1644 3394 
Q 2231 3394 2613 2919 
L 2613 3319 
L 3131 3319 
L 3131 450 
Q 3131 -325 2973 -648 
Q 2816 -972 2473 -1159 
Q 2131 -1347 1631 -1347 
Q 1038 -1347 672 -1080 
Q 306 -813 319 -275 
z
M 784 1719 
Q 784 1066 1043 766 
Q 1303 466 1694 466 
Q 2081 466 2343 764 
Q 2606 1063 2606 1700 
Q 2606 2309 2336 2618 
Q 2066 2928 1684 2928 
Q 1309 2928 1046 2623 
Q 784 2319 784 1719 
z
" transform="scale(0.015625)"/>
        <path id="ArialMT-6c" d="M 409 0 
L 409 4581 
L 972 4581 
L 972 0 
L 409 0 
z
" transform="scale(0.015625)"/>
        <path id="ArialMT-75" d="M 2597 0 
L 2597 488 
Q 2209 -75 1544 -75 
Q 1250 -75 995 37 
Q 741 150 617 320 
Q 494 491 444 738 
Q 409 903 409 1263 
L 409 3319 
L 972 3319 
L 972 1478 
Q 972 1038 1006 884 
Q 1059 663 1231 536 
Q 1403 409 1656 409 
Q 1909 409 2131 539 
Q 2353 669 2445 892 
Q 2538 1116 2538 1541 
L 2538 3319 
L 3100 3319 
L 3100 0 
L 2597 0 
z
" transform="scale(0.015625)"/>
        <path id="ArialMT-6f" d="M 213 1659 
Q 213 2581 725 3025 
Q 1153 3394 1769 3394 
Q 2453 3394 2887 2945 
Q 3322 2497 3322 1706 
Q 3322 1066 3130 698 
Q 2938 331 2570 128 
Q 2203 -75 1769 -75 
Q 1072 -75 642 372 
Q 213 819 213 1659 
z
M 791 1659 
Q 791 1022 1069 705 
Q 1347 388 1769 388 
Q 2188 388 2466 706 
Q 2744 1025 2744 1678 
Q 2744 2294 2464 2611 
Q 2184 2928 1769 2928 
Q 1347 2928 1069 2612 
Q 791 2297 791 1659 
z
" transform="scale(0.015625)"/>
        <path id="ArialMT-73" d="M 197 991 
L 753 1078 
Q 800 744 1014 566 
Q 1228 388 1613 388 
Q 2000 388 2187 545 
Q 2375 703 2375 916 
Q 2375 1106 2209 1216 
Q 2094 1291 1634 1406 
Q 1016 1563 777 1677 
Q 538 1791 414 1992 
Q 291 2194 291 2438 
Q 291 2659 392 2848 
Q 494 3038 669 3163 
Q 800 3259 1026 3326 
Q 1253 3394 1513 3394 
Q 1903 3394 2198 3281 
Q 2494 3169 2634 2976 
Q 2775 2784 2828 2463 
L 2278 2388 
Q 2241 2644 2061 2787 
Q 1881 2931 1553 2931 
Q 1166 2931 1000 2803 
Q 834 2675 834 2503 
Q 834 2394 903 2306 
Q 972 2216 1119 2156 
Q 1203 2125 1616 2013 
Q 2213 1853 2448 1751 
Q 2684 1650 2818 1456 
Q 2953 1263 2953 975 
Q 2953 694 2789 445 
Q 2625 197 2315 61 
Q 2006 -75 1616 -75 
Q 969 -75 630 194 
Q 291 463 197 991 
z
" transform="scale(0.015625)"/>
        <path id="ArialMT-2d" d="M 203 1375 
L 203 1941 
L 1931 1941 
L 1931 1375 
L 203 1375 
z
" transform="scale(0.015625)"/>
        <path id="ArialMT-64" d="M 2575 0 
L 2575 419 
Q 2259 -75 1647 -75 
Q 1250 -75 917 144 
Q 584 363 401 755 
Q 219 1147 219 1656 
Q 219 2153 384 2558 
Q 550 2963 881 3178 
Q 1213 3394 1622 3394 
Q 1922 3394 2156 3267 
Q 2391 3141 2538 2938 
L 2538 4581 
L 3097 4581 
L 3097 0 
L 2575 0 
z
M 797 1656 
Q 797 1019 1065 703 
Q 1334 388 1700 388 
Q 2069 388 2326 689 
Q 2584 991 2584 1609 
Q 2584 2291 2321 2609 
Q 2059 2928 1675 2928 
Q 1300 2928 1048 2622 
Q 797 2316 797 1656 
z
" transform="scale(0.015625)"/>
       </defs>
       <use xlink:href="#ArialMT-67"/>
       <use xlink:href="#ArialMT-6c" transform="translate(55.615234 0)"/>
       <use xlink:href="#ArialMT-75" transform="translate(77.832031 0)"/>
       <use xlink:href="#ArialMT-63" transform="translate(133.447266 0)"/>
       <use xlink:href="#ArialMT-6f" transform="translate(183.447266 0)"/>
       <use xlink:href="#ArialMT-73" transform="translate(239.0625 0)"/>
       <use xlink:href="#ArialMT-65" transform="translate(289.0625 0)"/>
       <use xlink:href="#ArialMT-2d" transform="translate(344.677734 0)"/>
       <use xlink:href="#ArialMT-73" transform="translate(377.978516 0)"/>
       <use xlink:href="#ArialMT-65" transform="translate(427.978516 0)"/>
       <use xlink:href="#ArialMT-65" transform="translate(483.59375 0)"/>
       <use xlink:href="#ArialMT-64" transform="translate(539.208984 0)"/>
      </g>
     </g>
    </g>
    <g id="xtick_3">
     <g id="line2d_3">
      <g>
       <use xlink:href="#m8a88c78b86" x="190.48896" y="228.586752" style="fill: #262626; stroke: #262626; stroke-width: 1.25"/>
      </g>
     </g>
     <g id="text_3">
      <!-- glucose -->
      <g style="fill: #262626" transform="translate(173.256147 242.244564) scale(0.1 -0.1)">
       <use xlink:href="#ArialMT-67"/>
       <use xlink:href="#ArialMT-6c" transform="translate(55.615234 0)"/>
       <use xlink:href="#ArialMT-75" transform="translate(77.832031 0)"/>
       <use xlink:href="#ArialMT-63" transform="translate(133.447266 0)"/>
       <use xlink:href="#ArialMT-6f" transform="translate(183.447266 0)"/>
       <use xlink:href="#ArialMT-73" transform="translate(239.0625 0)"/>
       <use xlink:href="#ArialMT-65" transform="translate(289.0625 0)"/>
      </g>
     </g>
    </g>
   </g>
   <g id="matplotlib.axis_2">
    <g id="ytick_1">
     <g id="line2d_4">
      <defs>
       <path id="m6443301b41" d="M 3 0 
L -3 -0 
" style="stroke: #262626; stroke-width: 1.25"/>
      </defs>
      <g>
       <use xlink:href="#m6443301b41" x="59.5278" y="228.586752" style="fill: #262626; stroke: #262626; stroke-width: 1.25"/>
      </g>
     </g>
     <g id="text_4">
      <!-- 0 -->
      <g style="fill: #262626" transform="translate(47.466862 232.165658) scale(0.1 -0.1)">
       <defs>
        <path id="ArialMT-30" d="M 266 2259 
Q 266 3072 433 3567 
Q 600 4063 929 4331 
Q 1259 4600 1759 4600 
Q 2128 4600 2406 4451 
Q 2684 4303 2865 4023 
Q 3047 3744 3150 3342 
Q 3253 2941 3253 2259 
Q 3253 1453 3087 958 
Q 2922 463 2592 192 
Q 2263 -78 1759 -78 
Q 1097 -78 719 397 
Q 266 969 266 2259 
z
M 844 2259 
Q 844 1131 1108 757 
Q 1372 384 1759 384 
Q 2147 384 2411 759 
Q 2675 1134 2675 2259 
Q 2675 3391 2411 3762 
Q 2147 4134 1753 4134 
Q 1366 4134 1134 3806 
Q 844 3388 844 2259 
z
" transform="scale(0.015625)"/>
       </defs>
       <use xlink:href="#ArialMT-30"/>
      </g>
     </g>
    </g>
    <g id="ytick_2">
     <g id="line2d_5">
      <g>
       <use xlink:href="#m6443301b41" x="59.5278" y="183.843801" style="fill: #262626; stroke: #262626; stroke-width: 1.25"/>
      </g>
     </g>
     <g id="text_5">
      <!-- 100 -->
      <g style="fill: #262626" transform="translate(36.344988 187.422707) scale(0.1 -0.1)">
       <defs>
        <path id="ArialMT-31" d="M 2384 0 
L 1822 0 
L 1822 3584 
Q 1619 3391 1289 3197 
Q 959 3003 697 2906 
L 697 3450 
Q 1169 3672 1522 3987 
Q 1875 4303 2022 4600 
L 2384 4600 
L 2384 0 
z
" transform="scale(0.015625)"/>
       </defs>
       <use xlink:href="#ArialMT-31"/>
       <use xlink:href="#ArialMT-30" transform="translate(55.615234 0)"/>
       <use xlink:href="#ArialMT-30" transform="translate(111.230469 0)"/>
      </g>
     </g>
    </g>
    <g id="ytick_3">
     <g id="line2d_6">
      <g>
       <use xlink:href="#m6443301b41" x="59.5278" y="139.10085" style="fill: #262626; stroke: #262626; stroke-width: 1.25"/>
      </g>
     </g>
     <g id="text_6">
      <!-- 200 -->
      <g style="fill: #262626" transform="translate(36.344988 142.679756) scale(0.1 -0.1)">
       <defs>
        <path id="ArialMT-32" d="M 3222 541 
L 3222 0 
L 194 0 
Q 188 203 259 391 
Q 375 700 629 1000 
Q 884 1300 1366 1694 
Q 2113 2306 2375 2664 
Q 2638 3022 2638 3341 
Q 2638 3675 2398 3904 
Q 2159 4134 1775 4134 
Q 1369 4134 1125 3890 
Q 881 3647 878 3216 
L 300 3275 
Q 359 3922 746 4261 
Q 1134 4600 1788 4600 
Q 2447 4600 2831 4234 
Q 3216 3869 3216 3328 
Q 3216 3053 3103 2787 
Q 2991 2522 2730 2228 
Q 2469 1934 1863 1422 
Q 1356 997 1212 845 
Q 1069 694 975 541 
L 3222 541 
z
" transform="scale(0.015625)"/>
       </defs>
       <use xlink:href="#ArialMT-32"/>
       <use xlink:href="#ArialMT-30" transform="translate(55.615234 0)"/>
       <use xlink:href="#ArialMT-30" transform="translate(111.230469 0)"/>
      </g>
     </g>
    </g>
    <g id="ytick_4">
     <g id="line2d_7">
      <g>
       <use xlink:href="#m6443301b41" x="59.5278" y="94.357899" style="fill: #262626; stroke: #262626; stroke-width: 1.25"/>
      </g>
     </g>
     <g id="text_7">
      <!-- 300 -->
      <g style="fill: #262626" transform="translate(36.344988 97.936805) scale(0.1 -0.1)">
       <defs>
        <path id="ArialMT-33" d="M 269 1209 
L 831 1284 
Q 928 806 1161 595 
Q 1394 384 1728 384 
Q 2125 384 2398 659 
Q 2672 934 2672 1341 
Q 2672 1728 2419 1979 
Q 2166 2231 1775 2231 
Q 1616 2231 1378 2169 
L 1441 2663 
Q 1497 2656 1531 2656 
Q 1891 2656 2178 2843 
Q 2466 3031 2466 3422 
Q 2466 3731 2256 3934 
Q 2047 4138 1716 4138 
Q 1388 4138 1169 3931 
Q 950 3725 888 3313 
L 325 3413 
Q 428 3978 793 4289 
Q 1159 4600 1703 4600 
Q 2078 4600 2393 4439 
Q 2709 4278 2876 4000 
Q 3044 3722 3044 3409 
Q 3044 3113 2884 2869 
Q 2725 2625 2413 2481 
Q 2819 2388 3044 2092 
Q 3269 1797 3269 1353 
Q 3269 753 2831 336 
Q 2394 -81 1725 -81 
Q 1122 -81 723 278 
Q 325 638 269 1209 
z
" transform="scale(0.015625)"/>
       </defs>
       <use xlink:href="#ArialMT-33"/>
       <use xlink:href="#ArialMT-30" transform="translate(55.615234 0)"/>
       <use xlink:href="#ArialMT-30" transform="translate(111.230469 0)"/>
      </g>
     </g>
    </g>
    <g id="ytick_5">
     <g id="line2d_8">
      <g>
       <use xlink:href="#m6443301b41" x="59.5278" y="49.614948" style="fill: #262626; stroke: #262626; stroke-width: 1.25"/>
      </g>
     </g>
     <g id="text_8">
      <!-- 400 -->
      <g style="fill: #262626" transform="translate(36.344988 53.193854) scale(0.1 -0.1)">
       <defs>
        <path id="ArialMT-34" d="M 2069 0 
L 2069 1097 
L 81 1097 
L 81 1613 
L 2172 4581 
L 2631 4581 
L 2631 1613 
L 3250 1613 
L 3250 1097 
L 2631 1097 
L 2631 0 
L 2069 0 
z
M 2069 1613 
L 2069 3678 
L 634 1613 
L 2069 1613 
z
" transform="scale(0.015625)"/>
       </defs>
       <use xlink:href="#ArialMT-34"/>
       <use xlink:href="#ArialMT-30" transform="translate(55.615234 0)"/>
       <use xlink:href="#ArialMT-30" transform="translate(111.230469 0)"/>
      </g>
     </g>
    </g>
    <g id="text_9">
     <!-- CAPEX [$10^6\cdot$USD] -->
     <g style="fill: #262626" transform="translate(30.344987 165.436712) rotate(-90) scale(0.1 -0.1)">
      <defs>
       <path id="ArialMT-43" d="M 3763 1606 
L 4369 1453 
Q 4178 706 3683 314 
Q 3188 -78 2472 -78 
Q 1731 -78 1267 223 
Q 803 525 561 1097 
Q 319 1669 319 2325 
Q 319 3041 592 3573 
Q 866 4106 1370 4382 
Q 1875 4659 2481 4659 
Q 3169 4659 3637 4309 
Q 4106 3959 4291 3325 
L 3694 3184 
Q 3534 3684 3231 3912 
Q 2928 4141 2469 4141 
Q 1941 4141 1586 3887 
Q 1231 3634 1087 3207 
Q 944 2781 944 2328 
Q 944 1744 1114 1308 
Q 1284 872 1643 656 
Q 2003 441 2422 441 
Q 2931 441 3284 734 
Q 3638 1028 3763 1606 
z
" transform="scale(0.015625)"/>
       <path id="ArialMT-41" d="M -9 0 
L 1750 4581 
L 2403 4581 
L 4278 0 
L 3588 0 
L 3053 1388 
L 1138 1388 
L 634 0 
L -9 0 
z
M 1313 1881 
L 2866 1881 
L 2388 3150 
Q 2169 3728 2063 4100 
Q 1975 3659 1816 3225 
L 1313 1881 
z
" transform="scale(0.015625)"/>
       <path id="ArialMT-50" d="M 494 0 
L 494 4581 
L 2222 4581 
Q 2678 4581 2919 4538 
Q 3256 4481 3484 4323 
Q 3713 4166 3852 3881 
Q 3991 3597 3991 3256 
Q 3991 2672 3619 2267 
Q 3247 1863 2275 1863 
L 1100 1863 
L 1100 0 
L 494 0 
z
M 1100 2403 
L 2284 2403 
Q 2872 2403 3119 2622 
Q 3366 2841 3366 3238 
Q 3366 3525 3220 3729 
Q 3075 3934 2838 4000 
Q 2684 4041 2272 4041 
L 1100 4041 
L 1100 2403 
z
" transform="scale(0.015625)"/>
       <path id="ArialMT-45" d="M 506 0 
L 506 4581 
L 3819 4581 
L 3819 4041 
L 1113 4041 
L 1113 2638 
L 3647 2638 
L 3647 2100 
L 1113 2100 
L 1113 541 
L 3925 541 
L 3925 0 
L 506 0 
z
" transform="scale(0.015625)"/>
       <path id="ArialMT-58" d="M 28 0 
L 1800 2388 
L 238 4581 
L 959 4581 
L 1791 3406 
Q 2050 3041 2159 2844 
Q 2313 3094 2522 3366 
L 3444 4581 
L 4103 4581 
L 2494 2422 
L 4228 0 
L 3478 0 
L 2325 1634 
Q 2228 1775 2125 1941 
Q 1972 1691 1906 1597 
L 756 0 
L 28 0 
z
" transform="scale(0.015625)"/>
       <path id="ArialMT-5b" d="M 434 -1272 
L 434 4581 
L 1675 4581 
L 1675 4116 
L 997 4116 
L 997 -806 
L 1675 -806 
L 1675 -1272 
L 434 -1272 
z
" transform="scale(0.015625)"/>
       <path id="DejaVuSans-31" d="M 794 531 
L 1825 531 
L 1825 4091 
L 703 3866 
L 703 4441 
L 1819 4666 
L 2450 4666 
L 2450 531 
L 3481 531 
L 3481 0 
L 794 0 
L 794 531 
z
" transform="scale(0.015625)"/>
       <path id="DejaVuSans-30" d="M 2034 4250 
Q 1547 4250 1301 3770 
Q 1056 3291 1056 2328 
Q 1056 1369 1301 889 
Q 1547 409 2034 409 
Q 2525 409 2770 889 
Q 3016 1369 3016 2328 
Q 3016 3291 2770 3770 
Q 2525 4250 2034 4250 
z
M 2034 4750 
Q 2819 4750 3233 4129 
Q 3647 3509 3647 2328 
Q 3647 1150 3233 529 
Q 2819 -91 2034 -91 
Q 1250 -91 836 529 
Q 422 1150 422 2328 
Q 422 3509 836 4129 
Q 1250 4750 2034 4750 
z
" transform="scale(0.015625)"/>
       <path id="DejaVuSans-36" d="M 2113 2584 
Q 1688 2584 1439 2293 
Q 1191 2003 1191 1497 
Q 1191 994 1439 701 
Q 1688 409 2113 409 
Q 2538 409 2786 701 
Q 3034 994 3034 1497 
Q 3034 2003 2786 2293 
Q 2538 2584 2113 2584 
z
M 3366 4563 
L 3366 3988 
Q 3128 4100 2886 4159 
Q 2644 4219 2406 4219 
Q 1781 4219 1451 3797 
Q 1122 3375 1075 2522 
Q 1259 2794 1537 2939 
Q 1816 3084 2150 3084 
Q 2853 3084 3261 2657 
Q 3669 2231 3669 1497 
Q 3669 778 3244 343 
Q 2819 -91 2113 -91 
Q 1303 -91 875 529 
Q 447 1150 447 2328 
Q 447 3434 972 4092 
Q 1497 4750 2381 4750 
Q 2619 4750 2861 4703 
Q 3103 4656 3366 4563 
z
" transform="scale(0.015625)"/>
       <path id="DejaVuSans-22c5" d="M 684 2619 
L 1344 2619 
L 1344 1825 
L 684 1825 
L 684 2619 
z
" transform="scale(0.015625)"/>
       <path id="ArialMT-55" d="M 3500 4581 
L 4106 4581 
L 4106 1934 
Q 4106 1244 3950 837 
Q 3794 431 3386 176 
Q 2978 -78 2316 -78 
Q 1672 -78 1262 144 
Q 853 366 678 786 
Q 503 1206 503 1934 
L 503 4581 
L 1109 4581 
L 1109 1938 
Q 1109 1341 1220 1058 
Q 1331 775 1601 622 
Q 1872 469 2263 469 
Q 2931 469 3215 772 
Q 3500 1075 3500 1938 
L 3500 4581 
z
" transform="scale(0.015625)"/>
       <path id="ArialMT-53" d="M 288 1472 
L 859 1522 
Q 900 1178 1048 958 
Q 1197 738 1509 602 
Q 1822 466 2213 466 
Q 2559 466 2825 569 
Q 3091 672 3220 851 
Q 3350 1031 3350 1244 
Q 3350 1459 3225 1620 
Q 3100 1781 2813 1891 
Q 2628 1963 1997 2114 
Q 1366 2266 1113 2400 
Q 784 2572 623 2826 
Q 463 3081 463 3397 
Q 463 3744 659 4045 
Q 856 4347 1234 4503 
Q 1613 4659 2075 4659 
Q 2584 4659 2973 4495 
Q 3363 4331 3572 4012 
Q 3781 3694 3797 3291 
L 3216 3247 
Q 3169 3681 2898 3903 
Q 2628 4125 2100 4125 
Q 1550 4125 1298 3923 
Q 1047 3722 1047 3438 
Q 1047 3191 1225 3031 
Q 1400 2872 2139 2705 
Q 2878 2538 3153 2413 
Q 3553 2228 3743 1945 
Q 3934 1663 3934 1294 
Q 3934 928 3725 604 
Q 3516 281 3123 101 
Q 2731 -78 2241 -78 
Q 1619 -78 1198 103 
Q 778 284 539 648 
Q 300 1013 288 1472 
z
" transform="scale(0.015625)"/>
       <path id="ArialMT-44" d="M 494 0 
L 494 4581 
L 2072 4581 
Q 2606 4581 2888 4516 
Q 3281 4425 3559 4188 
Q 3922 3881 4101 3404 
Q 4281 2928 4281 2316 
Q 4281 1794 4159 1391 
Q 4038 988 3847 723 
Q 3656 459 3429 307 
Q 3203 156 2883 78 
Q 2563 0 2147 0 
L 494 0 
z
M 1100 541 
L 2078 541 
Q 2531 541 2789 625 
Q 3047 709 3200 863 
Q 3416 1078 3536 1442 
Q 3656 1806 3656 2325 
Q 3656 3044 3420 3430 
Q 3184 3816 2847 3947 
Q 2603 4041 2063 4041 
L 1100 4041 
L 1100 541 
z
" transform="scale(0.015625)"/>
       <path id="ArialMT-5d" d="M 1363 -1272 
L 122 -1272 
L 122 -806 
L 800 -806 
L 800 4116 
L 122 4116 
L 122 4581 
L 1363 4581 
L 1363 -1272 
z
" transform="scale(0.015625)"/>
      </defs>
      <use xlink:href="#ArialMT-43" transform="translate(0 0.765625)"/>
      <use xlink:href="#ArialMT-41" transform="translate(72.216797 0.765625)"/>
      <use xlink:href="#ArialMT-50" transform="translate(138.916016 0.765625)"/>
      <use xlink:href="#ArialMT-45" transform="translate(205.615234 0.765625)"/>
      <use xlink:href="#ArialMT-58" transform="translate(272.314453 0.765625)"/>
      <use xlink:href="#ArialMT-20" transform="translate(339.013672 0.765625)"/>
      <use xlink:href="#ArialMT-5b" transform="translate(366.796875 0.765625)"/>
      <use xlink:href="#DejaVuSans-31" transform="translate(394.580078 0.765625)"/>
      <use xlink:href="#DejaVuSans-30" transform="translate(458.203125 0.765625)"/>
      <use xlink:href="#DejaVuSans-36" transform="translate(522.783203 39.046875) scale(0.7)"/>
      <use xlink:href="#DejaVuSans-22c5" transform="translate(589.536133 0.765625)"/>
      <use xlink:href="#ArialMT-55" transform="translate(640.805664 0.765625)"/>
      <use xlink:href="#ArialMT-53" transform="translate(713.022461 0.765625)"/>
      <use xlink:href="#ArialMT-44" transform="translate(779.72168 0.765625)"/>
      <use xlink:href="#ArialMT-5d" transform="translate(851.938477 0.765625)"/>
     </g>
    </g>
   </g>
   <g id="patch_3">
    <path d="M 72.623916 228.586752 
L 98.816148 228.586752 
L 98.816148 187.48541 
L 72.623916 187.48541 
z
" clip-path="url(#pe4d9dae742)" style="fill: #4c72b0; stroke: #ffffff; stroke-linejoin: miter"/>
   </g>
   <g id="patch_4">
    <path d="M 125.00838 228.586752 
L 151.200612 228.586752 
L 151.200612 145.976744 
L 125.00838 145.976744 
z
" clip-path="url(#pe4d9dae742)" style="fill: #4c72b0; stroke: #ffffff; stroke-linejoin: miter"/>
   </g>
   <g id="patch_5">
    <path d="M 177.392844 228.586752 
L 203.585076 228.586752 
L 203.585076 186.230863 
L 177.392844 186.230863 
z
" clip-path="url(#pe4d9dae742)" style="fill: #4c72b0; stroke: #ffffff; stroke-linejoin: miter"/>
   </g>
   <g id="patch_6">
    <path d="M 72.623916 187.48541 
L 98.816148 187.48541 
L 98.816148 169.660767 
L 72.623916 169.660767 
z
" clip-path="url(#pe4d9dae742)" style="fill: #dd8452; stroke: #ffffff; stroke-linejoin: miter"/>
   </g>
   <g id="patch_7">
    <path d="M 125.00838 145.976744 
L 151.200612 145.976744 
L 151.200612 112.314304 
L 125.00838 112.314304 
z
" clip-path="url(#pe4d9dae742)" style="fill: #dd8452; stroke: #ffffff; stroke-linejoin: miter"/>
   </g>
   <g id="patch_8">
    <path d="M 177.392844 186.230863 
L 203.585076 186.230863 
L 203.585076 157.259821 
L 177.392844 157.259821 
z
" clip-path="url(#pe4d9dae742)" style="fill: #dd8452; stroke: #ffffff; stroke-linejoin: miter"/>
   </g>
   <g id="patch_9">
    <path d="M 72.623916 169.660767 
L 98.816148 169.660767 
L 98.816148 155.835292 
L 72.623916 155.835292 
z
" clip-path="url(#pe4d9dae742)" style="fill: #55a868; stroke: #ffffff; stroke-linejoin: miter"/>
   </g>
   <g id="patch_10">
    <path d="M 125.00838 112.314304 
L 151.200612 112.314304 
L 151.200612 80.8687 
L 125.00838 80.8687 
z
" clip-path="url(#pe4d9dae742)" style="fill: #55a868; stroke: #ffffff; stroke-linejoin: miter"/>
   </g>
   <g id="patch_11">
    <path d="M 177.392844 157.259821 
L 203.585076 157.259821 
L 203.585076 131.016228 
L 177.392844 131.016228 
z
" clip-path="url(#pe4d9dae742)" style="fill: #55a868; stroke: #ffffff; stroke-linejoin: miter"/>
   </g>
   <g id="patch_12">
    <path d="M 72.623916 155.835292 
L 98.816148 155.835292 
L 98.816148 148.262205 
L 72.623916 148.262205 
z
" clip-path="url(#pe4d9dae742)" style="fill: #c44e52; stroke: #ffffff; stroke-linejoin: miter"/>
   </g>
   <g id="patch_13">
    <path d="M 125.00838 80.8687 
L 151.200612 80.8687 
L 151.200612 65.334024 
L 125.00838 65.334024 
z
" clip-path="url(#pe4d9dae742)" style="fill: #c44e52; stroke: #ffffff; stroke-linejoin: miter"/>
   </g>
   <g id="patch_14">
    <path d="M 177.392844 131.016228 
L 203.585076 131.016228 
L 203.585076 123.942791 
L 177.392844 123.942791 
z
" clip-path="url(#pe4d9dae742)" style="fill: #c44e52; stroke: #ffffff; stroke-linejoin: miter"/>
   </g>
   <g id="patch_15">
    <path d="M 72.623916 148.262205 
L 98.816148 148.262205 
L 98.816148 127.042259 
L 72.623916 127.042259 
z
" clip-path="url(#pe4d9dae742)" style="fill: #8172b3; stroke: #ffffff; stroke-linejoin: miter"/>
   </g>
   <g id="patch_16">
    <path d="M 125.00838 65.334024 
L 151.200612 65.334024 
L 151.200612 24.491438 
L 125.00838 24.491438 
z
" clip-path="url(#pe4d9dae742)" style="fill: #8172b3; stroke: #ffffff; stroke-linejoin: miter"/>
   </g>
   <g id="patch_17">
    <path d="M 177.392844 228.586752 
L 203.585076 228.586752 
L 203.585076 228.586752 
L 177.392844 228.586752 
z
" clip-path="url(#pe4d9dae742)" style="fill: #8172b3; stroke: #ffffff; stroke-linejoin: miter"/>
   </g>
   <g id="patch_18">
    <path d="M 59.5278 228.586752 
L 59.5278 14.286672 
" style="fill: none; stroke: #262626; stroke-width: 1.25; stroke-linejoin: miter; stroke-linecap: square"/>
   </g>
   <g id="patch_19">
    <path d="M 59.5278 228.586752 
L 216.681192 228.586752 
" style="fill: none; stroke: #262626; stroke-width: 1.25; stroke-linejoin: miter; stroke-linecap: square"/>
   </g>
  </g>
  <g id="axes_2">
   <g id="patch_20">
    <path d="M 295.257888 228.586752 
L 452.41128 228.586752 
L 452.41128 14.286672 
L 295.257888 14.286672 
L 295.257888 228.586752 
z
" style="fill: none"/>
   </g>
   <g id="matplotlib.axis_3">
    <g id="xtick_4">
     <g id="line2d_9">
      <g>
       <use xlink:href="#m8a88c78b86" x="321.45012" y="228.586752" style="fill: #262626; stroke: #262626; stroke-width: 1.25"/>
      </g>
     </g>
     <g id="text_10">
      <!-- acetate -->
      <g style="fill: #262626" transform="translate(305.05012 242.244564) scale(0.1 -0.1)">
       <use xlink:href="#ArialMT-61"/>
       <use xlink:href="#ArialMT-63" transform="translate(55.615234 0)"/>
       <use xlink:href="#ArialMT-65" transform="translate(105.615234 0)"/>
       <use xlink:href="#ArialMT-74" transform="translate(161.230469 0)"/>
       <use xlink:href="#ArialMT-61" transform="translate(189.013672 0)"/>
       <use xlink:href="#ArialMT-74" transform="translate(244.628906 0)"/>
       <use xlink:href="#ArialMT-65" transform="translate(272.412109 0)"/>
      </g>
     </g>
    </g>
    <g id="xtick_5">
     <g id="line2d_10">
      <g>
       <use xlink:href="#m8a88c78b86" x="373.834584" y="228.586752" style="fill: #262626; stroke: #262626; stroke-width: 1.25"/>
      </g>
     </g>
     <g id="text_11">
      <!-- acetate &amp; -->
      <g style="fill: #262626" transform="translate(352.710365 242.244564) scale(0.1 -0.1)">
       <use xlink:href="#ArialMT-61"/>
       <use xlink:href="#ArialMT-63" transform="translate(55.615234 0)"/>
       <use xlink:href="#ArialMT-65" transform="translate(105.615234 0)"/>
       <use xlink:href="#ArialMT-74" transform="translate(161.230469 0)"/>
       <use xlink:href="#ArialMT-61" transform="translate(189.013672 0)"/>
       <use xlink:href="#ArialMT-74" transform="translate(244.628906 0)"/>
       <use xlink:href="#ArialMT-65" transform="translate(272.412109 0)"/>
       <use xlink:href="#ArialMT-20" transform="translate(328.027344 0)"/>
       <use xlink:href="#ArialMT-26" transform="translate(355.810547 0)"/>
      </g>
      <!-- glucose-seed -->
      <g style="fill: #262626" transform="translate(344.095521 252.821439) scale(0.1 -0.1)">
       <use xlink:href="#ArialMT-67"/>
       <use xlink:href="#ArialMT-6c" transform="translate(55.615234 0)"/>
       <use xlink:href="#ArialMT-75" transform="translate(77.832031 0)"/>
       <use xlink:href="#ArialMT-63" transform="translate(133.447266 0)"/>
       <use xlink:href="#ArialMT-6f" transform="translate(183.447266 0)"/>
       <use xlink:href="#ArialMT-73" transform="translate(239.0625 0)"/>
       <use xlink:href="#ArialMT-65" transform="translate(289.0625 0)"/>
       <use xlink:href="#ArialMT-2d" transform="translate(344.677734 0)"/>
       <use xlink:href="#ArialMT-73" transform="translate(377.978516 0)"/>
       <use xlink:href="#ArialMT-65" transform="translate(427.978516 0)"/>
       <use xlink:href="#ArialMT-65" transform="translate(483.59375 0)"/>
       <use xlink:href="#ArialMT-64" transform="translate(539.208984 0)"/>
      </g>
     </g>
    </g>
    <g id="xtick_6">
     <g id="line2d_11">
      <g>
       <use xlink:href="#m8a88c78b86" x="426.219048" y="228.586752" style="fill: #262626; stroke: #262626; stroke-width: 1.25"/>
      </g>
     </g>
     <g id="text_12">
      <!-- glucose -->
      <g style="fill: #262626" transform="translate(408.986235 242.244564) scale(0.1 -0.1)">
       <use xlink:href="#ArialMT-67"/>
       <use xlink:href="#ArialMT-6c" transform="translate(55.615234 0)"/>
       <use xlink:href="#ArialMT-75" transform="translate(77.832031 0)"/>
       <use xlink:href="#ArialMT-63" transform="translate(133.447266 0)"/>
       <use xlink:href="#ArialMT-6f" transform="translate(183.447266 0)"/>
       <use xlink:href="#ArialMT-73" transform="translate(239.0625 0)"/>
       <use xlink:href="#ArialMT-65" transform="translate(289.0625 0)"/>
      </g>
     </g>
    </g>
   </g>
   <g id="matplotlib.axis_4">
    <g id="ytick_6">
     <g id="line2d_12">
      <g>
       <use xlink:href="#m6443301b41" x="295.257888" y="218.713024" style="fill: #262626; stroke: #262626; stroke-width: 1.25"/>
      </g>
     </g>
     <g id="text_13">
      <!-- −200 -->
      <g style="fill: #262626" transform="translate(266.23445 222.29193) scale(0.1 -0.1)">
       <defs>
        <path id="ArialMT-2212" d="M 3381 1997 
L 356 1997 
L 356 2522 
L 3381 2522 
L 3381 1997 
z
" transform="scale(0.015625)"/>
       </defs>
       <use xlink:href="#ArialMT-2212"/>
       <use xlink:href="#ArialMT-32" transform="translate(58.398438 0)"/>
       <use xlink:href="#ArialMT-30" transform="translate(114.013672 0)"/>
       <use xlink:href="#ArialMT-30" transform="translate(169.628906 0)"/>
      </g>
     </g>
    </g>
    <g id="ytick_7">
     <g id="line2d_13">
      <g>
       <use xlink:href="#m6443301b41" x="295.257888" y="193.172487" style="fill: #262626; stroke: #262626; stroke-width: 1.25"/>
      </g>
     </g>
     <g id="text_14">
      <!-- −150 -->
      <g style="fill: #262626" transform="translate(266.23445 196.751393) scale(0.1 -0.1)">
       <defs>
        <path id="ArialMT-35" d="M 266 1200 
L 856 1250 
Q 922 819 1161 601 
Q 1400 384 1738 384 
Q 2144 384 2425 690 
Q 2706 997 2706 1503 
Q 2706 1984 2436 2262 
Q 2166 2541 1728 2541 
Q 1456 2541 1237 2417 
Q 1019 2294 894 2097 
L 366 2166 
L 809 4519 
L 3088 4519 
L 3088 3981 
L 1259 3981 
L 1013 2750 
Q 1425 3038 1878 3038 
Q 2478 3038 2890 2622 
Q 3303 2206 3303 1553 
Q 3303 931 2941 478 
Q 2500 -78 1738 -78 
Q 1113 -78 717 272 
Q 322 622 266 1200 
z
" transform="scale(0.015625)"/>
       </defs>
       <use xlink:href="#ArialMT-2212"/>
       <use xlink:href="#ArialMT-31" transform="translate(58.398438 0)"/>
       <use xlink:href="#ArialMT-35" transform="translate(114.013672 0)"/>
       <use xlink:href="#ArialMT-30" transform="translate(169.628906 0)"/>
      </g>
     </g>
    </g>
    <g id="ytick_8">
     <g id="line2d_14">
      <g>
       <use xlink:href="#m6443301b41" x="295.257888" y="167.63195" style="fill: #262626; stroke: #262626; stroke-width: 1.25"/>
      </g>
     </g>
     <g id="text_15">
      <!-- −100 -->
      <g style="fill: #262626" transform="translate(266.23445 171.210856) scale(0.1 -0.1)">
       <use xlink:href="#ArialMT-2212"/>
       <use xlink:href="#ArialMT-31" transform="translate(58.398438 0)"/>
       <use xlink:href="#ArialMT-30" transform="translate(114.013672 0)"/>
       <use xlink:href="#ArialMT-30" transform="translate(169.628906 0)"/>
      </g>
     </g>
    </g>
    <g id="ytick_9">
     <g id="line2d_15">
      <g>
       <use xlink:href="#m6443301b41" x="295.257888" y="142.091413" style="fill: #262626; stroke: #262626; stroke-width: 1.25"/>
      </g>
     </g>
     <g id="text_16">
      <!-- −50 -->
      <g style="fill: #262626" transform="translate(271.795388 145.670319) scale(0.1 -0.1)">
       <use xlink:href="#ArialMT-2212"/>
       <use xlink:href="#ArialMT-35" transform="translate(58.398438 0)"/>
       <use xlink:href="#ArialMT-30" transform="translate(114.013672 0)"/>
      </g>
     </g>
    </g>
    <g id="ytick_10">
     <g id="line2d_16">
      <g>
       <use xlink:href="#m6443301b41" x="295.257888" y="116.550876" style="fill: #262626; stroke: #262626; stroke-width: 1.25"/>
      </g>
     </g>
     <g id="text_17">
      <!-- 0 -->
      <g style="fill: #262626" transform="translate(283.19695 120.129783) scale(0.1 -0.1)">
       <use xlink:href="#ArialMT-30"/>
      </g>
     </g>
    </g>
    <g id="ytick_11">
     <g id="line2d_17">
      <g>
       <use xlink:href="#m6443301b41" x="295.257888" y="91.010339" style="fill: #262626; stroke: #262626; stroke-width: 1.25"/>
      </g>
     </g>
     <g id="text_18">
      <!-- 50 -->
      <g style="fill: #262626" transform="translate(277.636013 94.589246) scale(0.1 -0.1)">
       <use xlink:href="#ArialMT-35"/>
       <use xlink:href="#ArialMT-30" transform="translate(55.615234 0)"/>
      </g>
     </g>
    </g>
    <g id="ytick_12">
     <g id="line2d_18">
      <g>
       <use xlink:href="#m6443301b41" x="295.257888" y="65.469803" style="fill: #262626; stroke: #262626; stroke-width: 1.25"/>
      </g>
     </g>
     <g id="text_19">
      <!-- 100 -->
      <g style="fill: #262626" transform="translate(272.075075 69.048709) scale(0.1 -0.1)">
       <use xlink:href="#ArialMT-31"/>
       <use xlink:href="#ArialMT-30" transform="translate(55.615234 0)"/>
       <use xlink:href="#ArialMT-30" transform="translate(111.230469 0)"/>
      </g>
     </g>
    </g>
    <g id="ytick_13">
     <g id="line2d_19">
      <g>
       <use xlink:href="#m6443301b41" x="295.257888" y="39.929266" style="fill: #262626; stroke: #262626; stroke-width: 1.25"/>
      </g>
     </g>
     <g id="text_20">
      <!-- 150 -->
      <g style="fill: #262626" transform="translate(272.075075 43.508172) scale(0.1 -0.1)">
       <use xlink:href="#ArialMT-31"/>
       <use xlink:href="#ArialMT-35" transform="translate(55.615234 0)"/>
       <use xlink:href="#ArialMT-30" transform="translate(111.230469 0)"/>
      </g>
     </g>
    </g>
    <g id="ytick_14">
     <g id="line2d_20">
      <g>
       <use xlink:href="#m6443301b41" x="295.257888" y="14.388729" style="fill: #262626; stroke: #262626; stroke-width: 1.25"/>
      </g>
     </g>
     <g id="text_21">
      <!-- 200 -->
      <g style="fill: #262626" transform="translate(272.075075 17.967635) scale(0.1 -0.1)">
       <use xlink:href="#ArialMT-32"/>
       <use xlink:href="#ArialMT-30" transform="translate(55.615234 0)"/>
       <use xlink:href="#ArialMT-30" transform="translate(111.230469 0)"/>
      </g>
     </g>
    </g>
    <g id="text_22">
     <!-- OPEX &amp; Revenue [$10^6\cdot$USD$\cdot$yr$^{-1}$] -->
     <g style="fill: #262626" transform="translate(260.03445 199.636712) rotate(-90) scale(0.1 -0.1)">
      <defs>
       <path id="ArialMT-4f" d="M 309 2231 
Q 309 3372 921 4017 
Q 1534 4663 2503 4663 
Q 3138 4663 3647 4359 
Q 4156 4056 4423 3514 
Q 4691 2972 4691 2284 
Q 4691 1588 4409 1038 
Q 4128 488 3612 205 
Q 3097 -78 2500 -78 
Q 1853 -78 1343 234 
Q 834 547 571 1087 
Q 309 1628 309 2231 
z
M 934 2222 
Q 934 1394 1379 917 
Q 1825 441 2497 441 
Q 3181 441 3623 922 
Q 4066 1403 4066 2288 
Q 4066 2847 3877 3264 
Q 3688 3681 3323 3911 
Q 2959 4141 2506 4141 
Q 1863 4141 1398 3698 
Q 934 3256 934 2222 
z
" transform="scale(0.015625)"/>
       <path id="ArialMT-52" d="M 503 0 
L 503 4581 
L 2534 4581 
Q 3147 4581 3465 4457 
Q 3784 4334 3975 4021 
Q 4166 3709 4166 3331 
Q 4166 2844 3850 2509 
Q 3534 2175 2875 2084 
Q 3116 1969 3241 1856 
Q 3506 1613 3744 1247 
L 4541 0 
L 3778 0 
L 3172 953 
Q 2906 1366 2734 1584 
Q 2563 1803 2427 1890 
Q 2291 1978 2150 2013 
Q 2047 2034 1813 2034 
L 1109 2034 
L 1109 0 
L 503 0 
z
M 1109 2559 
L 2413 2559 
Q 2828 2559 3062 2645 
Q 3297 2731 3419 2920 
Q 3541 3109 3541 3331 
Q 3541 3656 3305 3865 
Q 3069 4075 2559 4075 
L 1109 4075 
L 1109 2559 
z
" transform="scale(0.015625)"/>
       <path id="ArialMT-76" d="M 1344 0 
L 81 3319 
L 675 3319 
L 1388 1331 
Q 1503 1009 1600 663 
Q 1675 925 1809 1294 
L 2547 3319 
L 3125 3319 
L 1869 0 
L 1344 0 
z
" transform="scale(0.015625)"/>
       <path id="ArialMT-6e" d="M 422 0 
L 422 3319 
L 928 3319 
L 928 2847 
Q 1294 3394 1984 3394 
Q 2284 3394 2536 3286 
Q 2788 3178 2913 3003 
Q 3038 2828 3088 2588 
Q 3119 2431 3119 2041 
L 3119 0 
L 2556 0 
L 2556 2019 
Q 2556 2363 2490 2533 
Q 2425 2703 2258 2804 
Q 2091 2906 1866 2906 
Q 1506 2906 1245 2678 
Q 984 2450 984 1813 
L 984 0 
L 422 0 
z
" transform="scale(0.015625)"/>
       <path id="ArialMT-79" d="M 397 -1278 
L 334 -750 
Q 519 -800 656 -800 
Q 844 -800 956 -737 
Q 1069 -675 1141 -563 
Q 1194 -478 1313 -144 
Q 1328 -97 1363 -6 
L 103 3319 
L 709 3319 
L 1400 1397 
Q 1534 1031 1641 628 
Q 1738 1016 1872 1384 
L 2581 3319 
L 3144 3319 
L 1881 -56 
Q 1678 -603 1566 -809 
Q 1416 -1088 1222 -1217 
Q 1028 -1347 759 -1347 
Q 597 -1347 397 -1278 
z
" transform="scale(0.015625)"/>
       <path id="ArialMT-72" d="M 416 0 
L 416 3319 
L 922 3319 
L 922 2816 
Q 1116 3169 1280 3281 
Q 1444 3394 1641 3394 
Q 1925 3394 2219 3213 
L 2025 2691 
Q 1819 2813 1613 2813 
Q 1428 2813 1281 2702 
Q 1134 2591 1072 2394 
Q 978 2094 978 1738 
L 978 0 
L 416 0 
z
" transform="scale(0.015625)"/>
       <path id="DejaVuSans-2212" d="M 678 2272 
L 4684 2272 
L 4684 1741 
L 678 1741 
L 678 2272 
z
" transform="scale(0.015625)"/>
      </defs>
      <use xlink:href="#ArialMT-4f" transform="translate(0 0.765625)"/>
      <use xlink:href="#ArialMT-50" transform="translate(77.783203 0.765625)"/>
      <use xlink:href="#ArialMT-45" transform="translate(144.482422 0.765625)"/>
      <use xlink:href="#ArialMT-58" transform="translate(211.181641 0.765625)"/>
      <use xlink:href="#ArialMT-20" transform="translate(277.880859 0.765625)"/>
      <use xlink:href="#ArialMT-26" transform="translate(305.664062 0.765625)"/>
      <use xlink:href="#ArialMT-20" transform="translate(372.363281 0.765625)"/>
      <use xlink:href="#ArialMT-52" transform="translate(400.146484 0.765625)"/>
      <use xlink:href="#ArialMT-65" transform="translate(472.363281 0.765625)"/>
      <use xlink:href="#ArialMT-76" transform="translate(527.978516 0.765625)"/>
      <use xlink:href="#ArialMT-65" transform="translate(577.978516 0.765625)"/>
      <use xlink:href="#ArialMT-6e" transform="translate(633.59375 0.765625)"/>
      <use xlink:href="#ArialMT-75" transform="translate(689.208984 0.765625)"/>
      <use xlink:href="#ArialMT-65" transform="translate(744.824219 0.765625)"/>
      <use xlink:href="#ArialMT-20" transform="translate(800.439453 0.765625)"/>
      <use xlink:href="#ArialMT-5b" transform="translate(828.222656 0.765625)"/>
      <use xlink:href="#DejaVuSans-31" transform="translate(856.005859 0.765625)"/>
      <use xlink:href="#DejaVuSans-30" transform="translate(919.628906 0.765625)"/>
      <use xlink:href="#DejaVuSans-36" transform="translate(984.208984 39.046875) scale(0.7)"/>
      <use xlink:href="#DejaVuSans-22c5" transform="translate(1050.961914 0.765625)"/>
      <use xlink:href="#ArialMT-55" transform="translate(1102.231445 0.765625)"/>
      <use xlink:href="#ArialMT-53" transform="translate(1174.448242 0.765625)"/>
      <use xlink:href="#ArialMT-44" transform="translate(1241.147461 0.765625)"/>
      <use xlink:href="#DejaVuSans-22c5" transform="translate(1313.364258 0.765625)"/>
      <use xlink:href="#ArialMT-79" transform="translate(1345.151367 0.765625)"/>
      <use xlink:href="#ArialMT-72" transform="translate(1395.151367 0.765625)"/>
      <use xlink:href="#DejaVuSans-2212" transform="translate(1429.40918 39.046875) scale(0.7)"/>
      <use xlink:href="#DejaVuSans-31" transform="translate(1488.061523 39.046875) scale(0.7)"/>
      <use xlink:href="#ArialMT-5d" transform="translate(1535.332031 0.765625)"/>
     </g>
    </g>
   </g>
   <g id="patch_21">
    <path d="M 308.354004 116.550876 
L 334.546236 116.550876 
L 334.546236 83.545118 
L 308.354004 83.545118 
z
" clip-path="url(#p8c6510e3a7)" style="fill: #4c72b0; stroke: #ffffff; stroke-linejoin: miter"/>
   </g>
   <g id="patch_22">
    <path d="M 360.738468 116.550876 
L 386.9307 116.550876 
L 386.9307 24.027585 
L 360.738468 24.027585 
z
" clip-path="url(#p8c6510e3a7)" style="fill: #4c72b0; stroke: #ffffff; stroke-linejoin: miter"/>
   </g>
   <g id="patch_23">
    <path d="M 413.122932 116.550876 
L 439.315164 116.550876 
L 439.315164 40.748219 
L 413.122932 40.748219 
z
" clip-path="url(#p8c6510e3a7)" style="fill: #4c72b0; stroke: #ffffff; stroke-linejoin: miter"/>
   </g>
   <g id="patch_24">
    <path d="M 308.354004 116.550876 
L 334.546236 116.550876 
L 334.546236 116.550876 
L 308.354004 116.550876 
z
" clip-path="url(#p8c6510e3a7)" style="fill: #dd8452; stroke: #ffffff; stroke-linejoin: miter"/>
   </g>
   <g id="patch_25">
    <path d="M 360.738468 116.550876 
L 386.9307 116.550876 
L 386.9307 147.258186 
L 360.738468 147.258186 
z
" clip-path="url(#p8c6510e3a7)" style="fill: #dd8452; stroke: #ffffff; stroke-linejoin: miter"/>
   </g>
   <g id="patch_26">
    <path d="M 413.122932 116.550876 
L 439.315164 116.550876 
L 439.315164 192.09307 
L 413.122932 192.09307 
z
" clip-path="url(#p8c6510e3a7)" style="fill: #dd8452; stroke: #ffffff; stroke-linejoin: miter"/>
   </g>
   <g id="patch_27">
    <path d="M 308.354004 116.550876 
L 334.546236 116.550876 
L 334.546236 148.005293 
L 308.354004 148.005293 
z
" clip-path="url(#p8c6510e3a7)" style="fill: #55a868; stroke: #ffffff; stroke-linejoin: miter"/>
   </g>
   <g id="patch_28">
    <path d="M 360.738468 147.258186 
L 386.9307 147.258186 
L 386.9307 208.040352 
L 360.738468 208.040352 
z
" clip-path="url(#p8c6510e3a7)" style="fill: #55a868; stroke: #ffffff; stroke-linejoin: miter"/>
   </g>
   <g id="patch_29">
    <path d="M 413.122932 192.09307 
L 439.315164 192.09307 
L 439.315164 192.09307 
L 413.122932 192.09307 
z
" clip-path="url(#p8c6510e3a7)" style="fill: #55a868; stroke: #ffffff; stroke-linejoin: miter"/>
   </g>
   <g id="patch_30">
    <path d="M 308.354004 148.005293 
L 334.546236 148.005293 
L 334.546236 154.133291 
L 308.354004 154.133291 
z
" clip-path="url(#p8c6510e3a7)" style="fill: #c44e52; stroke: #ffffff; stroke-linejoin: miter"/>
   </g>
   <g id="patch_31">
    <path d="M 360.738468 208.040352 
L 386.9307 208.040352 
L 386.9307 218.845839 
L 360.738468 218.845839 
z
" clip-path="url(#p8c6510e3a7)" style="fill: #c44e52; stroke: #ffffff; stroke-linejoin: miter"/>
   </g>
   <g id="patch_32">
    <path d="M 413.122932 192.09307 
L 439.315164 192.09307 
L 439.315164 199.783814 
L 413.122932 199.783814 
z
" clip-path="url(#p8c6510e3a7)" style="fill: #c44e52; stroke: #ffffff; stroke-linejoin: miter"/>
   </g>
   <g id="line2d_21">
    <path d="M 295.257888 116.550876 
L 452.41128 116.550876 
" clip-path="url(#p8c6510e3a7)" style="fill: none; stroke-dasharray: 5.55,2.4; stroke-dashoffset: 0; stroke: #a9a9a9; stroke-width: 1.5"/>
   </g>
   <g id="patch_33">
    <path d="M 295.257888 228.586752 
L 295.257888 14.286672 
" style="fill: none; stroke: #262626; stroke-width: 1.25; stroke-linejoin: miter; stroke-linecap: square"/>
   </g>
   <g id="patch_34">
    <path d="M 295.257888 228.586752 
L 452.41128 228.586752 
" style="fill: none; stroke: #262626; stroke-width: 1.25; stroke-linejoin: miter; stroke-linecap: square"/>
   </g>
  </g>
 </g>
 <defs>
  <clipPath id="pe4d9dae742">
   <rect x="59.5278" y="14.286672" width="157.153392" height="214.30008"/>
  </clipPath>
  <clipPath id="p8c6510e3a7">
   <rect x="295.257888" y="14.286672" width="157.153392" height="214.30008"/>
  </clipPath>
 </defs>
</svg>
