<?xml version="1.0" encoding="utf-8" standalone="no"?>
<!DOCTYPE svg PUBLIC "-//W3C//DTD SVG 1.1//EN"
  "http://www.w3.org/Graphics/SVG/1.1/DTD/svg11.dtd">
<svg xmlns:xlink="http://www.w3.org/1999/xlink" width="342.72pt" height="262.8pt" viewBox="0 0 342.72 262.8" xmlns="http://www.w3.org/2000/svg" version="1.1">
 <metadata>
  <rdf:RDF xmlns:dc="http://purl.org/dc/elements/1.1/" xmlns:cc="http://creativecommons.org/ns#" xmlns:rdf="http://www.w3.org/1999/02/22-rdf-syntax-ns#">
   <cc:Work>
    <dc:type rdf:resource="http://purl.org/dc/dcmitype/StillImage"/>
    <dc:date>2024-01-20T19:50:26.736831</dc:date>
    <dc:format>image/svg+xml</dc:format>
    <dc:creator>
     <cc:Agent>
      <dc:title>Matplotlib v3.7.1, https://matplotlib.org/</dc:title>
     </cc:Agent>
    </dc:creator>
   </cc:Work>
  </rdf:RDF>
 </metadata>
 <defs>
  <style type="text/css">*{stroke-linejoin: round; stroke-linecap: butt}</style>
 </defs>
 <g id="figure_1">
  <g id="patch_1">
   <path d="M 0 262.8 
L 342.72 262.8 
L 342.72 0 
L 0 0 
z
" style="fill: #ffffff; fill-opacity: 0.95"/>
  </g>
  <g id="axes_1"/>
  <g id="axes_2">
   <g id="patch_2">
    <path d="M 266.909714 212.742857 
L 275.137857 212.742857 
L 275.137857 48.18 
L 266.909714 48.18 
z
" style="fill: #ffffff; fill-opacity: 0.95"/>
   </g>
   <g id="QuadMesh_1">
    <path d="M 266.909714 212.742857 
L 275.137857 212.742857 
L 275.137857 194.458095 
L 266.909714 194.458095 
L 266.909714 212.742857 
" clip-path="url(#p6f8d03c14d)" style="fill: #dae319"/>
    <path d="M 266.909714 194.458095 
L 275.137857 194.458095 
L 275.137857 176.173333 
L 266.909714 176.173333 
L 266.909714 194.458095 
" clip-path="url(#p6f8d03c14d)" style="fill: #90d743"/>
    <path d="M 266.909714 176.173333 
L 275.137857 176.173333 
L 275.137857 157.888571 
L 266.909714 157.888571 
L 266.909714 176.173333 
" clip-path="url(#p6f8d03c14d)" style="fill: #4ec36b"/>
    <path d="M 266.909714 157.888571 
L 275.137857 157.888571 
L 275.137857 139.60381 
L 266.909714 139.60381 
L 266.909714 157.888571 
" clip-path="url(#p6f8d03c14d)" style="fill: #25ab82"/>
    <path d="M 266.909714 139.60381 
L 275.137857 139.60381 
L 275.137857 121.319048 
L 266.909714 121.319048 
L 266.909714 139.60381 
" clip-path="url(#p6f8d03c14d)" style="fill: #21908d"/>
    <path d="M 266.909714 121.319048 
L 275.137857 121.319048 
L 275.137857 103.034286 
L 266.909714 103.034286 
L 266.909714 121.319048 
" clip-path="url(#p6f8d03c14d)" style="fill: #2b758e"/>
    <path d="M 266.909714 103.034286 
L 275.137857 103.034286 
L 275.137857 84.749524 
L 266.909714 84.749524 
L 266.909714 103.034286 
" clip-path="url(#p6f8d03c14d)" style="fill: #375a8c"/>
    <path d="M 266.909714 84.749524 
L 275.137857 84.749524 
L 275.137857 66.464762 
L 266.909714 66.464762 
L 266.909714 84.749524 
" clip-path="url(#p6f8d03c14d)" style="fill: #443983"/>
    <path d="M 266.909714 66.464762 
L 275.137857 66.464762 
L 275.137857 48.18 
L 266.909714 48.18 
L 266.909714 66.464762 
" clip-path="url(#p6f8d03c14d)" style="fill: #481668"/>
   </g>
   <g id="matplotlib.axis_1"/>
   <g id="matplotlib.axis_2">
    <g id="ytick_1">
     <g id="line2d_1">
      <defs>
       <path id="mf3051c0805" d="M 0 0 
L 3.5 0 
" style="stroke: #000000; stroke-width: 0.8"/>
      </defs>
      <g>
       <use xlink:href="#mf3051c0805" x="275.137857" y="212.742857" style="stroke: #000000; stroke-width: 0.8"/>
      </g>
     </g>
     <g id="text_1">
      <!-- 5 -->
      <g transform="translate(282.137857 217.037545) scale(0.12 -0.12)">
       <defs>
        <path id="ArialMT-35" d="M 266 1200 
L 856 1250 
Q 922 819 1161 601 
Q 1400 384 1738 384 
Q 2144 384 2425 690 
Q 2706 997 2706 1503 
Q 2706 1984 2436 2262 
Q 2166 2541 1728 2541 
Q 1456 2541 1237 2417 
Q 1019 2294 894 2097 
L 366 2166 
L 809 4519 
L 3088 4519 
L 3088 3981 
L 1259 3981 
L 1013 2750 
Q 1425 3038 1878 3038 
Q 2478 3038 2890 2622 
Q 3303 2206 3303 1553 
Q 3303 931 2941 478 
Q 2500 -78 1738 -78 
Q 1113 -78 717 272 
Q 322 622 266 1200 
z
" transform="scale(0.015625)"/>
       </defs>
       <use xlink:href="#ArialMT-35"/>
      </g>
     </g>
    </g>
    <g id="ytick_2">
     <g id="line2d_2">
      <g>
       <use xlink:href="#mf3051c0805" x="275.137857" y="171.602143" style="stroke: #000000; stroke-width: 0.8"/>
      </g>
     </g>
     <g id="text_2">
      <!-- 7 -->
      <g transform="translate(282.137857 175.89683) scale(0.12 -0.12)">
       <defs>
        <path id="ArialMT-37" d="M 303 3981 
L 303 4522 
L 3269 4522 
L 3269 4084 
Q 2831 3619 2401 2847 
Q 1972 2075 1738 1259 
Q 1569 684 1522 0 
L 944 0 
Q 953 541 1156 1306 
Q 1359 2072 1739 2783 
Q 2119 3494 2547 3981 
L 303 3981 
z
" transform="scale(0.015625)"/>
       </defs>
       <use xlink:href="#ArialMT-37"/>
      </g>
     </g>
    </g>
    <g id="ytick_3">
     <g id="line2d_3">
      <g>
       <use xlink:href="#mf3051c0805" x="275.137857" y="130.461429" style="stroke: #000000; stroke-width: 0.8"/>
      </g>
     </g>
     <g id="text_3">
      <!-- 9 -->
      <g transform="translate(282.137857 134.756116) scale(0.12 -0.12)">
       <defs>
        <path id="ArialMT-39" d="M 350 1059 
L 891 1109 
Q 959 728 1153 556 
Q 1347 384 1650 384 
Q 1909 384 2104 503 
Q 2300 622 2425 820 
Q 2550 1019 2634 1356 
Q 2719 1694 2719 2044 
Q 2719 2081 2716 2156 
Q 2547 1888 2255 1720 
Q 1963 1553 1622 1553 
Q 1053 1553 659 1965 
Q 266 2378 266 3053 
Q 266 3750 677 4175 
Q 1088 4600 1706 4600 
Q 2153 4600 2523 4359 
Q 2894 4119 3086 3673 
Q 3278 3228 3278 2384 
Q 3278 1506 3087 986 
Q 2897 466 2520 194 
Q 2144 -78 1638 -78 
Q 1100 -78 759 220 
Q 419 519 350 1059 
z
M 2653 3081 
Q 2653 3566 2395 3850 
Q 2138 4134 1775 4134 
Q 1400 4134 1122 3828 
Q 844 3522 844 3034 
Q 844 2597 1108 2323 
Q 1372 2050 1759 2050 
Q 2150 2050 2401 2323 
Q 2653 2597 2653 3081 
z
" transform="scale(0.015625)"/>
       </defs>
       <use xlink:href="#ArialMT-39"/>
      </g>
     </g>
    </g>
    <g id="ytick_4">
     <g id="line2d_4">
      <g>
       <use xlink:href="#mf3051c0805" x="275.137857" y="89.320714" style="stroke: #000000; stroke-width: 0.8"/>
      </g>
     </g>
     <g id="text_4">
      <!-- 11 -->
      <g transform="translate(282.137857 93.615402) scale(0.12 -0.12)">
       <defs>
        <path id="ArialMT-31" d="M 2384 0 
L 1822 0 
L 1822 3584 
Q 1619 3391 1289 3197 
Q 959 3003 697 2906 
L 697 3450 
Q 1169 3672 1522 3987 
Q 1875 4303 2022 4600 
L 2384 4600 
L 2384 0 
z
" transform="scale(0.015625)"/>
       </defs>
       <use xlink:href="#ArialMT-31"/>
       <use xlink:href="#ArialMT-31" x="48.240234"/>
      </g>
     </g>
    </g>
    <g id="ytick_5">
     <g id="line2d_5">
      <g>
       <use xlink:href="#mf3051c0805" x="275.137857" y="48.18" style="stroke: #000000; stroke-width: 0.8"/>
      </g>
     </g>
     <g id="text_5">
      <!-- 13 -->
      <g transform="translate(282.137857 52.474687) scale(0.12 -0.12)">
       <defs>
        <path id="ArialMT-33" d="M 269 1209 
L 831 1284 
Q 928 806 1161 595 
Q 1394 384 1728 384 
Q 2125 384 2398 659 
Q 2672 934 2672 1341 
Q 2672 1728 2419 1979 
Q 2166 2231 1775 2231 
Q 1616 2231 1378 2169 
L 1441 2663 
Q 1497 2656 1531 2656 
Q 1891 2656 2178 2843 
Q 2466 3031 2466 3422 
Q 2466 3731 2256 3934 
Q 2047 4138 1716 4138 
Q 1388 4138 1169 3931 
Q 950 3725 888 3313 
L 325 3413 
Q 428 3978 793 4289 
Q 1159 4600 1703 4600 
Q 2078 4600 2393 4439 
Q 2709 4278 2876 4000 
Q 3044 3722 3044 3409 
Q 3044 3113 2884 2869 
Q 2725 2625 2413 2481 
Q 2819 2388 3044 2092 
Q 3269 1797 3269 1353 
Q 3269 753 2831 336 
Q 2394 -81 1725 -81 
Q 1122 -81 723 278 
Q 325 638 269 1209 
z
" transform="scale(0.015625)"/>
       </defs>
       <use xlink:href="#ArialMT-31"/>
       <use xlink:href="#ArialMT-33" x="55.615234"/>
      </g>
     </g>
    </g>
   </g>
   <g id="LineCollection_1"/>
   <g id="patch_3">
    <path d="M 266.909714 212.742857 
L 271.023786 212.742857 
L 275.137857 212.742857 
L 275.137857 48.18 
L 271.023786 48.18 
L 266.909714 48.18 
L 266.909714 212.742857 
z
" style="fill: none; stroke: #000000; stroke-width: 0.8; stroke-linejoin: miter; stroke-linecap: square"/>
   </g>
   <g id="text_6">
    <!-- MSP -->
    <g transform="translate(255.421161 23.766) scale(0.144 -0.144)">
     <defs>
      <path id="ArialMT-4d" d="M 475 0 
L 475 4581 
L 1388 4581 
L 2472 1338 
Q 2622 884 2691 659 
Q 2769 909 2934 1394 
L 4031 4581 
L 4847 4581 
L 4847 0 
L 4263 0 
L 4263 3834 
L 2931 0 
L 2384 0 
L 1059 3900 
L 1059 0 
L 475 0 
z
" transform="scale(0.015625)"/>
      <path id="ArialMT-53" d="M 288 1472 
L 859 1522 
Q 900 1178 1048 958 
Q 1197 738 1509 602 
Q 1822 466 2213 466 
Q 2559 466 2825 569 
Q 3091 672 3220 851 
Q 3350 1031 3350 1244 
Q 3350 1459 3225 1620 
Q 3100 1781 2813 1891 
Q 2628 1963 1997 2114 
Q 1366 2266 1113 2400 
Q 784 2572 623 2826 
Q 463 3081 463 3397 
Q 463 3744 659 4045 
Q 856 4347 1234 4503 
Q 1613 4659 2075 4659 
Q 2584 4659 2973 4495 
Q 3363 4331 3572 4012 
Q 3781 3694 3797 3291 
L 3216 3247 
Q 3169 3681 2898 3903 
Q 2628 4125 2100 4125 
Q 1550 4125 1298 3923 
Q 1047 3722 1047 3438 
Q 1047 3191 1225 3031 
Q 1400 2872 2139 2705 
Q 2878 2538 3153 2413 
Q 3553 2228 3743 1945 
Q 3934 1663 3934 1294 
Q 3934 928 3725 604 
Q 3516 281 3123 101 
Q 2731 -78 2241 -78 
Q 1619 -78 1198 103 
Q 778 284 539 648 
Q 300 1013 288 1472 
z
" transform="scale(0.015625)"/>
      <path id="ArialMT-50" d="M 494 0 
L 494 4581 
L 2222 4581 
Q 2678 4581 2919 4538 
Q 3256 4481 3484 4323 
Q 3713 4166 3852 3881 
Q 3991 3597 3991 3256 
Q 3991 2672 3619 2267 
Q 3247 1863 2275 1863 
L 1100 1863 
L 1100 0 
L 494 0 
z
M 1100 2403 
L 2284 2403 
Q 2872 2403 3119 2622 
Q 3366 2841 3366 3238 
Q 3366 3525 3220 3729 
Q 3075 3934 2838 4000 
Q 2684 4041 2272 4041 
L 1100 4041 
L 1100 2403 
z
" transform="scale(0.015625)"/>
     </defs>
     <use xlink:href="#ArialMT-4d"/>
     <use xlink:href="#ArialMT-53" x="83.300781"/>
     <use xlink:href="#ArialMT-50" x="150"/>
    </g>
    <!-- $\mathrm{USD} \cdot \mathrm{kg}^{\mathrm{-1}}$ -->
    <g transform="translate(234.087786 42.18) scale(0.144 -0.144)">
     <defs>
      <path id="DejaVuSans-55" d="M 556 4666 
L 1191 4666 
L 1191 1831 
Q 1191 1081 1462 751 
Q 1734 422 2344 422 
Q 2950 422 3222 751 
Q 3494 1081 3494 1831 
L 3494 4666 
L 4128 4666 
L 4128 1753 
Q 4128 841 3676 375 
Q 3225 -91 2344 -91 
Q 1459 -91 1007 375 
Q 556 841 556 1753 
L 556 4666 
z
" transform="scale(0.015625)"/>
      <path id="DejaVuSans-53" d="M 3425 4513 
L 3425 3897 
Q 3066 4069 2747 4153 
Q 2428 4238 2131 4238 
Q 1616 4238 1336 4038 
Q 1056 3838 1056 3469 
Q 1056 3159 1242 3001 
Q 1428 2844 1947 2747 
L 2328 2669 
Q 3034 2534 3370 2195 
Q 3706 1856 3706 1288 
Q 3706 609 3251 259 
Q 2797 -91 1919 -91 
Q 1588 -91 1214 -16 
Q 841 59 441 206 
L 441 856 
Q 825 641 1194 531 
Q 1563 422 1919 422 
Q 2459 422 2753 634 
Q 3047 847 3047 1241 
Q 3047 1584 2836 1778 
Q 2625 1972 2144 2069 
L 1759 2144 
Q 1053 2284 737 2584 
Q 422 2884 422 3419 
Q 422 4038 858 4394 
Q 1294 4750 2059 4750 
Q 2388 4750 2728 4690 
Q 3069 4631 3425 4513 
z
" transform="scale(0.015625)"/>
      <path id="DejaVuSans-44" d="M 1259 4147 
L 1259 519 
L 2022 519 
Q 2988 519 3436 956 
Q 3884 1394 3884 2338 
Q 3884 3275 3436 3711 
Q 2988 4147 2022 4147 
L 1259 4147 
z
M 628 4666 
L 1925 4666 
Q 3281 4666 3915 4102 
Q 4550 3538 4550 2338 
Q 4550 1131 3912 565 
Q 3275 0 1925 0 
L 628 0 
L 628 4666 
z
" transform="scale(0.015625)"/>
      <path id="DejaVuSans-22c5" d="M 684 2619 
L 1344 2619 
L 1344 1825 
L 684 1825 
L 684 2619 
z
" transform="scale(0.015625)"/>
      <path id="DejaVuSans-6b" d="M 581 4863 
L 1159 4863 
L 1159 1991 
L 2875 3500 
L 3609 3500 
L 1753 1863 
L 3688 0 
L 2938 0 
L 1159 1709 
L 1159 0 
L 581 0 
L 581 4863 
z
" transform="scale(0.015625)"/>
      <path id="DejaVuSans-67" d="M 2906 1791 
Q 2906 2416 2648 2759 
Q 2391 3103 1925 3103 
Q 1463 3103 1205 2759 
Q 947 2416 947 1791 
Q 947 1169 1205 825 
Q 1463 481 1925 481 
Q 2391 481 2648 825 
Q 2906 1169 2906 1791 
z
M 3481 434 
Q 3481 -459 3084 -895 
Q 2688 -1331 1869 -1331 
Q 1566 -1331 1297 -1286 
Q 1028 -1241 775 -1147 
L 775 -588 
Q 1028 -725 1275 -790 
Q 1522 -856 1778 -856 
Q 2344 -856 2625 -561 
Q 2906 -266 2906 331 
L 2906 616 
Q 2728 306 2450 153 
Q 2172 0 1784 0 
Q 1141 0 747 490 
Q 353 981 353 1791 
Q 353 2603 747 3093 
Q 1141 3584 1784 3584 
Q 2172 3584 2450 3431 
Q 2728 3278 2906 2969 
L 2906 3500 
L 3481 3500 
L 3481 434 
z
" transform="scale(0.015625)"/>
      <path id="DejaVuSans-2212" d="M 678 2272 
L 4684 2272 
L 4684 1741 
L 678 1741 
L 678 2272 
z
" transform="scale(0.015625)"/>
      <path id="DejaVuSans-31" d="M 794 531 
L 1825 531 
L 1825 4091 
L 703 3866 
L 703 4441 
L 1819 4666 
L 2450 4666 
L 2450 531 
L 3481 531 
L 3481 0 
L 794 0 
L 794 531 
z
" transform="scale(0.015625)"/>
     </defs>
     <use xlink:href="#DejaVuSans-55" transform="translate(0 0.684375)"/>
     <use xlink:href="#DejaVuSans-53" transform="translate(73.193359 0.684375)"/>
     <use xlink:href="#DejaVuSans-44" transform="translate(136.669922 0.684375)"/>
     <use xlink:href="#DejaVuSans-22c5" transform="translate(233.154297 0.684375)"/>
     <use xlink:href="#DejaVuSans-6b" transform="translate(284.423828 0.684375)"/>
     <use xlink:href="#DejaVuSans-67" transform="translate(342.333984 0.684375)"/>
     <use xlink:href="#DejaVuSans-2212" transform="translate(406.767578 38.965625) scale(0.7)"/>
     <use xlink:href="#DejaVuSans-31" transform="translate(465.419922 38.965625) scale(0.7)"/>
    </g>
   </g>
  </g>
  <g id="axes_3">
   <g id="patch_4">
    <path d="M 42.84 212.742857 
L 231.530286 212.742857 
L 231.530286 48.18 
L 42.84 48.18 
z
" style="fill: #ffffff; fill-opacity: 0.95"/>
   </g>
   <g id="PathCollection_1">
    <defs>
     <path id="m8e6b12f77f" d="M 45.971491 -141.480952 
L 53.337715 -159.765714 
L 58.869531 -178.050476 
L 62.453434 -196.335238 
L 63.805587 -209.072797 
L 64.209434 -214.62 
L 63.805587 -214.62 
L 42.84 -214.62 
L 42.84 -196.335238 
L 42.84 -178.050476 
L 42.84 -159.765714 
L 42.84 -141.480952 
L 42.84 -135.581372 
z
" style="stroke: #dae319"/>
    </defs>
    <g clip-path="url(#pa67f279c70)">
     <use xlink:href="#m8e6b12f77f" x="0" y="262.8" style="fill: #dae319; stroke: #dae319"/>
    </g>
   </g>
   <g id="PathCollection_2">
    <defs>
     <path id="me8845bde27" d="M 61.33314 -86.626667 
L 63.805587 -88.353321 
L 80.145411 -104.911429 
L 84.771175 -113.197244 
L 90.043809 -123.19619 
L 96.388408 -141.480952 
L 101.187148 -159.765714 
L 104.816552 -178.050476 
L 105.736762 -185.161238 
L 107.178222 -196.335238 
L 108.530438 -214.62 
L 105.736762 -214.62 
L 84.771175 -214.62 
L 64.209434 -214.62 
L 63.805587 -209.072797 
L 62.453434 -196.335238 
L 58.869531 -178.050476 
L 53.337715 -159.765714 
L 45.971491 -141.480952 
L 42.84 -135.581372 
L 42.84 -123.19619 
L 42.84 -104.911429 
L 42.84 -86.626667 
L 42.84 -78.424242 
z
" style="stroke: #90d743"/>
    </defs>
    <g clip-path="url(#pa67f279c70)">
     <use xlink:href="#me8845bde27" x="0" y="262.8" style="fill: #90d743; stroke: #90d743"/>
    </g>
   </g>
   <g id="PathCollection_3">
    <defs>
     <path id="mc4878effba" d="M 63.805587 -58.504556 
L 78.330356 -68.341905 
L 84.771175 -72.500368 
L 105.71581 -86.626667 
L 105.736762 -86.648993 
L 122.922159 -104.911429 
L 126.702349 -112.030741 
L 132.650616 -123.19619 
L 139.070108 -141.480952 
L 143.901362 -159.765714 
L 147.580635 -178.050476 
L 147.667937 -178.711727 
L 149.998274 -196.335238 
L 151.45757 -214.62 
L 147.667937 -214.62 
L 126.702349 -214.62 
L 108.530438 -214.62 
L 107.178222 -196.335238 
L 105.736762 -185.161238 
L 104.816552 -178.050476 
L 101.187148 -159.765714 
L 96.388408 -141.480952 
L 90.043809 -123.19619 
L 84.771175 -113.197244 
L 80.145411 -104.911429 
L 63.805587 -88.353321 
L 61.33314 -86.626667 
L 42.84 -78.424242 
L 42.84 -68.341905 
L 42.84 -50.057143 
L 46.048717 -50.057143 
z
" style="stroke: #4ec36b"/>
    </defs>
    <g clip-path="url(#pa67f279c70)">
     <use xlink:href="#mc4878effba" x="0" y="262.8" style="fill: #4ec36b; stroke: #4ec36b"/>
    </g>
   </g>
   <g id="PathCollection_4">
    <defs>
     <path id="m990bf6b131" d="M 63.805587 -50.057143 
L 84.771175 -50.057143 
L 94.084743 -50.057143 
L 105.736762 -58.311512 
L 120.2084 -68.341905 
L 126.702349 -72.701871 
L 147.667937 -86.545965 
L 147.791748 -86.626667 
L 165.308955 -104.911429 
L 168.633524 -111.080982 
L 175.2146 -123.19619 
L 181.769609 -141.480952 
L 186.679001 -159.765714 
L 189.599111 -173.95644 
L 190.495503 -178.050476 
L 193.139929 -196.335238 
L 194.811615 -214.62 
L 189.599111 -214.62 
L 168.633524 -214.62 
L 151.45757 -214.62 
L 149.998274 -196.335238 
L 147.667937 -178.711727 
L 147.580635 -178.050476 
L 143.901362 -159.765714 
L 139.070108 -141.480952 
L 132.650616 -123.19619 
L 126.702349 -112.030741 
L 122.922159 -104.911429 
L 105.736762 -86.648993 
L 105.71581 -86.626667 
L 84.771175 -72.500368 
L 78.330356 -68.341905 
L 63.805587 -58.504556 
L 46.048717 -50.057143 
z
" style="stroke: #25ab82"/>
    </defs>
    <g clip-path="url(#pa67f279c70)">
     <use xlink:href="#m990bf6b131" x="0" y="262.8" style="fill: #25ab82; stroke: #25ab82"/>
    </g>
   </g>
   <g id="PathCollection_5">
    <defs>
     <path id="mfad3d5c2a0" d="M 105.736762 -50.057143 
L 126.702349 -50.057143 
L 134.434972 -50.057143 
L 147.667937 -59.091402 
L 161.582141 -68.341905 
L 168.633524 -72.957545 
L 189.599111 -86.393343 
L 189.990806 -86.626667 
L 209.017601 -104.911429 
L 210.564698 -107.564056 
L 223.938008 -123.19619 
L 231.530286 -136.627029 
L 231.530286 -141.480952 
L 231.530286 -159.765714 
L 231.530286 -178.050476 
L 231.530286 -196.335238 
L 231.530286 -214.62 
L 210.564698 -214.62 
L 194.811615 -214.62 
L 193.139929 -196.335238 
L 190.495503 -178.050476 
L 189.599111 -173.95644 
L 186.679001 -159.765714 
L 181.769609 -141.480952 
L 175.2146 -123.19619 
L 168.633524 -111.080982 
L 165.308955 -104.911429 
L 147.791748 -86.626667 
L 147.667937 -86.545965 
L 126.702349 -72.701871 
L 120.2084 -68.341905 
L 105.736762 -58.311512 
L 94.084743 -50.057143 
z
" style="stroke: #21908d"/>
    </defs>
    <g clip-path="url(#pa67f279c70)">
     <use xlink:href="#mfad3d5c2a0" x="0" y="262.8" style="fill: #21908d; stroke: #21908d"/>
    </g>
   </g>
   <g id="PathCollection_6">
    <defs>
     <path id="m8d4e9a5c84" d="M 147.667937 -50.057143 
L 168.633524 -50.057143 
L 174.759207 -50.057143 
L 189.599111 -59.746411 
L 203.959054 -68.341905 
L 210.564698 -72.297655 
L 231.530286 -80.789013 
L 231.530286 -86.626667 
L 231.530286 -104.911429 
L 231.530286 -123.19619 
L 231.530286 -136.627029 
L 223.938008 -123.19619 
L 210.564698 -107.564056 
L 209.017601 -104.911429 
L 189.990806 -86.626667 
L 189.599111 -86.393343 
L 168.633524 -72.957545 
L 161.582141 -68.341905 
L 147.667937 -59.091402 
L 134.434972 -50.057143 
z
" style="stroke: #2b758e"/>
    </defs>
    <g clip-path="url(#pa67f279c70)">
     <use xlink:href="#m8d4e9a5c84" x="0" y="262.8" style="fill: #2b758e; stroke: #2b758e"/>
    </g>
   </g>
   <g id="PathCollection_7">
    <defs>
     <path id="m43f6c05b9f" d="M 189.599111 -50.057143 
L 210.564698 -50.057143 
L 219.739533 -50.057143 
L 231.530286 -54.865719 
L 231.530286 -68.341905 
L 231.530286 -80.789013 
L 210.564698 -72.297655 
L 203.959054 -68.341905 
L 189.599111 -59.746411 
L 174.759207 -50.057143 
z
" style="stroke: #375a8c"/>
    </defs>
    <g clip-path="url(#pa67f279c70)">
     <use xlink:href="#m43f6c05b9f" x="0" y="262.8" style="fill: #375a8c; stroke: #375a8c"/>
    </g>
   </g>
   <g id="PathCollection_8">
    <defs>
     <path id="m4eb65c8d63" d="M 231.530286 -50.057143 
L 231.530286 -54.865719 
L 219.739533 -50.057143 
z
" style="stroke: #443983"/>
    </defs>
    <g clip-path="url(#pa67f279c70)">
     <use xlink:href="#m4eb65c8d63" x="0" y="262.8" style="fill: #443983; stroke: #443983"/>
    </g>
   </g>
   <g id="PathCollection_9"/>
   <g id="PathCollection_10"/>
   <g id="PathCollection_11">
    <path d="M 64.209434 48.18 
L 63.805587 53.727203 
L 62.453434 66.464762 
L 58.869531 84.749524 
L 53.337715 103.034286 
L 45.971491 121.319048 
L 42.84 127.218628 
" clip-path="url(#pa67f279c70)" style="fill: none; stroke: #3d4240; stroke-opacity: 0.1; stroke-width: 0.8"/>
   </g>
   <g id="PathCollection_12">
    <path d="M 108.530438 48.18 
L 107.178222 66.464762 
L 105.736762 77.638762 
L 104.816552 84.749524 
L 101.187148 103.034286 
L 96.388408 121.319048 
L 92.497834 132.531453 
" clip-path="url(#pa67f279c70)" style="fill: none; stroke: #3d4240; stroke-opacity: 0.1; stroke-width: 0.8"/>
    <path d="M 86.49614 146.331557 
L 84.771175 149.602756 
L 80.145411 157.888571 
L 63.805587 174.446679 
L 61.33314 176.173333 
L 42.84 184.375758 
" clip-path="url(#pa67f279c70)" style="fill: none; stroke: #3d4240; stroke-opacity: 0.1; stroke-width: 0.8"/>
   </g>
   <g id="PathCollection_13">
    <path d="M 151.45757 48.18 
L 149.998274 66.464762 
L 147.667937 84.088273 
L 147.580635 84.749524 
L 143.901362 103.034286 
L 139.070108 121.319048 
L 132.650616 139.60381 
L 126.702349 150.769259 
L 122.922159 157.888571 
L 105.736762 176.151007 
L 105.71581 176.173333 
L 84.771175 190.299632 
L 78.330356 194.458095 
L 63.805587 204.295444 
L 46.048717 212.742857 
" clip-path="url(#pa67f279c70)" style="fill: none; stroke: #3d4240; stroke-opacity: 0.1; stroke-width: 0.8"/>
   </g>
   <g id="PathCollection_14">
    <path d="M 194.811615 48.18 
L 193.139929 66.464762 
L 190.495503 84.749524 
L 189.599111 88.84356 
L 186.679001 103.034286 
L 181.769609 121.319048 
L 175.2146 139.60381 
L 172.269489 145.025512 
" clip-path="url(#pa67f279c70)" style="fill: none; stroke: #3d4240; stroke-opacity: 0.1; stroke-width: 0.8"/>
    <path d="M 164.873292 158.343324 
L 147.791748 176.173333 
L 147.667937 176.254035 
L 126.702349 190.098129 
L 120.2084 194.458095 
L 105.736762 204.488488 
L 94.084743 212.742857 
" clip-path="url(#pa67f279c70)" style="fill: none; stroke: #3d4240; stroke-opacity: 0.1; stroke-width: 0.8"/>
   </g>
   <g id="PathCollection_15">
    <path d="M 231.530286 126.172971 
L 223.938008 139.60381 
L 210.564698 155.235944 
L 209.017601 157.888571 
L 189.990806 176.173333 
L 189.599111 176.406657 
L 168.633524 189.842455 
L 161.582141 194.458095 
L 147.667937 203.708598 
L 134.434972 212.742857 
" clip-path="url(#pa67f279c70)" style="fill: none; stroke: #3d4240; stroke-opacity: 0.1; stroke-width: 0.8"/>
   </g>
   <g id="PathCollection_16">
    <path d="M 231.530286 182.010987 
L 213.279268 189.402906 
" clip-path="url(#pa67f279c70)" style="fill: none; stroke: #3d4240; stroke-opacity: 0.1; stroke-width: 0.8"/>
    <path d="M 194.893373 199.88458 
L 189.599111 203.053589 
L 174.759207 212.742857 
" clip-path="url(#pa67f279c70)" style="fill: none; stroke: #3d4240; stroke-opacity: 0.1; stroke-width: 0.8"/>
   </g>
   <g id="PathCollection_17">
    <path d="M 231.530286 207.934281 
L 219.739533 212.742857 
" clip-path="url(#pa67f279c70)" style="fill: none; stroke: #3d4240; stroke-opacity: 0.1; stroke-width: 0.8"/>
   </g>
   <g id="PathCollection_18"/>
   <g id="PathCollection_19"/>
   <g id="text_7">
    <g clip-path="url(#pa67f279c70)">
     <!-- 6.8 -->
     <g transform="translate(81.703809 142.705997) scale(0.12 -0.12)">
      <defs>
       <path id="ArialMT-36" d="M 3184 3459 
L 2625 3416 
Q 2550 3747 2413 3897 
Q 2184 4138 1850 4138 
Q 1581 4138 1378 3988 
Q 1113 3794 959 3422 
Q 806 3050 800 2363 
Q 1003 2672 1297 2822 
Q 1591 2972 1913 2972 
Q 2475 2972 2870 2558 
Q 3266 2144 3266 1488 
Q 3266 1056 3080 686 
Q 2894 316 2569 119 
Q 2244 -78 1831 -78 
Q 1128 -78 684 439 
Q 241 956 241 2144 
Q 241 3472 731 4075 
Q 1159 4600 1884 4600 
Q 2425 4600 2770 4297 
Q 3116 3994 3184 3459 
z
M 888 1484 
Q 888 1194 1011 928 
Q 1134 663 1356 523 
Q 1578 384 1822 384 
Q 2178 384 2434 671 
Q 2691 959 2691 1453 
Q 2691 1928 2437 2201 
Q 2184 2475 1800 2475 
Q 1419 2475 1153 2201 
Q 888 1928 888 1484 
z
" transform="scale(0.015625)"/>
       <path id="ArialMT-2e" d="M 581 0 
L 581 641 
L 1222 641 
L 1222 0 
L 581 0 
z
" transform="scale(0.015625)"/>
       <path id="ArialMT-38" d="M 1131 2484 
Q 781 2613 612 2850 
Q 444 3088 444 3419 
Q 444 3919 803 4259 
Q 1163 4600 1759 4600 
Q 2359 4600 2725 4251 
Q 3091 3903 3091 3403 
Q 3091 3084 2923 2848 
Q 2756 2613 2416 2484 
Q 2838 2347 3058 2040 
Q 3278 1734 3278 1309 
Q 3278 722 2862 322 
Q 2447 -78 1769 -78 
Q 1091 -78 675 323 
Q 259 725 259 1325 
Q 259 1772 486 2073 
Q 713 2375 1131 2484 
z
M 1019 3438 
Q 1019 3113 1228 2906 
Q 1438 2700 1772 2700 
Q 2097 2700 2305 2904 
Q 2513 3109 2513 3406 
Q 2513 3716 2298 3927 
Q 2084 4138 1766 4138 
Q 1444 4138 1231 3931 
Q 1019 3725 1019 3438 
z
M 838 1322 
Q 838 1081 952 856 
Q 1066 631 1291 507 
Q 1516 384 1775 384 
Q 2178 384 2440 643 
Q 2703 903 2703 1303 
Q 2703 1709 2433 1975 
Q 2163 2241 1756 2241 
Q 1359 2241 1098 1978 
Q 838 1716 838 1322 
z
" transform="scale(0.015625)"/>
      </defs>
      <use xlink:href="#ArialMT-36"/>
      <use xlink:href="#ArialMT-2e" x="55.615234"/>
      <use xlink:href="#ArialMT-38" x="83.398438"/>
     </g>
    </g>
   </g>
   <g id="text_8">
    <g clip-path="url(#pa67f279c70)">
     <!-- 8.6 -->
     <g transform="translate(160.293524 154.821206) scale(0.12 -0.12)">
      <use xlink:href="#ArialMT-38"/>
      <use xlink:href="#ArialMT-2e" x="55.615234"/>
      <use xlink:href="#ArialMT-36" x="83.398438"/>
     </g>
    </g>
   </g>
   <g id="text_9">
    <g clip-path="url(#pa67f279c70)">
     <!-- 10.3 -->
     <g transform="translate(192.282492 197.560283) scale(0.12 -0.12)">
      <defs>
       <path id="ArialMT-30" d="M 266 2259 
Q 266 3072 433 3567 
Q 600 4063 929 4331 
Q 1259 4600 1759 4600 
Q 2128 4600 2406 4451 
Q 2684 4303 2865 4023 
Q 3047 3744 3150 3342 
Q 3253 2941 3253 2259 
Q 3253 1453 3087 958 
Q 2922 463 2592 192 
Q 2263 -78 1759 -78 
Q 1097 -78 719 397 
Q 266 969 266 2259 
z
M 844 2259 
Q 844 1131 1108 757 
Q 1372 384 1759 384 
Q 2147 384 2411 759 
Q 2675 1134 2675 2259 
Q 2675 3391 2411 3762 
Q 2147 4134 1753 4134 
Q 1366 4134 1134 3806 
Q 844 3388 844 2259 
z
" transform="scale(0.015625)"/>
      </defs>
      <use xlink:href="#ArialMT-31"/>
      <use xlink:href="#ArialMT-30" x="55.615234"/>
      <use xlink:href="#ArialMT-2e" x="111.230469"/>
      <use xlink:href="#ArialMT-33" x="139.013672"/>
     </g>
    </g>
   </g>
   <g id="matplotlib.axis_3">
    <g id="xtick_1">
     <g id="line2d_6">
      <defs>
       <path id="m662398d050" d="M 0 2 
L 0 -2 
" style="stroke: #000000; stroke-width: 0.8"/>
      </defs>
      <g>
       <use xlink:href="#m662398d050" x="42.84" y="212.742857" style="stroke: #000000; stroke-width: 0.8"/>
      </g>
     </g>
    </g>
    <g id="xtick_2">
     <g id="line2d_7">
      <g>
       <use xlink:href="#m662398d050" x="69.795755" y="212.742857" style="stroke: #000000; stroke-width: 0.8"/>
      </g>
     </g>
     <g id="text_10">
      <!-- 2 -->
      <g transform="translate(66.459193 226.832232) scale(0.12 -0.12)">
       <defs>
        <path id="ArialMT-32" d="M 3222 541 
L 3222 0 
L 194 0 
Q 188 203 259 391 
Q 375 700 629 1000 
Q 884 1300 1366 1694 
Q 2113 2306 2375 2664 
Q 2638 3022 2638 3341 
Q 2638 3675 2398 3904 
Q 2159 4134 1775 4134 
Q 1369 4134 1125 3890 
Q 881 3647 878 3216 
L 300 3275 
Q 359 3922 746 4261 
Q 1134 4600 1788 4600 
Q 2447 4600 2831 4234 
Q 3216 3869 3216 3328 
Q 3216 3053 3103 2787 
Q 2991 2522 2730 2228 
Q 2469 1934 1863 1422 
Q 1356 997 1212 845 
Q 1069 694 975 541 
L 3222 541 
z
" transform="scale(0.015625)"/>
       </defs>
       <use xlink:href="#ArialMT-32"/>
      </g>
     </g>
    </g>
    <g id="xtick_3">
     <g id="line2d_8">
      <g>
       <use xlink:href="#m662398d050" x="96.75151" y="212.742857" style="stroke: #000000; stroke-width: 0.8"/>
      </g>
     </g>
     <g id="text_11">
      <!-- 2.5 -->
      <g transform="translate(88.41151 226.832232) scale(0.12 -0.12)">
       <use xlink:href="#ArialMT-32"/>
       <use xlink:href="#ArialMT-2e" x="55.615234"/>
       <use xlink:href="#ArialMT-35" x="83.398438"/>
      </g>
     </g>
    </g>
    <g id="xtick_4">
     <g id="line2d_9">
      <g>
       <use xlink:href="#m662398d050" x="123.707265" y="212.742857" style="stroke: #000000; stroke-width: 0.8"/>
      </g>
     </g>
     <g id="text_12">
      <!-- 3 -->
      <g transform="translate(120.370703 226.832232) scale(0.12 -0.12)">
       <use xlink:href="#ArialMT-33"/>
      </g>
     </g>
    </g>
    <g id="xtick_5">
     <g id="line2d_10">
      <g>
       <use xlink:href="#m662398d050" x="150.66302" y="212.742857" style="stroke: #000000; stroke-width: 0.8"/>
      </g>
     </g>
     <g id="text_13">
      <!-- 3.5 -->
      <g transform="translate(142.32302 226.832232) scale(0.12 -0.12)">
       <use xlink:href="#ArialMT-33"/>
       <use xlink:href="#ArialMT-2e" x="55.615234"/>
       <use xlink:href="#ArialMT-35" x="83.398438"/>
      </g>
     </g>
    </g>
    <g id="xtick_6">
     <g id="line2d_11">
      <g>
       <use xlink:href="#m662398d050" x="177.618776" y="212.742857" style="stroke: #000000; stroke-width: 0.8"/>
      </g>
     </g>
     <g id="text_14">
      <!-- 4 -->
      <g transform="translate(174.282213 226.832232) scale(0.12 -0.12)">
       <defs>
        <path id="ArialMT-34" d="M 2069 0 
L 2069 1097 
L 81 1097 
L 81 1613 
L 2172 4581 
L 2631 4581 
L 2631 1613 
L 3250 1613 
L 3250 1097 
L 2631 1097 
L 2631 0 
L 2069 0 
z
M 2069 1613 
L 2069 3678 
L 634 1613 
L 2069 1613 
z
" transform="scale(0.015625)"/>
       </defs>
       <use xlink:href="#ArialMT-34"/>
      </g>
     </g>
    </g>
    <g id="xtick_7">
     <g id="line2d_12">
      <g>
       <use xlink:href="#m662398d050" x="204.574531" y="212.742857" style="stroke: #000000; stroke-width: 0.8"/>
      </g>
     </g>
     <g id="text_15">
      <!-- 4.5 -->
      <g transform="translate(196.234531 226.832232) scale(0.12 -0.12)">
       <use xlink:href="#ArialMT-34"/>
       <use xlink:href="#ArialMT-2e" x="55.615234"/>
       <use xlink:href="#ArialMT-35" x="83.398438"/>
      </g>
     </g>
    </g>
    <g id="xtick_8">
     <g id="line2d_13">
      <g>
       <use xlink:href="#m662398d050" x="231.530286" y="212.742857" style="stroke: #000000; stroke-width: 0.8"/>
      </g>
     </g>
     <g id="text_16">
      <!-- 5 -->
      <g transform="translate(228.193723 226.832232) scale(0.12 -0.12)">
       <use xlink:href="#ArialMT-35"/>
      </g>
     </g>
    </g>
    <g id="text_17">
     <!-- $\mathrm{H}_\mathrm{2}$ Price [$\mathrm{USD} \cdot \mathrm{kg}^{\mathrm{-1}}$] -->
     <g transform="translate(78.625143 244.017232) scale(0.12 -0.12)">
      <defs>
       <path id="DejaVuSans-48" d="M 628 4666 
L 1259 4666 
L 1259 2753 
L 3553 2753 
L 3553 4666 
L 4184 4666 
L 4184 0 
L 3553 0 
L 3553 2222 
L 1259 2222 
L 1259 0 
L 628 0 
L 628 4666 
z
" transform="scale(0.015625)"/>
       <path id="DejaVuSans-32" d="M 1228 531 
L 3431 531 
L 3431 0 
L 469 0 
L 469 531 
Q 828 903 1448 1529 
Q 2069 2156 2228 2338 
Q 2531 2678 2651 2914 
Q 2772 3150 2772 3378 
Q 2772 3750 2511 3984 
Q 2250 4219 1831 4219 
Q 1534 4219 1204 4116 
Q 875 4013 500 3803 
L 500 4441 
Q 881 4594 1212 4672 
Q 1544 4750 1819 4750 
Q 2544 4750 2975 4387 
Q 3406 4025 3406 3419 
Q 3406 3131 3298 2873 
Q 3191 2616 2906 2266 
Q 2828 2175 2409 1742 
Q 1991 1309 1228 531 
z
" transform="scale(0.015625)"/>
       <path id="ArialMT-20" transform="scale(0.015625)"/>
       <path id="ArialMT-72" d="M 416 0 
L 416 3319 
L 922 3319 
L 922 2816 
Q 1116 3169 1280 3281 
Q 1444 3394 1641 3394 
Q 1925 3394 2219 3213 
L 2025 2691 
Q 1819 2813 1613 2813 
Q 1428 2813 1281 2702 
Q 1134 2591 1072 2394 
Q 978 2094 978 1738 
L 978 0 
L 416 0 
z
" transform="scale(0.015625)"/>
       <path id="ArialMT-69" d="M 425 3934 
L 425 4581 
L 988 4581 
L 988 3934 
L 425 3934 
z
M 425 0 
L 425 3319 
L 988 3319 
L 988 0 
L 425 0 
z
" transform="scale(0.015625)"/>
       <path id="ArialMT-63" d="M 2588 1216 
L 3141 1144 
Q 3050 572 2676 248 
Q 2303 -75 1759 -75 
Q 1078 -75 664 370 
Q 250 816 250 1647 
Q 250 2184 428 2587 
Q 606 2991 970 3192 
Q 1334 3394 1763 3394 
Q 2303 3394 2647 3120 
Q 2991 2847 3088 2344 
L 2541 2259 
Q 2463 2594 2264 2762 
Q 2066 2931 1784 2931 
Q 1359 2931 1093 2626 
Q 828 2322 828 1663 
Q 828 994 1084 691 
Q 1341 388 1753 388 
Q 2084 388 2306 591 
Q 2528 794 2588 1216 
z
" transform="scale(0.015625)"/>
       <path id="ArialMT-65" d="M 2694 1069 
L 3275 997 
Q 3138 488 2766 206 
Q 2394 -75 1816 -75 
Q 1088 -75 661 373 
Q 234 822 234 1631 
Q 234 2469 665 2931 
Q 1097 3394 1784 3394 
Q 2450 3394 2872 2941 
Q 3294 2488 3294 1666 
Q 3294 1616 3291 1516 
L 816 1516 
Q 847 969 1125 678 
Q 1403 388 1819 388 
Q 2128 388 2347 550 
Q 2566 713 2694 1069 
z
M 847 1978 
L 2700 1978 
Q 2663 2397 2488 2606 
Q 2219 2931 1791 2931 
Q 1403 2931 1139 2672 
Q 875 2413 847 1978 
z
" transform="scale(0.015625)"/>
       <path id="ArialMT-5b" d="M 434 -1272 
L 434 4581 
L 1675 4581 
L 1675 4116 
L 997 4116 
L 997 -806 
L 1675 -806 
L 1675 -1272 
L 434 -1272 
z
" transform="scale(0.015625)"/>
       <path id="ArialMT-5d" d="M 1363 -1272 
L 122 -1272 
L 122 -806 
L 800 -806 
L 800 4116 
L 122 4116 
L 122 4581 
L 1363 4581 
L 1363 -1272 
z
" transform="scale(0.015625)"/>
      </defs>
      <use xlink:href="#DejaVuSans-48" transform="translate(0 0.684375)"/>
      <use xlink:href="#DejaVuSans-32" transform="translate(76.152344 -15.721875) scale(0.7)"/>
      <use xlink:href="#ArialMT-20" transform="translate(123.422852 0.684375)"/>
      <use xlink:href="#ArialMT-50" transform="translate(151.206055 0.684375)"/>
      <use xlink:href="#ArialMT-72" transform="translate(217.905273 0.684375)"/>
      <use xlink:href="#ArialMT-69" transform="translate(251.206055 0.684375)"/>
      <use xlink:href="#ArialMT-63" transform="translate(273.422852 0.684375)"/>
      <use xlink:href="#ArialMT-65" transform="translate(323.422852 0.684375)"/>
      <use xlink:href="#ArialMT-20" transform="translate(379.038086 0.684375)"/>
      <use xlink:href="#ArialMT-5b" transform="translate(406.821289 0.684375)"/>
      <use xlink:href="#DejaVuSans-55" transform="translate(434.604492 0.684375)"/>
      <use xlink:href="#DejaVuSans-53" transform="translate(507.797852 0.684375)"/>
      <use xlink:href="#DejaVuSans-44" transform="translate(571.274414 0.684375)"/>
      <use xlink:href="#DejaVuSans-22c5" transform="translate(667.758789 0.684375)"/>
      <use xlink:href="#DejaVuSans-6b" transform="translate(719.02832 0.684375)"/>
      <use xlink:href="#DejaVuSans-67" transform="translate(776.938477 0.684375)"/>
      <use xlink:href="#DejaVuSans-2212" transform="translate(841.37207 38.965625) scale(0.7)"/>
      <use xlink:href="#DejaVuSans-31" transform="translate(900.024414 38.965625) scale(0.7)"/>
      <use xlink:href="#ArialMT-5d" transform="translate(947.294922 0.684375)"/>
     </g>
    </g>
   </g>
   <g id="matplotlib.axis_4">
    <g id="ytick_6">
     <g id="line2d_14">
      <defs>
       <path id="m3d3386650f" d="M 2 0 
L -2 -0 
" style="stroke: #000000; stroke-width: 0.8"/>
      </defs>
      <g>
       <use xlink:href="#m3d3386650f" x="42.84" y="212.742857" style="stroke: #000000; stroke-width: 0.8"/>
      </g>
     </g>
     <g id="text_18">
      <!-- 5 -->
      <g transform="translate(30.666875 217.037545) scale(0.12 -0.12)">
       <use xlink:href="#ArialMT-35"/>
      </g>
     </g>
    </g>
    <g id="ytick_7">
     <g id="line2d_15">
      <g>
       <use xlink:href="#m3d3386650f" x="42.84" y="194.458095" style="stroke: #000000; stroke-width: 0.8"/>
      </g>
     </g>
     <g id="text_19">
      <!-- 10 -->
      <g transform="translate(23.99375 198.752783) scale(0.12 -0.12)">
       <use xlink:href="#ArialMT-31"/>
       <use xlink:href="#ArialMT-30" x="55.615234"/>
      </g>
     </g>
    </g>
    <g id="ytick_8">
     <g id="line2d_16">
      <g>
       <use xlink:href="#m3d3386650f" x="42.84" y="176.173333" style="stroke: #000000; stroke-width: 0.8"/>
      </g>
     </g>
     <g id="text_20">
      <!-- 15 -->
      <g transform="translate(23.99375 180.468021) scale(0.12 -0.12)">
       <use xlink:href="#ArialMT-31"/>
       <use xlink:href="#ArialMT-35" x="55.615234"/>
      </g>
     </g>
    </g>
    <g id="ytick_9">
     <g id="line2d_17">
      <g>
       <use xlink:href="#m3d3386650f" x="42.84" y="157.888571" style="stroke: #000000; stroke-width: 0.8"/>
      </g>
     </g>
     <g id="text_21">
      <!-- 20 -->
      <g transform="translate(23.99375 162.183259) scale(0.12 -0.12)">
       <use xlink:href="#ArialMT-32"/>
       <use xlink:href="#ArialMT-30" x="55.615234"/>
      </g>
     </g>
    </g>
    <g id="ytick_10">
     <g id="line2d_18">
      <g>
       <use xlink:href="#m3d3386650f" x="42.84" y="139.60381" style="stroke: #000000; stroke-width: 0.8"/>
      </g>
     </g>
     <g id="text_22">
      <!-- 25 -->
      <g transform="translate(23.99375 143.898497) scale(0.12 -0.12)">
       <use xlink:href="#ArialMT-32"/>
       <use xlink:href="#ArialMT-35" x="55.615234"/>
      </g>
     </g>
    </g>
    <g id="ytick_11">
     <g id="line2d_19">
      <g>
       <use xlink:href="#m3d3386650f" x="42.84" y="121.319048" style="stroke: #000000; stroke-width: 0.8"/>
      </g>
     </g>
     <g id="text_23">
      <!-- 30 -->
      <g transform="translate(23.99375 125.613735) scale(0.12 -0.12)">
       <use xlink:href="#ArialMT-33"/>
       <use xlink:href="#ArialMT-30" x="55.615234"/>
      </g>
     </g>
    </g>
    <g id="ytick_12">
     <g id="line2d_20">
      <g>
       <use xlink:href="#m3d3386650f" x="42.84" y="103.034286" style="stroke: #000000; stroke-width: 0.8"/>
      </g>
     </g>
     <g id="text_24">
      <!-- 35 -->
      <g transform="translate(23.99375 107.328973) scale(0.12 -0.12)">
       <use xlink:href="#ArialMT-33"/>
       <use xlink:href="#ArialMT-35" x="55.615234"/>
      </g>
     </g>
    </g>
    <g id="ytick_13">
     <g id="line2d_21">
      <g>
       <use xlink:href="#m3d3386650f" x="42.84" y="84.749524" style="stroke: #000000; stroke-width: 0.8"/>
      </g>
     </g>
     <g id="text_25">
      <!-- 40 -->
      <g transform="translate(23.99375 89.044211) scale(0.12 -0.12)">
       <use xlink:href="#ArialMT-34"/>
       <use xlink:href="#ArialMT-30" x="55.615234"/>
      </g>
     </g>
    </g>
    <g id="ytick_14">
     <g id="line2d_22">
      <g>
       <use xlink:href="#m3d3386650f" x="42.84" y="66.464762" style="stroke: #000000; stroke-width: 0.8"/>
      </g>
     </g>
     <g id="text_26">
      <!-- 45 -->
      <g transform="translate(23.99375 70.759449) scale(0.12 -0.12)">
       <use xlink:href="#ArialMT-34"/>
       <use xlink:href="#ArialMT-35" x="55.615234"/>
      </g>
     </g>
    </g>
    <g id="ytick_15">
     <g id="line2d_23">
      <g>
       <use xlink:href="#m3d3386650f" x="42.84" y="48.18" style="stroke: #000000; stroke-width: 0.8"/>
      </g>
     </g>
     <g id="text_27">
      <!-- 50 -->
      <g transform="translate(23.99375 52.474687) scale(0.12 -0.12)">
       <use xlink:href="#ArialMT-35"/>
       <use xlink:href="#ArialMT-30" x="55.615234"/>
      </g>
     </g>
    </g>
    <g id="text_28">
     <!-- Production [$\mathrm{10}^{3} \cdot \mathrm{MT} \cdot \mathrm{yr}^{\mathrm{-1}}$] -->
     <g transform="translate(17.47375 204.441429) rotate(-90) scale(0.12 -0.12)">
      <defs>
       <path id="ArialMT-6f" d="M 213 1659 
Q 213 2581 725 3025 
Q 1153 3394 1769 3394 
Q 2453 3394 2887 2945 
Q 3322 2497 3322 1706 
Q 3322 1066 3130 698 
Q 2938 331 2570 128 
Q 2203 -75 1769 -75 
Q 1072 -75 642 372 
Q 213 819 213 1659 
z
M 791 1659 
Q 791 1022 1069 705 
Q 1347 388 1769 388 
Q 2188 388 2466 706 
Q 2744 1025 2744 1678 
Q 2744 2294 2464 2611 
Q 2184 2928 1769 2928 
Q 1347 2928 1069 2612 
Q 791 2297 791 1659 
z
" transform="scale(0.015625)"/>
       <path id="ArialMT-64" d="M 2575 0 
L 2575 419 
Q 2259 -75 1647 -75 
Q 1250 -75 917 144 
Q 584 363 401 755 
Q 219 1147 219 1656 
Q 219 2153 384 2558 
Q 550 2963 881 3178 
Q 1213 3394 1622 3394 
Q 1922 3394 2156 3267 
Q 2391 3141 2538 2938 
L 2538 4581 
L 3097 4581 
L 3097 0 
L 2575 0 
z
M 797 1656 
Q 797 1019 1065 703 
Q 1334 388 1700 388 
Q 2069 388 2326 689 
Q 2584 991 2584 1609 
Q 2584 2291 2321 2609 
Q 2059 2928 1675 2928 
Q 1300 2928 1048 2622 
Q 797 2316 797 1656 
z
" transform="scale(0.015625)"/>
       <path id="ArialMT-75" d="M 2597 0 
L 2597 488 
Q 2209 -75 1544 -75 
Q 1250 -75 995 37 
Q 741 150 617 320 
Q 494 491 444 738 
Q 409 903 409 1263 
L 409 3319 
L 972 3319 
L 972 1478 
Q 972 1038 1006 884 
Q 1059 663 1231 536 
Q 1403 409 1656 409 
Q 1909 409 2131 539 
Q 2353 669 2445 892 
Q 2538 1116 2538 1541 
L 2538 3319 
L 3100 3319 
L 3100 0 
L 2597 0 
z
" transform="scale(0.015625)"/>
       <path id="ArialMT-74" d="M 1650 503 
L 1731 6 
Q 1494 -44 1306 -44 
Q 1000 -44 831 53 
Q 663 150 594 308 
Q 525 466 525 972 
L 525 2881 
L 113 2881 
L 113 3319 
L 525 3319 
L 525 4141 
L 1084 4478 
L 1084 3319 
L 1650 3319 
L 1650 2881 
L 1084 2881 
L 1084 941 
Q 1084 700 1114 631 
Q 1144 563 1211 522 
Q 1278 481 1403 481 
Q 1497 481 1650 503 
z
" transform="scale(0.015625)"/>
       <path id="ArialMT-6e" d="M 422 0 
L 422 3319 
L 928 3319 
L 928 2847 
Q 1294 3394 1984 3394 
Q 2284 3394 2536 3286 
Q 2788 3178 2913 3003 
Q 3038 2828 3088 2588 
Q 3119 2431 3119 2041 
L 3119 0 
L 2556 0 
L 2556 2019 
Q 2556 2363 2490 2533 
Q 2425 2703 2258 2804 
Q 2091 2906 1866 2906 
Q 1506 2906 1245 2678 
Q 984 2450 984 1813 
L 984 0 
L 422 0 
z
" transform="scale(0.015625)"/>
       <path id="DejaVuSans-30" d="M 2034 4250 
Q 1547 4250 1301 3770 
Q 1056 3291 1056 2328 
Q 1056 1369 1301 889 
Q 1547 409 2034 409 
Q 2525 409 2770 889 
Q 3016 1369 3016 2328 
Q 3016 3291 2770 3770 
Q 2525 4250 2034 4250 
z
M 2034 4750 
Q 2819 4750 3233 4129 
Q 3647 3509 3647 2328 
Q 3647 1150 3233 529 
Q 2819 -91 2034 -91 
Q 1250 -91 836 529 
Q 422 1150 422 2328 
Q 422 3509 836 4129 
Q 1250 4750 2034 4750 
z
" transform="scale(0.015625)"/>
       <path id="DejaVuSans-33" d="M 2597 2516 
Q 3050 2419 3304 2112 
Q 3559 1806 3559 1356 
Q 3559 666 3084 287 
Q 2609 -91 1734 -91 
Q 1441 -91 1130 -33 
Q 819 25 488 141 
L 488 750 
Q 750 597 1062 519 
Q 1375 441 1716 441 
Q 2309 441 2620 675 
Q 2931 909 2931 1356 
Q 2931 1769 2642 2001 
Q 2353 2234 1838 2234 
L 1294 2234 
L 1294 2753 
L 1863 2753 
Q 2328 2753 2575 2939 
Q 2822 3125 2822 3475 
Q 2822 3834 2567 4026 
Q 2313 4219 1838 4219 
Q 1578 4219 1281 4162 
Q 984 4106 628 3988 
L 628 4550 
Q 988 4650 1302 4700 
Q 1616 4750 1894 4750 
Q 2613 4750 3031 4423 
Q 3450 4097 3450 3541 
Q 3450 3153 3228 2886 
Q 3006 2619 2597 2516 
z
" transform="scale(0.015625)"/>
       <path id="DejaVuSans-4d" d="M 628 4666 
L 1569 4666 
L 2759 1491 
L 3956 4666 
L 4897 4666 
L 4897 0 
L 4281 0 
L 4281 4097 
L 3078 897 
L 2444 897 
L 1241 4097 
L 1241 0 
L 628 0 
L 628 4666 
z
" transform="scale(0.015625)"/>
       <path id="DejaVuSans-54" d="M -19 4666 
L 3928 4666 
L 3928 4134 
L 2272 4134 
L 2272 0 
L 1638 0 
L 1638 4134 
L -19 4134 
L -19 4666 
z
" transform="scale(0.015625)"/>
       <path id="DejaVuSans-79" d="M 2059 -325 
Q 1816 -950 1584 -1140 
Q 1353 -1331 966 -1331 
L 506 -1331 
L 506 -850 
L 844 -850 
Q 1081 -850 1212 -737 
Q 1344 -625 1503 -206 
L 1606 56 
L 191 3500 
L 800 3500 
L 1894 763 
L 2988 3500 
L 3597 3500 
L 2059 -325 
z
" transform="scale(0.015625)"/>
       <path id="DejaVuSans-72" d="M 2631 2963 
Q 2534 3019 2420 3045 
Q 2306 3072 2169 3072 
Q 1681 3072 1420 2755 
Q 1159 2438 1159 1844 
L 1159 0 
L 581 0 
L 581 3500 
L 1159 3500 
L 1159 2956 
Q 1341 3275 1631 3429 
Q 1922 3584 2338 3584 
Q 2397 3584 2469 3576 
Q 2541 3569 2628 3553 
L 2631 2963 
z
" transform="scale(0.015625)"/>
      </defs>
      <use xlink:href="#ArialMT-50" transform="translate(0 0.765625)"/>
      <use xlink:href="#ArialMT-72" transform="translate(66.699219 0.765625)"/>
      <use xlink:href="#ArialMT-6f" transform="translate(100 0.765625)"/>
      <use xlink:href="#ArialMT-64" transform="translate(155.615234 0.765625)"/>
      <use xlink:href="#ArialMT-75" transform="translate(211.230469 0.765625)"/>
      <use xlink:href="#ArialMT-63" transform="translate(266.845703 0.765625)"/>
      <use xlink:href="#ArialMT-74" transform="translate(316.845703 0.765625)"/>
      <use xlink:href="#ArialMT-69" transform="translate(344.628906 0.765625)"/>
      <use xlink:href="#ArialMT-6f" transform="translate(366.845703 0.765625)"/>
      <use xlink:href="#ArialMT-6e" transform="translate(422.460938 0.765625)"/>
      <use xlink:href="#ArialMT-20" transform="translate(478.076172 0.765625)"/>
      <use xlink:href="#ArialMT-5b" transform="translate(505.859375 0.765625)"/>
      <use xlink:href="#DejaVuSans-31" transform="translate(533.642578 0.765625)"/>
      <use xlink:href="#DejaVuSans-30" transform="translate(597.265625 0.765625)"/>
      <use xlink:href="#DejaVuSans-33" transform="translate(661.845703 39.046875) scale(0.7)"/>
      <use xlink:href="#DejaVuSans-22c5" transform="translate(728.598633 0.765625)"/>
      <use xlink:href="#DejaVuSans-4d" transform="translate(779.868164 0.765625)"/>
      <use xlink:href="#DejaVuSans-54" transform="translate(866.147461 0.765625)"/>
      <use xlink:href="#DejaVuSans-22c5" transform="translate(946.713867 0.765625)"/>
      <use xlink:href="#DejaVuSans-79" transform="translate(997.983398 0.765625)"/>
      <use xlink:href="#DejaVuSans-72" transform="translate(1057.163086 0.765625)"/>
      <use xlink:href="#DejaVuSans-2212" transform="translate(1099.233398 39.046875) scale(0.7)"/>
      <use xlink:href="#DejaVuSans-31" transform="translate(1157.885742 39.046875) scale(0.7)"/>
      <use xlink:href="#ArialMT-5d" transform="translate(1205.15625 0.765625)"/>
     </g>
    </g>
   </g>
   <g id="patch_5">
    <path d="M 42.84 212.742857 
L 42.84 48.18 
" style="fill: none; stroke: #000000; stroke-width: 0.8; stroke-linejoin: miter; stroke-linecap: square"/>
   </g>
   <g id="patch_6">
    <path d="M 231.530286 212.742857 
L 231.530286 48.18 
" style="fill: none; stroke: #000000; stroke-width: 0.8; stroke-linejoin: miter; stroke-linecap: square"/>
   </g>
   <g id="patch_7">
    <path d="M 42.84 212.742857 
L 231.530286 212.742857 
" style="fill: none; stroke: #000000; stroke-width: 0.8; stroke-linejoin: miter; stroke-linecap: square"/>
   </g>
   <g id="patch_8">
    <path d="M 42.84 48.18 
L 231.530286 48.18 
" style="fill: none; stroke: #000000; stroke-width: 0.8; stroke-linejoin: miter; stroke-linecap: square"/>
   </g>
  </g>
  <g id="axes_4">
   <g id="matplotlib.axis_5">
    <g id="ytick_16">
     <g id="line2d_24">
      <defs>
       <path id="md5b070b7f6" d="M 0 0 
L -4 0 
" style="stroke: #000000; stroke-width: 0.8"/>
      </defs>
      <g>
       <use xlink:href="#md5b070b7f6" x="231.530286" y="212.742857" style="stroke: #000000; stroke-width: 0.8"/>
      </g>
     </g>
    </g>
    <g id="ytick_17">
     <g id="line2d_25">
      <g>
       <use xlink:href="#md5b070b7f6" x="231.530286" y="194.458095" style="stroke: #000000; stroke-width: 0.8"/>
      </g>
     </g>
    </g>
    <g id="ytick_18">
     <g id="line2d_26">
      <g>
       <use xlink:href="#md5b070b7f6" x="231.530286" y="176.173333" style="stroke: #000000; stroke-width: 0.8"/>
      </g>
     </g>
    </g>
    <g id="ytick_19">
     <g id="line2d_27">
      <g>
       <use xlink:href="#md5b070b7f6" x="231.530286" y="157.888571" style="stroke: #000000; stroke-width: 0.8"/>
      </g>
     </g>
    </g>
    <g id="ytick_20">
     <g id="line2d_28">
      <g>
       <use xlink:href="#md5b070b7f6" x="231.530286" y="139.60381" style="stroke: #000000; stroke-width: 0.8"/>
      </g>
     </g>
    </g>
    <g id="ytick_21">
     <g id="line2d_29">
      <g>
       <use xlink:href="#md5b070b7f6" x="231.530286" y="121.319048" style="stroke: #000000; stroke-width: 0.8"/>
      </g>
     </g>
    </g>
    <g id="ytick_22">
     <g id="line2d_30">
      <g>
       <use xlink:href="#md5b070b7f6" x="231.530286" y="103.034286" style="stroke: #000000; stroke-width: 0.8"/>
      </g>
     </g>
    </g>
    <g id="ytick_23">
     <g id="line2d_31">
      <g>
       <use xlink:href="#md5b070b7f6" x="231.530286" y="84.749524" style="stroke: #000000; stroke-width: 0.8"/>
      </g>
     </g>
    </g>
    <g id="ytick_24">
     <g id="line2d_32">
      <g>
       <use xlink:href="#md5b070b7f6" x="231.530286" y="66.464762" style="stroke: #000000; stroke-width: 0.8"/>
      </g>
     </g>
    </g>
    <g id="ytick_25">
     <g id="line2d_33">
      <g>
       <use xlink:href="#md5b070b7f6" x="231.530286" y="48.18" style="stroke: #000000; stroke-width: 0.8"/>
      </g>
     </g>
    </g>
   </g>
   <g id="patch_9">
    <path d="M 42.84 212.742857 
L 42.84 48.18 
" style="fill: none; stroke: #000000; stroke-width: 0.8; stroke-linejoin: miter; stroke-linecap: square"/>
   </g>
   <g id="patch_10">
    <path d="M 231.530286 212.742857 
L 231.530286 48.18 
" style="fill: none; stroke: #000000; stroke-width: 0.8; stroke-linejoin: miter; stroke-linecap: square"/>
   </g>
   <g id="patch_11">
    <path d="M 42.84 212.742857 
L 231.530286 212.742857 
" style="fill: none; stroke: #000000; stroke-width: 0.8; stroke-linejoin: miter; stroke-linecap: square"/>
   </g>
   <g id="patch_12">
    <path d="M 42.84 48.18 
L 231.530286 48.18 
" style="fill: none; stroke: #000000; stroke-width: 0.8; stroke-linejoin: miter; stroke-linecap: square"/>
   </g>
  </g>
  <g id="axes_5">
   <g id="matplotlib.axis_6">
    <g id="xtick_9">
     <g id="line2d_34">
      <defs>
       <path id="m3f9f533a97" d="M 0 0 
L 0 4 
" style="stroke: #000000; stroke-width: 0.8"/>
      </defs>
      <g>
       <use xlink:href="#m3f9f533a97" x="42.84" y="48.18" style="stroke: #000000; stroke-width: 0.8"/>
      </g>
     </g>
    </g>
    <g id="xtick_10">
     <g id="line2d_35">
      <g>
       <use xlink:href="#m3f9f533a97" x="69.795755" y="48.18" style="stroke: #000000; stroke-width: 0.8"/>
      </g>
     </g>
    </g>
    <g id="xtick_11">
     <g id="line2d_36">
      <g>
       <use xlink:href="#m3f9f533a97" x="96.75151" y="48.18" style="stroke: #000000; stroke-width: 0.8"/>
      </g>
     </g>
    </g>
    <g id="xtick_12">
     <g id="line2d_37">
      <g>
       <use xlink:href="#m3f9f533a97" x="123.707265" y="48.18" style="stroke: #000000; stroke-width: 0.8"/>
      </g>
     </g>
    </g>
    <g id="xtick_13">
     <g id="line2d_38">
      <g>
       <use xlink:href="#m3f9f533a97" x="150.66302" y="48.18" style="stroke: #000000; stroke-width: 0.8"/>
      </g>
     </g>
    </g>
    <g id="xtick_14">
     <g id="line2d_39">
      <g>
       <use xlink:href="#m3f9f533a97" x="177.618776" y="48.18" style="stroke: #000000; stroke-width: 0.8"/>
      </g>
     </g>
    </g>
    <g id="xtick_15">
     <g id="line2d_40">
      <g>
       <use xlink:href="#m3f9f533a97" x="204.574531" y="48.18" style="stroke: #000000; stroke-width: 0.8"/>
      </g>
     </g>
    </g>
    <g id="xtick_16">
     <g id="line2d_41">
      <g>
       <use xlink:href="#m3f9f533a97" x="231.530286" y="48.18" style="stroke: #000000; stroke-width: 0.8"/>
      </g>
     </g>
    </g>
   </g>
   <g id="patch_13">
    <path d="M 42.84 212.742857 
L 42.84 48.18 
" style="fill: none; stroke: #000000; stroke-width: 0.8; stroke-linejoin: miter; stroke-linecap: square"/>
   </g>
   <g id="patch_14">
    <path d="M 231.530286 212.742857 
L 231.530286 48.18 
" style="fill: none; stroke: #000000; stroke-width: 0.8; stroke-linejoin: miter; stroke-linecap: square"/>
   </g>
   <g id="patch_15">
    <path d="M 42.84 212.742857 
L 231.530286 212.742857 
" style="fill: none; stroke: #000000; stroke-width: 0.8; stroke-linejoin: miter; stroke-linecap: square"/>
   </g>
   <g id="patch_16">
    <path d="M 42.84 48.18 
L 231.530286 48.18 
" style="fill: none; stroke: #000000; stroke-width: 0.8; stroke-linejoin: miter; stroke-linecap: square"/>
   </g>
  </g>
 </g>
 <defs>
  <clipPath id="p6f8d03c14d">
   <rect x="266.909714" y="48.18" width="8.228143" height="164.562857"/>
  </clipPath>
  <clipPath id="pa67f279c70">
   <rect x="42.84" y="48.18" width="188.690286" height="164.562857"/>
  </clipPath>
 </defs>
</svg>
