<?xml version="1.0" encoding="utf-8" standalone="no"?>
<!DOCTYPE svg PUBLIC "-//W3C//DTD SVG 1.1//EN"
  "http://www.w3.org/Graphics/SVG/1.1/DTD/svg11.dtd">
<svg xmlns:xlink="http://www.w3.org/1999/xlink" width="416.16pt" height="345.6pt" viewBox="0 0 416.16 345.6" xmlns="http://www.w3.org/2000/svg" version="1.1">
 <metadata>
  <rdf:RDF xmlns:dc="http://purl.org/dc/elements/1.1/" xmlns:cc="http://creativecommons.org/ns#" xmlns:rdf="http://www.w3.org/1999/02/22-rdf-syntax-ns#">
   <cc:Work>
    <dc:type rdf:resource="http://purl.org/dc/dcmitype/StillImage"/>
    <dc:date>2024-01-20T21:30:04.826345</dc:date>
    <dc:format>image/svg+xml</dc:format>
    <dc:creator>
     <cc:Agent>
      <dc:title>Matplotlib v3.7.1, https://matplotlib.org/</dc:title>
     </cc:Agent>
    </dc:creator>
   </cc:Work>
  </rdf:RDF>
 </metadata>
 <defs>
  <style type="text/css">*{stroke-linejoin: round; stroke-linecap: butt}</style>
 </defs>
 <g id="figure_1">
  <g id="patch_1">
   <path d="M 0 345.6 
L 416.16 345.6 
L 416.16 0 
L 0 0 
z
" style="fill: #ffffff; fill-opacity: 0.95"/>
  </g>
  <g id="axes_1"/>
  <g id="axes_2"/>
  <g id="axes_3">
   <g id="patch_2">
    <path d="M 347.413388 142.471837 
L 352.428898 142.471837 
L 352.428898 42.161633 
L 347.413388 42.161633 
z
" style="fill: #ffffff; fill-opacity: 0.95"/>
   </g>
   <g id="QuadMesh_1">
    <path d="M 347.413388 142.471837 
L 352.428898 142.471837 
L 352.428898 131.326259 
L 347.413388 131.326259 
L 347.413388 142.471837 
" clip-path="url(#pc2bc247492)" style="fill: #dae319"/>
    <path d="M 347.413388 131.326259 
L 352.428898 131.326259 
L 352.428898 120.18068 
L 347.413388 120.18068 
L 347.413388 131.326259 
" clip-path="url(#pc2bc247492)" style="fill: #90d743"/>
    <path d="M 347.413388 120.18068 
L 352.428898 120.18068 
L 352.428898 109.035102 
L 347.413388 109.035102 
L 347.413388 120.18068 
" clip-path="url(#pc2bc247492)" style="fill: #4ec36b"/>
    <path d="M 347.413388 109.035102 
L 352.428898 109.035102 
L 352.428898 97.889524 
L 347.413388 97.889524 
L 347.413388 109.035102 
" clip-path="url(#pc2bc247492)" style="fill: #25ab82"/>
    <path d="M 347.413388 97.889524 
L 352.428898 97.889524 
L 352.428898 86.743946 
L 347.413388 86.743946 
L 347.413388 97.889524 
" clip-path="url(#pc2bc247492)" style="fill: #21908d"/>
    <path d="M 347.413388 86.743946 
L 352.428898 86.743946 
L 352.428898 75.598367 
L 347.413388 75.598367 
L 347.413388 86.743946 
" clip-path="url(#pc2bc247492)" style="fill: #2b758e"/>
    <path d="M 347.413388 75.598367 
L 352.428898 75.598367 
L 352.428898 64.452789 
L 347.413388 64.452789 
L 347.413388 75.598367 
" clip-path="url(#pc2bc247492)" style="fill: #375a8c"/>
    <path d="M 347.413388 64.452789 
L 352.428898 64.452789 
L 352.428898 53.307211 
L 347.413388 53.307211 
L 347.413388 64.452789 
" clip-path="url(#pc2bc247492)" style="fill: #443983"/>
    <path d="M 347.413388 53.307211 
L 352.428898 53.307211 
L 352.428898 42.161633 
L 347.413388 42.161633 
L 347.413388 53.307211 
" clip-path="url(#pc2bc247492)" style="fill: #481668"/>
   </g>
   <g id="matplotlib.axis_1"/>
   <g id="matplotlib.axis_2">
    <g id="ytick_1">
     <g id="line2d_1">
      <defs>
       <path id="m3c90766a38" d="M 0 0 
L 3.5 0 
" style="stroke: #000000; stroke-width: 0.8"/>
      </defs>
      <g>
       <use xlink:href="#m3c90766a38" x="352.428898" y="142.471837" style="stroke: #000000; stroke-width: 0.8"/>
      </g>
     </g>
     <g id="text_1">
      <!-- 2.0 -->
      <g transform="translate(359.428898 146.408634) scale(0.11 -0.11)">
       <defs>
        <path id="ArialMT-32" d="M 3222 541 
L 3222 0 
L 194 0 
Q 188 203 259 391 
Q 375 700 629 1000 
Q 884 1300 1366 1694 
Q 2113 2306 2375 2664 
Q 2638 3022 2638 3341 
Q 2638 3675 2398 3904 
Q 2159 4134 1775 4134 
Q 1369 4134 1125 3890 
Q 881 3647 878 3216 
L 300 3275 
Q 359 3922 746 4261 
Q 1134 4600 1788 4600 
Q 2447 4600 2831 4234 
Q 3216 3869 3216 3328 
Q 3216 3053 3103 2787 
Q 2991 2522 2730 2228 
Q 2469 1934 1863 1422 
Q 1356 997 1212 845 
Q 1069 694 975 541 
L 3222 541 
z
" transform="scale(0.015625)"/>
        <path id="ArialMT-2e" d="M 581 0 
L 581 641 
L 1222 641 
L 1222 0 
L 581 0 
z
" transform="scale(0.015625)"/>
        <path id="ArialMT-30" d="M 266 2259 
Q 266 3072 433 3567 
Q 600 4063 929 4331 
Q 1259 4600 1759 4600 
Q 2128 4600 2406 4451 
Q 2684 4303 2865 4023 
Q 3047 3744 3150 3342 
Q 3253 2941 3253 2259 
Q 3253 1453 3087 958 
Q 2922 463 2592 192 
Q 2263 -78 1759 -78 
Q 1097 -78 719 397 
Q 266 969 266 2259 
z
M 844 2259 
Q 844 1131 1108 757 
Q 1372 384 1759 384 
Q 2147 384 2411 759 
Q 2675 1134 2675 2259 
Q 2675 3391 2411 3762 
Q 2147 4134 1753 4134 
Q 1366 4134 1134 3806 
Q 844 3388 844 2259 
z
" transform="scale(0.015625)"/>
       </defs>
       <use xlink:href="#ArialMT-32"/>
       <use xlink:href="#ArialMT-2e" x="55.615234"/>
       <use xlink:href="#ArialMT-30" x="83.398438"/>
      </g>
     </g>
    </g>
    <g id="ytick_2">
     <g id="line2d_2">
      <g>
       <use xlink:href="#m3c90766a38" x="352.428898" y="117.394286" style="stroke: #000000; stroke-width: 0.8"/>
      </g>
     </g>
     <g id="text_2">
      <!-- 6.5 -->
      <g transform="translate(359.428898 121.331083) scale(0.11 -0.11)">
       <defs>
        <path id="ArialMT-36" d="M 3184 3459 
L 2625 3416 
Q 2550 3747 2413 3897 
Q 2184 4138 1850 4138 
Q 1581 4138 1378 3988 
Q 1113 3794 959 3422 
Q 806 3050 800 2363 
Q 1003 2672 1297 2822 
Q 1591 2972 1913 2972 
Q 2475 2972 2870 2558 
Q 3266 2144 3266 1488 
Q 3266 1056 3080 686 
Q 2894 316 2569 119 
Q 2244 -78 1831 -78 
Q 1128 -78 684 439 
Q 241 956 241 2144 
Q 241 3472 731 4075 
Q 1159 4600 1884 4600 
Q 2425 4600 2770 4297 
Q 3116 3994 3184 3459 
z
M 888 1484 
Q 888 1194 1011 928 
Q 1134 663 1356 523 
Q 1578 384 1822 384 
Q 2178 384 2434 671 
Q 2691 959 2691 1453 
Q 2691 1928 2437 2201 
Q 2184 2475 1800 2475 
Q 1419 2475 1153 2201 
Q 888 1928 888 1484 
z
" transform="scale(0.015625)"/>
        <path id="ArialMT-35" d="M 266 1200 
L 856 1250 
Q 922 819 1161 601 
Q 1400 384 1738 384 
Q 2144 384 2425 690 
Q 2706 997 2706 1503 
Q 2706 1984 2436 2262 
Q 2166 2541 1728 2541 
Q 1456 2541 1237 2417 
Q 1019 2294 894 2097 
L 366 2166 
L 809 4519 
L 3088 4519 
L 3088 3981 
L 1259 3981 
L 1013 2750 
Q 1425 3038 1878 3038 
Q 2478 3038 2890 2622 
Q 3303 2206 3303 1553 
Q 3303 931 2941 478 
Q 2500 -78 1738 -78 
Q 1113 -78 717 272 
Q 322 622 266 1200 
z
" transform="scale(0.015625)"/>
       </defs>
       <use xlink:href="#ArialMT-36"/>
       <use xlink:href="#ArialMT-2e" x="55.615234"/>
       <use xlink:href="#ArialMT-35" x="83.398438"/>
      </g>
     </g>
    </g>
    <g id="ytick_3">
     <g id="line2d_3">
      <g>
       <use xlink:href="#m3c90766a38" x="352.428898" y="92.316735" style="stroke: #000000; stroke-width: 0.8"/>
      </g>
     </g>
     <g id="text_3">
      <!-- 11.0 -->
      <g transform="translate(359.428898 96.253532) scale(0.11 -0.11)">
       <defs>
        <path id="ArialMT-31" d="M 2384 0 
L 1822 0 
L 1822 3584 
Q 1619 3391 1289 3197 
Q 959 3003 697 2906 
L 697 3450 
Q 1169 3672 1522 3987 
Q 1875 4303 2022 4600 
L 2384 4600 
L 2384 0 
z
" transform="scale(0.015625)"/>
       </defs>
       <use xlink:href="#ArialMT-31"/>
       <use xlink:href="#ArialMT-31" x="48.240234"/>
       <use xlink:href="#ArialMT-2e" x="103.855469"/>
       <use xlink:href="#ArialMT-30" x="131.638672"/>
      </g>
     </g>
    </g>
    <g id="ytick_4">
     <g id="line2d_4">
      <g>
       <use xlink:href="#m3c90766a38" x="352.428898" y="67.239184" style="stroke: #000000; stroke-width: 0.8"/>
      </g>
     </g>
     <g id="text_4">
      <!-- 15.5 -->
      <g transform="translate(359.428898 71.175981) scale(0.11 -0.11)">
       <use xlink:href="#ArialMT-31"/>
       <use xlink:href="#ArialMT-35" x="55.615234"/>
       <use xlink:href="#ArialMT-2e" x="111.230469"/>
       <use xlink:href="#ArialMT-35" x="139.013672"/>
      </g>
     </g>
    </g>
    <g id="ytick_5">
     <g id="line2d_5">
      <g>
       <use xlink:href="#m3c90766a38" x="352.428898" y="42.161633" style="stroke: #000000; stroke-width: 0.8"/>
      </g>
     </g>
     <g id="text_5">
      <!-- 20.0 -->
      <g transform="translate(359.428898 46.09843) scale(0.11 -0.11)">
       <use xlink:href="#ArialMT-32"/>
       <use xlink:href="#ArialMT-30" x="55.615234"/>
       <use xlink:href="#ArialMT-2e" x="111.230469"/>
       <use xlink:href="#ArialMT-30" x="139.013672"/>
      </g>
     </g>
    </g>
   </g>
   <g id="LineCollection_1"/>
   <g id="patch_3">
    <path d="M 347.413388 142.471837 
L 349.921143 142.471837 
L 352.428898 142.471837 
L 352.428898 42.161633 
L 349.921143 42.161633 
L 347.413388 42.161633 
L 347.413388 142.471837 
z
" style="fill: none; stroke: #000000; stroke-width: 0.8; stroke-linejoin: miter; stroke-linecap: square"/>
   </g>
   <g id="text_6">
    <!-- MSP -->
    <g transform="translate(336.918955 20.816633) scale(0.12 -0.12)">
     <defs>
      <path id="ArialMT-4d" d="M 475 0 
L 475 4581 
L 1388 4581 
L 2472 1338 
Q 2622 884 2691 659 
Q 2769 909 2934 1394 
L 4031 4581 
L 4847 4581 
L 4847 0 
L 4263 0 
L 4263 3834 
L 2931 0 
L 2384 0 
L 1059 3900 
L 1059 0 
L 475 0 
z
" transform="scale(0.015625)"/>
      <path id="ArialMT-53" d="M 288 1472 
L 859 1522 
Q 900 1178 1048 958 
Q 1197 738 1509 602 
Q 1822 466 2213 466 
Q 2559 466 2825 569 
Q 3091 672 3220 851 
Q 3350 1031 3350 1244 
Q 3350 1459 3225 1620 
Q 3100 1781 2813 1891 
Q 2628 1963 1997 2114 
Q 1366 2266 1113 2400 
Q 784 2572 623 2826 
Q 463 3081 463 3397 
Q 463 3744 659 4045 
Q 856 4347 1234 4503 
Q 1613 4659 2075 4659 
Q 2584 4659 2973 4495 
Q 3363 4331 3572 4012 
Q 3781 3694 3797 3291 
L 3216 3247 
Q 3169 3681 2898 3903 
Q 2628 4125 2100 4125 
Q 1550 4125 1298 3923 
Q 1047 3722 1047 3438 
Q 1047 3191 1225 3031 
Q 1400 2872 2139 2705 
Q 2878 2538 3153 2413 
Q 3553 2228 3743 1945 
Q 3934 1663 3934 1294 
Q 3934 928 3725 604 
Q 3516 281 3123 101 
Q 2731 -78 2241 -78 
Q 1619 -78 1198 103 
Q 778 284 539 648 
Q 300 1013 288 1472 
z
" transform="scale(0.015625)"/>
      <path id="ArialMT-50" d="M 494 0 
L 494 4581 
L 2222 4581 
Q 2678 4581 2919 4538 
Q 3256 4481 3484 4323 
Q 3713 4166 3852 3881 
Q 3991 3597 3991 3256 
Q 3991 2672 3619 2267 
Q 3247 1863 2275 1863 
L 1100 1863 
L 1100 0 
L 494 0 
z
M 1100 2403 
L 2284 2403 
Q 2872 2403 3119 2622 
Q 3366 2841 3366 3238 
Q 3366 3525 3220 3729 
Q 3075 3934 2838 4000 
Q 2684 4041 2272 4041 
L 1100 4041 
L 1100 2403 
z
" transform="scale(0.015625)"/>
     </defs>
     <use xlink:href="#ArialMT-4d"/>
     <use xlink:href="#ArialMT-53" x="83.300781"/>
     <use xlink:href="#ArialMT-50" x="150"/>
    </g>
    <!-- [$\mathrm{USD} \cdot \mathrm{kg}^{\mathrm{-1}}$] -->
    <g transform="translate(315.781143 36.161633) scale(0.12 -0.12)">
     <defs>
      <path id="ArialMT-5b" d="M 434 -1272 
L 434 4581 
L 1675 4581 
L 1675 4116 
L 997 4116 
L 997 -806 
L 1675 -806 
L 1675 -1272 
L 434 -1272 
z
" transform="scale(0.015625)"/>
      <path id="DejaVuSans-55" d="M 556 4666 
L 1191 4666 
L 1191 1831 
Q 1191 1081 1462 751 
Q 1734 422 2344 422 
Q 2950 422 3222 751 
Q 3494 1081 3494 1831 
L 3494 4666 
L 4128 4666 
L 4128 1753 
Q 4128 841 3676 375 
Q 3225 -91 2344 -91 
Q 1459 -91 1007 375 
Q 556 841 556 1753 
L 556 4666 
z
" transform="scale(0.015625)"/>
      <path id="DejaVuSans-53" d="M 3425 4513 
L 3425 3897 
Q 3066 4069 2747 4153 
Q 2428 4238 2131 4238 
Q 1616 4238 1336 4038 
Q 1056 3838 1056 3469 
Q 1056 3159 1242 3001 
Q 1428 2844 1947 2747 
L 2328 2669 
Q 3034 2534 3370 2195 
Q 3706 1856 3706 1288 
Q 3706 609 3251 259 
Q 2797 -91 1919 -91 
Q 1588 -91 1214 -16 
Q 841 59 441 206 
L 441 856 
Q 825 641 1194 531 
Q 1563 422 1919 422 
Q 2459 422 2753 634 
Q 3047 847 3047 1241 
Q 3047 1584 2836 1778 
Q 2625 1972 2144 2069 
L 1759 2144 
Q 1053 2284 737 2584 
Q 422 2884 422 3419 
Q 422 4038 858 4394 
Q 1294 4750 2059 4750 
Q 2388 4750 2728 4690 
Q 3069 4631 3425 4513 
z
" transform="scale(0.015625)"/>
      <path id="DejaVuSans-44" d="M 1259 4147 
L 1259 519 
L 2022 519 
Q 2988 519 3436 956 
Q 3884 1394 3884 2338 
Q 3884 3275 3436 3711 
Q 2988 4147 2022 4147 
L 1259 4147 
z
M 628 4666 
L 1925 4666 
Q 3281 4666 3915 4102 
Q 4550 3538 4550 2338 
Q 4550 1131 3912 565 
Q 3275 0 1925 0 
L 628 0 
L 628 4666 
z
" transform="scale(0.015625)"/>
      <path id="DejaVuSans-22c5" d="M 684 2619 
L 1344 2619 
L 1344 1825 
L 684 1825 
L 684 2619 
z
" transform="scale(0.015625)"/>
      <path id="DejaVuSans-6b" d="M 581 4863 
L 1159 4863 
L 1159 1991 
L 2875 3500 
L 3609 3500 
L 1753 1863 
L 3688 0 
L 2938 0 
L 1159 1709 
L 1159 0 
L 581 0 
L 581 4863 
z
" transform="scale(0.015625)"/>
      <path id="DejaVuSans-67" d="M 2906 1791 
Q 2906 2416 2648 2759 
Q 2391 3103 1925 3103 
Q 1463 3103 1205 2759 
Q 947 2416 947 1791 
Q 947 1169 1205 825 
Q 1463 481 1925 481 
Q 2391 481 2648 825 
Q 2906 1169 2906 1791 
z
M 3481 434 
Q 3481 -459 3084 -895 
Q 2688 -1331 1869 -1331 
Q 1566 -1331 1297 -1286 
Q 1028 -1241 775 -1147 
L 775 -588 
Q 1028 -725 1275 -790 
Q 1522 -856 1778 -856 
Q 2344 -856 2625 -561 
Q 2906 -266 2906 331 
L 2906 616 
Q 2728 306 2450 153 
Q 2172 0 1784 0 
Q 1141 0 747 490 
Q 353 981 353 1791 
Q 353 2603 747 3093 
Q 1141 3584 1784 3584 
Q 2172 3584 2450 3431 
Q 2728 3278 2906 2969 
L 2906 3500 
L 3481 3500 
L 3481 434 
z
" transform="scale(0.015625)"/>
      <path id="DejaVuSans-2212" d="M 678 2272 
L 4684 2272 
L 4684 1741 
L 678 1741 
L 678 2272 
z
" transform="scale(0.015625)"/>
      <path id="DejaVuSans-31" d="M 794 531 
L 1825 531 
L 1825 4091 
L 703 3866 
L 703 4441 
L 1819 4666 
L 2450 4666 
L 2450 531 
L 3481 531 
L 3481 0 
L 794 0 
L 794 531 
z
" transform="scale(0.015625)"/>
      <path id="ArialMT-5d" d="M 1363 -1272 
L 122 -1272 
L 122 -806 
L 800 -806 
L 800 4116 
L 122 4116 
L 122 4581 
L 1363 4581 
L 1363 -1272 
z
" transform="scale(0.015625)"/>
     </defs>
     <use xlink:href="#ArialMT-5b" transform="translate(0 0.684375)"/>
     <use xlink:href="#DejaVuSans-55" transform="translate(27.783203 0.684375)"/>
     <use xlink:href="#DejaVuSans-53" transform="translate(100.976562 0.684375)"/>
     <use xlink:href="#DejaVuSans-44" transform="translate(164.453125 0.684375)"/>
     <use xlink:href="#DejaVuSans-22c5" transform="translate(260.9375 0.684375)"/>
     <use xlink:href="#DejaVuSans-6b" transform="translate(312.207031 0.684375)"/>
     <use xlink:href="#DejaVuSans-67" transform="translate(370.117188 0.684375)"/>
     <use xlink:href="#DejaVuSans-2212" transform="translate(434.550781 38.965625) scale(0.7)"/>
     <use xlink:href="#DejaVuSans-31" transform="translate(493.203125 38.965625) scale(0.7)"/>
     <use xlink:href="#ArialMT-5d" transform="translate(540.473633 0.684375)"/>
    </g>
   </g>
  </g>
  <g id="axes_4">
   <g id="patch_4">
    <path d="M 347.413388 280.398367 
L 352.428898 280.398367 
L 352.428898 180.088163 
L 347.413388 180.088163 
z
" style="fill: #ffffff; fill-opacity: 0.95"/>
   </g>
   <g id="QuadMesh_2">
    <path d="M 347.413388 280.398367 
L 352.428898 280.398367 
L 352.428898 269.252789 
L 347.413388 269.252789 
L 347.413388 280.398367 
" clip-path="url(#p28585bec9e)" style="fill: #ffbc78"/>
    <path d="M 347.413388 269.252789 
L 352.428898 269.252789 
L 352.428898 258.107211 
L 347.413388 258.107211 
L 347.413388 269.252789 
" clip-path="url(#p28585bec9e)" style="fill: #ffa66a"/>
    <path d="M 347.413388 258.107211 
L 352.428898 258.107211 
L 352.428898 246.961633 
L 347.413388 246.961633 
L 347.413388 258.107211 
" clip-path="url(#p28585bec9e)" style="fill: #e3905c"/>
    <path d="M 347.413388 246.961633 
L 352.428898 246.961633 
L 352.428898 235.816054 
L 347.413388 235.816054 
L 347.413388 246.961633 
" clip-path="url(#p28585bec9e)" style="fill: #c17a4e"/>
    <path d="M 347.413388 235.816054 
L 352.428898 235.816054 
L 352.428898 224.670476 
L 347.413388 224.670476 
L 347.413388 235.816054 
" clip-path="url(#p28585bec9e)" style="fill: #9d633f"/>
    <path d="M 347.413388 224.670476 
L 352.428898 224.670476 
L 352.428898 213.524898 
L 347.413388 213.524898 
L 347.413388 224.670476 
" clip-path="url(#p28585bec9e)" style="fill: #7a4d31"/>
    <path d="M 347.413388 213.524898 
L 352.428898 213.524898 
L 352.428898 202.37932 
L 347.413388 202.37932 
L 347.413388 213.524898 
" clip-path="url(#p28585bec9e)" style="fill: #583723"/>
    <path d="M 347.413388 202.37932 
L 352.428898 202.37932 
L 352.428898 191.233741 
L 347.413388 191.233741 
L 347.413388 202.37932 
" clip-path="url(#p28585bec9e)" style="fill: #342115"/>
    <path d="M 347.413388 191.233741 
L 352.428898 191.233741 
L 352.428898 180.088163 
L 347.413388 180.088163 
L 347.413388 191.233741 
" clip-path="url(#p28585bec9e)" style="fill: #110b07"/>
   </g>
   <g id="matplotlib.axis_3"/>
   <g id="matplotlib.axis_4">
    <g id="ytick_6">
     <g id="line2d_6">
      <g>
       <use xlink:href="#m3c90766a38" x="352.428898" y="280.398367" style="stroke: #000000; stroke-width: 0.8"/>
      </g>
     </g>
     <g id="text_7">
      <!-- 9 -->
      <g transform="translate(359.428898 284.335164) scale(0.11 -0.11)">
       <defs>
        <path id="ArialMT-39" d="M 350 1059 
L 891 1109 
Q 959 728 1153 556 
Q 1347 384 1650 384 
Q 1909 384 2104 503 
Q 2300 622 2425 820 
Q 2550 1019 2634 1356 
Q 2719 1694 2719 2044 
Q 2719 2081 2716 2156 
Q 2547 1888 2255 1720 
Q 1963 1553 1622 1553 
Q 1053 1553 659 1965 
Q 266 2378 266 3053 
Q 266 3750 677 4175 
Q 1088 4600 1706 4600 
Q 2153 4600 2523 4359 
Q 2894 4119 3086 3673 
Q 3278 3228 3278 2384 
Q 3278 1506 3087 986 
Q 2897 466 2520 194 
Q 2144 -78 1638 -78 
Q 1100 -78 759 220 
Q 419 519 350 1059 
z
M 2653 3081 
Q 2653 3566 2395 3850 
Q 2138 4134 1775 4134 
Q 1400 4134 1122 3828 
Q 844 3522 844 3034 
Q 844 2597 1108 2323 
Q 1372 2050 1759 2050 
Q 2150 2050 2401 2323 
Q 2653 2597 2653 3081 
z
" transform="scale(0.015625)"/>
       </defs>
       <use xlink:href="#ArialMT-39"/>
      </g>
     </g>
    </g>
    <g id="ytick_7">
     <g id="line2d_7">
      <g>
       <use xlink:href="#m3c90766a38" x="352.428898" y="255.320816" style="stroke: #000000; stroke-width: 0.8"/>
      </g>
     </g>
     <g id="text_8">
      <!-- 28 -->
      <g transform="translate(359.428898 259.257613) scale(0.11 -0.11)">
       <defs>
        <path id="ArialMT-38" d="M 1131 2484 
Q 781 2613 612 2850 
Q 444 3088 444 3419 
Q 444 3919 803 4259 
Q 1163 4600 1759 4600 
Q 2359 4600 2725 4251 
Q 3091 3903 3091 3403 
Q 3091 3084 2923 2848 
Q 2756 2613 2416 2484 
Q 2838 2347 3058 2040 
Q 3278 1734 3278 1309 
Q 3278 722 2862 322 
Q 2447 -78 1769 -78 
Q 1091 -78 675 323 
Q 259 725 259 1325 
Q 259 1772 486 2073 
Q 713 2375 1131 2484 
z
M 1019 3438 
Q 1019 3113 1228 2906 
Q 1438 2700 1772 2700 
Q 2097 2700 2305 2904 
Q 2513 3109 2513 3406 
Q 2513 3716 2298 3927 
Q 2084 4138 1766 4138 
Q 1444 4138 1231 3931 
Q 1019 3725 1019 3438 
z
M 838 1322 
Q 838 1081 952 856 
Q 1066 631 1291 507 
Q 1516 384 1775 384 
Q 2178 384 2440 643 
Q 2703 903 2703 1303 
Q 2703 1709 2433 1975 
Q 2163 2241 1756 2241 
Q 1359 2241 1098 1978 
Q 838 1716 838 1322 
z
" transform="scale(0.015625)"/>
       </defs>
       <use xlink:href="#ArialMT-32"/>
       <use xlink:href="#ArialMT-38" x="55.615234"/>
      </g>
     </g>
    </g>
    <g id="ytick_8">
     <g id="line2d_8">
      <g>
       <use xlink:href="#m3c90766a38" x="352.428898" y="230.243265" style="stroke: #000000; stroke-width: 0.8"/>
      </g>
     </g>
     <g id="text_9">
      <!-- 47 -->
      <g transform="translate(359.428898 234.180062) scale(0.11 -0.11)">
       <defs>
        <path id="ArialMT-34" d="M 2069 0 
L 2069 1097 
L 81 1097 
L 81 1613 
L 2172 4581 
L 2631 4581 
L 2631 1613 
L 3250 1613 
L 3250 1097 
L 2631 1097 
L 2631 0 
L 2069 0 
z
M 2069 1613 
L 2069 3678 
L 634 1613 
L 2069 1613 
z
" transform="scale(0.015625)"/>
        <path id="ArialMT-37" d="M 303 3981 
L 303 4522 
L 3269 4522 
L 3269 4084 
Q 2831 3619 2401 2847 
Q 1972 2075 1738 1259 
Q 1569 684 1522 0 
L 944 0 
Q 953 541 1156 1306 
Q 1359 2072 1739 2783 
Q 2119 3494 2547 3981 
L 303 3981 
z
" transform="scale(0.015625)"/>
       </defs>
       <use xlink:href="#ArialMT-34"/>
       <use xlink:href="#ArialMT-37" x="55.615234"/>
      </g>
     </g>
    </g>
    <g id="ytick_9">
     <g id="line2d_9">
      <g>
       <use xlink:href="#m3c90766a38" x="352.428898" y="205.165714" style="stroke: #000000; stroke-width: 0.8"/>
      </g>
     </g>
     <g id="text_10">
      <!-- 66 -->
      <g transform="translate(359.428898 209.102511) scale(0.11 -0.11)">
       <use xlink:href="#ArialMT-36"/>
       <use xlink:href="#ArialMT-36" x="55.615234"/>
      </g>
     </g>
    </g>
    <g id="ytick_10">
     <g id="line2d_10">
      <g>
       <use xlink:href="#m3c90766a38" x="352.428898" y="180.088163" style="stroke: #000000; stroke-width: 0.8"/>
      </g>
     </g>
     <g id="text_11">
      <!-- 85 -->
      <g transform="translate(359.428898 184.02496) scale(0.11 -0.11)">
       <use xlink:href="#ArialMT-38"/>
       <use xlink:href="#ArialMT-35" x="55.615234"/>
      </g>
     </g>
    </g>
   </g>
   <g id="LineCollection_2"/>
   <g id="patch_5">
    <path d="M 347.413388 280.398367 
L 349.921143 280.398367 
L 352.428898 280.398367 
L 352.428898 180.088163 
L 349.921143 180.088163 
L 347.413388 180.088163 
L 347.413388 280.398367 
z
" style="fill: none; stroke: #000000; stroke-width: 0.8; stroke-linejoin: miter; stroke-linecap: square"/>
   </g>
   <g id="text_12">
    <!-- Carbon intensity -->
    <g transform="translate(306.567393 158.602538) scale(0.12 -0.12)">
     <defs>
      <path id="ArialMT-43" d="M 3763 1606 
L 4369 1453 
Q 4178 706 3683 314 
Q 3188 -78 2472 -78 
Q 1731 -78 1267 223 
Q 803 525 561 1097 
Q 319 1669 319 2325 
Q 319 3041 592 3573 
Q 866 4106 1370 4382 
Q 1875 4659 2481 4659 
Q 3169 4659 3637 4309 
Q 4106 3959 4291 3325 
L 3694 3184 
Q 3534 3684 3231 3912 
Q 2928 4141 2469 4141 
Q 1941 4141 1586 3887 
Q 1231 3634 1087 3207 
Q 944 2781 944 2328 
Q 944 1744 1114 1308 
Q 1284 872 1643 656 
Q 2003 441 2422 441 
Q 2931 441 3284 734 
Q 3638 1028 3763 1606 
z
" transform="scale(0.015625)"/>
      <path id="ArialMT-61" d="M 2588 409 
Q 2275 144 1986 34 
Q 1697 -75 1366 -75 
Q 819 -75 525 192 
Q 231 459 231 875 
Q 231 1119 342 1320 
Q 453 1522 633 1644 
Q 813 1766 1038 1828 
Q 1203 1872 1538 1913 
Q 2219 1994 2541 2106 
Q 2544 2222 2544 2253 
Q 2544 2597 2384 2738 
Q 2169 2928 1744 2928 
Q 1347 2928 1158 2789 
Q 969 2650 878 2297 
L 328 2372 
Q 403 2725 575 2942 
Q 747 3159 1072 3276 
Q 1397 3394 1825 3394 
Q 2250 3394 2515 3294 
Q 2781 3194 2906 3042 
Q 3031 2891 3081 2659 
Q 3109 2516 3109 2141 
L 3109 1391 
Q 3109 606 3145 398 
Q 3181 191 3288 0 
L 2700 0 
Q 2613 175 2588 409 
z
M 2541 1666 
Q 2234 1541 1622 1453 
Q 1275 1403 1131 1340 
Q 988 1278 909 1158 
Q 831 1038 831 891 
Q 831 666 1001 516 
Q 1172 366 1500 366 
Q 1825 366 2078 508 
Q 2331 650 2450 897 
Q 2541 1088 2541 1459 
L 2541 1666 
z
" transform="scale(0.015625)"/>
      <path id="ArialMT-72" d="M 416 0 
L 416 3319 
L 922 3319 
L 922 2816 
Q 1116 3169 1280 3281 
Q 1444 3394 1641 3394 
Q 1925 3394 2219 3213 
L 2025 2691 
Q 1819 2813 1613 2813 
Q 1428 2813 1281 2702 
Q 1134 2591 1072 2394 
Q 978 2094 978 1738 
L 978 0 
L 416 0 
z
" transform="scale(0.015625)"/>
      <path id="ArialMT-62" d="M 941 0 
L 419 0 
L 419 4581 
L 981 4581 
L 981 2947 
Q 1338 3394 1891 3394 
Q 2197 3394 2470 3270 
Q 2744 3147 2920 2923 
Q 3097 2700 3197 2384 
Q 3297 2069 3297 1709 
Q 3297 856 2875 390 
Q 2453 -75 1863 -75 
Q 1275 -75 941 416 
L 941 0 
z
M 934 1684 
Q 934 1088 1097 822 
Q 1363 388 1816 388 
Q 2184 388 2453 708 
Q 2722 1028 2722 1663 
Q 2722 2313 2464 2622 
Q 2206 2931 1841 2931 
Q 1472 2931 1203 2611 
Q 934 2291 934 1684 
z
" transform="scale(0.015625)"/>
      <path id="ArialMT-6f" d="M 213 1659 
Q 213 2581 725 3025 
Q 1153 3394 1769 3394 
Q 2453 3394 2887 2945 
Q 3322 2497 3322 1706 
Q 3322 1066 3130 698 
Q 2938 331 2570 128 
Q 2203 -75 1769 -75 
Q 1072 -75 642 372 
Q 213 819 213 1659 
z
M 791 1659 
Q 791 1022 1069 705 
Q 1347 388 1769 388 
Q 2188 388 2466 706 
Q 2744 1025 2744 1678 
Q 2744 2294 2464 2611 
Q 2184 2928 1769 2928 
Q 1347 2928 1069 2612 
Q 791 2297 791 1659 
z
" transform="scale(0.015625)"/>
      <path id="ArialMT-6e" d="M 422 0 
L 422 3319 
L 928 3319 
L 928 2847 
Q 1294 3394 1984 3394 
Q 2284 3394 2536 3286 
Q 2788 3178 2913 3003 
Q 3038 2828 3088 2588 
Q 3119 2431 3119 2041 
L 3119 0 
L 2556 0 
L 2556 2019 
Q 2556 2363 2490 2533 
Q 2425 2703 2258 2804 
Q 2091 2906 1866 2906 
Q 1506 2906 1245 2678 
Q 984 2450 984 1813 
L 984 0 
L 422 0 
z
" transform="scale(0.015625)"/>
      <path id="ArialMT-20" transform="scale(0.015625)"/>
      <path id="ArialMT-69" d="M 425 3934 
L 425 4581 
L 988 4581 
L 988 3934 
L 425 3934 
z
M 425 0 
L 425 3319 
L 988 3319 
L 988 0 
L 425 0 
z
" transform="scale(0.015625)"/>
      <path id="ArialMT-74" d="M 1650 503 
L 1731 6 
Q 1494 -44 1306 -44 
Q 1000 -44 831 53 
Q 663 150 594 308 
Q 525 466 525 972 
L 525 2881 
L 113 2881 
L 113 3319 
L 525 3319 
L 525 4141 
L 1084 4478 
L 1084 3319 
L 1650 3319 
L 1650 2881 
L 1084 2881 
L 1084 941 
Q 1084 700 1114 631 
Q 1144 563 1211 522 
Q 1278 481 1403 481 
Q 1497 481 1650 503 
z
" transform="scale(0.015625)"/>
      <path id="ArialMT-65" d="M 2694 1069 
L 3275 997 
Q 3138 488 2766 206 
Q 2394 -75 1816 -75 
Q 1088 -75 661 373 
Q 234 822 234 1631 
Q 234 2469 665 2931 
Q 1097 3394 1784 3394 
Q 2450 3394 2872 2941 
Q 3294 2488 3294 1666 
Q 3294 1616 3291 1516 
L 816 1516 
Q 847 969 1125 678 
Q 1403 388 1819 388 
Q 2128 388 2347 550 
Q 2566 713 2694 1069 
z
M 847 1978 
L 2700 1978 
Q 2663 2397 2488 2606 
Q 2219 2931 1791 2931 
Q 1403 2931 1139 2672 
Q 875 2413 847 1978 
z
" transform="scale(0.015625)"/>
      <path id="ArialMT-73" d="M 197 991 
L 753 1078 
Q 800 744 1014 566 
Q 1228 388 1613 388 
Q 2000 388 2187 545 
Q 2375 703 2375 916 
Q 2375 1106 2209 1216 
Q 2094 1291 1634 1406 
Q 1016 1563 777 1677 
Q 538 1791 414 1992 
Q 291 2194 291 2438 
Q 291 2659 392 2848 
Q 494 3038 669 3163 
Q 800 3259 1026 3326 
Q 1253 3394 1513 3394 
Q 1903 3394 2198 3281 
Q 2494 3169 2634 2976 
Q 2775 2784 2828 2463 
L 2278 2388 
Q 2241 2644 2061 2787 
Q 1881 2931 1553 2931 
Q 1166 2931 1000 2803 
Q 834 2675 834 2503 
Q 834 2394 903 2306 
Q 972 2216 1119 2156 
Q 1203 2125 1616 2013 
Q 2213 1853 2448 1751 
Q 2684 1650 2818 1456 
Q 2953 1263 2953 975 
Q 2953 694 2789 445 
Q 2625 197 2315 61 
Q 2006 -75 1616 -75 
Q 969 -75 630 194 
Q 291 463 197 991 
z
" transform="scale(0.015625)"/>
      <path id="ArialMT-79" d="M 397 -1278 
L 334 -750 
Q 519 -800 656 -800 
Q 844 -800 956 -737 
Q 1069 -675 1141 -563 
Q 1194 -478 1313 -144 
Q 1328 -97 1363 -6 
L 103 3319 
L 709 3319 
L 1400 1397 
Q 1534 1031 1641 628 
Q 1738 1016 1872 1384 
L 2581 3319 
L 3144 3319 
L 1881 -56 
Q 1678 -603 1566 -809 
Q 1416 -1088 1222 -1217 
Q 1028 -1347 759 -1347 
Q 597 -1347 397 -1278 
z
" transform="scale(0.015625)"/>
     </defs>
     <use xlink:href="#ArialMT-43"/>
     <use xlink:href="#ArialMT-61" x="72.216797"/>
     <use xlink:href="#ArialMT-72" x="127.832031"/>
     <use xlink:href="#ArialMT-62" x="161.132812"/>
     <use xlink:href="#ArialMT-6f" x="216.748047"/>
     <use xlink:href="#ArialMT-6e" x="272.363281"/>
     <use xlink:href="#ArialMT-20" x="327.978516"/>
     <use xlink:href="#ArialMT-69" x="355.761719"/>
     <use xlink:href="#ArialMT-6e" x="377.978516"/>
     <use xlink:href="#ArialMT-74" x="433.59375"/>
     <use xlink:href="#ArialMT-65" x="461.376953"/>
     <use xlink:href="#ArialMT-6e" x="516.992188"/>
     <use xlink:href="#ArialMT-73" x="572.607422"/>
     <use xlink:href="#ArialMT-69" x="622.607422"/>
     <use xlink:href="#ArialMT-74" x="644.824219"/>
     <use xlink:href="#ArialMT-79" x="672.607422"/>
    </g>
    <!-- [$\mathrm{kg} \cdot \mathrm{CO}_{\mathrm{2}}\mathrm{e} \cdot \mathrm{kg}^{\mathrm{-1}}$] -->
    <g transform="translate(301.561143 174.088163) scale(0.12 -0.12)">
     <defs>
      <path id="DejaVuSans-43" d="M 4122 4306 
L 4122 3641 
Q 3803 3938 3442 4084 
Q 3081 4231 2675 4231 
Q 1875 4231 1450 3742 
Q 1025 3253 1025 2328 
Q 1025 1406 1450 917 
Q 1875 428 2675 428 
Q 3081 428 3442 575 
Q 3803 722 4122 1019 
L 4122 359 
Q 3791 134 3420 21 
Q 3050 -91 2638 -91 
Q 1578 -91 968 557 
Q 359 1206 359 2328 
Q 359 3453 968 4101 
Q 1578 4750 2638 4750 
Q 3056 4750 3426 4639 
Q 3797 4528 4122 4306 
z
" transform="scale(0.015625)"/>
      <path id="DejaVuSans-4f" d="M 2522 4238 
Q 1834 4238 1429 3725 
Q 1025 3213 1025 2328 
Q 1025 1447 1429 934 
Q 1834 422 2522 422 
Q 3209 422 3611 934 
Q 4013 1447 4013 2328 
Q 4013 3213 3611 3725 
Q 3209 4238 2522 4238 
z
M 2522 4750 
Q 3503 4750 4090 4092 
Q 4678 3434 4678 2328 
Q 4678 1225 4090 567 
Q 3503 -91 2522 -91 
Q 1538 -91 948 565 
Q 359 1222 359 2328 
Q 359 3434 948 4092 
Q 1538 4750 2522 4750 
z
" transform="scale(0.015625)"/>
      <path id="DejaVuSans-32" d="M 1228 531 
L 3431 531 
L 3431 0 
L 469 0 
L 469 531 
Q 828 903 1448 1529 
Q 2069 2156 2228 2338 
Q 2531 2678 2651 2914 
Q 2772 3150 2772 3378 
Q 2772 3750 2511 3984 
Q 2250 4219 1831 4219 
Q 1534 4219 1204 4116 
Q 875 4013 500 3803 
L 500 4441 
Q 881 4594 1212 4672 
Q 1544 4750 1819 4750 
Q 2544 4750 2975 4387 
Q 3406 4025 3406 3419 
Q 3406 3131 3298 2873 
Q 3191 2616 2906 2266 
Q 2828 2175 2409 1742 
Q 1991 1309 1228 531 
z
" transform="scale(0.015625)"/>
      <path id="DejaVuSans-65" d="M 3597 1894 
L 3597 1613 
L 953 1613 
Q 991 1019 1311 708 
Q 1631 397 2203 397 
Q 2534 397 2845 478 
Q 3156 559 3463 722 
L 3463 178 
Q 3153 47 2828 -22 
Q 2503 -91 2169 -91 
Q 1331 -91 842 396 
Q 353 884 353 1716 
Q 353 2575 817 3079 
Q 1281 3584 2069 3584 
Q 2775 3584 3186 3129 
Q 3597 2675 3597 1894 
z
M 3022 2063 
Q 3016 2534 2758 2815 
Q 2500 3097 2075 3097 
Q 1594 3097 1305 2825 
Q 1016 2553 972 2059 
L 3022 2063 
z
" transform="scale(0.015625)"/>
     </defs>
     <use xlink:href="#ArialMT-5b" transform="translate(0 0.684375)"/>
     <use xlink:href="#DejaVuSans-6b" transform="translate(27.783203 0.684375)"/>
     <use xlink:href="#DejaVuSans-67" transform="translate(85.693359 0.684375)"/>
     <use xlink:href="#DejaVuSans-22c5" transform="translate(168.652344 0.684375)"/>
     <use xlink:href="#DejaVuSans-43" transform="translate(219.921875 0.684375)"/>
     <use xlink:href="#DejaVuSans-4f" transform="translate(289.746094 0.684375)"/>
     <use xlink:href="#DejaVuSans-32" transform="translate(369.414062 -15.721875) scale(0.7)"/>
     <use xlink:href="#DejaVuSans-65" transform="translate(416.68457 0.684375)"/>
     <use xlink:href="#DejaVuSans-22c5" transform="translate(497.69043 0.684375)"/>
     <use xlink:href="#DejaVuSans-6b" transform="translate(548.959961 0.684375)"/>
     <use xlink:href="#DejaVuSans-67" transform="translate(606.870117 0.684375)"/>
     <use xlink:href="#DejaVuSans-2212" transform="translate(671.303711 38.965625) scale(0.7)"/>
     <use xlink:href="#DejaVuSans-31" transform="translate(729.956055 38.965625) scale(0.7)"/>
     <use xlink:href="#ArialMT-5d" transform="translate(777.226562 0.684375)"/>
    </g>
   </g>
  </g>
  <g id="axes_5">
   <g id="patch_6">
    <path d="M 52.02 155.010612 
L 300.772327 155.010612 
L 300.772327 29.622857 
L 52.02 29.622857 
z
" style="fill: #ffffff; fill-opacity: 0.95"/>
   </g>
   <g id="PathCollection_1">
    <path d="M 300.772327 134.553042 
L 300.772327 134.112653 
L 300.772327 116.697687 
L 300.772327 99.282721 
L 300.772327 81.867755 
L 300.772327 64.452789 
L 300.772327 47.037823 
L 300.772327 29.622857 
L 273.133179 29.622857 
L 245.494032 29.622857 
L 217.854884 29.622857 
L 190.215737 29.622857 
L 162.57659 29.622857 
L 134.937442 29.622857 
L 129.928823 29.622857 
L 134.937442 45.010647 
L 136.158761 47.037823 
L 151.560034 64.452789 
L 162.57659 76.092168 
L 170.586107 81.867755 
L 190.215737 94.681094 
L 198.779732 99.282721 
L 217.854884 108.568947 
L 237.37242 116.697687 
L 245.494032 119.673203 
L 273.133179 128.368384 
L 298.437999 134.112653 
z
" clip-path="url(#p6878162b69)" style="fill: #dae319"/>
   </g>
   <g id="PathCollection_2">
    <path d="M 217.854884 175.000595 
L 242.635212 186.357551 
L 245.494032 186.357551 
L 273.133179 186.357551 
L 300.772327 186.357551 
L 300.772327 168.942585 
L 300.772327 151.527619 
L 300.772327 134.553042 
L 298.437999 134.112653 
L 273.133179 128.368384 
L 245.494032 119.673203 
L 237.37242 116.697687 
L 217.854884 108.568947 
L 198.779732 99.282721 
L 190.215737 94.681094 
L 170.586107 81.867755 
L 162.57659 76.092168 
L 151.560034 64.452789 
L 136.158761 47.037823 
L 134.937442 45.010647 
L 129.928823 29.622857 
L 107.298295 29.622857 
L 86.824873 29.622857 
L 91.339243 47.037823 
L 97.947111 64.452789 
L 105.075982 81.867755 
L 107.298295 87.059658 
L 115.879792 99.282721 
L 128.19307 116.697687 
L 134.937442 126.032664 
L 145.237994 134.112653 
L 162.57659 146.836406 
L 171.404724 151.527619 
L 190.215737 161.275767 
L 207.875888 168.942585 
z
" clip-path="url(#p6878162b69)" style="fill: #90d743"/>
   </g>
   <g id="PathCollection_3">
    <path d="M 134.937442 170.800796 
L 150.996579 186.357551 
L 162.57659 186.357551 
L 190.215737 186.357551 
L 217.854884 186.357551 
L 242.635212 186.357551 
L 217.854884 175.000595 
L 207.875888 168.942585 
L 190.215737 161.275767 
L 171.404724 151.527619 
L 162.57659 146.836406 
L 145.237994 134.112653 
L 134.937442 126.032664 
L 128.19307 116.697687 
L 115.879792 99.282721 
L 107.298295 87.059658 
L 105.075982 81.867755 
L 97.947111 64.452789 
L 91.339243 47.037823 
L 86.824873 29.622857 
L 79.659147 29.622857 
L 54.684852 29.622857 
L 60.464812 47.037823 
L 68.956365 64.452789 
L 78.35874 81.867755 
L 79.659147 84.112067 
L 87.813185 99.282721 
L 96.671074 116.697687 
L 105.151116 134.112653 
L 107.298295 138.204662 
L 118.943225 151.527619 
L 133.824803 168.942585 
z
" clip-path="url(#p6878162b69)" style="fill: #4ec36b"/>
   </g>
   <g id="PathCollection_4">
    <path d="M 107.298295 173.141601 
L 116.30493 186.357551 
L 134.937442 186.357551 
L 150.996579 186.357551 
L 134.937442 170.800796 
L 133.824803 168.942585 
L 118.943225 151.527619 
L 107.298295 138.204662 
L 105.151116 134.112653 
L 96.671074 116.697687 
L 87.813185 99.282721 
L 79.659147 84.112067 
L 78.35874 81.867755 
L 68.956365 64.452789 
L 60.464812 47.037823 
L 54.684852 29.622857 
L 52.02 29.622857 
L 52.02 47.037823 
L 52.02 64.452789 
L 52.02 81.505699 
L 52.245859 81.867755 
L 64.110144 99.282721 
L 74.822547 116.697687 
L 79.659147 124.625421 
L 85.1336 134.112653 
L 95.589885 151.527619 
L 105.599061 168.942585 
z
" clip-path="url(#p6878162b69)" style="fill: #25ab82"/>
   </g>
   <g id="PathCollection_5">
    <path d="M 107.298295 186.357551 
L 116.30493 186.357551 
L 107.298295 173.141601 
L 105.599061 168.942585 
L 95.589885 151.527619 
L 85.1336 134.112653 
L 79.659147 124.625421 
L 74.822547 116.697687 
L 64.110144 99.282721 
L 52.245859 81.867755 
L 52.02 81.505699 
L 52.02 81.867755 
L 52.02 99.282721 
L 52.02 114.297099 
L 53.65843 116.697687 
L 65.743588 134.112653 
L 77.687868 151.527619 
L 79.659147 154.288856 
L 89.466836 168.942585 
L 97.341387 186.357551 
z
" clip-path="url(#p6878162b69)" style="fill: #21908d"/>
   </g>
   <g id="PathCollection_6">
    <path d="M 79.659147 180.73064 
L 82.446541 186.357551 
L 97.341387 186.357551 
L 89.466836 168.942585 
L 79.659147 154.288856 
L 77.687868 151.527619 
L 65.743588 134.112653 
L 53.65843 116.697687 
L 52.02 114.297099 
L 52.02 116.697687 
L 52.02 134.112653 
L 52.02 140.481932 
L 60.480275 151.527619 
L 73.607037 168.942585 
z
" clip-path="url(#p6878162b69)" style="fill: #2b758e"/>
   </g>
   <g id="PathCollection_7">
    <path d="M 79.659147 186.357551 
L 82.446541 186.357551 
L 79.659147 180.73064 
L 73.607037 168.942585 
L 60.480275 151.527619 
L 52.02 140.481932 
L 52.02 151.527619 
L 52.02 161.291242 
L 58.1697 168.942585 
L 68.062508 186.357551 
z
" clip-path="url(#p6878162b69)" style="fill: #375a8c"/>
   </g>
   <g id="PathCollection_8">
    <path d="M 58.1697 168.942585 
L 52.02 161.291242 
L 52.02 168.942585 
L 52.02 183.371788 
L 53.796075 186.357551 
L 68.062508 186.357551 
z
" clip-path="url(#p6878162b69)" style="fill: #443983"/>
   </g>
   <g id="PathCollection_9">
    <path d="M 52.02 183.371788 
L 52.02 186.357551 
L 53.796075 186.357551 
z
" clip-path="url(#p6878162b69)" style="fill: #481668"/>
   </g>
   <g id="PathCollection_10"/>
   <g id="PathCollection_11">
    <path d="M 300.772327 134.553042 
L 298.437999 134.112653 
L 273.133179 128.368384 
L 245.494032 119.673203 
L 237.37242 116.697687 
L 217.854884 108.568947 
L 198.779732 99.282721 
L 190.215737 94.681094 
L 170.586107 81.867755 
L 162.57659 76.092168 
L 151.560034 64.452789 
L 136.158761 47.037823 
L 134.937442 45.010647 
L 129.928823 29.622857 
" clip-path="url(#p6878162b69)" style="fill: none; stroke: #3d4240; stroke-opacity: 0.1; stroke-width: 0.8"/>
   </g>
   <g id="PathCollection_12">
    <path d="M 242.635212 186.357551 
L 217.854884 175.000595 
L 207.875888 168.942585 
L 190.215737 161.275767 
L 177.157934 154.509018 
" clip-path="url(#p6878162b69)" style="fill: none; stroke: #3d4240; stroke-opacity: 0.1; stroke-width: 0.8"/>
    <path d="M 165.678949 148.48498 
L 162.57659 146.836406 
L 145.237994 134.112653 
L 134.937442 126.032664 
L 128.19307 116.697687 
L 115.879792 99.282721 
L 107.298295 87.059658 
L 105.075982 81.867755 
L 97.947111 64.452789 
L 91.339243 47.037823 
L 86.824873 29.622857 
" clip-path="url(#p6878162b69)" style="fill: none; stroke: #3d4240; stroke-opacity: 0.1; stroke-width: 0.8"/>
   </g>
   <g id="PathCollection_13">
    <path d="M 150.996579 186.357551 
L 134.937442 170.800796 
L 133.824803 168.942585 
L 118.943225 151.527619 
L 107.298295 138.204662 
L 105.151116 134.112653 
L 96.671074 116.697687 
L 87.813185 99.282721 
L 79.659147 84.112067 
L 78.35874 81.867755 
L 68.956365 64.452789 
L 60.464812 47.037823 
L 54.684852 29.622857 
" clip-path="url(#p6878162b69)" style="fill: none; stroke: #3d4240; stroke-opacity: 0.1; stroke-width: 0.8"/>
   </g>
   <g id="PathCollection_14">
    <path d="M 116.30493 186.357551 
L 107.298295 173.141601 
L 105.599061 168.942585 
L 95.589885 151.527619 
L 85.1336 134.112653 
L 84.590499 133.171458 
" clip-path="url(#p6878162b69)" style="fill: none; stroke: #3d4240; stroke-opacity: 0.1; stroke-width: 0.8"/>
    <path d="M 74.527769 116.218472 
L 64.110144 99.282721 
L 52.245859 81.867755 
L 52.02 81.505699 
" clip-path="url(#p6878162b69)" style="fill: none; stroke: #3d4240; stroke-opacity: 0.1; stroke-width: 0.8"/>
   </g>
   <g id="PathCollection_15">
    <path d="M 97.341387 186.357551 
L 89.466836 168.942585 
L 79.659147 154.288856 
L 77.687868 151.527619 
L 65.743588 134.112653 
L 53.65843 116.697687 
L 52.02 114.297099 
" clip-path="url(#p6878162b69)" style="fill: none; stroke: #3d4240; stroke-opacity: 0.1; stroke-width: 0.8"/>
   </g>
   <g id="PathCollection_16">
    <path d="M 82.446541 186.357551 
L 79.659147 180.73064 
L 78.128839 177.749967 
" clip-path="url(#p6878162b69)" style="fill: none; stroke: #3d4240; stroke-opacity: 0.1; stroke-width: 0.8"/>
    <path d="M 67.722195 161.135303 
L 60.480275 151.527619 
L 52.02 140.481932 
" clip-path="url(#p6878162b69)" style="fill: none; stroke: #3d4240; stroke-opacity: 0.1; stroke-width: 0.8"/>
   </g>
   <g id="PathCollection_17">
    <path d="M 68.062508 186.357551 
L 58.1697 168.942585 
L 52.02 161.291242 
" clip-path="url(#p6878162b69)" style="fill: none; stroke: #3d4240; stroke-opacity: 0.1; stroke-width: 0.8"/>
   </g>
   <g id="PathCollection_18">
    <path d="M 53.796075 186.357551 
L 52.02 183.371788 
" clip-path="url(#p6878162b69)" style="fill: none; stroke: #3d4240; stroke-opacity: 0.1; stroke-width: 0.8"/>
   </g>
   <g id="PathCollection_19"/>
   <g id="text_13">
    <g clip-path="url(#p6878162b69)">
     <!-- 6 -->
     <g transform="translate(168.346209 154.371291) scale(0.11 -0.11)">
      <use xlink:href="#ArialMT-36"/>
     </g>
    </g>
   </g>
   <g id="text_14">
    <g clip-path="url(#p6878162b69)">
     <!-- 10 -->
     <g transform="translate(73.542116 127.469093) scale(0.11 -0.11)">
      <use xlink:href="#ArialMT-31"/>
      <use xlink:href="#ArialMT-30" x="55.615234"/>
     </g>
    </g>
   </g>
   <g id="text_15">
    <g clip-path="url(#p6878162b69)">
     <!-- 14 -->
     <g transform="translate(67.490006 171.786257) scale(0.11 -0.11)">
      <use xlink:href="#ArialMT-31"/>
      <use xlink:href="#ArialMT-34" x="55.615234"/>
     </g>
    </g>
   </g>
   <g id="matplotlib.axis_5">
    <g id="xtick_1">
     <g id="line2d_11">
      <defs>
       <path id="med8779e8cf" d="M 0 2 
L 0 -2 
" style="stroke: #000000; stroke-width: 0.8"/>
      </defs>
      <g>
       <use xlink:href="#med8779e8cf" x="52.02" y="155.010612" style="stroke: #000000; stroke-width: 0.8"/>
      </g>
     </g>
    </g>
    <g id="xtick_2">
     <g id="line2d_12">
      <g>
       <use xlink:href="#med8779e8cf" x="79.659147" y="155.010612" style="stroke: #000000; stroke-width: 0.8"/>
      </g>
     </g>
    </g>
    <g id="xtick_3">
     <g id="line2d_13">
      <g>
       <use xlink:href="#med8779e8cf" x="134.937442" y="155.010612" style="stroke: #000000; stroke-width: 0.8"/>
      </g>
     </g>
    </g>
    <g id="xtick_4">
     <g id="line2d_14">
      <g>
       <use xlink:href="#med8779e8cf" x="190.215737" y="155.010612" style="stroke: #000000; stroke-width: 0.8"/>
      </g>
     </g>
    </g>
    <g id="xtick_5">
     <g id="line2d_15">
      <g>
       <use xlink:href="#med8779e8cf" x="245.494032" y="155.010612" style="stroke: #000000; stroke-width: 0.8"/>
      </g>
     </g>
    </g>
    <g id="xtick_6">
     <g id="line2d_16">
      <g>
       <use xlink:href="#med8779e8cf" x="300.772327" y="155.010612" style="stroke: #000000; stroke-width: 0.8"/>
      </g>
     </g>
    </g>
   </g>
   <g id="matplotlib.axis_6">
    <g id="ytick_11">
     <g id="line2d_17">
      <defs>
       <path id="mfdd3a6656d" d="M 2 0 
L -2 -0 
" style="stroke: #000000; stroke-width: 0.8"/>
      </defs>
      <g>
       <use xlink:href="#mfdd3a6656d" x="52.02" y="155.010612" style="stroke: #000000; stroke-width: 0.8"/>
      </g>
     </g>
     <g id="text_16">
      <!-- 50 -->
      <g transform="translate(34.285938 158.947409) scale(0.11 -0.11)">
       <use xlink:href="#ArialMT-35"/>
       <use xlink:href="#ArialMT-30" x="55.615234"/>
      </g>
     </g>
    </g>
    <g id="ytick_12">
     <g id="line2d_18">
      <g>
       <use xlink:href="#mfdd3a6656d" x="52.02" y="123.663673" style="stroke: #000000; stroke-width: 0.8"/>
      </g>
     </g>
     <g id="text_17">
      <!-- 60 -->
      <g transform="translate(34.285938 127.60047) scale(0.11 -0.11)">
       <use xlink:href="#ArialMT-36"/>
       <use xlink:href="#ArialMT-30" x="55.615234"/>
      </g>
     </g>
    </g>
    <g id="ytick_13">
     <g id="line2d_19">
      <g>
       <use xlink:href="#mfdd3a6656d" x="52.02" y="92.316735" style="stroke: #000000; stroke-width: 0.8"/>
      </g>
     </g>
     <g id="text_18">
      <!-- 70 -->
      <g transform="translate(34.285938 96.253532) scale(0.11 -0.11)">
       <use xlink:href="#ArialMT-37"/>
       <use xlink:href="#ArialMT-30" x="55.615234"/>
      </g>
     </g>
    </g>
    <g id="ytick_14">
     <g id="line2d_20">
      <g>
       <use xlink:href="#mfdd3a6656d" x="52.02" y="60.969796" style="stroke: #000000; stroke-width: 0.8"/>
      </g>
     </g>
     <g id="text_19">
      <!-- 80 -->
      <g transform="translate(34.285938 64.906593) scale(0.11 -0.11)">
       <use xlink:href="#ArialMT-38"/>
       <use xlink:href="#ArialMT-30" x="55.615234"/>
      </g>
     </g>
    </g>
    <g id="ytick_15">
     <g id="line2d_21">
      <g>
       <use xlink:href="#mfdd3a6656d" x="52.02" y="29.622857" style="stroke: #000000; stroke-width: 0.8"/>
      </g>
     </g>
     <g id="text_20">
      <!-- 90 -->
      <g transform="translate(34.285938 33.559654) scale(0.11 -0.11)">
       <use xlink:href="#ArialMT-39"/>
       <use xlink:href="#ArialMT-30" x="55.615234"/>
      </g>
     </g>
    </g>
    <g id="text_21">
     <!-- AcEster Yield -->
     <g transform="translate(16.30425 125.027125) rotate(-90) scale(0.11 -0.11)">
      <defs>
       <path id="ArialMT-41" d="M -9 0 
L 1750 4581 
L 2403 4581 
L 4278 0 
L 3588 0 
L 3053 1388 
L 1138 1388 
L 634 0 
L -9 0 
z
M 1313 1881 
L 2866 1881 
L 2388 3150 
Q 2169 3728 2063 4100 
Q 1975 3659 1816 3225 
L 1313 1881 
z
" transform="scale(0.015625)"/>
       <path id="ArialMT-63" d="M 2588 1216 
L 3141 1144 
Q 3050 572 2676 248 
Q 2303 -75 1759 -75 
Q 1078 -75 664 370 
Q 250 816 250 1647 
Q 250 2184 428 2587 
Q 606 2991 970 3192 
Q 1334 3394 1763 3394 
Q 2303 3394 2647 3120 
Q 2991 2847 3088 2344 
L 2541 2259 
Q 2463 2594 2264 2762 
Q 2066 2931 1784 2931 
Q 1359 2931 1093 2626 
Q 828 2322 828 1663 
Q 828 994 1084 691 
Q 1341 388 1753 388 
Q 2084 388 2306 591 
Q 2528 794 2588 1216 
z
" transform="scale(0.015625)"/>
       <path id="ArialMT-45" d="M 506 0 
L 506 4581 
L 3819 4581 
L 3819 4041 
L 1113 4041 
L 1113 2638 
L 3647 2638 
L 3647 2100 
L 1113 2100 
L 1113 541 
L 3925 541 
L 3925 0 
L 506 0 
z
" transform="scale(0.015625)"/>
       <path id="ArialMT-59" d="M 1784 0 
L 1784 1941 
L 19 4581 
L 756 4581 
L 1659 3200 
Q 1909 2813 2125 2425 
Q 2331 2784 2625 3234 
L 3513 4581 
L 4219 4581 
L 2391 1941 
L 2391 0 
L 1784 0 
z
" transform="scale(0.015625)"/>
       <path id="ArialMT-6c" d="M 409 0 
L 409 4581 
L 972 4581 
L 972 0 
L 409 0 
z
" transform="scale(0.015625)"/>
       <path id="ArialMT-64" d="M 2575 0 
L 2575 419 
Q 2259 -75 1647 -75 
Q 1250 -75 917 144 
Q 584 363 401 755 
Q 219 1147 219 1656 
Q 219 2153 384 2558 
Q 550 2963 881 3178 
Q 1213 3394 1622 3394 
Q 1922 3394 2156 3267 
Q 2391 3141 2538 2938 
L 2538 4581 
L 3097 4581 
L 3097 0 
L 2575 0 
z
M 797 1656 
Q 797 1019 1065 703 
Q 1334 388 1700 388 
Q 2069 388 2326 689 
Q 2584 991 2584 1609 
Q 2584 2291 2321 2609 
Q 2059 2928 1675 2928 
Q 1300 2928 1048 2622 
Q 797 2316 797 1656 
z
" transform="scale(0.015625)"/>
      </defs>
      <use xlink:href="#ArialMT-41"/>
      <use xlink:href="#ArialMT-63" x="66.699219"/>
      <use xlink:href="#ArialMT-45" x="116.699219"/>
      <use xlink:href="#ArialMT-73" x="183.398438"/>
      <use xlink:href="#ArialMT-74" x="233.398438"/>
      <use xlink:href="#ArialMT-65" x="261.181641"/>
      <use xlink:href="#ArialMT-72" x="316.796875"/>
      <use xlink:href="#ArialMT-20" x="350.097656"/>
      <use xlink:href="#ArialMT-59" x="376.130859"/>
      <use xlink:href="#ArialMT-69" x="439.080078"/>
      <use xlink:href="#ArialMT-65" x="461.296875"/>
      <use xlink:href="#ArialMT-6c" x="516.912109"/>
      <use xlink:href="#ArialMT-64" x="539.128906"/>
     </g>
     <!-- [% theoretical] -->
     <g transform="translate(28.099687 127.16525) rotate(-90) scale(0.11 -0.11)">
      <defs>
       <path id="ArialMT-25" d="M 372 3481 
Q 372 3972 619 4315 
Q 866 4659 1334 4659 
Q 1766 4659 2048 4351 
Q 2331 4044 2331 3447 
Q 2331 2866 2045 2552 
Q 1759 2238 1341 2238 
Q 925 2238 648 2547 
Q 372 2856 372 3481 
z
M 1350 4272 
Q 1141 4272 1002 4090 
Q 863 3909 863 3425 
Q 863 2984 1003 2804 
Q 1144 2625 1350 2625 
Q 1563 2625 1702 2806 
Q 1841 2988 1841 3469 
Q 1841 3913 1700 4092 
Q 1559 4272 1350 4272 
z
M 1353 -169 
L 3859 4659 
L 4316 4659 
L 1819 -169 
L 1353 -169 
z
M 3334 1075 
Q 3334 1569 3581 1911 
Q 3828 2253 4300 2253 
Q 4731 2253 5014 1945 
Q 5297 1638 5297 1041 
Q 5297 459 5011 145 
Q 4725 -169 4303 -169 
Q 3888 -169 3611 142 
Q 3334 453 3334 1075 
z
M 4316 1866 
Q 4103 1866 3964 1684 
Q 3825 1503 3825 1019 
Q 3825 581 3965 400 
Q 4106 219 4313 219 
Q 4528 219 4667 400 
Q 4806 581 4806 1063 
Q 4806 1506 4665 1686 
Q 4525 1866 4316 1866 
z
" transform="scale(0.015625)"/>
       <path id="ArialMT-68" d="M 422 0 
L 422 4581 
L 984 4581 
L 984 2938 
Q 1378 3394 1978 3394 
Q 2347 3394 2619 3248 
Q 2891 3103 3008 2847 
Q 3125 2591 3125 2103 
L 3125 0 
L 2563 0 
L 2563 2103 
Q 2563 2525 2380 2717 
Q 2197 2909 1863 2909 
Q 1613 2909 1392 2779 
Q 1172 2650 1078 2428 
Q 984 2206 984 1816 
L 984 0 
L 422 0 
z
" transform="scale(0.015625)"/>
      </defs>
      <use xlink:href="#ArialMT-5b"/>
      <use xlink:href="#ArialMT-25" x="27.783203"/>
      <use xlink:href="#ArialMT-20" x="116.699219"/>
      <use xlink:href="#ArialMT-74" x="144.482422"/>
      <use xlink:href="#ArialMT-68" x="172.265625"/>
      <use xlink:href="#ArialMT-65" x="227.880859"/>
      <use xlink:href="#ArialMT-6f" x="283.496094"/>
      <use xlink:href="#ArialMT-72" x="339.111328"/>
      <use xlink:href="#ArialMT-65" x="372.412109"/>
      <use xlink:href="#ArialMT-74" x="428.027344"/>
      <use xlink:href="#ArialMT-69" x="455.810547"/>
      <use xlink:href="#ArialMT-63" x="478.027344"/>
      <use xlink:href="#ArialMT-61" x="528.027344"/>
      <use xlink:href="#ArialMT-6c" x="583.642578"/>
      <use xlink:href="#ArialMT-5d" x="605.859375"/>
     </g>
    </g>
   </g>
   <g id="patch_7">
    <path d="M 52.02 155.010612 
L 52.02 29.622857 
" style="fill: none; stroke: #000000; stroke-width: 0.8; stroke-linejoin: miter; stroke-linecap: square"/>
   </g>
   <g id="patch_8">
    <path d="M 300.772327 155.010612 
L 300.772327 29.622857 
" style="fill: none; stroke: #000000; stroke-width: 0.8; stroke-linejoin: miter; stroke-linecap: square"/>
   </g>
   <g id="patch_9">
    <path d="M 52.02 155.010612 
L 300.772327 155.010612 
" style="fill: none; stroke: #000000; stroke-width: 0.8; stroke-linejoin: miter; stroke-linecap: square"/>
   </g>
   <g id="patch_10">
    <path d="M 52.02 29.622857 
L 300.772327 29.622857 
" style="fill: none; stroke: #000000; stroke-width: 0.8; stroke-linejoin: miter; stroke-linecap: square"/>
   </g>
  </g>
  <g id="axes_6">
   <g id="patch_11">
    <path d="M 52.02 292.937143 
L 300.772327 292.937143 
L 300.772327 167.549388 
L 52.02 167.549388 
z
" style="fill: #ffffff; fill-opacity: 0.95"/>
   </g>
   <g id="PathCollection_20">
    <path d="M 273.133179 297.865081 
L 300.772327 306.580806 
L 300.772327 289.45415 
L 300.772327 272.039184 
L 300.772327 254.624218 
L 300.772327 237.209252 
L 300.772327 219.794286 
L 300.772327 202.37932 
L 300.772327 184.964354 
L 300.772327 167.549388 
L 273.133179 167.549388 
L 245.494032 167.549388 
L 217.854884 167.549388 
L 190.215737 167.549388 
L 162.57659 167.549388 
L 153.2069 167.549388 
L 157.087863 184.964354 
L 162.57659 201.843794 
L 162.842566 202.37932 
L 173.145009 219.794286 
L 185.44955 237.209252 
L 190.215737 243.162492 
L 202.328995 254.624218 
L 217.854884 268.090036 
L 223.623022 272.039184 
L 245.494032 285.242952 
L 253.945393 289.45415 
z
" clip-path="url(#pf64b8b6238)" style="fill: #ffbc78"/>
   </g>
   <g id="PathCollection_21">
    <path d="M 190.215737 324.284082 
L 217.854884 324.284082 
L 245.494032 324.284082 
L 273.133179 324.284082 
L 300.772327 324.284082 
L 300.772327 306.869116 
L 300.772327 306.580806 
L 273.133179 297.865081 
L 253.945393 289.45415 
L 245.494032 285.242952 
L 223.623022 272.039184 
L 217.854884 268.090036 
L 202.328995 254.624218 
L 190.215737 243.162492 
L 185.44955 237.209252 
L 173.145009 219.794286 
L 162.842566 202.37932 
L 162.57659 201.843794 
L 157.087863 184.964354 
L 153.2069 167.549388 
L 134.937442 167.549388 
L 110.338685 167.549388 
L 113.060802 184.964354 
L 117.339311 202.37932 
L 122.300512 219.794286 
L 127.763665 237.209252 
L 133.721413 254.624218 
L 134.937442 258.017268 
L 144.137629 272.039184 
L 156.446508 289.45415 
L 162.57659 297.61713 
L 172.319818 306.869116 
L 185.024225 324.284082 
z
" clip-path="url(#pf64b8b6238)" style="fill: #ffa66a"/>
   </g>
   <g id="PathCollection_22">
    <path d="M 134.937442 321.584261 
L 136.569863 324.284082 
L 162.57659 324.284082 
L 185.024225 324.284082 
L 172.319818 306.869116 
L 162.57659 297.61713 
L 156.446508 289.45415 
L 144.137629 272.039184 
L 134.937442 258.017268 
L 133.721413 254.624218 
L 127.763665 237.209252 
L 122.300512 219.794286 
L 117.339311 202.37932 
L 113.060802 184.964354 
L 110.338685 167.549388 
L 107.298295 167.549388 
L 90.246861 167.549388 
L 92.074092 184.964354 
L 95.065968 202.37932 
L 98.826384 219.794286 
L 102.888346 237.209252 
L 106.8669 254.624218 
L 107.298295 256.485064 
L 113.585918 272.039184 
L 121.371175 289.45415 
L 129.873772 306.869116 
z
" clip-path="url(#pf64b8b6238)" style="fill: #e3905c"/>
   </g>
   <g id="PathCollection_23">
    <path d="M 107.298295 308.380333 
L 113.767694 324.284082 
L 134.937442 324.284082 
L 136.569863 324.284082 
L 134.937442 321.584261 
L 129.873772 306.869116 
L 121.371175 289.45415 
L 113.585918 272.039184 
L 107.298295 256.485064 
L 106.8669 254.624218 
L 102.888346 237.209252 
L 98.826384 219.794286 
L 95.065968 202.37932 
L 92.074092 184.964354 
L 90.246861 167.549388 
L 79.659147 167.549388 
L 71.65296 167.549388 
L 73.7656 184.964354 
L 77.269956 202.37932 
L 79.659147 211.193738 
L 81.897457 219.794286 
L 87.019614 237.209252 
L 91.847706 254.624218 
L 96.48178 272.039184 
L 101.479612 289.45415 
L 106.945678 306.869116 
z
" clip-path="url(#pf64b8b6238)" style="fill: #c17a4e"/>
   </g>
   <g id="PathCollection_24">
    <path d="M 107.298295 324.284082 
L 113.767694 324.284082 
L 107.298295 308.380333 
L 106.945678 306.869116 
L 101.479612 289.45415 
L 96.48178 272.039184 
L 91.847706 254.624218 
L 87.019614 237.209252 
L 81.897457 219.794286 
L 79.659147 211.193738 
L 77.269956 202.37932 
L 73.7656 184.964354 
L 71.65296 167.549388 
L 53.217897 167.549388 
L 55.625903 184.964354 
L 59.638317 202.37932 
L 65.1591 219.794286 
L 71.367949 237.209252 
L 76.933532 254.624218 
L 79.659147 263.486663 
L 82.247954 272.039184 
L 88.080697 289.45415 
L 94.296601 306.869116 
L 98.715383 324.284082 
z
" clip-path="url(#pf64b8b6238)" style="fill: #9d633f"/>
   </g>
   <g id="PathCollection_25">
    <path d="M 94.296601 306.869116 
L 88.080697 289.45415 
L 82.247954 272.039184 
L 79.659147 263.486663 
L 76.933532 254.624218 
L 71.367949 237.209252 
L 65.1591 219.794286 
L 59.638317 202.37932 
L 55.625903 184.964354 
L 53.217897 167.549388 
L 52.02 167.549388 
L 52.02 184.964354 
L 52.02 202.37932 
L 52.02 219.794286 
L 52.02 227.799234 
L 55.904067 237.209252 
L 62.471568 254.624218 
L 68.501922 272.039184 
L 74.896093 289.45415 
L 79.659147 301.690933 
L 81.647524 306.869116 
L 86.569108 324.284082 
L 98.715383 324.284082 
z
" clip-path="url(#pf64b8b6238)" style="fill: #7a4d31"/>
   </g>
   <g id="PathCollection_26">
    <path d="M 79.659147 324.284082 
L 86.569108 324.284082 
L 81.647524 306.869116 
L 79.659147 301.690933 
L 74.896093 289.45415 
L 68.501922 272.039184 
L 62.471568 254.624218 
L 55.904067 237.209252 
L 52.02 227.799234 
L 52.02 237.209252 
L 52.02 254.624218 
L 52.02 264.563628 
L 54.864333 272.039184 
L 62.074094 289.45415 
L 69.456685 306.869116 
L 74.646602 324.284082 
z
" clip-path="url(#pf64b8b6238)" style="fill: #583723"/>
   </g>
   <g id="PathCollection_27">
    <path d="M 69.456685 306.869116 
L 62.074094 289.45415 
L 54.864333 272.039184 
L 52.02 264.563628 
L 52.02 272.039184 
L 52.02 289.45415 
L 52.02 295.182486 
L 57.351313 306.869116 
L 63.019388 324.284082 
L 74.646602 324.284082 
z
" clip-path="url(#pf64b8b6238)" style="fill: #342115"/>
   </g>
   <g id="PathCollection_28">
    <path d="M 57.351313 306.869116 
L 52.02 295.182486 
L 52.02 306.869116 
L 52.02 324.284082 
L 63.019388 324.284082 
z
" clip-path="url(#pf64b8b6238)" style="fill: #110b07"/>
   </g>
   <g id="PathCollection_29"/>
   <g id="PathCollection_30">
    <path d="M 300.772327 306.580806 
L 273.133179 297.865081 
L 253.945393 289.45415 
L 245.494032 285.242952 
L 223.623022 272.039184 
L 217.854884 268.090036 
L 202.328995 254.624218 
L 190.215737 243.162492 
L 185.44955 237.209252 
L 173.145009 219.794286 
L 162.842566 202.37932 
L 162.57659 201.843794 
L 157.087863 184.964354 
L 153.2069 167.549388 
" clip-path="url(#pf64b8b6238)" style="fill: none; stroke: #3d4240; stroke-opacity: 0.1; stroke-width: 0.8"/>
   </g>
   <g id="PathCollection_31">
    <path d="M 185.024225 324.284082 
L 172.319818 306.869116 
L 162.57659 297.61713 
L 156.446508 289.45415 
L 144.137629 272.039184 
L 140.926024 267.144407 
" clip-path="url(#pf64b8b6238)" style="fill: none; stroke: #3d4240; stroke-opacity: 0.1; stroke-width: 0.8"/>
    <path d="M 128.962439 240.713362 
L 127.763665 237.209252 
L 122.300512 219.794286 
L 117.339311 202.37932 
L 113.060802 184.964354 
L 110.338685 167.549388 
" clip-path="url(#pf64b8b6238)" style="fill: none; stroke: #3d4240; stroke-opacity: 0.1; stroke-width: 0.8"/>
   </g>
   <g id="PathCollection_32">
    <path d="M 136.569863 324.284082 
L 134.937442 321.584261 
L 129.873772 306.869116 
L 121.371175 289.45415 
L 113.585918 272.039184 
L 107.298295 256.485064 
L 106.8669 254.624218 
L 102.888346 237.209252 
L 98.826384 219.794286 
L 95.065968 202.37932 
L 92.074092 184.964354 
L 90.246861 167.549388 
" clip-path="url(#pf64b8b6238)" style="fill: none; stroke: #3d4240; stroke-opacity: 0.1; stroke-width: 0.8"/>
   </g>
   <g id="PathCollection_33">
    <path d="M 113.767694 324.284082 
L 107.298295 308.380333 
L 106.945678 306.869116 
L 101.479612 289.45415 
L 96.48178 272.039184 
L 91.847706 254.624218 
L 90.958608 251.417232 
" clip-path="url(#pf64b8b6238)" style="fill: none; stroke: #3d4240; stroke-opacity: 0.1; stroke-width: 0.8"/>
    <path d="M 82.862205 223.074359 
L 81.897457 219.794286 
L 79.659147 211.193738 
L 77.269956 202.37932 
L 73.7656 184.964354 
L 71.65296 167.549388 
" clip-path="url(#pf64b8b6238)" style="fill: none; stroke: #3d4240; stroke-opacity: 0.1; stroke-width: 0.8"/>
   </g>
   <g id="PathCollection_34">
    <path d="M 98.715383 324.284082 
L 94.296601 306.869116 
L 88.080697 289.45415 
L 82.247954 272.039184 
L 79.659147 263.486663 
L 76.933532 254.624218 
L 71.367949 237.209252 
L 65.1591 219.794286 
L 59.638317 202.37932 
L 55.625903 184.964354 
L 53.217897 167.549388 
" clip-path="url(#pf64b8b6238)" style="fill: none; stroke: #3d4240; stroke-opacity: 0.1; stroke-width: 0.8"/>
   </g>
   <g id="PathCollection_35">
    <path d="M 86.569108 324.284082 
L 81.647524 306.869116 
L 79.659147 301.690933 
L 74.896093 289.45415 
L 73.563375 285.824401 
" clip-path="url(#pf64b8b6238)" style="fill: none; stroke: #3d4240; stroke-opacity: 0.1; stroke-width: 0.8"/>
    <path d="M 63.692057 258.148847 
L 62.471568 254.624218 
L 55.904067 237.209252 
L 52.02 227.799234 
" clip-path="url(#pf64b8b6238)" style="fill: none; stroke: #3d4240; stroke-opacity: 0.1; stroke-width: 0.8"/>
   </g>
   <g id="PathCollection_36">
    <path d="M 74.646602 324.284082 
L 69.456685 306.869116 
L 62.074094 289.45415 
L 54.864333 272.039184 
L 52.02 264.563628 
" clip-path="url(#pf64b8b6238)" style="fill: none; stroke: #3d4240; stroke-opacity: 0.1; stroke-width: 0.8"/>
   </g>
   <g id="PathCollection_37">
    <path d="M 63.019388 324.284082 
L 61.90502 320.860226 
" clip-path="url(#pf64b8b6238)" style="fill: none; stroke: #3d4240; stroke-opacity: 0.1; stroke-width: 0.8"/>
   </g>
   <g id="PathCollection_38"/>
   <g id="text_22">
    <g clip-path="url(#pf64b8b6238)">
     <!-- 25.9 -->
     <g transform="translate(123.017898 257.46789) scale(0.11 -0.11)">
      <use xlink:href="#ArialMT-32"/>
      <use xlink:href="#ArialMT-35" x="55.615234"/>
      <use xlink:href="#ArialMT-2e" x="111.230469"/>
      <use xlink:href="#ArialMT-39" x="139.013672"/>
     </g>
    </g>
   </g>
   <g id="text_23">
    <g clip-path="url(#pf64b8b6238)">
     <!-- 42.8 -->
     <g transform="translate(76.316098 240.052924) scale(0.11 -0.11)">
      <use xlink:href="#ArialMT-34"/>
      <use xlink:href="#ArialMT-32" x="55.615234"/>
      <use xlink:href="#ArialMT-2e" x="111.230469"/>
      <use xlink:href="#ArialMT-38" x="139.013672"/>
     </g>
    </g>
   </g>
   <g id="text_24">
    <g clip-path="url(#pf64b8b6238)">
     <!-- 59.7 -->
     <g transform="translate(57.798407 274.882856) scale(0.11 -0.11)">
      <use xlink:href="#ArialMT-35"/>
      <use xlink:href="#ArialMT-39" x="55.615234"/>
      <use xlink:href="#ArialMT-2e" x="111.230469"/>
      <use xlink:href="#ArialMT-37" x="139.013672"/>
     </g>
    </g>
   </g>
   <g id="text_25">
    <g clip-path="url(#pf64b8b6238)">
     <!-- 76.6 -->
     <g transform="translate(46.647797 309.712788) scale(0.11 -0.11)">
      <use xlink:href="#ArialMT-37"/>
      <use xlink:href="#ArialMT-36" x="55.615234"/>
      <use xlink:href="#ArialMT-2e" x="111.230469"/>
      <use xlink:href="#ArialMT-36" x="139.013672"/>
     </g>
    </g>
   </g>
   <g id="matplotlib.axis_7">
    <g id="xtick_7">
     <g id="line2d_22">
      <g>
       <use xlink:href="#med8779e8cf" x="52.02" y="292.937143" style="stroke: #000000; stroke-width: 0.8"/>
      </g>
     </g>
    </g>
    <g id="xtick_8">
     <g id="line2d_23">
      <g>
       <use xlink:href="#med8779e8cf" x="79.659147" y="292.937143" style="stroke: #000000; stroke-width: 0.8"/>
      </g>
     </g>
     <g id="text_26">
      <!-- 20 -->
      <g transform="translate(73.542116 306.310737) scale(0.11 -0.11)">
       <use xlink:href="#ArialMT-32"/>
       <use xlink:href="#ArialMT-30" x="55.615234"/>
      </g>
     </g>
    </g>
    <g id="xtick_9">
     <g id="line2d_24">
      <g>
       <use xlink:href="#med8779e8cf" x="134.937442" y="292.937143" style="stroke: #000000; stroke-width: 0.8"/>
      </g>
     </g>
     <g id="text_27">
      <!-- 40 -->
      <g transform="translate(128.820411 306.310737) scale(0.11 -0.11)">
       <use xlink:href="#ArialMT-34"/>
       <use xlink:href="#ArialMT-30" x="55.615234"/>
      </g>
     </g>
    </g>
    <g id="xtick_10">
     <g id="line2d_25">
      <g>
       <use xlink:href="#med8779e8cf" x="190.215737" y="292.937143" style="stroke: #000000; stroke-width: 0.8"/>
      </g>
     </g>
     <g id="text_28">
      <!-- 60 -->
      <g transform="translate(184.098706 306.310737) scale(0.11 -0.11)">
       <use xlink:href="#ArialMT-36"/>
       <use xlink:href="#ArialMT-30" x="55.615234"/>
      </g>
     </g>
    </g>
    <g id="xtick_11">
     <g id="line2d_26">
      <g>
       <use xlink:href="#med8779e8cf" x="245.494032" y="292.937143" style="stroke: #000000; stroke-width: 0.8"/>
      </g>
     </g>
     <g id="text_29">
      <!-- 80 -->
      <g transform="translate(239.377 306.310737) scale(0.11 -0.11)">
       <use xlink:href="#ArialMT-38"/>
       <use xlink:href="#ArialMT-30" x="55.615234"/>
      </g>
     </g>
    </g>
    <g id="xtick_12">
     <g id="line2d_27">
      <g>
       <use xlink:href="#med8779e8cf" x="300.772327" y="292.937143" style="stroke: #000000; stroke-width: 0.8"/>
      </g>
     </g>
     <g id="text_30">
      <!-- 100 -->
      <g transform="translate(291.59678 306.310737) scale(0.11 -0.11)">
       <use xlink:href="#ArialMT-31"/>
       <use xlink:href="#ArialMT-30" x="55.615234"/>
       <use xlink:href="#ArialMT-30" x="111.230469"/>
      </g>
     </g>
    </g>
    <g id="text_31">
     <!-- AcOH Titer -->
     <g transform="translate(149.502882 320.37058) scale(0.11 -0.11)">
      <defs>
       <path id="ArialMT-4f" d="M 309 2231 
Q 309 3372 921 4017 
Q 1534 4663 2503 4663 
Q 3138 4663 3647 4359 
Q 4156 4056 4423 3514 
Q 4691 2972 4691 2284 
Q 4691 1588 4409 1038 
Q 4128 488 3612 205 
Q 3097 -78 2500 -78 
Q 1853 -78 1343 234 
Q 834 547 571 1087 
Q 309 1628 309 2231 
z
M 934 2222 
Q 934 1394 1379 917 
Q 1825 441 2497 441 
Q 3181 441 3623 922 
Q 4066 1403 4066 2288 
Q 4066 2847 3877 3264 
Q 3688 3681 3323 3911 
Q 2959 4141 2506 4141 
Q 1863 4141 1398 3698 
Q 934 3256 934 2222 
z
" transform="scale(0.015625)"/>
       <path id="ArialMT-48" d="M 513 0 
L 513 4581 
L 1119 4581 
L 1119 2700 
L 3500 2700 
L 3500 4581 
L 4106 4581 
L 4106 0 
L 3500 0 
L 3500 2159 
L 1119 2159 
L 1119 0 
L 513 0 
z
" transform="scale(0.015625)"/>
       <path id="ArialMT-54" d="M 1659 0 
L 1659 4041 
L 150 4041 
L 150 4581 
L 3781 4581 
L 3781 4041 
L 2266 4041 
L 2266 0 
L 1659 0 
z
" transform="scale(0.015625)"/>
      </defs>
      <use xlink:href="#ArialMT-41"/>
      <use xlink:href="#ArialMT-63" x="66.699219"/>
      <use xlink:href="#ArialMT-4f" x="116.699219"/>
      <use xlink:href="#ArialMT-48" x="194.482422"/>
      <use xlink:href="#ArialMT-20" x="266.699219"/>
      <use xlink:href="#ArialMT-54" x="292.732422"/>
      <use xlink:href="#ArialMT-69" x="350.066406"/>
      <use xlink:href="#ArialMT-74" x="372.283203"/>
      <use xlink:href="#ArialMT-65" x="400.066406"/>
      <use xlink:href="#ArialMT-72" x="455.681641"/>
     </g>
     <!-- [$\mathrm{g} \cdot \mathrm{L}^{\mathrm{-1}}$] -->
     <g transform="translate(156.981163 334.43683) scale(0.11 -0.11)">
      <defs>
       <path id="DejaVuSans-4c" d="M 628 4666 
L 1259 4666 
L 1259 531 
L 3531 531 
L 3531 0 
L 628 0 
L 628 4666 
z
" transform="scale(0.015625)"/>
      </defs>
      <use xlink:href="#ArialMT-5b" transform="translate(0 0.684375)"/>
      <use xlink:href="#DejaVuSans-67" transform="translate(27.783203 0.684375)"/>
      <use xlink:href="#DejaVuSans-22c5" transform="translate(110.742188 0.684375)"/>
      <use xlink:href="#DejaVuSans-4c" transform="translate(162.011719 0.684375)"/>
      <use xlink:href="#DejaVuSans-2212" transform="translate(218.681641 38.965625) scale(0.7)"/>
      <use xlink:href="#DejaVuSans-31" transform="translate(277.333984 38.965625) scale(0.7)"/>
      <use xlink:href="#ArialMT-5d" transform="translate(324.604492 0.684375)"/>
     </g>
    </g>
   </g>
   <g id="matplotlib.axis_8">
    <g id="ytick_16">
     <g id="line2d_28">
      <g>
       <use xlink:href="#mfdd3a6656d" x="52.02" y="292.937143" style="stroke: #000000; stroke-width: 0.8"/>
      </g>
     </g>
     <g id="text_32">
      <!-- 50 -->
      <g transform="translate(34.285938 296.87394) scale(0.11 -0.11)">
       <use xlink:href="#ArialMT-35"/>
       <use xlink:href="#ArialMT-30" x="55.615234"/>
      </g>
     </g>
    </g>
    <g id="ytick_17">
     <g id="line2d_29">
      <g>
       <use xlink:href="#mfdd3a6656d" x="52.02" y="261.590204" style="stroke: #000000; stroke-width: 0.8"/>
      </g>
     </g>
     <g id="text_33">
      <!-- 60 -->
      <g transform="translate(34.285938 265.527001) scale(0.11 -0.11)">
       <use xlink:href="#ArialMT-36"/>
       <use xlink:href="#ArialMT-30" x="55.615234"/>
      </g>
     </g>
    </g>
    <g id="ytick_18">
     <g id="line2d_30">
      <g>
       <use xlink:href="#mfdd3a6656d" x="52.02" y="230.243265" style="stroke: #000000; stroke-width: 0.8"/>
      </g>
     </g>
     <g id="text_34">
      <!-- 70 -->
      <g transform="translate(34.285938 234.180062) scale(0.11 -0.11)">
       <use xlink:href="#ArialMT-37"/>
       <use xlink:href="#ArialMT-30" x="55.615234"/>
      </g>
     </g>
    </g>
    <g id="ytick_19">
     <g id="line2d_31">
      <g>
       <use xlink:href="#mfdd3a6656d" x="52.02" y="198.896327" style="stroke: #000000; stroke-width: 0.8"/>
      </g>
     </g>
     <g id="text_35">
      <!-- 80 -->
      <g transform="translate(34.285938 202.833123) scale(0.11 -0.11)">
       <use xlink:href="#ArialMT-38"/>
       <use xlink:href="#ArialMT-30" x="55.615234"/>
      </g>
     </g>
    </g>
    <g id="ytick_20">
     <g id="line2d_32">
      <g>
       <use xlink:href="#mfdd3a6656d" x="52.02" y="167.549388" style="stroke: #000000; stroke-width: 0.8"/>
      </g>
     </g>
     <g id="text_36">
      <!-- 90 -->
      <g transform="translate(34.285938 171.486185) scale(0.11 -0.11)">
       <use xlink:href="#ArialMT-39"/>
       <use xlink:href="#ArialMT-30" x="55.615234"/>
      </g>
     </g>
    </g>
    <g id="text_37">
     <!-- AcEster Yield -->
     <g transform="translate(16.30425 262.953656) rotate(-90) scale(0.11 -0.11)">
      <use xlink:href="#ArialMT-41"/>
      <use xlink:href="#ArialMT-63" x="66.699219"/>
      <use xlink:href="#ArialMT-45" x="116.699219"/>
      <use xlink:href="#ArialMT-73" x="183.398438"/>
      <use xlink:href="#ArialMT-74" x="233.398438"/>
      <use xlink:href="#ArialMT-65" x="261.181641"/>
      <use xlink:href="#ArialMT-72" x="316.796875"/>
      <use xlink:href="#ArialMT-20" x="350.097656"/>
      <use xlink:href="#ArialMT-59" x="376.130859"/>
      <use xlink:href="#ArialMT-69" x="439.080078"/>
      <use xlink:href="#ArialMT-65" x="461.296875"/>
      <use xlink:href="#ArialMT-6c" x="516.912109"/>
      <use xlink:href="#ArialMT-64" x="539.128906"/>
     </g>
     <!-- [% theoretical] -->
     <g transform="translate(28.099687 265.091781) rotate(-90) scale(0.11 -0.11)">
      <use xlink:href="#ArialMT-5b"/>
      <use xlink:href="#ArialMT-25" x="27.783203"/>
      <use xlink:href="#ArialMT-20" x="116.699219"/>
      <use xlink:href="#ArialMT-74" x="144.482422"/>
      <use xlink:href="#ArialMT-68" x="172.265625"/>
      <use xlink:href="#ArialMT-65" x="227.880859"/>
      <use xlink:href="#ArialMT-6f" x="283.496094"/>
      <use xlink:href="#ArialMT-72" x="339.111328"/>
      <use xlink:href="#ArialMT-65" x="372.412109"/>
      <use xlink:href="#ArialMT-74" x="428.027344"/>
      <use xlink:href="#ArialMT-69" x="455.810547"/>
      <use xlink:href="#ArialMT-63" x="478.027344"/>
      <use xlink:href="#ArialMT-61" x="528.027344"/>
      <use xlink:href="#ArialMT-6c" x="583.642578"/>
      <use xlink:href="#ArialMT-5d" x="605.859375"/>
     </g>
    </g>
   </g>
   <g id="patch_12">
    <path d="M 52.02 292.937143 
L 52.02 167.549388 
" style="fill: none; stroke: #000000; stroke-width: 0.8; stroke-linejoin: miter; stroke-linecap: square"/>
   </g>
   <g id="patch_13">
    <path d="M 300.772327 292.937143 
L 300.772327 167.549388 
" style="fill: none; stroke: #000000; stroke-width: 0.8; stroke-linejoin: miter; stroke-linecap: square"/>
   </g>
   <g id="patch_14">
    <path d="M 52.02 292.937143 
L 300.772327 292.937143 
" style="fill: none; stroke: #000000; stroke-width: 0.8; stroke-linejoin: miter; stroke-linecap: square"/>
   </g>
   <g id="patch_15">
    <path d="M 52.02 167.549388 
L 300.772327 167.549388 
" style="fill: none; stroke: #000000; stroke-width: 0.8; stroke-linejoin: miter; stroke-linecap: square"/>
   </g>
  </g>
  <g id="axes_7">
   <g id="matplotlib.axis_9">
    <g id="ytick_21">
     <g id="line2d_33">
      <defs>
       <path id="m94980caff4" d="M 0 0 
L -4 0 
" style="stroke: #000000; stroke-width: 0.8"/>
      </defs>
      <g>
       <use xlink:href="#m94980caff4" x="300.772327" y="155.010612" style="stroke: #000000; stroke-width: 0.8"/>
      </g>
     </g>
    </g>
    <g id="ytick_22">
     <g id="line2d_34">
      <g>
       <use xlink:href="#m94980caff4" x="300.772327" y="123.663673" style="stroke: #000000; stroke-width: 0.8"/>
      </g>
     </g>
    </g>
    <g id="ytick_23">
     <g id="line2d_35">
      <g>
       <use xlink:href="#m94980caff4" x="300.772327" y="92.316735" style="stroke: #000000; stroke-width: 0.8"/>
      </g>
     </g>
    </g>
    <g id="ytick_24">
     <g id="line2d_36">
      <g>
       <use xlink:href="#m94980caff4" x="300.772327" y="60.969796" style="stroke: #000000; stroke-width: 0.8"/>
      </g>
     </g>
    </g>
    <g id="ytick_25">
     <g id="line2d_37">
      <g>
       <use xlink:href="#m94980caff4" x="300.772327" y="29.622857" style="stroke: #000000; stroke-width: 0.8"/>
      </g>
     </g>
    </g>
   </g>
   <g id="patch_16">
    <path d="M 52.02 155.010612 
L 52.02 29.622857 
" style="fill: none; stroke: #000000; stroke-width: 0.8; stroke-linejoin: miter; stroke-linecap: square"/>
   </g>
   <g id="patch_17">
    <path d="M 300.772327 155.010612 
L 300.772327 29.622857 
" style="fill: none; stroke: #000000; stroke-width: 0.8; stroke-linejoin: miter; stroke-linecap: square"/>
   </g>
   <g id="patch_18">
    <path d="M 52.02 155.010612 
L 300.772327 155.010612 
" style="fill: none; stroke: #000000; stroke-width: 0.8; stroke-linejoin: miter; stroke-linecap: square"/>
   </g>
   <g id="patch_19">
    <path d="M 52.02 29.622857 
L 300.772327 29.622857 
" style="fill: none; stroke: #000000; stroke-width: 0.8; stroke-linejoin: miter; stroke-linecap: square"/>
   </g>
  </g>
  <g id="axes_8">
   <g id="matplotlib.axis_10">
    <g id="xtick_13">
     <g id="line2d_38">
      <defs>
       <path id="m183929ae52" d="M 0 0 
L 0 4 
" style="stroke: #000000; stroke-width: 0.8"/>
      </defs>
      <g>
       <use xlink:href="#m183929ae52" x="52.02" y="29.622857" style="stroke: #000000; stroke-width: 0.8"/>
      </g>
     </g>
    </g>
    <g id="xtick_14">
     <g id="line2d_39">
      <g>
       <use xlink:href="#m183929ae52" x="79.659147" y="29.622857" style="stroke: #000000; stroke-width: 0.8"/>
      </g>
     </g>
    </g>
    <g id="xtick_15">
     <g id="line2d_40">
      <g>
       <use xlink:href="#m183929ae52" x="134.937442" y="29.622857" style="stroke: #000000; stroke-width: 0.8"/>
      </g>
     </g>
    </g>
    <g id="xtick_16">
     <g id="line2d_41">
      <g>
       <use xlink:href="#m183929ae52" x="190.215737" y="29.622857" style="stroke: #000000; stroke-width: 0.8"/>
      </g>
     </g>
    </g>
    <g id="xtick_17">
     <g id="line2d_42">
      <g>
       <use xlink:href="#m183929ae52" x="245.494032" y="29.622857" style="stroke: #000000; stroke-width: 0.8"/>
      </g>
     </g>
    </g>
    <g id="xtick_18">
     <g id="line2d_43">
      <g>
       <use xlink:href="#m183929ae52" x="300.772327" y="29.622857" style="stroke: #000000; stroke-width: 0.8"/>
      </g>
     </g>
    </g>
   </g>
   <g id="patch_20">
    <path d="M 52.02 155.010612 
L 52.02 29.622857 
" style="fill: none; stroke: #000000; stroke-width: 0.8; stroke-linejoin: miter; stroke-linecap: square"/>
   </g>
   <g id="patch_21">
    <path d="M 300.772327 155.010612 
L 300.772327 29.622857 
" style="fill: none; stroke: #000000; stroke-width: 0.8; stroke-linejoin: miter; stroke-linecap: square"/>
   </g>
   <g id="patch_22">
    <path d="M 52.02 155.010612 
L 300.772327 155.010612 
" style="fill: none; stroke: #000000; stroke-width: 0.8; stroke-linejoin: miter; stroke-linecap: square"/>
   </g>
   <g id="patch_23">
    <path d="M 52.02 29.622857 
L 300.772327 29.622857 
" style="fill: none; stroke: #000000; stroke-width: 0.8; stroke-linejoin: miter; stroke-linecap: square"/>
   </g>
  </g>
  <g id="axes_9">
   <g id="matplotlib.axis_11">
    <g id="ytick_26">
     <g id="line2d_44">
      <g>
       <use xlink:href="#m94980caff4" x="300.772327" y="292.937143" style="stroke: #000000; stroke-width: 0.8"/>
      </g>
     </g>
    </g>
    <g id="ytick_27">
     <g id="line2d_45">
      <g>
       <use xlink:href="#m94980caff4" x="300.772327" y="261.590204" style="stroke: #000000; stroke-width: 0.8"/>
      </g>
     </g>
    </g>
    <g id="ytick_28">
     <g id="line2d_46">
      <g>
       <use xlink:href="#m94980caff4" x="300.772327" y="230.243265" style="stroke: #000000; stroke-width: 0.8"/>
      </g>
     </g>
    </g>
    <g id="ytick_29">
     <g id="line2d_47">
      <g>
       <use xlink:href="#m94980caff4" x="300.772327" y="198.896327" style="stroke: #000000; stroke-width: 0.8"/>
      </g>
     </g>
    </g>
    <g id="ytick_30">
     <g id="line2d_48">
      <g>
       <use xlink:href="#m94980caff4" x="300.772327" y="167.549388" style="stroke: #000000; stroke-width: 0.8"/>
      </g>
     </g>
    </g>
   </g>
   <g id="patch_24">
    <path d="M 52.02 292.937143 
L 52.02 167.549388 
" style="fill: none; stroke: #000000; stroke-width: 0.8; stroke-linejoin: miter; stroke-linecap: square"/>
   </g>
   <g id="patch_25">
    <path d="M 300.772327 292.937143 
L 300.772327 167.549388 
" style="fill: none; stroke: #000000; stroke-width: 0.8; stroke-linejoin: miter; stroke-linecap: square"/>
   </g>
   <g id="patch_26">
    <path d="M 52.02 292.937143 
L 300.772327 292.937143 
" style="fill: none; stroke: #000000; stroke-width: 0.8; stroke-linejoin: miter; stroke-linecap: square"/>
   </g>
   <g id="patch_27">
    <path d="M 52.02 167.549388 
L 300.772327 167.549388 
" style="fill: none; stroke: #000000; stroke-width: 0.8; stroke-linejoin: miter; stroke-linecap: square"/>
   </g>
  </g>
  <g id="axes_10">
   <g id="matplotlib.axis_12">
    <g id="xtick_19">
     <g id="line2d_49">
      <g>
       <use xlink:href="#m183929ae52" x="52.02" y="167.549388" style="stroke: #000000; stroke-width: 0.8"/>
      </g>
     </g>
    </g>
    <g id="xtick_20">
     <g id="line2d_50">
      <g>
       <use xlink:href="#m183929ae52" x="79.659147" y="167.549388" style="stroke: #000000; stroke-width: 0.8"/>
      </g>
     </g>
    </g>
    <g id="xtick_21">
     <g id="line2d_51">
      <g>
       <use xlink:href="#m183929ae52" x="134.937442" y="167.549388" style="stroke: #000000; stroke-width: 0.8"/>
      </g>
     </g>
    </g>
    <g id="xtick_22">
     <g id="line2d_52">
      <g>
       <use xlink:href="#m183929ae52" x="190.215737" y="167.549388" style="stroke: #000000; stroke-width: 0.8"/>
      </g>
     </g>
    </g>
    <g id="xtick_23">
     <g id="line2d_53">
      <g>
       <use xlink:href="#m183929ae52" x="245.494032" y="167.549388" style="stroke: #000000; stroke-width: 0.8"/>
      </g>
     </g>
    </g>
    <g id="xtick_24">
     <g id="line2d_54">
      <g>
       <use xlink:href="#m183929ae52" x="300.772327" y="167.549388" style="stroke: #000000; stroke-width: 0.8"/>
      </g>
     </g>
    </g>
   </g>
   <g id="patch_28">
    <path d="M 52.02 292.937143 
L 52.02 167.549388 
" style="fill: none; stroke: #000000; stroke-width: 0.8; stroke-linejoin: miter; stroke-linecap: square"/>
   </g>
   <g id="patch_29">
    <path d="M 300.772327 292.937143 
L 300.772327 167.549388 
" style="fill: none; stroke: #000000; stroke-width: 0.8; stroke-linejoin: miter; stroke-linecap: square"/>
   </g>
   <g id="patch_30">
    <path d="M 52.02 292.937143 
L 300.772327 292.937143 
" style="fill: none; stroke: #000000; stroke-width: 0.8; stroke-linejoin: miter; stroke-linecap: square"/>
   </g>
   <g id="patch_31">
    <path d="M 52.02 167.549388 
L 300.772327 167.549388 
" style="fill: none; stroke: #000000; stroke-width: 0.8; stroke-linejoin: miter; stroke-linecap: square"/>
   </g>
  </g>
 </g>
 <defs>
  <clipPath id="pc2bc247492">
   <rect x="347.413388" y="42.161633" width="5.01551" height="100.310204"/>
  </clipPath>
  <clipPath id="p28585bec9e">
   <rect x="347.413388" y="180.088163" width="5.01551" height="100.310204"/>
  </clipPath>
  <clipPath id="p6878162b69">
   <rect x="52.02" y="29.622857" width="248.752327" height="125.387755"/>
  </clipPath>
  <clipPath id="pf64b8b6238">
   <rect x="52.02" y="167.549388" width="248.752327" height="125.387755"/>
  </clipPath>
 </defs>
</svg>
