<?xml version="1.0" encoding="utf-8" standalone="no"?>
<!DOCTYPE svg PUBLIC "-//W3C//DTD SVG 1.1//EN"
  "http://www.w3.org/Graphics/SVG/1.1/DTD/svg11.dtd">
<svg xmlns:xlink="http://www.w3.org/1999/xlink" width="238.1112pt" height="214.30008pt" viewBox="0 0 238.1112 214.30008" xmlns="http://www.w3.org/2000/svg" version="1.1">
 <metadata>
  <rdf:RDF xmlns:dc="http://purl.org/dc/elements/1.1/" xmlns:cc="http://creativecommons.org/ns#" xmlns:rdf="http://www.w3.org/1999/02/22-rdf-syntax-ns#">
   <cc:Work>
    <dc:type rdf:resource="http://purl.org/dc/dcmitype/StillImage"/>
    <dc:date>2025-08-27T21:27:54.501523</dc:date>
    <dc:format>image/svg+xml</dc:format>
    <dc:creator>
     <cc:Agent>
      <dc:title>Matplotlib v3.10.1, https://matplotlib.org/</dc:title>
     </cc:Agent>
    </dc:creator>
   </cc:Work>
  </rdf:RDF>
 </metadata>
 <defs>
  <style type="text/css">*{stroke-linejoin: round; stroke-linecap: butt}</style>
 </defs>
 <g id="figure_1">
  <g id="patch_1">
   <path d="M 0 214.30008 
L 238.1112 214.30008 
L 238.1112 0 
L 0 0 
L 0 214.30008 
z
" style="fill: none"/>
  </g>
  <g id="axes_1"/>
  <g id="axes_2">
   <g id="patch_2">
    <path d="M 162.524738 186.44107 
L 170.775291 186.44107 
L 170.775291 21.430008 
L 162.524738 21.430008 
L 162.524738 186.44107 
z
" style="fill: none"/>
   </g>
   <g id="QuadMesh_1">
    <path d="M 162.524738 186.44107 
L 170.775291 186.44107 
L 170.775291 179.565609 
L 162.524738 179.565609 
L 162.524738 186.44107 
" clip-path="url(#pd055efa6c9)" style="fill: #f1e51d"/>
    <path d="M 162.524738 179.565609 
L 170.775291 179.565609 
L 170.775291 172.690148 
L 162.524738 172.690148 
L 162.524738 179.565609 
" clip-path="url(#pd055efa6c9)" style="fill: #d5e21a"/>
    <path d="M 162.524738 172.690148 
L 170.775291 172.690148 
L 170.775291 165.814687 
L 162.524738 165.814687 
L 162.524738 172.690148 
" clip-path="url(#pd055efa6c9)" style="fill: #bade28"/>
    <path d="M 162.524738 165.814687 
L 170.775291 165.814687 
L 170.775291 158.939226 
L 162.524738 158.939226 
L 162.524738 165.814687 
" clip-path="url(#pd055efa6c9)" style="fill: #9dd93b"/>
    <path d="M 162.524738 158.939226 
L 170.775291 158.939226 
L 170.775291 152.063765 
L 162.524738 152.063765 
L 162.524738 158.939226 
" clip-path="url(#pd055efa6c9)" style="fill: #81d34d"/>
    <path d="M 162.524738 152.063765 
L 170.775291 152.063765 
L 170.775291 145.188304 
L 162.524738 145.188304 
L 162.524738 152.063765 
" clip-path="url(#pd055efa6c9)" style="fill: #69cd5b"/>
    <path d="M 162.524738 145.188304 
L 170.775291 145.188304 
L 170.775291 138.312843 
L 162.524738 138.312843 
L 162.524738 145.188304 
" clip-path="url(#pd055efa6c9)" style="fill: #52c569"/>
    <path d="M 162.524738 138.312843 
L 170.775291 138.312843 
L 170.775291 131.437382 
L 162.524738 131.437382 
L 162.524738 138.312843 
" clip-path="url(#pd055efa6c9)" style="fill: #3dbc74"/>
    <path d="M 162.524738 131.437382 
L 170.775291 131.437382 
L 170.775291 124.561922 
L 162.524738 124.561922 
L 162.524738 131.437382 
" clip-path="url(#pd055efa6c9)" style="fill: #2eb37c"/>
    <path d="M 162.524738 124.561922 
L 170.775291 124.561922 
L 170.775291 117.686461 
L 162.524738 117.686461 
L 162.524738 124.561922 
" clip-path="url(#pd055efa6c9)" style="fill: #23a983"/>
    <path d="M 162.524738 117.686461 
L 170.775291 117.686461 
L 170.775291 110.811 
L 162.524738 110.811 
L 162.524738 117.686461 
" clip-path="url(#pd055efa6c9)" style="fill: #1f9f88"/>
    <path d="M 162.524738 110.811 
L 170.775291 110.811 
L 170.775291 103.935539 
L 162.524738 103.935539 
L 162.524738 110.811 
" clip-path="url(#pd055efa6c9)" style="fill: #1f958b"/>
    <path d="M 162.524738 103.935539 
L 170.775291 103.935539 
L 170.775291 97.060078 
L 162.524738 97.060078 
L 162.524738 103.935539 
" clip-path="url(#pd055efa6c9)" style="fill: #228b8d"/>
    <path d="M 162.524738 97.060078 
L 170.775291 97.060078 
L 170.775291 90.184617 
L 162.524738 90.184617 
L 162.524738 97.060078 
" clip-path="url(#pd055efa6c9)" style="fill: #26818e"/>
    <path d="M 162.524738 90.184617 
L 170.775291 90.184617 
L 170.775291 83.309156 
L 162.524738 83.309156 
L 162.524738 90.184617 
" clip-path="url(#pd055efa6c9)" style="fill: #2a778e"/>
    <path d="M 162.524738 83.309156 
L 170.775291 83.309156 
L 170.775291 76.433695 
L 162.524738 76.433695 
L 162.524738 83.309156 
" clip-path="url(#pd055efa6c9)" style="fill: #2e6d8e"/>
    <path d="M 162.524738 76.433695 
L 170.775291 76.433695 
L 170.775291 69.558234 
L 162.524738 69.558234 
L 162.524738 76.433695 
" clip-path="url(#pd055efa6c9)" style="fill: #33628d"/>
    <path d="M 162.524738 69.558234 
L 170.775291 69.558234 
L 170.775291 62.682773 
L 162.524738 62.682773 
L 162.524738 69.558234 
" clip-path="url(#pd055efa6c9)" style="fill: #38588c"/>
    <path d="M 162.524738 62.682773 
L 170.775291 62.682773 
L 170.775291 55.807312 
L 162.524738 55.807312 
L 162.524738 62.682773 
" clip-path="url(#pd055efa6c9)" style="fill: #3e4c8a"/>
    <path d="M 162.524738 55.807312 
L 170.775291 55.807312 
L 170.775291 48.931852 
L 162.524738 48.931852 
L 162.524738 55.807312 
" clip-path="url(#pd055efa6c9)" style="fill: #423f85"/>
    <path d="M 162.524738 48.931852 
L 170.775291 48.931852 
L 170.775291 42.056391 
L 162.524738 42.056391 
L 162.524738 48.931852 
" clip-path="url(#pd055efa6c9)" style="fill: #46337f"/>
    <path d="M 162.524738 42.056391 
L 170.775291 42.056391 
L 170.775291 35.18093 
L 162.524738 35.18093 
L 162.524738 42.056391 
" clip-path="url(#pd055efa6c9)" style="fill: #482576"/>
    <path d="M 162.524738 35.18093 
L 170.775291 35.18093 
L 170.775291 28.305469 
L 162.524738 28.305469 
L 162.524738 35.18093 
" clip-path="url(#pd055efa6c9)" style="fill: #481769"/>
    <path d="M 162.524738 28.305469 
L 170.775291 28.305469 
L 170.775291 21.430008 
L 162.524738 21.430008 
L 162.524738 28.305469 
" clip-path="url(#pd055efa6c9)" style="fill: #46085c"/>
   </g>
   <g id="matplotlib.axis_1"/>
   <g id="matplotlib.axis_2">
    <g id="ytick_1">
     <g id="line2d_1">
      <defs>
       <path id="m3f51c445e7" d="M 0 0 
L 3.5 0 
" style="stroke: #000000; stroke-width: 0.8"/>
      </defs>
      <g>
       <use xlink:href="#m3f51c445e7" x="170.775291" y="186.44107" style="stroke: #000000; stroke-width: 0.8"/>
      </g>
     </g>
     <g id="text_1">
      <!-- 2 -->
      <g transform="translate(177.775291 190.019976) scale(0.1 -0.1)">
       <defs>
        <path id="ArialMT-32" d="M 3222 541 
L 3222 0 
L 194 0 
Q 188 203 259 391 
Q 375 700 629 1000 
Q 884 1300 1366 1694 
Q 2113 2306 2375 2664 
Q 2638 3022 2638 3341 
Q 2638 3675 2398 3904 
Q 2159 4134 1775 4134 
Q 1369 4134 1125 3890 
Q 881 3647 878 3216 
L 300 3275 
Q 359 3922 746 4261 
Q 1134 4600 1788 4600 
Q 2447 4600 2831 4234 
Q 3216 3869 3216 3328 
Q 3216 3053 3103 2787 
Q 2991 2522 2730 2228 
Q 2469 1934 1863 1422 
Q 1356 997 1212 845 
Q 1069 694 975 541 
L 3222 541 
z
" transform="scale(0.015625)"/>
       </defs>
       <use xlink:href="#ArialMT-32"/>
      </g>
     </g>
    </g>
    <g id="ytick_2">
     <g id="line2d_2">
      <g>
       <use xlink:href="#m3f51c445e7" x="170.775291" y="145.188304" style="stroke: #000000; stroke-width: 0.8"/>
      </g>
     </g>
     <g id="text_2">
      <!-- 5 -->
      <g transform="translate(177.775291 148.76721) scale(0.1 -0.1)">
       <defs>
        <path id="ArialMT-35" d="M 266 1200 
L 856 1250 
Q 922 819 1161 601 
Q 1400 384 1738 384 
Q 2144 384 2425 690 
Q 2706 997 2706 1503 
Q 2706 1984 2436 2262 
Q 2166 2541 1728 2541 
Q 1456 2541 1237 2417 
Q 1019 2294 894 2097 
L 366 2166 
L 809 4519 
L 3088 4519 
L 3088 3981 
L 1259 3981 
L 1013 2750 
Q 1425 3038 1878 3038 
Q 2478 3038 2890 2622 
Q 3303 2206 3303 1553 
Q 3303 931 2941 478 
Q 2500 -78 1738 -78 
Q 1113 -78 717 272 
Q 322 622 266 1200 
z
" transform="scale(0.015625)"/>
       </defs>
       <use xlink:href="#ArialMT-35"/>
      </g>
     </g>
    </g>
    <g id="ytick_3">
     <g id="line2d_3">
      <g>
       <use xlink:href="#m3f51c445e7" x="170.775291" y="103.935539" style="stroke: #000000; stroke-width: 0.8"/>
      </g>
     </g>
     <g id="text_3">
      <!-- 8 -->
      <g transform="translate(177.775291 107.514445) scale(0.1 -0.1)">
       <defs>
        <path id="ArialMT-38" d="M 1131 2484 
Q 781 2613 612 2850 
Q 444 3088 444 3419 
Q 444 3919 803 4259 
Q 1163 4600 1759 4600 
Q 2359 4600 2725 4251 
Q 3091 3903 3091 3403 
Q 3091 3084 2923 2848 
Q 2756 2613 2416 2484 
Q 2838 2347 3058 2040 
Q 3278 1734 3278 1309 
Q 3278 722 2862 322 
Q 2447 -78 1769 -78 
Q 1091 -78 675 323 
Q 259 725 259 1325 
Q 259 1772 486 2073 
Q 713 2375 1131 2484 
z
M 1019 3438 
Q 1019 3113 1228 2906 
Q 1438 2700 1772 2700 
Q 2097 2700 2305 2904 
Q 2513 3109 2513 3406 
Q 2513 3716 2298 3927 
Q 2084 4138 1766 4138 
Q 1444 4138 1231 3931 
Q 1019 3725 1019 3438 
z
M 838 1322 
Q 838 1081 952 856 
Q 1066 631 1291 507 
Q 1516 384 1775 384 
Q 2178 384 2440 643 
Q 2703 903 2703 1303 
Q 2703 1709 2433 1975 
Q 2163 2241 1756 2241 
Q 1359 2241 1098 1978 
Q 838 1716 838 1322 
z
" transform="scale(0.015625)"/>
       </defs>
       <use xlink:href="#ArialMT-38"/>
      </g>
     </g>
    </g>
    <g id="ytick_4">
     <g id="line2d_4">
      <g>
       <use xlink:href="#m3f51c445e7" x="170.775291" y="62.682773" style="stroke: #000000; stroke-width: 0.8"/>
      </g>
     </g>
     <g id="text_4">
      <!-- 11 -->
      <g transform="translate(177.775291 66.26168) scale(0.1 -0.1)">
       <defs>
        <path id="ArialMT-31" d="M 2384 0 
L 1822 0 
L 1822 3584 
Q 1619 3391 1289 3197 
Q 959 3003 697 2906 
L 697 3450 
Q 1169 3672 1522 3987 
Q 1875 4303 2022 4600 
L 2384 4600 
L 2384 0 
z
" transform="scale(0.015625)"/>
       </defs>
       <use xlink:href="#ArialMT-31"/>
       <use xlink:href="#ArialMT-31" transform="translate(48.240234 0)"/>
      </g>
     </g>
    </g>
    <g id="ytick_5">
     <g id="line2d_5">
      <g>
       <use xlink:href="#m3f51c445e7" x="170.775291" y="21.430008" style="stroke: #000000; stroke-width: 0.8"/>
      </g>
     </g>
     <g id="text_5">
      <!-- 14 -->
      <g transform="translate(177.775291 25.008914) scale(0.1 -0.1)">
       <defs>
        <path id="ArialMT-34" d="M 2069 0 
L 2069 1097 
L 81 1097 
L 81 1613 
L 2172 4581 
L 2631 4581 
L 2631 1613 
L 3250 1613 
L 3250 1097 
L 2631 1097 
L 2631 0 
L 2069 0 
z
M 2069 1613 
L 2069 3678 
L 634 1613 
L 2069 1613 
z
" transform="scale(0.015625)"/>
       </defs>
       <use xlink:href="#ArialMT-31"/>
       <use xlink:href="#ArialMT-34" transform="translate(55.615234 0)"/>
      </g>
     </g>
    </g>
    <g id="text_6">
     <!-- Minimum selling price $[\mathrm{USD} \cdot \mathrm{kg}^{\mathrm{-1}}]$ -->
     <g transform="translate(201.897166 182.935539) rotate(-90) scale(0.1 -0.1)">
      <defs>
       <path id="ArialMT-4d" d="M 475 0 
L 475 4581 
L 1388 4581 
L 2472 1338 
Q 2622 884 2691 659 
Q 2769 909 2934 1394 
L 4031 4581 
L 4847 4581 
L 4847 0 
L 4263 0 
L 4263 3834 
L 2931 0 
L 2384 0 
L 1059 3900 
L 1059 0 
L 475 0 
z
" transform="scale(0.015625)"/>
       <path id="ArialMT-69" d="M 425 3934 
L 425 4581 
L 988 4581 
L 988 3934 
L 425 3934 
z
M 425 0 
L 425 3319 
L 988 3319 
L 988 0 
L 425 0 
z
" transform="scale(0.015625)"/>
       <path id="ArialMT-6e" d="M 422 0 
L 422 3319 
L 928 3319 
L 928 2847 
Q 1294 3394 1984 3394 
Q 2284 3394 2536 3286 
Q 2788 3178 2913 3003 
Q 3038 2828 3088 2588 
Q 3119 2431 3119 2041 
L 3119 0 
L 2556 0 
L 2556 2019 
Q 2556 2363 2490 2533 
Q 2425 2703 2258 2804 
Q 2091 2906 1866 2906 
Q 1506 2906 1245 2678 
Q 984 2450 984 1813 
L 984 0 
L 422 0 
z
" transform="scale(0.015625)"/>
       <path id="ArialMT-6d" d="M 422 0 
L 422 3319 
L 925 3319 
L 925 2853 
Q 1081 3097 1340 3245 
Q 1600 3394 1931 3394 
Q 2300 3394 2536 3241 
Q 2772 3088 2869 2813 
Q 3263 3394 3894 3394 
Q 4388 3394 4653 3120 
Q 4919 2847 4919 2278 
L 4919 0 
L 4359 0 
L 4359 2091 
Q 4359 2428 4304 2576 
Q 4250 2725 4106 2815 
Q 3963 2906 3769 2906 
Q 3419 2906 3187 2673 
Q 2956 2441 2956 1928 
L 2956 0 
L 2394 0 
L 2394 2156 
Q 2394 2531 2256 2718 
Q 2119 2906 1806 2906 
Q 1569 2906 1367 2781 
Q 1166 2656 1075 2415 
Q 984 2175 984 1722 
L 984 0 
L 422 0 
z
" transform="scale(0.015625)"/>
       <path id="ArialMT-75" d="M 2597 0 
L 2597 488 
Q 2209 -75 1544 -75 
Q 1250 -75 995 37 
Q 741 150 617 320 
Q 494 491 444 738 
Q 409 903 409 1263 
L 409 3319 
L 972 3319 
L 972 1478 
Q 972 1038 1006 884 
Q 1059 663 1231 536 
Q 1403 409 1656 409 
Q 1909 409 2131 539 
Q 2353 669 2445 892 
Q 2538 1116 2538 1541 
L 2538 3319 
L 3100 3319 
L 3100 0 
L 2597 0 
z
" transform="scale(0.015625)"/>
       <path id="ArialMT-20" transform="scale(0.015625)"/>
       <path id="ArialMT-73" d="M 197 991 
L 753 1078 
Q 800 744 1014 566 
Q 1228 388 1613 388 
Q 2000 388 2187 545 
Q 2375 703 2375 916 
Q 2375 1106 2209 1216 
Q 2094 1291 1634 1406 
Q 1016 1563 777 1677 
Q 538 1791 414 1992 
Q 291 2194 291 2438 
Q 291 2659 392 2848 
Q 494 3038 669 3163 
Q 800 3259 1026 3326 
Q 1253 3394 1513 3394 
Q 1903 3394 2198 3281 
Q 2494 3169 2634 2976 
Q 2775 2784 2828 2463 
L 2278 2388 
Q 2241 2644 2061 2787 
Q 1881 2931 1553 2931 
Q 1166 2931 1000 2803 
Q 834 2675 834 2503 
Q 834 2394 903 2306 
Q 972 2216 1119 2156 
Q 1203 2125 1616 2013 
Q 2213 1853 2448 1751 
Q 2684 1650 2818 1456 
Q 2953 1263 2953 975 
Q 2953 694 2789 445 
Q 2625 197 2315 61 
Q 2006 -75 1616 -75 
Q 969 -75 630 194 
Q 291 463 197 991 
z
" transform="scale(0.015625)"/>
       <path id="ArialMT-65" d="M 2694 1069 
L 3275 997 
Q 3138 488 2766 206 
Q 2394 -75 1816 -75 
Q 1088 -75 661 373 
Q 234 822 234 1631 
Q 234 2469 665 2931 
Q 1097 3394 1784 3394 
Q 2450 3394 2872 2941 
Q 3294 2488 3294 1666 
Q 3294 1616 3291 1516 
L 816 1516 
Q 847 969 1125 678 
Q 1403 388 1819 388 
Q 2128 388 2347 550 
Q 2566 713 2694 1069 
z
M 847 1978 
L 2700 1978 
Q 2663 2397 2488 2606 
Q 2219 2931 1791 2931 
Q 1403 2931 1139 2672 
Q 875 2413 847 1978 
z
" transform="scale(0.015625)"/>
       <path id="ArialMT-6c" d="M 409 0 
L 409 4581 
L 972 4581 
L 972 0 
L 409 0 
z
" transform="scale(0.015625)"/>
       <path id="ArialMT-67" d="M 319 -275 
L 866 -356 
Q 900 -609 1056 -725 
Q 1266 -881 1628 -881 
Q 2019 -881 2231 -725 
Q 2444 -569 2519 -288 
Q 2563 -116 2559 434 
Q 2191 0 1641 0 
Q 956 0 581 494 
Q 206 988 206 1678 
Q 206 2153 378 2554 
Q 550 2956 876 3175 
Q 1203 3394 1644 3394 
Q 2231 3394 2613 2919 
L 2613 3319 
L 3131 3319 
L 3131 450 
Q 3131 -325 2973 -648 
Q 2816 -972 2473 -1159 
Q 2131 -1347 1631 -1347 
Q 1038 -1347 672 -1080 
Q 306 -813 319 -275 
z
M 784 1719 
Q 784 1066 1043 766 
Q 1303 466 1694 466 
Q 2081 466 2343 764 
Q 2606 1063 2606 1700 
Q 2606 2309 2336 2618 
Q 2066 2928 1684 2928 
Q 1309 2928 1046 2623 
Q 784 2319 784 1719 
z
" transform="scale(0.015625)"/>
       <path id="ArialMT-70" d="M 422 -1272 
L 422 3319 
L 934 3319 
L 934 2888 
Q 1116 3141 1344 3267 
Q 1572 3394 1897 3394 
Q 2322 3394 2647 3175 
Q 2972 2956 3137 2557 
Q 3303 2159 3303 1684 
Q 3303 1175 3120 767 
Q 2938 359 2589 142 
Q 2241 -75 1856 -75 
Q 1575 -75 1351 44 
Q 1128 163 984 344 
L 984 -1272 
L 422 -1272 
z
M 931 1641 
Q 931 1000 1190 694 
Q 1450 388 1819 388 
Q 2194 388 2461 705 
Q 2728 1022 2728 1688 
Q 2728 2322 2467 2637 
Q 2206 2953 1844 2953 
Q 1484 2953 1207 2617 
Q 931 2281 931 1641 
z
" transform="scale(0.015625)"/>
       <path id="ArialMT-72" d="M 416 0 
L 416 3319 
L 922 3319 
L 922 2816 
Q 1116 3169 1280 3281 
Q 1444 3394 1641 3394 
Q 1925 3394 2219 3213 
L 2025 2691 
Q 1819 2813 1613 2813 
Q 1428 2813 1281 2702 
Q 1134 2591 1072 2394 
Q 978 2094 978 1738 
L 978 0 
L 416 0 
z
" transform="scale(0.015625)"/>
       <path id="ArialMT-63" d="M 2588 1216 
L 3141 1144 
Q 3050 572 2676 248 
Q 2303 -75 1759 -75 
Q 1078 -75 664 370 
Q 250 816 250 1647 
Q 250 2184 428 2587 
Q 606 2991 970 3192 
Q 1334 3394 1763 3394 
Q 2303 3394 2647 3120 
Q 2991 2847 3088 2344 
L 2541 2259 
Q 2463 2594 2264 2762 
Q 2066 2931 1784 2931 
Q 1359 2931 1093 2626 
Q 828 2322 828 1663 
Q 828 994 1084 691 
Q 1341 388 1753 388 
Q 2084 388 2306 591 
Q 2528 794 2588 1216 
z
" transform="scale(0.015625)"/>
       <path id="DejaVuSans-5b" d="M 550 4863 
L 1875 4863 
L 1875 4416 
L 1125 4416 
L 1125 -397 
L 1875 -397 
L 1875 -844 
L 550 -844 
L 550 4863 
z
" transform="scale(0.015625)"/>
       <path id="DejaVuSans-55" d="M 556 4666 
L 1191 4666 
L 1191 1831 
Q 1191 1081 1462 751 
Q 1734 422 2344 422 
Q 2950 422 3222 751 
Q 3494 1081 3494 1831 
L 3494 4666 
L 4128 4666 
L 4128 1753 
Q 4128 841 3676 375 
Q 3225 -91 2344 -91 
Q 1459 -91 1007 375 
Q 556 841 556 1753 
L 556 4666 
z
" transform="scale(0.015625)"/>
       <path id="DejaVuSans-53" d="M 3425 4513 
L 3425 3897 
Q 3066 4069 2747 4153 
Q 2428 4238 2131 4238 
Q 1616 4238 1336 4038 
Q 1056 3838 1056 3469 
Q 1056 3159 1242 3001 
Q 1428 2844 1947 2747 
L 2328 2669 
Q 3034 2534 3370 2195 
Q 3706 1856 3706 1288 
Q 3706 609 3251 259 
Q 2797 -91 1919 -91 
Q 1588 -91 1214 -16 
Q 841 59 441 206 
L 441 856 
Q 825 641 1194 531 
Q 1563 422 1919 422 
Q 2459 422 2753 634 
Q 3047 847 3047 1241 
Q 3047 1584 2836 1778 
Q 2625 1972 2144 2069 
L 1759 2144 
Q 1053 2284 737 2584 
Q 422 2884 422 3419 
Q 422 4038 858 4394 
Q 1294 4750 2059 4750 
Q 2388 4750 2728 4690 
Q 3069 4631 3425 4513 
z
" transform="scale(0.015625)"/>
       <path id="DejaVuSans-44" d="M 1259 4147 
L 1259 519 
L 2022 519 
Q 2988 519 3436 956 
Q 3884 1394 3884 2338 
Q 3884 3275 3436 3711 
Q 2988 4147 2022 4147 
L 1259 4147 
z
M 628 4666 
L 1925 4666 
Q 3281 4666 3915 4102 
Q 4550 3538 4550 2338 
Q 4550 1131 3912 565 
Q 3275 0 1925 0 
L 628 0 
L 628 4666 
z
" transform="scale(0.015625)"/>
       <path id="DejaVuSans-22c5" d="M 684 2619 
L 1344 2619 
L 1344 1825 
L 684 1825 
L 684 2619 
z
" transform="scale(0.015625)"/>
       <path id="DejaVuSans-6b" d="M 581 4863 
L 1159 4863 
L 1159 1991 
L 2875 3500 
L 3609 3500 
L 1753 1863 
L 3688 0 
L 2938 0 
L 1159 1709 
L 1159 0 
L 581 0 
L 581 4863 
z
" transform="scale(0.015625)"/>
       <path id="DejaVuSans-67" d="M 2906 1791 
Q 2906 2416 2648 2759 
Q 2391 3103 1925 3103 
Q 1463 3103 1205 2759 
Q 947 2416 947 1791 
Q 947 1169 1205 825 
Q 1463 481 1925 481 
Q 2391 481 2648 825 
Q 2906 1169 2906 1791 
z
M 3481 434 
Q 3481 -459 3084 -895 
Q 2688 -1331 1869 -1331 
Q 1566 -1331 1297 -1286 
Q 1028 -1241 775 -1147 
L 775 -588 
Q 1028 -725 1275 -790 
Q 1522 -856 1778 -856 
Q 2344 -856 2625 -561 
Q 2906 -266 2906 331 
L 2906 616 
Q 2728 306 2450 153 
Q 2172 0 1784 0 
Q 1141 0 747 490 
Q 353 981 353 1791 
Q 353 2603 747 3093 
Q 1141 3584 1784 3584 
Q 2172 3584 2450 3431 
Q 2728 3278 2906 2969 
L 2906 3500 
L 3481 3500 
L 3481 434 
z
" transform="scale(0.015625)"/>
       <path id="DejaVuSans-2212" d="M 678 2272 
L 4684 2272 
L 4684 1741 
L 678 1741 
L 678 2272 
z
" transform="scale(0.015625)"/>
       <path id="DejaVuSans-31" d="M 794 531 
L 1825 531 
L 1825 4091 
L 703 3866 
L 703 4441 
L 1819 4666 
L 2450 4666 
L 2450 531 
L 3481 531 
L 3481 0 
L 794 0 
L 794 531 
z
" transform="scale(0.015625)"/>
       <path id="DejaVuSans-5d" d="M 1947 4863 
L 1947 -844 
L 622 -844 
L 622 -397 
L 1369 -397 
L 1369 4416 
L 622 4416 
L 622 4863 
L 1947 4863 
z
" transform="scale(0.015625)"/>
      </defs>
      <use xlink:href="#ArialMT-4d" transform="translate(0 0.684375)"/>
      <use xlink:href="#ArialMT-69" transform="translate(83.300781 0.684375)"/>
      <use xlink:href="#ArialMT-6e" transform="translate(105.517578 0.684375)"/>
      <use xlink:href="#ArialMT-69" transform="translate(161.132812 0.684375)"/>
      <use xlink:href="#ArialMT-6d" transform="translate(183.349609 0.684375)"/>
      <use xlink:href="#ArialMT-75" transform="translate(266.650391 0.684375)"/>
      <use xlink:href="#ArialMT-6d" transform="translate(322.265625 0.684375)"/>
      <use xlink:href="#ArialMT-20" transform="translate(405.566406 0.684375)"/>
      <use xlink:href="#ArialMT-73" transform="translate(433.349609 0.684375)"/>
      <use xlink:href="#ArialMT-65" transform="translate(483.349609 0.684375)"/>
      <use xlink:href="#ArialMT-6c" transform="translate(538.964844 0.684375)"/>
      <use xlink:href="#ArialMT-6c" transform="translate(561.181641 0.684375)"/>
      <use xlink:href="#ArialMT-69" transform="translate(583.398438 0.684375)"/>
      <use xlink:href="#ArialMT-6e" transform="translate(605.615234 0.684375)"/>
      <use xlink:href="#ArialMT-67" transform="translate(661.230469 0.684375)"/>
      <use xlink:href="#ArialMT-20" transform="translate(716.845703 0.684375)"/>
      <use xlink:href="#ArialMT-70" transform="translate(744.628906 0.684375)"/>
      <use xlink:href="#ArialMT-72" transform="translate(800.244141 0.684375)"/>
      <use xlink:href="#ArialMT-69" transform="translate(833.544922 0.684375)"/>
      <use xlink:href="#ArialMT-63" transform="translate(855.761719 0.684375)"/>
      <use xlink:href="#ArialMT-65" transform="translate(905.761719 0.684375)"/>
      <use xlink:href="#ArialMT-20" transform="translate(961.376953 0.684375)"/>
      <use xlink:href="#DejaVuSans-5b" transform="translate(989.160156 0.684375)"/>
      <use xlink:href="#DejaVuSans-55" transform="translate(1028.173828 0.684375)"/>
      <use xlink:href="#DejaVuSans-53" transform="translate(1101.367188 0.684375)"/>
      <use xlink:href="#DejaVuSans-44" transform="translate(1164.84375 0.684375)"/>
      <use xlink:href="#DejaVuSans-22c5" transform="translate(1261.328125 0.684375)"/>
      <use xlink:href="#DejaVuSans-6b" transform="translate(1312.597656 0.684375)"/>
      <use xlink:href="#DejaVuSans-67" transform="translate(1370.507812 0.684375)"/>
      <use xlink:href="#DejaVuSans-2212" transform="translate(1434.941406 38.965625) scale(0.7)"/>
      <use xlink:href="#DejaVuSans-31" transform="translate(1493.59375 38.965625) scale(0.7)"/>
      <use xlink:href="#DejaVuSans-5d" transform="translate(1540.864258 0.684375)"/>
     </g>
    </g>
   </g>
   <g id="LineCollection_1"/>
   <g id="patch_3">
    <path d="M 162.524738 186.44107 
L 166.650014 186.44107 
L 170.775291 186.44107 
L 170.775291 21.430008 
L 166.650014 21.430008 
L 162.524738 21.430008 
L 162.524738 186.44107 
z
" style="fill: none; stroke: #000000; stroke-width: 0.8; stroke-linejoin: miter; stroke-linecap: square"/>
   </g>
  </g>
  <g id="axes_3">
   <g id="patch_4">
    <path d="M 23.81112 186.44107 
L 156.710394 186.44107 
L 156.710394 21.430008 
L 23.81112 21.430008 
L 23.81112 186.44107 
z
" style="fill: none"/>
   </g>
   <g id="QuadContourSet_1">
    <path clip-path="url(#pb2bc0d2dc2)" style="fill: #f1e51d; stroke: #f1e51d"/>
    <path d="M 24.891597 21.430008 
L 23.81112 21.430008 
L 23.81112 23.202658 
z
" clip-path="url(#pb2bc0d2dc2)" style="fill: #d5e21a; stroke: #d5e21a"/>
    <path d="M 38.577706 59.125891 
L 39.473194 58.099133 
L 53.037792 39.76457 
L 53.344292 39.114322 
L 61.672914 21.430008 
L 53.344292 21.430008 
L 38.577706 21.430008 
L 24.891597 21.430008 
L 23.81112 23.202658 
L 23.81112 39.76457 
L 23.81112 58.099133 
L 23.81112 71.596253 
z
" clip-path="url(#pb2bc0d2dc2)" style="fill: #bade28; stroke: #bade28"/>
    <path d="M 30.930268 94.768258 
L 38.577706 88.790327 
L 50.622279 76.433695 
L 53.344292 73.289727 
L 67.023248 58.099133 
L 68.110878 56.679916 
L 82.221255 39.76457 
L 82.877464 38.537972 
L 92.593863 21.430008 
L 82.877464 21.430008 
L 68.110878 21.430008 
L 61.672914 21.430008 
L 53.344292 39.114322 
L 53.037792 39.76457 
L 39.473194 58.099133 
L 38.577706 59.125891 
L 23.81112 71.596253 
L 23.81112 76.433695 
L 23.81112 94.768258 
L 23.81112 99.520759 
z
" clip-path="url(#pb2bc0d2dc2)" style="fill: #9dd93b; stroke: #9dd93b"/>
    <path d="M 35.691285 113.10282 
L 38.577706 111.070292 
L 53.344292 97.330168 
L 56.226288 94.768258 
L 68.110878 82.685748 
L 74.934975 76.433695 
L 82.877464 68.196447 
L 93.639115 58.099133 
L 97.64405 53.651538 
L 111.318523 39.76457 
L 112.410636 38.027247 
L 123.538178 21.430008 
L 112.410636 21.430008 
L 97.64405 21.430008 
L 92.593863 21.430008 
L 82.877464 38.537972 
L 82.221255 39.76457 
L 68.110878 56.679916 
L 67.023248 58.099133 
L 53.344292 73.289727 
L 50.622279 76.433695 
L 38.577706 88.790327 
L 30.930268 94.768258 
L 23.81112 99.520759 
L 23.81112 113.10282 
L 23.81112 120.011316 
z
" clip-path="url(#pb2bc0d2dc2)" style="fill: #81d34d; stroke: #81d34d"/>
    <path d="M 32.807325 131.437382 
L 38.577706 127.841508 
L 53.344292 115.823478 
L 56.852957 113.10282 
L 68.110878 102.76584 
L 77.877675 94.768258 
L 82.877464 90.060652 
L 97.64405 77.504052 
L 99.010386 76.433695 
L 112.410636 64.447108 
L 120.290794 58.099133 
L 127.177222 51.494107 
L 141.381597 39.76457 
L 141.943808 39.031911 
L 156.710394 26.423815 
L 156.710394 21.430008 
L 141.943808 21.430008 
L 127.177222 21.430008 
L 123.538178 21.430008 
L 112.410636 38.027247 
L 111.318523 39.76457 
L 97.64405 53.651538 
L 93.639115 58.099133 
L 82.877464 68.196447 
L 74.934975 76.433695 
L 68.110878 82.685748 
L 56.226288 94.768258 
L 53.344292 97.330168 
L 38.577706 111.070292 
L 35.691285 113.10282 
L 23.81112 120.011316 
L 23.81112 131.437382 
L 23.81112 135.85669 
z
" clip-path="url(#pb2bc0d2dc2)" style="fill: #69cd5b; stroke: #69cd5b"/>
    <path d="M 38.577706 140.835096 
L 52.531279 131.437382 
L 53.344292 130.759 
L 68.110878 118.79875 
L 76.078281 113.10282 
L 82.877464 107.314099 
L 97.64405 96.053816 
L 99.476141 94.768258 
L 112.410636 84.235634 
L 123.140066 76.433695 
L 127.177222 73.068916 
L 141.943808 62.333125 
L 151.188871 58.099133 
L 156.710394 55.01166 
L 156.710394 39.76457 
L 156.710394 26.423815 
L 141.943808 39.031911 
L 141.381597 39.76457 
L 127.177222 51.494107 
L 120.290794 58.099133 
L 112.410636 64.447108 
L 99.010386 76.433695 
L 97.64405 77.504052 
L 82.877464 90.060652 
L 77.877675 94.768258 
L 68.110878 102.76584 
L 56.852957 113.10282 
L 53.344292 115.823478 
L 38.577706 127.841508 
L 32.807325 131.437382 
L 23.81112 135.85669 
L 23.81112 148.714983 
z
" clip-path="url(#pb2bc0d2dc2)" style="fill: #52c569; stroke: #52c569"/>
    <path d="M 38.577706 152.263625 
L 42.541728 149.771945 
L 53.344292 141.983633 
L 68.110878 132.22899 
L 69.419034 131.437382 
L 82.877464 121.275172 
L 95.252289 113.10282 
L 97.64405 111.211967 
L 112.410636 100.444734 
L 121.118452 94.768258 
L 127.177222 90.166374 
L 141.943808 80.457082 
L 151.657254 76.433695 
L 156.710394 73.971422 
L 156.710394 58.099133 
L 156.710394 55.01166 
L 151.188871 58.099133 
L 141.943808 62.333125 
L 127.177222 73.068916 
L 123.140066 76.433695 
L 112.410636 84.235634 
L 99.476141 94.768258 
L 97.64405 96.053816 
L 82.877464 107.314099 
L 76.078281 113.10282 
L 68.110878 118.79875 
L 53.344292 130.759 
L 52.531279 131.437382 
L 38.577706 140.835096 
L 23.81112 148.714983 
L 23.81112 149.771945 
L 23.81112 159.192407 
z
" clip-path="url(#pb2bc0d2dc2)" style="fill: #3dbc74; stroke: #3dbc74"/>
    <path d="M 26.31307 168.106507 
L 38.577706 161.895832 
L 53.344292 152.379382 
L 57.599915 149.771945 
L 68.110878 142.376769 
L 82.877464 133.289395 
L 86.1883 131.437382 
L 97.64405 123.399968 
L 112.410636 114.259129 
L 114.438414 113.10282 
L 127.177222 104.33088 
L 141.943808 95.775064 
L 144.651456 94.768258 
L 156.710394 89.405571 
L 156.710394 76.433695 
L 156.710394 73.971422 
L 151.657254 76.433695 
L 141.943808 80.457082 
L 127.177222 90.166374 
L 121.118452 94.768258 
L 112.410636 100.444734 
L 97.64405 111.211967 
L 95.252289 113.10282 
L 82.877464 121.275172 
L 69.419034 131.437382 
L 68.110878 132.22899 
L 53.344292 141.983633 
L 42.541728 149.771945 
L 38.577706 152.263625 
L 23.81112 159.192407 
L 23.81112 168.106507 
L 23.81112 169.769195 
z
" clip-path="url(#pb2bc0d2dc2)" style="fill: #2eb37c; stroke: #2eb37c"/>
    <path d="M 38.577706 172.325323 
L 43.199718 168.106507 
L 53.344292 161.216602 
L 68.110878 151.975844 
L 72.005393 149.771945 
L 82.877464 142.66921 
L 97.64405 134.199951 
L 102.957474 131.437382 
L 112.410636 125.245082 
L 127.177222 116.594584 
L 134.111187 113.10282 
L 141.943808 108.306993 
L 156.710394 102.522545 
L 156.710394 94.768258 
L 156.710394 89.405571 
L 144.651456 94.768258 
L 141.943808 95.775064 
L 127.177222 104.33088 
L 114.438414 113.10282 
L 112.410636 114.259129 
L 97.64405 123.399968 
L 86.1883 131.437382 
L 82.877464 133.289395 
L 68.110878 142.376769 
L 57.599915 149.771945 
L 53.344292 152.379382 
L 38.577706 161.895832 
L 26.31307 168.106507 
L 23.81112 169.769195 
L 23.81112 182.409965 
z
" clip-path="url(#pb2bc0d2dc2)" style="fill: #23a983; stroke: #23a983"/>
    <path d="M 38.577706 184.202021 
L 53.344292 170.511118 
L 56.043068 168.106507 
L 68.110878 160.100768 
L 82.877464 151.596609 
L 86.362568 149.771945 
L 97.64405 142.919652 
L 112.410636 134.992012 
L 119.76233 131.437382 
L 127.177222 126.901404 
L 141.943808 119.115466 
L 156.710394 114.264555 
L 156.710394 113.10282 
L 156.710394 102.522545 
L 141.943808 108.306993 
L 134.111187 113.10282 
L 127.177222 116.594584 
L 112.410636 125.245082 
L 102.957474 131.437382 
L 97.64405 134.199951 
L 82.877464 142.66921 
L 72.005393 149.771945 
L 68.110878 151.975844 
L 53.344292 161.216602 
L 43.199718 168.106507 
L 38.577706 172.325323 
L 23.81112 182.409965 
L 23.81112 186.44107 
L 35.376492 186.44107 
z
" clip-path="url(#pb2bc0d2dc2)" style="fill: #1f9f88; stroke: #1f9f88"/>
    <path d="M 38.577706 186.44107 
L 48.003536 186.44107 
L 53.344292 181.423621 
L 68.110878 168.253871 
L 68.289712 168.106507 
L 82.877464 159.112824 
L 97.64405 151.269394 
L 100.718973 149.771945 
L 112.410636 143.13841 
L 127.177222 135.718392 
L 137.199124 131.437382 
L 141.943808 128.85552 
L 156.710394 123.651481 
L 156.710394 114.264555 
L 141.943808 119.115466 
L 127.177222 126.901404 
L 119.76233 131.437382 
L 112.410636 134.992012 
L 97.64405 142.919652 
L 86.362568 149.771945 
L 82.877464 151.596609 
L 68.110878 160.100768 
L 56.043068 168.106507 
L 53.344292 170.511118 
L 38.577706 184.202021 
L 35.376492 186.44107 
z
" clip-path="url(#pb2bc0d2dc2)" style="fill: #1f958b; stroke: #1f958b"/>
    <path d="M 53.344292 186.44107 
L 59.250559 186.44107 
L 68.110878 178.299824 
L 80.48101 168.106507 
L 82.877464 166.629038 
L 97.64405 158.261605 
L 112.410636 150.98584 
L 115.089319 149.771945 
L 127.177222 143.364348 
L 141.943808 136.749389 
L 156.710394 132.625736 
L 156.710394 131.437382 
L 156.710394 123.651481 
L 141.943808 128.85552 
L 137.199124 131.437382 
L 127.177222 135.718392 
L 112.410636 143.13841 
L 100.718973 149.771945 
L 97.64405 151.269394 
L 82.877464 159.112824 
L 68.289712 168.106507 
L 68.110878 168.253871 
L 53.344292 181.423621 
L 48.003536 186.44107 
z
" clip-path="url(#pb2bc0d2dc2)" style="fill: #228b8d; stroke: #228b8d"/>
    <path d="M 68.110878 186.44107 
L 70.174267 186.44107 
L 82.877464 175.5813 
L 92.67093 168.106507 
L 97.64405 165.253816 
L 112.410636 157.522375 
L 127.177222 150.766121 
L 129.65907 149.771945 
L 141.943808 143.977365 
L 156.710394 139.593141 
L 156.710394 132.625736 
L 141.943808 136.749389 
L 127.177222 143.364348 
L 115.089319 149.771945 
L 112.410636 150.98584 
L 97.64405 158.261605 
L 82.877464 166.629038 
L 80.48101 168.106507 
L 68.110878 178.299824 
L 59.250559 186.44107 
z
" clip-path="url(#pb2bc0d2dc2)" style="fill: #26818e; stroke: #26818e"/>
    <path d="M 82.877464 184.884912 
L 97.64405 173.235327 
L 104.861493 168.106507 
L 112.410636 164.058909 
L 127.177222 156.90443 
L 141.943808 150.923219 
L 146.385952 149.771945 
L 156.710394 146.560545 
L 156.710394 139.593141 
L 141.943808 143.977365 
L 129.65907 149.771945 
L 127.177222 150.766121 
L 112.410636 157.522375 
L 97.64405 165.253816 
L 92.67093 168.106507 
L 82.877464 175.5813 
L 70.174267 186.44107 
L 81.057151 186.44107 
z
" clip-path="url(#pb2bc0d2dc2)" style="fill: #2a778e; stroke: #2a778e"/>
    <path d="M 82.877464 186.44107 
L 91.938636 186.44107 
L 97.64405 181.898599 
L 112.410636 171.192847 
L 117.074013 168.106507 
L 127.177222 163.042739 
L 141.943808 156.728584 
L 156.710394 152.789539 
L 156.710394 149.771945 
L 156.710394 146.560545 
L 146.385952 149.771945 
L 141.943808 150.923219 
L 127.177222 156.90443 
L 112.410636 164.058909 
L 104.861493 168.106507 
L 97.64405 173.235327 
L 82.877464 184.884912 
L 81.057151 186.44107 
z
" clip-path="url(#pb2bc0d2dc2)" style="fill: #2e6d8e; stroke: #2e6d8e"/>
    <path d="M 97.64405 186.44107 
L 102.820527 186.44107 
L 112.410636 179.298303 
L 127.177222 169.439936 
L 129.454816 168.106507 
L 141.943808 162.533948 
L 156.710394 158.387189 
L 156.710394 152.789539 
L 141.943808 156.728584 
L 127.177222 163.042739 
L 117.074013 168.106507 
L 112.410636 171.192847 
L 97.64405 181.898599 
L 91.938636 186.44107 
z
" clip-path="url(#pb2bc0d2dc2)" style="fill: #33628d; stroke: #33628d"/>
    <path d="M 112.410636 186.44107 
L 113.709092 186.44107 
L 127.177222 177.057144 
L 141.943808 168.395579 
L 142.706495 168.106507 
L 156.710394 163.984838 
L 156.710394 158.387189 
L 141.943808 162.533948 
L 129.454816 168.106507 
L 127.177222 169.439936 
L 112.410636 179.298303 
L 102.820527 186.44107 
z
" clip-path="url(#pb2bc0d2dc2)" style="fill: #38588c; stroke: #38588c"/>
    <path d="M 127.177222 184.674352 
L 141.943808 175.604023 
L 156.710394 169.939909 
L 156.710394 168.106507 
L 156.710394 163.984838 
L 142.706495 168.106507 
L 141.943808 168.395579 
L 127.177222 177.057144 
L 113.709092 186.44107 
L 124.64157 186.44107 
z
" clip-path="url(#pb2bc0d2dc2)" style="fill: #3e4c8a; stroke: #3e4c8a"/>
    <path d="M 127.177222 186.44107 
L 136.097515 186.44107 
L 141.943808 182.812466 
L 156.710394 176.893076 
L 156.710394 169.939909 
L 141.943808 175.604023 
L 127.177222 184.674352 
L 124.64157 186.44107 
z
" clip-path="url(#pb2bc0d2dc2)" style="fill: #423f85; stroke: #423f85"/>
    <path d="M 141.943808 186.44107 
L 150.374841 186.44107 
L 156.710394 183.846242 
L 156.710394 176.893076 
L 141.943808 182.812466 
L 136.097515 186.44107 
z
" clip-path="url(#pb2bc0d2dc2)" style="fill: #46337f; stroke: #46337f"/>
    <path d="M 156.710394 186.44107 
L 156.710394 183.846242 
L 150.374841 186.44107 
z
" clip-path="url(#pb2bc0d2dc2)" style="fill: #482576; stroke: #482576"/>
    <path clip-path="url(#pb2bc0d2dc2)" style="fill: #481769; stroke: #481769"/>
    <path clip-path="url(#pb2bc0d2dc2)" style="fill: #46085c; stroke: #46085c"/>
   </g>
   <g id="QuadContourSet_2">
    <path clip-path="url(#pb2bc0d2dc2)" style="fill: none; stroke: #3d4240; stroke-opacity: 0.1; stroke-width: 0.8"/>
    <path clip-path="url(#pb2bc0d2dc2)" style="fill: none; stroke: #3d4240; stroke-opacity: 0.1; stroke-width: 0.8"/>
    <path d="M 24.891597 21.430008 
L 23.81112 23.202658 
" clip-path="url(#pb2bc0d2dc2)" style="fill: none; stroke: #3d4240; stroke-opacity: 0.1; stroke-width: 0.8"/>
    <path d="M 61.672914 21.430008 
L 53.344292 39.114322 
L 53.037792 39.76457 
L 44.291742 51.586152 
M 33.441224 63.463643 
L 23.81112 71.596253 
" clip-path="url(#pb2bc0d2dc2)" style="fill: none; stroke: #3d4240; stroke-opacity: 0.1; stroke-width: 0.8"/>
    <path d="M 92.593863 21.430008 
L 82.877464 38.537972 
L 82.221255 39.76457 
L 68.110878 56.679916 
L 67.023248 58.099133 
L 53.344292 73.289727 
L 50.622279 76.433695 
L 38.577706 88.790327 
L 30.930268 94.768258 
L 23.81112 99.520759 
" clip-path="url(#pb2bc0d2dc2)" style="fill: none; stroke: #3d4240; stroke-opacity: 0.1; stroke-width: 0.8"/>
    <path d="M 123.538178 21.430008 
L 112.410636 38.027247 
L 111.318523 39.76457 
L 97.64405 53.651538 
L 93.639115 58.099133 
L 82.877464 68.196447 
L 74.934975 76.433695 
L 68.110878 82.685748 
L 56.226288 94.768258 
L 53.344292 97.330168 
L 38.577706 111.070292 
L 35.691285 113.10282 
L 23.81112 120.011316 
" clip-path="url(#pb2bc0d2dc2)" style="fill: none; stroke: #3d4240; stroke-opacity: 0.1; stroke-width: 0.8"/>
    <path d="M 156.710394 26.423815 
L 141.943808 39.031911 
L 141.381597 39.76457 
L 127.177222 51.494107 
L 120.290794 58.099133 
L 112.410636 64.447108 
L 99.010386 76.433695 
L 97.64405 77.504052 
L 85.888422 87.500318 
M 79.998489 92.771383 
L 77.877675 94.768258 
L 68.110878 102.76584 
L 56.852957 113.10282 
L 53.344292 115.823478 
L 38.577706 127.841508 
L 32.807325 131.437382 
L 23.81112 135.85669 
" clip-path="url(#pb2bc0d2dc2)" style="fill: none; stroke: #3d4240; stroke-opacity: 0.1; stroke-width: 0.8"/>
    <path d="M 156.710394 55.01166 
L 151.188871 58.099133 
L 141.943808 62.333125 
L 127.177222 73.068916 
L 123.140066 76.433695 
L 112.410636 84.235634 
L 99.476141 94.768258 
L 97.64405 96.053816 
L 82.877464 107.314099 
L 76.078281 113.10282 
L 68.110878 118.79875 
L 53.344292 130.759 
L 52.531279 131.437382 
L 38.577706 140.835096 
L 23.81112 148.714983 
" clip-path="url(#pb2bc0d2dc2)" style="fill: none; stroke: #3d4240; stroke-opacity: 0.1; stroke-width: 0.8"/>
    <path d="M 156.710394 73.971422 
L 151.657254 76.433695 
L 141.943808 80.457082 
L 127.177222 90.166374 
L 121.118452 94.768258 
L 112.410636 100.444734 
L 97.64405 111.211967 
L 95.252289 113.10282 
L 82.877464 121.275172 
L 69.419034 131.437382 
L 68.110878 132.22899 
L 53.344292 141.983633 
L 42.541728 149.771945 
L 38.577706 152.263625 
L 23.81112 159.192407 
" clip-path="url(#pb2bc0d2dc2)" style="fill: none; stroke: #3d4240; stroke-opacity: 0.1; stroke-width: 0.8"/>
    <path d="M 156.710394 89.405571 
L 144.651456 94.768258 
L 141.943808 95.775064 
L 127.177222 104.33088 
L 114.438414 113.10282 
L 112.410636 114.259129 
L 97.64405 123.399968 
L 92.799927 126.79863 
M 79.234701 135.531156 
L 68.110878 142.376769 
L 57.599915 149.771945 
L 53.344292 152.379382 
L 38.577706 161.895832 
L 26.31307 168.106507 
L 23.81112 169.769195 
" clip-path="url(#pb2bc0d2dc2)" style="fill: none; stroke: #3d4240; stroke-opacity: 0.1; stroke-width: 0.8"/>
    <path d="M 156.710394 102.522545 
L 141.943808 108.306993 
L 134.111187 113.10282 
L 127.177222 116.594584 
L 112.410636 125.245082 
L 102.957474 131.437382 
L 97.64405 134.199951 
L 82.877464 142.66921 
L 72.005393 149.771945 
L 68.110878 151.975844 
L 53.344292 161.216602 
L 43.199718 168.106507 
L 38.577706 172.325323 
L 23.81112 182.409965 
" clip-path="url(#pb2bc0d2dc2)" style="fill: none; stroke: #3d4240; stroke-opacity: 0.1; stroke-width: 0.8"/>
    <path d="M 156.710394 114.264555 
L 141.943808 119.115466 
L 127.177222 126.901404 
L 119.76233 131.437382 
L 112.410636 134.992012 
L 97.64405 142.919652 
L 86.362568 149.771945 
L 82.877464 151.596609 
L 68.110878 160.100768 
L 56.043068 168.106507 
L 53.344292 170.511118 
L 38.577706 184.202021 
L 35.376492 186.44107 
" clip-path="url(#pb2bc0d2dc2)" style="fill: none; stroke: #3d4240; stroke-opacity: 0.1; stroke-width: 0.8"/>
    <path d="M 156.710394 123.651481 
L 141.943808 128.85552 
L 137.199124 131.437382 
L 127.177222 135.718392 
L 112.410636 143.13841 
L 101.174449 149.51352 
M 94.160324 153.119812 
L 82.877464 159.112824 
L 68.289712 168.106507 
L 68.110878 168.253871 
L 53.344292 181.423621 
L 48.003536 186.44107 
" clip-path="url(#pb2bc0d2dc2)" style="fill: none; stroke: #3d4240; stroke-opacity: 0.1; stroke-width: 0.8"/>
    <path d="M 156.710394 132.625736 
L 141.943808 136.749389 
L 127.177222 143.364348 
L 115.089319 149.771945 
L 112.410636 150.98584 
L 97.64405 158.261605 
L 82.877464 166.629038 
L 80.48101 168.106507 
L 68.110878 178.299824 
L 59.250559 186.44107 
" clip-path="url(#pb2bc0d2dc2)" style="fill: none; stroke: #3d4240; stroke-opacity: 0.1; stroke-width: 0.8"/>
    <path d="M 156.710394 139.593141 
L 141.943808 143.977365 
L 129.65907 149.771945 
L 127.177222 150.766121 
L 112.410636 157.522375 
L 97.64405 165.253816 
L 92.67093 168.106507 
L 82.877464 175.5813 
L 70.174267 186.44107 
" clip-path="url(#pb2bc0d2dc2)" style="fill: none; stroke: #3d4240; stroke-opacity: 0.1; stroke-width: 0.8"/>
    <path d="M 156.710394 146.560545 
L 146.385952 149.771945 
L 141.943808 150.923219 
L 127.177222 156.90443 
L 119.682556 160.535631 
M 105.286886 167.878426 
L 104.861493 168.106507 
L 97.64405 173.235327 
L 82.877464 184.884912 
L 81.057151 186.44107 
" clip-path="url(#pb2bc0d2dc2)" style="fill: none; stroke: #3d4240; stroke-opacity: 0.1; stroke-width: 0.8"/>
    <path d="M 156.710394 152.789539 
L 141.943808 156.728584 
L 127.177222 163.042739 
L 117.074013 168.106507 
L 112.410636 171.192847 
L 97.64405 181.898599 
L 91.938636 186.44107 
" clip-path="url(#pb2bc0d2dc2)" style="fill: none; stroke: #3d4240; stroke-opacity: 0.1; stroke-width: 0.8"/>
    <path d="M 156.710394 158.387189 
L 141.943808 162.533948 
L 129.454816 168.106507 
L 127.177222 169.439936 
L 112.410636 179.298303 
L 102.820527 186.44107 
" clip-path="url(#pb2bc0d2dc2)" style="fill: none; stroke: #3d4240; stroke-opacity: 0.1; stroke-width: 0.8"/>
    <path d="M 156.710394 163.984838 
L 147.985063 166.552903 
M 136.485017 171.597516 
L 127.177222 177.057144 
L 113.709092 186.44107 
" clip-path="url(#pb2bc0d2dc2)" style="fill: none; stroke: #3d4240; stroke-opacity: 0.1; stroke-width: 0.8"/>
    <path d="M 156.710394 169.939909 
L 141.943808 175.604023 
L 127.177222 184.674352 
L 124.64157 186.44107 
" clip-path="url(#pb2bc0d2dc2)" style="fill: none; stroke: #3d4240; stroke-opacity: 0.1; stroke-width: 0.8"/>
    <path d="M 156.710394 176.893076 
L 141.943808 182.812466 
L 136.097515 186.44107 
" clip-path="url(#pb2bc0d2dc2)" style="fill: none; stroke: #3d4240; stroke-opacity: 0.1; stroke-width: 0.8"/>
    <path d="M 156.710394 183.846242 
L 150.374841 186.44107 
" clip-path="url(#pb2bc0d2dc2)" style="fill: none; stroke: #3d4240; stroke-opacity: 0.1; stroke-width: 0.8"/>
    <path clip-path="url(#pb2bc0d2dc2)" style="fill: none; stroke: #3d4240; stroke-opacity: 0.1; stroke-width: 0.8"/>
    <path clip-path="url(#pb2bc0d2dc2)" style="fill: none; stroke: #3d4240; stroke-opacity: 0.1; stroke-width: 0.8"/>
    <path clip-path="url(#pb2bc0d2dc2)" style="fill: none; stroke: #3d4240; stroke-opacity: 0.1; stroke-width: 0.8"/>
   </g>
   <g id="text_7">
    <g clip-path="url(#pb2bc0d2dc2)">
     <!-- 3.5 -->
     <g transform="translate(32.523194 60.684289) scale(0.1 -0.1)">
      <defs>
       <path id="ArialMT-33" d="M 269 1209 
L 831 1284 
Q 928 806 1161 595 
Q 1394 384 1728 384 
Q 2125 384 2398 659 
Q 2672 934 2672 1341 
Q 2672 1728 2419 1979 
Q 2166 2231 1775 2231 
Q 1616 2231 1378 2169 
L 1441 2663 
Q 1497 2656 1531 2656 
Q 1891 2656 2178 2843 
Q 2466 3031 2466 3422 
Q 2466 3731 2256 3934 
Q 2047 4138 1716 4138 
Q 1388 4138 1169 3931 
Q 950 3725 888 3313 
L 325 3413 
Q 428 3978 793 4289 
Q 1159 4600 1703 4600 
Q 2078 4600 2393 4439 
Q 2709 4278 2876 4000 
Q 3044 3722 3044 3409 
Q 3044 3113 2884 2869 
Q 2725 2625 2413 2481 
Q 2819 2388 3044 2092 
Q 3269 1797 3269 1353 
Q 3269 753 2831 336 
Q 2394 -81 1725 -81 
Q 1122 -81 723 278 
Q 325 638 269 1209 
z
" transform="scale(0.015625)"/>
       <path id="ArialMT-2e" d="M 581 0 
L 581 641 
L 1222 641 
L 1222 0 
L 581 0 
z
" transform="scale(0.015625)"/>
      </defs>
      <use xlink:href="#ArialMT-33"/>
      <use xlink:href="#ArialMT-2e" transform="translate(55.615234 0)"/>
      <use xlink:href="#ArialMT-35" transform="translate(83.398438 0)"/>
     </g>
    </g>
   </g>
   <g id="text_8">
    <g clip-path="url(#pb2bc0d2dc2)">
     <!-- 5 -->
     <g transform="translate(80.096995 92.645808) scale(0.1 -0.1)">
      <use xlink:href="#ArialMT-35"/>
     </g>
    </g>
   </g>
   <g id="text_9">
    <g clip-path="url(#pb2bc0d2dc2)">
     <!-- 6.5 -->
     <g transform="translate(79.2383 134.022539) scale(0.1 -0.1)">
      <defs>
       <path id="ArialMT-36" d="M 3184 3459 
L 2625 3416 
Q 2550 3747 2413 3897 
Q 2184 4138 1850 4138 
Q 1581 4138 1378 3988 
Q 1113 3794 959 3422 
Q 806 3050 800 2363 
Q 1003 2672 1297 2822 
Q 1591 2972 1913 2972 
Q 2475 2972 2870 2558 
Q 3266 2144 3266 1488 
Q 3266 1056 3080 686 
Q 2894 316 2569 119 
Q 2244 -78 1831 -78 
Q 1128 -78 684 439 
Q 241 956 241 2144 
Q 241 3472 731 4075 
Q 1159 4600 1884 4600 
Q 2425 4600 2770 4297 
Q 3116 3994 3184 3459 
z
M 888 1484 
Q 888 1194 1011 928 
Q 1134 663 1356 523 
Q 1578 384 1822 384 
Q 2178 384 2434 671 
Q 2691 959 2691 1453 
Q 2691 1928 2437 2201 
Q 2184 2475 1800 2475 
Q 1419 2475 1153 2201 
Q 888 1928 888 1484 
z
" transform="scale(0.015625)"/>
      </defs>
      <use xlink:href="#ArialMT-36"/>
      <use xlink:href="#ArialMT-2e" transform="translate(55.615234 0)"/>
      <use xlink:href="#ArialMT-35" transform="translate(83.398438 0)"/>
     </g>
    </g>
   </g>
   <g id="text_10">
    <g clip-path="url(#pb2bc0d2dc2)">
     <!-- 8 -->
     <g transform="translate(94.863581 153.85455) scale(0.1 -0.1)">
      <use xlink:href="#ArialMT-38"/>
     </g>
    </g>
   </g>
   <g id="text_11">
    <g clip-path="url(#pb2bc0d2dc2)">
     <!-- 9.5 -->
     <g transform="translate(105.460636 166.644066) scale(0.1 -0.1)">
      <defs>
       <path id="ArialMT-39" d="M 350 1059 
L 891 1109 
Q 959 728 1153 556 
Q 1347 384 1650 384 
Q 1909 384 2104 503 
Q 2300 622 2425 820 
Q 2550 1019 2634 1356 
Q 2719 1694 2719 2044 
Q 2719 2081 2716 2156 
Q 2547 1888 2255 1720 
Q 1963 1553 1622 1553 
Q 1053 1553 659 1965 
Q 266 2378 266 3053 
Q 266 3750 677 4175 
Q 1088 4600 1706 4600 
Q 2153 4600 2523 4359 
Q 2894 4119 3086 3673 
Q 3278 3228 3278 2384 
Q 3278 1506 3087 986 
Q 2897 466 2520 194 
Q 2144 -78 1638 -78 
Q 1100 -78 759 220 
Q 419 519 350 1059 
z
M 2653 3081 
Q 2653 3566 2395 3850 
Q 2138 4134 1775 4134 
Q 1400 4134 1122 3828 
Q 844 3522 844 3034 
Q 844 2597 1108 2323 
Q 1372 2050 1759 2050 
Q 2150 2050 2401 2323 
Q 2653 2597 2653 3081 
z
" transform="scale(0.015625)"/>
      </defs>
      <use xlink:href="#ArialMT-39"/>
      <use xlink:href="#ArialMT-2e" transform="translate(55.615234 0)"/>
      <use xlink:href="#ArialMT-35" transform="translate(83.398438 0)"/>
     </g>
    </g>
   </g>
   <g id="text_12">
    <g clip-path="url(#pb2bc0d2dc2)">
     <!-- 11 -->
     <g transform="translate(136.751621 170.980735) scale(0.1 -0.1)">
      <use xlink:href="#ArialMT-31"/>
      <use xlink:href="#ArialMT-31" transform="translate(48.240234 0)"/>
     </g>
    </g>
   </g>
   <g id="QuadContourSet_3">
    <path d="M 156.710394 26.423815 
L 141.943808 39.031911 
L 141.381597 39.76457 
L 127.177222 51.494107 
L 120.290794 58.099133 
L 112.410636 64.447108 
L 99.010386 76.433695 
L 97.64405 77.504052 
L 85.888422 87.500318 
M 79.998489 92.771383 
L 77.877675 94.768258 
L 68.110878 102.76584 
L 56.852957 113.10282 
L 53.344292 115.823478 
L 38.577706 127.841508 
L 32.807325 131.437382 
L 23.81112 135.85669 
" clip-path="url(#pb2bc0d2dc2)" style="fill: none; stroke: #ff0000; stroke-width: 0.8"/>
   </g>
   <g id="text_13">
    <g clip-path="url(#pb2bc0d2dc2)">
     <!-- 5 -->
     <g style="fill: #ff0000" transform="translate(80.096995 92.645808) scale(0.1 -0.1)">
      <use xlink:href="#ArialMT-35"/>
     </g>
    </g>
   </g>
   <g id="matplotlib.axis_3">
    <g id="xtick_1">
     <g id="line2d_6">
      <defs>
       <path id="m5768ffdfa6" d="M 0 3 
L 0 -3 
" style="stroke: #000000; stroke-width: 0.8"/>
      </defs>
      <g>
       <use xlink:href="#m5768ffdfa6" x="23.81112" y="186.44107" style="stroke: #000000; stroke-width: 0.8"/>
      </g>
     </g>
     <g id="text_14">
      <!-- 2 -->
      <g transform="translate(21.030651 200.098882) scale(0.1 -0.1)">
       <use xlink:href="#ArialMT-32"/>
      </g>
     </g>
    </g>
    <g id="xtick_2">
     <g id="line2d_7">
      <g>
       <use xlink:href="#m5768ffdfa6" x="57.035939" y="186.44107" style="stroke: #000000; stroke-width: 0.8"/>
      </g>
     </g>
     <g id="text_15">
      <!-- 3 -->
      <g transform="translate(54.25547 200.098882) scale(0.1 -0.1)">
       <use xlink:href="#ArialMT-33"/>
      </g>
     </g>
    </g>
    <g id="xtick_3">
     <g id="line2d_8">
      <g>
       <use xlink:href="#m5768ffdfa6" x="90.260757" y="186.44107" style="stroke: #000000; stroke-width: 0.8"/>
      </g>
     </g>
     <g id="text_16">
      <!-- 4 -->
      <g transform="translate(87.480288 200.098882) scale(0.1 -0.1)">
       <use xlink:href="#ArialMT-34"/>
      </g>
     </g>
    </g>
    <g id="xtick_4">
     <g id="line2d_9">
      <g>
       <use xlink:href="#m5768ffdfa6" x="123.485576" y="186.44107" style="stroke: #000000; stroke-width: 0.8"/>
      </g>
     </g>
     <g id="text_17">
      <!-- 5 -->
      <g transform="translate(120.705107 200.098882) scale(0.1 -0.1)">
       <use xlink:href="#ArialMT-35"/>
      </g>
     </g>
    </g>
    <g id="xtick_5">
     <g id="line2d_10">
      <g>
       <use xlink:href="#m5768ffdfa6" x="156.710394" y="186.44107" style="stroke: #000000; stroke-width: 0.8"/>
      </g>
     </g>
     <g id="text_18">
      <!-- 6 -->
      <g transform="translate(153.929926 200.098882) scale(0.1 -0.1)">
       <use xlink:href="#ArialMT-36"/>
      </g>
     </g>
    </g>
   </g>
   <g id="matplotlib.axis_4">
    <g id="ytick_6">
     <g id="line2d_11">
      <defs>
       <path id="mc3bf01f31d" d="M 3 0 
L -3 -0 
" style="stroke: #000000; stroke-width: 0.8"/>
      </defs>
      <g>
       <use xlink:href="#mc3bf01f31d" x="23.81112" y="186.44107" style="stroke: #000000; stroke-width: 0.8"/>
      </g>
     </g>
     <g id="text_19">
      <!-- 35 -->
      <g transform="translate(6.189245 190.019976) scale(0.1 -0.1)">
       <use xlink:href="#ArialMT-33"/>
       <use xlink:href="#ArialMT-35" transform="translate(55.615234 0)"/>
      </g>
     </g>
    </g>
    <g id="ytick_7">
     <g id="line2d_12">
      <g>
       <use xlink:href="#mc3bf01f31d" x="23.81112" y="160.658091" style="stroke: #000000; stroke-width: 0.8"/>
      </g>
     </g>
     <g id="text_20">
      <!-- 45 -->
      <g transform="translate(6.189245 164.236997) scale(0.1 -0.1)">
       <use xlink:href="#ArialMT-34"/>
       <use xlink:href="#ArialMT-35" transform="translate(55.615234 0)"/>
      </g>
     </g>
    </g>
    <g id="ytick_8">
     <g id="line2d_13">
      <g>
       <use xlink:href="#mc3bf01f31d" x="23.81112" y="134.875113" style="stroke: #000000; stroke-width: 0.8"/>
      </g>
     </g>
     <g id="text_21">
      <!-- 55 -->
      <g transform="translate(6.189245 138.454019) scale(0.1 -0.1)">
       <use xlink:href="#ArialMT-35"/>
       <use xlink:href="#ArialMT-35" transform="translate(55.615234 0)"/>
      </g>
     </g>
    </g>
    <g id="ytick_9">
     <g id="line2d_14">
      <g>
       <use xlink:href="#mc3bf01f31d" x="23.81112" y="109.092134" style="stroke: #000000; stroke-width: 0.8"/>
      </g>
     </g>
     <g id="text_22">
      <!-- 65 -->
      <g transform="translate(6.189245 112.671041) scale(0.1 -0.1)">
       <use xlink:href="#ArialMT-36"/>
       <use xlink:href="#ArialMT-35" transform="translate(55.615234 0)"/>
      </g>
     </g>
    </g>
    <g id="ytick_10">
     <g id="line2d_15">
      <g>
       <use xlink:href="#mc3bf01f31d" x="23.81112" y="83.309156" style="stroke: #000000; stroke-width: 0.8"/>
      </g>
     </g>
     <g id="text_23">
      <!-- 75 -->
      <g transform="translate(6.189245 86.888062) scale(0.1 -0.1)">
       <defs>
        <path id="ArialMT-37" d="M 303 3981 
L 303 4522 
L 3269 4522 
L 3269 4084 
Q 2831 3619 2401 2847 
Q 1972 2075 1738 1259 
Q 1569 684 1522 0 
L 944 0 
Q 953 541 1156 1306 
Q 1359 2072 1739 2783 
Q 2119 3494 2547 3981 
L 303 3981 
z
" transform="scale(0.015625)"/>
       </defs>
       <use xlink:href="#ArialMT-37"/>
       <use xlink:href="#ArialMT-35" transform="translate(55.615234 0)"/>
      </g>
     </g>
    </g>
    <g id="ytick_11">
     <g id="line2d_16">
      <g>
       <use xlink:href="#mc3bf01f31d" x="23.81112" y="57.526178" style="stroke: #000000; stroke-width: 0.8"/>
      </g>
     </g>
     <g id="text_24">
      <!-- 85 -->
      <g transform="translate(6.189245 61.105084) scale(0.1 -0.1)">
       <use xlink:href="#ArialMT-38"/>
       <use xlink:href="#ArialMT-35" transform="translate(55.615234 0)"/>
      </g>
     </g>
    </g>
    <g id="ytick_12">
     <g id="line2d_17">
      <g>
       <use xlink:href="#mc3bf01f31d" x="23.81112" y="31.743199" style="stroke: #000000; stroke-width: 0.8"/>
      </g>
     </g>
     <g id="text_25">
      <!-- 95 -->
      <g transform="translate(6.189245 35.322106) scale(0.1 -0.1)">
       <use xlink:href="#ArialMT-39"/>
       <use xlink:href="#ArialMT-35" transform="translate(55.615234 0)"/>
      </g>
     </g>
    </g>
    <g id="ytick_13">
     <g id="line2d_18">
      <g>
       <use xlink:href="#mc3bf01f31d" x="23.81112" y="21.430008" style="stroke: #000000; stroke-width: 0.8"/>
      </g>
     </g>
     <g id="text_26">
      <!-- 99 -->
      <g transform="translate(6.189245 25.008914) scale(0.1 -0.1)">
       <use xlink:href="#ArialMT-39"/>
       <use xlink:href="#ArialMT-39" transform="translate(55.615234 0)"/>
      </g>
     </g>
    </g>
   </g>
   <g id="patch_5">
    <path d="M 23.81112 186.44107 
L 23.81112 21.430008 
" style="fill: none; stroke: #000000; stroke-width: 0.8; stroke-linejoin: miter; stroke-linecap: square"/>
   </g>
   <g id="patch_6">
    <path d="M 156.710394 186.44107 
L 156.710394 21.430008 
" style="fill: none; stroke: #000000; stroke-width: 0.8; stroke-linejoin: miter; stroke-linecap: square"/>
   </g>
   <g id="patch_7">
    <path d="M 23.81112 186.44107 
L 156.710394 186.44107 
" style="fill: none; stroke: #000000; stroke-width: 0.8; stroke-linejoin: miter; stroke-linecap: square"/>
   </g>
   <g id="patch_8">
    <path d="M 23.81112 21.430008 
L 156.710394 21.430008 
" style="fill: none; stroke: #000000; stroke-width: 0.8; stroke-linejoin: miter; stroke-linecap: square"/>
   </g>
  </g>
  <g id="axes_4">
   <g id="matplotlib.axis_5">
    <g id="ytick_14">
     <g id="line2d_19">
      <defs>
       <path id="mcb71df04c8" d="M 0 0 
L -6 0 
" style="stroke: #000000; stroke-width: 0.8"/>
      </defs>
      <g>
       <use xlink:href="#mcb71df04c8" x="156.710394" y="186.44107" style="stroke: #000000; stroke-width: 0.8"/>
      </g>
     </g>
    </g>
    <g id="ytick_15">
     <g id="line2d_20">
      <g>
       <use xlink:href="#mcb71df04c8" x="156.710394" y="160.658091" style="stroke: #000000; stroke-width: 0.8"/>
      </g>
     </g>
    </g>
    <g id="ytick_16">
     <g id="line2d_21">
      <g>
       <use xlink:href="#mcb71df04c8" x="156.710394" y="134.875113" style="stroke: #000000; stroke-width: 0.8"/>
      </g>
     </g>
    </g>
    <g id="ytick_17">
     <g id="line2d_22">
      <g>
       <use xlink:href="#mcb71df04c8" x="156.710394" y="109.092134" style="stroke: #000000; stroke-width: 0.8"/>
      </g>
     </g>
    </g>
    <g id="ytick_18">
     <g id="line2d_23">
      <g>
       <use xlink:href="#mcb71df04c8" x="156.710394" y="83.309156" style="stroke: #000000; stroke-width: 0.8"/>
      </g>
     </g>
    </g>
    <g id="ytick_19">
     <g id="line2d_24">
      <g>
       <use xlink:href="#mcb71df04c8" x="156.710394" y="57.526178" style="stroke: #000000; stroke-width: 0.8"/>
      </g>
     </g>
    </g>
    <g id="ytick_20">
     <g id="line2d_25">
      <g>
       <use xlink:href="#mcb71df04c8" x="156.710394" y="31.743199" style="stroke: #000000; stroke-width: 0.8"/>
      </g>
     </g>
    </g>
    <g id="ytick_21">
     <g id="line2d_26">
      <g>
       <use xlink:href="#mcb71df04c8" x="156.710394" y="21.430008" style="stroke: #000000; stroke-width: 0.8"/>
      </g>
     </g>
    </g>
   </g>
   <g id="patch_9">
    <path d="M 23.81112 186.44107 
L 23.81112 21.430008 
" style="fill: none; stroke: #000000; stroke-width: 0.8; stroke-linejoin: miter; stroke-linecap: square"/>
   </g>
   <g id="patch_10">
    <path d="M 156.710394 186.44107 
L 156.710394 21.430008 
" style="fill: none; stroke: #000000; stroke-width: 0.8; stroke-linejoin: miter; stroke-linecap: square"/>
   </g>
   <g id="patch_11">
    <path d="M 23.81112 186.44107 
L 156.710394 186.44107 
" style="fill: none; stroke: #000000; stroke-width: 0.8; stroke-linejoin: miter; stroke-linecap: square"/>
   </g>
   <g id="patch_12">
    <path d="M 23.81112 21.430008 
L 156.710394 21.430008 
" style="fill: none; stroke: #000000; stroke-width: 0.8; stroke-linejoin: miter; stroke-linecap: square"/>
   </g>
  </g>
  <g id="axes_5">
   <g id="matplotlib.axis_6">
    <g id="xtick_6">
     <g id="line2d_27">
      <defs>
       <path id="m35cd9bc61e" d="M 0 0 
L 0 6 
" style="stroke: #000000; stroke-width: 0.8"/>
      </defs>
      <g>
       <use xlink:href="#m35cd9bc61e" x="23.81112" y="21.430008" style="stroke: #000000; stroke-width: 0.8"/>
      </g>
     </g>
    </g>
    <g id="xtick_7">
     <g id="line2d_28">
      <g>
       <use xlink:href="#m35cd9bc61e" x="57.035939" y="21.430008" style="stroke: #000000; stroke-width: 0.8"/>
      </g>
     </g>
    </g>
    <g id="xtick_8">
     <g id="line2d_29">
      <g>
       <use xlink:href="#m35cd9bc61e" x="90.260757" y="21.430008" style="stroke: #000000; stroke-width: 0.8"/>
      </g>
     </g>
    </g>
    <g id="xtick_9">
     <g id="line2d_30">
      <g>
       <use xlink:href="#m35cd9bc61e" x="123.485576" y="21.430008" style="stroke: #000000; stroke-width: 0.8"/>
      </g>
     </g>
    </g>
    <g id="xtick_10">
     <g id="line2d_31">
      <g>
       <use xlink:href="#m35cd9bc61e" x="156.710394" y="21.430008" style="stroke: #000000; stroke-width: 0.8"/>
      </g>
     </g>
    </g>
   </g>
   <g id="patch_13">
    <path d="M 23.81112 186.44107 
L 23.81112 21.430008 
" style="fill: none; stroke: #000000; stroke-width: 0.8; stroke-linejoin: miter; stroke-linecap: square"/>
   </g>
   <g id="patch_14">
    <path d="M 156.710394 186.44107 
L 156.710394 21.430008 
" style="fill: none; stroke: #000000; stroke-width: 0.8; stroke-linejoin: miter; stroke-linecap: square"/>
   </g>
   <g id="patch_15">
    <path d="M 23.81112 186.44107 
L 156.710394 186.44107 
" style="fill: none; stroke: #000000; stroke-width: 0.8; stroke-linejoin: miter; stroke-linecap: square"/>
   </g>
   <g id="patch_16">
    <path d="M 23.81112 21.430008 
L 156.710394 21.430008 
" style="fill: none; stroke: #000000; stroke-width: 0.8; stroke-linejoin: miter; stroke-linecap: square"/>
   </g>
  </g>
 </g>
 <defs>
  <clipPath id="pd055efa6c9">
   <rect x="162.524738" y="21.430008" width="8.250553" height="165.011062"/>
  </clipPath>
  <clipPath id="pb2bc0d2dc2">
   <rect x="23.81112" y="21.430008" width="132.899274" height="165.011062"/>
  </clipPath>
 </defs>
</svg>
