<?xml version="1.0" encoding="utf-8" standalone="no"?>
<!DOCTYPE svg PUBLIC "-//W3C//DTD SVG 1.1//EN"
  "http://www.w3.org/Graphics/SVG/1.1/DTD/svg11.dtd">
<svg xmlns:xlink="http://www.w3.org/1999/xlink" width="476.2224pt" height="261.92232pt" viewBox="0 0 476.2224 261.92232" xmlns="http://www.w3.org/2000/svg" version="1.1">
 <metadata>
  <rdf:RDF xmlns:dc="http://purl.org/dc/elements/1.1/" xmlns:cc="http://creativecommons.org/ns#" xmlns:rdf="http://www.w3.org/1999/02/22-rdf-syntax-ns#">
   <cc:Work>
    <dc:type rdf:resource="http://purl.org/dc/dcmitype/StillImage"/>
    <dc:date>2025-06-14T15:50:52.170159</dc:date>
    <dc:format>image/svg+xml</dc:format>
    <dc:creator>
     <cc:Agent>
      <dc:title>Matplotlib v3.10.1, https://matplotlib.org/</dc:title>
     </cc:Agent>
    </dc:creator>
   </cc:Work>
  </rdf:RDF>
 </metadata>
 <defs>
  <style type="text/css">*{stroke-linejoin: round; stroke-linecap: butt}</style>
 </defs>
 <g id="figure_1">
  <g id="patch_1">
   <path d="M 0 261.92232 
L 476.2224 261.92232 
L 476.2224 0 
L 0 0 
L 0 261.92232 
z
" style="fill: none"/>
  </g>
  <g id="axes_1"/>
  <g id="axes_2">
   <g id="patch_2">
    <path d="M 362.650573 227.872418 
L 372.734582 227.872418 
L 372.734582 26.192232 
L 362.650573 26.192232 
L 362.650573 227.872418 
z
" style="fill: none"/>
   </g>
   <g id="QuadMesh_1">
    <path d="M 362.650573 227.872418 
L 372.734582 227.872418 
L 372.734582 219.469077 
L 362.650573 219.469077 
L 362.650573 227.872418 
" clip-path="url(#pbaac775836)" style="fill: #f1e51d"/>
    <path d="M 362.650573 219.469077 
L 372.734582 219.469077 
L 372.734582 211.065736 
L 362.650573 211.065736 
L 362.650573 219.469077 
" clip-path="url(#pbaac775836)" style="fill: #d5e21a"/>
    <path d="M 362.650573 211.065736 
L 372.734582 211.065736 
L 372.734582 202.662395 
L 362.650573 202.662395 
L 362.650573 211.065736 
" clip-path="url(#pbaac775836)" style="fill: #bade28"/>
    <path d="M 362.650573 202.662395 
L 372.734582 202.662395 
L 372.734582 194.259054 
L 362.650573 194.259054 
L 362.650573 202.662395 
" clip-path="url(#pbaac775836)" style="fill: #9dd93b"/>
    <path d="M 362.650573 194.259054 
L 372.734582 194.259054 
L 372.734582 185.855713 
L 362.650573 185.855713 
L 362.650573 194.259054 
" clip-path="url(#pbaac775836)" style="fill: #81d34d"/>
    <path d="M 362.650573 185.855713 
L 372.734582 185.855713 
L 372.734582 177.452372 
L 362.650573 177.452372 
L 362.650573 185.855713 
" clip-path="url(#pbaac775836)" style="fill: #69cd5b"/>
    <path d="M 362.650573 177.452372 
L 372.734582 177.452372 
L 372.734582 169.049031 
L 362.650573 169.049031 
L 362.650573 177.452372 
" clip-path="url(#pbaac775836)" style="fill: #52c569"/>
    <path d="M 362.650573 169.049031 
L 372.734582 169.049031 
L 372.734582 160.64569 
L 362.650573 160.64569 
L 362.650573 169.049031 
" clip-path="url(#pbaac775836)" style="fill: #3dbc74"/>
    <path d="M 362.650573 160.64569 
L 372.734582 160.64569 
L 372.734582 152.242348 
L 362.650573 152.242348 
L 362.650573 160.64569 
" clip-path="url(#pbaac775836)" style="fill: #2eb37c"/>
    <path d="M 362.650573 152.242348 
L 372.734582 152.242348 
L 372.734582 143.839007 
L 362.650573 143.839007 
L 362.650573 152.242348 
" clip-path="url(#pbaac775836)" style="fill: #23a983"/>
    <path d="M 362.650573 143.839007 
L 372.734582 143.839007 
L 372.734582 135.435666 
L 362.650573 135.435666 
L 362.650573 143.839007 
" clip-path="url(#pbaac775836)" style="fill: #1f9f88"/>
    <path d="M 362.650573 135.435666 
L 372.734582 135.435666 
L 372.734582 127.032325 
L 362.650573 127.032325 
L 362.650573 135.435666 
" clip-path="url(#pbaac775836)" style="fill: #1f958b"/>
    <path d="M 362.650573 127.032325 
L 372.734582 127.032325 
L 372.734582 118.628984 
L 362.650573 118.628984 
L 362.650573 127.032325 
" clip-path="url(#pbaac775836)" style="fill: #228b8d"/>
    <path d="M 362.650573 118.628984 
L 372.734582 118.628984 
L 372.734582 110.225643 
L 362.650573 110.225643 
L 362.650573 118.628984 
" clip-path="url(#pbaac775836)" style="fill: #26818e"/>
    <path d="M 362.650573 110.225643 
L 372.734582 110.225643 
L 372.734582 101.822302 
L 362.650573 101.822302 
L 362.650573 110.225643 
" clip-path="url(#pbaac775836)" style="fill: #2a778e"/>
    <path d="M 362.650573 101.822302 
L 372.734582 101.822302 
L 372.734582 93.418961 
L 362.650573 93.418961 
L 362.650573 101.822302 
" clip-path="url(#pbaac775836)" style="fill: #2e6d8e"/>
    <path d="M 362.650573 93.418961 
L 372.734582 93.418961 
L 372.734582 85.01562 
L 362.650573 85.01562 
L 362.650573 93.418961 
" clip-path="url(#pbaac775836)" style="fill: #33628d"/>
    <path d="M 362.650573 85.01562 
L 372.734582 85.01562 
L 372.734582 76.612279 
L 362.650573 76.612279 
L 362.650573 85.01562 
" clip-path="url(#pbaac775836)" style="fill: #38588c"/>
    <path d="M 362.650573 76.612279 
L 372.734582 76.612279 
L 372.734582 68.208937 
L 362.650573 68.208937 
L 362.650573 76.612279 
" clip-path="url(#pbaac775836)" style="fill: #3e4c8a"/>
    <path d="M 362.650573 68.208937 
L 372.734582 68.208937 
L 372.734582 59.805596 
L 362.650573 59.805596 
L 362.650573 68.208937 
" clip-path="url(#pbaac775836)" style="fill: #423f85"/>
    <path d="M 362.650573 59.805596 
L 372.734582 59.805596 
L 372.734582 51.402255 
L 362.650573 51.402255 
L 362.650573 59.805596 
" clip-path="url(#pbaac775836)" style="fill: #46337f"/>
    <path d="M 362.650573 51.402255 
L 372.734582 51.402255 
L 372.734582 42.998914 
L 362.650573 42.998914 
L 362.650573 51.402255 
" clip-path="url(#pbaac775836)" style="fill: #482576"/>
    <path d="M 362.650573 42.998914 
L 372.734582 42.998914 
L 372.734582 34.595573 
L 362.650573 34.595573 
L 362.650573 42.998914 
" clip-path="url(#pbaac775836)" style="fill: #481769"/>
    <path d="M 362.650573 34.595573 
L 372.734582 34.595573 
L 372.734582 26.192232 
L 362.650573 26.192232 
L 362.650573 34.595573 
" clip-path="url(#pbaac775836)" style="fill: #46085c"/>
   </g>
   <g id="matplotlib.axis_1"/>
   <g id="matplotlib.axis_2">
    <g id="ytick_1">
     <g id="line2d_1">
      <defs>
       <path id="mf3f6bab403" d="M 0 0 
L 3.5 0 
" style="stroke: #000000; stroke-width: 0.8"/>
      </defs>
      <g>
       <use xlink:href="#mf3f6bab403" x="372.734582" y="227.872418" style="stroke: #000000; stroke-width: 0.8"/>
      </g>
     </g>
     <g id="text_1">
      <!-- 3 -->
      <g transform="translate(379.734582 231.451325) scale(0.1 -0.1)">
       <defs>
        <path id="ArialMT-33" d="M 269 1209 
L 831 1284 
Q 928 806 1161 595 
Q 1394 384 1728 384 
Q 2125 384 2398 659 
Q 2672 934 2672 1341 
Q 2672 1728 2419 1979 
Q 2166 2231 1775 2231 
Q 1616 2231 1378 2169 
L 1441 2663 
Q 1497 2656 1531 2656 
Q 1891 2656 2178 2843 
Q 2466 3031 2466 3422 
Q 2466 3731 2256 3934 
Q 2047 4138 1716 4138 
Q 1388 4138 1169 3931 
Q 950 3725 888 3313 
L 325 3413 
Q 428 3978 793 4289 
Q 1159 4600 1703 4600 
Q 2078 4600 2393 4439 
Q 2709 4278 2876 4000 
Q 3044 3722 3044 3409 
Q 3044 3113 2884 2869 
Q 2725 2625 2413 2481 
Q 2819 2388 3044 2092 
Q 3269 1797 3269 1353 
Q 3269 753 2831 336 
Q 2394 -81 1725 -81 
Q 1122 -81 723 278 
Q 325 638 269 1209 
z
" transform="scale(0.015625)"/>
       </defs>
       <use xlink:href="#ArialMT-33"/>
      </g>
     </g>
    </g>
    <g id="ytick_2">
     <g id="line2d_2">
      <g>
       <use xlink:href="#mf3f6bab403" x="372.734582" y="177.452372" style="stroke: #000000; stroke-width: 0.8"/>
      </g>
     </g>
     <g id="text_2">
      <!-- 6 -->
      <g transform="translate(379.734582 181.031278) scale(0.1 -0.1)">
       <defs>
        <path id="ArialMT-36" d="M 3184 3459 
L 2625 3416 
Q 2550 3747 2413 3897 
Q 2184 4138 1850 4138 
Q 1581 4138 1378 3988 
Q 1113 3794 959 3422 
Q 806 3050 800 2363 
Q 1003 2672 1297 2822 
Q 1591 2972 1913 2972 
Q 2475 2972 2870 2558 
Q 3266 2144 3266 1488 
Q 3266 1056 3080 686 
Q 2894 316 2569 119 
Q 2244 -78 1831 -78 
Q 1128 -78 684 439 
Q 241 956 241 2144 
Q 241 3472 731 4075 
Q 1159 4600 1884 4600 
Q 2425 4600 2770 4297 
Q 3116 3994 3184 3459 
z
M 888 1484 
Q 888 1194 1011 928 
Q 1134 663 1356 523 
Q 1578 384 1822 384 
Q 2178 384 2434 671 
Q 2691 959 2691 1453 
Q 2691 1928 2437 2201 
Q 2184 2475 1800 2475 
Q 1419 2475 1153 2201 
Q 888 1928 888 1484 
z
" transform="scale(0.015625)"/>
       </defs>
       <use xlink:href="#ArialMT-36"/>
      </g>
     </g>
    </g>
    <g id="ytick_3">
     <g id="line2d_3">
      <g>
       <use xlink:href="#mf3f6bab403" x="372.734582" y="127.032325" style="stroke: #000000; stroke-width: 0.8"/>
      </g>
     </g>
     <g id="text_3">
      <!-- 9 -->
      <g transform="translate(379.734582 130.611231) scale(0.1 -0.1)">
       <defs>
        <path id="ArialMT-39" d="M 350 1059 
L 891 1109 
Q 959 728 1153 556 
Q 1347 384 1650 384 
Q 1909 384 2104 503 
Q 2300 622 2425 820 
Q 2550 1019 2634 1356 
Q 2719 1694 2719 2044 
Q 2719 2081 2716 2156 
Q 2547 1888 2255 1720 
Q 1963 1553 1622 1553 
Q 1053 1553 659 1965 
Q 266 2378 266 3053 
Q 266 3750 677 4175 
Q 1088 4600 1706 4600 
Q 2153 4600 2523 4359 
Q 2894 4119 3086 3673 
Q 3278 3228 3278 2384 
Q 3278 1506 3087 986 
Q 2897 466 2520 194 
Q 2144 -78 1638 -78 
Q 1100 -78 759 220 
Q 419 519 350 1059 
z
M 2653 3081 
Q 2653 3566 2395 3850 
Q 2138 4134 1775 4134 
Q 1400 4134 1122 3828 
Q 844 3522 844 3034 
Q 844 2597 1108 2323 
Q 1372 2050 1759 2050 
Q 2150 2050 2401 2323 
Q 2653 2597 2653 3081 
z
" transform="scale(0.015625)"/>
       </defs>
       <use xlink:href="#ArialMT-39"/>
      </g>
     </g>
    </g>
    <g id="ytick_4">
     <g id="line2d_4">
      <g>
       <use xlink:href="#mf3f6bab403" x="372.734582" y="76.612279" style="stroke: #000000; stroke-width: 0.8"/>
      </g>
     </g>
     <g id="text_4">
      <!-- 12 -->
      <g transform="translate(379.734582 80.191185) scale(0.1 -0.1)">
       <defs>
        <path id="ArialMT-31" d="M 2384 0 
L 1822 0 
L 1822 3584 
Q 1619 3391 1289 3197 
Q 959 3003 697 2906 
L 697 3450 
Q 1169 3672 1522 3987 
Q 1875 4303 2022 4600 
L 2384 4600 
L 2384 0 
z
" transform="scale(0.015625)"/>
        <path id="ArialMT-32" d="M 3222 541 
L 3222 0 
L 194 0 
Q 188 203 259 391 
Q 375 700 629 1000 
Q 884 1300 1366 1694 
Q 2113 2306 2375 2664 
Q 2638 3022 2638 3341 
Q 2638 3675 2398 3904 
Q 2159 4134 1775 4134 
Q 1369 4134 1125 3890 
Q 881 3647 878 3216 
L 300 3275 
Q 359 3922 746 4261 
Q 1134 4600 1788 4600 
Q 2447 4600 2831 4234 
Q 3216 3869 3216 3328 
Q 3216 3053 3103 2787 
Q 2991 2522 2730 2228 
Q 2469 1934 1863 1422 
Q 1356 997 1212 845 
Q 1069 694 975 541 
L 3222 541 
z
" transform="scale(0.015625)"/>
       </defs>
       <use xlink:href="#ArialMT-31"/>
       <use xlink:href="#ArialMT-32" transform="translate(55.615234 0)"/>
      </g>
     </g>
    </g>
    <g id="ytick_5">
     <g id="line2d_5">
      <g>
       <use xlink:href="#mf3f6bab403" x="372.734582" y="26.192232" style="stroke: #000000; stroke-width: 0.8"/>
      </g>
     </g>
     <g id="text_5">
      <!-- 15 -->
      <g transform="translate(379.734582 29.771138) scale(0.1 -0.1)">
       <defs>
        <path id="ArialMT-35" d="M 266 1200 
L 856 1250 
Q 922 819 1161 601 
Q 1400 384 1738 384 
Q 2144 384 2425 690 
Q 2706 997 2706 1503 
Q 2706 1984 2436 2262 
Q 2166 2541 1728 2541 
Q 1456 2541 1237 2417 
Q 1019 2294 894 2097 
L 366 2166 
L 809 4519 
L 3088 4519 
L 3088 3981 
L 1259 3981 
L 1013 2750 
Q 1425 3038 1878 3038 
Q 2478 3038 2890 2622 
Q 3303 2206 3303 1553 
Q 3303 931 2941 478 
Q 2500 -78 1738 -78 
Q 1113 -78 717 272 
Q 322 622 266 1200 
z
" transform="scale(0.015625)"/>
       </defs>
       <use xlink:href="#ArialMT-31"/>
       <use xlink:href="#ArialMT-35" transform="translate(55.615234 0)"/>
      </g>
     </g>
    </g>
    <g id="text_6">
     <!-- Minimum selling price $[\mathrm{USD} \cdot \mathrm{kg}^{\mathrm{-1}}]$ -->
     <g transform="translate(403.856457 206.032325) rotate(-90) scale(0.1 -0.1)">
      <defs>
       <path id="ArialMT-4d" d="M 475 0 
L 475 4581 
L 1388 4581 
L 2472 1338 
Q 2622 884 2691 659 
Q 2769 909 2934 1394 
L 4031 4581 
L 4847 4581 
L 4847 0 
L 4263 0 
L 4263 3834 
L 2931 0 
L 2384 0 
L 1059 3900 
L 1059 0 
L 475 0 
z
" transform="scale(0.015625)"/>
       <path id="ArialMT-69" d="M 425 3934 
L 425 4581 
L 988 4581 
L 988 3934 
L 425 3934 
z
M 425 0 
L 425 3319 
L 988 3319 
L 988 0 
L 425 0 
z
" transform="scale(0.015625)"/>
       <path id="ArialMT-6e" d="M 422 0 
L 422 3319 
L 928 3319 
L 928 2847 
Q 1294 3394 1984 3394 
Q 2284 3394 2536 3286 
Q 2788 3178 2913 3003 
Q 3038 2828 3088 2588 
Q 3119 2431 3119 2041 
L 3119 0 
L 2556 0 
L 2556 2019 
Q 2556 2363 2490 2533 
Q 2425 2703 2258 2804 
Q 2091 2906 1866 2906 
Q 1506 2906 1245 2678 
Q 984 2450 984 1813 
L 984 0 
L 422 0 
z
" transform="scale(0.015625)"/>
       <path id="ArialMT-6d" d="M 422 0 
L 422 3319 
L 925 3319 
L 925 2853 
Q 1081 3097 1340 3245 
Q 1600 3394 1931 3394 
Q 2300 3394 2536 3241 
Q 2772 3088 2869 2813 
Q 3263 3394 3894 3394 
Q 4388 3394 4653 3120 
Q 4919 2847 4919 2278 
L 4919 0 
L 4359 0 
L 4359 2091 
Q 4359 2428 4304 2576 
Q 4250 2725 4106 2815 
Q 3963 2906 3769 2906 
Q 3419 2906 3187 2673 
Q 2956 2441 2956 1928 
L 2956 0 
L 2394 0 
L 2394 2156 
Q 2394 2531 2256 2718 
Q 2119 2906 1806 2906 
Q 1569 2906 1367 2781 
Q 1166 2656 1075 2415 
Q 984 2175 984 1722 
L 984 0 
L 422 0 
z
" transform="scale(0.015625)"/>
       <path id="ArialMT-75" d="M 2597 0 
L 2597 488 
Q 2209 -75 1544 -75 
Q 1250 -75 995 37 
Q 741 150 617 320 
Q 494 491 444 738 
Q 409 903 409 1263 
L 409 3319 
L 972 3319 
L 972 1478 
Q 972 1038 1006 884 
Q 1059 663 1231 536 
Q 1403 409 1656 409 
Q 1909 409 2131 539 
Q 2353 669 2445 892 
Q 2538 1116 2538 1541 
L 2538 3319 
L 3100 3319 
L 3100 0 
L 2597 0 
z
" transform="scale(0.015625)"/>
       <path id="ArialMT-20" transform="scale(0.015625)"/>
       <path id="ArialMT-73" d="M 197 991 
L 753 1078 
Q 800 744 1014 566 
Q 1228 388 1613 388 
Q 2000 388 2187 545 
Q 2375 703 2375 916 
Q 2375 1106 2209 1216 
Q 2094 1291 1634 1406 
Q 1016 1563 777 1677 
Q 538 1791 414 1992 
Q 291 2194 291 2438 
Q 291 2659 392 2848 
Q 494 3038 669 3163 
Q 800 3259 1026 3326 
Q 1253 3394 1513 3394 
Q 1903 3394 2198 3281 
Q 2494 3169 2634 2976 
Q 2775 2784 2828 2463 
L 2278 2388 
Q 2241 2644 2061 2787 
Q 1881 2931 1553 2931 
Q 1166 2931 1000 2803 
Q 834 2675 834 2503 
Q 834 2394 903 2306 
Q 972 2216 1119 2156 
Q 1203 2125 1616 2013 
Q 2213 1853 2448 1751 
Q 2684 1650 2818 1456 
Q 2953 1263 2953 975 
Q 2953 694 2789 445 
Q 2625 197 2315 61 
Q 2006 -75 1616 -75 
Q 969 -75 630 194 
Q 291 463 197 991 
z
" transform="scale(0.015625)"/>
       <path id="ArialMT-65" d="M 2694 1069 
L 3275 997 
Q 3138 488 2766 206 
Q 2394 -75 1816 -75 
Q 1088 -75 661 373 
Q 234 822 234 1631 
Q 234 2469 665 2931 
Q 1097 3394 1784 3394 
Q 2450 3394 2872 2941 
Q 3294 2488 3294 1666 
Q 3294 1616 3291 1516 
L 816 1516 
Q 847 969 1125 678 
Q 1403 388 1819 388 
Q 2128 388 2347 550 
Q 2566 713 2694 1069 
z
M 847 1978 
L 2700 1978 
Q 2663 2397 2488 2606 
Q 2219 2931 1791 2931 
Q 1403 2931 1139 2672 
Q 875 2413 847 1978 
z
" transform="scale(0.015625)"/>
       <path id="ArialMT-6c" d="M 409 0 
L 409 4581 
L 972 4581 
L 972 0 
L 409 0 
z
" transform="scale(0.015625)"/>
       <path id="ArialMT-67" d="M 319 -275 
L 866 -356 
Q 900 -609 1056 -725 
Q 1266 -881 1628 -881 
Q 2019 -881 2231 -725 
Q 2444 -569 2519 -288 
Q 2563 -116 2559 434 
Q 2191 0 1641 0 
Q 956 0 581 494 
Q 206 988 206 1678 
Q 206 2153 378 2554 
Q 550 2956 876 3175 
Q 1203 3394 1644 3394 
Q 2231 3394 2613 2919 
L 2613 3319 
L 3131 3319 
L 3131 450 
Q 3131 -325 2973 -648 
Q 2816 -972 2473 -1159 
Q 2131 -1347 1631 -1347 
Q 1038 -1347 672 -1080 
Q 306 -813 319 -275 
z
M 784 1719 
Q 784 1066 1043 766 
Q 1303 466 1694 466 
Q 2081 466 2343 764 
Q 2606 1063 2606 1700 
Q 2606 2309 2336 2618 
Q 2066 2928 1684 2928 
Q 1309 2928 1046 2623 
Q 784 2319 784 1719 
z
" transform="scale(0.015625)"/>
       <path id="ArialMT-70" d="M 422 -1272 
L 422 3319 
L 934 3319 
L 934 2888 
Q 1116 3141 1344 3267 
Q 1572 3394 1897 3394 
Q 2322 3394 2647 3175 
Q 2972 2956 3137 2557 
Q 3303 2159 3303 1684 
Q 3303 1175 3120 767 
Q 2938 359 2589 142 
Q 2241 -75 1856 -75 
Q 1575 -75 1351 44 
Q 1128 163 984 344 
L 984 -1272 
L 422 -1272 
z
M 931 1641 
Q 931 1000 1190 694 
Q 1450 388 1819 388 
Q 2194 388 2461 705 
Q 2728 1022 2728 1688 
Q 2728 2322 2467 2637 
Q 2206 2953 1844 2953 
Q 1484 2953 1207 2617 
Q 931 2281 931 1641 
z
" transform="scale(0.015625)"/>
       <path id="ArialMT-72" d="M 416 0 
L 416 3319 
L 922 3319 
L 922 2816 
Q 1116 3169 1280 3281 
Q 1444 3394 1641 3394 
Q 1925 3394 2219 3213 
L 2025 2691 
Q 1819 2813 1613 2813 
Q 1428 2813 1281 2702 
Q 1134 2591 1072 2394 
Q 978 2094 978 1738 
L 978 0 
L 416 0 
z
" transform="scale(0.015625)"/>
       <path id="ArialMT-63" d="M 2588 1216 
L 3141 1144 
Q 3050 572 2676 248 
Q 2303 -75 1759 -75 
Q 1078 -75 664 370 
Q 250 816 250 1647 
Q 250 2184 428 2587 
Q 606 2991 970 3192 
Q 1334 3394 1763 3394 
Q 2303 3394 2647 3120 
Q 2991 2847 3088 2344 
L 2541 2259 
Q 2463 2594 2264 2762 
Q 2066 2931 1784 2931 
Q 1359 2931 1093 2626 
Q 828 2322 828 1663 
Q 828 994 1084 691 
Q 1341 388 1753 388 
Q 2084 388 2306 591 
Q 2528 794 2588 1216 
z
" transform="scale(0.015625)"/>
       <path id="DejaVuSans-5b" d="M 550 4863 
L 1875 4863 
L 1875 4416 
L 1125 4416 
L 1125 -397 
L 1875 -397 
L 1875 -844 
L 550 -844 
L 550 4863 
z
" transform="scale(0.015625)"/>
       <path id="DejaVuSans-55" d="M 556 4666 
L 1191 4666 
L 1191 1831 
Q 1191 1081 1462 751 
Q 1734 422 2344 422 
Q 2950 422 3222 751 
Q 3494 1081 3494 1831 
L 3494 4666 
L 4128 4666 
L 4128 1753 
Q 4128 841 3676 375 
Q 3225 -91 2344 -91 
Q 1459 -91 1007 375 
Q 556 841 556 1753 
L 556 4666 
z
" transform="scale(0.015625)"/>
       <path id="DejaVuSans-53" d="M 3425 4513 
L 3425 3897 
Q 3066 4069 2747 4153 
Q 2428 4238 2131 4238 
Q 1616 4238 1336 4038 
Q 1056 3838 1056 3469 
Q 1056 3159 1242 3001 
Q 1428 2844 1947 2747 
L 2328 2669 
Q 3034 2534 3370 2195 
Q 3706 1856 3706 1288 
Q 3706 609 3251 259 
Q 2797 -91 1919 -91 
Q 1588 -91 1214 -16 
Q 841 59 441 206 
L 441 856 
Q 825 641 1194 531 
Q 1563 422 1919 422 
Q 2459 422 2753 634 
Q 3047 847 3047 1241 
Q 3047 1584 2836 1778 
Q 2625 1972 2144 2069 
L 1759 2144 
Q 1053 2284 737 2584 
Q 422 2884 422 3419 
Q 422 4038 858 4394 
Q 1294 4750 2059 4750 
Q 2388 4750 2728 4690 
Q 3069 4631 3425 4513 
z
" transform="scale(0.015625)"/>
       <path id="DejaVuSans-44" d="M 1259 4147 
L 1259 519 
L 2022 519 
Q 2988 519 3436 956 
Q 3884 1394 3884 2338 
Q 3884 3275 3436 3711 
Q 2988 4147 2022 4147 
L 1259 4147 
z
M 628 4666 
L 1925 4666 
Q 3281 4666 3915 4102 
Q 4550 3538 4550 2338 
Q 4550 1131 3912 565 
Q 3275 0 1925 0 
L 628 0 
L 628 4666 
z
" transform="scale(0.015625)"/>
       <path id="DejaVuSans-22c5" d="M 684 2619 
L 1344 2619 
L 1344 1825 
L 684 1825 
L 684 2619 
z
" transform="scale(0.015625)"/>
       <path id="DejaVuSans-6b" d="M 581 4863 
L 1159 4863 
L 1159 1991 
L 2875 3500 
L 3609 3500 
L 1753 1863 
L 3688 0 
L 2938 0 
L 1159 1709 
L 1159 0 
L 581 0 
L 581 4863 
z
" transform="scale(0.015625)"/>
       <path id="DejaVuSans-67" d="M 2906 1791 
Q 2906 2416 2648 2759 
Q 2391 3103 1925 3103 
Q 1463 3103 1205 2759 
Q 947 2416 947 1791 
Q 947 1169 1205 825 
Q 1463 481 1925 481 
Q 2391 481 2648 825 
Q 2906 1169 2906 1791 
z
M 3481 434 
Q 3481 -459 3084 -895 
Q 2688 -1331 1869 -1331 
Q 1566 -1331 1297 -1286 
Q 1028 -1241 775 -1147 
L 775 -588 
Q 1028 -725 1275 -790 
Q 1522 -856 1778 -856 
Q 2344 -856 2625 -561 
Q 2906 -266 2906 331 
L 2906 616 
Q 2728 306 2450 153 
Q 2172 0 1784 0 
Q 1141 0 747 490 
Q 353 981 353 1791 
Q 353 2603 747 3093 
Q 1141 3584 1784 3584 
Q 2172 3584 2450 3431 
Q 2728 3278 2906 2969 
L 2906 3500 
L 3481 3500 
L 3481 434 
z
" transform="scale(0.015625)"/>
       <path id="DejaVuSans-2212" d="M 678 2272 
L 4684 2272 
L 4684 1741 
L 678 1741 
L 678 2272 
z
" transform="scale(0.015625)"/>
       <path id="DejaVuSans-31" d="M 794 531 
L 1825 531 
L 1825 4091 
L 703 3866 
L 703 4441 
L 1819 4666 
L 2450 4666 
L 2450 531 
L 3481 531 
L 3481 0 
L 794 0 
L 794 531 
z
" transform="scale(0.015625)"/>
       <path id="DejaVuSans-5d" d="M 1947 4863 
L 1947 -844 
L 622 -844 
L 622 -397 
L 1369 -397 
L 1369 4416 
L 622 4416 
L 622 4863 
L 1947 4863 
z
" transform="scale(0.015625)"/>
      </defs>
      <use xlink:href="#ArialMT-4d" transform="translate(0 0.684375)"/>
      <use xlink:href="#ArialMT-69" transform="translate(83.300781 0.684375)"/>
      <use xlink:href="#ArialMT-6e" transform="translate(105.517578 0.684375)"/>
      <use xlink:href="#ArialMT-69" transform="translate(161.132812 0.684375)"/>
      <use xlink:href="#ArialMT-6d" transform="translate(183.349609 0.684375)"/>
      <use xlink:href="#ArialMT-75" transform="translate(266.650391 0.684375)"/>
      <use xlink:href="#ArialMT-6d" transform="translate(322.265625 0.684375)"/>
      <use xlink:href="#ArialMT-20" transform="translate(405.566406 0.684375)"/>
      <use xlink:href="#ArialMT-73" transform="translate(433.349609 0.684375)"/>
      <use xlink:href="#ArialMT-65" transform="translate(483.349609 0.684375)"/>
      <use xlink:href="#ArialMT-6c" transform="translate(538.964844 0.684375)"/>
      <use xlink:href="#ArialMT-6c" transform="translate(561.181641 0.684375)"/>
      <use xlink:href="#ArialMT-69" transform="translate(583.398438 0.684375)"/>
      <use xlink:href="#ArialMT-6e" transform="translate(605.615234 0.684375)"/>
      <use xlink:href="#ArialMT-67" transform="translate(661.230469 0.684375)"/>
      <use xlink:href="#ArialMT-20" transform="translate(716.845703 0.684375)"/>
      <use xlink:href="#ArialMT-70" transform="translate(744.628906 0.684375)"/>
      <use xlink:href="#ArialMT-72" transform="translate(800.244141 0.684375)"/>
      <use xlink:href="#ArialMT-69" transform="translate(833.544922 0.684375)"/>
      <use xlink:href="#ArialMT-63" transform="translate(855.761719 0.684375)"/>
      <use xlink:href="#ArialMT-65" transform="translate(905.761719 0.684375)"/>
      <use xlink:href="#ArialMT-20" transform="translate(961.376953 0.684375)"/>
      <use xlink:href="#DejaVuSans-5b" transform="translate(989.160156 0.684375)"/>
      <use xlink:href="#DejaVuSans-55" transform="translate(1028.173828 0.684375)"/>
      <use xlink:href="#DejaVuSans-53" transform="translate(1101.367188 0.684375)"/>
      <use xlink:href="#DejaVuSans-44" transform="translate(1164.84375 0.684375)"/>
      <use xlink:href="#DejaVuSans-22c5" transform="translate(1261.328125 0.684375)"/>
      <use xlink:href="#DejaVuSans-6b" transform="translate(1312.597656 0.684375)"/>
      <use xlink:href="#DejaVuSans-67" transform="translate(1370.507812 0.684375)"/>
      <use xlink:href="#DejaVuSans-2212" transform="translate(1434.941406 38.965625) scale(0.7)"/>
      <use xlink:href="#DejaVuSans-31" transform="translate(1493.59375 38.965625) scale(0.7)"/>
      <use xlink:href="#DejaVuSans-5d" transform="translate(1540.864258 0.684375)"/>
     </g>
    </g>
   </g>
   <g id="LineCollection_1"/>
   <g id="patch_3">
    <path d="M 362.650573 227.872418 
L 367.692578 227.872418 
L 372.734582 227.872418 
L 372.734582 26.192232 
L 367.692578 26.192232 
L 362.650573 26.192232 
L 362.650573 227.872418 
z
" style="fill: none; stroke: #000000; stroke-width: 0.8; stroke-linejoin: miter; stroke-linecap: square"/>
   </g>
  </g>
  <g id="axes_3">
   <g id="patch_4">
    <path d="M 57.146688 227.872418 
L 197.608244 227.872418 
L 197.608244 26.192232 
L 57.146688 26.192232 
L 57.146688 227.872418 
z
" style="fill: none"/>
   </g>
   <g id="QuadContourSet_1">
    <path d="M 72.753528 71.894133 
L 73.59809 71.010051 
L 88.360367 53.363364 
L 92.431076 48.601142 
L 103.967207 28.406888 
L 105.297852 26.192232 
L 103.967207 26.192232 
L 88.360367 26.192232 
L 72.753528 26.192232 
L 57.146688 26.192232 
L 57.146688 48.601142 
L 57.146688 71.010051 
L 57.146688 83.677655 
z
" clip-path="url(#p67c5c5b410)" style="fill: #f1e51d"/>
    <path d="M 66.737932 115.82787 
L 72.753528 111.46589 
L 88.360367 96.281294 
L 91.361293 93.418961 
L 103.967207 79.993228 
L 113.170474 71.010051 
L 119.574046 63.841962 
L 134.351881 48.601142 
L 135.180886 47.312239 
L 149.535794 26.192232 
L 135.180886 26.192232 
L 119.574046 26.192232 
L 105.297852 26.192232 
L 103.967207 28.406888 
L 92.431076 48.601142 
L 88.360367 53.363364 
L 73.59809 71.010051 
L 72.753528 71.894133 
L 57.146688 83.677655 
L 57.146688 93.418961 
L 57.146688 115.82787 
L 57.146688 121.847039 
z
" clip-path="url(#p67c5c5b410)" style="fill: #d5e21a"/>
    <path d="M 72.753528 141.256289 
L 76.592197 138.23678 
L 88.360367 127.523602 
L 101.818974 115.82787 
L 103.967207 113.712003 
L 119.574046 99.339109 
L 126.606278 93.418961 
L 135.180886 85.304274 
L 150.787726 71.786795 
L 151.743888 71.010051 
L 166.394565 57.222164 
L 176.958648 48.601142 
L 182.001405 42.32346 
L 197.608244 29.634892 
L 197.608244 26.192232 
L 182.001405 26.192232 
L 166.394565 26.192232 
L 150.787726 26.192232 
L 149.535794 26.192232 
L 135.180886 47.312239 
L 134.351881 48.601142 
L 119.574046 63.841962 
L 113.170474 71.010051 
L 103.967207 79.993228 
L 91.361293 93.418961 
L 88.360367 96.281294 
L 72.753528 111.46589 
L 66.737932 115.82787 
L 57.146688 121.847039 
L 57.146688 138.23678 
L 57.146688 150.210757 
z
" clip-path="url(#p67c5c5b410)" style="fill: #bade28"/>
    <path d="M 72.753528 164.372986 
L 78.020123 160.64569 
L 88.360367 152.085148 
L 103.967207 139.769006 
L 106.048005 138.23678 
L 119.574046 126.678546 
L 133.703698 115.82787 
L 135.180886 114.533911 
L 150.787726 101.677084 
L 161.843979 93.418961 
L 166.394565 89.575913 
L 182.001405 77.921815 
L 196.609355 71.010051 
L 197.608244 70.450512 
L 197.608244 48.601142 
L 197.608244 29.634892 
L 182.001405 42.32346 
L 176.958648 48.601142 
L 166.394565 57.222164 
L 151.743888 71.010051 
L 150.787726 71.786795 
L 135.180886 85.304274 
L 126.606278 93.418961 
L 119.574046 99.339109 
L 103.967207 113.712003 
L 101.818974 115.82787 
L 88.360367 127.523602 
L 76.592197 138.23678 
L 72.753528 141.256289 
L 57.146688 150.210757 
L 57.146688 160.64569 
L 57.146688 172.47388 
z
" clip-path="url(#p67c5c5b410)" style="fill: #9dd93b"/>
    <path d="M 72.753528 183.541281 
L 73.45826 183.054599 
L 88.360367 171.823538 
L 103.967207 160.818095 
L 104.227161 160.64569 
L 119.574046 148.703183 
L 134.689163 138.23678 
L 135.180886 137.840467 
L 150.787726 125.962368 
L 165.648164 115.82787 
L 166.394565 115.244005 
L 182.001405 104.30827 
L 197.608244 97.3895 
L 197.608244 93.418961 
L 197.608244 71.010051 
L 197.608244 70.450512 
L 196.609355 71.010051 
L 182.001405 77.921815 
L 166.394565 89.575913 
L 161.843979 93.418961 
L 150.787726 101.677084 
L 135.180886 114.533911 
L 133.703698 115.82787 
L 119.574046 126.678546 
L 106.048005 138.23678 
L 103.967207 139.769006 
L 88.360367 152.085148 
L 78.020123 160.64569 
L 72.753528 164.372986 
L 57.146688 172.47388 
L 57.146688 183.054599 
L 57.146688 191.292074 
z
" clip-path="url(#p67c5c5b410)" style="fill: #81d34d"/>
    <path d="M 62.726553 205.463509 
L 72.753528 200.066432 
L 88.360367 188.896973 
L 96.857404 183.054599 
L 103.967207 177.719645 
L 119.574046 166.969958 
L 129.710172 160.64569 
L 135.180886 156.628123 
L 150.787726 145.994632 
L 163.389823 138.23678 
L 166.394565 136.072333 
L 182.001405 126.072669 
L 197.608244 119.742615 
L 197.608244 115.82787 
L 197.608244 97.3895 
L 182.001405 104.30827 
L 166.394565 115.244005 
L 165.648164 115.82787 
L 150.787726 125.962368 
L 135.180886 137.840467 
L 134.689163 138.23678 
L 119.574046 148.703183 
L 104.227161 160.64569 
L 103.967207 160.818095 
L 88.360367 171.823538 
L 73.45826 183.054599 
L 72.753528 183.541281 
L 57.146688 191.292074 
L 57.146688 205.463509 
L 57.146688 209.451077 
z
" clip-path="url(#p67c5c5b410)" style="fill: #69cd5b"/>
    <path d="M 72.753528 219.56385 
L 86.896769 205.463509 
L 88.360367 204.384257 
L 103.967207 192.990405 
L 119.311423 183.054599 
L 119.574046 182.868381 
L 135.180886 172.431175 
L 150.787726 163.102746 
L 155.214018 160.64569 
L 166.394565 153.300181 
L 182.001405 144.419252 
L 197.608244 138.793831 
L 197.608244 138.23678 
L 197.608244 119.742615 
L 182.001405 126.072669 
L 166.394565 136.072333 
L 163.389823 138.23678 
L 150.787726 145.994632 
L 135.180886 156.628123 
L 129.710172 160.64569 
L 119.574046 166.969958 
L 103.967207 177.719645 
L 96.857404 183.054599 
L 88.360367 188.896973 
L 72.753528 200.066432 
L 62.726553 205.463509 
L 57.146688 209.451077 
L 57.146688 227.872418 
L 61.639105 227.872418 
z
" clip-path="url(#p67c5c5b410)" style="fill: #52c569"/>
    <path d="M 72.753528 227.872418 
L 84.311856 227.872418 
L 88.360367 223.72507 
L 103.967207 208.056748 
L 106.739793 205.463509 
L 119.574046 196.554829 
L 135.180886 186.822376 
L 141.730889 183.054599 
L 150.787726 177.314132 
L 166.394565 168.249155 
L 181.714555 160.64569 
L 182.001405 160.476338 
L 197.608244 154.367805 
L 197.608244 138.793831 
L 182.001405 144.419252 
L 166.394565 153.300181 
L 155.214018 160.64569 
L 150.787726 163.102746 
L 135.180886 172.431175 
L 119.574046 182.868381 
L 119.311423 183.054599 
L 103.967207 192.990405 
L 88.360367 204.384257 
L 86.896769 205.463509 
L 72.753528 219.56385 
L 61.639105 227.872418 
z
" clip-path="url(#p67c5c5b410)" style="fill: #3dbc74"/>
    <path d="M 88.360367 227.872418 
L 102.5864 227.872418 
L 103.967207 226.463313 
L 119.574046 211.488916 
L 126.418433 205.463509 
L 135.180886 199.719991 
L 150.787726 190.335977 
L 164.21375 183.054599 
L 166.394565 181.747672 
L 182.001405 173.399631 
L 197.608244 168.109433 
L 197.608244 160.64569 
L 197.608244 154.367805 
L 182.001405 160.476338 
L 181.714555 160.64569 
L 166.394565 168.249155 
L 150.787726 177.314132 
L 141.730889 183.054599 
L 135.180886 186.822376 
L 119.574046 196.554829 
L 106.739793 205.463509 
L 103.967207 208.056748 
L 88.360367 223.72507 
L 84.311856 227.872418 
z
" clip-path="url(#p67c5c5b410)" style="fill: #2eb37c"/>
    <path d="M 103.967207 227.872418 
L 119.574046 227.872418 
L 120.547115 227.872418 
L 135.180886 214.537467 
L 146.096815 205.463509 
L 150.787726 202.55171 
L 166.394565 193.535995 
L 182.001405 185.836151 
L 190.779934 183.054599 
L 197.608244 180.613632 
L 197.608244 168.109433 
L 182.001405 173.399631 
L 166.394565 181.747672 
L 164.21375 183.054599 
L 150.787726 190.335977 
L 135.180886 199.719991 
L 126.418433 205.463509 
L 119.574046 211.488916 
L 103.967207 226.463313 
L 102.5864 227.872418 
z
" clip-path="url(#p67c5c5b410)" style="fill: #23a983"/>
    <path d="M 135.180886 227.872418 
L 138.499696 227.872418 
L 150.787726 217.26644 
L 165.845128 205.463509 
L 166.394565 205.140986 
L 182.001405 196.919541 
L 197.608244 191.7083 
L 197.608244 183.054599 
L 197.608244 180.613632 
L 190.779934 183.054599 
L 182.001405 185.836151 
L 166.394565 193.535995 
L 150.787726 202.55171 
L 146.096815 205.463509 
L 135.180886 214.537467 
L 120.547115 227.872418 
z
" clip-path="url(#p67c5c5b410)" style="fill: #1f9f88"/>
    <path d="M 150.787726 227.872418 
L 156.480229 227.872418 
L 166.394565 219.778802 
L 182.001405 208.686012 
L 189.035677 205.463509 
L 197.608244 202.461068 
L 197.608244 191.7083 
L 182.001405 196.919541 
L 166.394565 205.140986 
L 165.845128 205.463509 
L 150.787726 217.26644 
L 138.499696 227.872418 
z
" clip-path="url(#p67c5c5b410)" style="fill: #1f958b"/>
    <path d="M 166.394565 227.872418 
L 175.023648 227.872418 
L 182.001405 222.750727 
L 197.608244 215.299493 
L 197.608244 205.463509 
L 197.608244 202.461068 
L 189.035677 205.463509 
L 182.001405 208.686012 
L 166.394565 219.778802 
L 156.480229 227.872418 
z
" clip-path="url(#p67c5c5b410)" style="fill: #228b8d"/>
    <path d="M 182.001405 227.872418 
L 197.608244 227.872418 
L 197.608244 215.299493 
L 182.001405 222.750727 
L 175.023648 227.872418 
z
" clip-path="url(#p67c5c5b410)" style="fill: #26818e"/>
    <path clip-path="url(#p67c5c5b410)" style="fill: #2a778e"/>
    <path clip-path="url(#p67c5c5b410)" style="fill: #2e6d8e"/>
    <path clip-path="url(#p67c5c5b410)" style="fill: #33628d"/>
    <path clip-path="url(#p67c5c5b410)" style="fill: #38588c"/>
    <path clip-path="url(#p67c5c5b410)" style="fill: #3e4c8a"/>
    <path clip-path="url(#p67c5c5b410)" style="fill: #423f85"/>
    <path clip-path="url(#p67c5c5b410)" style="fill: #46337f"/>
    <path clip-path="url(#p67c5c5b410)" style="fill: #482576"/>
    <path clip-path="url(#p67c5c5b410)" style="fill: #481769"/>
    <path clip-path="url(#p67c5c5b410)" style="fill: #46085c"/>
   </g>
   <g id="QuadContourSet_2">
    <path clip-path="url(#p67c5c5b410)" style="fill: none; stroke: #3d4240; stroke-opacity: 0.1; stroke-width: 0.8"/>
    <path d="M 105.297852 26.192232 
L 103.967207 28.406888 
L 92.431076 48.601142 
L 88.360367 53.363364 
L 73.59809 71.010051 
L 72.753528 71.894133 
L 57.146688 83.677655 
" clip-path="url(#p67c5c5b410)" style="fill: none; stroke: #3d4240; stroke-opacity: 0.1; stroke-width: 0.8"/>
    <path d="M 149.535794 26.192232 
L 135.180886 47.312239 
L 134.351881 48.601142 
L 119.574046 63.841962 
L 113.170474 71.010051 
L 106.767818 77.259592 
M 101.28486 82.85002 
L 91.361293 93.418961 
L 88.360367 96.281294 
L 72.753528 111.46589 
L 66.737932 115.82787 
L 57.146688 121.847039 
" clip-path="url(#p67c5c5b410)" style="fill: none; stroke: #3d4240; stroke-opacity: 0.1; stroke-width: 0.8"/>
    <path d="M 197.608244 29.634892 
L 182.001405 42.32346 
L 176.958648 48.601142 
L 166.394565 57.222164 
L 151.743888 71.010051 
L 150.787726 71.786795 
L 135.180886 85.304274 
L 126.606278 93.418961 
L 119.574046 99.339109 
L 103.967207 113.712003 
L 101.818974 115.82787 
L 88.360367 127.523602 
L 76.592197 138.23678 
L 72.753528 141.256289 
L 57.146688 150.210757 
" clip-path="url(#p67c5c5b410)" style="fill: none; stroke: #3d4240; stroke-opacity: 0.1; stroke-width: 0.8"/>
    <path d="M 197.608244 70.450512 
L 196.609355 71.010051 
L 182.001405 77.921815 
L 166.394565 89.575913 
L 161.843979 93.418961 
L 150.787726 101.677084 
L 136.679628 113.299255 
M 130.610561 118.203203 
L 119.574046 126.678546 
L 106.048005 138.23678 
L 103.967207 139.769006 
L 88.360367 152.085148 
L 78.020123 160.64569 
L 72.753528 164.372986 
L 57.146688 172.47388 
" clip-path="url(#p67c5c5b410)" style="fill: none; stroke: #3d4240; stroke-opacity: 0.1; stroke-width: 0.8"/>
    <path d="M 197.608244 97.3895 
L 182.001405 104.30827 
L 166.394565 115.244005 
L 165.648164 115.82787 
L 150.787726 125.962368 
L 135.180886 137.840467 
L 134.689163 138.23678 
L 119.574046 148.703183 
L 104.227161 160.64569 
L 103.967207 160.818095 
L 88.360367 171.823538 
L 73.45826 183.054599 
L 72.753528 183.541281 
L 57.146688 191.292074 
" clip-path="url(#p67c5c5b410)" style="fill: none; stroke: #3d4240; stroke-opacity: 0.1; stroke-width: 0.8"/>
    <path d="M 197.608244 119.742615 
L 182.001405 126.072669 
L 166.394565 136.072333 
L 163.389823 138.23678 
L 150.787726 145.994632 
L 135.180886 156.628123 
L 129.710172 160.64569 
L 122.873902 164.911067 
M 116.366922 169.178963 
L 103.967207 177.719645 
L 96.857404 183.054599 
L 88.360367 188.896973 
L 72.753528 200.066432 
L 62.726553 205.463509 
L 57.146688 209.451077 
" clip-path="url(#p67c5c5b410)" style="fill: none; stroke: #3d4240; stroke-opacity: 0.1; stroke-width: 0.8"/>
    <path d="M 197.608244 138.793831 
L 182.001405 144.419252 
L 166.394565 153.300181 
L 155.214018 160.64569 
L 150.787726 163.102746 
L 135.180886 172.431175 
L 119.574046 182.868381 
L 119.311423 183.054599 
L 103.967207 192.990405 
L 88.360367 204.384257 
L 86.896769 205.463509 
L 72.753528 219.56385 
L 61.639105 227.872418 
" clip-path="url(#p67c5c5b410)" style="fill: none; stroke: #3d4240; stroke-opacity: 0.1; stroke-width: 0.8"/>
    <path d="M 197.608244 154.367805 
L 182.001405 160.476338 
L 181.714555 160.64569 
L 166.394565 168.249155 
L 150.787726 177.314132 
L 141.730889 183.054599 
L 138.54922 184.884799 
M 131.880559 188.880466 
L 119.574046 196.554829 
L 106.739793 205.463509 
L 103.967207 208.056748 
L 88.360367 223.72507 
L 84.311856 227.872418 
" clip-path="url(#p67c5c5b410)" style="fill: none; stroke: #3d4240; stroke-opacity: 0.1; stroke-width: 0.8"/>
    <path d="M 197.608244 168.109433 
L 182.001405 173.399631 
L 166.394565 181.747672 
L 164.21375 183.054599 
L 150.787726 190.335977 
L 135.180886 199.719991 
L 126.418433 205.463509 
L 119.574046 211.488916 
L 103.967207 226.463313 
L 102.5864 227.872418 
" clip-path="url(#p67c5c5b410)" style="fill: none; stroke: #3d4240; stroke-opacity: 0.1; stroke-width: 0.8"/>
    <path d="M 197.608244 180.613632 
L 190.779934 183.054599 
L 182.001405 185.836151 
L 166.394565 193.535995 
L 154.152657 200.607866 
M 147.483329 204.602855 
L 146.096815 205.463509 
L 135.180886 214.537467 
L 120.547115 227.872418 
" clip-path="url(#p67c5c5b410)" style="fill: none; stroke: #3d4240; stroke-opacity: 0.1; stroke-width: 0.8"/>
    <path d="M 197.608244 191.7083 
L 182.001405 196.919541 
L 166.394565 205.140986 
L 165.845128 205.463509 
L 150.787726 217.26644 
L 138.499696 227.872418 
" clip-path="url(#p67c5c5b410)" style="fill: none; stroke: #3d4240; stroke-opacity: 0.1; stroke-width: 0.8"/>
    <path d="M 197.608244 202.461068 
L 189.035677 205.463509 
L 185.539684 207.065074 
M 178.81394 210.951549 
L 166.394565 219.778802 
L 156.480229 227.872418 
" clip-path="url(#p67c5c5b410)" style="fill: none; stroke: #3d4240; stroke-opacity: 0.1; stroke-width: 0.8"/>
    <path d="M 197.608244 215.299493 
L 182.001405 222.750727 
L 175.023648 227.872418 
" clip-path="url(#p67c5c5b410)" style="fill: none; stroke: #3d4240; stroke-opacity: 0.1; stroke-width: 0.8"/>
    <path clip-path="url(#p67c5c5b410)" style="fill: none; stroke: #3d4240; stroke-opacity: 0.1; stroke-width: 0.8"/>
    <path clip-path="url(#p67c5c5b410)" style="fill: none; stroke: #3d4240; stroke-opacity: 0.1; stroke-width: 0.8"/>
    <path clip-path="url(#p67c5c5b410)" style="fill: none; stroke: #3d4240; stroke-opacity: 0.1; stroke-width: 0.8"/>
    <path clip-path="url(#p67c5c5b410)" style="fill: none; stroke: #3d4240; stroke-opacity: 0.1; stroke-width: 0.8"/>
    <path clip-path="url(#p67c5c5b410)" style="fill: none; stroke: #3d4240; stroke-opacity: 0.1; stroke-width: 0.8"/>
    <path clip-path="url(#p67c5c5b410)" style="fill: none; stroke: #3d4240; stroke-opacity: 0.1; stroke-width: 0.8"/>
    <path clip-path="url(#p67c5c5b410)" style="fill: none; stroke: #3d4240; stroke-opacity: 0.1; stroke-width: 0.8"/>
    <path clip-path="url(#p67c5c5b410)" style="fill: none; stroke: #3d4240; stroke-opacity: 0.1; stroke-width: 0.8"/>
    <path clip-path="url(#p67c5c5b410)" style="fill: none; stroke: #3d4240; stroke-opacity: 0.1; stroke-width: 0.8"/>
    <path clip-path="url(#p67c5c5b410)" style="fill: none; stroke: #3d4240; stroke-opacity: 0.1; stroke-width: 0.8"/>
    <path clip-path="url(#p67c5c5b410)" style="fill: none; stroke: #3d4240; stroke-opacity: 0.1; stroke-width: 0.8"/>
   </g>
   <g id="text_7">
    <g clip-path="url(#p67c5c5b410)">
     <!-- 4 -->
     <g transform="translate(101.186738 82.578385) scale(0.1 -0.1)">
      <defs>
       <path id="ArialMT-34" d="M 2069 0 
L 2069 1097 
L 81 1097 
L 81 1613 
L 2172 4581 
L 2631 4581 
L 2631 1613 
L 3250 1613 
L 3250 1097 
L 2631 1097 
L 2631 0 
L 2069 0 
z
M 2069 1613 
L 2069 3678 
L 634 1613 
L 2069 1613 
z
" transform="scale(0.015625)"/>
      </defs>
      <use xlink:href="#ArialMT-34"/>
     </g>
    </g>
   </g>
   <g id="text_8">
    <g clip-path="url(#p67c5c5b410)">
     <!-- 5 -->
     <g transform="translate(130.92323 118.413027) scale(0.1 -0.1)">
      <use xlink:href="#ArialMT-35"/>
     </g>
    </g>
   </g>
   <g id="text_9">
    <g clip-path="url(#p67c5c5b410)">
     <!-- 6 -->
     <g transform="translate(116.793578 169.555114) scale(0.1 -0.1)">
      <use xlink:href="#ArialMT-36"/>
     </g>
    </g>
   </g>
   <g id="text_10">
    <g clip-path="url(#p67c5c5b410)">
     <!-- 7 -->
     <g transform="translate(132.400417 189.407532) scale(0.1 -0.1)">
      <defs>
       <path id="ArialMT-37" d="M 303 3981 
L 303 4522 
L 3269 4522 
L 3269 4084 
Q 2831 3619 2401 2847 
Q 1972 2075 1738 1259 
Q 1569 684 1522 0 
L 944 0 
Q 953 541 1156 1306 
Q 1359 2072 1739 2783 
Q 2119 3494 2547 3981 
L 303 3981 
z
" transform="scale(0.015625)"/>
      </defs>
      <use xlink:href="#ArialMT-37"/>
     </g>
    </g>
   </g>
   <g id="text_11">
    <g clip-path="url(#p67c5c5b410)">
     <!-- 8 -->
     <g transform="translate(148.007257 205.136866) scale(0.1 -0.1)">
      <defs>
       <path id="ArialMT-38" d="M 1131 2484 
Q 781 2613 612 2850 
Q 444 3088 444 3419 
Q 444 3919 803 4259 
Q 1163 4600 1759 4600 
Q 2359 4600 2725 4251 
Q 3091 3903 3091 3403 
Q 3091 3084 2923 2848 
Q 2756 2613 2416 2484 
Q 2838 2347 3058 2040 
Q 3278 1734 3278 1309 
Q 3278 722 2862 322 
Q 2447 -78 1769 -78 
Q 1091 -78 675 323 
Q 259 725 259 1325 
Q 259 1772 486 2073 
Q 713 2375 1131 2484 
z
M 1019 3438 
Q 1019 3113 1228 2906 
Q 1438 2700 1772 2700 
Q 2097 2700 2305 2904 
Q 2513 3109 2513 3406 
Q 2513 3716 2298 3927 
Q 2084 4138 1766 4138 
Q 1444 4138 1231 3931 
Q 1019 3725 1019 3438 
z
M 838 1322 
Q 838 1081 952 856 
Q 1066 631 1291 507 
Q 1516 384 1775 384 
Q 2178 384 2440 643 
Q 2703 903 2703 1303 
Q 2703 1709 2433 1975 
Q 2163 2241 1756 2241 
Q 1359 2241 1098 1978 
Q 838 1716 838 1322 
z
" transform="scale(0.015625)"/>
      </defs>
      <use xlink:href="#ArialMT-38"/>
     </g>
    </g>
   </g>
   <g id="text_12">
    <g clip-path="url(#p67c5c5b410)">
     <!-- 9 -->
     <g transform="translate(179.220936 211.271168) scale(0.1 -0.1)">
      <use xlink:href="#ArialMT-39"/>
     </g>
    </g>
   </g>
   <g id="QuadContourSet_3">
    <path d="M 197.608244 70.450512 
L 196.609355 71.010051 
L 182.001405 77.921815 
L 166.394565 89.575913 
L 161.843979 93.418961 
L 150.787726 101.677084 
L 136.679628 113.299255 
M 130.610561 118.203203 
L 119.574046 126.678546 
L 106.048005 138.23678 
L 103.967207 139.769006 
L 88.360367 152.085148 
L 78.020123 160.64569 
L 72.753528 164.372986 
L 57.146688 172.47388 
" clip-path="url(#p67c5c5b410)" style="fill: none; stroke: #ff0000; stroke-width: 0.8"/>
   </g>
   <g id="text_13">
    <g clip-path="url(#p67c5c5b410)">
     <!-- 5 -->
     <g style="fill: #ff0000" transform="translate(130.92323 118.413027) scale(0.1 -0.1)">
      <use xlink:href="#ArialMT-35"/>
     </g>
    </g>
   </g>
   <g id="matplotlib.axis_3">
    <g id="xtick_1">
     <g id="line2d_6">
      <defs>
       <path id="m35d7f3030b" d="M 0 2 
L 0 -2 
" style="stroke: #000000; stroke-width: 0.8"/>
      </defs>
      <g>
       <use xlink:href="#m35d7f3030b" x="57.146688" y="227.872418" style="stroke: #000000; stroke-width: 0.8"/>
      </g>
     </g>
     <g id="text_14">
      <!-- 2 -->
      <g transform="translate(54.366219 240.530231) scale(0.1 -0.1)">
       <use xlink:href="#ArialMT-32"/>
      </g>
     </g>
    </g>
    <g id="xtick_2">
     <g id="line2d_7">
      <g>
       <use xlink:href="#m35d7f3030b" x="92.262077" y="227.872418" style="stroke: #000000; stroke-width: 0.8"/>
      </g>
     </g>
     <g id="text_15">
      <!-- 3 -->
      <g transform="translate(89.481608 240.530231) scale(0.1 -0.1)">
       <use xlink:href="#ArialMT-33"/>
      </g>
     </g>
    </g>
    <g id="xtick_3">
     <g id="line2d_8">
      <g>
       <use xlink:href="#m35d7f3030b" x="127.377466" y="227.872418" style="stroke: #000000; stroke-width: 0.8"/>
      </g>
     </g>
     <g id="text_16">
      <!-- 4 -->
      <g transform="translate(124.596997 240.530231) scale(0.1 -0.1)">
       <use xlink:href="#ArialMT-34"/>
      </g>
     </g>
    </g>
    <g id="xtick_4">
     <g id="line2d_9">
      <g>
       <use xlink:href="#m35d7f3030b" x="162.492855" y="227.872418" style="stroke: #000000; stroke-width: 0.8"/>
      </g>
     </g>
     <g id="text_17">
      <!-- 5 -->
      <g transform="translate(159.712387 240.530231) scale(0.1 -0.1)">
       <use xlink:href="#ArialMT-35"/>
      </g>
     </g>
    </g>
    <g id="xtick_5">
     <g id="line2d_10">
      <g>
       <use xlink:href="#m35d7f3030b" x="197.608244" y="227.872418" style="stroke: #000000; stroke-width: 0.8"/>
      </g>
     </g>
     <g id="text_18">
      <!-- 6 -->
      <g transform="translate(194.827776 240.530231) scale(0.1 -0.1)">
       <use xlink:href="#ArialMT-36"/>
      </g>
     </g>
    </g>
   </g>
   <g id="matplotlib.axis_4">
    <g id="ytick_6">
     <g id="line2d_11">
      <defs>
       <path id="mfb54a81f91" d="M 2 0 
L -2 -0 
" style="stroke: #000000; stroke-width: 0.8"/>
      </defs>
      <g>
       <use xlink:href="#mfb54a81f91" x="57.146688" y="227.872418" style="stroke: #000000; stroke-width: 0.8"/>
      </g>
     </g>
     <g id="text_19">
      <!-- 35 -->
      <g transform="translate(40.524813 231.451325) scale(0.1 -0.1)">
       <use xlink:href="#ArialMT-33"/>
       <use xlink:href="#ArialMT-35" transform="translate(55.615234 0)"/>
      </g>
     </g>
    </g>
    <g id="ytick_7">
     <g id="line2d_12">
      <g>
       <use xlink:href="#mfb54a81f91" x="57.146688" y="187.536381" style="stroke: #000000; stroke-width: 0.8"/>
      </g>
     </g>
     <g id="text_20">
      <!-- 45 -->
      <g transform="translate(40.524813 191.115287) scale(0.1 -0.1)">
       <use xlink:href="#ArialMT-34"/>
       <use xlink:href="#ArialMT-35" transform="translate(55.615234 0)"/>
      </g>
     </g>
    </g>
    <g id="ytick_8">
     <g id="line2d_13">
      <g>
       <use xlink:href="#mfb54a81f91" x="57.146688" y="147.200344" style="stroke: #000000; stroke-width: 0.8"/>
      </g>
     </g>
     <g id="text_21">
      <!-- 55 -->
      <g transform="translate(40.524813 150.77925) scale(0.1 -0.1)">
       <use xlink:href="#ArialMT-35"/>
       <use xlink:href="#ArialMT-35" transform="translate(55.615234 0)"/>
      </g>
     </g>
    </g>
    <g id="ytick_9">
     <g id="line2d_14">
      <g>
       <use xlink:href="#mfb54a81f91" x="57.146688" y="106.864307" style="stroke: #000000; stroke-width: 0.8"/>
      </g>
     </g>
     <g id="text_22">
      <!-- 65 -->
      <g transform="translate(40.524813 110.443213) scale(0.1 -0.1)">
       <use xlink:href="#ArialMT-36"/>
       <use xlink:href="#ArialMT-35" transform="translate(55.615234 0)"/>
      </g>
     </g>
    </g>
    <g id="ytick_10">
     <g id="line2d_15">
      <g>
       <use xlink:href="#mfb54a81f91" x="57.146688" y="66.528269" style="stroke: #000000; stroke-width: 0.8"/>
      </g>
     </g>
     <g id="text_23">
      <!-- 75 -->
      <g transform="translate(40.524813 70.107176) scale(0.1 -0.1)">
       <use xlink:href="#ArialMT-37"/>
       <use xlink:href="#ArialMT-35" transform="translate(55.615234 0)"/>
      </g>
     </g>
    </g>
    <g id="ytick_11">
     <g id="line2d_16">
      <g>
       <use xlink:href="#mfb54a81f91" x="57.146688" y="26.192232" style="stroke: #000000; stroke-width: 0.8"/>
      </g>
     </g>
     <g id="text_24">
      <!-- 85 -->
      <g transform="translate(40.524813 29.771138) scale(0.1 -0.1)">
       <use xlink:href="#ArialMT-38"/>
       <use xlink:href="#ArialMT-35" transform="translate(55.615234 0)"/>
      </g>
     </g>
    </g>
   </g>
   <g id="patch_5">
    <path d="M 57.146688 227.872418 
L 57.146688 26.192232 
" style="fill: none; stroke: #000000; stroke-width: 0.8; stroke-linejoin: miter; stroke-linecap: square"/>
   </g>
   <g id="patch_6">
    <path d="M 197.608244 227.872418 
L 197.608244 26.192232 
" style="fill: none; stroke: #000000; stroke-width: 0.8; stroke-linejoin: miter; stroke-linecap: square"/>
   </g>
   <g id="patch_7">
    <path d="M 57.146688 227.872418 
L 197.608244 227.872418 
" style="fill: none; stroke: #000000; stroke-width: 0.8; stroke-linejoin: miter; stroke-linecap: square"/>
   </g>
   <g id="patch_8">
    <path d="M 57.146688 26.192232 
L 197.608244 26.192232 
" style="fill: none; stroke: #000000; stroke-width: 0.8; stroke-linejoin: miter; stroke-linecap: square"/>
   </g>
  </g>
  <g id="axes_4">
   <g id="patch_9">
    <path d="M 213.410169 227.872418 
L 353.871726 227.872418 
L 353.871726 26.192232 
L 213.410169 26.192232 
L 213.410169 227.872418 
z
" style="fill: none"/>
   </g>
   <g id="QuadContourSet_4">
    <path d="M 229.017009 50.228287 
L 229.99854 48.601142 
L 238.793771 26.192232 
L 229.017009 26.192232 
L 213.410169 26.192232 
L 213.410169 48.601142 
L 213.410169 69.251448 
z
" clip-path="url(#p6c4b967ae1)" style="fill: #f1e51d"/>
    <path d="M 229.017009 94.272154 
L 229.662381 93.418961 
L 244.623849 71.872833 
L 245.239449 71.010051 
L 259.205962 48.601142 
L 260.230688 46.145574 
L 268.963294 26.192232 
L 260.230688 26.192232 
L 244.623849 26.192232 
L 238.793771 26.192232 
L 229.99854 48.601142 
L 229.017009 50.228287 
L 213.410169 69.251448 
L 213.410169 71.010051 
L 213.410169 93.418961 
L 213.410169 109.386508 
z
" clip-path="url(#p6c4b967ae1)" style="fill: #d5e21a"/>
    <path d="M 215.562193 138.23678 
L 229.017009 125.933352 
L 237.397049 115.82787 
L 244.623849 106.204941 
L 254.56089 93.418961 
L 260.230688 85.456609 
L 271.408774 71.010051 
L 275.837528 64.459764 
L 287.428574 48.601142 
L 291.444367 40.340837 
L 298.692185 26.192232 
L 291.444367 26.192232 
L 275.837528 26.192232 
L 268.963294 26.192232 
L 260.230688 46.145574 
L 259.205962 48.601142 
L 245.239449 71.010051 
L 244.623849 71.872833 
L 229.662381 93.418961 
L 229.017009 94.272154 
L 213.410169 109.386508 
L 213.410169 115.82787 
L 213.410169 138.23678 
L 213.410169 139.940677 
z
" clip-path="url(#p6c4b967ae1)" style="fill: #bade28"/>
    <path d="M 217.393054 160.64569 
L 229.017009 150.97921 
L 240.752484 138.23678 
L 244.623849 133.493988 
L 259.669796 115.82787 
L 260.230688 115.09933 
L 275.837528 96.336195 
L 278.497028 93.418961 
L 291.444367 77.736785 
L 297.507555 71.010051 
L 307.051207 58.785536 
L 315.686954 48.601142 
L 322.658047 36.140033 
L 328.886825 26.192232 
L 322.658047 26.192232 
L 307.051207 26.192232 
L 298.692185 26.192232 
L 291.444367 40.340837 
L 287.428574 48.601142 
L 275.837528 64.459764 
L 271.408774 71.010051 
L 260.230688 85.456609 
L 254.56089 93.418961 
L 244.623849 106.204941 
L 237.397049 115.82787 
L 229.017009 125.933352 
L 215.562193 138.23678 
L 213.410169 139.940677 
L 213.410169 160.64569 
L 213.410169 163.445291 
z
" clip-path="url(#p6c4b967ae1)" style="fill: #9dd93b"/>
    <path d="M 229.017009 171.021487 
L 239.768851 160.64569 
L 244.623849 155.233208 
L 260.230688 138.683781 
L 260.688355 138.23678 
L 275.837528 121.419725 
L 281.420386 115.82787 
L 291.444367 104.592678 
L 302.405899 93.418961 
L 307.051207 88.165054 
L 322.658047 72.003232 
L 323.748379 71.010051 
L 338.264886 55.583722 
L 348.649539 48.601142 
L 353.871726 43.138153 
L 353.871726 26.192232 
L 338.264886 26.192232 
L 328.886825 26.192232 
L 322.658047 36.140033 
L 315.686954 48.601142 
L 307.051207 58.785536 
L 297.507555 71.010051 
L 291.444367 77.736785 
L 278.497028 93.418961 
L 275.837528 96.336195 
L 260.230688 115.09933 
L 259.669796 115.82787 
L 244.623849 133.493988 
L 240.752484 138.23678 
L 229.017009 150.97921 
L 217.393054 160.64569 
L 213.410169 163.445291 
L 213.410169 182.66336 
z
" clip-path="url(#p6c4b967ae1)" style="fill: #81d34d"/>
    <path d="M 229.017009 188.099645 
L 234.52338 183.054599 
L 244.623849 172.919239 
L 257.659698 160.64569 
L 260.230688 157.847243 
L 275.837528 142.27566 
L 280.308477 138.23678 
L 291.444367 126.742827 
L 303.16782 115.82787 
L 307.051207 111.762701 
L 322.658047 96.7516 
L 326.638528 93.418961 
L 338.264886 82.493356 
L 353.871726 73.219204 
L 353.871726 71.010051 
L 353.871726 48.601142 
L 353.871726 43.138153 
L 348.649539 48.601142 
L 338.264886 55.583722 
L 323.748379 71.010051 
L 322.658047 72.003232 
L 307.051207 88.165054 
L 302.405899 93.418961 
L 291.444367 104.592678 
L 281.420386 115.82787 
L 275.837528 121.419725 
L 260.688355 138.23678 
L 260.230688 138.683781 
L 244.623849 155.233208 
L 239.768851 160.64569 
L 229.017009 171.021487 
L 213.410169 182.66336 
L 213.410169 183.054599 
L 213.410169 198.812754 
z
" clip-path="url(#p6c4b967ae1)" style="fill: #69cd5b"/>
    <path d="M 225.885264 205.463509 
L 229.017009 203.234916 
L 244.623849 188.468093 
L 250.665862 183.054599 
L 260.230688 173.671827 
L 275.196908 160.64569 
L 275.837528 159.997878 
L 291.444367 145.363234 
L 299.927707 138.23678 
L 307.051207 131.368265 
L 322.658047 117.730067 
L 325.144501 115.82787 
L 338.264886 104.412619 
L 353.871726 95.871499 
L 353.871726 93.418961 
L 353.871726 73.219204 
L 338.264886 82.493356 
L 326.638528 93.418961 
L 322.658047 96.7516 
L 307.051207 111.762701 
L 303.16782 115.82787 
L 291.444367 126.742827 
L 280.308477 138.23678 
L 275.837528 142.27566 
L 260.230688 157.847243 
L 257.659698 160.64569 
L 244.623849 172.919239 
L 234.52338 183.054599 
L 229.017009 188.099645 
L 213.410169 198.812754 
L 213.410169 205.463509 
L 213.410169 217.118827 
z
" clip-path="url(#p6c4b967ae1)" style="fill: #52c569"/>
    <path d="M 229.017009 221.435824 
L 241.424607 205.463509 
L 244.623849 202.400145 
L 260.230688 187.999207 
L 266.188129 183.054599 
L 275.837528 174.25113 
L 291.444367 161.602764 
L 292.720289 160.64569 
L 307.051207 148.048788 
L 319.605756 138.23678 
L 322.658047 135.487037 
L 338.264886 123.125706 
L 353.015162 115.82787 
L 353.871726 115.336468 
L 353.871726 95.871499 
L 338.264886 104.412619 
L 325.144501 115.82787 
L 322.658047 117.730067 
L 307.051207 131.368265 
L 299.927707 138.23678 
L 291.444367 145.363234 
L 275.837528 159.997878 
L 275.196908 160.64569 
L 260.230688 173.671827 
L 250.665862 183.054599 
L 244.623849 188.468093 
L 229.017009 203.234916 
L 225.885264 205.463509 
L 213.410169 217.118827 
L 213.410169 227.872418 
L 222.333714 227.872418 
z
" clip-path="url(#p6c4b967ae1)" style="fill: #3dbc74"/>
    <path d="M 229.017009 227.872418 
L 237.749401 227.872418 
L 244.623849 218.94386 
L 255.308345 205.463509 
L 260.230688 200.846259 
L 275.837528 187.541712 
L 281.665941 183.054599 
L 291.444367 174.748694 
L 307.051207 162.887092 
L 310.260414 160.64569 
L 322.658047 150.460703 
L 338.264886 139.602147 
L 341.320598 138.23678 
L 353.871726 131.601463 
L 353.871726 115.82787 
L 353.871726 115.336468 
L 353.015162 115.82787 
L 338.264886 123.125706 
L 322.658047 135.487037 
L 319.605756 138.23678 
L 307.051207 148.048788 
L 292.720289 160.64569 
L 291.444367 161.602764 
L 275.837528 174.25113 
L 266.188129 183.054599 
L 260.230688 187.999207 
L 244.623849 202.400145 
L 241.424607 205.463509 
L 229.017009 221.435824 
L 222.333714 227.872418 
z
" clip-path="url(#p6c4b967ae1)" style="fill: #2eb37c"/>
    <path d="M 244.623849 227.872418 
L 250.676382 227.872418 
L 260.230688 215.69151 
L 268.964228 205.463509 
L 275.837528 199.456602 
L 291.444367 187.144581 
L 297.143224 183.054599 
L 307.051207 175.183537 
L 322.658047 164.063424 
L 328.191059 160.64569 
L 338.264886 153.279225 
L 353.871726 146.016275 
L 353.871726 138.23678 
L 353.871726 131.601463 
L 341.320598 138.23678 
L 338.264886 139.602147 
L 322.658047 150.460703 
L 310.260414 160.64569 
L 307.051207 162.887092 
L 291.444367 174.748694 
L 281.665941 183.054599 
L 275.837528 187.541712 
L 260.230688 200.846259 
L 255.308345 205.463509 
L 244.623849 218.94386 
L 237.749401 227.872418 
z
" clip-path="url(#p6c4b967ae1)" style="fill: #23a983"/>
    <path d="M 260.230688 227.872418 
L 263.186282 227.872418 
L 275.837528 212.818727 
L 282.59673 205.463509 
L 291.444367 198.253328 
L 307.051207 186.799218 
L 312.647369 183.054599 
L 322.658047 175.616708 
L 338.264886 165.689447 
L 350.879951 160.64569 
L 353.871726 159.202755 
L 353.871726 146.016275 
L 338.264886 153.279225 
L 328.191059 160.64569 
L 322.658047 164.063424 
L 307.051207 175.183537 
L 297.143224 183.054599 
L 291.444367 187.144581 
L 275.837528 199.456602 
L 268.964228 205.463509 
L 260.230688 215.69151 
L 250.676382 227.872418 
z
" clip-path="url(#p6c4b967ae1)" style="fill: #1f9f88"/>
    <path d="M 275.837528 227.65232 
L 291.444367 210.324393 
L 296.228952 205.463509 
L 307.051207 197.204083 
L 322.658047 186.541014 
L 328.542368 183.054599 
L 338.264886 176.62085 
L 353.871726 170.035171 
L 353.871726 160.64569 
L 353.871726 159.202755 
L 350.879951 160.64569 
L 338.264886 165.689447 
L 322.658047 175.616708 
L 312.647369 183.054599 
L 307.051207 186.799218 
L 291.444367 198.253328 
L 282.59673 205.463509 
L 275.837528 212.818727 
L 263.186282 227.872418 
L 275.652555 227.872418 
z
" clip-path="url(#p6c4b967ae1)" style="fill: #1f958b"/>
    <path d="M 275.837528 227.872418 
L 288.117185 227.872418 
L 291.444367 224.175213 
L 307.051207 208.142051 
L 309.875254 205.463509 
L 322.658047 196.328544 
L 338.264886 186.868607 
L 348.200233 183.054599 
L 353.871726 180.578342 
L 353.871726 170.035171 
L 338.264886 176.62085 
L 328.542368 183.054599 
L 322.658047 186.541014 
L 307.051207 197.204083 
L 296.228952 205.463509 
L 291.444367 210.324393 
L 275.837528 227.65232 
L 275.652555 227.872418 
z
" clip-path="url(#p6c4b967ae1)" style="fill: #228b8d"/>
    <path d="M 291.444367 227.872418 
L 300.583012 227.872418 
L 307.051207 221.132337 
L 322.658047 206.279169 
L 323.628143 205.463509 
L 338.264886 196.138431 
L 353.871726 189.89955 
L 353.871726 183.054599 
L 353.871726 180.578342 
L 348.200233 183.054599 
L 338.264886 186.868607 
L 322.658047 196.328544 
L 309.875254 205.463509 
L 307.051207 208.142051 
L 291.444367 224.175213 
L 288.117185 227.872418 
z
" clip-path="url(#p6c4b967ae1)" style="fill: #26818e"/>
    <path d="M 307.051207 227.872418 
L 313.0768 227.872418 
L 322.658047 218.512861 
L 338.178158 205.463509 
L 338.264886 205.408254 
L 353.871726 198.845659 
L 353.871726 189.89955 
L 338.264886 196.138431 
L 323.628143 205.463509 
L 322.658047 206.279169 
L 307.051207 221.132337 
L 300.583012 227.872418 
z
" clip-path="url(#p6c4b967ae1)" style="fill: #2a778e"/>
    <path d="M 322.658047 227.872418 
L 325.783733 227.872418 
L 338.264886 216.992228 
L 353.871726 208.378258 
L 353.871726 205.463509 
L 353.871726 198.845659 
L 338.264886 205.408254 
L 338.178158 205.463509 
L 322.658047 218.512861 
L 313.0768 227.872418 
z
" clip-path="url(#p6c4b967ae1)" style="fill: #2e6d8e"/>
    <path d="M 338.264886 227.872418 
L 339.468311 227.872418 
L 353.871726 219.577897 
L 353.871726 208.378258 
L 338.264886 216.992228 
L 325.783733 227.872418 
z
" clip-path="url(#p6c4b967ae1)" style="fill: #33628d"/>
    <path d="M 353.871726 227.872418 
L 353.871726 219.577897 
L 339.468311 227.872418 
z
" clip-path="url(#p6c4b967ae1)" style="fill: #38588c"/>
    <path clip-path="url(#p6c4b967ae1)" style="fill: #3e4c8a"/>
    <path clip-path="url(#p6c4b967ae1)" style="fill: #423f85"/>
    <path clip-path="url(#p6c4b967ae1)" style="fill: #46337f"/>
    <path clip-path="url(#p6c4b967ae1)" style="fill: #482576"/>
    <path clip-path="url(#p6c4b967ae1)" style="fill: #481769"/>
    <path clip-path="url(#p6c4b967ae1)" style="fill: #46085c"/>
   </g>
   <g id="QuadContourSet_5">
    <path clip-path="url(#p6c4b967ae1)" style="fill: none; stroke: #3d4240; stroke-opacity: 0.1; stroke-width: 0.8"/>
    <path d="M 238.793771 26.192232 
L 229.99854 48.601142 
L 229.017009 50.228287 
L 213.410169 69.251448 
" clip-path="url(#p6c4b967ae1)" style="fill: none; stroke: #3d4240; stroke-opacity: 0.1; stroke-width: 0.8"/>
    <path d="M 268.963294 26.192232 
L 260.230688 46.145574 
L 259.205962 48.601142 
L 246.762443 68.566447 
M 242.37908 75.105543 
L 229.662381 93.418961 
L 229.017009 94.272154 
L 213.410169 109.386508 
" clip-path="url(#p6c4b967ae1)" style="fill: none; stroke: #3d4240; stroke-opacity: 0.1; stroke-width: 0.8"/>
    <path d="M 298.692185 26.192232 
L 291.444367 40.340837 
L 287.428574 48.601142 
L 275.837528 64.459764 
L 271.408774 71.010051 
L 260.230688 85.456609 
L 254.56089 93.418961 
L 244.623849 106.204941 
L 237.397049 115.82787 
L 229.017009 125.933352 
L 215.562193 138.23678 
L 213.410169 139.940677 
" clip-path="url(#p6c4b967ae1)" style="fill: none; stroke: #3d4240; stroke-opacity: 0.1; stroke-width: 0.8"/>
    <path d="M 328.886825 26.192232 
L 322.658047 36.140033 
L 315.686954 48.601142 
L 307.051207 58.785536 
L 297.507555 71.010051 
L 291.444367 77.736785 
L 278.497028 93.418961 
L 278.478752 93.439008 
M 273.327099 99.354328 
L 260.230688 115.09933 
L 259.669796 115.82787 
L 244.623849 133.493988 
L 240.752484 138.23678 
L 229.017009 150.97921 
L 217.393054 160.64569 
L 213.410169 163.445291 
" clip-path="url(#p6c4b967ae1)" style="fill: none; stroke: #3d4240; stroke-opacity: 0.1; stroke-width: 0.8"/>
    <path d="M 353.871726 43.138153 
L 348.649539 48.601142 
L 338.264886 55.583722 
L 323.748379 71.010051 
L 322.658047 72.003232 
L 307.051207 88.165054 
L 302.405899 93.418961 
L 291.444367 104.592678 
L 281.420386 115.82787 
L 275.837528 121.419725 
L 260.688355 138.23678 
L 260.230688 138.683781 
L 244.623849 155.233208 
L 239.768851 160.64569 
L 229.017009 171.021487 
L 213.410169 182.66336 
" clip-path="url(#p6c4b967ae1)" style="fill: none; stroke: #3d4240; stroke-opacity: 0.1; stroke-width: 0.8"/>
    <path d="M 353.871726 73.219204 
L 338.264886 82.493356 
L 326.638528 93.418961 
L 322.658047 96.7516 
L 307.051207 111.762701 
L 303.16782 115.82787 
L 291.444367 126.742827 
L 283.033955 135.423667 
M 277.407732 140.8572 
L 275.837528 142.27566 
L 260.230688 157.847243 
L 257.659698 160.64569 
L 244.623849 172.919239 
L 234.52338 183.054599 
L 229.017009 188.099645 
L 213.410169 198.812754 
" clip-path="url(#p6c4b967ae1)" style="fill: none; stroke: #3d4240; stroke-opacity: 0.1; stroke-width: 0.8"/>
    <path d="M 353.871726 95.871499 
L 338.264886 104.412619 
L 325.144501 115.82787 
L 322.658047 117.730067 
L 307.051207 131.368265 
L 299.927707 138.23678 
L 291.444367 145.363234 
L 275.837528 159.997878 
L 275.196908 160.64569 
L 260.230688 173.671827 
L 250.665862 183.054599 
L 244.623849 188.468093 
L 229.017009 203.234916 
L 225.885264 205.463509 
L 213.410169 217.118827 
" clip-path="url(#p6c4b967ae1)" style="fill: none; stroke: #3d4240; stroke-opacity: 0.1; stroke-width: 0.8"/>
    <path d="M 353.871726 115.336468 
L 353.015162 115.82787 
L 338.264886 123.125706 
L 322.658047 135.487037 
L 319.605756 138.23678 
L 307.051207 148.048788 
L 294.454487 159.121327 
M 288.412199 164.060146 
L 275.837528 174.25113 
L 266.188129 183.054599 
L 260.230688 187.999207 
L 244.623849 202.400145 
L 241.424607 205.463509 
L 229.017009 221.435824 
L 222.333714 227.872418 
" clip-path="url(#p6c4b967ae1)" style="fill: none; stroke: #3d4240; stroke-opacity: 0.1; stroke-width: 0.8"/>
    <path d="M 353.871726 131.601463 
L 341.320598 138.23678 
L 338.264886 139.602147 
L 322.658047 150.460703 
L 310.260414 160.64569 
L 307.051207 162.887092 
L 291.444367 174.748694 
L 281.665941 183.054599 
L 275.837528 187.541712 
L 260.230688 200.846259 
L 255.308345 205.463509 
L 244.623849 218.94386 
L 237.749401 227.872418 
" clip-path="url(#p6c4b967ae1)" style="fill: none; stroke: #3d4240; stroke-opacity: 0.1; stroke-width: 0.8"/>
    <path d="M 353.871726 146.016275 
L 338.264886 153.279225 
L 328.191059 160.64569 
L 322.658047 164.063424 
L 307.051207 175.183537 
L 300.198332 180.627572 
M 293.977711 185.326439 
L 291.444367 187.144581 
L 275.837528 199.456602 
L 268.964228 205.463509 
L 260.230688 215.69151 
L 250.676382 227.872418 
" clip-path="url(#p6c4b967ae1)" style="fill: none; stroke: #3d4240; stroke-opacity: 0.1; stroke-width: 0.8"/>
    <path d="M 353.871726 159.202755 
L 350.879951 160.64569 
L 338.264886 165.689447 
L 322.658047 175.616708 
L 312.647369 183.054599 
L 307.051207 186.799218 
L 291.444367 198.253328 
L 282.59673 205.463509 
L 275.837528 212.818727 
L 263.186282 227.872418 
" clip-path="url(#p6c4b967ae1)" style="fill: none; stroke: #3d4240; stroke-opacity: 0.1; stroke-width: 0.8"/>
    <path d="M 353.871726 170.035171 
L 338.264886 176.62085 
L 328.542368 183.054599 
L 322.658047 186.541014 
L 310.278442 194.999138 
M 303.939542 199.578872 
L 296.228952 205.463509 
L 291.444367 210.324393 
L 275.837528 227.65232 
L 275.652555 227.872418 
" clip-path="url(#p6c4b967ae1)" style="fill: none; stroke: #3d4240; stroke-opacity: 0.1; stroke-width: 0.8"/>
    <path d="M 353.871726 180.578342 
L 348.200233 183.054599 
L 338.264886 186.868607 
L 322.658047 196.328544 
L 309.875254 205.463509 
L 307.051207 208.142051 
L 291.444367 224.175213 
L 288.117185 227.872418 
" clip-path="url(#p6c4b967ae1)" style="fill: none; stroke: #3d4240; stroke-opacity: 0.1; stroke-width: 0.8"/>
    <path d="M 353.871726 189.89955 
L 338.264886 196.138431 
L 328.134931 202.592232 
M 317.845832 210.858996 
L 307.051207 221.132337 
L 300.583012 227.872418 
" clip-path="url(#p6c4b967ae1)" style="fill: none; stroke: #3d4240; stroke-opacity: 0.1; stroke-width: 0.8"/>
    <path d="M 353.871726 198.845659 
L 338.264886 205.408254 
L 338.178158 205.463509 
L 322.658047 218.512861 
L 313.0768 227.872418 
" clip-path="url(#p6c4b967ae1)" style="fill: none; stroke: #3d4240; stroke-opacity: 0.1; stroke-width: 0.8"/>
    <path d="M 353.871726 208.378258 
L 343.718594 213.982133 
M 333.541596 221.10966 
L 325.783733 227.872418 
" clip-path="url(#p6c4b967ae1)" style="fill: none; stroke: #3d4240; stroke-opacity: 0.1; stroke-width: 0.8"/>
    <path d="M 353.871726 219.577897 
L 339.468311 227.872418 
" clip-path="url(#p6c4b967ae1)" style="fill: none; stroke: #3d4240; stroke-opacity: 0.1; stroke-width: 0.8"/>
    <path clip-path="url(#p6c4b967ae1)" style="fill: none; stroke: #3d4240; stroke-opacity: 0.1; stroke-width: 0.8"/>
    <path clip-path="url(#p6c4b967ae1)" style="fill: none; stroke: #3d4240; stroke-opacity: 0.1; stroke-width: 0.8"/>
    <path clip-path="url(#p6c4b967ae1)" style="fill: none; stroke: #3d4240; stroke-opacity: 0.1; stroke-width: 0.8"/>
    <path clip-path="url(#p6c4b967ae1)" style="fill: none; stroke: #3d4240; stroke-opacity: 0.1; stroke-width: 0.8"/>
    <path clip-path="url(#p6c4b967ae1)" style="fill: none; stroke: #3d4240; stroke-opacity: 0.1; stroke-width: 0.8"/>
    <path clip-path="url(#p6c4b967ae1)" style="fill: none; stroke: #3d4240; stroke-opacity: 0.1; stroke-width: 0.8"/>
    <path clip-path="url(#p6c4b967ae1)" style="fill: none; stroke: #3d4240; stroke-opacity: 0.1; stroke-width: 0.8"/>
   </g>
   <g id="text_25">
    <g clip-path="url(#p6c4b967ae1)">
     <!-- 4 -->
     <g transform="translate(241.84338 74.457989) scale(0.1 -0.1)">
      <use xlink:href="#ArialMT-34"/>
     </g>
    </g>
   </g>
   <g id="text_26">
    <g clip-path="url(#p6c4b967ae1)">
     <!-- 5 -->
     <g transform="translate(273.057059 98.921351) scale(0.1 -0.1)">
      <use xlink:href="#ArialMT-35"/>
     </g>
    </g>
   </g>
   <g id="text_27">
    <g clip-path="url(#p6c4b967ae1)">
     <!-- 6 -->
     <g transform="translate(277.528009 140.821936) scale(0.1 -0.1)">
      <use xlink:href="#ArialMT-36"/>
     </g>
    </g>
   </g>
   <g id="text_28">
    <g clip-path="url(#p6c4b967ae1)">
     <!-- 7 -->
     <g transform="translate(288.663899 164.18792) scale(0.1 -0.1)">
      <use xlink:href="#ArialMT-37"/>
     </g>
    </g>
   </g>
   <g id="text_29">
    <g clip-path="url(#p6c4b967ae1)">
     <!-- 8 -->
     <g transform="translate(294.362755 185.639755) scale(0.1 -0.1)">
      <use xlink:href="#ArialMT-38"/>
     </g>
    </g>
   </g>
   <g id="text_30">
    <g clip-path="url(#p6c4b967ae1)">
     <!-- 9 -->
     <g transform="translate(304.270738 199.789239) scale(0.1 -0.1)">
      <use xlink:href="#ArialMT-39"/>
     </g>
    </g>
   </g>
   <g id="text_31">
    <g clip-path="url(#p6c4b967ae1)">
     <!-- 10 -->
     <g transform="translate(317.097109 208.864325) scale(0.1 -0.1)">
      <defs>
       <path id="ArialMT-30" d="M 266 2259 
Q 266 3072 433 3567 
Q 600 4063 929 4331 
Q 1259 4600 1759 4600 
Q 2128 4600 2406 4451 
Q 2684 4303 2865 4023 
Q 3047 3744 3150 3342 
Q 3253 2941 3253 2259 
Q 3253 1453 3087 958 
Q 2922 463 2592 192 
Q 2263 -78 1759 -78 
Q 1097 -78 719 397 
Q 266 969 266 2259 
z
M 844 2259 
Q 844 1131 1108 757 
Q 1372 384 1759 384 
Q 2147 384 2411 759 
Q 2675 1134 2675 2259 
Q 2675 3391 2411 3762 
Q 2147 4134 1753 4134 
Q 1366 4134 1134 3806 
Q 844 3388 844 2259 
z
" transform="scale(0.015625)"/>
      </defs>
      <use xlink:href="#ArialMT-31"/>
      <use xlink:href="#ArialMT-30" transform="translate(55.615234 0)"/>
     </g>
    </g>
   </g>
   <g id="text_32">
    <g clip-path="url(#p6c4b967ae1)">
     <!-- 11 -->
     <g transform="translate(333.072699 219.577384) scale(0.1 -0.1)">
      <use xlink:href="#ArialMT-31"/>
      <use xlink:href="#ArialMT-31" transform="translate(48.240234 0)"/>
     </g>
    </g>
   </g>
   <g id="QuadContourSet_6">
    <path d="M 328.886825 26.192232 
L 322.658047 36.140033 
L 315.686954 48.601142 
L 307.051207 58.785536 
L 297.507555 71.010051 
L 291.444367 77.736785 
L 278.497028 93.418961 
L 278.478752 93.439008 
M 273.327099 99.354328 
L 260.230688 115.09933 
L 259.669796 115.82787 
L 244.623849 133.493988 
L 240.752484 138.23678 
L 229.017009 150.97921 
L 217.393054 160.64569 
L 213.410169 163.445291 
" clip-path="url(#p6c4b967ae1)" style="fill: none; stroke: #ff0000; stroke-width: 0.8"/>
   </g>
   <g id="text_33">
    <g clip-path="url(#p6c4b967ae1)">
     <!-- 5 -->
     <g style="fill: #ff0000" transform="translate(273.057059 98.921351) scale(0.1 -0.1)">
      <use xlink:href="#ArialMT-35"/>
     </g>
    </g>
   </g>
   <g id="matplotlib.axis_5">
    <g id="xtick_6">
     <g id="line2d_17">
      <g>
       <use xlink:href="#m35d7f3030b" x="213.410169" y="227.872418" style="stroke: #000000; stroke-width: 0.8"/>
      </g>
     </g>
     <g id="text_34">
      <!-- 2 -->
      <g transform="translate(210.629701 240.530231) scale(0.1 -0.1)">
       <use xlink:href="#ArialMT-32"/>
      </g>
     </g>
    </g>
    <g id="xtick_7">
     <g id="line2d_18">
      <g>
       <use xlink:href="#m35d7f3030b" x="248.525559" y="227.872418" style="stroke: #000000; stroke-width: 0.8"/>
      </g>
     </g>
     <g id="text_35">
      <!-- 3 -->
      <g transform="translate(245.74509 240.530231) scale(0.1 -0.1)">
       <use xlink:href="#ArialMT-33"/>
      </g>
     </g>
    </g>
    <g id="xtick_8">
     <g id="line2d_19">
      <g>
       <use xlink:href="#m35d7f3030b" x="283.640948" y="227.872418" style="stroke: #000000; stroke-width: 0.8"/>
      </g>
     </g>
     <g id="text_36">
      <!-- 4 -->
      <g transform="translate(280.860479 240.530231) scale(0.1 -0.1)">
       <use xlink:href="#ArialMT-34"/>
      </g>
     </g>
    </g>
    <g id="xtick_9">
     <g id="line2d_20">
      <g>
       <use xlink:href="#m35d7f3030b" x="318.756337" y="227.872418" style="stroke: #000000; stroke-width: 0.8"/>
      </g>
     </g>
     <g id="text_37">
      <!-- 5 -->
      <g transform="translate(315.975868 240.530231) scale(0.1 -0.1)">
       <use xlink:href="#ArialMT-35"/>
      </g>
     </g>
    </g>
    <g id="xtick_10">
     <g id="line2d_21">
      <g>
       <use xlink:href="#m35d7f3030b" x="353.871726" y="227.872418" style="stroke: #000000; stroke-width: 0.8"/>
      </g>
     </g>
     <g id="text_38">
      <!-- 6 -->
      <g transform="translate(351.091257 240.530231) scale(0.1 -0.1)">
       <use xlink:href="#ArialMT-36"/>
      </g>
     </g>
    </g>
   </g>
   <g id="matplotlib.axis_6">
    <g id="ytick_12">
     <g id="line2d_22">
      <g>
       <use xlink:href="#mfb54a81f91" x="213.410169" y="227.872418" style="stroke: #000000; stroke-width: 0.8"/>
      </g>
     </g>
    </g>
    <g id="ytick_13">
     <g id="line2d_23">
      <g>
       <use xlink:href="#mfb54a81f91" x="213.410169" y="187.536381" style="stroke: #000000; stroke-width: 0.8"/>
      </g>
     </g>
    </g>
    <g id="ytick_14">
     <g id="line2d_24">
      <g>
       <use xlink:href="#mfb54a81f91" x="213.410169" y="147.200344" style="stroke: #000000; stroke-width: 0.8"/>
      </g>
     </g>
    </g>
    <g id="ytick_15">
     <g id="line2d_25">
      <g>
       <use xlink:href="#mfb54a81f91" x="213.410169" y="106.864307" style="stroke: #000000; stroke-width: 0.8"/>
      </g>
     </g>
    </g>
    <g id="ytick_16">
     <g id="line2d_26">
      <g>
       <use xlink:href="#mfb54a81f91" x="213.410169" y="66.528269" style="stroke: #000000; stroke-width: 0.8"/>
      </g>
     </g>
    </g>
    <g id="ytick_17">
     <g id="line2d_27">
      <g>
       <use xlink:href="#mfb54a81f91" x="213.410169" y="26.192232" style="stroke: #000000; stroke-width: 0.8"/>
      </g>
     </g>
    </g>
   </g>
   <g id="patch_10">
    <path d="M 213.410169 227.872418 
L 213.410169 26.192232 
" style="fill: none; stroke: #000000; stroke-width: 0.8; stroke-linejoin: miter; stroke-linecap: square"/>
   </g>
   <g id="patch_11">
    <path d="M 353.871726 227.872418 
L 353.871726 26.192232 
" style="fill: none; stroke: #000000; stroke-width: 0.8; stroke-linejoin: miter; stroke-linecap: square"/>
   </g>
   <g id="patch_12">
    <path d="M 213.410169 227.872418 
L 353.871726 227.872418 
" style="fill: none; stroke: #000000; stroke-width: 0.8; stroke-linejoin: miter; stroke-linecap: square"/>
   </g>
   <g id="patch_13">
    <path d="M 213.410169 26.192232 
L 353.871726 26.192232 
" style="fill: none; stroke: #000000; stroke-width: 0.8; stroke-linejoin: miter; stroke-linecap: square"/>
   </g>
  </g>
  <g id="axes_5">
   <g id="matplotlib.axis_7">
    <g id="ytick_18">
     <g id="line2d_28">
      <defs>
       <path id="md1f1dadcf4" d="M 0 0 
L -4 0 
" style="stroke: #000000; stroke-width: 0.8"/>
      </defs>
      <g>
       <use xlink:href="#md1f1dadcf4" x="197.608244" y="227.872418" style="stroke: #000000; stroke-width: 0.8"/>
      </g>
     </g>
    </g>
    <g id="ytick_19">
     <g id="line2d_29">
      <g>
       <use xlink:href="#md1f1dadcf4" x="197.608244" y="187.536381" style="stroke: #000000; stroke-width: 0.8"/>
      </g>
     </g>
    </g>
    <g id="ytick_20">
     <g id="line2d_30">
      <g>
       <use xlink:href="#md1f1dadcf4" x="197.608244" y="147.200344" style="stroke: #000000; stroke-width: 0.8"/>
      </g>
     </g>
    </g>
    <g id="ytick_21">
     <g id="line2d_31">
      <g>
       <use xlink:href="#md1f1dadcf4" x="197.608244" y="106.864307" style="stroke: #000000; stroke-width: 0.8"/>
      </g>
     </g>
    </g>
    <g id="ytick_22">
     <g id="line2d_32">
      <g>
       <use xlink:href="#md1f1dadcf4" x="197.608244" y="66.528269" style="stroke: #000000; stroke-width: 0.8"/>
      </g>
     </g>
    </g>
    <g id="ytick_23">
     <g id="line2d_33">
      <g>
       <use xlink:href="#md1f1dadcf4" x="197.608244" y="26.192232" style="stroke: #000000; stroke-width: 0.8"/>
      </g>
     </g>
    </g>
   </g>
   <g id="patch_14">
    <path d="M 57.146688 227.872418 
L 57.146688 26.192232 
" style="fill: none; stroke: #000000; stroke-width: 0.8; stroke-linejoin: miter; stroke-linecap: square"/>
   </g>
   <g id="patch_15">
    <path d="M 197.608244 227.872418 
L 197.608244 26.192232 
" style="fill: none; stroke: #000000; stroke-width: 0.8; stroke-linejoin: miter; stroke-linecap: square"/>
   </g>
   <g id="patch_16">
    <path d="M 57.146688 227.872418 
L 197.608244 227.872418 
" style="fill: none; stroke: #000000; stroke-width: 0.8; stroke-linejoin: miter; stroke-linecap: square"/>
   </g>
   <g id="patch_17">
    <path d="M 57.146688 26.192232 
L 197.608244 26.192232 
" style="fill: none; stroke: #000000; stroke-width: 0.8; stroke-linejoin: miter; stroke-linecap: square"/>
   </g>
  </g>
  <g id="axes_6">
   <g id="matplotlib.axis_8">
    <g id="xtick_11">
     <g id="line2d_34">
      <defs>
       <path id="m00ebccab75" d="M 0 0 
L 0 4 
" style="stroke: #000000; stroke-width: 0.8"/>
      </defs>
      <g>
       <use xlink:href="#m00ebccab75" x="57.146688" y="26.192232" style="stroke: #000000; stroke-width: 0.8"/>
      </g>
     </g>
    </g>
    <g id="xtick_12">
     <g id="line2d_35">
      <g>
       <use xlink:href="#m00ebccab75" x="92.262077" y="26.192232" style="stroke: #000000; stroke-width: 0.8"/>
      </g>
     </g>
    </g>
    <g id="xtick_13">
     <g id="line2d_36">
      <g>
       <use xlink:href="#m00ebccab75" x="127.377466" y="26.192232" style="stroke: #000000; stroke-width: 0.8"/>
      </g>
     </g>
    </g>
    <g id="xtick_14">
     <g id="line2d_37">
      <g>
       <use xlink:href="#m00ebccab75" x="162.492855" y="26.192232" style="stroke: #000000; stroke-width: 0.8"/>
      </g>
     </g>
    </g>
    <g id="xtick_15">
     <g id="line2d_38">
      <g>
       <use xlink:href="#m00ebccab75" x="197.608244" y="26.192232" style="stroke: #000000; stroke-width: 0.8"/>
      </g>
     </g>
    </g>
   </g>
   <g id="patch_18">
    <path d="M 57.146688 227.872418 
L 57.146688 26.192232 
" style="fill: none; stroke: #000000; stroke-width: 0.8; stroke-linejoin: miter; stroke-linecap: square"/>
   </g>
   <g id="patch_19">
    <path d="M 197.608244 227.872418 
L 197.608244 26.192232 
" style="fill: none; stroke: #000000; stroke-width: 0.8; stroke-linejoin: miter; stroke-linecap: square"/>
   </g>
   <g id="patch_20">
    <path d="M 57.146688 227.872418 
L 197.608244 227.872418 
" style="fill: none; stroke: #000000; stroke-width: 0.8; stroke-linejoin: miter; stroke-linecap: square"/>
   </g>
   <g id="patch_21">
    <path d="M 57.146688 26.192232 
L 197.608244 26.192232 
" style="fill: none; stroke: #000000; stroke-width: 0.8; stroke-linejoin: miter; stroke-linecap: square"/>
   </g>
  </g>
  <g id="axes_7">
   <g id="matplotlib.axis_9">
    <g id="ytick_24">
     <g id="line2d_39">
      <g>
       <use xlink:href="#md1f1dadcf4" x="353.871726" y="227.872418" style="stroke: #000000; stroke-width: 0.8"/>
      </g>
     </g>
    </g>
    <g id="ytick_25">
     <g id="line2d_40">
      <g>
       <use xlink:href="#md1f1dadcf4" x="353.871726" y="187.536381" style="stroke: #000000; stroke-width: 0.8"/>
      </g>
     </g>
    </g>
    <g id="ytick_26">
     <g id="line2d_41">
      <g>
       <use xlink:href="#md1f1dadcf4" x="353.871726" y="147.200344" style="stroke: #000000; stroke-width: 0.8"/>
      </g>
     </g>
    </g>
    <g id="ytick_27">
     <g id="line2d_42">
      <g>
       <use xlink:href="#md1f1dadcf4" x="353.871726" y="106.864307" style="stroke: #000000; stroke-width: 0.8"/>
      </g>
     </g>
    </g>
    <g id="ytick_28">
     <g id="line2d_43">
      <g>
       <use xlink:href="#md1f1dadcf4" x="353.871726" y="66.528269" style="stroke: #000000; stroke-width: 0.8"/>
      </g>
     </g>
    </g>
    <g id="ytick_29">
     <g id="line2d_44">
      <g>
       <use xlink:href="#md1f1dadcf4" x="353.871726" y="26.192232" style="stroke: #000000; stroke-width: 0.8"/>
      </g>
     </g>
    </g>
   </g>
   <g id="patch_22">
    <path d="M 213.410169 227.872418 
L 213.410169 26.192232 
" style="fill: none; stroke: #000000; stroke-width: 0.8; stroke-linejoin: miter; stroke-linecap: square"/>
   </g>
   <g id="patch_23">
    <path d="M 353.871726 227.872418 
L 353.871726 26.192232 
" style="fill: none; stroke: #000000; stroke-width: 0.8; stroke-linejoin: miter; stroke-linecap: square"/>
   </g>
   <g id="patch_24">
    <path d="M 213.410169 227.872418 
L 353.871726 227.872418 
" style="fill: none; stroke: #000000; stroke-width: 0.8; stroke-linejoin: miter; stroke-linecap: square"/>
   </g>
   <g id="patch_25">
    <path d="M 213.410169 26.192232 
L 353.871726 26.192232 
" style="fill: none; stroke: #000000; stroke-width: 0.8; stroke-linejoin: miter; stroke-linecap: square"/>
   </g>
  </g>
  <g id="axes_8">
   <g id="matplotlib.axis_10">
    <g id="xtick_16">
     <g id="line2d_45">
      <g>
       <use xlink:href="#m00ebccab75" x="213.410169" y="26.192232" style="stroke: #000000; stroke-width: 0.8"/>
      </g>
     </g>
    </g>
    <g id="xtick_17">
     <g id="line2d_46">
      <g>
       <use xlink:href="#m00ebccab75" x="248.525559" y="26.192232" style="stroke: #000000; stroke-width: 0.8"/>
      </g>
     </g>
    </g>
    <g id="xtick_18">
     <g id="line2d_47">
      <g>
       <use xlink:href="#m00ebccab75" x="283.640948" y="26.192232" style="stroke: #000000; stroke-width: 0.8"/>
      </g>
     </g>
    </g>
    <g id="xtick_19">
     <g id="line2d_48">
      <g>
       <use xlink:href="#m00ebccab75" x="318.756337" y="26.192232" style="stroke: #000000; stroke-width: 0.8"/>
      </g>
     </g>
    </g>
    <g id="xtick_20">
     <g id="line2d_49">
      <g>
       <use xlink:href="#m00ebccab75" x="353.871726" y="26.192232" style="stroke: #000000; stroke-width: 0.8"/>
      </g>
     </g>
    </g>
   </g>
   <g id="patch_26">
    <path d="M 213.410169 227.872418 
L 213.410169 26.192232 
" style="fill: none; stroke: #000000; stroke-width: 0.8; stroke-linejoin: miter; stroke-linecap: square"/>
   </g>
   <g id="patch_27">
    <path d="M 353.871726 227.872418 
L 353.871726 26.192232 
" style="fill: none; stroke: #000000; stroke-width: 0.8; stroke-linejoin: miter; stroke-linecap: square"/>
   </g>
   <g id="patch_28">
    <path d="M 213.410169 227.872418 
L 353.871726 227.872418 
" style="fill: none; stroke: #000000; stroke-width: 0.8; stroke-linejoin: miter; stroke-linecap: square"/>
   </g>
   <g id="patch_29">
    <path d="M 213.410169 26.192232 
L 353.871726 26.192232 
" style="fill: none; stroke: #000000; stroke-width: 0.8; stroke-linejoin: miter; stroke-linecap: square"/>
   </g>
  </g>
  <g id="text_39">
   <!-- H$_2$ price [USD$\cdot$kg$^{-1}$] -->
   <g transform="translate(192.9112 257.103097) scale(0.1 -0.1)">
    <defs>
     <path id="ArialMT-48" d="M 513 0 
L 513 4581 
L 1119 4581 
L 1119 2700 
L 3500 2700 
L 3500 4581 
L 4106 4581 
L 4106 0 
L 3500 0 
L 3500 2159 
L 1119 2159 
L 1119 0 
L 513 0 
z
" transform="scale(0.015625)"/>
     <path id="DejaVuSans-32" d="M 1228 531 
L 3431 531 
L 3431 0 
L 469 0 
L 469 531 
Q 828 903 1448 1529 
Q 2069 2156 2228 2338 
Q 2531 2678 2651 2914 
Q 2772 3150 2772 3378 
Q 2772 3750 2511 3984 
Q 2250 4219 1831 4219 
Q 1534 4219 1204 4116 
Q 875 4013 500 3803 
L 500 4441 
Q 881 4594 1212 4672 
Q 1544 4750 1819 4750 
Q 2544 4750 2975 4387 
Q 3406 4025 3406 3419 
Q 3406 3131 3298 2873 
Q 3191 2616 2906 2266 
Q 2828 2175 2409 1742 
Q 1991 1309 1228 531 
z
" transform="scale(0.015625)"/>
     <path id="ArialMT-5b" d="M 434 -1272 
L 434 4581 
L 1675 4581 
L 1675 4116 
L 997 4116 
L 997 -806 
L 1675 -806 
L 1675 -1272 
L 434 -1272 
z
" transform="scale(0.015625)"/>
     <path id="ArialMT-55" d="M 3500 4581 
L 4106 4581 
L 4106 1934 
Q 4106 1244 3950 837 
Q 3794 431 3386 176 
Q 2978 -78 2316 -78 
Q 1672 -78 1262 144 
Q 853 366 678 786 
Q 503 1206 503 1934 
L 503 4581 
L 1109 4581 
L 1109 1938 
Q 1109 1341 1220 1058 
Q 1331 775 1601 622 
Q 1872 469 2263 469 
Q 2931 469 3215 772 
Q 3500 1075 3500 1938 
L 3500 4581 
z
" transform="scale(0.015625)"/>
     <path id="ArialMT-53" d="M 288 1472 
L 859 1522 
Q 900 1178 1048 958 
Q 1197 738 1509 602 
Q 1822 466 2213 466 
Q 2559 466 2825 569 
Q 3091 672 3220 851 
Q 3350 1031 3350 1244 
Q 3350 1459 3225 1620 
Q 3100 1781 2813 1891 
Q 2628 1963 1997 2114 
Q 1366 2266 1113 2400 
Q 784 2572 623 2826 
Q 463 3081 463 3397 
Q 463 3744 659 4045 
Q 856 4347 1234 4503 
Q 1613 4659 2075 4659 
Q 2584 4659 2973 4495 
Q 3363 4331 3572 4012 
Q 3781 3694 3797 3291 
L 3216 3247 
Q 3169 3681 2898 3903 
Q 2628 4125 2100 4125 
Q 1550 4125 1298 3923 
Q 1047 3722 1047 3438 
Q 1047 3191 1225 3031 
Q 1400 2872 2139 2705 
Q 2878 2538 3153 2413 
Q 3553 2228 3743 1945 
Q 3934 1663 3934 1294 
Q 3934 928 3725 604 
Q 3516 281 3123 101 
Q 2731 -78 2241 -78 
Q 1619 -78 1198 103 
Q 778 284 539 648 
Q 300 1013 288 1472 
z
" transform="scale(0.015625)"/>
     <path id="ArialMT-44" d="M 494 0 
L 494 4581 
L 2072 4581 
Q 2606 4581 2888 4516 
Q 3281 4425 3559 4188 
Q 3922 3881 4101 3404 
Q 4281 2928 4281 2316 
Q 4281 1794 4159 1391 
Q 4038 988 3847 723 
Q 3656 459 3429 307 
Q 3203 156 2883 78 
Q 2563 0 2147 0 
L 494 0 
z
M 1100 541 
L 2078 541 
Q 2531 541 2789 625 
Q 3047 709 3200 863 
Q 3416 1078 3536 1442 
Q 3656 1806 3656 2325 
Q 3656 3044 3420 3430 
Q 3184 3816 2847 3947 
Q 2603 4041 2063 4041 
L 1100 4041 
L 1100 541 
z
" transform="scale(0.015625)"/>
     <path id="ArialMT-6b" d="M 425 0 
L 425 4581 
L 988 4581 
L 988 1969 
L 2319 3319 
L 3047 3319 
L 1778 2088 
L 3175 0 
L 2481 0 
L 1384 1697 
L 988 1316 
L 988 0 
L 425 0 
z
" transform="scale(0.015625)"/>
     <path id="ArialMT-5d" d="M 1363 -1272 
L 122 -1272 
L 122 -806 
L 800 -806 
L 800 4116 
L 122 4116 
L 122 4581 
L 1363 4581 
L 1363 -1272 
z
" transform="scale(0.015625)"/>
    </defs>
    <use xlink:href="#ArialMT-48" transform="translate(0 0.684375)"/>
    <use xlink:href="#DejaVuSans-32" transform="translate(73.173828 -15.721875) scale(0.7)"/>
    <use xlink:href="#ArialMT-20" transform="translate(120.444336 0.684375)"/>
    <use xlink:href="#ArialMT-70" transform="translate(148.227539 0.684375)"/>
    <use xlink:href="#ArialMT-72" transform="translate(203.842773 0.684375)"/>
    <use xlink:href="#ArialMT-69" transform="translate(237.143555 0.684375)"/>
    <use xlink:href="#ArialMT-63" transform="translate(259.360352 0.684375)"/>
    <use xlink:href="#ArialMT-65" transform="translate(309.360352 0.684375)"/>
    <use xlink:href="#ArialMT-20" transform="translate(364.975586 0.684375)"/>
    <use xlink:href="#ArialMT-5b" transform="translate(392.758789 0.684375)"/>
    <use xlink:href="#ArialMT-55" transform="translate(420.541992 0.684375)"/>
    <use xlink:href="#ArialMT-53" transform="translate(492.758789 0.684375)"/>
    <use xlink:href="#ArialMT-44" transform="translate(559.458008 0.684375)"/>
    <use xlink:href="#DejaVuSans-22c5" transform="translate(631.674805 0.684375)"/>
    <use xlink:href="#ArialMT-6b" transform="translate(663.461914 0.684375)"/>
    <use xlink:href="#ArialMT-67" transform="translate(713.461914 0.684375)"/>
    <use xlink:href="#DejaVuSans-2212" transform="translate(770.03418 38.965625) scale(0.7)"/>
    <use xlink:href="#DejaVuSans-31" transform="translate(828.686523 38.965625) scale(0.7)"/>
    <use xlink:href="#ArialMT-5d" transform="translate(875.957031 0.684375)"/>
   </g>
  </g>
  <g id="text_40">
   <!-- Bioreactor yield [$\mathrm{\%\ theoretical}$] -->
   <g transform="translate(17.124448 202.96116) rotate(-90) scale(0.1 -0.1)">
    <defs>
     <path id="ArialMT-42" d="M 469 0 
L 469 4581 
L 2188 4581 
Q 2713 4581 3030 4442 
Q 3347 4303 3526 4014 
Q 3706 3725 3706 3409 
Q 3706 3116 3547 2856 
Q 3388 2597 3066 2438 
Q 3481 2316 3704 2022 
Q 3928 1728 3928 1328 
Q 3928 1006 3792 729 
Q 3656 453 3456 303 
Q 3256 153 2954 76 
Q 2653 0 2216 0 
L 469 0 
z
M 1075 2656 
L 2066 2656 
Q 2469 2656 2644 2709 
Q 2875 2778 2992 2937 
Q 3109 3097 3109 3338 
Q 3109 3566 3000 3739 
Q 2891 3913 2687 3977 
Q 2484 4041 1991 4041 
L 1075 4041 
L 1075 2656 
z
M 1075 541 
L 2216 541 
Q 2509 541 2628 563 
Q 2838 600 2978 687 
Q 3119 775 3209 942 
Q 3300 1109 3300 1328 
Q 3300 1584 3169 1773 
Q 3038 1963 2805 2039 
Q 2572 2116 2134 2116 
L 1075 2116 
L 1075 541 
z
" transform="scale(0.015625)"/>
     <path id="ArialMT-6f" d="M 213 1659 
Q 213 2581 725 3025 
Q 1153 3394 1769 3394 
Q 2453 3394 2887 2945 
Q 3322 2497 3322 1706 
Q 3322 1066 3130 698 
Q 2938 331 2570 128 
Q 2203 -75 1769 -75 
Q 1072 -75 642 372 
Q 213 819 213 1659 
z
M 791 1659 
Q 791 1022 1069 705 
Q 1347 388 1769 388 
Q 2188 388 2466 706 
Q 2744 1025 2744 1678 
Q 2744 2294 2464 2611 
Q 2184 2928 1769 2928 
Q 1347 2928 1069 2612 
Q 791 2297 791 1659 
z
" transform="scale(0.015625)"/>
     <path id="ArialMT-61" d="M 2588 409 
Q 2275 144 1986 34 
Q 1697 -75 1366 -75 
Q 819 -75 525 192 
Q 231 459 231 875 
Q 231 1119 342 1320 
Q 453 1522 633 1644 
Q 813 1766 1038 1828 
Q 1203 1872 1538 1913 
Q 2219 1994 2541 2106 
Q 2544 2222 2544 2253 
Q 2544 2597 2384 2738 
Q 2169 2928 1744 2928 
Q 1347 2928 1158 2789 
Q 969 2650 878 2297 
L 328 2372 
Q 403 2725 575 2942 
Q 747 3159 1072 3276 
Q 1397 3394 1825 3394 
Q 2250 3394 2515 3294 
Q 2781 3194 2906 3042 
Q 3031 2891 3081 2659 
Q 3109 2516 3109 2141 
L 3109 1391 
Q 3109 606 3145 398 
Q 3181 191 3288 0 
L 2700 0 
Q 2613 175 2588 409 
z
M 2541 1666 
Q 2234 1541 1622 1453 
Q 1275 1403 1131 1340 
Q 988 1278 909 1158 
Q 831 1038 831 891 
Q 831 666 1001 516 
Q 1172 366 1500 366 
Q 1825 366 2078 508 
Q 2331 650 2450 897 
Q 2541 1088 2541 1459 
L 2541 1666 
z
" transform="scale(0.015625)"/>
     <path id="ArialMT-74" d="M 1650 503 
L 1731 6 
Q 1494 -44 1306 -44 
Q 1000 -44 831 53 
Q 663 150 594 308 
Q 525 466 525 972 
L 525 2881 
L 113 2881 
L 113 3319 
L 525 3319 
L 525 4141 
L 1084 4478 
L 1084 3319 
L 1650 3319 
L 1650 2881 
L 1084 2881 
L 1084 941 
Q 1084 700 1114 631 
Q 1144 563 1211 522 
Q 1278 481 1403 481 
Q 1497 481 1650 503 
z
" transform="scale(0.015625)"/>
     <path id="ArialMT-79" d="M 397 -1278 
L 334 -750 
Q 519 -800 656 -800 
Q 844 -800 956 -737 
Q 1069 -675 1141 -563 
Q 1194 -478 1313 -144 
Q 1328 -97 1363 -6 
L 103 3319 
L 709 3319 
L 1400 1397 
Q 1534 1031 1641 628 
Q 1738 1016 1872 1384 
L 2581 3319 
L 3144 3319 
L 1881 -56 
Q 1678 -603 1566 -809 
Q 1416 -1088 1222 -1217 
Q 1028 -1347 759 -1347 
Q 597 -1347 397 -1278 
z
" transform="scale(0.015625)"/>
     <path id="ArialMT-64" d="M 2575 0 
L 2575 419 
Q 2259 -75 1647 -75 
Q 1250 -75 917 144 
Q 584 363 401 755 
Q 219 1147 219 1656 
Q 219 2153 384 2558 
Q 550 2963 881 3178 
Q 1213 3394 1622 3394 
Q 1922 3394 2156 3267 
Q 2391 3141 2538 2938 
L 2538 4581 
L 3097 4581 
L 3097 0 
L 2575 0 
z
M 797 1656 
Q 797 1019 1065 703 
Q 1334 388 1700 388 
Q 2069 388 2326 689 
Q 2584 991 2584 1609 
Q 2584 2291 2321 2609 
Q 2059 2928 1675 2928 
Q 1300 2928 1048 2622 
Q 797 2316 797 1656 
z
" transform="scale(0.015625)"/>
     <path id="DejaVuSans-25" d="M 4653 2053 
Q 4381 2053 4226 1822 
Q 4072 1591 4072 1178 
Q 4072 772 4226 539 
Q 4381 306 4653 306 
Q 4919 306 5073 539 
Q 5228 772 5228 1178 
Q 5228 1588 5073 1820 
Q 4919 2053 4653 2053 
z
M 4653 2450 
Q 5147 2450 5437 2106 
Q 5728 1763 5728 1178 
Q 5728 594 5436 251 
Q 5144 -91 4653 -91 
Q 4153 -91 3862 251 
Q 3572 594 3572 1178 
Q 3572 1766 3864 2108 
Q 4156 2450 4653 2450 
z
M 1428 4353 
Q 1159 4353 1004 4120 
Q 850 3888 850 3481 
Q 850 3069 1003 2837 
Q 1156 2606 1428 2606 
Q 1700 2606 1854 2837 
Q 2009 3069 2009 3481 
Q 2009 3884 1853 4118 
Q 1697 4353 1428 4353 
z
M 4250 4750 
L 4750 4750 
L 1831 -91 
L 1331 -91 
L 4250 4750 
z
M 1428 4750 
Q 1922 4750 2215 4408 
Q 2509 4066 2509 3481 
Q 2509 2891 2217 2550 
Q 1925 2209 1428 2209 
Q 931 2209 642 2551 
Q 353 2894 353 3481 
Q 353 4063 643 4406 
Q 934 4750 1428 4750 
z
" transform="scale(0.015625)"/>
     <path id="DejaVuSans-74" d="M 1172 4494 
L 1172 3500 
L 2356 3500 
L 2356 3053 
L 1172 3053 
L 1172 1153 
Q 1172 725 1289 603 
Q 1406 481 1766 481 
L 2356 481 
L 2356 0 
L 1766 0 
Q 1100 0 847 248 
Q 594 497 594 1153 
L 594 3053 
L 172 3053 
L 172 3500 
L 594 3500 
L 594 4494 
L 1172 4494 
z
" transform="scale(0.015625)"/>
     <path id="DejaVuSans-68" d="M 3513 2113 
L 3513 0 
L 2938 0 
L 2938 2094 
Q 2938 2591 2744 2837 
Q 2550 3084 2163 3084 
Q 1697 3084 1428 2787 
Q 1159 2491 1159 1978 
L 1159 0 
L 581 0 
L 581 4863 
L 1159 4863 
L 1159 2956 
Q 1366 3272 1645 3428 
Q 1925 3584 2291 3584 
Q 2894 3584 3203 3211 
Q 3513 2838 3513 2113 
z
" transform="scale(0.015625)"/>
     <path id="DejaVuSans-65" d="M 3597 1894 
L 3597 1613 
L 953 1613 
Q 991 1019 1311 708 
Q 1631 397 2203 397 
Q 2534 397 2845 478 
Q 3156 559 3463 722 
L 3463 178 
Q 3153 47 2828 -22 
Q 2503 -91 2169 -91 
Q 1331 -91 842 396 
Q 353 884 353 1716 
Q 353 2575 817 3079 
Q 1281 3584 2069 3584 
Q 2775 3584 3186 3129 
Q 3597 2675 3597 1894 
z
M 3022 2063 
Q 3016 2534 2758 2815 
Q 2500 3097 2075 3097 
Q 1594 3097 1305 2825 
Q 1016 2553 972 2059 
L 3022 2063 
z
" transform="scale(0.015625)"/>
     <path id="DejaVuSans-6f" d="M 1959 3097 
Q 1497 3097 1228 2736 
Q 959 2375 959 1747 
Q 959 1119 1226 758 
Q 1494 397 1959 397 
Q 2419 397 2687 759 
Q 2956 1122 2956 1747 
Q 2956 2369 2687 2733 
Q 2419 3097 1959 3097 
z
M 1959 3584 
Q 2709 3584 3137 3096 
Q 3566 2609 3566 1747 
Q 3566 888 3137 398 
Q 2709 -91 1959 -91 
Q 1206 -91 779 398 
Q 353 888 353 1747 
Q 353 2609 779 3096 
Q 1206 3584 1959 3584 
z
" transform="scale(0.015625)"/>
     <path id="DejaVuSans-72" d="M 2631 2963 
Q 2534 3019 2420 3045 
Q 2306 3072 2169 3072 
Q 1681 3072 1420 2755 
Q 1159 2438 1159 1844 
L 1159 0 
L 581 0 
L 581 3500 
L 1159 3500 
L 1159 2956 
Q 1341 3275 1631 3429 
Q 1922 3584 2338 3584 
Q 2397 3584 2469 3576 
Q 2541 3569 2628 3553 
L 2631 2963 
z
" transform="scale(0.015625)"/>
     <path id="DejaVuSans-69" d="M 603 3500 
L 1178 3500 
L 1178 0 
L 603 0 
L 603 3500 
z
M 603 4863 
L 1178 4863 
L 1178 4134 
L 603 4134 
L 603 4863 
z
" transform="scale(0.015625)"/>
     <path id="DejaVuSans-63" d="M 3122 3366 
L 3122 2828 
Q 2878 2963 2633 3030 
Q 2388 3097 2138 3097 
Q 1578 3097 1268 2742 
Q 959 2388 959 1747 
Q 959 1106 1268 751 
Q 1578 397 2138 397 
Q 2388 397 2633 464 
Q 2878 531 3122 666 
L 3122 134 
Q 2881 22 2623 -34 
Q 2366 -91 2075 -91 
Q 1284 -91 818 406 
Q 353 903 353 1747 
Q 353 2603 823 3093 
Q 1294 3584 2113 3584 
Q 2378 3584 2631 3529 
Q 2884 3475 3122 3366 
z
" transform="scale(0.015625)"/>
     <path id="DejaVuSans-61" d="M 2194 1759 
Q 1497 1759 1228 1600 
Q 959 1441 959 1056 
Q 959 750 1161 570 
Q 1363 391 1709 391 
Q 2188 391 2477 730 
Q 2766 1069 2766 1631 
L 2766 1759 
L 2194 1759 
z
M 3341 1997 
L 3341 0 
L 2766 0 
L 2766 531 
Q 2569 213 2275 61 
Q 1981 -91 1556 -91 
Q 1019 -91 701 211 
Q 384 513 384 1019 
Q 384 1609 779 1909 
Q 1175 2209 1959 2209 
L 2766 2209 
L 2766 2266 
Q 2766 2663 2505 2880 
Q 2244 3097 1772 3097 
Q 1472 3097 1187 3025 
Q 903 2953 641 2809 
L 641 3341 
Q 956 3463 1253 3523 
Q 1550 3584 1831 3584 
Q 2591 3584 2966 3190 
Q 3341 2797 3341 1997 
z
" transform="scale(0.015625)"/>
     <path id="DejaVuSans-6c" d="M 603 4863 
L 1178 4863 
L 1178 0 
L 603 0 
L 603 4863 
z
" transform="scale(0.015625)"/>
    </defs>
    <use xlink:href="#ArialMT-42" transform="translate(0 0.015625)"/>
    <use xlink:href="#ArialMT-69" transform="translate(66.699219 0.015625)"/>
    <use xlink:href="#ArialMT-6f" transform="translate(88.916016 0.015625)"/>
    <use xlink:href="#ArialMT-72" transform="translate(144.53125 0.015625)"/>
    <use xlink:href="#ArialMT-65" transform="translate(177.832031 0.015625)"/>
    <use xlink:href="#ArialMT-61" transform="translate(233.447266 0.015625)"/>
    <use xlink:href="#ArialMT-63" transform="translate(289.0625 0.015625)"/>
    <use xlink:href="#ArialMT-74" transform="translate(339.0625 0.015625)"/>
    <use xlink:href="#ArialMT-6f" transform="translate(366.845703 0.015625)"/>
    <use xlink:href="#ArialMT-72" transform="translate(422.460938 0.015625)"/>
    <use xlink:href="#ArialMT-20" transform="translate(455.761719 0.015625)"/>
    <use xlink:href="#ArialMT-79" transform="translate(483.544922 0.015625)"/>
    <use xlink:href="#ArialMT-69" transform="translate(533.544922 0.015625)"/>
    <use xlink:href="#ArialMT-65" transform="translate(555.761719 0.015625)"/>
    <use xlink:href="#ArialMT-6c" transform="translate(611.376953 0.015625)"/>
    <use xlink:href="#ArialMT-64" transform="translate(633.59375 0.015625)"/>
    <use xlink:href="#ArialMT-20" transform="translate(689.208984 0.015625)"/>
    <use xlink:href="#ArialMT-5b" transform="translate(716.992188 0.015625)"/>
    <use xlink:href="#DejaVuSans-25" transform="translate(744.775391 0.015625)"/>
    <use xlink:href="#DejaVuSans-74" transform="translate(872.2653 0.015625)"/>
    <use xlink:href="#DejaVuSans-68" transform="translate(911.474285 0.015625)"/>
    <use xlink:href="#DejaVuSans-65" transform="translate(974.853191 0.015625)"/>
    <use xlink:href="#DejaVuSans-6f" transform="translate(1036.376628 0.015625)"/>
    <use xlink:href="#DejaVuSans-72" transform="translate(1097.558269 0.015625)"/>
    <use xlink:href="#DejaVuSans-65" transform="translate(1138.67155 0.015625)"/>
    <use xlink:href="#DejaVuSans-74" transform="translate(1200.194988 0.015625)"/>
    <use xlink:href="#DejaVuSans-69" transform="translate(1239.403972 0.015625)"/>
    <use xlink:href="#DejaVuSans-63" transform="translate(1267.187175 0.015625)"/>
    <use xlink:href="#DejaVuSans-61" transform="translate(1322.167644 0.015625)"/>
    <use xlink:href="#DejaVuSans-6c" transform="translate(1383.446941 0.015625)"/>
    <use xlink:href="#ArialMT-5d" transform="translate(1411.230144 0.015625)"/>
   </g>
  </g>
 </g>
 <defs>
  <clipPath id="pbaac775836">
   <rect x="362.650573" y="26.192232" width="10.084009" height="201.680186"/>
  </clipPath>
  <clipPath id="p67c5c5b410">
   <rect x="57.146688" y="26.192232" width="140.461556" height="201.680186"/>
  </clipPath>
  <clipPath id="p6c4b967ae1">
   <rect x="213.410169" y="26.192232" width="140.461556" height="201.680186"/>
  </clipPath>
 </defs>
</svg>
