<?xml version="1.0" encoding="utf-8" standalone="no"?>
<!DOCTYPE svg PUBLIC "-//W3C//DTD SVG 1.1//EN"
  "http://www.w3.org/Graphics/SVG/1.1/DTD/svg11.dtd">
<svg xmlns:xlink="http://www.w3.org/1999/xlink" width="476.2224pt" height="142.86672pt" viewBox="0 0 476.2224 142.86672" xmlns="http://www.w3.org/2000/svg" version="1.1">
 <metadata>
  <rdf:RDF xmlns:dc="http://purl.org/dc/elements/1.1/" xmlns:cc="http://creativecommons.org/ns#" xmlns:rdf="http://www.w3.org/1999/02/22-rdf-syntax-ns#">
   <cc:Work>
    <dc:type rdf:resource="http://purl.org/dc/dcmitype/StillImage"/>
    <dc:date>2024-11-12T11:37:54.545336</dc:date>
    <dc:format>image/svg+xml</dc:format>
    <dc:creator>
     <cc:Agent>
      <dc:title>Matplotlib v3.8.4, https://matplotlib.org/</dc:title>
     </cc:Agent>
    </dc:creator>
   </cc:Work>
  </rdf:RDF>
 </metadata>
 <defs>
  <style type="text/css">*{stroke-linejoin: round; stroke-linecap: butt}</style>
 </defs>
 <g id="figure_1">
  <g id="patch_1">
   <path d="M 0 142.86672 
L 476.2224 142.86672 
L 476.2224 0 
L 0 0 
L 0 142.86672 
z
" style="fill: none"/>
  </g>
  <g id="axes_1"/>
  <g id="axes_2">
   <g id="patch_2">
    <path d="M 416.256603 127.151381 
L 421.756972 127.151381 
L 421.756972 17.144006 
L 416.256603 17.144006 
L 416.256603 127.151381 
z
" style="fill: none"/>
   </g>
   <g id="QuadMesh_1">
    <path d="M 416.256603 127.151381 
L 421.756972 127.151381 
L 421.756972 117.15071 
L 416.256603 117.15071 
L 416.256603 127.151381 
" clip-path="url(#p76fd245b36)" style="fill: #e2e418"/>
    <path d="M 416.256603 117.15071 
L 421.756972 117.15071 
L 421.756972 107.15004 
L 416.256603 107.15004 
L 416.256603 117.15071 
" clip-path="url(#p76fd245b36)" style="fill: #a5db36"/>
    <path d="M 416.256603 107.15004 
L 421.756972 107.15004 
L 421.756972 97.14937 
L 416.256603 97.14937 
L 416.256603 107.15004 
" clip-path="url(#p76fd245b36)" style="fill: #69cd5b"/>
    <path d="M 416.256603 97.14937 
L 421.756972 97.14937 
L 421.756972 87.148699 
L 416.256603 87.148699 
L 416.256603 97.14937 
" clip-path="url(#p76fd245b36)" style="fill: #3bbb75"/>
    <path d="M 416.256603 87.148699 
L 421.756972 87.148699 
L 421.756972 77.148029 
L 416.256603 77.148029 
L 416.256603 87.148699 
" clip-path="url(#p76fd245b36)" style="fill: #21a685"/>
    <path d="M 416.256603 77.148029 
L 421.756972 77.148029 
L 421.756972 67.147358 
L 416.256603 67.147358 
L 416.256603 77.148029 
" clip-path="url(#p76fd245b36)" style="fill: #21918c"/>
    <path d="M 416.256603 67.147358 
L 421.756972 67.147358 
L 421.756972 57.146688 
L 416.256603 57.146688 
L 416.256603 67.147358 
" clip-path="url(#p76fd245b36)" style="fill: #297a8e"/>
    <path d="M 416.256603 57.146688 
L 421.756972 57.146688 
L 421.756972 47.146018 
L 416.256603 47.146018 
L 416.256603 57.146688 
" clip-path="url(#p76fd245b36)" style="fill: #32648e"/>
    <path d="M 416.256603 47.146018 
L 421.756972 47.146018 
L 421.756972 37.145347 
L 416.256603 37.145347 
L 416.256603 47.146018 
" clip-path="url(#p76fd245b36)" style="fill: #3e4c8a"/>
    <path d="M 416.256603 37.145347 
L 421.756972 37.145347 
L 421.756972 27.144677 
L 416.256603 27.144677 
L 416.256603 37.145347 
" clip-path="url(#p76fd245b36)" style="fill: #472f7d"/>
    <path d="M 416.256603 27.144677 
L 421.756972 27.144677 
L 421.756972 17.144006 
L 416.256603 17.144006 
L 416.256603 27.144677 
" clip-path="url(#p76fd245b36)" style="fill: #471164"/>
   </g>
   <g id="matplotlib.axis_1"/>
   <g id="matplotlib.axis_2">
    <g id="ytick_1">
     <g id="line2d_1">
      <defs>
       <path id="m98716660ec" d="M 0 0 
L 3.5 0 
" style="stroke: #000000; stroke-width: 0.8"/>
      </defs>
      <g>
       <use xlink:href="#m98716660ec" x="421.756972" y="127.151381" style="stroke: #000000; stroke-width: 0.8"/>
      </g>
     </g>
     <g id="text_1">
      <!-- 3.0 -->
      <g transform="translate(428.756972 131.088178) scale(0.11 -0.11)">
       <defs>
        <path id="ArialMT-33" d="M 269 1209 
L 831 1284 
Q 928 806 1161 595 
Q 1394 384 1728 384 
Q 2125 384 2398 659 
Q 2672 934 2672 1341 
Q 2672 1728 2419 1979 
Q 2166 2231 1775 2231 
Q 1616 2231 1378 2169 
L 1441 2663 
Q 1497 2656 1531 2656 
Q 1891 2656 2178 2843 
Q 2466 3031 2466 3422 
Q 2466 3731 2256 3934 
Q 2047 4138 1716 4138 
Q 1388 4138 1169 3931 
Q 950 3725 888 3313 
L 325 3413 
Q 428 3978 793 4289 
Q 1159 4600 1703 4600 
Q 2078 4600 2393 4439 
Q 2709 4278 2876 4000 
Q 3044 3722 3044 3409 
Q 3044 3113 2884 2869 
Q 2725 2625 2413 2481 
Q 2819 2388 3044 2092 
Q 3269 1797 3269 1353 
Q 3269 753 2831 336 
Q 2394 -81 1725 -81 
Q 1122 -81 723 278 
Q 325 638 269 1209 
z
" transform="scale(0.015625)"/>
        <path id="ArialMT-2e" d="M 581 0 
L 581 641 
L 1222 641 
L 1222 0 
L 581 0 
z
" transform="scale(0.015625)"/>
        <path id="ArialMT-30" d="M 266 2259 
Q 266 3072 433 3567 
Q 600 4063 929 4331 
Q 1259 4600 1759 4600 
Q 2128 4600 2406 4451 
Q 2684 4303 2865 4023 
Q 3047 3744 3150 3342 
Q 3253 2941 3253 2259 
Q 3253 1453 3087 958 
Q 2922 463 2592 192 
Q 2263 -78 1759 -78 
Q 1097 -78 719 397 
Q 266 969 266 2259 
z
M 844 2259 
Q 844 1131 1108 757 
Q 1372 384 1759 384 
Q 2147 384 2411 759 
Q 2675 1134 2675 2259 
Q 2675 3391 2411 3762 
Q 2147 4134 1753 4134 
Q 1366 4134 1134 3806 
Q 844 3388 844 2259 
z
" transform="scale(0.015625)"/>
       </defs>
       <use xlink:href="#ArialMT-33"/>
       <use xlink:href="#ArialMT-2e" x="55.615234"/>
       <use xlink:href="#ArialMT-30" x="83.398438"/>
      </g>
     </g>
    </g>
    <g id="ytick_2">
     <g id="line2d_2">
      <g>
       <use xlink:href="#m98716660ec" x="421.756972" y="99.649537" style="stroke: #000000; stroke-width: 0.8"/>
      </g>
     </g>
     <g id="text_2">
      <!-- 5.5 -->
      <g transform="translate(428.756972 103.586334) scale(0.11 -0.11)">
       <defs>
        <path id="ArialMT-35" d="M 266 1200 
L 856 1250 
Q 922 819 1161 601 
Q 1400 384 1738 384 
Q 2144 384 2425 690 
Q 2706 997 2706 1503 
Q 2706 1984 2436 2262 
Q 2166 2541 1728 2541 
Q 1456 2541 1237 2417 
Q 1019 2294 894 2097 
L 366 2166 
L 809 4519 
L 3088 4519 
L 3088 3981 
L 1259 3981 
L 1013 2750 
Q 1425 3038 1878 3038 
Q 2478 3038 2890 2622 
Q 3303 2206 3303 1553 
Q 3303 931 2941 478 
Q 2500 -78 1738 -78 
Q 1113 -78 717 272 
Q 322 622 266 1200 
z
" transform="scale(0.015625)"/>
       </defs>
       <use xlink:href="#ArialMT-35"/>
       <use xlink:href="#ArialMT-2e" x="55.615234"/>
       <use xlink:href="#ArialMT-35" x="83.398438"/>
      </g>
     </g>
    </g>
    <g id="ytick_3">
     <g id="line2d_3">
      <g>
       <use xlink:href="#m98716660ec" x="421.756972" y="72.147694" style="stroke: #000000; stroke-width: 0.8"/>
      </g>
     </g>
     <g id="text_3">
      <!-- 8.0 -->
      <g transform="translate(428.756972 76.08449) scale(0.11 -0.11)">
       <defs>
        <path id="ArialMT-38" d="M 1131 2484 
Q 781 2613 612 2850 
Q 444 3088 444 3419 
Q 444 3919 803 4259 
Q 1163 4600 1759 4600 
Q 2359 4600 2725 4251 
Q 3091 3903 3091 3403 
Q 3091 3084 2923 2848 
Q 2756 2613 2416 2484 
Q 2838 2347 3058 2040 
Q 3278 1734 3278 1309 
Q 3278 722 2862 322 
Q 2447 -78 1769 -78 
Q 1091 -78 675 323 
Q 259 725 259 1325 
Q 259 1772 486 2073 
Q 713 2375 1131 2484 
z
M 1019 3438 
Q 1019 3113 1228 2906 
Q 1438 2700 1772 2700 
Q 2097 2700 2305 2904 
Q 2513 3109 2513 3406 
Q 2513 3716 2298 3927 
Q 2084 4138 1766 4138 
Q 1444 4138 1231 3931 
Q 1019 3725 1019 3438 
z
M 838 1322 
Q 838 1081 952 856 
Q 1066 631 1291 507 
Q 1516 384 1775 384 
Q 2178 384 2440 643 
Q 2703 903 2703 1303 
Q 2703 1709 2433 1975 
Q 2163 2241 1756 2241 
Q 1359 2241 1098 1978 
Q 838 1716 838 1322 
z
" transform="scale(0.015625)"/>
       </defs>
       <use xlink:href="#ArialMT-38"/>
       <use xlink:href="#ArialMT-2e" x="55.615234"/>
       <use xlink:href="#ArialMT-30" x="83.398438"/>
      </g>
     </g>
    </g>
    <g id="ytick_4">
     <g id="line2d_4">
      <g>
       <use xlink:href="#m98716660ec" x="421.756972" y="44.64585" style="stroke: #000000; stroke-width: 0.8"/>
      </g>
     </g>
     <g id="text_4">
      <!-- 10.5 -->
      <g transform="translate(428.756972 48.582647) scale(0.11 -0.11)">
       <defs>
        <path id="ArialMT-31" d="M 2384 0 
L 1822 0 
L 1822 3584 
Q 1619 3391 1289 3197 
Q 959 3003 697 2906 
L 697 3450 
Q 1169 3672 1522 3987 
Q 1875 4303 2022 4600 
L 2384 4600 
L 2384 0 
z
" transform="scale(0.015625)"/>
       </defs>
       <use xlink:href="#ArialMT-31"/>
       <use xlink:href="#ArialMT-30" x="55.615234"/>
       <use xlink:href="#ArialMT-2e" x="111.230469"/>
       <use xlink:href="#ArialMT-35" x="139.013672"/>
      </g>
     </g>
    </g>
    <g id="ytick_5">
     <g id="line2d_5">
      <g>
       <use xlink:href="#m98716660ec" x="421.756972" y="17.144006" style="stroke: #000000; stroke-width: 0.8"/>
      </g>
     </g>
     <g id="text_5">
      <!-- 13.0 -->
      <g transform="translate(428.756972 21.080803) scale(0.11 -0.11)">
       <use xlink:href="#ArialMT-31"/>
       <use xlink:href="#ArialMT-33" x="55.615234"/>
       <use xlink:href="#ArialMT-2e" x="111.230469"/>
       <use xlink:href="#ArialMT-30" x="139.013672"/>
      </g>
     </g>
    </g>
   </g>
   <g id="LineCollection_1"/>
   <g id="patch_3">
    <path d="M 416.256603 127.151381 
L 419.006787 127.151381 
L 421.756972 127.151381 
L 421.756972 17.144006 
L 419.006787 17.144006 
L 416.256603 17.144006 
L 416.256603 127.151381 
z
" style="fill: none; stroke: #000000; stroke-width: 0.8; stroke-linejoin: miter; stroke-linecap: square"/>
   </g>
   <g id="text_6">
    <!-- MSP -->
    <g transform="translate(406.0046 -4.200994) scale(0.12 -0.12)">
     <defs>
      <path id="ArialMT-4d" d="M 475 0 
L 475 4581 
L 1388 4581 
L 2472 1338 
Q 2622 884 2691 659 
Q 2769 909 2934 1394 
L 4031 4581 
L 4847 4581 
L 4847 0 
L 4263 0 
L 4263 3834 
L 2931 0 
L 2384 0 
L 1059 3900 
L 1059 0 
L 475 0 
z
" transform="scale(0.015625)"/>
      <path id="ArialMT-53" d="M 288 1472 
L 859 1522 
Q 900 1178 1048 958 
Q 1197 738 1509 602 
Q 1822 466 2213 466 
Q 2559 466 2825 569 
Q 3091 672 3220 851 
Q 3350 1031 3350 1244 
Q 3350 1459 3225 1620 
Q 3100 1781 2813 1891 
Q 2628 1963 1997 2114 
Q 1366 2266 1113 2400 
Q 784 2572 623 2826 
Q 463 3081 463 3397 
Q 463 3744 659 4045 
Q 856 4347 1234 4503 
Q 1613 4659 2075 4659 
Q 2584 4659 2973 4495 
Q 3363 4331 3572 4012 
Q 3781 3694 3797 3291 
L 3216 3247 
Q 3169 3681 2898 3903 
Q 2628 4125 2100 4125 
Q 1550 4125 1298 3923 
Q 1047 3722 1047 3438 
Q 1047 3191 1225 3031 
Q 1400 2872 2139 2705 
Q 2878 2538 3153 2413 
Q 3553 2228 3743 1945 
Q 3934 1663 3934 1294 
Q 3934 928 3725 604 
Q 3516 281 3123 101 
Q 2731 -78 2241 -78 
Q 1619 -78 1198 103 
Q 778 284 539 648 
Q 300 1013 288 1472 
z
" transform="scale(0.015625)"/>
      <path id="ArialMT-50" d="M 494 0 
L 494 4581 
L 2222 4581 
Q 2678 4581 2919 4538 
Q 3256 4481 3484 4323 
Q 3713 4166 3852 3881 
Q 3991 3597 3991 3256 
Q 3991 2672 3619 2267 
Q 3247 1863 2275 1863 
L 1100 1863 
L 1100 0 
L 494 0 
z
M 1100 2403 
L 2284 2403 
Q 2872 2403 3119 2622 
Q 3366 2841 3366 3238 
Q 3366 3525 3220 3729 
Q 3075 3934 2838 4000 
Q 2684 4041 2272 4041 
L 1100 4041 
L 1100 2403 
z
" transform="scale(0.015625)"/>
     </defs>
     <use xlink:href="#ArialMT-4d"/>
     <use xlink:href="#ArialMT-53" x="83.300781"/>
     <use xlink:href="#ArialMT-50" x="150"/>
    </g>
    <!-- [$\mathrm{USD} \cdot \mathrm{kg}^{\mathrm{-1}}$] -->
    <g transform="translate(384.866787 11.144006) scale(0.12 -0.12)">
     <defs>
      <path id="ArialMT-5b" d="M 434 -1272 
L 434 4581 
L 1675 4581 
L 1675 4116 
L 997 4116 
L 997 -806 
L 1675 -806 
L 1675 -1272 
L 434 -1272 
z
" transform="scale(0.015625)"/>
      <path id="DejaVuSans-55" d="M 556 4666 
L 1191 4666 
L 1191 1831 
Q 1191 1081 1462 751 
Q 1734 422 2344 422 
Q 2950 422 3222 751 
Q 3494 1081 3494 1831 
L 3494 4666 
L 4128 4666 
L 4128 1753 
Q 4128 841 3676 375 
Q 3225 -91 2344 -91 
Q 1459 -91 1007 375 
Q 556 841 556 1753 
L 556 4666 
z
" transform="scale(0.015625)"/>
      <path id="DejaVuSans-53" d="M 3425 4513 
L 3425 3897 
Q 3066 4069 2747 4153 
Q 2428 4238 2131 4238 
Q 1616 4238 1336 4038 
Q 1056 3838 1056 3469 
Q 1056 3159 1242 3001 
Q 1428 2844 1947 2747 
L 2328 2669 
Q 3034 2534 3370 2195 
Q 3706 1856 3706 1288 
Q 3706 609 3251 259 
Q 2797 -91 1919 -91 
Q 1588 -91 1214 -16 
Q 841 59 441 206 
L 441 856 
Q 825 641 1194 531 
Q 1563 422 1919 422 
Q 2459 422 2753 634 
Q 3047 847 3047 1241 
Q 3047 1584 2836 1778 
Q 2625 1972 2144 2069 
L 1759 2144 
Q 1053 2284 737 2584 
Q 422 2884 422 3419 
Q 422 4038 858 4394 
Q 1294 4750 2059 4750 
Q 2388 4750 2728 4690 
Q 3069 4631 3425 4513 
z
" transform="scale(0.015625)"/>
      <path id="DejaVuSans-44" d="M 1259 4147 
L 1259 519 
L 2022 519 
Q 2988 519 3436 956 
Q 3884 1394 3884 2338 
Q 3884 3275 3436 3711 
Q 2988 4147 2022 4147 
L 1259 4147 
z
M 628 4666 
L 1925 4666 
Q 3281 4666 3915 4102 
Q 4550 3538 4550 2338 
Q 4550 1131 3912 565 
Q 3275 0 1925 0 
L 628 0 
L 628 4666 
z
" transform="scale(0.015625)"/>
      <path id="DejaVuSans-22c5" d="M 684 2619 
L 1344 2619 
L 1344 1825 
L 684 1825 
L 684 2619 
z
" transform="scale(0.015625)"/>
      <path id="DejaVuSans-6b" d="M 581 4863 
L 1159 4863 
L 1159 1991 
L 2875 3500 
L 3609 3500 
L 1753 1863 
L 3688 0 
L 2938 0 
L 1159 1709 
L 1159 0 
L 581 0 
L 581 4863 
z
" transform="scale(0.015625)"/>
      <path id="DejaVuSans-67" d="M 2906 1791 
Q 2906 2416 2648 2759 
Q 2391 3103 1925 3103 
Q 1463 3103 1205 2759 
Q 947 2416 947 1791 
Q 947 1169 1205 825 
Q 1463 481 1925 481 
Q 2391 481 2648 825 
Q 2906 1169 2906 1791 
z
M 3481 434 
Q 3481 -459 3084 -895 
Q 2688 -1331 1869 -1331 
Q 1566 -1331 1297 -1286 
Q 1028 -1241 775 -1147 
L 775 -588 
Q 1028 -725 1275 -790 
Q 1522 -856 1778 -856 
Q 2344 -856 2625 -561 
Q 2906 -266 2906 331 
L 2906 616 
Q 2728 306 2450 153 
Q 2172 0 1784 0 
Q 1141 0 747 490 
Q 353 981 353 1791 
Q 353 2603 747 3093 
Q 1141 3584 1784 3584 
Q 2172 3584 2450 3431 
Q 2728 3278 2906 2969 
L 2906 3500 
L 3481 3500 
L 3481 434 
z
" transform="scale(0.015625)"/>
      <path id="DejaVuSans-2212" d="M 678 2272 
L 4684 2272 
L 4684 1741 
L 678 1741 
L 678 2272 
z
" transform="scale(0.015625)"/>
      <path id="DejaVuSans-31" d="M 794 531 
L 1825 531 
L 1825 4091 
L 703 3866 
L 703 4441 
L 1819 4666 
L 2450 4666 
L 2450 531 
L 3481 531 
L 3481 0 
L 794 0 
L 794 531 
z
" transform="scale(0.015625)"/>
      <path id="ArialMT-5d" d="M 1363 -1272 
L 122 -1272 
L 122 -806 
L 800 -806 
L 800 4116 
L 122 4116 
L 122 4581 
L 1363 4581 
L 1363 -1272 
z
" transform="scale(0.015625)"/>
     </defs>
     <use xlink:href="#ArialMT-5b" transform="translate(0 0.684375)"/>
     <use xlink:href="#DejaVuSans-55" transform="translate(27.783203 0.684375)"/>
     <use xlink:href="#DejaVuSans-53" transform="translate(100.976562 0.684375)"/>
     <use xlink:href="#DejaVuSans-44" transform="translate(164.453125 0.684375)"/>
     <use xlink:href="#DejaVuSans-22c5" transform="translate(260.9375 0.684375)"/>
     <use xlink:href="#DejaVuSans-6b" transform="translate(312.207031 0.684375)"/>
     <use xlink:href="#DejaVuSans-67" transform="translate(370.117188 0.684375)"/>
     <use xlink:href="#DejaVuSans-2212" transform="translate(434.550781 38.965625) scale(0.7)"/>
     <use xlink:href="#DejaVuSans-31" transform="translate(493.203125 38.965625) scale(0.7)"/>
     <use xlink:href="#ArialMT-5d" transform="translate(540.473633 0.684375)"/>
    </g>
   </g>
  </g>
  <g id="axes_3">
   <g id="patch_4">
    <path d="M 59.5278 127.151381 
L 158.276258 127.151381 
L 158.276258 17.144006 
L 59.5278 17.144006 
L 59.5278 127.151381 
z
" style="fill: none"/>
   </g>
   <g id="PathCollection_1"/>
   <g id="PathCollection_2"/>
   <g id="PathCollection_3"/>
   <g id="PathCollection_4"/>
   <g id="PathCollection_5">
    <defs>
     <path id="ma978c836c7" d="M 158.276258 -118.31211 
L 158.276258 -125.722714 
L 157.911482 -125.722714 
z
" style="stroke: #21a685"/>
    </defs>
    <g clip-path="url(#pc70aa9a605)">
     <use xlink:href="#ma978c836c7" x="0" y="142.86672" style="fill: #21a685; stroke: #21a685"/>
    </g>
   </g>
   <g id="PathCollection_6">
    <defs>
     <path id="m8643d843f1" d="M 151.222796 -20.267573 
L 158.276258 -17.123482 
L 158.276258 -23.573009 
L 158.276258 -31.430678 
L 158.276258 -39.288348 
L 158.276258 -47.146018 
L 158.276258 -55.003687 
L 158.276258 -62.861357 
L 158.276258 -70.719026 
L 158.276258 -78.576696 
L 158.276258 -86.434366 
L 158.276258 -94.292035 
L 158.276258 -102.149705 
L 158.276258 -110.007374 
L 158.276258 -117.865044 
L 158.276258 -118.31211 
L 157.911482 -125.722714 
L 151.222796 -125.722714 
L 144.169335 -125.722714 
L 137.115874 -125.722714 
L 130.062413 -125.722714 
L 123.008951 -125.722714 
L 117.098545 -125.722714 
L 117.336287 -117.865044 
L 117.676222 -110.007374 
L 118.073985 -102.149705 
L 118.532202 -94.292035 
L 119.109213 -86.434366 
L 119.81991 -78.576696 
L 120.683577 -70.719026 
L 121.793135 -62.861357 
L 123.008951 -56.559442 
L 123.33246 -55.003687 
L 125.67998 -47.146018 
L 129.201252 -39.288348 
L 130.062413 -38.122993 
L 135.402988 -31.430678 
L 137.115874 -30.085681 
L 144.169335 -24.955004 
L 146.310037 -23.573009 
z
" style="stroke: #21918c"/>
    </defs>
    <g clip-path="url(#pc70aa9a605)">
     <use xlink:href="#m8643d843f1" x="0" y="142.86672" style="fill: #21918c; stroke: #21918c"/>
    </g>
   </g>
   <g id="PathCollection_7">
    <defs>
     <path id="me5a849bfba" d="M 115.95549 -18.883552 
L 119.283869 -15.715339 
L 123.008951 -15.715339 
L 130.062413 -15.715339 
L 137.115874 -15.715339 
L 144.169335 -15.715339 
L 151.222796 -15.715339 
L 158.276258 -15.715339 
L 158.276258 -17.123482 
L 151.222796 -20.267573 
L 146.310037 -23.573009 
L 144.169335 -24.955004 
L 137.115874 -30.085681 
L 135.402988 -31.430678 
L 130.062413 -38.122993 
L 129.201252 -39.288348 
L 125.67998 -47.146018 
L 123.33246 -55.003687 
L 123.008951 -56.559442 
L 121.793135 -62.861357 
L 120.683577 -70.719026 
L 119.81991 -78.576696 
L 119.109213 -86.434366 
L 118.532202 -94.292035 
L 118.073985 -102.149705 
L 117.676222 -110.007374 
L 117.336287 -117.865044 
L 117.098545 -125.722714 
L 115.95549 -125.722714 
L 108.902029 -125.722714 
L 101.848568 -125.722714 
L 94.795106 -125.722714 
L 90.749127 -125.722714 
L 90.891876 -117.865044 
L 91.113707 -110.007374 
L 91.38498 -102.149705 
L 91.683434 -94.292035 
L 92.035452 -86.434366 
L 92.476057 -78.576696 
L 93.055195 -70.719026 
L 93.834884 -62.861357 
L 94.795106 -55.757577 
L 94.912692 -55.003687 
L 96.595633 -47.146018 
L 99.119501 -39.288348 
L 101.848568 -34.228251 
L 103.550155 -31.430678 
L 108.902029 -25.872532 
L 111.291871 -23.573009 
z
" style="stroke: #297a8e"/>
    </defs>
    <g clip-path="url(#pc70aa9a605)">
     <use xlink:href="#me5a849bfba" x="0" y="142.86672" style="fill: #297a8e; stroke: #297a8e"/>
    </g>
   </g>
   <g id="PathCollection_8">
    <defs>
     <path id="m2b63ea0bae" d="M 87.741645 -22.318668 
L 92.492263 -15.715339 
L 94.795106 -15.715339 
L 101.848568 -15.715339 
L 108.902029 -15.715339 
L 115.95549 -15.715339 
L 119.283869 -15.715339 
L 115.95549 -18.883552 
L 111.291871 -23.573009 
L 108.902029 -25.872532 
L 103.550155 -31.430678 
L 101.848568 -34.228251 
L 99.119501 -39.288348 
L 96.595633 -47.146018 
L 94.912692 -55.003687 
L 94.795106 -55.757577 
L 93.834884 -62.861357 
L 93.055195 -70.719026 
L 92.476057 -78.576696 
L 92.035452 -86.434366 
L 91.683434 -94.292035 
L 91.38498 -102.149705 
L 91.113707 -110.007374 
L 90.891876 -117.865044 
L 90.749127 -125.722714 
L 87.741645 -125.722714 
L 80.688184 -125.722714 
L 73.634723 -125.722714 
L 73.421609 -125.722714 
L 73.493133 -117.865044 
L 73.634723 -110.20645 
L 73.638542 -110.007374 
L 73.846473 -102.149705 
L 74.06044 -94.292035 
L 74.31567 -86.434366 
L 74.675605 -78.576696 
L 75.134765 -70.719026 
L 75.706626 -62.861357 
L 76.454689 -55.003687 
L 77.467693 -47.146018 
L 79.012042 -39.288348 
L 80.688184 -34.387201 
L 81.87661 -31.430678 
L 86.964379 -23.573009 
z
" style="stroke: #32648e"/>
    </defs>
    <g clip-path="url(#pc70aa9a605)">
     <use xlink:href="#m2b63ea0bae" x="0" y="142.86672" style="fill: #32648e; stroke: #32648e"/>
    </g>
   </g>
   <g id="PathCollection_9">
    <defs>
     <path id="mfb6148cf35" d="M 73.634723 -17.55224 
L 74.601846 -15.715339 
L 80.688184 -15.715339 
L 87.741645 -15.715339 
L 92.492263 -15.715339 
L 87.741645 -22.318668 
L 86.964379 -23.573009 
L 81.87661 -31.430678 
L 80.688184 -34.387201 
L 79.012042 -39.288348 
L 77.467693 -47.146018 
L 76.454689 -55.003687 
L 75.706626 -62.861357 
L 75.134765 -70.719026 
L 74.675605 -78.576696 
L 74.31567 -86.434366 
L 74.06044 -94.292035 
L 73.846473 -102.149705 
L 73.638542 -110.007374 
L 73.634723 -110.20645 
L 73.493133 -117.865044 
L 73.421609 -125.722714 
L 66.581261 -125.722714 
L 59.5278 -125.722714 
L 59.5278 -117.865044 
L 59.5278 -110.007374 
L 59.5278 -102.149705 
L 59.5278 -94.292035 
L 59.5278 -86.434366 
L 59.5278 -78.576696 
L 59.5278 -70.719026 
L 59.5278 -62.861357 
L 59.5278 -55.003687 
L 59.5278 -53.761381 
L 60.804506 -47.146018 
L 63.06641 -39.288348 
L 66.581261 -31.731811 
L 66.680934 -31.430678 
L 70.720075 -23.573009 
z
" style="stroke: #3e4c8a"/>
    </defs>
    <g clip-path="url(#pc70aa9a605)">
     <use xlink:href="#mfb6148cf35" x="0" y="142.86672" style="fill: #3e4c8a; stroke: #3e4c8a"/>
    </g>
   </g>
   <g id="PathCollection_10">
    <defs>
     <path id="md143e3b4dd" d="M 66.581261 -15.715339 
L 73.634723 -15.715339 
L 74.601846 -15.715339 
L 73.634723 -17.55224 
L 70.720075 -23.573009 
L 66.680934 -31.430678 
L 66.581261 -31.731811 
L 63.06641 -39.288348 
L 60.804506 -47.146018 
L 59.5278 -53.761381 
L 59.5278 -47.146018 
L 59.5278 -39.288348 
L 59.5278 -31.430678 
L 59.5278 -23.573009 
L 59.5278 -15.715339 
z
" style="stroke: #472f7d"/>
    </defs>
    <g clip-path="url(#pc70aa9a605)">
     <use xlink:href="#md143e3b4dd" x="0" y="142.86672" style="fill: #472f7d; stroke: #472f7d"/>
    </g>
   </g>
   <g id="PathCollection_11"/>
   <g id="QuadContourSet_1">
    <path clip-path="url(#pc70aa9a605)" style="fill: none; stroke: #3d4240; stroke-opacity: 0.1; stroke-width: 0.8"/>
    <path clip-path="url(#pc70aa9a605)" style="fill: none; stroke: #3d4240; stroke-opacity: 0.1; stroke-width: 0.8"/>
    <path clip-path="url(#pc70aa9a605)" style="fill: none; stroke: #3d4240; stroke-opacity: 0.1; stroke-width: 0.8"/>
    <path clip-path="url(#pc70aa9a605)" style="fill: none; stroke: #3d4240; stroke-opacity: 0.1; stroke-width: 0.8"/>
    <path clip-path="url(#pc70aa9a605)" style="fill: none; stroke: #3d4240; stroke-opacity: 0.1; stroke-width: 0.8"/>
    <path d="M 158.276258 24.55461 
L 157.911482 17.144006 
" clip-path="url(#pc70aa9a605)" style="fill: none; stroke: #3d4240; stroke-opacity: 0.1; stroke-width: 0.8"/>
    <path d="M 158.276258 125.743238 
L 151.222796 122.599147 
L 146.310037 119.293711 
L 144.169335 117.911716 
L 137.115874 112.781039 
L 135.402988 111.436042 
L 130.062413 104.743727 
L 129.201252 103.578372 
L 125.829807 96.055039 
M 121.270471 76.303959 
L 120.683577 72.147694 
L 119.81991 64.290024 
L 119.109213 56.432354 
L 118.532202 48.574685 
L 118.073985 40.717015 
L 117.676222 32.859346 
L 117.336287 25.001676 
L 117.098545 17.144006 
" clip-path="url(#pc70aa9a605)" style="fill: none; stroke: #3d4240; stroke-opacity: 0.1; stroke-width: 0.8"/>
    <path d="M 119.283869 127.151381 
L 115.95549 123.983168 
L 111.291871 119.293711 
L 108.902029 116.994188 
L 103.550155 111.436042 
L 101.848568 108.638469 
L 99.119501 103.578372 
L 96.595633 95.720702 
L 94.912692 87.863033 
L 94.795106 87.109143 
L 93.834884 80.005363 
L 93.055195 72.147694 
L 92.476057 64.290024 
L 92.035452 56.432354 
L 91.683434 48.574685 
L 91.38498 40.717015 
L 91.113707 32.859346 
L 90.891876 25.001676 
L 90.749127 17.144006 
" clip-path="url(#pc70aa9a605)" style="fill: none; stroke: #3d4240; stroke-opacity: 0.1; stroke-width: 0.8"/>
    <path d="M 92.492263 127.151381 
L 87.741645 120.548052 
L 86.964379 119.293711 
L 81.87661 111.436042 
L 80.688184 108.479519 
L 79.012042 103.578372 
L 77.467693 95.720702 
L 76.454689 87.863033 
L 76.212743 85.321625 
M 74.430901 58.947949 
L 74.31567 56.432354 
L 74.06044 48.574685 
L 73.846473 40.717015 
L 73.638542 32.859346 
L 73.634723 32.66027 
L 73.493133 25.001676 
L 73.421609 17.144006 
" clip-path="url(#pc70aa9a605)" style="fill: none; stroke: #3d4240; stroke-opacity: 0.1; stroke-width: 0.8"/>
    <path d="M 74.601846 127.151381 
L 73.634723 125.31448 
L 70.720075 119.293711 
L 66.680934 111.436042 
L 66.581261 111.134909 
L 63.06641 103.578372 
L 60.804506 95.720702 
L 59.5278 89.105339 
" clip-path="url(#pc70aa9a605)" style="fill: none; stroke: #3d4240; stroke-opacity: 0.1; stroke-width: 0.8"/>
    <path clip-path="url(#pc70aa9a605)" style="fill: none; stroke: #3d4240; stroke-opacity: 0.1; stroke-width: 0.8"/>
    <path clip-path="url(#pc70aa9a605)" style="fill: none; stroke: #3d4240; stroke-opacity: 0.1; stroke-width: 0.8"/>
   </g>
   <g id="text_7">
    <g clip-path="url(#pc70aa9a605)">
     <!-- 8.5 -->
     <g transform="translate(115.363951 89.15095) scale(0.11 -0.11)">
      <use xlink:href="#ArialMT-38"/>
      <use xlink:href="#ArialMT-2e" x="55.615234"/>
      <use xlink:href="#ArialMT-35" x="83.398438"/>
     </g>
    </g>
   </g>
   <g id="text_8">
    <g clip-path="url(#pc70aa9a605)">
     <!-- 10.3 -->
     <g transform="translate(64.43125 74.991365) scale(0.11 -0.11)">
      <use xlink:href="#ArialMT-31"/>
      <use xlink:href="#ArialMT-30" x="55.615234"/>
      <use xlink:href="#ArialMT-2e" x="111.230469"/>
      <use xlink:href="#ArialMT-33" x="139.013672"/>
     </g>
    </g>
   </g>
   <g id="matplotlib.axis_3">
    <g id="xtick_1">
     <g id="line2d_6">
      <defs>
       <path id="m064d1fada6" d="M 0 2 
L 0 -2 
" style="stroke: #000000; stroke-width: 0.8"/>
      </defs>
      <g>
       <use xlink:href="#m064d1fada6" x="59.5278" y="127.151381" style="stroke: #000000; stroke-width: 0.8"/>
      </g>
     </g>
    </g>
    <g id="xtick_2">
     <g id="line2d_7">
      <g>
       <use xlink:href="#m064d1fada6" x="92.443953" y="127.151381" style="stroke: #000000; stroke-width: 0.8"/>
      </g>
     </g>
     <g id="text_9">
      <!-- 40 -->
      <g transform="translate(86.326921 140.524975) scale(0.11 -0.11)">
       <defs>
        <path id="ArialMT-34" d="M 2069 0 
L 2069 1097 
L 81 1097 
L 81 1613 
L 2172 4581 
L 2631 4581 
L 2631 1613 
L 3250 1613 
L 3250 1097 
L 2631 1097 
L 2631 0 
L 2069 0 
z
M 2069 1613 
L 2069 3678 
L 634 1613 
L 2069 1613 
z
" transform="scale(0.015625)"/>
       </defs>
       <use xlink:href="#ArialMT-34"/>
       <use xlink:href="#ArialMT-30" x="55.615234"/>
      </g>
     </g>
    </g>
    <g id="xtick_3">
     <g id="line2d_8">
      <g>
       <use xlink:href="#m064d1fada6" x="125.360105" y="127.151381" style="stroke: #000000; stroke-width: 0.8"/>
      </g>
     </g>
     <g id="text_10">
      <!-- 50 -->
      <g transform="translate(119.243074 140.524975) scale(0.11 -0.11)">
       <use xlink:href="#ArialMT-35"/>
       <use xlink:href="#ArialMT-30" x="55.615234"/>
      </g>
     </g>
    </g>
    <g id="xtick_4">
     <g id="line2d_9">
      <g>
       <use xlink:href="#m064d1fada6" x="158.276258" y="127.151381" style="stroke: #000000; stroke-width: 0.8"/>
      </g>
     </g>
     <g id="text_11">
      <!-- 60 -->
      <g transform="translate(152.159226 140.524975) scale(0.11 -0.11)">
       <defs>
        <path id="ArialMT-36" d="M 3184 3459 
L 2625 3416 
Q 2550 3747 2413 3897 
Q 2184 4138 1850 4138 
Q 1581 4138 1378 3988 
Q 1113 3794 959 3422 
Q 806 3050 800 2363 
Q 1003 2672 1297 2822 
Q 1591 2972 1913 2972 
Q 2475 2972 2870 2558 
Q 3266 2144 3266 1488 
Q 3266 1056 3080 686 
Q 2894 316 2569 119 
Q 2244 -78 1831 -78 
Q 1128 -78 684 439 
Q 241 956 241 2144 
Q 241 3472 731 4075 
Q 1159 4600 1884 4600 
Q 2425 4600 2770 4297 
Q 3116 3994 3184 3459 
z
M 888 1484 
Q 888 1194 1011 928 
Q 1134 663 1356 523 
Q 1578 384 1822 384 
Q 2178 384 2434 671 
Q 2691 959 2691 1453 
Q 2691 1928 2437 2201 
Q 2184 2475 1800 2475 
Q 1419 2475 1153 2201 
Q 888 1928 888 1484 
z
" transform="scale(0.015625)"/>
       </defs>
       <use xlink:href="#ArialMT-36"/>
       <use xlink:href="#ArialMT-30" x="55.615234"/>
      </g>
     </g>
    </g>
    <g id="text_12">
     <!-- Yield [$\mathrm{g} \cdot \mathrm{L}^{\mathrm{-1}}$] -->
     <g transform="translate(75.737029 156.611225) scale(0.11 -0.11)">
      <defs>
       <path id="ArialMT-59" d="M 1784 0 
L 1784 1941 
L 19 4581 
L 756 4581 
L 1659 3200 
Q 1909 2813 2125 2425 
Q 2331 2784 2625 3234 
L 3513 4581 
L 4219 4581 
L 2391 1941 
L 2391 0 
L 1784 0 
z
" transform="scale(0.015625)"/>
       <path id="ArialMT-69" d="M 425 3934 
L 425 4581 
L 988 4581 
L 988 3934 
L 425 3934 
z
M 425 0 
L 425 3319 
L 988 3319 
L 988 0 
L 425 0 
z
" transform="scale(0.015625)"/>
       <path id="ArialMT-65" d="M 2694 1069 
L 3275 997 
Q 3138 488 2766 206 
Q 2394 -75 1816 -75 
Q 1088 -75 661 373 
Q 234 822 234 1631 
Q 234 2469 665 2931 
Q 1097 3394 1784 3394 
Q 2450 3394 2872 2941 
Q 3294 2488 3294 1666 
Q 3294 1616 3291 1516 
L 816 1516 
Q 847 969 1125 678 
Q 1403 388 1819 388 
Q 2128 388 2347 550 
Q 2566 713 2694 1069 
z
M 847 1978 
L 2700 1978 
Q 2663 2397 2488 2606 
Q 2219 2931 1791 2931 
Q 1403 2931 1139 2672 
Q 875 2413 847 1978 
z
" transform="scale(0.015625)"/>
       <path id="ArialMT-6c" d="M 409 0 
L 409 4581 
L 972 4581 
L 972 0 
L 409 0 
z
" transform="scale(0.015625)"/>
       <path id="ArialMT-64" d="M 2575 0 
L 2575 419 
Q 2259 -75 1647 -75 
Q 1250 -75 917 144 
Q 584 363 401 755 
Q 219 1147 219 1656 
Q 219 2153 384 2558 
Q 550 2963 881 3178 
Q 1213 3394 1622 3394 
Q 1922 3394 2156 3267 
Q 2391 3141 2538 2938 
L 2538 4581 
L 3097 4581 
L 3097 0 
L 2575 0 
z
M 797 1656 
Q 797 1019 1065 703 
Q 1334 388 1700 388 
Q 2069 388 2326 689 
Q 2584 991 2584 1609 
Q 2584 2291 2321 2609 
Q 2059 2928 1675 2928 
Q 1300 2928 1048 2622 
Q 797 2316 797 1656 
z
" transform="scale(0.015625)"/>
       <path id="ArialMT-20" transform="scale(0.015625)"/>
       <path id="DejaVuSans-4c" d="M 628 4666 
L 1259 4666 
L 1259 531 
L 3531 531 
L 3531 0 
L 628 0 
L 628 4666 
z
" transform="scale(0.015625)"/>
      </defs>
      <use xlink:href="#ArialMT-59" transform="translate(0 0.684375)"/>
      <use xlink:href="#ArialMT-69" transform="translate(66.699219 0.684375)"/>
      <use xlink:href="#ArialMT-65" transform="translate(88.916016 0.684375)"/>
      <use xlink:href="#ArialMT-6c" transform="translate(144.53125 0.684375)"/>
      <use xlink:href="#ArialMT-64" transform="translate(166.748047 0.684375)"/>
      <use xlink:href="#ArialMT-20" transform="translate(222.363281 0.684375)"/>
      <use xlink:href="#ArialMT-5b" transform="translate(250.146484 0.684375)"/>
      <use xlink:href="#DejaVuSans-67" transform="translate(277.929688 0.684375)"/>
      <use xlink:href="#DejaVuSans-22c5" transform="translate(360.888672 0.684375)"/>
      <use xlink:href="#DejaVuSans-4c" transform="translate(412.158203 0.684375)"/>
      <use xlink:href="#DejaVuSans-2212" transform="translate(468.828125 38.965625) scale(0.7)"/>
      <use xlink:href="#DejaVuSans-31" transform="translate(527.480469 38.965625) scale(0.7)"/>
      <use xlink:href="#ArialMT-5d" transform="translate(574.750977 0.684375)"/>
     </g>
    </g>
   </g>
   <g id="matplotlib.axis_4">
    <g id="ytick_6">
     <g id="line2d_10">
      <defs>
       <path id="m90d4e55e4e" d="M 2 0 
L -2 -0 
" style="stroke: #000000; stroke-width: 0.8"/>
      </defs>
      <g>
       <use xlink:href="#m90d4e55e4e" x="59.5278" y="127.151381" style="stroke: #000000; stroke-width: 0.8"/>
      </g>
     </g>
     <g id="text_13">
      <!-- 0.1 -->
      <g transform="translate(38.7378 131.088178) scale(0.11 -0.11)">
       <use xlink:href="#ArialMT-30"/>
       <use xlink:href="#ArialMT-2e" x="55.615234"/>
       <use xlink:href="#ArialMT-31" x="83.398438"/>
      </g>
     </g>
    </g>
    <g id="ytick_7">
     <g id="line2d_11">
      <g>
       <use xlink:href="#m90d4e55e4e" x="59.5278" y="90.482256" style="stroke: #000000; stroke-width: 0.8"/>
      </g>
     </g>
     <g id="text_14">
      <!-- 0.4 -->
      <g transform="translate(38.7378 94.419053) scale(0.11 -0.11)">
       <use xlink:href="#ArialMT-30"/>
       <use xlink:href="#ArialMT-2e" x="55.615234"/>
       <use xlink:href="#ArialMT-34" x="83.398438"/>
      </g>
     </g>
    </g>
    <g id="ytick_8">
     <g id="line2d_12">
      <g>
       <use xlink:href="#m90d4e55e4e" x="59.5278" y="53.813131" style="stroke: #000000; stroke-width: 0.8"/>
      </g>
     </g>
     <g id="text_15">
      <!-- 0.7 -->
      <g transform="translate(38.7378 57.749928) scale(0.11 -0.11)">
       <defs>
        <path id="ArialMT-37" d="M 303 3981 
L 303 4522 
L 3269 4522 
L 3269 4084 
Q 2831 3619 2401 2847 
Q 1972 2075 1738 1259 
Q 1569 684 1522 0 
L 944 0 
Q 953 541 1156 1306 
Q 1359 2072 1739 2783 
Q 2119 3494 2547 3981 
L 303 3981 
z
" transform="scale(0.015625)"/>
       </defs>
       <use xlink:href="#ArialMT-30"/>
       <use xlink:href="#ArialMT-2e" x="55.615234"/>
       <use xlink:href="#ArialMT-37" x="83.398438"/>
      </g>
     </g>
    </g>
    <g id="ytick_9">
     <g id="line2d_13">
      <g>
       <use xlink:href="#m90d4e55e4e" x="59.5278" y="17.144006" style="stroke: #000000; stroke-width: 0.8"/>
      </g>
     </g>
     <g id="text_16">
      <!-- 1.0 -->
      <g transform="translate(38.7378 21.080803) scale(0.11 -0.11)">
       <use xlink:href="#ArialMT-31"/>
       <use xlink:href="#ArialMT-2e" x="55.615234"/>
       <use xlink:href="#ArialMT-30" x="83.398438"/>
      </g>
     </g>
    </g>
    <g id="text_17">
     <!-- Productivity -->
     <g transform="translate(18.232644 100.57324) rotate(-90) scale(0.11 -0.11)">
      <defs>
       <path id="ArialMT-72" d="M 416 0 
L 416 3319 
L 922 3319 
L 922 2816 
Q 1116 3169 1280 3281 
Q 1444 3394 1641 3394 
Q 1925 3394 2219 3213 
L 2025 2691 
Q 1819 2813 1613 2813 
Q 1428 2813 1281 2702 
Q 1134 2591 1072 2394 
Q 978 2094 978 1738 
L 978 0 
L 416 0 
z
" transform="scale(0.015625)"/>
       <path id="ArialMT-6f" d="M 213 1659 
Q 213 2581 725 3025 
Q 1153 3394 1769 3394 
Q 2453 3394 2887 2945 
Q 3322 2497 3322 1706 
Q 3322 1066 3130 698 
Q 2938 331 2570 128 
Q 2203 -75 1769 -75 
Q 1072 -75 642 372 
Q 213 819 213 1659 
z
M 791 1659 
Q 791 1022 1069 705 
Q 1347 388 1769 388 
Q 2188 388 2466 706 
Q 2744 1025 2744 1678 
Q 2744 2294 2464 2611 
Q 2184 2928 1769 2928 
Q 1347 2928 1069 2612 
Q 791 2297 791 1659 
z
" transform="scale(0.015625)"/>
       <path id="ArialMT-75" d="M 2597 0 
L 2597 488 
Q 2209 -75 1544 -75 
Q 1250 -75 995 37 
Q 741 150 617 320 
Q 494 491 444 738 
Q 409 903 409 1263 
L 409 3319 
L 972 3319 
L 972 1478 
Q 972 1038 1006 884 
Q 1059 663 1231 536 
Q 1403 409 1656 409 
Q 1909 409 2131 539 
Q 2353 669 2445 892 
Q 2538 1116 2538 1541 
L 2538 3319 
L 3100 3319 
L 3100 0 
L 2597 0 
z
" transform="scale(0.015625)"/>
       <path id="ArialMT-63" d="M 2588 1216 
L 3141 1144 
Q 3050 572 2676 248 
Q 2303 -75 1759 -75 
Q 1078 -75 664 370 
Q 250 816 250 1647 
Q 250 2184 428 2587 
Q 606 2991 970 3192 
Q 1334 3394 1763 3394 
Q 2303 3394 2647 3120 
Q 2991 2847 3088 2344 
L 2541 2259 
Q 2463 2594 2264 2762 
Q 2066 2931 1784 2931 
Q 1359 2931 1093 2626 
Q 828 2322 828 1663 
Q 828 994 1084 691 
Q 1341 388 1753 388 
Q 2084 388 2306 591 
Q 2528 794 2588 1216 
z
" transform="scale(0.015625)"/>
       <path id="ArialMT-74" d="M 1650 503 
L 1731 6 
Q 1494 -44 1306 -44 
Q 1000 -44 831 53 
Q 663 150 594 308 
Q 525 466 525 972 
L 525 2881 
L 113 2881 
L 113 3319 
L 525 3319 
L 525 4141 
L 1084 4478 
L 1084 3319 
L 1650 3319 
L 1650 2881 
L 1084 2881 
L 1084 941 
Q 1084 700 1114 631 
Q 1144 563 1211 522 
Q 1278 481 1403 481 
Q 1497 481 1650 503 
z
" transform="scale(0.015625)"/>
       <path id="ArialMT-76" d="M 1344 0 
L 81 3319 
L 675 3319 
L 1388 1331 
Q 1503 1009 1600 663 
Q 1675 925 1809 1294 
L 2547 3319 
L 3125 3319 
L 1869 0 
L 1344 0 
z
" transform="scale(0.015625)"/>
       <path id="ArialMT-79" d="M 397 -1278 
L 334 -750 
Q 519 -800 656 -800 
Q 844 -800 956 -737 
Q 1069 -675 1141 -563 
Q 1194 -478 1313 -144 
Q 1328 -97 1363 -6 
L 103 3319 
L 709 3319 
L 1400 1397 
Q 1534 1031 1641 628 
Q 1738 1016 1872 1384 
L 2581 3319 
L 3144 3319 
L 1881 -56 
Q 1678 -603 1566 -809 
Q 1416 -1088 1222 -1217 
Q 1028 -1347 759 -1347 
Q 597 -1347 397 -1278 
z
" transform="scale(0.015625)"/>
      </defs>
      <use xlink:href="#ArialMT-50"/>
      <use xlink:href="#ArialMT-72" x="66.699219"/>
      <use xlink:href="#ArialMT-6f" x="100"/>
      <use xlink:href="#ArialMT-64" x="155.615234"/>
      <use xlink:href="#ArialMT-75" x="211.230469"/>
      <use xlink:href="#ArialMT-63" x="266.845703"/>
      <use xlink:href="#ArialMT-74" x="316.845703"/>
      <use xlink:href="#ArialMT-69" x="344.628906"/>
      <use xlink:href="#ArialMT-76" x="366.845703"/>
      <use xlink:href="#ArialMT-69" x="416.845703"/>
      <use xlink:href="#ArialMT-74" x="439.0625"/>
      <use xlink:href="#ArialMT-79" x="466.845703"/>
     </g>
     <!-- [$\mathrm{g} \cdot \mathrm{L}^{\mathrm{-1}} \cdot \mathrm{h}^{\mathrm{-1}}$] -->
     <g transform="translate(32.4278 104.817694) rotate(-90) scale(0.11 -0.11)">
      <defs>
       <path id="DejaVuSans-68" d="M 3513 2113 
L 3513 0 
L 2938 0 
L 2938 2094 
Q 2938 2591 2744 2837 
Q 2550 3084 2163 3084 
Q 1697 3084 1428 2787 
Q 1159 2491 1159 1978 
L 1159 0 
L 581 0 
L 581 4863 
L 1159 4863 
L 1159 2956 
Q 1366 3272 1645 3428 
Q 1925 3584 2291 3584 
Q 2894 3584 3203 3211 
Q 3513 2838 3513 2113 
z
" transform="scale(0.015625)"/>
      </defs>
      <use xlink:href="#ArialMT-5b" transform="translate(0 0.684375)"/>
      <use xlink:href="#DejaVuSans-67" transform="translate(27.783203 0.684375)"/>
      <use xlink:href="#DejaVuSans-22c5" transform="translate(110.742188 0.684375)"/>
      <use xlink:href="#DejaVuSans-4c" transform="translate(162.011719 0.684375)"/>
      <use xlink:href="#DejaVuSans-2212" transform="translate(218.681641 38.965625) scale(0.7)"/>
      <use xlink:href="#DejaVuSans-31" transform="translate(277.333984 38.965625) scale(0.7)"/>
      <use xlink:href="#DejaVuSans-22c5" transform="translate(344.086914 0.684375)"/>
      <use xlink:href="#DejaVuSans-68" transform="translate(395.356445 0.684375)"/>
      <use xlink:href="#DejaVuSans-2212" transform="translate(459.692383 38.965625) scale(0.7)"/>
      <use xlink:href="#DejaVuSans-31" transform="translate(518.344727 38.965625) scale(0.7)"/>
      <use xlink:href="#ArialMT-5d" transform="translate(565.615234 0.684375)"/>
     </g>
    </g>
   </g>
   <g id="patch_5">
    <path d="M 59.5278 127.151381 
L 59.5278 17.144006 
" style="fill: none; stroke: #000000; stroke-width: 0.8; stroke-linejoin: miter; stroke-linecap: square"/>
   </g>
   <g id="patch_6">
    <path d="M 158.276258 127.151381 
L 158.276258 17.144006 
" style="fill: none; stroke: #000000; stroke-width: 0.8; stroke-linejoin: miter; stroke-linecap: square"/>
   </g>
   <g id="patch_7">
    <path d="M 59.5278 127.151381 
L 158.276258 127.151381 
" style="fill: none; stroke: #000000; stroke-width: 0.8; stroke-linejoin: miter; stroke-linecap: square"/>
   </g>
   <g id="patch_8">
    <path d="M 59.5278 17.144006 
L 158.276258 17.144006 
" style="fill: none; stroke: #000000; stroke-width: 0.8; stroke-linejoin: miter; stroke-linecap: square"/>
   </g>
  </g>
  <g id="axes_4">
   <g id="patch_9">
    <path d="M 174.322882 127.151381 
L 273.071339 127.151381 
L 273.071339 17.144006 
L 174.322882 17.144006 
L 174.322882 127.151381 
z
" style="fill: none"/>
   </g>
   <g id="PathCollection_12"/>
   <g id="PathCollection_13">
    <defs>
     <path id="med4dfd3c15" d="M 273.071339 -44.410482 
L 273.071339 -47.146018 
L 273.071339 -55.003687 
L 273.071339 -62.861357 
L 273.071339 -70.719026 
L 273.071339 -78.576696 
L 273.071339 -86.434366 
L 273.071339 -94.292035 
L 273.071339 -102.149705 
L 273.071339 -110.007374 
L 273.071339 -117.865044 
L 273.071339 -125.722714 
L 266.017878 -125.722714 
L 258.964417 -125.722714 
L 255.797127 -125.722714 
L 256.091653 -117.865044 
L 256.579693 -110.007374 
L 257.190113 -102.149705 
L 257.894543 -94.292035 
L 258.716286 -86.434366 
L 258.964417 -84.493741 
L 259.824137 -78.576696 
L 261.257913 -70.719026 
L 263.085243 -62.861357 
L 265.501908 -55.003687 
L 266.017878 -53.810398 
L 270.399125 -47.146018 
z
" style="stroke: #a5db36"/>
    </defs>
    <g clip-path="url(#p99e87049fd)">
     <use xlink:href="#med4dfd3c15" x="0" y="142.86672" style="fill: #a5db36; stroke: #a5db36"/>
    </g>
   </g>
   <g id="PathCollection_14">
    <defs>
     <path id="m9baa067676" d="M 251.910956 -23.341859 
L 258.964417 -17.882868 
L 261.914232 -15.715339 
L 266.017878 -15.715339 
L 273.071339 -15.715339 
L 273.071339 -23.573009 
L 273.071339 -31.430678 
L 273.071339 -39.288348 
L 273.071339 -44.410482 
L 270.399125 -47.146018 
L 266.017878 -53.810398 
L 265.501908 -55.003687 
L 263.085243 -62.861357 
L 261.257913 -70.719026 
L 259.824137 -78.576696 
L 258.964417 -84.493741 
L 258.716286 -86.434366 
L 257.894543 -94.292035 
L 257.190113 -102.149705 
L 256.579693 -110.007374 
L 256.091653 -117.865044 
L 255.797127 -125.722714 
L 251.910956 -125.722714 
L 244.857494 -125.722714 
L 237.804033 -125.722714 
L 230.750572 -125.722714 
L 223.697111 -125.722714 
L 222.588576 -125.722714 
L 222.750626 -117.865044 
L 223.000828 -110.007374 
L 223.365484 -102.149705 
L 223.697111 -96.986301 
L 223.889454 -94.292035 
L 224.576269 -86.434366 
L 225.406544 -78.576696 
L 226.444318 -70.719026 
L 227.745229 -62.861357 
L 229.419271 -55.003687 
L 230.750572 -50.298586 
L 231.716648 -47.146018 
L 235.240204 -39.288348 
L 237.804033 -35.802752 
L 241.309575 -31.430678 
L 244.857494 -28.620593 
L 251.618868 -23.573009 
z
" style="stroke: #69cd5b"/>
    </defs>
    <g clip-path="url(#p99e87049fd)">
     <use xlink:href="#m9baa067676" x="0" y="142.86672" style="fill: #69cd5b; stroke: #69cd5b"/>
    </g>
   </g>
   <g id="PathCollection_15">
    <defs>
     <path id="m3e406f0d07" d="M 223.697111 -19.95099 
L 227.974031 -15.715339 
L 230.750572 -15.715339 
L 237.804033 -15.715339 
L 244.857494 -15.715339 
L 251.910956 -15.715339 
L 258.964417 -15.715339 
L 261.914232 -15.715339 
L 258.964417 -17.882868 
L 251.910956 -23.341859 
L 251.618868 -23.573009 
L 244.857494 -28.620593 
L 241.309575 -31.430678 
L 237.804033 -35.802752 
L 235.240204 -39.288348 
L 231.716648 -47.146018 
L 230.750572 -50.298586 
L 229.419271 -55.003687 
L 227.745229 -62.861357 
L 226.444318 -70.719026 
L 225.406544 -78.576696 
L 224.576269 -86.434366 
L 223.889454 -94.292035 
L 223.697111 -96.986301 
L 223.365484 -102.149705 
L 223.000828 -110.007374 
L 222.750626 -117.865044 
L 222.588576 -125.722714 
L 216.643649 -125.722714 
L 209.590188 -125.722714 
L 202.536727 -125.722714 
L 199.781638 -125.722714 
L 199.965828 -117.865044 
L 200.230129 -110.007374 
L 200.522875 -102.149705 
L 200.867865 -94.292035 
L 201.295762 -86.434366 
L 201.824779 -78.576696 
L 202.452973 -70.719026 
L 202.536727 -69.879515 
L 203.317394 -62.861357 
L 204.497629 -55.003687 
L 206.151291 -47.146018 
L 208.631469 -39.288348 
L 209.590188 -37.442396 
L 213.053032 -31.430678 
L 216.643649 -27.416607 
L 220.368235 -23.573009 
z
" style="stroke: #3bbb75"/>
    </defs>
    <g clip-path="url(#p99e87049fd)">
     <use xlink:href="#m3e406f0d07" x="0" y="142.86672" style="fill: #3bbb75; stroke: #3bbb75"/>
    </g>
   </g>
   <g id="PathCollection_16">
    <defs>
     <path id="m044fb7cf0d" d="M 202.536727 -17.415593 
L 203.854699 -15.715339 
L 209.590188 -15.715339 
L 216.643649 -15.715339 
L 223.697111 -15.715339 
L 227.974031 -15.715339 
L 223.697111 -19.95099 
L 220.368235 -23.573009 
L 216.643649 -27.416607 
L 213.053032 -31.430678 
L 209.590188 -37.442396 
L 208.631469 -39.288348 
L 206.151291 -47.146018 
L 204.497629 -55.003687 
L 203.317394 -62.861357 
L 202.536727 -69.879515 
L 202.452973 -70.719026 
L 201.824779 -78.576696 
L 201.295762 -86.434366 
L 200.867865 -94.292035 
L 200.522875 -102.149705 
L 200.230129 -110.007374 
L 199.965828 -117.865044 
L 199.781638 -125.722714 
L 195.483266 -125.722714 
L 188.429804 -125.722714 
L 182.43516 -125.722714 
L 182.561037 -117.865044 
L 182.76143 -110.007374 
L 183.004387 -102.149705 
L 183.299767 -94.292035 
L 183.665892 -86.434366 
L 184.111407 -78.576696 
L 184.655092 -70.719026 
L 185.352438 -62.861357 
L 186.288118 -55.003687 
L 187.586467 -47.146018 
L 188.429804 -43.719987 
L 189.567704 -39.288348 
L 192.855544 -31.430678 
L 195.483266 -27.398783 
L 198.266778 -23.573009 
z
" style="stroke: #21a685"/>
    </defs>
    <g clip-path="url(#p99e87049fd)">
     <use xlink:href="#m044fb7cf0d" x="0" y="142.86672" style="fill: #21a685; stroke: #21a685"/>
    </g>
   </g>
   <g id="PathCollection_17">
    <defs>
     <path id="m7bf74bcb33" d="M 181.376343 -23.497578 
L 186.003932 -15.715339 
L 188.429804 -15.715339 
L 195.483266 -15.715339 
L 202.536727 -15.715339 
L 203.854699 -15.715339 
L 202.536727 -17.415593 
L 198.266778 -23.573009 
L 195.483266 -27.398783 
L 192.855544 -31.430678 
L 189.567704 -39.288348 
L 188.429804 -43.719987 
L 187.586467 -47.146018 
L 186.288118 -55.003687 
L 185.352438 -62.861357 
L 184.655092 -70.719026 
L 184.111407 -78.576696 
L 183.665892 -86.434366 
L 183.299767 -94.292035 
L 183.004387 -102.149705 
L 182.76143 -110.007374 
L 182.561037 -117.865044 
L 182.43516 -125.722714 
L 181.376343 -125.722714 
L 174.322882 -125.722714 
L 174.322882 -117.865044 
L 174.322882 -110.007374 
L 174.322882 -102.149705 
L 174.322882 -94.292035 
L 174.322882 -86.434366 
L 174.322882 -78.576696 
L 174.322882 -70.719026 
L 174.322882 -62.861357 
L 174.322882 -55.003687 
L 174.322882 -47.146018 
L 174.322882 -39.288348 
L 174.322882 -31.835419 
L 174.55031 -31.430678 
L 181.315224 -23.573009 
z
" style="stroke: #21918c"/>
    </defs>
    <g clip-path="url(#p99e87049fd)">
     <use xlink:href="#m7bf74bcb33" x="0" y="142.86672" style="fill: #21918c; stroke: #21918c"/>
    </g>
   </g>
   <g id="PathCollection_18">
    <defs>
     <path id="m0ddf645123" d="M 181.376343 -15.715339 
L 186.003932 -15.715339 
L 181.376343 -23.497578 
L 181.315224 -23.573009 
L 174.55031 -31.430678 
L 174.322882 -31.835419 
L 174.322882 -31.430678 
L 174.322882 -23.573009 
L 174.322882 -15.715339 
z
" style="stroke: #297a8e"/>
    </defs>
    <g clip-path="url(#p99e87049fd)">
     <use xlink:href="#m0ddf645123" x="0" y="142.86672" style="fill: #297a8e; stroke: #297a8e"/>
    </g>
   </g>
   <g id="PathCollection_19"/>
   <g id="PathCollection_20"/>
   <g id="PathCollection_21"/>
   <g id="PathCollection_22"/>
   <g id="QuadContourSet_2">
    <path clip-path="url(#p99e87049fd)" style="fill: none; stroke: #3d4240; stroke-opacity: 0.1; stroke-width: 0.8"/>
    <path clip-path="url(#p99e87049fd)" style="fill: none; stroke: #3d4240; stroke-opacity: 0.1; stroke-width: 0.8"/>
    <path d="M 273.071339 98.456238 
L 270.399125 95.720702 
L 266.017878 89.056322 
L 265.501908 87.863033 
L 263.085243 80.005363 
L 261.257913 72.147694 
L 260.573941 68.399251 
M 257.867818 48.276575 
L 257.190113 40.717015 
L 256.579693 32.859346 
L 256.091653 25.001676 
L 255.797127 17.144006 
" clip-path="url(#p99e87049fd)" style="fill: none; stroke: #3d4240; stroke-opacity: 0.1; stroke-width: 0.8"/>
    <path d="M 261.914232 127.151381 
L 258.964417 124.983852 
L 251.910956 119.524861 
L 251.618868 119.293711 
L 244.857494 114.246127 
L 241.309575 111.436042 
L 237.804033 107.063968 
L 235.240204 103.578372 
L 231.716648 95.720702 
L 230.750572 92.568134 
L 229.419271 87.863033 
L 227.745229 80.005363 
L 226.444318 72.147694 
L 225.406544 64.290024 
L 224.576269 56.432354 
L 223.889454 48.574685 
L 223.697111 45.880419 
L 223.365484 40.717015 
L 223.000828 32.859346 
L 222.750626 25.001676 
L 222.588576 17.144006 
" clip-path="url(#p99e87049fd)" style="fill: none; stroke: #3d4240; stroke-opacity: 0.1; stroke-width: 0.8"/>
    <path d="M 227.974031 127.151381 
L 223.697111 122.91573 
L 220.368235 119.293711 
L 216.643649 115.450113 
L 213.053032 111.436042 
L 209.590188 105.424324 
L 208.631469 103.578372 
L 206.151291 95.720702 
L 204.952848 90.026089 
M 202.273575 69.903726 
L 201.824779 64.290024 
L 201.295762 56.432354 
L 200.867865 48.574685 
L 200.522875 40.717015 
L 200.230129 32.859346 
L 199.965828 25.001676 
L 199.781638 17.144006 
" clip-path="url(#p99e87049fd)" style="fill: none; stroke: #3d4240; stroke-opacity: 0.1; stroke-width: 0.8"/>
    <path d="M 203.854699 127.151381 
L 202.536727 125.451127 
L 198.266778 119.293711 
L 195.483266 115.467937 
L 192.855544 111.436042 
L 189.567704 103.578372 
L 188.429804 99.146733 
L 187.586467 95.720702 
L 186.288118 87.863033 
L 185.352438 80.005363 
L 184.655092 72.147694 
L 184.111407 64.290024 
L 183.665892 56.432354 
L 183.299767 48.574685 
L 183.004387 40.717015 
L 182.76143 32.859346 
L 182.561037 25.001676 
L 182.43516 17.144006 
" clip-path="url(#p99e87049fd)" style="fill: none; stroke: #3d4240; stroke-opacity: 0.1; stroke-width: 0.8"/>
    <path d="M 186.003932 127.151381 
L 181.376343 119.369142 
L 181.315224 119.293711 
L 174.55031 111.436042 
L 174.322882 111.031301 
" clip-path="url(#p99e87049fd)" style="fill: none; stroke: #3d4240; stroke-opacity: 0.1; stroke-width: 0.8"/>
    <path clip-path="url(#p99e87049fd)" style="fill: none; stroke: #3d4240; stroke-opacity: 0.1; stroke-width: 0.8"/>
    <path clip-path="url(#p99e87049fd)" style="fill: none; stroke: #3d4240; stroke-opacity: 0.1; stroke-width: 0.8"/>
    <path clip-path="url(#p99e87049fd)" style="fill: none; stroke: #3d4240; stroke-opacity: 0.1; stroke-width: 0.8"/>
    <path clip-path="url(#p99e87049fd)" style="fill: none; stroke: #3d4240; stroke-opacity: 0.1; stroke-width: 0.8"/>
    <path clip-path="url(#p99e87049fd)" style="fill: none; stroke: #3d4240; stroke-opacity: 0.1; stroke-width: 0.8"/>
   </g>
   <g id="text_18">
    <g clip-path="url(#p99e87049fd)">
     <!-- 4.8 -->
     <g transform="translate(251.319417 61.216651) scale(0.11 -0.11)">
      <use xlink:href="#ArialMT-34"/>
      <use xlink:href="#ArialMT-2e" x="55.615234"/>
      <use xlink:href="#ArialMT-38" x="83.398438"/>
     </g>
    </g>
   </g>
   <g id="text_19">
    <g clip-path="url(#p99e87049fd)">
     <!-- 6.6 -->
     <g transform="translate(195.672394 82.849035) scale(0.11 -0.11)">
      <use xlink:href="#ArialMT-36"/>
      <use xlink:href="#ArialMT-2e" x="55.615234"/>
      <use xlink:href="#ArialMT-36" x="83.398438"/>
     </g>
    </g>
   </g>
   <g id="matplotlib.axis_5">
    <g id="xtick_5">
     <g id="line2d_14">
      <g>
       <use xlink:href="#m064d1fada6" x="174.322882" y="127.151381" style="stroke: #000000; stroke-width: 0.8"/>
      </g>
     </g>
    </g>
    <g id="xtick_6">
     <g id="line2d_15">
      <g>
       <use xlink:href="#m064d1fada6" x="207.239034" y="127.151381" style="stroke: #000000; stroke-width: 0.8"/>
      </g>
     </g>
     <g id="text_20">
      <!-- 40 -->
      <g transform="translate(201.122003 140.524975) scale(0.11 -0.11)">
       <use xlink:href="#ArialMT-34"/>
       <use xlink:href="#ArialMT-30" x="55.615234"/>
      </g>
     </g>
    </g>
    <g id="xtick_7">
     <g id="line2d_16">
      <g>
       <use xlink:href="#m064d1fada6" x="240.155187" y="127.151381" style="stroke: #000000; stroke-width: 0.8"/>
      </g>
     </g>
     <g id="text_21">
      <!-- 50 -->
      <g transform="translate(234.038156 140.524975) scale(0.11 -0.11)">
       <use xlink:href="#ArialMT-35"/>
       <use xlink:href="#ArialMT-30" x="55.615234"/>
      </g>
     </g>
    </g>
    <g id="xtick_8">
     <g id="line2d_17">
      <g>
       <use xlink:href="#m064d1fada6" x="273.071339" y="127.151381" style="stroke: #000000; stroke-width: 0.8"/>
      </g>
     </g>
     <g id="text_22">
      <!-- 60 -->
      <g transform="translate(266.954308 140.524975) scale(0.11 -0.11)">
       <use xlink:href="#ArialMT-36"/>
       <use xlink:href="#ArialMT-30" x="55.615234"/>
      </g>
     </g>
    </g>
    <g id="text_23">
     <!-- Yield [$\mathrm{g} \cdot \mathrm{L}^{\mathrm{-1}}$] -->
     <g transform="translate(190.532111 156.611225) scale(0.11 -0.11)">
      <use xlink:href="#ArialMT-59" transform="translate(0 0.684375)"/>
      <use xlink:href="#ArialMT-69" transform="translate(66.699219 0.684375)"/>
      <use xlink:href="#ArialMT-65" transform="translate(88.916016 0.684375)"/>
      <use xlink:href="#ArialMT-6c" transform="translate(144.53125 0.684375)"/>
      <use xlink:href="#ArialMT-64" transform="translate(166.748047 0.684375)"/>
      <use xlink:href="#ArialMT-20" transform="translate(222.363281 0.684375)"/>
      <use xlink:href="#ArialMT-5b" transform="translate(250.146484 0.684375)"/>
      <use xlink:href="#DejaVuSans-67" transform="translate(277.929688 0.684375)"/>
      <use xlink:href="#DejaVuSans-22c5" transform="translate(360.888672 0.684375)"/>
      <use xlink:href="#DejaVuSans-4c" transform="translate(412.158203 0.684375)"/>
      <use xlink:href="#DejaVuSans-2212" transform="translate(468.828125 38.965625) scale(0.7)"/>
      <use xlink:href="#DejaVuSans-31" transform="translate(527.480469 38.965625) scale(0.7)"/>
      <use xlink:href="#ArialMT-5d" transform="translate(574.750977 0.684375)"/>
     </g>
    </g>
   </g>
   <g id="matplotlib.axis_6">
    <g id="ytick_10">
     <g id="line2d_18">
      <g>
       <use xlink:href="#m90d4e55e4e" x="174.322882" y="127.151381" style="stroke: #000000; stroke-width: 0.8"/>
      </g>
     </g>
    </g>
    <g id="ytick_11">
     <g id="line2d_19">
      <g>
       <use xlink:href="#m90d4e55e4e" x="174.322882" y="90.482256" style="stroke: #000000; stroke-width: 0.8"/>
      </g>
     </g>
    </g>
    <g id="ytick_12">
     <g id="line2d_20">
      <g>
       <use xlink:href="#m90d4e55e4e" x="174.322882" y="53.813131" style="stroke: #000000; stroke-width: 0.8"/>
      </g>
     </g>
    </g>
    <g id="ytick_13">
     <g id="line2d_21">
      <g>
       <use xlink:href="#m90d4e55e4e" x="174.322882" y="17.144006" style="stroke: #000000; stroke-width: 0.8"/>
      </g>
     </g>
    </g>
   </g>
   <g id="patch_10">
    <path d="M 174.322882 127.151381 
L 174.322882 17.144006 
" style="fill: none; stroke: #000000; stroke-width: 0.8; stroke-linejoin: miter; stroke-linecap: square"/>
   </g>
   <g id="patch_11">
    <path d="M 273.071339 127.151381 
L 273.071339 17.144006 
" style="fill: none; stroke: #000000; stroke-width: 0.8; stroke-linejoin: miter; stroke-linecap: square"/>
   </g>
   <g id="patch_12">
    <path d="M 174.322882 127.151381 
L 273.071339 127.151381 
" style="fill: none; stroke: #000000; stroke-width: 0.8; stroke-linejoin: miter; stroke-linecap: square"/>
   </g>
   <g id="patch_13">
    <path d="M 174.322882 17.144006 
L 273.071339 17.144006 
" style="fill: none; stroke: #000000; stroke-width: 0.8; stroke-linejoin: miter; stroke-linecap: square"/>
   </g>
  </g>
  <g id="axes_5">
   <g id="patch_14">
    <path d="M 289.117964 127.151381 
L 387.866421 127.151381 
L 387.866421 17.144006 
L 289.117964 17.144006 
L 289.117964 127.151381 
z
" style="fill: none"/>
   </g>
   <g id="PathCollection_23">
    <defs>
     <path id="mc07021a16c" d="M 387.866421 -60.193104 
L 387.866421 -62.861357 
L 387.866421 -70.719026 
L 387.866421 -78.576696 
L 387.866421 -86.434366 
L 387.866421 -94.292035 
L 387.866421 -102.149705 
L 387.866421 -110.007374 
L 387.866421 -117.865044 
L 387.866421 -125.722714 
L 380.81296 -125.722714 
L 376.172197 -125.722714 
L 376.58252 -117.865044 
L 377.230601 -110.007374 
L 377.947928 -102.149705 
L 378.762348 -94.292035 
L 379.786152 -86.434366 
L 380.81296 -80.100147 
L 381.187127 -78.576696 
L 383.588227 -70.719026 
L 386.569189 -62.861357 
z
" style="stroke: #e2e418"/>
    </defs>
    <g clip-path="url(#p2df645bc77)">
     <use xlink:href="#mc07021a16c" x="0" y="142.86672" style="fill: #e2e418; stroke: #e2e418"/>
    </g>
   </g>
   <g id="PathCollection_24">
    <defs>
     <path id="m645ad3806c" d="M 373.759499 -21.950708 
L 380.81296 -17.638082 
L 385.761111 -15.715339 
L 387.866421 -15.715339 
L 387.866421 -23.573009 
L 387.866421 -31.430678 
L 387.866421 -39.288348 
L 387.866421 -47.146018 
L 387.866421 -55.003687 
L 387.866421 -60.193104 
L 386.569189 -62.861357 
L 383.588227 -70.719026 
L 381.187127 -78.576696 
L 380.81296 -80.100147 
L 379.786152 -86.434366 
L 378.762348 -94.292035 
L 377.947928 -102.149705 
L 377.230601 -110.007374 
L 376.58252 -117.865044 
L 376.172197 -125.722714 
L 373.759499 -125.722714 
L 366.706038 -125.722714 
L 359.652576 -125.722714 
L 352.599115 -125.722714 
L 345.545654 -125.722714 
L 339.971713 -125.722714 
L 340.223177 -117.865044 
L 340.609035 -110.007374 
L 341.069018 -102.149705 
L 341.628264 -94.292035 
L 342.304158 -86.434366 
L 343.101594 -78.576696 
L 344.080953 -70.719026 
L 345.323688 -62.861357 
L 345.545654 -61.804467 
L 347.099281 -55.003687 
L 349.597018 -47.146018 
L 352.599115 -40.855145 
L 353.405772 -39.288348 
L 359.652576 -31.894241 
L 360.075406 -31.430678 
L 366.706038 -26.748436 
L 371.459974 -23.573009 
z
" style="stroke: #a5db36"/>
    </defs>
    <g clip-path="url(#p2df645bc77)">
     <use xlink:href="#m645ad3806c" x="0" y="142.86672" style="fill: #a5db36; stroke: #a5db36"/>
    </g>
   </g>
   <g id="PathCollection_25">
    <defs>
     <path id="m6dab2a4edb" d="M 338.492193 -22.943538 
L 345.545654 -16.151466 
L 346.045859 -15.715339 
L 352.599115 -15.715339 
L 359.652576 -15.715339 
L 366.706038 -15.715339 
L 373.759499 -15.715339 
L 380.81296 -15.715339 
L 385.761111 -15.715339 
L 380.81296 -17.638082 
L 373.759499 -21.950708 
L 371.459974 -23.573009 
L 366.706038 -26.748436 
L 360.075406 -31.430678 
L 359.652576 -31.894241 
L 353.405772 -39.288348 
L 352.599115 -40.855145 
L 349.597018 -47.146018 
L 347.099281 -55.003687 
L 345.545654 -61.804467 
L 345.323688 -62.861357 
L 344.080953 -70.719026 
L 343.101594 -78.576696 
L 342.304158 -86.434366 
L 341.628264 -94.292035 
L 341.069018 -102.149705 
L 340.609035 -110.007374 
L 340.223177 -117.865044 
L 339.971713 -125.722714 
L 338.492193 -125.722714 
L 331.438731 -125.722714 
L 324.38527 -125.722714 
L 317.331809 -125.722714 
L 315.47618 -125.722714 
L 315.65052 -117.865044 
L 315.926026 -110.007374 
L 316.257281 -102.149705 
L 316.639294 -94.292035 
L 317.081515 -86.434366 
L 317.331809 -82.758025 
L 317.65005 -78.576696 
L 318.401073 -70.719026 
L 319.357753 -62.861357 
L 320.628138 -55.003687 
L 322.420051 -47.146018 
L 324.38527 -41.442898 
L 325.211372 -39.288348 
L 330.048267 -31.430678 
L 331.438731 -29.928076 
L 337.895453 -23.573009 
z
" style="stroke: #69cd5b"/>
    </defs>
    <g clip-path="url(#p2df645bc77)">
     <use xlink:href="#m6dab2a4edb" x="0" y="142.86672" style="fill: #69cd5b; stroke: #69cd5b"/>
    </g>
   </g>
   <g id="PathCollection_26">
    <defs>
     <path id="m9c4f2fd998" d="M 317.331809 -19.75898 
L 320.515019 -15.715339 
L 324.38527 -15.715339 
L 331.438731 -15.715339 
L 338.492193 -15.715339 
L 345.545654 -15.715339 
L 346.045859 -15.715339 
L 345.545654 -16.151466 
L 338.492193 -22.943538 
L 337.895453 -23.573009 
L 331.438731 -29.928076 
L 330.048267 -31.430678 
L 325.211372 -39.288348 
L 324.38527 -41.442898 
L 322.420051 -47.146018 
L 320.628138 -55.003687 
L 319.357753 -62.861357 
L 318.401073 -70.719026 
L 317.65005 -78.576696 
L 317.331809 -82.758025 
L 317.081515 -86.434366 
L 316.639294 -94.292035 
L 316.257281 -102.149705 
L 315.926026 -110.007374 
L 315.65052 -117.865044 
L 315.47618 -125.722714 
L 310.278348 -125.722714 
L 303.224886 -125.722714 
L 297.36649 -125.722714 
L 297.500564 -117.865044 
L 297.736259 -110.007374 
L 298.034019 -102.149705 
L 298.380922 -94.292035 
L 298.784844 -86.434366 
L 299.260207 -78.576696 
L 299.843682 -70.719026 
L 300.603414 -62.861357 
L 301.638823 -55.003687 
L 303.116131 -47.146018 
L 303.224886 -46.750388 
L 305.364686 -39.288348 
L 308.853936 -31.430678 
L 310.278348 -29.324171 
L 314.613468 -23.573009 
z
" style="stroke: #3bbb75"/>
    </defs>
    <g clip-path="url(#p2df645bc77)">
     <use xlink:href="#m9c4f2fd998" x="0" y="142.86672" style="fill: #3bbb75; stroke: #3bbb75"/>
    </g>
   </g>
   <g id="PathCollection_27">
    <defs>
     <path id="m672d40f455" d="M 303.224886 -15.715339 
L 310.278348 -15.715339 
L 317.331809 -15.715339 
L 320.515019 -15.715339 
L 317.331809 -19.75898 
L 314.613468 -23.573009 
L 310.278348 -29.324171 
L 308.853936 -31.430678 
L 305.364686 -39.288348 
L 303.224886 -46.750388 
L 303.116131 -47.146018 
L 301.638823 -55.003687 
L 300.603414 -62.861357 
L 299.843682 -70.719026 
L 299.260207 -78.576696 
L 298.784844 -86.434366 
L 298.380922 -94.292035 
L 298.034019 -102.149705 
L 297.736259 -110.007374 
L 297.500564 -117.865044 
L 297.36649 -125.722714 
L 296.171425 -125.722714 
L 289.117964 -125.722714 
L 289.117964 -117.865044 
L 289.117964 -110.007374 
L 289.117964 -102.149705 
L 289.117964 -94.292035 
L 289.117964 -86.434366 
L 289.117964 -78.576696 
L 289.117964 -70.719026 
L 289.117964 -62.861357 
L 289.117964 -55.003687 
L 289.117964 -47.146018 
L 289.117964 -39.288348 
L 289.117964 -33.362965 
L 290.258083 -31.430678 
L 296.171425 -24.751954 
L 296.935085 -23.573009 
L 301.732154 -15.715339 
z
" style="stroke: #21a685"/>
    </defs>
    <g clip-path="url(#p2df645bc77)">
     <use xlink:href="#m672d40f455" x="0" y="142.86672" style="fill: #21a685; stroke: #21a685"/>
    </g>
   </g>
   <g id="PathCollection_28">
    <defs>
     <path id="m761c26634e" d="M 296.171425 -15.715339 
L 301.732154 -15.715339 
L 296.935085 -23.573009 
L 296.171425 -24.751954 
L 290.258083 -31.430678 
L 289.117964 -33.362965 
L 289.117964 -31.430678 
L 289.117964 -23.573009 
L 289.117964 -15.715339 
z
" style="stroke: #21918c"/>
    </defs>
    <g clip-path="url(#p2df645bc77)">
     <use xlink:href="#m761c26634e" x="0" y="142.86672" style="fill: #21918c; stroke: #21918c"/>
    </g>
   </g>
   <g id="PathCollection_29"/>
   <g id="PathCollection_30"/>
   <g id="PathCollection_31"/>
   <g id="PathCollection_32"/>
   <g id="PathCollection_33"/>
   <g id="QuadContourSet_3">
    <path clip-path="url(#p2df645bc77)" style="fill: none; stroke: #3d4240; stroke-opacity: 0.1; stroke-width: 0.8"/>
    <path d="M 387.866421 82.673616 
L 386.569189 80.005363 
L 383.588227 72.147694 
L 381.187127 64.290024 
L 380.81296 62.766573 
L 379.786152 56.432354 
L 378.762348 48.574685 
L 377.947928 40.717015 
L 377.230601 32.859346 
L 376.58252 25.001676 
L 376.172197 17.144006 
" clip-path="url(#p2df645bc77)" style="fill: none; stroke: #3d4240; stroke-opacity: 0.1; stroke-width: 0.8"/>
    <path d="M 385.761111 127.151381 
L 380.81296 125.228638 
L 373.759499 120.916012 
L 371.459974 119.293711 
L 366.706038 116.118284 
L 360.075406 111.436042 
L 359.652576 110.972479 
L 353.405772 103.578372 
L 352.599115 102.011575 
L 350.420126 97.445519 
M 344.995588 77.93083 
L 344.080953 72.147694 
L 343.101594 64.290024 
L 342.304158 56.432354 
L 341.628264 48.574685 
L 341.069018 40.717015 
L 340.609035 32.859346 
L 340.223177 25.001676 
L 339.971713 17.144006 
" clip-path="url(#p2df645bc77)" style="fill: none; stroke: #3d4240; stroke-opacity: 0.1; stroke-width: 0.8"/>
    <path d="M 346.045859 127.151381 
L 345.545654 126.715254 
L 338.492193 119.923182 
L 337.895453 119.293711 
L 331.438731 112.938644 
L 330.048267 111.436042 
L 325.211372 103.578372 
L 324.38527 101.423822 
L 322.420051 95.720702 
L 320.628138 87.863033 
L 319.357753 80.005363 
L 318.401073 72.147694 
L 317.65005 64.290024 
L 317.331809 60.108695 
L 317.081515 56.432354 
L 316.639294 48.574685 
L 316.257281 40.717015 
L 315.926026 32.859346 
L 315.65052 25.001676 
L 315.47618 17.144006 
" clip-path="url(#p2df645bc77)" style="fill: none; stroke: #3d4240; stroke-opacity: 0.1; stroke-width: 0.8"/>
    <path d="M 320.515019 127.151381 
L 317.331809 123.10774 
L 314.613468 119.293711 
L 310.278348 113.542549 
L 308.853936 111.436042 
L 305.364686 103.578372 
L 303.224886 96.116332 
L 303.116131 95.720702 
L 302.050984 90.05528 
M 299.676182 69.891966 
L 299.260207 64.290024 
L 298.784844 56.432354 
L 298.380922 48.574685 
L 298.034019 40.717015 
L 297.736259 32.859346 
L 297.500564 25.001676 
L 297.36649 17.144006 
" clip-path="url(#p2df645bc77)" style="fill: none; stroke: #3d4240; stroke-opacity: 0.1; stroke-width: 0.8"/>
    <path d="M 301.732154 127.151381 
L 296.935085 119.293711 
L 296.171425 118.114766 
L 290.258083 111.436042 
L 289.117964 109.503755 
" clip-path="url(#p2df645bc77)" style="fill: none; stroke: #3d4240; stroke-opacity: 0.1; stroke-width: 0.8"/>
    <path clip-path="url(#p2df645bc77)" style="fill: none; stroke: #3d4240; stroke-opacity: 0.1; stroke-width: 0.8"/>
    <path clip-path="url(#p2df645bc77)" style="fill: none; stroke: #3d4240; stroke-opacity: 0.1; stroke-width: 0.8"/>
    <path clip-path="url(#p2df645bc77)" style="fill: none; stroke: #3d4240; stroke-opacity: 0.1; stroke-width: 0.8"/>
    <path clip-path="url(#p2df645bc77)" style="fill: none; stroke: #3d4240; stroke-opacity: 0.1; stroke-width: 0.8"/>
    <path clip-path="url(#p2df645bc77)" style="fill: none; stroke: #3d4240; stroke-opacity: 0.1; stroke-width: 0.8"/>
    <path clip-path="url(#p2df645bc77)" style="fill: none; stroke: #3d4240; stroke-opacity: 0.1; stroke-width: 0.8"/>
   </g>
   <g id="text_24">
    <g clip-path="url(#p2df645bc77)">
     <!-- 4.8 -->
     <g transform="translate(339.454281 90.706705) scale(0.11 -0.11)">
      <use xlink:href="#ArialMT-34"/>
      <use xlink:href="#ArialMT-2e" x="55.615234"/>
      <use xlink:href="#ArialMT-38" x="83.398438"/>
     </g>
    </g>
   </g>
   <g id="text_25">
    <g clip-path="url(#p2df645bc77)">
     <!-- 6.6 -->
     <g transform="translate(292.958414 82.849035) scale(0.11 -0.11)">
      <use xlink:href="#ArialMT-36"/>
      <use xlink:href="#ArialMT-2e" x="55.615234"/>
      <use xlink:href="#ArialMT-36" x="83.398438"/>
     </g>
    </g>
   </g>
   <g id="matplotlib.axis_7">
    <g id="xtick_9">
     <g id="line2d_22">
      <g>
       <use xlink:href="#m064d1fada6" x="289.117964" y="127.151381" style="stroke: #000000; stroke-width: 0.8"/>
      </g>
     </g>
    </g>
    <g id="xtick_10">
     <g id="line2d_23">
      <g>
       <use xlink:href="#m064d1fada6" x="322.034116" y="127.151381" style="stroke: #000000; stroke-width: 0.8"/>
      </g>
     </g>
     <g id="text_26">
      <!-- 40 -->
      <g transform="translate(315.917085 140.524975) scale(0.11 -0.11)">
       <use xlink:href="#ArialMT-34"/>
       <use xlink:href="#ArialMT-30" x="55.615234"/>
      </g>
     </g>
    </g>
    <g id="xtick_11">
     <g id="line2d_24">
      <g>
       <use xlink:href="#m064d1fada6" x="354.950269" y="127.151381" style="stroke: #000000; stroke-width: 0.8"/>
      </g>
     </g>
     <g id="text_27">
      <!-- 50 -->
      <g transform="translate(348.833238 140.524975) scale(0.11 -0.11)">
       <use xlink:href="#ArialMT-35"/>
       <use xlink:href="#ArialMT-30" x="55.615234"/>
      </g>
     </g>
    </g>
    <g id="xtick_12">
     <g id="line2d_25">
      <g>
       <use xlink:href="#m064d1fada6" x="387.866421" y="127.151381" style="stroke: #000000; stroke-width: 0.8"/>
      </g>
     </g>
     <g id="text_28">
      <!-- 60 -->
      <g transform="translate(381.74939 140.524975) scale(0.11 -0.11)">
       <use xlink:href="#ArialMT-36"/>
       <use xlink:href="#ArialMT-30" x="55.615234"/>
      </g>
     </g>
    </g>
    <g id="text_29">
     <!-- Yield [$\mathrm{g} \cdot \mathrm{L}^{\mathrm{-1}}$] -->
     <g transform="translate(305.327193 156.611225) scale(0.11 -0.11)">
      <use xlink:href="#ArialMT-59" transform="translate(0 0.684375)"/>
      <use xlink:href="#ArialMT-69" transform="translate(66.699219 0.684375)"/>
      <use xlink:href="#ArialMT-65" transform="translate(88.916016 0.684375)"/>
      <use xlink:href="#ArialMT-6c" transform="translate(144.53125 0.684375)"/>
      <use xlink:href="#ArialMT-64" transform="translate(166.748047 0.684375)"/>
      <use xlink:href="#ArialMT-20" transform="translate(222.363281 0.684375)"/>
      <use xlink:href="#ArialMT-5b" transform="translate(250.146484 0.684375)"/>
      <use xlink:href="#DejaVuSans-67" transform="translate(277.929688 0.684375)"/>
      <use xlink:href="#DejaVuSans-22c5" transform="translate(360.888672 0.684375)"/>
      <use xlink:href="#DejaVuSans-4c" transform="translate(412.158203 0.684375)"/>
      <use xlink:href="#DejaVuSans-2212" transform="translate(468.828125 38.965625) scale(0.7)"/>
      <use xlink:href="#DejaVuSans-31" transform="translate(527.480469 38.965625) scale(0.7)"/>
      <use xlink:href="#ArialMT-5d" transform="translate(574.750977 0.684375)"/>
     </g>
    </g>
   </g>
   <g id="matplotlib.axis_8">
    <g id="ytick_14">
     <g id="line2d_26">
      <g>
       <use xlink:href="#m90d4e55e4e" x="289.117964" y="127.151381" style="stroke: #000000; stroke-width: 0.8"/>
      </g>
     </g>
    </g>
    <g id="ytick_15">
     <g id="line2d_27">
      <g>
       <use xlink:href="#m90d4e55e4e" x="289.117964" y="90.482256" style="stroke: #000000; stroke-width: 0.8"/>
      </g>
     </g>
    </g>
    <g id="ytick_16">
     <g id="line2d_28">
      <g>
       <use xlink:href="#m90d4e55e4e" x="289.117964" y="53.813131" style="stroke: #000000; stroke-width: 0.8"/>
      </g>
     </g>
    </g>
    <g id="ytick_17">
     <g id="line2d_29">
      <g>
       <use xlink:href="#m90d4e55e4e" x="289.117964" y="17.144006" style="stroke: #000000; stroke-width: 0.8"/>
      </g>
     </g>
    </g>
   </g>
   <g id="patch_15">
    <path d="M 289.117964 127.151381 
L 289.117964 17.144006 
" style="fill: none; stroke: #000000; stroke-width: 0.8; stroke-linejoin: miter; stroke-linecap: square"/>
   </g>
   <g id="patch_16">
    <path d="M 387.866421 127.151381 
L 387.866421 17.144006 
" style="fill: none; stroke: #000000; stroke-width: 0.8; stroke-linejoin: miter; stroke-linecap: square"/>
   </g>
   <g id="patch_17">
    <path d="M 289.117964 127.151381 
L 387.866421 127.151381 
" style="fill: none; stroke: #000000; stroke-width: 0.8; stroke-linejoin: miter; stroke-linecap: square"/>
   </g>
   <g id="patch_18">
    <path d="M 289.117964 17.144006 
L 387.866421 17.144006 
" style="fill: none; stroke: #000000; stroke-width: 0.8; stroke-linejoin: miter; stroke-linecap: square"/>
   </g>
  </g>
  <g id="axes_6">
   <g id="matplotlib.axis_9">
    <g id="ytick_18">
     <g id="line2d_30">
      <defs>
       <path id="mdc76336520" d="M 0 0 
L -4 0 
" style="stroke: #000000; stroke-width: 0.8"/>
      </defs>
      <g>
       <use xlink:href="#mdc76336520" x="158.276258" y="127.151381" style="stroke: #000000; stroke-width: 0.8"/>
      </g>
     </g>
    </g>
    <g id="ytick_19">
     <g id="line2d_31">
      <g>
       <use xlink:href="#mdc76336520" x="158.276258" y="90.482256" style="stroke: #000000; stroke-width: 0.8"/>
      </g>
     </g>
    </g>
    <g id="ytick_20">
     <g id="line2d_32">
      <g>
       <use xlink:href="#mdc76336520" x="158.276258" y="53.813131" style="stroke: #000000; stroke-width: 0.8"/>
      </g>
     </g>
    </g>
    <g id="ytick_21">
     <g id="line2d_33">
      <g>
       <use xlink:href="#mdc76336520" x="158.276258" y="17.144006" style="stroke: #000000; stroke-width: 0.8"/>
      </g>
     </g>
    </g>
   </g>
   <g id="patch_19">
    <path d="M 59.5278 127.151381 
L 59.5278 17.144006 
" style="fill: none; stroke: #000000; stroke-width: 0.8; stroke-linejoin: miter; stroke-linecap: square"/>
   </g>
   <g id="patch_20">
    <path d="M 158.276258 127.151381 
L 158.276258 17.144006 
" style="fill: none; stroke: #000000; stroke-width: 0.8; stroke-linejoin: miter; stroke-linecap: square"/>
   </g>
   <g id="patch_21">
    <path d="M 59.5278 127.151381 
L 158.276258 127.151381 
" style="fill: none; stroke: #000000; stroke-width: 0.8; stroke-linejoin: miter; stroke-linecap: square"/>
   </g>
   <g id="patch_22">
    <path d="M 59.5278 17.144006 
L 158.276258 17.144006 
" style="fill: none; stroke: #000000; stroke-width: 0.8; stroke-linejoin: miter; stroke-linecap: square"/>
   </g>
  </g>
  <g id="axes_7">
   <g id="matplotlib.axis_10">
    <g id="xtick_13">
     <g id="line2d_34">
      <defs>
       <path id="ma86130b5f8" d="M 0 0 
L 0 4 
" style="stroke: #000000; stroke-width: 0.8"/>
      </defs>
      <g>
       <use xlink:href="#ma86130b5f8" x="59.5278" y="17.144006" style="stroke: #000000; stroke-width: 0.8"/>
      </g>
     </g>
    </g>
    <g id="xtick_14">
     <g id="line2d_35">
      <g>
       <use xlink:href="#ma86130b5f8" x="92.443953" y="17.144006" style="stroke: #000000; stroke-width: 0.8"/>
      </g>
     </g>
    </g>
    <g id="xtick_15">
     <g id="line2d_36">
      <g>
       <use xlink:href="#ma86130b5f8" x="125.360105" y="17.144006" style="stroke: #000000; stroke-width: 0.8"/>
      </g>
     </g>
    </g>
    <g id="xtick_16">
     <g id="line2d_37">
      <g>
       <use xlink:href="#ma86130b5f8" x="158.276258" y="17.144006" style="stroke: #000000; stroke-width: 0.8"/>
      </g>
     </g>
    </g>
   </g>
   <g id="patch_23">
    <path d="M 59.5278 127.151381 
L 59.5278 17.144006 
" style="fill: none; stroke: #000000; stroke-width: 0.8; stroke-linejoin: miter; stroke-linecap: square"/>
   </g>
   <g id="patch_24">
    <path d="M 158.276258 127.151381 
L 158.276258 17.144006 
" style="fill: none; stroke: #000000; stroke-width: 0.8; stroke-linejoin: miter; stroke-linecap: square"/>
   </g>
   <g id="patch_25">
    <path d="M 59.5278 127.151381 
L 158.276258 127.151381 
" style="fill: none; stroke: #000000; stroke-width: 0.8; stroke-linejoin: miter; stroke-linecap: square"/>
   </g>
   <g id="patch_26">
    <path d="M 59.5278 17.144006 
L 158.276258 17.144006 
" style="fill: none; stroke: #000000; stroke-width: 0.8; stroke-linejoin: miter; stroke-linecap: square"/>
   </g>
  </g>
  <g id="axes_8">
   <g id="matplotlib.axis_11">
    <g id="ytick_22">
     <g id="line2d_38">
      <g>
       <use xlink:href="#mdc76336520" x="273.071339" y="127.151381" style="stroke: #000000; stroke-width: 0.8"/>
      </g>
     </g>
    </g>
    <g id="ytick_23">
     <g id="line2d_39">
      <g>
       <use xlink:href="#mdc76336520" x="273.071339" y="90.482256" style="stroke: #000000; stroke-width: 0.8"/>
      </g>
     </g>
    </g>
    <g id="ytick_24">
     <g id="line2d_40">
      <g>
       <use xlink:href="#mdc76336520" x="273.071339" y="53.813131" style="stroke: #000000; stroke-width: 0.8"/>
      </g>
     </g>
    </g>
    <g id="ytick_25">
     <g id="line2d_41">
      <g>
       <use xlink:href="#mdc76336520" x="273.071339" y="17.144006" style="stroke: #000000; stroke-width: 0.8"/>
      </g>
     </g>
    </g>
   </g>
   <g id="patch_27">
    <path d="M 174.322882 127.151381 
L 174.322882 17.144006 
" style="fill: none; stroke: #000000; stroke-width: 0.8; stroke-linejoin: miter; stroke-linecap: square"/>
   </g>
   <g id="patch_28">
    <path d="M 273.071339 127.151381 
L 273.071339 17.144006 
" style="fill: none; stroke: #000000; stroke-width: 0.8; stroke-linejoin: miter; stroke-linecap: square"/>
   </g>
   <g id="patch_29">
    <path d="M 174.322882 127.151381 
L 273.071339 127.151381 
" style="fill: none; stroke: #000000; stroke-width: 0.8; stroke-linejoin: miter; stroke-linecap: square"/>
   </g>
   <g id="patch_30">
    <path d="M 174.322882 17.144006 
L 273.071339 17.144006 
" style="fill: none; stroke: #000000; stroke-width: 0.8; stroke-linejoin: miter; stroke-linecap: square"/>
   </g>
  </g>
  <g id="axes_9">
   <g id="matplotlib.axis_12">
    <g id="xtick_17">
     <g id="line2d_42">
      <g>
       <use xlink:href="#ma86130b5f8" x="174.322882" y="17.144006" style="stroke: #000000; stroke-width: 0.8"/>
      </g>
     </g>
    </g>
    <g id="xtick_18">
     <g id="line2d_43">
      <g>
       <use xlink:href="#ma86130b5f8" x="207.239034" y="17.144006" style="stroke: #000000; stroke-width: 0.8"/>
      </g>
     </g>
    </g>
    <g id="xtick_19">
     <g id="line2d_44">
      <g>
       <use xlink:href="#ma86130b5f8" x="240.155187" y="17.144006" style="stroke: #000000; stroke-width: 0.8"/>
      </g>
     </g>
    </g>
    <g id="xtick_20">
     <g id="line2d_45">
      <g>
       <use xlink:href="#ma86130b5f8" x="273.071339" y="17.144006" style="stroke: #000000; stroke-width: 0.8"/>
      </g>
     </g>
    </g>
   </g>
   <g id="patch_31">
    <path d="M 174.322882 127.151381 
L 174.322882 17.144006 
" style="fill: none; stroke: #000000; stroke-width: 0.8; stroke-linejoin: miter; stroke-linecap: square"/>
   </g>
   <g id="patch_32">
    <path d="M 273.071339 127.151381 
L 273.071339 17.144006 
" style="fill: none; stroke: #000000; stroke-width: 0.8; stroke-linejoin: miter; stroke-linecap: square"/>
   </g>
   <g id="patch_33">
    <path d="M 174.322882 127.151381 
L 273.071339 127.151381 
" style="fill: none; stroke: #000000; stroke-width: 0.8; stroke-linejoin: miter; stroke-linecap: square"/>
   </g>
   <g id="patch_34">
    <path d="M 174.322882 17.144006 
L 273.071339 17.144006 
" style="fill: none; stroke: #000000; stroke-width: 0.8; stroke-linejoin: miter; stroke-linecap: square"/>
   </g>
  </g>
  <g id="axes_10">
   <g id="matplotlib.axis_13">
    <g id="ytick_26">
     <g id="line2d_46">
      <g>
       <use xlink:href="#mdc76336520" x="387.866421" y="127.151381" style="stroke: #000000; stroke-width: 0.8"/>
      </g>
     </g>
    </g>
    <g id="ytick_27">
     <g id="line2d_47">
      <g>
       <use xlink:href="#mdc76336520" x="387.866421" y="90.482256" style="stroke: #000000; stroke-width: 0.8"/>
      </g>
     </g>
    </g>
    <g id="ytick_28">
     <g id="line2d_48">
      <g>
       <use xlink:href="#mdc76336520" x="387.866421" y="53.813131" style="stroke: #000000; stroke-width: 0.8"/>
      </g>
     </g>
    </g>
    <g id="ytick_29">
     <g id="line2d_49">
      <g>
       <use xlink:href="#mdc76336520" x="387.866421" y="17.144006" style="stroke: #000000; stroke-width: 0.8"/>
      </g>
     </g>
    </g>
   </g>
   <g id="patch_35">
    <path d="M 289.117964 127.151381 
L 289.117964 17.144006 
" style="fill: none; stroke: #000000; stroke-width: 0.8; stroke-linejoin: miter; stroke-linecap: square"/>
   </g>
   <g id="patch_36">
    <path d="M 387.866421 127.151381 
L 387.866421 17.144006 
" style="fill: none; stroke: #000000; stroke-width: 0.8; stroke-linejoin: miter; stroke-linecap: square"/>
   </g>
   <g id="patch_37">
    <path d="M 289.117964 127.151381 
L 387.866421 127.151381 
" style="fill: none; stroke: #000000; stroke-width: 0.8; stroke-linejoin: miter; stroke-linecap: square"/>
   </g>
   <g id="patch_38">
    <path d="M 289.117964 17.144006 
L 387.866421 17.144006 
" style="fill: none; stroke: #000000; stroke-width: 0.8; stroke-linejoin: miter; stroke-linecap: square"/>
   </g>
  </g>
  <g id="axes_11">
   <g id="matplotlib.axis_14">
    <g id="xtick_21">
     <g id="line2d_50">
      <g>
       <use xlink:href="#ma86130b5f8" x="289.117964" y="17.144006" style="stroke: #000000; stroke-width: 0.8"/>
      </g>
     </g>
    </g>
    <g id="xtick_22">
     <g id="line2d_51">
      <g>
       <use xlink:href="#ma86130b5f8" x="322.034116" y="17.144006" style="stroke: #000000; stroke-width: 0.8"/>
      </g>
     </g>
    </g>
    <g id="xtick_23">
     <g id="line2d_52">
      <g>
       <use xlink:href="#ma86130b5f8" x="354.950269" y="17.144006" style="stroke: #000000; stroke-width: 0.8"/>
      </g>
     </g>
    </g>
    <g id="xtick_24">
     <g id="line2d_53">
      <g>
       <use xlink:href="#ma86130b5f8" x="387.866421" y="17.144006" style="stroke: #000000; stroke-width: 0.8"/>
      </g>
     </g>
    </g>
   </g>
   <g id="patch_39">
    <path d="M 289.117964 127.151381 
L 289.117964 17.144006 
" style="fill: none; stroke: #000000; stroke-width: 0.8; stroke-linejoin: miter; stroke-linecap: square"/>
   </g>
   <g id="patch_40">
    <path d="M 387.866421 127.151381 
L 387.866421 17.144006 
" style="fill: none; stroke: #000000; stroke-width: 0.8; stroke-linejoin: miter; stroke-linecap: square"/>
   </g>
   <g id="patch_41">
    <path d="M 289.117964 127.151381 
L 387.866421 127.151381 
" style="fill: none; stroke: #000000; stroke-width: 0.8; stroke-linejoin: miter; stroke-linecap: square"/>
   </g>
   <g id="patch_42">
    <path d="M 289.117964 17.144006 
L 387.866421 17.144006 
" style="fill: none; stroke: #000000; stroke-width: 0.8; stroke-linejoin: miter; stroke-linecap: square"/>
   </g>
  </g>
 </g>
 <defs>
  <clipPath id="p76fd245b36">
   <rect x="416.256603" y="17.144006" width="5.500369" height="110.007374"/>
  </clipPath>
  <clipPath id="pc70aa9a605">
   <rect x="59.5278" y="17.144006" width="98.748458" height="110.007374"/>
  </clipPath>
  <clipPath id="p99e87049fd">
   <rect x="174.322882" y="17.144006" width="98.748458" height="110.007374"/>
  </clipPath>
  <clipPath id="p2df645bc77">
   <rect x="289.117964" y="17.144006" width="98.748458" height="110.007374"/>
  </clipPath>
 </defs>
</svg>
