<?xml version="1.0" encoding="utf-8" standalone="no"?>
<!DOCTYPE svg PUBLIC "-//W3C//DTD SVG 1.1//EN"
  "http://www.w3.org/Graphics/SVG/1.1/DTD/svg11.dtd">
<svg xmlns:xlink="http://www.w3.org/1999/xlink" width="476.2224pt" height="142.86672pt" viewBox="0 0 476.2224 142.86672" xmlns="http://www.w3.org/2000/svg" version="1.1">
 <metadata>
  <rdf:RDF xmlns:dc="http://purl.org/dc/elements/1.1/" xmlns:cc="http://creativecommons.org/ns#" xmlns:rdf="http://www.w3.org/1999/02/22-rdf-syntax-ns#">
   <cc:Work>
    <dc:type rdf:resource="http://purl.org/dc/dcmitype/StillImage"/>
    <dc:date>2024-11-12T11:37:50.856381</dc:date>
    <dc:format>image/svg+xml</dc:format>
    <dc:creator>
     <cc:Agent>
      <dc:title>Matplotlib v3.8.4, https://matplotlib.org/</dc:title>
     </cc:Agent>
    </dc:creator>
   </cc:Work>
  </rdf:RDF>
 </metadata>
 <defs>
  <style type="text/css">*{stroke-linejoin: round; stroke-linecap: butt}</style>
 </defs>
 <g id="figure_1">
  <g id="patch_1">
   <path d="M 0 142.86672 
L 476.2224 142.86672 
L 476.2224 0 
L 0 0 
L 0 142.86672 
z
" style="fill: none"/>
  </g>
  <g id="axes_1"/>
  <g id="axes_2">
   <g id="patch_2">
    <path d="M 416.256603 127.151381 
L 421.756972 127.151381 
L 421.756972 17.144006 
L 416.256603 17.144006 
L 416.256603 127.151381 
z
" style="fill: none"/>
   </g>
   <g id="QuadMesh_1">
    <path d="M 416.256603 127.151381 
L 421.756972 127.151381 
L 421.756972 117.15071 
L 416.256603 117.15071 
L 416.256603 127.151381 
" clip-path="url(#p18f3f7423b)" style="fill: #e2e418"/>
    <path d="M 416.256603 117.15071 
L 421.756972 117.15071 
L 421.756972 107.15004 
L 416.256603 107.15004 
L 416.256603 117.15071 
" clip-path="url(#p18f3f7423b)" style="fill: #a5db36"/>
    <path d="M 416.256603 107.15004 
L 421.756972 107.15004 
L 421.756972 97.14937 
L 416.256603 97.14937 
L 416.256603 107.15004 
" clip-path="url(#p18f3f7423b)" style="fill: #69cd5b"/>
    <path d="M 416.256603 97.14937 
L 421.756972 97.14937 
L 421.756972 87.148699 
L 416.256603 87.148699 
L 416.256603 97.14937 
" clip-path="url(#p18f3f7423b)" style="fill: #3bbb75"/>
    <path d="M 416.256603 87.148699 
L 421.756972 87.148699 
L 421.756972 77.148029 
L 416.256603 77.148029 
L 416.256603 87.148699 
" clip-path="url(#p18f3f7423b)" style="fill: #21a685"/>
    <path d="M 416.256603 77.148029 
L 421.756972 77.148029 
L 421.756972 67.147358 
L 416.256603 67.147358 
L 416.256603 77.148029 
" clip-path="url(#p18f3f7423b)" style="fill: #21908d"/>
    <path d="M 416.256603 67.147358 
L 421.756972 67.147358 
L 421.756972 57.146688 
L 416.256603 57.146688 
L 416.256603 67.147358 
" clip-path="url(#p18f3f7423b)" style="fill: #297a8e"/>
    <path d="M 416.256603 57.146688 
L 421.756972 57.146688 
L 421.756972 47.146018 
L 416.256603 47.146018 
L 416.256603 57.146688 
" clip-path="url(#p18f3f7423b)" style="fill: #32648e"/>
    <path d="M 416.256603 47.146018 
L 421.756972 47.146018 
L 421.756972 37.145347 
L 416.256603 37.145347 
L 416.256603 47.146018 
" clip-path="url(#p18f3f7423b)" style="fill: #3e4c8a"/>
    <path d="M 416.256603 37.145347 
L 421.756972 37.145347 
L 421.756972 27.144677 
L 416.256603 27.144677 
L 416.256603 37.145347 
" clip-path="url(#p18f3f7423b)" style="fill: #472f7d"/>
    <path d="M 416.256603 27.144677 
L 421.756972 27.144677 
L 421.756972 17.144006 
L 416.256603 17.144006 
L 416.256603 27.144677 
" clip-path="url(#p18f3f7423b)" style="fill: #471164"/>
   </g>
   <g id="matplotlib.axis_1"/>
   <g id="matplotlib.axis_2">
    <g id="ytick_1">
     <g id="line2d_1">
      <defs>
       <path id="ma4cc32dae3" d="M 0 0 
L 3.5 0 
" style="stroke: #000000; stroke-width: 0.8"/>
      </defs>
      <g>
       <use xlink:href="#ma4cc32dae3" x="421.756972" y="127.151381" style="stroke: #000000; stroke-width: 0.8"/>
      </g>
     </g>
     <g id="text_1">
      <!-- 3 -->
      <g transform="translate(428.756972 131.088178) scale(0.11 -0.11)">
       <defs>
        <path id="ArialMT-33" d="M 269 1209 
L 831 1284 
Q 928 806 1161 595 
Q 1394 384 1728 384 
Q 2125 384 2398 659 
Q 2672 934 2672 1341 
Q 2672 1728 2419 1979 
Q 2166 2231 1775 2231 
Q 1616 2231 1378 2169 
L 1441 2663 
Q 1497 2656 1531 2656 
Q 1891 2656 2178 2843 
Q 2466 3031 2466 3422 
Q 2466 3731 2256 3934 
Q 2047 4138 1716 4138 
Q 1388 4138 1169 3931 
Q 950 3725 888 3313 
L 325 3413 
Q 428 3978 793 4289 
Q 1159 4600 1703 4600 
Q 2078 4600 2393 4439 
Q 2709 4278 2876 4000 
Q 3044 3722 3044 3409 
Q 3044 3113 2884 2869 
Q 2725 2625 2413 2481 
Q 2819 2388 3044 2092 
Q 3269 1797 3269 1353 
Q 3269 753 2831 336 
Q 2394 -81 1725 -81 
Q 1122 -81 723 278 
Q 325 638 269 1209 
z
" transform="scale(0.015625)"/>
       </defs>
       <use xlink:href="#ArialMT-33"/>
      </g>
     </g>
    </g>
    <g id="ytick_2">
     <g id="line2d_2">
      <g>
       <use xlink:href="#ma4cc32dae3" x="421.756972" y="99.649537" style="stroke: #000000; stroke-width: 0.8"/>
      </g>
     </g>
     <g id="text_2">
      <!-- 5 -->
      <g transform="translate(428.756972 103.586334) scale(0.11 -0.11)">
       <defs>
        <path id="ArialMT-35" d="M 266 1200 
L 856 1250 
Q 922 819 1161 601 
Q 1400 384 1738 384 
Q 2144 384 2425 690 
Q 2706 997 2706 1503 
Q 2706 1984 2436 2262 
Q 2166 2541 1728 2541 
Q 1456 2541 1237 2417 
Q 1019 2294 894 2097 
L 366 2166 
L 809 4519 
L 3088 4519 
L 3088 3981 
L 1259 3981 
L 1013 2750 
Q 1425 3038 1878 3038 
Q 2478 3038 2890 2622 
Q 3303 2206 3303 1553 
Q 3303 931 2941 478 
Q 2500 -78 1738 -78 
Q 1113 -78 717 272 
Q 322 622 266 1200 
z
" transform="scale(0.015625)"/>
       </defs>
       <use xlink:href="#ArialMT-35"/>
      </g>
     </g>
    </g>
    <g id="ytick_3">
     <g id="line2d_3">
      <g>
       <use xlink:href="#ma4cc32dae3" x="421.756972" y="72.147694" style="stroke: #000000; stroke-width: 0.8"/>
      </g>
     </g>
     <g id="text_3">
      <!-- 7 -->
      <g transform="translate(428.756972 76.08449) scale(0.11 -0.11)">
       <defs>
        <path id="ArialMT-37" d="M 303 3981 
L 303 4522 
L 3269 4522 
L 3269 4084 
Q 2831 3619 2401 2847 
Q 1972 2075 1738 1259 
Q 1569 684 1522 0 
L 944 0 
Q 953 541 1156 1306 
Q 1359 2072 1739 2783 
Q 2119 3494 2547 3981 
L 303 3981 
z
" transform="scale(0.015625)"/>
       </defs>
       <use xlink:href="#ArialMT-37"/>
      </g>
     </g>
    </g>
    <g id="ytick_4">
     <g id="line2d_4">
      <g>
       <use xlink:href="#ma4cc32dae3" x="421.756972" y="44.64585" style="stroke: #000000; stroke-width: 0.8"/>
      </g>
     </g>
     <g id="text_4">
      <!-- 9 -->
      <g transform="translate(428.756972 48.582647) scale(0.11 -0.11)">
       <defs>
        <path id="ArialMT-39" d="M 350 1059 
L 891 1109 
Q 959 728 1153 556 
Q 1347 384 1650 384 
Q 1909 384 2104 503 
Q 2300 622 2425 820 
Q 2550 1019 2634 1356 
Q 2719 1694 2719 2044 
Q 2719 2081 2716 2156 
Q 2547 1888 2255 1720 
Q 1963 1553 1622 1553 
Q 1053 1553 659 1965 
Q 266 2378 266 3053 
Q 266 3750 677 4175 
Q 1088 4600 1706 4600 
Q 2153 4600 2523 4359 
Q 2894 4119 3086 3673 
Q 3278 3228 3278 2384 
Q 3278 1506 3087 986 
Q 2897 466 2520 194 
Q 2144 -78 1638 -78 
Q 1100 -78 759 220 
Q 419 519 350 1059 
z
M 2653 3081 
Q 2653 3566 2395 3850 
Q 2138 4134 1775 4134 
Q 1400 4134 1122 3828 
Q 844 3522 844 3034 
Q 844 2597 1108 2323 
Q 1372 2050 1759 2050 
Q 2150 2050 2401 2323 
Q 2653 2597 2653 3081 
z
" transform="scale(0.015625)"/>
       </defs>
       <use xlink:href="#ArialMT-39"/>
      </g>
     </g>
    </g>
    <g id="ytick_5">
     <g id="line2d_5">
      <g>
       <use xlink:href="#ma4cc32dae3" x="421.756972" y="17.144006" style="stroke: #000000; stroke-width: 0.8"/>
      </g>
     </g>
     <g id="text_5">
      <!-- 11 -->
      <g transform="translate(428.756972 21.080803) scale(0.11 -0.11)">
       <defs>
        <path id="ArialMT-31" d="M 2384 0 
L 1822 0 
L 1822 3584 
Q 1619 3391 1289 3197 
Q 959 3003 697 2906 
L 697 3450 
Q 1169 3672 1522 3987 
Q 1875 4303 2022 4600 
L 2384 4600 
L 2384 0 
z
" transform="scale(0.015625)"/>
       </defs>
       <use xlink:href="#ArialMT-31"/>
       <use xlink:href="#ArialMT-31" x="48.240234"/>
      </g>
     </g>
    </g>
   </g>
   <g id="LineCollection_1"/>
   <g id="patch_3">
    <path d="M 416.256603 127.151381 
L 419.006787 127.151381 
L 421.756972 127.151381 
L 421.756972 17.144006 
L 419.006787 17.144006 
L 416.256603 17.144006 
L 416.256603 127.151381 
z
" style="fill: none; stroke: #000000; stroke-width: 0.8; stroke-linejoin: miter; stroke-linecap: square"/>
   </g>
   <g id="text_6">
    <!-- MSP -->
    <g transform="translate(406.0046 -4.200994) scale(0.12 -0.12)">
     <defs>
      <path id="ArialMT-4d" d="M 475 0 
L 475 4581 
L 1388 4581 
L 2472 1338 
Q 2622 884 2691 659 
Q 2769 909 2934 1394 
L 4031 4581 
L 4847 4581 
L 4847 0 
L 4263 0 
L 4263 3834 
L 2931 0 
L 2384 0 
L 1059 3900 
L 1059 0 
L 475 0 
z
" transform="scale(0.015625)"/>
      <path id="ArialMT-53" d="M 288 1472 
L 859 1522 
Q 900 1178 1048 958 
Q 1197 738 1509 602 
Q 1822 466 2213 466 
Q 2559 466 2825 569 
Q 3091 672 3220 851 
Q 3350 1031 3350 1244 
Q 3350 1459 3225 1620 
Q 3100 1781 2813 1891 
Q 2628 1963 1997 2114 
Q 1366 2266 1113 2400 
Q 784 2572 623 2826 
Q 463 3081 463 3397 
Q 463 3744 659 4045 
Q 856 4347 1234 4503 
Q 1613 4659 2075 4659 
Q 2584 4659 2973 4495 
Q 3363 4331 3572 4012 
Q 3781 3694 3797 3291 
L 3216 3247 
Q 3169 3681 2898 3903 
Q 2628 4125 2100 4125 
Q 1550 4125 1298 3923 
Q 1047 3722 1047 3438 
Q 1047 3191 1225 3031 
Q 1400 2872 2139 2705 
Q 2878 2538 3153 2413 
Q 3553 2228 3743 1945 
Q 3934 1663 3934 1294 
Q 3934 928 3725 604 
Q 3516 281 3123 101 
Q 2731 -78 2241 -78 
Q 1619 -78 1198 103 
Q 778 284 539 648 
Q 300 1013 288 1472 
z
" transform="scale(0.015625)"/>
      <path id="ArialMT-50" d="M 494 0 
L 494 4581 
L 2222 4581 
Q 2678 4581 2919 4538 
Q 3256 4481 3484 4323 
Q 3713 4166 3852 3881 
Q 3991 3597 3991 3256 
Q 3991 2672 3619 2267 
Q 3247 1863 2275 1863 
L 1100 1863 
L 1100 0 
L 494 0 
z
M 1100 2403 
L 2284 2403 
Q 2872 2403 3119 2622 
Q 3366 2841 3366 3238 
Q 3366 3525 3220 3729 
Q 3075 3934 2838 4000 
Q 2684 4041 2272 4041 
L 1100 4041 
L 1100 2403 
z
" transform="scale(0.015625)"/>
     </defs>
     <use xlink:href="#ArialMT-4d"/>
     <use xlink:href="#ArialMT-53" x="83.300781"/>
     <use xlink:href="#ArialMT-50" x="150"/>
    </g>
    <!-- [$\mathrm{USD} \cdot \mathrm{kg}^{\mathrm{-1}}$] -->
    <g transform="translate(384.866787 11.144006) scale(0.12 -0.12)">
     <defs>
      <path id="ArialMT-5b" d="M 434 -1272 
L 434 4581 
L 1675 4581 
L 1675 4116 
L 997 4116 
L 997 -806 
L 1675 -806 
L 1675 -1272 
L 434 -1272 
z
" transform="scale(0.015625)"/>
      <path id="DejaVuSans-55" d="M 556 4666 
L 1191 4666 
L 1191 1831 
Q 1191 1081 1462 751 
Q 1734 422 2344 422 
Q 2950 422 3222 751 
Q 3494 1081 3494 1831 
L 3494 4666 
L 4128 4666 
L 4128 1753 
Q 4128 841 3676 375 
Q 3225 -91 2344 -91 
Q 1459 -91 1007 375 
Q 556 841 556 1753 
L 556 4666 
z
" transform="scale(0.015625)"/>
      <path id="DejaVuSans-53" d="M 3425 4513 
L 3425 3897 
Q 3066 4069 2747 4153 
Q 2428 4238 2131 4238 
Q 1616 4238 1336 4038 
Q 1056 3838 1056 3469 
Q 1056 3159 1242 3001 
Q 1428 2844 1947 2747 
L 2328 2669 
Q 3034 2534 3370 2195 
Q 3706 1856 3706 1288 
Q 3706 609 3251 259 
Q 2797 -91 1919 -91 
Q 1588 -91 1214 -16 
Q 841 59 441 206 
L 441 856 
Q 825 641 1194 531 
Q 1563 422 1919 422 
Q 2459 422 2753 634 
Q 3047 847 3047 1241 
Q 3047 1584 2836 1778 
Q 2625 1972 2144 2069 
L 1759 2144 
Q 1053 2284 737 2584 
Q 422 2884 422 3419 
Q 422 4038 858 4394 
Q 1294 4750 2059 4750 
Q 2388 4750 2728 4690 
Q 3069 4631 3425 4513 
z
" transform="scale(0.015625)"/>
      <path id="DejaVuSans-44" d="M 1259 4147 
L 1259 519 
L 2022 519 
Q 2988 519 3436 956 
Q 3884 1394 3884 2338 
Q 3884 3275 3436 3711 
Q 2988 4147 2022 4147 
L 1259 4147 
z
M 628 4666 
L 1925 4666 
Q 3281 4666 3915 4102 
Q 4550 3538 4550 2338 
Q 4550 1131 3912 565 
Q 3275 0 1925 0 
L 628 0 
L 628 4666 
z
" transform="scale(0.015625)"/>
      <path id="DejaVuSans-22c5" d="M 684 2619 
L 1344 2619 
L 1344 1825 
L 684 1825 
L 684 2619 
z
" transform="scale(0.015625)"/>
      <path id="DejaVuSans-6b" d="M 581 4863 
L 1159 4863 
L 1159 1991 
L 2875 3500 
L 3609 3500 
L 1753 1863 
L 3688 0 
L 2938 0 
L 1159 1709 
L 1159 0 
L 581 0 
L 581 4863 
z
" transform="scale(0.015625)"/>
      <path id="DejaVuSans-67" d="M 2906 1791 
Q 2906 2416 2648 2759 
Q 2391 3103 1925 3103 
Q 1463 3103 1205 2759 
Q 947 2416 947 1791 
Q 947 1169 1205 825 
Q 1463 481 1925 481 
Q 2391 481 2648 825 
Q 2906 1169 2906 1791 
z
M 3481 434 
Q 3481 -459 3084 -895 
Q 2688 -1331 1869 -1331 
Q 1566 -1331 1297 -1286 
Q 1028 -1241 775 -1147 
L 775 -588 
Q 1028 -725 1275 -790 
Q 1522 -856 1778 -856 
Q 2344 -856 2625 -561 
Q 2906 -266 2906 331 
L 2906 616 
Q 2728 306 2450 153 
Q 2172 0 1784 0 
Q 1141 0 747 490 
Q 353 981 353 1791 
Q 353 2603 747 3093 
Q 1141 3584 1784 3584 
Q 2172 3584 2450 3431 
Q 2728 3278 2906 2969 
L 2906 3500 
L 3481 3500 
L 3481 434 
z
" transform="scale(0.015625)"/>
      <path id="DejaVuSans-2212" d="M 678 2272 
L 4684 2272 
L 4684 1741 
L 678 1741 
L 678 2272 
z
" transform="scale(0.015625)"/>
      <path id="DejaVuSans-31" d="M 794 531 
L 1825 531 
L 1825 4091 
L 703 3866 
L 703 4441 
L 1819 4666 
L 2450 4666 
L 2450 531 
L 3481 531 
L 3481 0 
L 794 0 
L 794 531 
z
" transform="scale(0.015625)"/>
      <path id="ArialMT-5d" d="M 1363 -1272 
L 122 -1272 
L 122 -806 
L 800 -806 
L 800 4116 
L 122 4116 
L 122 4581 
L 1363 4581 
L 1363 -1272 
z
" transform="scale(0.015625)"/>
     </defs>
     <use xlink:href="#ArialMT-5b" transform="translate(0 0.684375)"/>
     <use xlink:href="#DejaVuSans-55" transform="translate(27.783203 0.684375)"/>
     <use xlink:href="#DejaVuSans-53" transform="translate(100.976562 0.684375)"/>
     <use xlink:href="#DejaVuSans-44" transform="translate(164.453125 0.684375)"/>
     <use xlink:href="#DejaVuSans-22c5" transform="translate(260.9375 0.684375)"/>
     <use xlink:href="#DejaVuSans-6b" transform="translate(312.207031 0.684375)"/>
     <use xlink:href="#DejaVuSans-67" transform="translate(370.117188 0.684375)"/>
     <use xlink:href="#DejaVuSans-2212" transform="translate(434.550781 38.965625) scale(0.7)"/>
     <use xlink:href="#DejaVuSans-31" transform="translate(493.203125 38.965625) scale(0.7)"/>
     <use xlink:href="#ArialMT-5d" transform="translate(540.473633 0.684375)"/>
    </g>
   </g>
  </g>
  <g id="axes_3">
   <g id="patch_4">
    <path d="M 59.5278 127.151381 
L 158.276258 127.151381 
L 158.276258 17.144006 
L 59.5278 17.144006 
L 59.5278 127.151381 
z
" style="fill: none"/>
   </g>
   <g id="PathCollection_1"/>
   <g id="PathCollection_2"/>
   <g id="PathCollection_3"/>
   <g id="PathCollection_4"/>
   <g id="PathCollection_5"/>
   <g id="PathCollection_6">
    <defs>
     <path id="mde4f9769b1" d="M 158.276258 -30.362985 
L 158.276258 -31.430678 
L 158.276258 -39.288348 
L 158.276258 -47.146018 
L 158.276258 -55.003687 
L 158.276258 -62.861357 
L 158.276258 -70.719026 
L 158.276258 -78.576696 
L 158.276258 -86.434366 
L 158.276258 -94.292035 
L 158.276258 -102.149705 
L 158.276258 -110.007374 
L 158.276258 -117.865044 
L 158.276258 -125.722714 
L 151.222796 -125.722714 
L 144.169335 -125.722714 
L 137.115874 -125.722714 
L 130.062413 -125.722714 
L 126.733834 -125.722714 
L 127.023536 -117.865044 
L 127.46736 -110.007374 
L 127.981706 -102.149705 
L 128.575011 -94.292035 
L 129.301192 -86.434366 
L 130.062413 -79.911991 
L 130.235534 -78.576696 
L 131.531386 -70.719026 
L 133.203162 -62.861357 
L 135.421734 -55.003687 
L 137.115874 -50.710921 
L 138.688349 -47.146018 
L 144.023845 -39.288348 
L 144.169335 -39.159608 
L 151.222796 -33.576259 
L 155.174463 -31.430678 
z
" style="stroke: #21908d"/>
    </defs>
    <g clip-path="url(#p5c355e341f)">
     <use xlink:href="#mde4f9769b1" x="0" y="142.86672" style="fill: #21908d; stroke: #21908d"/>
    </g>
   </g>
   <g id="PathCollection_7">
    <defs>
     <path id="m049426ad07" d="M 130.062413 -21.444944 
L 137.115874 -16.816547 
L 138.991261 -15.715339 
L 144.169335 -15.715339 
L 151.222796 -15.715339 
L 158.276258 -15.715339 
L 158.276258 -23.573009 
L 158.276258 -30.362985 
L 155.174463 -31.430678 
L 151.222796 -33.576259 
L 144.169335 -39.159608 
L 144.023845 -39.288348 
L 138.688349 -47.146018 
L 137.115874 -50.710921 
L 135.421734 -55.003687 
L 133.203162 -62.861357 
L 131.531386 -70.719026 
L 130.235534 -78.576696 
L 130.062413 -79.911991 
L 129.301192 -86.434366 
L 128.575011 -94.292035 
L 127.981706 -102.149705 
L 127.46736 -110.007374 
L 127.023536 -117.865044 
L 126.733834 -125.722714 
L 123.008951 -125.722714 
L 115.95549 -125.722714 
L 108.902029 -125.722714 
L 101.848568 -125.722714 
L 98.794899 -125.722714 
L 98.956165 -117.865044 
L 99.230506 -110.007374 
L 99.592017 -102.149705 
L 100.029821 -94.292035 
L 100.562561 -86.434366 
L 101.219812 -78.576696 
L 101.848568 -72.500711 
L 102.051277 -70.719026 
L 103.218164 -62.861357 
L 104.764926 -55.003687 
L 106.934733 -47.146018 
L 108.902029 -42.473954 
L 110.364615 -39.288348 
L 115.95549 -31.953596 
L 116.389398 -31.430678 
L 123.008951 -26.432792 
L 127.120367 -23.573009 
z
" style="stroke: #297a8e"/>
    </defs>
    <g clip-path="url(#p5c355e341f)">
     <use xlink:href="#m049426ad07" x="0" y="142.86672" style="fill: #297a8e; stroke: #297a8e"/>
    </g>
   </g>
   <g id="PathCollection_8">
    <defs>
     <path id="mdf62187dfb" d="M 101.848568 -20.965218 
L 107.43658 -15.715339 
L 108.902029 -15.715339 
L 115.95549 -15.715339 
L 123.008951 -15.715339 
L 130.062413 -15.715339 
L 137.115874 -15.715339 
L 138.991261 -15.715339 
L 137.115874 -16.816547 
L 130.062413 -21.444944 
L 127.120367 -23.573009 
L 123.008951 -26.432792 
L 116.389398 -31.430678 
L 115.95549 -31.953596 
L 110.364615 -39.288348 
L 108.902029 -42.473954 
L 106.934733 -47.146018 
L 104.764926 -55.003687 
L 103.218164 -62.861357 
L 102.051277 -70.719026 
L 101.848568 -72.500711 
L 101.219812 -78.576696 
L 100.562561 -86.434366 
L 100.029821 -94.292035 
L 99.592017 -102.149705 
L 99.230506 -110.007374 
L 98.956165 -117.865044 
L 98.794899 -125.722714 
L 94.795106 -125.722714 
L 87.741645 -125.722714 
L 80.688184 -125.722714 
L 79.609985 -125.722714 
L 79.731893 -117.865044 
L 79.917771 -110.007374 
L 80.136025 -102.149705 
L 80.406734 -94.292035 
L 80.688184 -87.624393 
L 80.746401 -86.434366 
L 81.227996 -78.576696 
L 81.852669 -70.719026 
L 82.640884 -62.861357 
L 83.659915 -55.003687 
L 85.112969 -47.146018 
L 87.36945 -39.288348 
L 87.741645 -38.504172 
L 91.76612 -31.430678 
L 94.795106 -28.039678 
L 99.314465 -23.573009 
z
" style="stroke: #32648e"/>
    </defs>
    <g clip-path="url(#p5c355e341f)">
     <use xlink:href="#mdf62187dfb" x="0" y="142.86672" style="fill: #32648e; stroke: #32648e"/>
    </g>
   </g>
   <g id="PathCollection_9">
    <defs>
     <path id="mc586af7ba0" d="M 80.688184 -22.441909 
L 85.560129 -15.715339 
L 87.741645 -15.715339 
L 94.795106 -15.715339 
L 101.848568 -15.715339 
L 107.43658 -15.715339 
L 101.848568 -20.965218 
L 99.314465 -23.573009 
L 94.795106 -28.039678 
L 91.76612 -31.430678 
L 87.741645 -38.504172 
L 87.36945 -39.288348 
L 85.112969 -47.146018 
L 83.659915 -55.003687 
L 82.640884 -62.861357 
L 81.852669 -70.719026 
L 81.227996 -78.576696 
L 80.746401 -86.434366 
L 80.688184 -87.624393 
L 80.406734 -94.292035 
L 80.136025 -102.149705 
L 79.917771 -110.007374 
L 79.731893 -117.865044 
L 79.609985 -125.722714 
L 73.634723 -125.722714 
L 66.581261 -125.722714 
L 64.632238 -125.722714 
L 64.765702 -117.865044 
L 65.018263 -110.007374 
L 65.338925 -102.149705 
L 65.69721 -94.292035 
L 66.134184 -86.434366 
L 66.581261 -79.974506 
L 66.651535 -78.576696 
L 67.168555 -70.719026 
L 67.877745 -62.861357 
L 68.819362 -55.003687 
L 70.074164 -47.146018 
L 71.924894 -39.288348 
L 73.634723 -34.863271 
L 75.012555 -31.430678 
L 79.994727 -23.573009 
z
" style="stroke: #3e4c8a"/>
    </defs>
    <g clip-path="url(#p5c355e341f)">
     <use xlink:href="#mc586af7ba0" x="0" y="142.86672" style="fill: #3e4c8a; stroke: #3e4c8a"/>
    </g>
   </g>
   <g id="PathCollection_10">
    <defs>
     <path id="m7b08933e5d" d="M 66.581261 -22.426211 
L 70.423547 -15.715339 
L 73.634723 -15.715339 
L 80.688184 -15.715339 
L 85.560129 -15.715339 
L 80.688184 -22.441909 
L 79.994727 -23.573009 
L 75.012555 -31.430678 
L 73.634723 -34.863271 
L 71.924894 -39.288348 
L 70.074164 -47.146018 
L 68.819362 -55.003687 
L 67.877745 -62.861357 
L 67.168555 -70.719026 
L 66.651535 -78.576696 
L 66.581261 -79.974506 
L 66.134184 -86.434366 
L 65.69721 -94.292035 
L 65.338925 -102.149705 
L 65.018263 -110.007374 
L 64.765702 -117.865044 
L 64.632238 -125.722714 
L 59.5278 -125.722714 
L 59.5278 -117.865044 
L 59.5278 -110.007374 
L 59.5278 -102.149705 
L 59.5278 -94.292035 
L 59.5278 -86.434366 
L 59.5278 -78.576696 
L 59.5278 -70.719026 
L 59.5278 -62.861357 
L 59.5278 -55.003687 
L 59.5278 -47.146018 
L 59.5278 -39.288348 
L 59.5278 -31.430678 
L 59.5278 -30.769817 
L 65.68063 -23.573009 
z
" style="stroke: #472f7d"/>
    </defs>
    <g clip-path="url(#p5c355e341f)">
     <use xlink:href="#m7b08933e5d" x="0" y="142.86672" style="fill: #472f7d; stroke: #472f7d"/>
    </g>
   </g>
   <g id="PathCollection_11">
    <defs>
     <path id="m3ece86a930" d="M 66.581261 -15.715339 
L 70.423547 -15.715339 
L 66.581261 -22.426211 
L 65.68063 -23.573009 
L 59.5278 -30.769817 
L 59.5278 -23.573009 
L 59.5278 -15.715339 
z
" style="stroke: #471164"/>
    </defs>
    <g clip-path="url(#p5c355e341f)">
     <use xlink:href="#m3ece86a930" x="0" y="142.86672" style="fill: #471164; stroke: #471164"/>
    </g>
   </g>
   <g id="QuadContourSet_1">
    <path clip-path="url(#p5c355e341f)" style="fill: none; stroke: #3d4240; stroke-opacity: 0.1; stroke-width: 0.8"/>
    <path clip-path="url(#p5c355e341f)" style="fill: none; stroke: #3d4240; stroke-opacity: 0.1; stroke-width: 0.8"/>
    <path clip-path="url(#p5c355e341f)" style="fill: none; stroke: #3d4240; stroke-opacity: 0.1; stroke-width: 0.8"/>
    <path clip-path="url(#p5c355e341f)" style="fill: none; stroke: #3d4240; stroke-opacity: 0.1; stroke-width: 0.8"/>
    <path clip-path="url(#p5c355e341f)" style="fill: none; stroke: #3d4240; stroke-opacity: 0.1; stroke-width: 0.8"/>
    <path clip-path="url(#p5c355e341f)" style="fill: none; stroke: #3d4240; stroke-opacity: 0.1; stroke-width: 0.8"/>
    <path d="M 158.276258 112.503735 
L 155.174463 111.436042 
L 151.222796 109.290461 
L 144.169335 103.707112 
L 144.023845 103.578372 
L 138.688349 95.720702 
L 137.115874 92.155799 
L 135.421734 87.863033 
L 133.779948 82.048206 
M 129.964345 62.114459 
L 129.301192 56.432354 
L 128.575011 48.574685 
L 127.981706 40.717015 
L 127.46736 32.859346 
L 127.023536 25.001676 
L 126.733834 17.144006 
" clip-path="url(#p5c355e341f)" style="fill: none; stroke: #3d4240; stroke-opacity: 0.1; stroke-width: 0.8"/>
    <path d="M 138.991261 127.151381 
L 137.115874 126.050173 
L 130.062413 121.421776 
L 127.120367 119.293711 
L 123.008951 116.433928 
L 116.389398 111.436042 
L 115.95549 110.913124 
L 110.364615 103.578372 
L 108.902029 100.392766 
L 106.934733 95.720702 
L 104.764926 87.863033 
L 103.218164 80.005363 
L 102.051277 72.147694 
L 101.848568 70.366009 
L 101.219812 64.290024 
L 100.562561 56.432354 
L 100.029821 48.574685 
L 99.592017 40.717015 
L 99.230506 32.859346 
L 98.956165 25.001676 
L 98.794899 17.144006 
" clip-path="url(#p5c355e341f)" style="fill: none; stroke: #3d4240; stroke-opacity: 0.1; stroke-width: 0.8"/>
    <path d="M 107.43658 127.151381 
L 101.848568 121.901502 
L 99.314465 119.293711 
L 94.795106 114.827042 
L 91.76612 111.436042 
L 87.741645 104.362548 
L 87.36945 103.578372 
L 85.112969 95.720702 
L 84.065921 90.058588 
M 81.673635 69.895653 
L 81.227996 64.290024 
L 80.746401 56.432354 
L 80.688184 55.242327 
L 80.406734 48.574685 
L 80.136025 40.717015 
L 79.917771 32.859346 
L 79.731893 25.001676 
L 79.609985 17.144006 
" clip-path="url(#p5c355e341f)" style="fill: none; stroke: #3d4240; stroke-opacity: 0.1; stroke-width: 0.8"/>
    <path d="M 85.560129 127.151381 
L 80.688184 120.424811 
L 79.994727 119.293711 
L 75.012555 111.436042 
L 73.634723 108.003449 
L 71.924894 103.578372 
L 70.074164 95.720702 
L 68.819362 87.863033 
L 67.877745 80.005363 
L 67.168555 72.147694 
L 66.651535 64.290024 
L 66.581261 62.892214 
L 66.134184 56.432354 
L 65.69721 48.574685 
L 65.338925 40.717015 
L 65.018263 32.859346 
L 64.765702 25.001676 
L 64.632238 17.144006 
" clip-path="url(#p5c355e341f)" style="fill: none; stroke: #3d4240; stroke-opacity: 0.1; stroke-width: 0.8"/>
    <path d="M 70.423547 127.151381 
L 66.581261 120.440509 
L 65.68063 119.293711 
L 59.5278 112.096903 
" clip-path="url(#p5c355e341f)" style="fill: none; stroke: #3d4240; stroke-opacity: 0.1; stroke-width: 0.8"/>
    <path clip-path="url(#p5c355e341f)" style="fill: none; stroke: #3d4240; stroke-opacity: 0.1; stroke-width: 0.8"/>
   </g>
   <g id="text_7">
    <g clip-path="url(#p5c355e341f)">
     <!-- 7.4 -->
     <g transform="translate(123.886386 74.991365) scale(0.11 -0.11)">
      <defs>
       <path id="ArialMT-2e" d="M 581 0 
L 581 641 
L 1222 641 
L 1222 0 
L 581 0 
z
" transform="scale(0.015625)"/>
       <path id="ArialMT-34" d="M 2069 0 
L 2069 1097 
L 81 1097 
L 81 1613 
L 2172 4581 
L 2631 4581 
L 2631 1613 
L 3250 1613 
L 3250 1097 
L 2631 1097 
L 2631 0 
L 2069 0 
z
M 2069 1613 
L 2069 3678 
L 634 1613 
L 2069 1613 
z
" transform="scale(0.015625)"/>
      </defs>
      <use xlink:href="#ArialMT-37"/>
      <use xlink:href="#ArialMT-2e" x="55.615234"/>
      <use xlink:href="#ArialMT-34" x="83.398438"/>
     </g>
    </g>
   </g>
   <g id="text_8">
    <g clip-path="url(#p5c355e341f)">
     <!-- 8.8 -->
     <g transform="translate(74.995884 82.849035) scale(0.11 -0.11)">
      <defs>
       <path id="ArialMT-38" d="M 1131 2484 
Q 781 2613 612 2850 
Q 444 3088 444 3419 
Q 444 3919 803 4259 
Q 1163 4600 1759 4600 
Q 2359 4600 2725 4251 
Q 3091 3903 3091 3403 
Q 3091 3084 2923 2848 
Q 2756 2613 2416 2484 
Q 2838 2347 3058 2040 
Q 3278 1734 3278 1309 
Q 3278 722 2862 322 
Q 2447 -78 1769 -78 
Q 1091 -78 675 323 
Q 259 725 259 1325 
Q 259 1772 486 2073 
Q 713 2375 1131 2484 
z
M 1019 3438 
Q 1019 3113 1228 2906 
Q 1438 2700 1772 2700 
Q 2097 2700 2305 2904 
Q 2513 3109 2513 3406 
Q 2513 3716 2298 3927 
Q 2084 4138 1766 4138 
Q 1444 4138 1231 3931 
Q 1019 3725 1019 3438 
z
M 838 1322 
Q 838 1081 952 856 
Q 1066 631 1291 507 
Q 1516 384 1775 384 
Q 2178 384 2440 643 
Q 2703 903 2703 1303 
Q 2703 1709 2433 1975 
Q 2163 2241 1756 2241 
Q 1359 2241 1098 1978 
Q 838 1716 838 1322 
z
" transform="scale(0.015625)"/>
      </defs>
      <use xlink:href="#ArialMT-38"/>
      <use xlink:href="#ArialMT-2e" x="55.615234"/>
      <use xlink:href="#ArialMT-38" x="83.398438"/>
     </g>
    </g>
   </g>
   <g id="matplotlib.axis_3">
    <g id="xtick_1">
     <g id="line2d_6">
      <defs>
       <path id="me8657ee12c" d="M 0 2 
L 0 -2 
" style="stroke: #000000; stroke-width: 0.8"/>
      </defs>
      <g>
       <use xlink:href="#me8657ee12c" x="59.5278" y="127.151381" style="stroke: #000000; stroke-width: 0.8"/>
      </g>
     </g>
    </g>
    <g id="xtick_2">
     <g id="line2d_7">
      <g>
       <use xlink:href="#me8657ee12c" x="92.443953" y="127.151381" style="stroke: #000000; stroke-width: 0.8"/>
      </g>
     </g>
     <g id="text_9">
      <!-- 40 -->
      <g transform="translate(86.326921 140.524975) scale(0.11 -0.11)">
       <defs>
        <path id="ArialMT-30" d="M 266 2259 
Q 266 3072 433 3567 
Q 600 4063 929 4331 
Q 1259 4600 1759 4600 
Q 2128 4600 2406 4451 
Q 2684 4303 2865 4023 
Q 3047 3744 3150 3342 
Q 3253 2941 3253 2259 
Q 3253 1453 3087 958 
Q 2922 463 2592 192 
Q 2263 -78 1759 -78 
Q 1097 -78 719 397 
Q 266 969 266 2259 
z
M 844 2259 
Q 844 1131 1108 757 
Q 1372 384 1759 384 
Q 2147 384 2411 759 
Q 2675 1134 2675 2259 
Q 2675 3391 2411 3762 
Q 2147 4134 1753 4134 
Q 1366 4134 1134 3806 
Q 844 3388 844 2259 
z
" transform="scale(0.015625)"/>
       </defs>
       <use xlink:href="#ArialMT-34"/>
       <use xlink:href="#ArialMT-30" x="55.615234"/>
      </g>
     </g>
    </g>
    <g id="xtick_3">
     <g id="line2d_8">
      <g>
       <use xlink:href="#me8657ee12c" x="125.360105" y="127.151381" style="stroke: #000000; stroke-width: 0.8"/>
      </g>
     </g>
     <g id="text_10">
      <!-- 50 -->
      <g transform="translate(119.243074 140.524975) scale(0.11 -0.11)">
       <use xlink:href="#ArialMT-35"/>
       <use xlink:href="#ArialMT-30" x="55.615234"/>
      </g>
     </g>
    </g>
    <g id="xtick_4">
     <g id="line2d_9">
      <g>
       <use xlink:href="#me8657ee12c" x="158.276258" y="127.151381" style="stroke: #000000; stroke-width: 0.8"/>
      </g>
     </g>
     <g id="text_11">
      <!-- 60 -->
      <g transform="translate(152.159226 140.524975) scale(0.11 -0.11)">
       <defs>
        <path id="ArialMT-36" d="M 3184 3459 
L 2625 3416 
Q 2550 3747 2413 3897 
Q 2184 4138 1850 4138 
Q 1581 4138 1378 3988 
Q 1113 3794 959 3422 
Q 806 3050 800 2363 
Q 1003 2672 1297 2822 
Q 1591 2972 1913 2972 
Q 2475 2972 2870 2558 
Q 3266 2144 3266 1488 
Q 3266 1056 3080 686 
Q 2894 316 2569 119 
Q 2244 -78 1831 -78 
Q 1128 -78 684 439 
Q 241 956 241 2144 
Q 241 3472 731 4075 
Q 1159 4600 1884 4600 
Q 2425 4600 2770 4297 
Q 3116 3994 3184 3459 
z
M 888 1484 
Q 888 1194 1011 928 
Q 1134 663 1356 523 
Q 1578 384 1822 384 
Q 2178 384 2434 671 
Q 2691 959 2691 1453 
Q 2691 1928 2437 2201 
Q 2184 2475 1800 2475 
Q 1419 2475 1153 2201 
Q 888 1928 888 1484 
z
" transform="scale(0.015625)"/>
       </defs>
       <use xlink:href="#ArialMT-36"/>
       <use xlink:href="#ArialMT-30" x="55.615234"/>
      </g>
     </g>
    </g>
    <g id="text_12">
     <!-- Yield [$\mathrm{g} \cdot \mathrm{L}^{\mathrm{-1}}$] -->
     <g transform="translate(75.737029 156.611225) scale(0.11 -0.11)">
      <defs>
       <path id="ArialMT-59" d="M 1784 0 
L 1784 1941 
L 19 4581 
L 756 4581 
L 1659 3200 
Q 1909 2813 2125 2425 
Q 2331 2784 2625 3234 
L 3513 4581 
L 4219 4581 
L 2391 1941 
L 2391 0 
L 1784 0 
z
" transform="scale(0.015625)"/>
       <path id="ArialMT-69" d="M 425 3934 
L 425 4581 
L 988 4581 
L 988 3934 
L 425 3934 
z
M 425 0 
L 425 3319 
L 988 3319 
L 988 0 
L 425 0 
z
" transform="scale(0.015625)"/>
       <path id="ArialMT-65" d="M 2694 1069 
L 3275 997 
Q 3138 488 2766 206 
Q 2394 -75 1816 -75 
Q 1088 -75 661 373 
Q 234 822 234 1631 
Q 234 2469 665 2931 
Q 1097 3394 1784 3394 
Q 2450 3394 2872 2941 
Q 3294 2488 3294 1666 
Q 3294 1616 3291 1516 
L 816 1516 
Q 847 969 1125 678 
Q 1403 388 1819 388 
Q 2128 388 2347 550 
Q 2566 713 2694 1069 
z
M 847 1978 
L 2700 1978 
Q 2663 2397 2488 2606 
Q 2219 2931 1791 2931 
Q 1403 2931 1139 2672 
Q 875 2413 847 1978 
z
" transform="scale(0.015625)"/>
       <path id="ArialMT-6c" d="M 409 0 
L 409 4581 
L 972 4581 
L 972 0 
L 409 0 
z
" transform="scale(0.015625)"/>
       <path id="ArialMT-64" d="M 2575 0 
L 2575 419 
Q 2259 -75 1647 -75 
Q 1250 -75 917 144 
Q 584 363 401 755 
Q 219 1147 219 1656 
Q 219 2153 384 2558 
Q 550 2963 881 3178 
Q 1213 3394 1622 3394 
Q 1922 3394 2156 3267 
Q 2391 3141 2538 2938 
L 2538 4581 
L 3097 4581 
L 3097 0 
L 2575 0 
z
M 797 1656 
Q 797 1019 1065 703 
Q 1334 388 1700 388 
Q 2069 388 2326 689 
Q 2584 991 2584 1609 
Q 2584 2291 2321 2609 
Q 2059 2928 1675 2928 
Q 1300 2928 1048 2622 
Q 797 2316 797 1656 
z
" transform="scale(0.015625)"/>
       <path id="ArialMT-20" transform="scale(0.015625)"/>
       <path id="DejaVuSans-4c" d="M 628 4666 
L 1259 4666 
L 1259 531 
L 3531 531 
L 3531 0 
L 628 0 
L 628 4666 
z
" transform="scale(0.015625)"/>
      </defs>
      <use xlink:href="#ArialMT-59" transform="translate(0 0.684375)"/>
      <use xlink:href="#ArialMT-69" transform="translate(66.699219 0.684375)"/>
      <use xlink:href="#ArialMT-65" transform="translate(88.916016 0.684375)"/>
      <use xlink:href="#ArialMT-6c" transform="translate(144.53125 0.684375)"/>
      <use xlink:href="#ArialMT-64" transform="translate(166.748047 0.684375)"/>
      <use xlink:href="#ArialMT-20" transform="translate(222.363281 0.684375)"/>
      <use xlink:href="#ArialMT-5b" transform="translate(250.146484 0.684375)"/>
      <use xlink:href="#DejaVuSans-67" transform="translate(277.929688 0.684375)"/>
      <use xlink:href="#DejaVuSans-22c5" transform="translate(360.888672 0.684375)"/>
      <use xlink:href="#DejaVuSans-4c" transform="translate(412.158203 0.684375)"/>
      <use xlink:href="#DejaVuSans-2212" transform="translate(468.828125 38.965625) scale(0.7)"/>
      <use xlink:href="#DejaVuSans-31" transform="translate(527.480469 38.965625) scale(0.7)"/>
      <use xlink:href="#ArialMT-5d" transform="translate(574.750977 0.684375)"/>
     </g>
    </g>
   </g>
   <g id="matplotlib.axis_4">
    <g id="ytick_6">
     <g id="line2d_10">
      <defs>
       <path id="m4722b6a799" d="M 2 0 
L -2 -0 
" style="stroke: #000000; stroke-width: 0.8"/>
      </defs>
      <g>
       <use xlink:href="#m4722b6a799" x="59.5278" y="127.151381" style="stroke: #000000; stroke-width: 0.8"/>
      </g>
     </g>
     <g id="text_13">
      <!-- 0.1 -->
      <g transform="translate(38.7378 131.088178) scale(0.11 -0.11)">
       <use xlink:href="#ArialMT-30"/>
       <use xlink:href="#ArialMT-2e" x="55.615234"/>
       <use xlink:href="#ArialMT-31" x="83.398438"/>
      </g>
     </g>
    </g>
    <g id="ytick_7">
     <g id="line2d_11">
      <g>
       <use xlink:href="#m4722b6a799" x="59.5278" y="90.482256" style="stroke: #000000; stroke-width: 0.8"/>
      </g>
     </g>
     <g id="text_14">
      <!-- 0.4 -->
      <g transform="translate(38.7378 94.419053) scale(0.11 -0.11)">
       <use xlink:href="#ArialMT-30"/>
       <use xlink:href="#ArialMT-2e" x="55.615234"/>
       <use xlink:href="#ArialMT-34" x="83.398438"/>
      </g>
     </g>
    </g>
    <g id="ytick_8">
     <g id="line2d_12">
      <g>
       <use xlink:href="#m4722b6a799" x="59.5278" y="53.813131" style="stroke: #000000; stroke-width: 0.8"/>
      </g>
     </g>
     <g id="text_15">
      <!-- 0.7 -->
      <g transform="translate(38.7378 57.749928) scale(0.11 -0.11)">
       <use xlink:href="#ArialMT-30"/>
       <use xlink:href="#ArialMT-2e" x="55.615234"/>
       <use xlink:href="#ArialMT-37" x="83.398438"/>
      </g>
     </g>
    </g>
    <g id="ytick_9">
     <g id="line2d_13">
      <g>
       <use xlink:href="#m4722b6a799" x="59.5278" y="17.144006" style="stroke: #000000; stroke-width: 0.8"/>
      </g>
     </g>
     <g id="text_16">
      <!-- 1.0 -->
      <g transform="translate(38.7378 21.080803) scale(0.11 -0.11)">
       <use xlink:href="#ArialMT-31"/>
       <use xlink:href="#ArialMT-2e" x="55.615234"/>
       <use xlink:href="#ArialMT-30" x="83.398438"/>
      </g>
     </g>
    </g>
    <g id="text_17">
     <!-- Productivity -->
     <g transform="translate(18.232644 100.57324) rotate(-90) scale(0.11 -0.11)">
      <defs>
       <path id="ArialMT-72" d="M 416 0 
L 416 3319 
L 922 3319 
L 922 2816 
Q 1116 3169 1280 3281 
Q 1444 3394 1641 3394 
Q 1925 3394 2219 3213 
L 2025 2691 
Q 1819 2813 1613 2813 
Q 1428 2813 1281 2702 
Q 1134 2591 1072 2394 
Q 978 2094 978 1738 
L 978 0 
L 416 0 
z
" transform="scale(0.015625)"/>
       <path id="ArialMT-6f" d="M 213 1659 
Q 213 2581 725 3025 
Q 1153 3394 1769 3394 
Q 2453 3394 2887 2945 
Q 3322 2497 3322 1706 
Q 3322 1066 3130 698 
Q 2938 331 2570 128 
Q 2203 -75 1769 -75 
Q 1072 -75 642 372 
Q 213 819 213 1659 
z
M 791 1659 
Q 791 1022 1069 705 
Q 1347 388 1769 388 
Q 2188 388 2466 706 
Q 2744 1025 2744 1678 
Q 2744 2294 2464 2611 
Q 2184 2928 1769 2928 
Q 1347 2928 1069 2612 
Q 791 2297 791 1659 
z
" transform="scale(0.015625)"/>
       <path id="ArialMT-75" d="M 2597 0 
L 2597 488 
Q 2209 -75 1544 -75 
Q 1250 -75 995 37 
Q 741 150 617 320 
Q 494 491 444 738 
Q 409 903 409 1263 
L 409 3319 
L 972 3319 
L 972 1478 
Q 972 1038 1006 884 
Q 1059 663 1231 536 
Q 1403 409 1656 409 
Q 1909 409 2131 539 
Q 2353 669 2445 892 
Q 2538 1116 2538 1541 
L 2538 3319 
L 3100 3319 
L 3100 0 
L 2597 0 
z
" transform="scale(0.015625)"/>
       <path id="ArialMT-63" d="M 2588 1216 
L 3141 1144 
Q 3050 572 2676 248 
Q 2303 -75 1759 -75 
Q 1078 -75 664 370 
Q 250 816 250 1647 
Q 250 2184 428 2587 
Q 606 2991 970 3192 
Q 1334 3394 1763 3394 
Q 2303 3394 2647 3120 
Q 2991 2847 3088 2344 
L 2541 2259 
Q 2463 2594 2264 2762 
Q 2066 2931 1784 2931 
Q 1359 2931 1093 2626 
Q 828 2322 828 1663 
Q 828 994 1084 691 
Q 1341 388 1753 388 
Q 2084 388 2306 591 
Q 2528 794 2588 1216 
z
" transform="scale(0.015625)"/>
       <path id="ArialMT-74" d="M 1650 503 
L 1731 6 
Q 1494 -44 1306 -44 
Q 1000 -44 831 53 
Q 663 150 594 308 
Q 525 466 525 972 
L 525 2881 
L 113 2881 
L 113 3319 
L 525 3319 
L 525 4141 
L 1084 4478 
L 1084 3319 
L 1650 3319 
L 1650 2881 
L 1084 2881 
L 1084 941 
Q 1084 700 1114 631 
Q 1144 563 1211 522 
Q 1278 481 1403 481 
Q 1497 481 1650 503 
z
" transform="scale(0.015625)"/>
       <path id="ArialMT-76" d="M 1344 0 
L 81 3319 
L 675 3319 
L 1388 1331 
Q 1503 1009 1600 663 
Q 1675 925 1809 1294 
L 2547 3319 
L 3125 3319 
L 1869 0 
L 1344 0 
z
" transform="scale(0.015625)"/>
       <path id="ArialMT-79" d="M 397 -1278 
L 334 -750 
Q 519 -800 656 -800 
Q 844 -800 956 -737 
Q 1069 -675 1141 -563 
Q 1194 -478 1313 -144 
Q 1328 -97 1363 -6 
L 103 3319 
L 709 3319 
L 1400 1397 
Q 1534 1031 1641 628 
Q 1738 1016 1872 1384 
L 2581 3319 
L 3144 3319 
L 1881 -56 
Q 1678 -603 1566 -809 
Q 1416 -1088 1222 -1217 
Q 1028 -1347 759 -1347 
Q 597 -1347 397 -1278 
z
" transform="scale(0.015625)"/>
      </defs>
      <use xlink:href="#ArialMT-50"/>
      <use xlink:href="#ArialMT-72" x="66.699219"/>
      <use xlink:href="#ArialMT-6f" x="100"/>
      <use xlink:href="#ArialMT-64" x="155.615234"/>
      <use xlink:href="#ArialMT-75" x="211.230469"/>
      <use xlink:href="#ArialMT-63" x="266.845703"/>
      <use xlink:href="#ArialMT-74" x="316.845703"/>
      <use xlink:href="#ArialMT-69" x="344.628906"/>
      <use xlink:href="#ArialMT-76" x="366.845703"/>
      <use xlink:href="#ArialMT-69" x="416.845703"/>
      <use xlink:href="#ArialMT-74" x="439.0625"/>
      <use xlink:href="#ArialMT-79" x="466.845703"/>
     </g>
     <!-- [$\mathrm{g} \cdot \mathrm{L}^{\mathrm{-1}} \cdot \mathrm{h}^{\mathrm{-1}}$] -->
     <g transform="translate(32.4278 104.817694) rotate(-90) scale(0.11 -0.11)">
      <defs>
       <path id="DejaVuSans-68" d="M 3513 2113 
L 3513 0 
L 2938 0 
L 2938 2094 
Q 2938 2591 2744 2837 
Q 2550 3084 2163 3084 
Q 1697 3084 1428 2787 
Q 1159 2491 1159 1978 
L 1159 0 
L 581 0 
L 581 4863 
L 1159 4863 
L 1159 2956 
Q 1366 3272 1645 3428 
Q 1925 3584 2291 3584 
Q 2894 3584 3203 3211 
Q 3513 2838 3513 2113 
z
" transform="scale(0.015625)"/>
      </defs>
      <use xlink:href="#ArialMT-5b" transform="translate(0 0.684375)"/>
      <use xlink:href="#DejaVuSans-67" transform="translate(27.783203 0.684375)"/>
      <use xlink:href="#DejaVuSans-22c5" transform="translate(110.742188 0.684375)"/>
      <use xlink:href="#DejaVuSans-4c" transform="translate(162.011719 0.684375)"/>
      <use xlink:href="#DejaVuSans-2212" transform="translate(218.681641 38.965625) scale(0.7)"/>
      <use xlink:href="#DejaVuSans-31" transform="translate(277.333984 38.965625) scale(0.7)"/>
      <use xlink:href="#DejaVuSans-22c5" transform="translate(344.086914 0.684375)"/>
      <use xlink:href="#DejaVuSans-68" transform="translate(395.356445 0.684375)"/>
      <use xlink:href="#DejaVuSans-2212" transform="translate(459.692383 38.965625) scale(0.7)"/>
      <use xlink:href="#DejaVuSans-31" transform="translate(518.344727 38.965625) scale(0.7)"/>
      <use xlink:href="#ArialMT-5d" transform="translate(565.615234 0.684375)"/>
     </g>
    </g>
   </g>
   <g id="patch_5">
    <path d="M 59.5278 127.151381 
L 59.5278 17.144006 
" style="fill: none; stroke: #000000; stroke-width: 0.8; stroke-linejoin: miter; stroke-linecap: square"/>
   </g>
   <g id="patch_6">
    <path d="M 158.276258 127.151381 
L 158.276258 17.144006 
" style="fill: none; stroke: #000000; stroke-width: 0.8; stroke-linejoin: miter; stroke-linecap: square"/>
   </g>
   <g id="patch_7">
    <path d="M 59.5278 127.151381 
L 158.276258 127.151381 
" style="fill: none; stroke: #000000; stroke-width: 0.8; stroke-linejoin: miter; stroke-linecap: square"/>
   </g>
   <g id="patch_8">
    <path d="M 59.5278 17.144006 
L 158.276258 17.144006 
" style="fill: none; stroke: #000000; stroke-width: 0.8; stroke-linejoin: miter; stroke-linecap: square"/>
   </g>
  </g>
  <g id="axes_4">
   <g id="patch_9">
    <path d="M 174.322882 127.151381 
L 273.071339 127.151381 
L 273.071339 17.144006 
L 174.322882 17.144006 
L 174.322882 127.151381 
z
" style="fill: none"/>
   </g>
   <g id="PathCollection_12"/>
   <g id="PathCollection_13">
    <defs>
     <path id="mba1c4f274e" d="M 273.071339 -31.183179 
L 273.071339 -31.430678 
L 273.071339 -39.288348 
L 273.071339 -47.146018 
L 273.071339 -55.003687 
L 273.071339 -62.861357 
L 273.071339 -70.719026 
L 273.071339 -78.576696 
L 273.071339 -86.434366 
L 273.071339 -94.292035 
L 273.071339 -102.149705 
L 273.071339 -110.007374 
L 273.071339 -117.865044 
L 273.071339 -125.722714 
L 266.017878 -125.722714 
L 258.964417 -125.722714 
L 251.910956 -125.722714 
L 244.857494 -125.722714 
L 241.573174 -125.722714 
L 241.86803 -117.865044 
L 242.356117 -110.007374 
L 242.995327 -102.149705 
L 243.768849 -94.292035 
L 244.663252 -86.434366 
L 244.857494 -85.000591 
L 245.801859 -78.576696 
L 247.211722 -70.719026 
L 248.99543 -62.861357 
L 251.388112 -55.003687 
L 251.910956 -53.775102 
L 254.97212 -47.146018 
L 258.964417 -41.32851 
L 260.540526 -39.288348 
L 266.017878 -34.907864 
L 272.391213 -31.430678 
z
" style="stroke: #a5db36"/>
    </defs>
    <g clip-path="url(#paae0dfc258)">
     <use xlink:href="#mba1c4f274e" x="0" y="142.86672" style="fill: #a5db36; stroke: #a5db36"/>
    </g>
   </g>
   <g id="PathCollection_14">
    <defs>
     <path id="m69340cfadc" d="M 251.910956 -19.552822 
L 257.772283 -15.715339 
L 258.964417 -15.715339 
L 266.017878 -15.715339 
L 273.071339 -15.715339 
L 273.071339 -23.573009 
L 273.071339 -31.183179 
L 272.391213 -31.430678 
L 266.017878 -34.907864 
L 260.540526 -39.288348 
L 258.964417 -41.32851 
L 254.97212 -47.146018 
L 251.910956 -53.775102 
L 251.388112 -55.003687 
L 248.99543 -62.861357 
L 247.211722 -70.719026 
L 245.801859 -78.576696 
L 244.857494 -85.000591 
L 244.663252 -86.434366 
L 243.768849 -94.292035 
L 242.995327 -102.149705 
L 242.356117 -110.007374 
L 241.86803 -117.865044 
L 241.573174 -125.722714 
L 237.804033 -125.722714 
L 230.750572 -125.722714 
L 223.697111 -125.722714 
L 216.643649 -125.722714 
L 214.104719 -125.722714 
L 214.32176 -117.865044 
L 214.679594 -110.007374 
L 215.129128 -102.149705 
L 215.64987 -94.292035 
L 216.257219 -86.434366 
L 216.643649 -82.368061 
L 217.042952 -78.576696 
L 218.09503 -70.719026 
L 219.442179 -62.861357 
L 221.170543 -55.003687 
L 223.541064 -47.146018 
L 223.697111 -46.804984 
L 227.475426 -39.288348 
L 230.750572 -35.335045 
L 234.237781 -31.430678 
L 237.804033 -28.858906 
L 244.857494 -24.138799 
L 245.770656 -23.573009 
z
" style="stroke: #69cd5b"/>
    </defs>
    <g clip-path="url(#paae0dfc258)">
     <use xlink:href="#m69340cfadc" x="0" y="142.86672" style="fill: #69cd5b; stroke: #69cd5b"/>
    </g>
   </g>
   <g id="PathCollection_15">
    <defs>
     <path id="m4655e4e8a0" d="M 223.697111 -18.131747 
L 226.628783 -15.715339 
L 230.750572 -15.715339 
L 237.804033 -15.715339 
L 244.857494 -15.715339 
L 251.910956 -15.715339 
L 257.772283 -15.715339 
L 251.910956 -19.552822 
L 245.770656 -23.573009 
L 244.857494 -24.138799 
L 237.804033 -28.858906 
L 234.237781 -31.430678 
L 230.750572 -35.335045 
L 227.475426 -39.288348 
L 223.697111 -46.804984 
L 223.541064 -47.146018 
L 221.170543 -55.003687 
L 219.442179 -62.861357 
L 218.09503 -70.719026 
L 217.042952 -78.576696 
L 216.643649 -82.368061 
L 216.257219 -86.434366 
L 215.64987 -94.292035 
L 215.129128 -102.149705 
L 214.679594 -110.007374 
L 214.32176 -117.865044 
L 214.104719 -125.722714 
L 209.590188 -125.722714 
L 202.536727 -125.722714 
L 195.483266 -125.722714 
L 194.270322 -125.722714 
L 194.431866 -117.865044 
L 194.690591 -110.007374 
L 195.017919 -102.149705 
L 195.406594 -94.292035 
L 195.483266 -92.98324 
L 195.910897 -86.434366 
L 196.537451 -78.576696 
L 197.316411 -70.719026 
L 198.31046 -62.861357 
L 199.619492 -55.003687 
L 201.415245 -47.146018 
L 202.536727 -43.860645 
L 204.265771 -39.288348 
L 209.094107 -31.430678 
L 209.590188 -30.916926 
L 216.643649 -24.343732 
L 217.558421 -23.573009 
z
" style="stroke: #3bbb75"/>
    </defs>
    <g clip-path="url(#paae0dfc258)">
     <use xlink:href="#m4655e4e8a0" x="0" y="142.86672" style="fill: #3bbb75; stroke: #3bbb75"/>
    </g>
   </g>
   <g id="PathCollection_16">
    <defs>
     <path id="m4274e9476d" d="M 202.536727 -17.256676 
L 203.965779 -15.715339 
L 209.590188 -15.715339 
L 216.643649 -15.715339 
L 223.697111 -15.715339 
L 226.628783 -15.715339 
L 223.697111 -18.131747 
L 217.558421 -23.573009 
L 216.643649 -24.343732 
L 209.590188 -30.916926 
L 209.094107 -31.430678 
L 204.265771 -39.288348 
L 202.536727 -43.860645 
L 201.415245 -47.146018 
L 199.619492 -55.003687 
L 198.31046 -62.861357 
L 197.316411 -70.719026 
L 196.537451 -78.576696 
L 195.910897 -86.434366 
L 195.483266 -92.98324 
L 195.406594 -94.292035 
L 195.017919 -102.149705 
L 194.690591 -110.007374 
L 194.431866 -117.865044 
L 194.270322 -125.722714 
L 188.429804 -125.722714 
L 181.376343 -125.722714 
L 177.135095 -125.722714 
L 177.358606 -117.865044 
L 177.716139 -110.007374 
L 178.132544 -102.149705 
L 178.627504 -94.292035 
L 179.240858 -86.434366 
L 179.978491 -78.576696 
L 180.88602 -70.719026 
L 181.376343 -67.45444 
L 181.88504 -62.861357 
L 183.036255 -55.003687 
L 184.622318 -47.146018 
L 186.957889 -39.288348 
L 188.429804 -36.240872 
L 190.864108 -31.430678 
L 195.483266 -25.605358 
L 197.260277 -23.573009 
z
" style="stroke: #21a685"/>
    </defs>
    <g clip-path="url(#paae0dfc258)">
     <use xlink:href="#m4274e9476d" x="0" y="142.86672" style="fill: #21a685; stroke: #21a685"/>
    </g>
   </g>
   <g id="PathCollection_17">
    <defs>
     <path id="ma7d4f51be7" d="M 181.376343 -23.415873 
L 186.984472 -15.715339 
L 188.429804 -15.715339 
L 195.483266 -15.715339 
L 202.536727 -15.715339 
L 203.965779 -15.715339 
L 202.536727 -17.256676 
L 197.260277 -23.573009 
L 195.483266 -25.605358 
L 190.864108 -31.430678 
L 188.429804 -36.240872 
L 186.957889 -39.288348 
L 184.622318 -47.146018 
L 183.036255 -55.003687 
L 181.88504 -62.861357 
L 181.376343 -67.45444 
L 180.88602 -70.719026 
L 179.978491 -78.576696 
L 179.240858 -86.434366 
L 178.627504 -94.292035 
L 178.132544 -102.149705 
L 177.716139 -110.007374 
L 177.358606 -117.865044 
L 177.135095 -125.722714 
L 174.322882 -125.722714 
L 174.322882 -117.865044 
L 174.322882 -110.007374 
L 174.322882 -102.149705 
L 174.322882 -94.292035 
L 174.322882 -86.434366 
L 174.322882 -78.576696 
L 174.322882 -70.719026 
L 174.322882 -62.861357 
L 174.322882 -55.003687 
L 174.322882 -47.146018 
L 174.322882 -39.288348 
L 174.322882 -31.430678 
L 174.322882 -30.272767 
L 181.221194 -23.573009 
z
" style="stroke: #21908d"/>
    </defs>
    <g clip-path="url(#paae0dfc258)">
     <use xlink:href="#ma7d4f51be7" x="0" y="142.86672" style="fill: #21908d; stroke: #21908d"/>
    </g>
   </g>
   <g id="PathCollection_18">
    <defs>
     <path id="m684aae6ea9" d="M 181.376343 -15.715339 
L 186.984472 -15.715339 
L 181.376343 -23.415873 
L 181.221194 -23.573009 
L 174.322882 -30.272767 
L 174.322882 -23.573009 
L 174.322882 -15.715339 
z
" style="stroke: #297a8e"/>
    </defs>
    <g clip-path="url(#paae0dfc258)">
     <use xlink:href="#m684aae6ea9" x="0" y="142.86672" style="fill: #297a8e; stroke: #297a8e"/>
    </g>
   </g>
   <g id="PathCollection_19"/>
   <g id="PathCollection_20"/>
   <g id="PathCollection_21"/>
   <g id="PathCollection_22"/>
   <g id="QuadContourSet_2">
    <path clip-path="url(#paae0dfc258)" style="fill: none; stroke: #3d4240; stroke-opacity: 0.1; stroke-width: 0.8"/>
    <path clip-path="url(#paae0dfc258)" style="fill: none; stroke: #3d4240; stroke-opacity: 0.1; stroke-width: 0.8"/>
    <path d="M 273.071339 111.683541 
L 272.391213 111.436042 
L 266.017878 107.958856 
L 260.540526 103.578372 
L 258.964417 101.53821 
L 254.97212 95.720702 
L 251.910956 89.091618 
L 251.388112 87.863033 
L 249.606767 82.01302 
M 245.485793 62.140032 
L 244.857494 57.866129 
L 244.663252 56.432354 
L 243.768849 48.574685 
L 242.995327 40.717015 
L 242.356117 32.859346 
L 241.86803 25.001676 
L 241.573174 17.144006 
" clip-path="url(#paae0dfc258)" style="fill: none; stroke: #3d4240; stroke-opacity: 0.1; stroke-width: 0.8"/>
    <path d="M 257.772283 127.151381 
L 251.910956 123.313898 
L 245.770656 119.293711 
L 244.857494 118.727921 
L 237.804033 114.007814 
L 234.237781 111.436042 
L 230.750572 107.531675 
L 227.475426 103.578372 
L 223.697111 96.061736 
L 223.541064 95.720702 
L 221.170543 87.863033 
L 219.442179 80.005363 
L 218.09503 72.147694 
L 217.042952 64.290024 
L 216.643649 60.498659 
L 216.257219 56.432354 
L 215.64987 48.574685 
L 215.129128 40.717015 
L 214.679594 32.859346 
L 214.32176 25.001676 
L 214.104719 17.144006 
" clip-path="url(#paae0dfc258)" style="fill: none; stroke: #3d4240; stroke-opacity: 0.1; stroke-width: 0.8"/>
    <path d="M 226.628783 127.151381 
L 223.697111 124.734973 
L 217.558421 119.293711 
L 216.643649 118.522988 
L 209.590188 111.949794 
L 209.094107 111.436042 
L 204.265771 103.578372 
L 202.536727 99.006075 
L 201.415245 95.720702 
L 200.107469 89.998271 
M 197.095834 69.922647 
L 196.537451 64.290024 
L 195.910897 56.432354 
L 195.483266 49.88348 
L 195.406594 48.574685 
L 195.017919 40.717015 
L 194.690591 32.859346 
L 194.431866 25.001676 
L 194.270322 17.144006 
" clip-path="url(#paae0dfc258)" style="fill: none; stroke: #3d4240; stroke-opacity: 0.1; stroke-width: 0.8"/>
    <path d="M 203.965779 127.151381 
L 202.536727 125.610044 
L 197.260277 119.293711 
L 195.483266 117.261362 
L 190.864108 111.436042 
L 188.429804 106.625848 
L 186.957889 103.578372 
L 184.622318 95.720702 
L 183.036255 87.863033 
L 181.88504 80.005363 
L 181.376343 75.41228 
L 180.88602 72.147694 
L 179.978491 64.290024 
L 179.240858 56.432354 
L 178.627504 48.574685 
L 178.132544 40.717015 
L 177.716139 32.859346 
L 177.358606 25.001676 
L 177.135095 17.144006 
" clip-path="url(#paae0dfc258)" style="fill: none; stroke: #3d4240; stroke-opacity: 0.1; stroke-width: 0.8"/>
    <path d="M 186.984472 127.151381 
L 181.376343 119.450847 
L 181.221194 119.293711 
L 174.322882 112.593953 
" clip-path="url(#paae0dfc258)" style="fill: none; stroke: #3d4240; stroke-opacity: 0.1; stroke-width: 0.8"/>
    <path clip-path="url(#paae0dfc258)" style="fill: none; stroke: #3d4240; stroke-opacity: 0.1; stroke-width: 0.8"/>
    <path clip-path="url(#paae0dfc258)" style="fill: none; stroke: #3d4240; stroke-opacity: 0.1; stroke-width: 0.8"/>
    <path clip-path="url(#paae0dfc258)" style="fill: none; stroke: #3d4240; stroke-opacity: 0.1; stroke-width: 0.8"/>
    <path clip-path="url(#paae0dfc258)" style="fill: none; stroke: #3d4240; stroke-opacity: 0.1; stroke-width: 0.8"/>
    <path clip-path="url(#paae0dfc258)" style="fill: none; stroke: #3d4240; stroke-opacity: 0.1; stroke-width: 0.8"/>
   </g>
   <g id="text_18">
    <g clip-path="url(#paae0dfc258)">
     <!-- 4.5 -->
     <g transform="translate(239.566722 74.991365) scale(0.11 -0.11)">
      <use xlink:href="#ArialMT-34"/>
      <use xlink:href="#ArialMT-2e" x="55.615234"/>
      <use xlink:href="#ArialMT-35" x="83.398438"/>
     </g>
    </g>
   </g>
   <g id="text_19">
    <g clip-path="url(#paae0dfc258)">
     <!-- 5.9 -->
     <g transform="translate(190.66546 82.849035) scale(0.11 -0.11)">
      <use xlink:href="#ArialMT-35"/>
      <use xlink:href="#ArialMT-2e" x="55.615234"/>
      <use xlink:href="#ArialMT-39" x="83.398438"/>
     </g>
    </g>
   </g>
   <g id="matplotlib.axis_5">
    <g id="xtick_5">
     <g id="line2d_14">
      <g>
       <use xlink:href="#me8657ee12c" x="174.322882" y="127.151381" style="stroke: #000000; stroke-width: 0.8"/>
      </g>
     </g>
    </g>
    <g id="xtick_6">
     <g id="line2d_15">
      <g>
       <use xlink:href="#me8657ee12c" x="207.239034" y="127.151381" style="stroke: #000000; stroke-width: 0.8"/>
      </g>
     </g>
     <g id="text_20">
      <!-- 40 -->
      <g transform="translate(201.122003 140.524975) scale(0.11 -0.11)">
       <use xlink:href="#ArialMT-34"/>
       <use xlink:href="#ArialMT-30" x="55.615234"/>
      </g>
     </g>
    </g>
    <g id="xtick_7">
     <g id="line2d_16">
      <g>
       <use xlink:href="#me8657ee12c" x="240.155187" y="127.151381" style="stroke: #000000; stroke-width: 0.8"/>
      </g>
     </g>
     <g id="text_21">
      <!-- 50 -->
      <g transform="translate(234.038156 140.524975) scale(0.11 -0.11)">
       <use xlink:href="#ArialMT-35"/>
       <use xlink:href="#ArialMT-30" x="55.615234"/>
      </g>
     </g>
    </g>
    <g id="xtick_8">
     <g id="line2d_17">
      <g>
       <use xlink:href="#me8657ee12c" x="273.071339" y="127.151381" style="stroke: #000000; stroke-width: 0.8"/>
      </g>
     </g>
     <g id="text_22">
      <!-- 60 -->
      <g transform="translate(266.954308 140.524975) scale(0.11 -0.11)">
       <use xlink:href="#ArialMT-36"/>
       <use xlink:href="#ArialMT-30" x="55.615234"/>
      </g>
     </g>
    </g>
    <g id="text_23">
     <!-- Yield [$\mathrm{g} \cdot \mathrm{L}^{\mathrm{-1}}$] -->
     <g transform="translate(190.532111 156.611225) scale(0.11 -0.11)">
      <use xlink:href="#ArialMT-59" transform="translate(0 0.684375)"/>
      <use xlink:href="#ArialMT-69" transform="translate(66.699219 0.684375)"/>
      <use xlink:href="#ArialMT-65" transform="translate(88.916016 0.684375)"/>
      <use xlink:href="#ArialMT-6c" transform="translate(144.53125 0.684375)"/>
      <use xlink:href="#ArialMT-64" transform="translate(166.748047 0.684375)"/>
      <use xlink:href="#ArialMT-20" transform="translate(222.363281 0.684375)"/>
      <use xlink:href="#ArialMT-5b" transform="translate(250.146484 0.684375)"/>
      <use xlink:href="#DejaVuSans-67" transform="translate(277.929688 0.684375)"/>
      <use xlink:href="#DejaVuSans-22c5" transform="translate(360.888672 0.684375)"/>
      <use xlink:href="#DejaVuSans-4c" transform="translate(412.158203 0.684375)"/>
      <use xlink:href="#DejaVuSans-2212" transform="translate(468.828125 38.965625) scale(0.7)"/>
      <use xlink:href="#DejaVuSans-31" transform="translate(527.480469 38.965625) scale(0.7)"/>
      <use xlink:href="#ArialMT-5d" transform="translate(574.750977 0.684375)"/>
     </g>
    </g>
   </g>
   <g id="matplotlib.axis_6">
    <g id="ytick_10">
     <g id="line2d_18">
      <g>
       <use xlink:href="#m4722b6a799" x="174.322882" y="127.151381" style="stroke: #000000; stroke-width: 0.8"/>
      </g>
     </g>
    </g>
    <g id="ytick_11">
     <g id="line2d_19">
      <g>
       <use xlink:href="#m4722b6a799" x="174.322882" y="90.482256" style="stroke: #000000; stroke-width: 0.8"/>
      </g>
     </g>
    </g>
    <g id="ytick_12">
     <g id="line2d_20">
      <g>
       <use xlink:href="#m4722b6a799" x="174.322882" y="53.813131" style="stroke: #000000; stroke-width: 0.8"/>
      </g>
     </g>
    </g>
    <g id="ytick_13">
     <g id="line2d_21">
      <g>
       <use xlink:href="#m4722b6a799" x="174.322882" y="17.144006" style="stroke: #000000; stroke-width: 0.8"/>
      </g>
     </g>
    </g>
   </g>
   <g id="patch_10">
    <path d="M 174.322882 127.151381 
L 174.322882 17.144006 
" style="fill: none; stroke: #000000; stroke-width: 0.8; stroke-linejoin: miter; stroke-linecap: square"/>
   </g>
   <g id="patch_11">
    <path d="M 273.071339 127.151381 
L 273.071339 17.144006 
" style="fill: none; stroke: #000000; stroke-width: 0.8; stroke-linejoin: miter; stroke-linecap: square"/>
   </g>
   <g id="patch_12">
    <path d="M 174.322882 127.151381 
L 273.071339 127.151381 
" style="fill: none; stroke: #000000; stroke-width: 0.8; stroke-linejoin: miter; stroke-linecap: square"/>
   </g>
   <g id="patch_13">
    <path d="M 174.322882 17.144006 
L 273.071339 17.144006 
" style="fill: none; stroke: #000000; stroke-width: 0.8; stroke-linejoin: miter; stroke-linecap: square"/>
   </g>
  </g>
  <g id="axes_5">
   <g id="patch_14">
    <path d="M 289.117964 127.151381 
L 387.866421 127.151381 
L 387.866421 17.144006 
L 289.117964 17.144006 
L 289.117964 127.151381 
z
" style="fill: none"/>
   </g>
   <g id="PathCollection_23">
    <defs>
     <path id="md9ce3dd421" d="M 380.81296 -35.701647 
L 387.866421 -32.27813 
L 387.866421 -39.288348 
L 387.866421 -47.146018 
L 387.866421 -55.003687 
L 387.866421 -62.861357 
L 387.866421 -70.719026 
L 387.866421 -78.576696 
L 387.866421 -86.434366 
L 387.866421 -94.292035 
L 387.866421 -102.149705 
L 387.866421 -110.007374 
L 387.866421 -117.865044 
L 387.866421 -125.722714 
L 380.81296 -125.722714 
L 373.759499 -125.722714 
L 366.706038 -125.722714 
L 359.652576 -125.722714 
L 355.047381 -125.722714 
L 355.414819 -117.865044 
L 356.028692 -110.007374 
L 356.765147 -102.149705 
L 357.614755 -94.292035 
L 358.611187 -86.434366 
L 359.652576 -79.463317 
L 359.796291 -78.576696 
L 361.379106 -70.719026 
L 363.402287 -62.861357 
L 366.0557 -55.003687 
L 366.706038 -53.599799 
L 369.923535 -47.146018 
L 373.759499 -41.935254 
L 375.958999 -39.288348 
z
" style="stroke: #e2e418"/>
    </defs>
    <g clip-path="url(#p4baae249aa)">
     <use xlink:href="#md9ce3dd421" x="0" y="142.86672" style="fill: #e2e418; stroke: #e2e418"/>
    </g>
   </g>
   <g id="PathCollection_24">
    <defs>
     <path id="m55a56dc6dc" d="M 366.706038 -20.559304 
L 373.759499 -16.5372 
L 375.383188 -15.715339 
L 380.81296 -15.715339 
L 387.866421 -15.715339 
L 387.866421 -23.573009 
L 387.866421 -31.430678 
L 387.866421 -32.27813 
L 380.81296 -35.701647 
L 375.958999 -39.288348 
L 373.759499 -41.935254 
L 369.923535 -47.146018 
L 366.706038 -53.599799 
L 366.0557 -55.003687 
L 363.402287 -62.861357 
L 361.379106 -70.719026 
L 359.796291 -78.576696 
L 359.652576 -79.463317 
L 358.611187 -86.434366 
L 357.614755 -94.292035 
L 356.765147 -102.149705 
L 356.028692 -110.007374 
L 355.414819 -117.865044 
L 355.047381 -125.722714 
L 352.599115 -125.722714 
L 345.545654 -125.722714 
L 338.492193 -125.722714 
L 331.438731 -125.722714 
L 327.250416 -125.722714 
L 327.537697 -117.865044 
L 327.972682 -110.007374 
L 328.475601 -102.149705 
L 329.074705 -94.292035 
L 329.802533 -86.434366 
L 330.668334 -78.576696 
L 331.438731 -72.858257 
L 331.756919 -70.719026 
L 333.235527 -62.861357 
L 335.187465 -55.003687 
L 337.881471 -47.146018 
L 338.492193 -45.930615 
L 342.110377 -39.288348 
L 345.545654 -35.386325 
L 349.314523 -31.430678 
L 352.599115 -29.211539 
L 359.652576 -24.80198 
L 361.766468 -23.573009 
z
" style="stroke: #a5db36"/>
    </defs>
    <g clip-path="url(#p4baae249aa)">
     <use xlink:href="#m55a56dc6dc" x="0" y="142.86672" style="fill: #a5db36; stroke: #a5db36"/>
    </g>
   </g>
   <g id="PathCollection_25">
    <defs>
     <path id="mbb2c6a1a15" d="M 338.492193 -19.024475 
L 342.743431 -15.715339 
L 345.545654 -15.715339 
L 352.599115 -15.715339 
L 359.652576 -15.715339 
L 366.706038 -15.715339 
L 373.759499 -15.715339 
L 375.383188 -15.715339 
L 373.759499 -16.5372 
L 366.706038 -20.559304 
L 361.766468 -23.573009 
L 359.652576 -24.80198 
L 352.599115 -29.211539 
L 349.314523 -31.430678 
L 345.545654 -35.386325 
L 342.110377 -39.288348 
L 338.492193 -45.930615 
L 337.881471 -47.146018 
L 335.187465 -55.003687 
L 333.235527 -62.861357 
L 331.756919 -70.719026 
L 331.438731 -72.858257 
L 330.668334 -78.576696 
L 329.802533 -86.434366 
L 329.074705 -94.292035 
L 328.475601 -102.149705 
L 327.972682 -110.007374 
L 327.537697 -117.865044 
L 327.250416 -125.722714 
L 324.38527 -125.722714 
L 317.331809 -125.722714 
L 310.278348 -125.722714 
L 307.435939 -125.722714 
L 307.629303 -117.865044 
L 307.939581 -110.007374 
L 308.323369 -102.149705 
L 308.782169 -94.292035 
L 309.330611 -86.434366 
L 309.985835 -78.576696 
L 310.278348 -75.670655 
L 310.831985 -70.719026 
L 311.947191 -62.861357 
L 313.412991 -55.003687 
L 315.416771 -47.146018 
L 317.331809 -42.079147 
L 318.505966 -39.288348 
L 323.85541 -31.430678 
L 324.38527 -30.928733 
L 331.438731 -24.85627 
L 333.063191 -23.573009 
z
" style="stroke: #69cd5b"/>
    </defs>
    <g clip-path="url(#p4baae249aa)">
     <use xlink:href="#mbb2c6a1a15" x="0" y="142.86672" style="fill: #69cd5b; stroke: #69cd5b"/>
    </g>
   </g>
   <g id="PathCollection_26">
    <defs>
     <path id="mab87ba5137" d="M 317.331809 -18.057561 
L 319.653045 -15.715339 
L 324.38527 -15.715339 
L 331.438731 -15.715339 
L 338.492193 -15.715339 
L 342.743431 -15.715339 
L 338.492193 -19.024475 
L 333.063191 -23.573009 
L 331.438731 -24.85627 
L 324.38527 -30.928733 
L 323.85541 -31.430678 
L 318.505966 -39.288348 
L 317.331809 -42.079147 
L 315.416771 -47.146018 
L 313.412991 -55.003687 
L 311.947191 -62.861357 
L 310.831985 -70.719026 
L 310.278348 -75.670655 
L 309.985835 -78.576696 
L 309.330611 -86.434366 
L 308.782169 -94.292035 
L 308.323369 -102.149705 
L 307.939581 -110.007374 
L 307.629303 -117.865044 
L 307.435939 -125.722714 
L 303.224886 -125.722714 
L 296.171425 -125.722714 
L 289.284526 -125.722714 
L 289.54537 -117.865044 
L 289.956946 -110.007374 
L 290.459247 -102.149705 
L 291.062131 -94.292035 
L 291.79355 -86.434366 
L 292.66459 -78.576696 
L 293.724028 -70.719026 
L 295.069913 -62.861357 
L 296.171425 -57.929501 
L 296.650916 -55.003687 
L 298.415947 -47.146018 
L 301.027789 -39.288348 
L 303.224886 -35.221461 
L 305.355584 -31.430678 
L 310.278348 -25.763054 
L 312.374785 -23.573009 
z
" style="stroke: #3bbb75"/>
    </defs>
    <g clip-path="url(#p4baae249aa)">
     <use xlink:href="#mab87ba5137" x="0" y="142.86672" style="fill: #3bbb75; stroke: #3bbb75"/>
    </g>
   </g>
   <g id="PathCollection_27">
    <defs>
     <path id="m2ee098121a" d="M 303.224886 -15.715339 
L 310.278348 -15.715339 
L 317.331809 -15.715339 
L 319.653045 -15.715339 
L 317.331809 -18.057561 
L 312.374785 -23.573009 
L 310.278348 -25.763054 
L 305.355584 -31.430678 
L 303.224886 -35.221461 
L 301.027789 -39.288348 
L 298.415947 -47.146018 
L 296.650916 -55.003687 
L 296.171425 -57.929501 
L 295.069913 -62.861357 
L 293.724028 -70.719026 
L 292.66459 -78.576696 
L 291.79355 -86.434366 
L 291.062131 -94.292035 
L 290.459247 -102.149705 
L 289.956946 -110.007374 
L 289.54537 -117.865044 
L 289.284526 -125.722714 
L 289.117964 -125.722714 
L 289.117964 -117.865044 
L 289.117964 -110.007374 
L 289.117964 -102.149705 
L 289.117964 -94.292035 
L 289.117964 -86.434366 
L 289.117964 -78.576696 
L 289.117964 -70.719026 
L 289.117964 -62.861357 
L 289.117964 -55.003687 
L 289.117964 -47.146018 
L 289.117964 -39.288348 
L 289.117964 -31.430678 
L 289.117964 -29.722053 
L 296.171425 -23.603118 
L 296.196671 -23.573009 
L 302.409972 -15.715339 
z
" style="stroke: #21a685"/>
    </defs>
    <g clip-path="url(#p4baae249aa)">
     <use xlink:href="#m2ee098121a" x="0" y="142.86672" style="fill: #21a685; stroke: #21a685"/>
    </g>
   </g>
   <g id="PathCollection_28">
    <defs>
     <path id="med6124548f" d="M 296.171425 -15.715339 
L 302.409972 -15.715339 
L 296.196671 -23.573009 
L 296.171425 -23.603118 
L 289.117964 -29.722053 
L 289.117964 -23.573009 
L 289.117964 -15.715339 
z
" style="stroke: #21908d"/>
    </defs>
    <g clip-path="url(#p4baae249aa)">
     <use xlink:href="#med6124548f" x="0" y="142.86672" style="fill: #21908d; stroke: #21908d"/>
    </g>
   </g>
   <g id="PathCollection_29"/>
   <g id="PathCollection_30"/>
   <g id="PathCollection_31"/>
   <g id="PathCollection_32"/>
   <g id="PathCollection_33"/>
   <g id="QuadContourSet_3">
    <path clip-path="url(#p4baae249aa)" style="fill: none; stroke: #3d4240; stroke-opacity: 0.1; stroke-width: 0.8"/>
    <path d="M 387.866421 110.58859 
L 380.81296 107.165073 
L 375.958999 103.578372 
L 373.759499 100.931466 
L 369.923535 95.720702 
L 366.706038 89.266921 
L 366.0557 87.863033 
L 363.402287 80.005363 
L 361.379106 72.147694 
L 359.796291 64.290024 
L 359.652576 63.403403 
L 358.611187 56.432354 
L 357.614755 48.574685 
L 356.765147 40.717015 
L 356.028692 32.859346 
L 355.414819 25.001676 
L 355.047381 17.144006 
" clip-path="url(#p4baae249aa)" style="fill: none; stroke: #3d4240; stroke-opacity: 0.1; stroke-width: 0.8"/>
    <path d="M 375.383188 127.151381 
L 373.759499 126.32952 
L 366.706038 122.307416 
L 361.766468 119.293711 
L 359.652576 118.06474 
L 352.599115 113.655181 
L 349.314523 111.436042 
L 345.545654 107.480395 
L 342.110377 103.578372 
L 338.726287 97.365856 
M 332.854618 77.981123 
L 331.756919 72.147694 
L 331.438731 70.008463 
L 330.668334 64.290024 
L 329.802533 56.432354 
L 329.074705 48.574685 
L 328.475601 40.717015 
L 327.972682 32.859346 
L 327.537697 25.001676 
L 327.250416 17.144006 
" clip-path="url(#p4baae249aa)" style="fill: none; stroke: #3d4240; stroke-opacity: 0.1; stroke-width: 0.8"/>
    <path d="M 342.743431 127.151381 
L 338.492193 123.842245 
L 333.063191 119.293711 
L 331.438731 118.01045 
L 324.38527 111.937987 
L 323.85541 111.436042 
L 318.505966 103.578372 
L 317.331809 100.787573 
L 315.416771 95.720702 
L 313.412991 87.863033 
L 311.947191 80.005363 
L 310.831985 72.147694 
L 310.278348 67.196065 
L 309.985835 64.290024 
L 309.330611 56.432354 
L 308.782169 48.574685 
L 308.323369 40.717015 
L 307.939581 32.859346 
L 307.629303 25.001676 
L 307.435939 17.144006 
" clip-path="url(#p4baae249aa)" style="fill: none; stroke: #3d4240; stroke-opacity: 0.1; stroke-width: 0.8"/>
    <path d="M 319.653045 127.151381 
L 317.331809 124.809159 
L 312.374785 119.293711 
L 310.278348 117.103666 
L 305.355584 111.436042 
L 303.224886 107.645259 
L 301.027789 103.578372 
L 298.415947 95.720702 
L 298.227015 94.879601 
M 294.208422 74.975727 
L 293.724028 72.147694 
L 292.66459 64.290024 
L 291.79355 56.432354 
L 291.062131 48.574685 
L 290.459247 40.717015 
L 289.956946 32.859346 
L 289.54537 25.001676 
L 289.284526 17.144006 
" clip-path="url(#p4baae249aa)" style="fill: none; stroke: #3d4240; stroke-opacity: 0.1; stroke-width: 0.8"/>
    <path d="M 302.409972 127.151381 
L 296.196671 119.293711 
L 296.171425 119.263602 
L 289.117964 113.144667 
" clip-path="url(#p4baae249aa)" style="fill: none; stroke: #3d4240; stroke-opacity: 0.1; stroke-width: 0.8"/>
    <path clip-path="url(#p4baae249aa)" style="fill: none; stroke: #3d4240; stroke-opacity: 0.1; stroke-width: 0.8"/>
    <path clip-path="url(#p4baae249aa)" style="fill: none; stroke: #3d4240; stroke-opacity: 0.1; stroke-width: 0.8"/>
    <path clip-path="url(#p4baae249aa)" style="fill: none; stroke: #3d4240; stroke-opacity: 0.1; stroke-width: 0.8"/>
    <path clip-path="url(#p4baae249aa)" style="fill: none; stroke: #3d4240; stroke-opacity: 0.1; stroke-width: 0.8"/>
    <path clip-path="url(#p4baae249aa)" style="fill: none; stroke: #3d4240; stroke-opacity: 0.1; stroke-width: 0.8"/>
    <path clip-path="url(#p4baae249aa)" style="fill: none; stroke: #3d4240; stroke-opacity: 0.1; stroke-width: 0.8"/>
   </g>
   <g id="text_24">
    <g clip-path="url(#p4baae249aa)">
     <!-- 4.5 -->
     <g transform="translate(327.542465 90.706705) scale(0.11 -0.11)">
      <use xlink:href="#ArialMT-34"/>
      <use xlink:href="#ArialMT-2e" x="55.615234"/>
      <use xlink:href="#ArialMT-35" x="83.398438"/>
     </g>
    </g>
   </g>
   <g id="text_25">
    <g clip-path="url(#p4baae249aa)">
     <!-- 5.9 -->
     <g transform="translate(288.526425 87.780891) scale(0.11 -0.11)">
      <use xlink:href="#ArialMT-35"/>
      <use xlink:href="#ArialMT-2e" x="55.615234"/>
      <use xlink:href="#ArialMT-39" x="83.398438"/>
     </g>
    </g>
   </g>
   <g id="matplotlib.axis_7">
    <g id="xtick_9">
     <g id="line2d_22">
      <g>
       <use xlink:href="#me8657ee12c" x="289.117964" y="127.151381" style="stroke: #000000; stroke-width: 0.8"/>
      </g>
     </g>
    </g>
    <g id="xtick_10">
     <g id="line2d_23">
      <g>
       <use xlink:href="#me8657ee12c" x="322.034116" y="127.151381" style="stroke: #000000; stroke-width: 0.8"/>
      </g>
     </g>
     <g id="text_26">
      <!-- 40 -->
      <g transform="translate(315.917085 140.524975) scale(0.11 -0.11)">
       <use xlink:href="#ArialMT-34"/>
       <use xlink:href="#ArialMT-30" x="55.615234"/>
      </g>
     </g>
    </g>
    <g id="xtick_11">
     <g id="line2d_24">
      <g>
       <use xlink:href="#me8657ee12c" x="354.950269" y="127.151381" style="stroke: #000000; stroke-width: 0.8"/>
      </g>
     </g>
     <g id="text_27">
      <!-- 50 -->
      <g transform="translate(348.833238 140.524975) scale(0.11 -0.11)">
       <use xlink:href="#ArialMT-35"/>
       <use xlink:href="#ArialMT-30" x="55.615234"/>
      </g>
     </g>
    </g>
    <g id="xtick_12">
     <g id="line2d_25">
      <g>
       <use xlink:href="#me8657ee12c" x="387.866421" y="127.151381" style="stroke: #000000; stroke-width: 0.8"/>
      </g>
     </g>
     <g id="text_28">
      <!-- 60 -->
      <g transform="translate(381.74939 140.524975) scale(0.11 -0.11)">
       <use xlink:href="#ArialMT-36"/>
       <use xlink:href="#ArialMT-30" x="55.615234"/>
      </g>
     </g>
    </g>
    <g id="text_29">
     <!-- Yield [$\mathrm{g} \cdot \mathrm{L}^{\mathrm{-1}}$] -->
     <g transform="translate(305.327193 156.611225) scale(0.11 -0.11)">
      <use xlink:href="#ArialMT-59" transform="translate(0 0.684375)"/>
      <use xlink:href="#ArialMT-69" transform="translate(66.699219 0.684375)"/>
      <use xlink:href="#ArialMT-65" transform="translate(88.916016 0.684375)"/>
      <use xlink:href="#ArialMT-6c" transform="translate(144.53125 0.684375)"/>
      <use xlink:href="#ArialMT-64" transform="translate(166.748047 0.684375)"/>
      <use xlink:href="#ArialMT-20" transform="translate(222.363281 0.684375)"/>
      <use xlink:href="#ArialMT-5b" transform="translate(250.146484 0.684375)"/>
      <use xlink:href="#DejaVuSans-67" transform="translate(277.929688 0.684375)"/>
      <use xlink:href="#DejaVuSans-22c5" transform="translate(360.888672 0.684375)"/>
      <use xlink:href="#DejaVuSans-4c" transform="translate(412.158203 0.684375)"/>
      <use xlink:href="#DejaVuSans-2212" transform="translate(468.828125 38.965625) scale(0.7)"/>
      <use xlink:href="#DejaVuSans-31" transform="translate(527.480469 38.965625) scale(0.7)"/>
      <use xlink:href="#ArialMT-5d" transform="translate(574.750977 0.684375)"/>
     </g>
    </g>
   </g>
   <g id="matplotlib.axis_8">
    <g id="ytick_14">
     <g id="line2d_26">
      <g>
       <use xlink:href="#m4722b6a799" x="289.117964" y="127.151381" style="stroke: #000000; stroke-width: 0.8"/>
      </g>
     </g>
    </g>
    <g id="ytick_15">
     <g id="line2d_27">
      <g>
       <use xlink:href="#m4722b6a799" x="289.117964" y="90.482256" style="stroke: #000000; stroke-width: 0.8"/>
      </g>
     </g>
    </g>
    <g id="ytick_16">
     <g id="line2d_28">
      <g>
       <use xlink:href="#m4722b6a799" x="289.117964" y="53.813131" style="stroke: #000000; stroke-width: 0.8"/>
      </g>
     </g>
    </g>
    <g id="ytick_17">
     <g id="line2d_29">
      <g>
       <use xlink:href="#m4722b6a799" x="289.117964" y="17.144006" style="stroke: #000000; stroke-width: 0.8"/>
      </g>
     </g>
    </g>
   </g>
   <g id="patch_15">
    <path d="M 289.117964 127.151381 
L 289.117964 17.144006 
" style="fill: none; stroke: #000000; stroke-width: 0.8; stroke-linejoin: miter; stroke-linecap: square"/>
   </g>
   <g id="patch_16">
    <path d="M 387.866421 127.151381 
L 387.866421 17.144006 
" style="fill: none; stroke: #000000; stroke-width: 0.8; stroke-linejoin: miter; stroke-linecap: square"/>
   </g>
   <g id="patch_17">
    <path d="M 289.117964 127.151381 
L 387.866421 127.151381 
" style="fill: none; stroke: #000000; stroke-width: 0.8; stroke-linejoin: miter; stroke-linecap: square"/>
   </g>
   <g id="patch_18">
    <path d="M 289.117964 17.144006 
L 387.866421 17.144006 
" style="fill: none; stroke: #000000; stroke-width: 0.8; stroke-linejoin: miter; stroke-linecap: square"/>
   </g>
  </g>
  <g id="axes_6">
   <g id="matplotlib.axis_9">
    <g id="ytick_18">
     <g id="line2d_30">
      <defs>
       <path id="m68dc4fa102" d="M 0 0 
L -4 0 
" style="stroke: #000000; stroke-width: 0.8"/>
      </defs>
      <g>
       <use xlink:href="#m68dc4fa102" x="158.276258" y="127.151381" style="stroke: #000000; stroke-width: 0.8"/>
      </g>
     </g>
    </g>
    <g id="ytick_19">
     <g id="line2d_31">
      <g>
       <use xlink:href="#m68dc4fa102" x="158.276258" y="90.482256" style="stroke: #000000; stroke-width: 0.8"/>
      </g>
     </g>
    </g>
    <g id="ytick_20">
     <g id="line2d_32">
      <g>
       <use xlink:href="#m68dc4fa102" x="158.276258" y="53.813131" style="stroke: #000000; stroke-width: 0.8"/>
      </g>
     </g>
    </g>
    <g id="ytick_21">
     <g id="line2d_33">
      <g>
       <use xlink:href="#m68dc4fa102" x="158.276258" y="17.144006" style="stroke: #000000; stroke-width: 0.8"/>
      </g>
     </g>
    </g>
   </g>
   <g id="patch_19">
    <path d="M 59.5278 127.151381 
L 59.5278 17.144006 
" style="fill: none; stroke: #000000; stroke-width: 0.8; stroke-linejoin: miter; stroke-linecap: square"/>
   </g>
   <g id="patch_20">
    <path d="M 158.276258 127.151381 
L 158.276258 17.144006 
" style="fill: none; stroke: #000000; stroke-width: 0.8; stroke-linejoin: miter; stroke-linecap: square"/>
   </g>
   <g id="patch_21">
    <path d="M 59.5278 127.151381 
L 158.276258 127.151381 
" style="fill: none; stroke: #000000; stroke-width: 0.8; stroke-linejoin: miter; stroke-linecap: square"/>
   </g>
   <g id="patch_22">
    <path d="M 59.5278 17.144006 
L 158.276258 17.144006 
" style="fill: none; stroke: #000000; stroke-width: 0.8; stroke-linejoin: miter; stroke-linecap: square"/>
   </g>
  </g>
  <g id="axes_7">
   <g id="matplotlib.axis_10">
    <g id="xtick_13">
     <g id="line2d_34">
      <defs>
       <path id="meb7f5104dd" d="M 0 0 
L 0 4 
" style="stroke: #000000; stroke-width: 0.8"/>
      </defs>
      <g>
       <use xlink:href="#meb7f5104dd" x="59.5278" y="17.144006" style="stroke: #000000; stroke-width: 0.8"/>
      </g>
     </g>
    </g>
    <g id="xtick_14">
     <g id="line2d_35">
      <g>
       <use xlink:href="#meb7f5104dd" x="92.443953" y="17.144006" style="stroke: #000000; stroke-width: 0.8"/>
      </g>
     </g>
    </g>
    <g id="xtick_15">
     <g id="line2d_36">
      <g>
       <use xlink:href="#meb7f5104dd" x="125.360105" y="17.144006" style="stroke: #000000; stroke-width: 0.8"/>
      </g>
     </g>
    </g>
    <g id="xtick_16">
     <g id="line2d_37">
      <g>
       <use xlink:href="#meb7f5104dd" x="158.276258" y="17.144006" style="stroke: #000000; stroke-width: 0.8"/>
      </g>
     </g>
    </g>
   </g>
   <g id="patch_23">
    <path d="M 59.5278 127.151381 
L 59.5278 17.144006 
" style="fill: none; stroke: #000000; stroke-width: 0.8; stroke-linejoin: miter; stroke-linecap: square"/>
   </g>
   <g id="patch_24">
    <path d="M 158.276258 127.151381 
L 158.276258 17.144006 
" style="fill: none; stroke: #000000; stroke-width: 0.8; stroke-linejoin: miter; stroke-linecap: square"/>
   </g>
   <g id="patch_25">
    <path d="M 59.5278 127.151381 
L 158.276258 127.151381 
" style="fill: none; stroke: #000000; stroke-width: 0.8; stroke-linejoin: miter; stroke-linecap: square"/>
   </g>
   <g id="patch_26">
    <path d="M 59.5278 17.144006 
L 158.276258 17.144006 
" style="fill: none; stroke: #000000; stroke-width: 0.8; stroke-linejoin: miter; stroke-linecap: square"/>
   </g>
  </g>
  <g id="axes_8">
   <g id="matplotlib.axis_11">
    <g id="ytick_22">
     <g id="line2d_38">
      <g>
       <use xlink:href="#m68dc4fa102" x="273.071339" y="127.151381" style="stroke: #000000; stroke-width: 0.8"/>
      </g>
     </g>
    </g>
    <g id="ytick_23">
     <g id="line2d_39">
      <g>
       <use xlink:href="#m68dc4fa102" x="273.071339" y="90.482256" style="stroke: #000000; stroke-width: 0.8"/>
      </g>
     </g>
    </g>
    <g id="ytick_24">
     <g id="line2d_40">
      <g>
       <use xlink:href="#m68dc4fa102" x="273.071339" y="53.813131" style="stroke: #000000; stroke-width: 0.8"/>
      </g>
     </g>
    </g>
    <g id="ytick_25">
     <g id="line2d_41">
      <g>
       <use xlink:href="#m68dc4fa102" x="273.071339" y="17.144006" style="stroke: #000000; stroke-width: 0.8"/>
      </g>
     </g>
    </g>
   </g>
   <g id="patch_27">
    <path d="M 174.322882 127.151381 
L 174.322882 17.144006 
" style="fill: none; stroke: #000000; stroke-width: 0.8; stroke-linejoin: miter; stroke-linecap: square"/>
   </g>
   <g id="patch_28">
    <path d="M 273.071339 127.151381 
L 273.071339 17.144006 
" style="fill: none; stroke: #000000; stroke-width: 0.8; stroke-linejoin: miter; stroke-linecap: square"/>
   </g>
   <g id="patch_29">
    <path d="M 174.322882 127.151381 
L 273.071339 127.151381 
" style="fill: none; stroke: #000000; stroke-width: 0.8; stroke-linejoin: miter; stroke-linecap: square"/>
   </g>
   <g id="patch_30">
    <path d="M 174.322882 17.144006 
L 273.071339 17.144006 
" style="fill: none; stroke: #000000; stroke-width: 0.8; stroke-linejoin: miter; stroke-linecap: square"/>
   </g>
  </g>
  <g id="axes_9">
   <g id="matplotlib.axis_12">
    <g id="xtick_17">
     <g id="line2d_42">
      <g>
       <use xlink:href="#meb7f5104dd" x="174.322882" y="17.144006" style="stroke: #000000; stroke-width: 0.8"/>
      </g>
     </g>
    </g>
    <g id="xtick_18">
     <g id="line2d_43">
      <g>
       <use xlink:href="#meb7f5104dd" x="207.239034" y="17.144006" style="stroke: #000000; stroke-width: 0.8"/>
      </g>
     </g>
    </g>
    <g id="xtick_19">
     <g id="line2d_44">
      <g>
       <use xlink:href="#meb7f5104dd" x="240.155187" y="17.144006" style="stroke: #000000; stroke-width: 0.8"/>
      </g>
     </g>
    </g>
    <g id="xtick_20">
     <g id="line2d_45">
      <g>
       <use xlink:href="#meb7f5104dd" x="273.071339" y="17.144006" style="stroke: #000000; stroke-width: 0.8"/>
      </g>
     </g>
    </g>
   </g>
   <g id="patch_31">
    <path d="M 174.322882 127.151381 
L 174.322882 17.144006 
" style="fill: none; stroke: #000000; stroke-width: 0.8; stroke-linejoin: miter; stroke-linecap: square"/>
   </g>
   <g id="patch_32">
    <path d="M 273.071339 127.151381 
L 273.071339 17.144006 
" style="fill: none; stroke: #000000; stroke-width: 0.8; stroke-linejoin: miter; stroke-linecap: square"/>
   </g>
   <g id="patch_33">
    <path d="M 174.322882 127.151381 
L 273.071339 127.151381 
" style="fill: none; stroke: #000000; stroke-width: 0.8; stroke-linejoin: miter; stroke-linecap: square"/>
   </g>
   <g id="patch_34">
    <path d="M 174.322882 17.144006 
L 273.071339 17.144006 
" style="fill: none; stroke: #000000; stroke-width: 0.8; stroke-linejoin: miter; stroke-linecap: square"/>
   </g>
  </g>
  <g id="axes_10">
   <g id="matplotlib.axis_13">
    <g id="ytick_26">
     <g id="line2d_46">
      <g>
       <use xlink:href="#m68dc4fa102" x="387.866421" y="127.151381" style="stroke: #000000; stroke-width: 0.8"/>
      </g>
     </g>
    </g>
    <g id="ytick_27">
     <g id="line2d_47">
      <g>
       <use xlink:href="#m68dc4fa102" x="387.866421" y="90.482256" style="stroke: #000000; stroke-width: 0.8"/>
      </g>
     </g>
    </g>
    <g id="ytick_28">
     <g id="line2d_48">
      <g>
       <use xlink:href="#m68dc4fa102" x="387.866421" y="53.813131" style="stroke: #000000; stroke-width: 0.8"/>
      </g>
     </g>
    </g>
    <g id="ytick_29">
     <g id="line2d_49">
      <g>
       <use xlink:href="#m68dc4fa102" x="387.866421" y="17.144006" style="stroke: #000000; stroke-width: 0.8"/>
      </g>
     </g>
    </g>
   </g>
   <g id="patch_35">
    <path d="M 289.117964 127.151381 
L 289.117964 17.144006 
" style="fill: none; stroke: #000000; stroke-width: 0.8; stroke-linejoin: miter; stroke-linecap: square"/>
   </g>
   <g id="patch_36">
    <path d="M 387.866421 127.151381 
L 387.866421 17.144006 
" style="fill: none; stroke: #000000; stroke-width: 0.8; stroke-linejoin: miter; stroke-linecap: square"/>
   </g>
   <g id="patch_37">
    <path d="M 289.117964 127.151381 
L 387.866421 127.151381 
" style="fill: none; stroke: #000000; stroke-width: 0.8; stroke-linejoin: miter; stroke-linecap: square"/>
   </g>
   <g id="patch_38">
    <path d="M 289.117964 17.144006 
L 387.866421 17.144006 
" style="fill: none; stroke: #000000; stroke-width: 0.8; stroke-linejoin: miter; stroke-linecap: square"/>
   </g>
  </g>
  <g id="axes_11">
   <g id="matplotlib.axis_14">
    <g id="xtick_21">
     <g id="line2d_50">
      <g>
       <use xlink:href="#meb7f5104dd" x="289.117964" y="17.144006" style="stroke: #000000; stroke-width: 0.8"/>
      </g>
     </g>
    </g>
    <g id="xtick_22">
     <g id="line2d_51">
      <g>
       <use xlink:href="#meb7f5104dd" x="322.034116" y="17.144006" style="stroke: #000000; stroke-width: 0.8"/>
      </g>
     </g>
    </g>
    <g id="xtick_23">
     <g id="line2d_52">
      <g>
       <use xlink:href="#meb7f5104dd" x="354.950269" y="17.144006" style="stroke: #000000; stroke-width: 0.8"/>
      </g>
     </g>
    </g>
    <g id="xtick_24">
     <g id="line2d_53">
      <g>
       <use xlink:href="#meb7f5104dd" x="387.866421" y="17.144006" style="stroke: #000000; stroke-width: 0.8"/>
      </g>
     </g>
    </g>
   </g>
   <g id="patch_39">
    <path d="M 289.117964 127.151381 
L 289.117964 17.144006 
" style="fill: none; stroke: #000000; stroke-width: 0.8; stroke-linejoin: miter; stroke-linecap: square"/>
   </g>
   <g id="patch_40">
    <path d="M 387.866421 127.151381 
L 387.866421 17.144006 
" style="fill: none; stroke: #000000; stroke-width: 0.8; stroke-linejoin: miter; stroke-linecap: square"/>
   </g>
   <g id="patch_41">
    <path d="M 289.117964 127.151381 
L 387.866421 127.151381 
" style="fill: none; stroke: #000000; stroke-width: 0.8; stroke-linejoin: miter; stroke-linecap: square"/>
   </g>
   <g id="patch_42">
    <path d="M 289.117964 17.144006 
L 387.866421 17.144006 
" style="fill: none; stroke: #000000; stroke-width: 0.8; stroke-linejoin: miter; stroke-linecap: square"/>
   </g>
  </g>
 </g>
 <defs>
  <clipPath id="p18f3f7423b">
   <rect x="416.256603" y="17.144006" width="5.500369" height="110.007374"/>
  </clipPath>
  <clipPath id="p5c355e341f">
   <rect x="59.5278" y="17.144006" width="98.748458" height="110.007374"/>
  </clipPath>
  <clipPath id="paae0dfc258">
   <rect x="174.322882" y="17.144006" width="98.748458" height="110.007374"/>
  </clipPath>
  <clipPath id="p4baae249aa">
   <rect x="289.117964" y="17.144006" width="98.748458" height="110.007374"/>
  </clipPath>
 </defs>
</svg>
