<?xml version="1.0" encoding="utf-8" standalone="no"?>
<!DOCTYPE svg PUBLIC "-//W3C//DTD SVG 1.1//EN"
  "http://www.w3.org/Graphics/SVG/1.1/DTD/svg11.dtd">
<svg xmlns:xlink="http://www.w3.org/1999/xlink" width="476.2224pt" height="285.73344pt" viewBox="0 0 476.2224 285.73344" xmlns="http://www.w3.org/2000/svg" version="1.1">
 <metadata>
  <rdf:RDF xmlns:dc="http://purl.org/dc/elements/1.1/" xmlns:cc="http://creativecommons.org/ns#" xmlns:rdf="http://www.w3.org/1999/02/22-rdf-syntax-ns#">
   <cc:Work>
    <dc:type rdf:resource="http://purl.org/dc/dcmitype/StillImage"/>
    <dc:date>2024-02-11T09:44:44.192528</dc:date>
    <dc:format>image/svg+xml</dc:format>
    <dc:creator>
     <cc:Agent>
      <dc:title>Matplotlib v3.7.1, https://matplotlib.org/</dc:title>
     </cc:Agent>
    </dc:creator>
   </cc:Work>
  </rdf:RDF>
 </metadata>
 <defs>
  <style type="text/css">*{stroke-linejoin: round; stroke-linecap: butt}</style>
 </defs>
 <g id="figure_1">
  <g id="patch_1">
   <path d="M 0 285.73344 
L 476.2224 285.73344 
L 476.2224 0 
L 0 0 
L 0 285.73344 
z
" style="fill: none"/>
  </g>
  <g id="axes_1">
   <g id="patch_2">
    <path d="M 59.5278 257.160096 
L 457.173504 257.160096 
L 457.173504 14.286672 
L 59.5278 14.286672 
L 59.5278 257.160096 
z
" style="fill: none"/>
   </g>
   <g id="PolyCollection_1">
    <defs>
     <path id="medfb100c7d" d="M 59.5278 -181.391264 
L 59.5278 -180.585676 
L 72.782657 -175.367049 
L 86.037514 -167.905759 
L 99.29237 -160.268953 
L 112.547227 -153.10035 
L 125.802084 -146.495408 
L 139.056941 -140.319879 
L 152.311798 -134.533366 
L 165.566654 -129.218874 
L 178.821511 -124.339092 
L 192.076368 -119.93461 
L 205.331225 -116.351221 
L 218.586082 -113.347871 
L 231.840938 -110.550851 
L 245.095795 -107.844068 
L 258.350652 -105.242447 
L 271.605509 -102.924984 
L 284.860366 -100.885053 
L 298.115222 -98.834895 
L 311.370079 -96.720297 
L 324.624936 -94.734779 
L 337.879793 -92.970722 
L 351.13465 -91.355643 
L 364.389506 -89.739281 
L 377.644363 -88.147161 
L 390.89922 -86.680348 
L 404.154077 -85.395901 
L 417.408934 -84.225846 
L 430.66379 -83.068926 
L 443.918647 -81.997714 
L 457.173504 -81.295093 
L 457.173504 -99.675091 
L 457.173504 -99.675091 
L 443.918647 -100.454633 
L 430.66379 -101.610642 
L 417.408934 -102.877954 
L 404.154077 -104.20055 
L 390.89922 -105.53592 
L 377.644363 -106.872629 
L 364.389506 -108.264096 
L 351.13465 -109.655848 
L 337.879793 -111.068708 
L 324.624936 -112.641914 
L 311.370079 -114.244277 
L 298.115222 -115.777614 
L 284.860366 -117.544747 
L 271.605509 -119.632617 
L 258.350652 -121.939351 
L 245.095795 -124.454225 
L 231.840938 -127.123543 
L 218.586082 -129.855128 
L 205.331225 -132.697714 
L 192.076368 -135.827757 
L 178.821511 -139.272858 
L 165.566654 -142.953475 
L 152.311798 -146.867268 
L 139.056941 -151.110392 
L 125.802084 -155.702872 
L 112.547227 -160.614176 
L 99.29237 -165.90394 
L 86.037514 -171.614498 
L 72.782657 -177.343097 
L 59.5278 -181.391264 
z
" style="stroke: #c6d69e"/>
    </defs>
    <g clip-path="url(#pd5e26d6f5f)">
     <use xlink:href="#medfb100c7d" x="0" y="285.73344" style="fill: #c6d69e; stroke: #c6d69e"/>
    </g>
   </g>
   <g id="patch_3">
    <path d="M 417.408934 217.767762 
L 417.408934 217.767762 
L 417.395679 217.767762 
L 417.395679 193.480419 
L 417.422188 193.480419 
L 417.422188 217.767762 
L 417.408934 217.767762 
z
" clip-path="url(#pd5e26d6f5f)" style="fill: #556725; opacity: 0.8; stroke: #556725; stroke-linejoin: miter"/>
   </g>
   <g id="matplotlib.axis_1">
    <g id="xtick_1">
     <g id="line2d_1">
      <defs>
       <path id="m7b57ecbc5b" d="M 0 2 
L 0 -2 
" style="stroke: #000000; stroke-width: 0.8"/>
      </defs>
      <g>
       <use xlink:href="#m7b57ecbc5b" x="59.5278" y="257.160096" style="stroke: #000000; stroke-width: 0.8"/>
      </g>
     </g>
    </g>
    <g id="xtick_2">
     <g id="line2d_2">
      <g>
       <use xlink:href="#m7b57ecbc5b" x="139.056941" y="257.160096" style="stroke: #000000; stroke-width: 0.8"/>
      </g>
     </g>
    </g>
    <g id="xtick_3">
     <g id="line2d_3">
      <g>
       <use xlink:href="#m7b57ecbc5b" x="218.586082" y="257.160096" style="stroke: #000000; stroke-width: 0.8"/>
      </g>
     </g>
    </g>
    <g id="xtick_4">
     <g id="line2d_4">
      <g>
       <use xlink:href="#m7b57ecbc5b" x="298.115222" y="257.160096" style="stroke: #000000; stroke-width: 0.8"/>
      </g>
     </g>
    </g>
    <g id="xtick_5">
     <g id="line2d_5">
      <g>
       <use xlink:href="#m7b57ecbc5b" x="377.644363" y="257.160096" style="stroke: #000000; stroke-width: 0.8"/>
      </g>
     </g>
    </g>
    <g id="xtick_6">
     <g id="line2d_6">
      <g>
       <use xlink:href="#m7b57ecbc5b" x="457.173504" y="257.160096" style="stroke: #000000; stroke-width: 0.8"/>
      </g>
     </g>
    </g>
   </g>
   <g id="matplotlib.axis_2">
    <g id="ytick_1">
     <g id="line2d_7">
      <defs>
       <path id="m948c945289" d="M 2 0 
L -2 -0 
" style="stroke: #000000; stroke-width: 0.8"/>
      </defs>
      <g>
       <use xlink:href="#m948c945289" x="59.5278" y="257.160096" style="stroke: #000000; stroke-width: 0.8"/>
      </g>
     </g>
    </g>
    <g id="ytick_2">
     <g id="line2d_8">
      <g>
       <use xlink:href="#m948c945289" x="59.5278" y="226.800918" style="stroke: #000000; stroke-width: 0.8"/>
      </g>
     </g>
     <g id="text_1">
      <!-- 5 -->
      <g transform="translate(48.466862 230.379824) scale(0.1 -0.1)">
       <defs>
        <path id="ArialMT-35" d="M 266 1200 
L 856 1250 
Q 922 819 1161 601 
Q 1400 384 1738 384 
Q 2144 384 2425 690 
Q 2706 997 2706 1503 
Q 2706 1984 2436 2262 
Q 2166 2541 1728 2541 
Q 1456 2541 1237 2417 
Q 1019 2294 894 2097 
L 366 2166 
L 809 4519 
L 3088 4519 
L 3088 3981 
L 1259 3981 
L 1013 2750 
Q 1425 3038 1878 3038 
Q 2478 3038 2890 2622 
Q 3303 2206 3303 1553 
Q 3303 931 2941 478 
Q 2500 -78 1738 -78 
Q 1113 -78 717 272 
Q 322 622 266 1200 
z
" transform="scale(0.015625)"/>
       </defs>
       <use xlink:href="#ArialMT-35"/>
      </g>
     </g>
    </g>
    <g id="ytick_3">
     <g id="line2d_9">
      <g>
       <use xlink:href="#m948c945289" x="59.5278" y="196.44174" style="stroke: #000000; stroke-width: 0.8"/>
      </g>
     </g>
     <g id="text_2">
      <!-- 10 -->
      <g transform="translate(42.905925 200.020646) scale(0.1 -0.1)">
       <defs>
        <path id="ArialMT-31" d="M 2384 0 
L 1822 0 
L 1822 3584 
Q 1619 3391 1289 3197 
Q 959 3003 697 2906 
L 697 3450 
Q 1169 3672 1522 3987 
Q 1875 4303 2022 4600 
L 2384 4600 
L 2384 0 
z
" transform="scale(0.015625)"/>
        <path id="ArialMT-30" d="M 266 2259 
Q 266 3072 433 3567 
Q 600 4063 929 4331 
Q 1259 4600 1759 4600 
Q 2128 4600 2406 4451 
Q 2684 4303 2865 4023 
Q 3047 3744 3150 3342 
Q 3253 2941 3253 2259 
Q 3253 1453 3087 958 
Q 2922 463 2592 192 
Q 2263 -78 1759 -78 
Q 1097 -78 719 397 
Q 266 969 266 2259 
z
M 844 2259 
Q 844 1131 1108 757 
Q 1372 384 1759 384 
Q 2147 384 2411 759 
Q 2675 1134 2675 2259 
Q 2675 3391 2411 3762 
Q 2147 4134 1753 4134 
Q 1366 4134 1134 3806 
Q 844 3388 844 2259 
z
" transform="scale(0.015625)"/>
       </defs>
       <use xlink:href="#ArialMT-31"/>
       <use xlink:href="#ArialMT-30" x="55.615234"/>
      </g>
     </g>
    </g>
    <g id="ytick_4">
     <g id="line2d_10">
      <g>
       <use xlink:href="#m948c945289" x="59.5278" y="166.082562" style="stroke: #000000; stroke-width: 0.8"/>
      </g>
     </g>
     <g id="text_3">
      <!-- 15 -->
      <g transform="translate(42.905925 169.661468) scale(0.1 -0.1)">
       <use xlink:href="#ArialMT-31"/>
       <use xlink:href="#ArialMT-35" x="55.615234"/>
      </g>
     </g>
    </g>
    <g id="ytick_5">
     <g id="line2d_11">
      <g>
       <use xlink:href="#m948c945289" x="59.5278" y="135.723384" style="stroke: #000000; stroke-width: 0.8"/>
      </g>
     </g>
     <g id="text_4">
      <!-- 20 -->
      <g transform="translate(42.905925 139.30229) scale(0.1 -0.1)">
       <defs>
        <path id="ArialMT-32" d="M 3222 541 
L 3222 0 
L 194 0 
Q 188 203 259 391 
Q 375 700 629 1000 
Q 884 1300 1366 1694 
Q 2113 2306 2375 2664 
Q 2638 3022 2638 3341 
Q 2638 3675 2398 3904 
Q 2159 4134 1775 4134 
Q 1369 4134 1125 3890 
Q 881 3647 878 3216 
L 300 3275 
Q 359 3922 746 4261 
Q 1134 4600 1788 4600 
Q 2447 4600 2831 4234 
Q 3216 3869 3216 3328 
Q 3216 3053 3103 2787 
Q 2991 2522 2730 2228 
Q 2469 1934 1863 1422 
Q 1356 997 1212 845 
Q 1069 694 975 541 
L 3222 541 
z
" transform="scale(0.015625)"/>
       </defs>
       <use xlink:href="#ArialMT-32"/>
       <use xlink:href="#ArialMT-30" x="55.615234"/>
      </g>
     </g>
    </g>
    <g id="ytick_6">
     <g id="line2d_12">
      <g>
       <use xlink:href="#m948c945289" x="59.5278" y="105.364206" style="stroke: #000000; stroke-width: 0.8"/>
      </g>
     </g>
     <g id="text_5">
      <!-- 25 -->
      <g transform="translate(42.905925 108.943112) scale(0.1 -0.1)">
       <use xlink:href="#ArialMT-32"/>
       <use xlink:href="#ArialMT-35" x="55.615234"/>
      </g>
     </g>
    </g>
    <g id="ytick_7">
     <g id="line2d_13">
      <g>
       <use xlink:href="#m948c945289" x="59.5278" y="75.005028" style="stroke: #000000; stroke-width: 0.8"/>
      </g>
     </g>
     <g id="text_6">
      <!-- 30 -->
      <g transform="translate(42.905925 78.583934) scale(0.1 -0.1)">
       <defs>
        <path id="ArialMT-33" d="M 269 1209 
L 831 1284 
Q 928 806 1161 595 
Q 1394 384 1728 384 
Q 2125 384 2398 659 
Q 2672 934 2672 1341 
Q 2672 1728 2419 1979 
Q 2166 2231 1775 2231 
Q 1616 2231 1378 2169 
L 1441 2663 
Q 1497 2656 1531 2656 
Q 1891 2656 2178 2843 
Q 2466 3031 2466 3422 
Q 2466 3731 2256 3934 
Q 2047 4138 1716 4138 
Q 1388 4138 1169 3931 
Q 950 3725 888 3313 
L 325 3413 
Q 428 3978 793 4289 
Q 1159 4600 1703 4600 
Q 2078 4600 2393 4439 
Q 2709 4278 2876 4000 
Q 3044 3722 3044 3409 
Q 3044 3113 2884 2869 
Q 2725 2625 2413 2481 
Q 2819 2388 3044 2092 
Q 3269 1797 3269 1353 
Q 3269 753 2831 336 
Q 2394 -81 1725 -81 
Q 1122 -81 723 278 
Q 325 638 269 1209 
z
" transform="scale(0.015625)"/>
       </defs>
       <use xlink:href="#ArialMT-33"/>
       <use xlink:href="#ArialMT-30" x="55.615234"/>
      </g>
     </g>
    </g>
    <g id="ytick_8">
     <g id="line2d_14">
      <g>
       <use xlink:href="#m948c945289" x="59.5278" y="44.64585" style="stroke: #000000; stroke-width: 0.8"/>
      </g>
     </g>
     <g id="text_7">
      <!-- 35 -->
      <g transform="translate(42.905925 48.224756) scale(0.1 -0.1)">
       <use xlink:href="#ArialMT-33"/>
       <use xlink:href="#ArialMT-35" x="55.615234"/>
      </g>
     </g>
    </g>
    <g id="ytick_9">
     <g id="line2d_15">
      <g>
       <use xlink:href="#m948c945289" x="59.5278" y="14.286672" style="stroke: #000000; stroke-width: 0.8"/>
      </g>
     </g>
     <g id="text_8">
      <!-- 40 -->
      <g transform="translate(42.905925 17.865578) scale(0.1 -0.1)">
       <defs>
        <path id="ArialMT-34" d="M 2069 0 
L 2069 1097 
L 81 1097 
L 81 1613 
L 2172 4581 
L 2631 4581 
L 2631 1613 
L 3250 1613 
L 3250 1097 
L 2631 1097 
L 2631 0 
L 2069 0 
z
M 2069 1613 
L 2069 3678 
L 634 1613 
L 2069 1613 
z
" transform="scale(0.015625)"/>
       </defs>
       <use xlink:href="#ArialMT-34"/>
       <use xlink:href="#ArialMT-30" x="55.615234"/>
      </g>
     </g>
    </g>
    <g id="text_9">
     <!-- Biomass yield -->
     <g transform="translate(23.901237 166.567134) rotate(-90) scale(0.1 -0.1)">
      <defs>
       <path id="ArialMT-42" d="M 469 0 
L 469 4581 
L 2188 4581 
Q 2713 4581 3030 4442 
Q 3347 4303 3526 4014 
Q 3706 3725 3706 3409 
Q 3706 3116 3547 2856 
Q 3388 2597 3066 2438 
Q 3481 2316 3704 2022 
Q 3928 1728 3928 1328 
Q 3928 1006 3792 729 
Q 3656 453 3456 303 
Q 3256 153 2954 76 
Q 2653 0 2216 0 
L 469 0 
z
M 1075 2656 
L 2066 2656 
Q 2469 2656 2644 2709 
Q 2875 2778 2992 2937 
Q 3109 3097 3109 3338 
Q 3109 3566 3000 3739 
Q 2891 3913 2687 3977 
Q 2484 4041 1991 4041 
L 1075 4041 
L 1075 2656 
z
M 1075 541 
L 2216 541 
Q 2509 541 2628 563 
Q 2838 600 2978 687 
Q 3119 775 3209 942 
Q 3300 1109 3300 1328 
Q 3300 1584 3169 1773 
Q 3038 1963 2805 2039 
Q 2572 2116 2134 2116 
L 1075 2116 
L 1075 541 
z
" transform="scale(0.015625)"/>
       <path id="ArialMT-69" d="M 425 3934 
L 425 4581 
L 988 4581 
L 988 3934 
L 425 3934 
z
M 425 0 
L 425 3319 
L 988 3319 
L 988 0 
L 425 0 
z
" transform="scale(0.015625)"/>
       <path id="ArialMT-6f" d="M 213 1659 
Q 213 2581 725 3025 
Q 1153 3394 1769 3394 
Q 2453 3394 2887 2945 
Q 3322 2497 3322 1706 
Q 3322 1066 3130 698 
Q 2938 331 2570 128 
Q 2203 -75 1769 -75 
Q 1072 -75 642 372 
Q 213 819 213 1659 
z
M 791 1659 
Q 791 1022 1069 705 
Q 1347 388 1769 388 
Q 2188 388 2466 706 
Q 2744 1025 2744 1678 
Q 2744 2294 2464 2611 
Q 2184 2928 1769 2928 
Q 1347 2928 1069 2612 
Q 791 2297 791 1659 
z
" transform="scale(0.015625)"/>
       <path id="ArialMT-6d" d="M 422 0 
L 422 3319 
L 925 3319 
L 925 2853 
Q 1081 3097 1340 3245 
Q 1600 3394 1931 3394 
Q 2300 3394 2536 3241 
Q 2772 3088 2869 2813 
Q 3263 3394 3894 3394 
Q 4388 3394 4653 3120 
Q 4919 2847 4919 2278 
L 4919 0 
L 4359 0 
L 4359 2091 
Q 4359 2428 4304 2576 
Q 4250 2725 4106 2815 
Q 3963 2906 3769 2906 
Q 3419 2906 3187 2673 
Q 2956 2441 2956 1928 
L 2956 0 
L 2394 0 
L 2394 2156 
Q 2394 2531 2256 2718 
Q 2119 2906 1806 2906 
Q 1569 2906 1367 2781 
Q 1166 2656 1075 2415 
Q 984 2175 984 1722 
L 984 0 
L 422 0 
z
" transform="scale(0.015625)"/>
       <path id="ArialMT-61" d="M 2588 409 
Q 2275 144 1986 34 
Q 1697 -75 1366 -75 
Q 819 -75 525 192 
Q 231 459 231 875 
Q 231 1119 342 1320 
Q 453 1522 633 1644 
Q 813 1766 1038 1828 
Q 1203 1872 1538 1913 
Q 2219 1994 2541 2106 
Q 2544 2222 2544 2253 
Q 2544 2597 2384 2738 
Q 2169 2928 1744 2928 
Q 1347 2928 1158 2789 
Q 969 2650 878 2297 
L 328 2372 
Q 403 2725 575 2942 
Q 747 3159 1072 3276 
Q 1397 3394 1825 3394 
Q 2250 3394 2515 3294 
Q 2781 3194 2906 3042 
Q 3031 2891 3081 2659 
Q 3109 2516 3109 2141 
L 3109 1391 
Q 3109 606 3145 398 
Q 3181 191 3288 0 
L 2700 0 
Q 2613 175 2588 409 
z
M 2541 1666 
Q 2234 1541 1622 1453 
Q 1275 1403 1131 1340 
Q 988 1278 909 1158 
Q 831 1038 831 891 
Q 831 666 1001 516 
Q 1172 366 1500 366 
Q 1825 366 2078 508 
Q 2331 650 2450 897 
Q 2541 1088 2541 1459 
L 2541 1666 
z
" transform="scale(0.015625)"/>
       <path id="ArialMT-73" d="M 197 991 
L 753 1078 
Q 800 744 1014 566 
Q 1228 388 1613 388 
Q 2000 388 2187 545 
Q 2375 703 2375 916 
Q 2375 1106 2209 1216 
Q 2094 1291 1634 1406 
Q 1016 1563 777 1677 
Q 538 1791 414 1992 
Q 291 2194 291 2438 
Q 291 2659 392 2848 
Q 494 3038 669 3163 
Q 800 3259 1026 3326 
Q 1253 3394 1513 3394 
Q 1903 3394 2198 3281 
Q 2494 3169 2634 2976 
Q 2775 2784 2828 2463 
L 2278 2388 
Q 2241 2644 2061 2787 
Q 1881 2931 1553 2931 
Q 1166 2931 1000 2803 
Q 834 2675 834 2503 
Q 834 2394 903 2306 
Q 972 2216 1119 2156 
Q 1203 2125 1616 2013 
Q 2213 1853 2448 1751 
Q 2684 1650 2818 1456 
Q 2953 1263 2953 975 
Q 2953 694 2789 445 
Q 2625 197 2315 61 
Q 2006 -75 1616 -75 
Q 969 -75 630 194 
Q 291 463 197 991 
z
" transform="scale(0.015625)"/>
       <path id="ArialMT-20" transform="scale(0.015625)"/>
       <path id="ArialMT-79" d="M 397 -1278 
L 334 -750 
Q 519 -800 656 -800 
Q 844 -800 956 -737 
Q 1069 -675 1141 -563 
Q 1194 -478 1313 -144 
Q 1328 -97 1363 -6 
L 103 3319 
L 709 3319 
L 1400 1397 
Q 1534 1031 1641 628 
Q 1738 1016 1872 1384 
L 2581 3319 
L 3144 3319 
L 1881 -56 
Q 1678 -603 1566 -809 
Q 1416 -1088 1222 -1217 
Q 1028 -1347 759 -1347 
Q 597 -1347 397 -1278 
z
" transform="scale(0.015625)"/>
       <path id="ArialMT-65" d="M 2694 1069 
L 3275 997 
Q 3138 488 2766 206 
Q 2394 -75 1816 -75 
Q 1088 -75 661 373 
Q 234 822 234 1631 
Q 234 2469 665 2931 
Q 1097 3394 1784 3394 
Q 2450 3394 2872 2941 
Q 3294 2488 3294 1666 
Q 3294 1616 3291 1516 
L 816 1516 
Q 847 969 1125 678 
Q 1403 388 1819 388 
Q 2128 388 2347 550 
Q 2566 713 2694 1069 
z
M 847 1978 
L 2700 1978 
Q 2663 2397 2488 2606 
Q 2219 2931 1791 2931 
Q 1403 2931 1139 2672 
Q 875 2413 847 1978 
z
" transform="scale(0.015625)"/>
       <path id="ArialMT-6c" d="M 409 0 
L 409 4581 
L 972 4581 
L 972 0 
L 409 0 
z
" transform="scale(0.015625)"/>
       <path id="ArialMT-64" d="M 2575 0 
L 2575 419 
Q 2259 -75 1647 -75 
Q 1250 -75 917 144 
Q 584 363 401 755 
Q 219 1147 219 1656 
Q 219 2153 384 2558 
Q 550 2963 881 3178 
Q 1213 3394 1622 3394 
Q 1922 3394 2156 3267 
Q 2391 3141 2538 2938 
L 2538 4581 
L 3097 4581 
L 3097 0 
L 2575 0 
z
M 797 1656 
Q 797 1019 1065 703 
Q 1334 388 1700 388 
Q 2069 388 2326 689 
Q 2584 991 2584 1609 
Q 2584 2291 2321 2609 
Q 2059 2928 1675 2928 
Q 1300 2928 1048 2622 
Q 797 2316 797 1656 
z
" transform="scale(0.015625)"/>
      </defs>
      <use xlink:href="#ArialMT-42"/>
      <use xlink:href="#ArialMT-69" x="66.699219"/>
      <use xlink:href="#ArialMT-6f" x="88.916016"/>
      <use xlink:href="#ArialMT-6d" x="144.53125"/>
      <use xlink:href="#ArialMT-61" x="227.832031"/>
      <use xlink:href="#ArialMT-73" x="283.447266"/>
      <use xlink:href="#ArialMT-73" x="333.447266"/>
      <use xlink:href="#ArialMT-20" x="383.447266"/>
      <use xlink:href="#ArialMT-79" x="411.230469"/>
      <use xlink:href="#ArialMT-69" x="461.230469"/>
      <use xlink:href="#ArialMT-65" x="483.447266"/>
      <use xlink:href="#ArialMT-6c" x="539.0625"/>
      <use xlink:href="#ArialMT-64" x="561.279297"/>
     </g>
     <!-- [$\mathrm{DMT} \cdot \mathrm{ha}^{-1} \cdot \mathrm{y}^{-1}$] -->
     <g transform="translate(36.805925 176.723384) rotate(-90) scale(0.1 -0.1)">
      <defs>
       <path id="ArialMT-5b" d="M 434 -1272 
L 434 4581 
L 1675 4581 
L 1675 4116 
L 997 4116 
L 997 -806 
L 1675 -806 
L 1675 -1272 
L 434 -1272 
z
" transform="scale(0.015625)"/>
       <path id="DejaVuSans-44" d="M 1259 4147 
L 1259 519 
L 2022 519 
Q 2988 519 3436 956 
Q 3884 1394 3884 2338 
Q 3884 3275 3436 3711 
Q 2988 4147 2022 4147 
L 1259 4147 
z
M 628 4666 
L 1925 4666 
Q 3281 4666 3915 4102 
Q 4550 3538 4550 2338 
Q 4550 1131 3912 565 
Q 3275 0 1925 0 
L 628 0 
L 628 4666 
z
" transform="scale(0.015625)"/>
       <path id="DejaVuSans-4d" d="M 628 4666 
L 1569 4666 
L 2759 1491 
L 3956 4666 
L 4897 4666 
L 4897 0 
L 4281 0 
L 4281 4097 
L 3078 897 
L 2444 897 
L 1241 4097 
L 1241 0 
L 628 0 
L 628 4666 
z
" transform="scale(0.015625)"/>
       <path id="DejaVuSans-54" d="M -19 4666 
L 3928 4666 
L 3928 4134 
L 2272 4134 
L 2272 0 
L 1638 0 
L 1638 4134 
L -19 4134 
L -19 4666 
z
" transform="scale(0.015625)"/>
       <path id="DejaVuSans-22c5" d="M 684 2619 
L 1344 2619 
L 1344 1825 
L 684 1825 
L 684 2619 
z
" transform="scale(0.015625)"/>
       <path id="DejaVuSans-68" d="M 3513 2113 
L 3513 0 
L 2938 0 
L 2938 2094 
Q 2938 2591 2744 2837 
Q 2550 3084 2163 3084 
Q 1697 3084 1428 2787 
Q 1159 2491 1159 1978 
L 1159 0 
L 581 0 
L 581 4863 
L 1159 4863 
L 1159 2956 
Q 1366 3272 1645 3428 
Q 1925 3584 2291 3584 
Q 2894 3584 3203 3211 
Q 3513 2838 3513 2113 
z
" transform="scale(0.015625)"/>
       <path id="DejaVuSans-61" d="M 2194 1759 
Q 1497 1759 1228 1600 
Q 959 1441 959 1056 
Q 959 750 1161 570 
Q 1363 391 1709 391 
Q 2188 391 2477 730 
Q 2766 1069 2766 1631 
L 2766 1759 
L 2194 1759 
z
M 3341 1997 
L 3341 0 
L 2766 0 
L 2766 531 
Q 2569 213 2275 61 
Q 1981 -91 1556 -91 
Q 1019 -91 701 211 
Q 384 513 384 1019 
Q 384 1609 779 1909 
Q 1175 2209 1959 2209 
L 2766 2209 
L 2766 2266 
Q 2766 2663 2505 2880 
Q 2244 3097 1772 3097 
Q 1472 3097 1187 3025 
Q 903 2953 641 2809 
L 641 3341 
Q 956 3463 1253 3523 
Q 1550 3584 1831 3584 
Q 2591 3584 2966 3190 
Q 3341 2797 3341 1997 
z
" transform="scale(0.015625)"/>
       <path id="DejaVuSans-2212" d="M 678 2272 
L 4684 2272 
L 4684 1741 
L 678 1741 
L 678 2272 
z
" transform="scale(0.015625)"/>
       <path id="DejaVuSans-31" d="M 794 531 
L 1825 531 
L 1825 4091 
L 703 3866 
L 703 4441 
L 1819 4666 
L 2450 4666 
L 2450 531 
L 3481 531 
L 3481 0 
L 794 0 
L 794 531 
z
" transform="scale(0.015625)"/>
       <path id="DejaVuSans-79" d="M 2059 -325 
Q 1816 -950 1584 -1140 
Q 1353 -1331 966 -1331 
L 506 -1331 
L 506 -850 
L 844 -850 
Q 1081 -850 1212 -737 
Q 1344 -625 1503 -206 
L 1606 56 
L 191 3500 
L 800 3500 
L 1894 763 
L 2988 3500 
L 3597 3500 
L 2059 -325 
z
" transform="scale(0.015625)"/>
       <path id="ArialMT-5d" d="M 1363 -1272 
L 122 -1272 
L 122 -806 
L 800 -806 
L 800 4116 
L 122 4116 
L 122 4581 
L 1363 4581 
L 1363 -1272 
z
" transform="scale(0.015625)"/>
      </defs>
      <use xlink:href="#ArialMT-5b" transform="translate(0 0.684375)"/>
      <use xlink:href="#DejaVuSans-44" transform="translate(27.783203 0.684375)"/>
      <use xlink:href="#DejaVuSans-4d" transform="translate(104.785156 0.684375)"/>
      <use xlink:href="#DejaVuSans-54" transform="translate(191.064453 0.684375)"/>
      <use xlink:href="#DejaVuSans-22c5" transform="translate(271.630859 0.684375)"/>
      <use xlink:href="#DejaVuSans-68" transform="translate(322.900391 0.684375)"/>
      <use xlink:href="#DejaVuSans-61" transform="translate(386.279297 0.684375)"/>
      <use xlink:href="#DejaVuSans-2212" transform="translate(448.515625 38.965625) scale(0.7)"/>
      <use xlink:href="#DejaVuSans-31" transform="translate(507.167969 38.965625) scale(0.7)"/>
      <use xlink:href="#DejaVuSans-22c5" transform="translate(573.920898 0.684375)"/>
      <use xlink:href="#DejaVuSans-79" transform="translate(625.19043 0.684375)"/>
      <use xlink:href="#DejaVuSans-2212" transform="translate(685.327148 38.965625) scale(0.7)"/>
      <use xlink:href="#DejaVuSans-31" transform="translate(743.979492 38.965625) scale(0.7)"/>
      <use xlink:href="#ArialMT-5d" transform="translate(791.25 0.684375)"/>
     </g>
    </g>
   </g>
   <g id="line2d_16">
    <path d="M 59.5278 104.712639 
L 72.782657 109.330805 
L 86.037514 115.926945 
L 99.29237 122.555239 
L 112.547227 128.607879 
L 125.802084 134.090862 
L 139.056941 139.245817 
L 152.311798 144.156734 
L 165.566654 148.8017 
L 178.821511 153.213368 
L 192.076368 157.328823 
L 205.331225 161.02566 
L 218.586082 164.499677 
L 231.840938 167.794023 
L 245.095795 170.807769 
L 258.350652 173.453925 
L 271.605509 175.600587 
L 284.860366 177.36384 
L 298.115222 179.067391 
L 311.370079 180.974094 
L 324.624936 182.972603 
L 337.879793 184.886779 
L 351.13465 186.698196 
L 364.389506 188.384191 
L 377.644363 189.876286 
L 390.89922 191.221286 
L 404.154077 192.430516 
L 417.408934 193.480419 
L 430.66379 194.399684 
L 443.918647 195.10761 
L 457.173504 195.572826 
" clip-path="url(#pd5e26d6f5f)" style="fill: none; stroke: #7f9b37; stroke-width: 1.5; stroke-linecap: square"/>
   </g>
   <g id="line2d_17">
    <path d="M 59.5278 106.350489 
L 72.782657 114.189654 
L 86.037514 127.84869 
L 99.29237 142.929729 
L 112.547227 152.788203 
L 125.802084 157.885299 
L 139.056941 161.760008 
L 152.311798 165.519221 
L 165.566654 169.092334 
L 178.821511 172.617066 
L 192.076368 176.211125 
L 205.331225 179.345882 
L 218.586082 182.012067 
L 231.840938 184.551255 
L 245.095795 187.014 
L 258.350652 189.286486 
L 271.605509 191.35299 
L 284.860366 193.219475 
L 298.115222 194.968373 
L 311.370079 196.645228 
L 324.624936 198.229276 
L 337.879793 199.808164 
L 351.13465 201.381279 
L 364.389506 202.790912 
L 377.644363 204.096265 
L 390.89922 205.407738 
L 404.154077 206.711971 
L 417.408934 207.98564 
L 430.66379 209.20628 
L 443.918647 210.226045 
L 457.173504 210.801368 
" clip-path="url(#pd5e26d6f5f)" style="fill: none; stroke-dasharray: 6.4,1.6,1,1.6; stroke-dashoffset: 0; stroke: #8ead3e"/>
   </g>
   <g id="line2d_18">
    <path d="M 59.5278 103.833271 
L 72.782657 107.235862 
L 86.037514 112.227888 
L 99.29237 117.276715 
L 112.547227 121.758532 
L 125.802084 125.735105 
L 139.056941 129.435196 
L 152.311798 132.925108 
L 165.566654 136.180615 
L 178.821511 139.279746 
L 192.076368 142.250167 
L 205.331225 145.009241 
L 218.586082 147.556363 
L 231.840938 150.017431 
L 245.095795 152.394671 
L 258.350652 154.515902 
L 271.605509 156.208646 
L 284.860366 157.623591 
L 298.115222 159.167153 
L 311.370079 160.879427 
L 324.624936 162.61721 
L 337.879793 164.327203 
L 351.13465 166.007301 
L 364.389506 167.687813 
L 377.644363 169.381203 
L 390.89922 171.026296 
L 404.154077 172.540894 
L 417.408934 174.001439 
L 430.66379 175.53525 
L 443.918647 177.047759 
L 457.173504 178.088785 
" clip-path="url(#pd5e26d6f5f)" style="fill: none; stroke-dasharray: 6.4,1.6,1,1.6; stroke-dashoffset: 0; stroke: #8ead3e"/>
   </g>
   <g id="patch_4">
    <path d="M 59.5278 257.160096 
L 59.5278 14.286672 
" style="fill: none; stroke: #000000; stroke-width: 0.8; stroke-linejoin: miter; stroke-linecap: square"/>
   </g>
   <g id="patch_5">
    <path d="M 457.173504 257.160096 
L 457.173504 14.286672 
" style="fill: none; stroke: #000000; stroke-width: 0.8; stroke-linejoin: miter; stroke-linecap: square"/>
   </g>
   <g id="patch_6">
    <path d="M 59.5278 257.160096 
L 457.173504 257.160096 
" style="fill: none; stroke: #000000; stroke-width: 0.8; stroke-linejoin: miter; stroke-linecap: square"/>
   </g>
   <g id="patch_7">
    <path d="M 59.5278 14.286672 
L 457.173504 14.286672 
" style="fill: none; stroke: #000000; stroke-width: 0.8; stroke-linejoin: miter; stroke-linecap: square"/>
   </g>
   <g id="text_10">
    <!-- Financially -->
    <g style="fill: #556725" transform="translate(398.513309 225.315562) scale(0.08 -0.08)">
     <defs>
      <path id="ArialMT-46" d="M 525 0 
L 525 4581 
L 3616 4581 
L 3616 4041 
L 1131 4041 
L 1131 2622 
L 3281 2622 
L 3281 2081 
L 1131 2081 
L 1131 0 
L 525 0 
z
" transform="scale(0.015625)"/>
      <path id="ArialMT-6e" d="M 422 0 
L 422 3319 
L 928 3319 
L 928 2847 
Q 1294 3394 1984 3394 
Q 2284 3394 2536 3286 
Q 2788 3178 2913 3003 
Q 3038 2828 3088 2588 
Q 3119 2431 3119 2041 
L 3119 0 
L 2556 0 
L 2556 2019 
Q 2556 2363 2490 2533 
Q 2425 2703 2258 2804 
Q 2091 2906 1866 2906 
Q 1506 2906 1245 2678 
Q 984 2450 984 1813 
L 984 0 
L 422 0 
z
" transform="scale(0.015625)"/>
      <path id="ArialMT-63" d="M 2588 1216 
L 3141 1144 
Q 3050 572 2676 248 
Q 2303 -75 1759 -75 
Q 1078 -75 664 370 
Q 250 816 250 1647 
Q 250 2184 428 2587 
Q 606 2991 970 3192 
Q 1334 3394 1763 3394 
Q 2303 3394 2647 3120 
Q 2991 2847 3088 2344 
L 2541 2259 
Q 2463 2594 2264 2762 
Q 2066 2931 1784 2931 
Q 1359 2931 1093 2626 
Q 828 2322 828 1663 
Q 828 994 1084 691 
Q 1341 388 1753 388 
Q 2084 388 2306 591 
Q 2528 794 2588 1216 
z
" transform="scale(0.015625)"/>
     </defs>
     <use xlink:href="#ArialMT-46"/>
     <use xlink:href="#ArialMT-69" x="61.083984"/>
     <use xlink:href="#ArialMT-6e" x="83.300781"/>
     <use xlink:href="#ArialMT-61" x="138.916016"/>
     <use xlink:href="#ArialMT-6e" x="194.53125"/>
     <use xlink:href="#ArialMT-63" x="250.146484"/>
     <use xlink:href="#ArialMT-69" x="300.146484"/>
     <use xlink:href="#ArialMT-61" x="322.363281"/>
     <use xlink:href="#ArialMT-6c" x="377.978516"/>
     <use xlink:href="#ArialMT-6c" x="400.195312"/>
     <use xlink:href="#ArialMT-79" x="422.412109"/>
    </g>
    <!-- competitive -->
    <g style="fill: #556725" transform="translate(397.179559 233.870812) scale(0.08 -0.08)">
     <defs>
      <path id="ArialMT-70" d="M 422 -1272 
L 422 3319 
L 934 3319 
L 934 2888 
Q 1116 3141 1344 3267 
Q 1572 3394 1897 3394 
Q 2322 3394 2647 3175 
Q 2972 2956 3137 2557 
Q 3303 2159 3303 1684 
Q 3303 1175 3120 767 
Q 2938 359 2589 142 
Q 2241 -75 1856 -75 
Q 1575 -75 1351 44 
Q 1128 163 984 344 
L 984 -1272 
L 422 -1272 
z
M 931 1641 
Q 931 1000 1190 694 
Q 1450 388 1819 388 
Q 2194 388 2461 705 
Q 2728 1022 2728 1688 
Q 2728 2322 2467 2637 
Q 2206 2953 1844 2953 
Q 1484 2953 1207 2617 
Q 931 2281 931 1641 
z
" transform="scale(0.015625)"/>
      <path id="ArialMT-74" d="M 1650 503 
L 1731 6 
Q 1494 -44 1306 -44 
Q 1000 -44 831 53 
Q 663 150 594 308 
Q 525 466 525 972 
L 525 2881 
L 113 2881 
L 113 3319 
L 525 3319 
L 525 4141 
L 1084 4478 
L 1084 3319 
L 1650 3319 
L 1650 2881 
L 1084 2881 
L 1084 941 
Q 1084 700 1114 631 
Q 1144 563 1211 522 
Q 1278 481 1403 481 
Q 1497 481 1650 503 
z
" transform="scale(0.015625)"/>
      <path id="ArialMT-76" d="M 1344 0 
L 81 3319 
L 675 3319 
L 1388 1331 
Q 1503 1009 1600 663 
Q 1675 925 1809 1294 
L 2547 3319 
L 3125 3319 
L 1869 0 
L 1344 0 
z
" transform="scale(0.015625)"/>
     </defs>
     <use xlink:href="#ArialMT-63"/>
     <use xlink:href="#ArialMT-6f" x="50"/>
     <use xlink:href="#ArialMT-6d" x="105.615234"/>
     <use xlink:href="#ArialMT-70" x="188.916016"/>
     <use xlink:href="#ArialMT-65" x="244.53125"/>
     <use xlink:href="#ArialMT-74" x="300.146484"/>
     <use xlink:href="#ArialMT-69" x="327.929688"/>
     <use xlink:href="#ArialMT-74" x="350.146484"/>
     <use xlink:href="#ArialMT-69" x="377.929688"/>
     <use xlink:href="#ArialMT-76" x="400.146484"/>
     <use xlink:href="#ArialMT-65" x="450.146484"/>
    </g>
    <!-- targets -->
    <g style="fill: #556725" transform="translate(405.181434 242.332312) scale(0.08 -0.08)">
     <defs>
      <path id="ArialMT-72" d="M 416 0 
L 416 3319 
L 922 3319 
L 922 2816 
Q 1116 3169 1280 3281 
Q 1444 3394 1641 3394 
Q 1925 3394 2219 3213 
L 2025 2691 
Q 1819 2813 1613 2813 
Q 1428 2813 1281 2702 
Q 1134 2591 1072 2394 
Q 978 2094 978 1738 
L 978 0 
L 416 0 
z
" transform="scale(0.015625)"/>
      <path id="ArialMT-67" d="M 319 -275 
L 866 -356 
Q 900 -609 1056 -725 
Q 1266 -881 1628 -881 
Q 2019 -881 2231 -725 
Q 2444 -569 2519 -288 
Q 2563 -116 2559 434 
Q 2191 0 1641 0 
Q 956 0 581 494 
Q 206 988 206 1678 
Q 206 2153 378 2554 
Q 550 2956 876 3175 
Q 1203 3394 1644 3394 
Q 2231 3394 2613 2919 
L 2613 3319 
L 3131 3319 
L 3131 450 
Q 3131 -325 2973 -648 
Q 2816 -972 2473 -1159 
Q 2131 -1347 1631 -1347 
Q 1038 -1347 672 -1080 
Q 306 -813 319 -275 
z
M 784 1719 
Q 784 1066 1043 766 
Q 1303 466 1694 466 
Q 2081 466 2343 764 
Q 2606 1063 2606 1700 
Q 2606 2309 2336 2618 
Q 2066 2928 1684 2928 
Q 1309 2928 1046 2623 
Q 784 2319 784 1719 
z
" transform="scale(0.015625)"/>
     </defs>
     <use xlink:href="#ArialMT-74"/>
     <use xlink:href="#ArialMT-61" x="27.783203"/>
     <use xlink:href="#ArialMT-72" x="83.398438"/>
     <use xlink:href="#ArialMT-67" x="116.699219"/>
     <use xlink:href="#ArialMT-65" x="172.314453"/>
     <use xlink:href="#ArialMT-74" x="227.929688"/>
     <use xlink:href="#ArialMT-73" x="255.712891"/>
    </g>
   </g>
  </g>
  <g id="axes_2">
   <g id="matplotlib.axis_3">
    <g id="ytick_10">
     <g id="line2d_19">
      <defs>
       <path id="m0003d6104e" d="M 0 0 
L -4 0 
" style="stroke: #000000; stroke-width: 0.8"/>
      </defs>
      <g>
       <use xlink:href="#m0003d6104e" x="457.173504" y="257.160096" style="stroke: #000000; stroke-width: 0.8"/>
      </g>
     </g>
    </g>
    <g id="ytick_11">
     <g id="line2d_20">
      <g>
       <use xlink:href="#m0003d6104e" x="457.173504" y="226.800918" style="stroke: #000000; stroke-width: 0.8"/>
      </g>
     </g>
    </g>
    <g id="ytick_12">
     <g id="line2d_21">
      <g>
       <use xlink:href="#m0003d6104e" x="457.173504" y="196.44174" style="stroke: #000000; stroke-width: 0.8"/>
      </g>
     </g>
    </g>
    <g id="ytick_13">
     <g id="line2d_22">
      <g>
       <use xlink:href="#m0003d6104e" x="457.173504" y="166.082562" style="stroke: #000000; stroke-width: 0.8"/>
      </g>
     </g>
    </g>
    <g id="ytick_14">
     <g id="line2d_23">
      <g>
       <use xlink:href="#m0003d6104e" x="457.173504" y="135.723384" style="stroke: #000000; stroke-width: 0.8"/>
      </g>
     </g>
    </g>
    <g id="ytick_15">
     <g id="line2d_24">
      <g>
       <use xlink:href="#m0003d6104e" x="457.173504" y="105.364206" style="stroke: #000000; stroke-width: 0.8"/>
      </g>
     </g>
    </g>
    <g id="ytick_16">
     <g id="line2d_25">
      <g>
       <use xlink:href="#m0003d6104e" x="457.173504" y="75.005028" style="stroke: #000000; stroke-width: 0.8"/>
      </g>
     </g>
    </g>
    <g id="ytick_17">
     <g id="line2d_26">
      <g>
       <use xlink:href="#m0003d6104e" x="457.173504" y="44.64585" style="stroke: #000000; stroke-width: 0.8"/>
      </g>
     </g>
    </g>
    <g id="ytick_18">
     <g id="line2d_27">
      <g>
       <use xlink:href="#m0003d6104e" x="457.173504" y="14.286672" style="stroke: #000000; stroke-width: 0.8"/>
      </g>
     </g>
    </g>
   </g>
   <g id="patch_8">
    <path d="M 59.5278 257.160096 
L 59.5278 14.286672 
" style="fill: none; stroke: #000000; stroke-width: 0.8; stroke-linejoin: miter; stroke-linecap: square"/>
   </g>
   <g id="patch_9">
    <path d="M 457.173504 257.160096 
L 457.173504 14.286672 
" style="fill: none; stroke: #000000; stroke-width: 0.8; stroke-linejoin: miter; stroke-linecap: square"/>
   </g>
   <g id="patch_10">
    <path d="M 59.5278 257.160096 
L 457.173504 257.160096 
" style="fill: none; stroke: #000000; stroke-width: 0.8; stroke-linejoin: miter; stroke-linecap: square"/>
   </g>
   <g id="patch_11">
    <path d="M 59.5278 14.286672 
L 457.173504 14.286672 
" style="fill: none; stroke: #000000; stroke-width: 0.8; stroke-linejoin: miter; stroke-linecap: square"/>
   </g>
  </g>
  <g id="axes_3">
   <g id="patch_12">
    <path d="M 68.143457 59.096819 
L 68.143457 59.096819 
L 68.1567 59.096949 
L 60.203786 101.599798 
L 60.1773 101.599538 
L 68.130214 59.096689 
L 68.143457 59.096819 
z
" clip-path="url(#pd5e26d6f5f)" style="fill: #7c523f; opacity: 0.8; stroke: #7c523f; stroke-linejoin: miter"/>
   </g>
   <g id="patch_13">
    <path d="M 181.472483 61.781784 
L 181.472483 61.781784 
L 181.485497 61.78236 
L 107.258299 149.823976 
L 107.23227 149.822825 
L 181.459468 61.781209 
L 181.472483 61.781784 
z
" clip-path="url(#pd5e26d6f5f)" style="fill: #3f666c; opacity: 0.8; stroke: #3f666c; stroke-linejoin: miter"/>
   </g>
   <g id="patch_14">
    <path d="M 324.624936 117.343691 
L 324.624936 117.343691 
L 324.638191 117.343691 
L 324.638191 153.774705 
L 324.611681 153.774705 
L 324.611681 117.343691 
L 324.624936 117.343691 
z
" clip-path="url(#pd5e26d6f5f)" style="fill: #2d6b2d; opacity: 0.8; stroke: #2d6b2d; stroke-linejoin: miter"/>
   </g>
   <g id="matplotlib.axis_4">
    <g id="xtick_7">
     <g id="line2d_28">
      <defs>
       <path id="m038cafb965" d="M 0 0 
L 0 4 
" style="stroke: #000000; stroke-width: 0.8"/>
      </defs>
      <g>
       <use xlink:href="#m038cafb965" x="59.5278" y="14.286672" style="stroke: #000000; stroke-width: 0.8"/>
      </g>
     </g>
    </g>
    <g id="xtick_8">
     <g id="line2d_29">
      <g>
       <use xlink:href="#m038cafb965" x="139.056941" y="14.286672" style="stroke: #000000; stroke-width: 0.8"/>
      </g>
     </g>
    </g>
    <g id="xtick_9">
     <g id="line2d_30">
      <g>
       <use xlink:href="#m038cafb965" x="218.586082" y="14.286672" style="stroke: #000000; stroke-width: 0.8"/>
      </g>
     </g>
    </g>
    <g id="xtick_10">
     <g id="line2d_31">
      <g>
       <use xlink:href="#m038cafb965" x="298.115222" y="14.286672" style="stroke: #000000; stroke-width: 0.8"/>
      </g>
     </g>
    </g>
    <g id="xtick_11">
     <g id="line2d_32">
      <g>
       <use xlink:href="#m038cafb965" x="377.644363" y="14.286672" style="stroke: #000000; stroke-width: 0.8"/>
      </g>
     </g>
    </g>
    <g id="xtick_12">
     <g id="line2d_33">
      <g>
       <use xlink:href="#m038cafb965" x="457.173504" y="14.286672" style="stroke: #000000; stroke-width: 0.8"/>
      </g>
     </g>
    </g>
   </g>
   <g id="patch_15">
    <path d="M 59.5278 257.160096 
L 59.5278 14.286672 
" style="fill: none; stroke: #000000; stroke-width: 0.8; stroke-linejoin: miter; stroke-linecap: square"/>
   </g>
   <g id="patch_16">
    <path d="M 457.173504 257.160096 
L 457.173504 14.286672 
" style="fill: none; stroke: #000000; stroke-width: 0.8; stroke-linejoin: miter; stroke-linecap: square"/>
   </g>
   <g id="patch_17">
    <path d="M 59.5278 257.160096 
L 457.173504 257.160096 
" style="fill: none; stroke: #000000; stroke-width: 0.8; stroke-linejoin: miter; stroke-linecap: square"/>
   </g>
   <g id="patch_18">
    <path d="M 59.5278 14.286672 
L 457.173504 14.286672 
" style="fill: none; stroke: #000000; stroke-width: 0.8; stroke-linejoin: miter; stroke-linecap: square"/>
   </g>
   <g id="PathCollection_1">
    <defs>
     <path id="mbbb44a373f" d="M 0 2.236068 
C 0.593012 2.236068 1.161816 2.000462 1.581139 1.581139 
C 2.000462 1.161816 2.236068 0.593012 2.236068 0 
C 2.236068 -0.593012 2.000462 -1.161816 1.581139 -1.581139 
C 1.161816 -2.000462 0.593012 -2.236068 0 -2.236068 
C -0.593012 -2.236068 -1.161816 -2.000462 -1.581139 -1.581139 
C -2.000462 -1.161816 -2.236068 -0.593012 -2.236068 0 
C -2.236068 0.593012 -2.000462 1.161816 -1.581139 1.581139 
C -1.161816 2.000462 -0.593012 2.236068 0 2.236068 
z
" style="stroke: #403a48; stroke-width: 0.6"/>
    </defs>
    <g>
     <use xlink:href="#mbbb44a373f" x="60.190543" y="101.599668" style="fill: #f9a57f; stroke: #403a48; stroke-width: 0.6"/>
    </g>
   </g>
   <g id="PathCollection_2">
    <defs>
     <path id="mf58f14c1e4" d="M 0 2.236068 
C 0.593012 2.236068 1.161816 2.000462 1.581139 1.581139 
C 2.000462 1.161816 2.236068 0.593012 2.236068 0 
C 2.236068 -0.593012 2.000462 -1.161816 1.581139 -1.581139 
C 1.161816 -2.000462 0.593012 -2.236068 0 -2.236068 
C -0.593012 -2.236068 -1.161816 -2.000462 -1.581139 -1.581139 
C -2.000462 -1.161816 -2.236068 -0.593012 -2.236068 0 
C -2.236068 0.593012 -2.000462 1.161816 -1.581139 1.581139 
C -1.161816 2.000462 -0.593012 2.236068 0 2.236068 
z
" style="stroke: #403a48; stroke-width: 0.6"/>
    </defs>
    <g>
     <use xlink:href="#mf58f14c1e4" x="107.245284" y="149.823401" style="fill: #7fcdd8; stroke: #403a48; stroke-width: 0.6"/>
    </g>
   </g>
   <g id="PathCollection_3">
    <defs>
     <path id="mf397d99650" d="M 0 2.236068 
C 0.593012 2.236068 1.161816 2.000462 1.581139 1.581139 
C 2.000462 1.161816 2.236068 0.593012 2.236068 0 
C 2.236068 -0.593012 2.000462 -1.161816 1.581139 -1.581139 
C 1.161816 -2.000462 0.593012 -2.236068 0 -2.236068 
C -0.593012 -2.236068 -1.161816 -2.000462 -1.581139 -1.581139 
C -2.000462 -1.161816 -2.236068 -0.593012 -2.236068 0 
C -2.236068 0.593012 -2.000462 1.161816 -1.581139 1.581139 
C -1.161816 2.000462 -0.593012 2.236068 0 2.236068 
z
" style="stroke: #403a48; stroke-width: 0.6"/>
    </defs>
    <g>
     <use xlink:href="#mf397d99650" x="324.624936" y="153.774705" style="fill: #5bd65b; stroke: #403a48; stroke-width: 0.6"/>
    </g>
   </g>
   <g id="text_11">
    <!-- Sugarcane WT, 0.025 $\mathrm{dw}$ % oil -->
    <g style="fill: #7c523f" transform="translate(65.492486 47.016819) scale(0.08 -0.08)">
     <defs>
      <path id="ArialMT-53" d="M 288 1472 
L 859 1522 
Q 900 1178 1048 958 
Q 1197 738 1509 602 
Q 1822 466 2213 466 
Q 2559 466 2825 569 
Q 3091 672 3220 851 
Q 3350 1031 3350 1244 
Q 3350 1459 3225 1620 
Q 3100 1781 2813 1891 
Q 2628 1963 1997 2114 
Q 1366 2266 1113 2400 
Q 784 2572 623 2826 
Q 463 3081 463 3397 
Q 463 3744 659 4045 
Q 856 4347 1234 4503 
Q 1613 4659 2075 4659 
Q 2584 4659 2973 4495 
Q 3363 4331 3572 4012 
Q 3781 3694 3797 3291 
L 3216 3247 
Q 3169 3681 2898 3903 
Q 2628 4125 2100 4125 
Q 1550 4125 1298 3923 
Q 1047 3722 1047 3438 
Q 1047 3191 1225 3031 
Q 1400 2872 2139 2705 
Q 2878 2538 3153 2413 
Q 3553 2228 3743 1945 
Q 3934 1663 3934 1294 
Q 3934 928 3725 604 
Q 3516 281 3123 101 
Q 2731 -78 2241 -78 
Q 1619 -78 1198 103 
Q 778 284 539 648 
Q 300 1013 288 1472 
z
" transform="scale(0.015625)"/>
      <path id="ArialMT-75" d="M 2597 0 
L 2597 488 
Q 2209 -75 1544 -75 
Q 1250 -75 995 37 
Q 741 150 617 320 
Q 494 491 444 738 
Q 409 903 409 1263 
L 409 3319 
L 972 3319 
L 972 1478 
Q 972 1038 1006 884 
Q 1059 663 1231 536 
Q 1403 409 1656 409 
Q 1909 409 2131 539 
Q 2353 669 2445 892 
Q 2538 1116 2538 1541 
L 2538 3319 
L 3100 3319 
L 3100 0 
L 2597 0 
z
" transform="scale(0.015625)"/>
      <path id="ArialMT-57" d="M 1294 0 
L 78 4581 
L 700 4581 
L 1397 1578 
Q 1509 1106 1591 641 
Q 1766 1375 1797 1488 
L 2669 4581 
L 3400 4581 
L 4056 2263 
Q 4303 1400 4413 641 
Q 4500 1075 4641 1638 
L 5359 4581 
L 5969 4581 
L 4713 0 
L 4128 0 
L 3163 3491 
Q 3041 3928 3019 4028 
Q 2947 3713 2884 3491 
L 1913 0 
L 1294 0 
z
" transform="scale(0.015625)"/>
      <path id="ArialMT-54" d="M 1659 0 
L 1659 4041 
L 150 4041 
L 150 4581 
L 3781 4581 
L 3781 4041 
L 2266 4041 
L 2266 0 
L 1659 0 
z
" transform="scale(0.015625)"/>
      <path id="ArialMT-2c" d="M 569 0 
L 569 641 
L 1209 641 
L 1209 0 
Q 1209 -353 1084 -570 
Q 959 -788 688 -906 
L 531 -666 
Q 709 -588 793 -436 
Q 878 -284 888 0 
L 569 0 
z
" transform="scale(0.015625)"/>
      <path id="ArialMT-2e" d="M 581 0 
L 581 641 
L 1222 641 
L 1222 0 
L 581 0 
z
" transform="scale(0.015625)"/>
      <path id="DejaVuSans-64" d="M 2906 2969 
L 2906 4863 
L 3481 4863 
L 3481 0 
L 2906 0 
L 2906 525 
Q 2725 213 2448 61 
Q 2172 -91 1784 -91 
Q 1150 -91 751 415 
Q 353 922 353 1747 
Q 353 2572 751 3078 
Q 1150 3584 1784 3584 
Q 2172 3584 2448 3432 
Q 2725 3281 2906 2969 
z
M 947 1747 
Q 947 1113 1208 752 
Q 1469 391 1925 391 
Q 2381 391 2643 752 
Q 2906 1113 2906 1747 
Q 2906 2381 2643 2742 
Q 2381 3103 1925 3103 
Q 1469 3103 1208 2742 
Q 947 2381 947 1747 
z
" transform="scale(0.015625)"/>
      <path id="DejaVuSans-77" d="M 269 3500 
L 844 3500 
L 1563 769 
L 2278 3500 
L 2956 3500 
L 3675 769 
L 4391 3500 
L 4966 3500 
L 4050 0 
L 3372 0 
L 2619 2869 
L 1863 0 
L 1184 0 
L 269 3500 
z
" transform="scale(0.015625)"/>
      <path id="ArialMT-25" d="M 372 3481 
Q 372 3972 619 4315 
Q 866 4659 1334 4659 
Q 1766 4659 2048 4351 
Q 2331 4044 2331 3447 
Q 2331 2866 2045 2552 
Q 1759 2238 1341 2238 
Q 925 2238 648 2547 
Q 372 2856 372 3481 
z
M 1350 4272 
Q 1141 4272 1002 4090 
Q 863 3909 863 3425 
Q 863 2984 1003 2804 
Q 1144 2625 1350 2625 
Q 1563 2625 1702 2806 
Q 1841 2988 1841 3469 
Q 1841 3913 1700 4092 
Q 1559 4272 1350 4272 
z
M 1353 -169 
L 3859 4659 
L 4316 4659 
L 1819 -169 
L 1353 -169 
z
M 3334 1075 
Q 3334 1569 3581 1911 
Q 3828 2253 4300 2253 
Q 4731 2253 5014 1945 
Q 5297 1638 5297 1041 
Q 5297 459 5011 145 
Q 4725 -169 4303 -169 
Q 3888 -169 3611 142 
Q 3334 453 3334 1075 
z
M 4316 1866 
Q 4103 1866 3964 1684 
Q 3825 1503 3825 1019 
Q 3825 581 3965 400 
Q 4106 219 4313 219 
Q 4528 219 4667 400 
Q 4806 581 4806 1063 
Q 4806 1506 4665 1686 
Q 4525 1866 4316 1866 
z
" transform="scale(0.015625)"/>
     </defs>
     <use xlink:href="#ArialMT-53" transform="translate(0 0.015625)"/>
     <use xlink:href="#ArialMT-75" transform="translate(66.699219 0.015625)"/>
     <use xlink:href="#ArialMT-67" transform="translate(122.314453 0.015625)"/>
     <use xlink:href="#ArialMT-61" transform="translate(177.929688 0.015625)"/>
     <use xlink:href="#ArialMT-72" transform="translate(233.544922 0.015625)"/>
     <use xlink:href="#ArialMT-63" transform="translate(266.845703 0.015625)"/>
     <use xlink:href="#ArialMT-61" transform="translate(316.845703 0.015625)"/>
     <use xlink:href="#ArialMT-6e" transform="translate(372.460938 0.015625)"/>
     <use xlink:href="#ArialMT-65" transform="translate(428.076172 0.015625)"/>
     <use xlink:href="#ArialMT-20" transform="translate(483.691406 0.015625)"/>
     <use xlink:href="#ArialMT-57" transform="translate(511.474609 0.015625)"/>
     <use xlink:href="#ArialMT-54" transform="translate(605.859375 0.015625)"/>
     <use xlink:href="#ArialMT-2c" transform="translate(666.943359 0.015625)"/>
     <use xlink:href="#ArialMT-20" transform="translate(694.726562 0.015625)"/>
     <use xlink:href="#ArialMT-30" transform="translate(722.509766 0.015625)"/>
     <use xlink:href="#ArialMT-2e" transform="translate(778.125 0.015625)"/>
     <use xlink:href="#ArialMT-30" transform="translate(805.908203 0.015625)"/>
     <use xlink:href="#ArialMT-32" transform="translate(861.523438 0.015625)"/>
     <use xlink:href="#ArialMT-35" transform="translate(917.138672 0.015625)"/>
     <use xlink:href="#ArialMT-20" transform="translate(972.753906 0.015625)"/>
     <use xlink:href="#DejaVuSans-64" transform="translate(1000.537109 0.015625)"/>
     <use xlink:href="#DejaVuSans-77" transform="translate(1064.013672 0.015625)"/>
     <use xlink:href="#ArialMT-20" transform="translate(1145.800781 0.015625)"/>
     <use xlink:href="#ArialMT-25" transform="translate(1173.583984 0.015625)"/>
     <use xlink:href="#ArialMT-20" transform="translate(1262.5 0.015625)"/>
     <use xlink:href="#ArialMT-6f" transform="translate(1290.283203 0.015625)"/>
     <use xlink:href="#ArialMT-69" transform="translate(1345.898438 0.015625)"/>
     <use xlink:href="#ArialMT-6c" transform="translate(1368.115234 0.015625)"/>
    </g>
    <!-- Yield: 25.6 $\mathrm{DMT} \cdot \mathrm{ha}^{-1} \cdot \mathrm{y}^{-1}$ -->
    <g style="fill: #7c523f" transform="translate(65.492486 57.416819) scale(0.08 -0.08)">
     <defs>
      <path id="ArialMT-59" d="M 1784 0 
L 1784 1941 
L 19 4581 
L 756 4581 
L 1659 3200 
Q 1909 2813 2125 2425 
Q 2331 2784 2625 3234 
L 3513 4581 
L 4219 4581 
L 2391 1941 
L 2391 0 
L 1784 0 
z
" transform="scale(0.015625)"/>
      <path id="ArialMT-3a" d="M 578 2678 
L 578 3319 
L 1219 3319 
L 1219 2678 
L 578 2678 
z
M 578 0 
L 578 641 
L 1219 641 
L 1219 0 
L 578 0 
z
" transform="scale(0.015625)"/>
      <path id="ArialMT-36" d="M 3184 3459 
L 2625 3416 
Q 2550 3747 2413 3897 
Q 2184 4138 1850 4138 
Q 1581 4138 1378 3988 
Q 1113 3794 959 3422 
Q 806 3050 800 2363 
Q 1003 2672 1297 2822 
Q 1591 2972 1913 2972 
Q 2475 2972 2870 2558 
Q 3266 2144 3266 1488 
Q 3266 1056 3080 686 
Q 2894 316 2569 119 
Q 2244 -78 1831 -78 
Q 1128 -78 684 439 
Q 241 956 241 2144 
Q 241 3472 731 4075 
Q 1159 4600 1884 4600 
Q 2425 4600 2770 4297 
Q 3116 3994 3184 3459 
z
M 888 1484 
Q 888 1194 1011 928 
Q 1134 663 1356 523 
Q 1578 384 1822 384 
Q 2178 384 2434 671 
Q 2691 959 2691 1453 
Q 2691 1928 2437 2201 
Q 2184 2475 1800 2475 
Q 1419 2475 1153 2201 
Q 888 1928 888 1484 
z
" transform="scale(0.015625)"/>
     </defs>
     <use xlink:href="#ArialMT-59" transform="translate(0 0.684375)"/>
     <use xlink:href="#ArialMT-69" transform="translate(66.699219 0.684375)"/>
     <use xlink:href="#ArialMT-65" transform="translate(88.916016 0.684375)"/>
     <use xlink:href="#ArialMT-6c" transform="translate(144.53125 0.684375)"/>
     <use xlink:href="#ArialMT-64" transform="translate(166.748047 0.684375)"/>
     <use xlink:href="#ArialMT-3a" transform="translate(222.363281 0.684375)"/>
     <use xlink:href="#ArialMT-20" transform="translate(250.146484 0.684375)"/>
     <use xlink:href="#ArialMT-32" transform="translate(277.929688 0.684375)"/>
     <use xlink:href="#ArialMT-35" transform="translate(333.544922 0.684375)"/>
     <use xlink:href="#ArialMT-2e" transform="translate(389.160156 0.684375)"/>
     <use xlink:href="#ArialMT-36" transform="translate(416.943359 0.684375)"/>
     <use xlink:href="#ArialMT-20" transform="translate(472.558594 0.684375)"/>
     <use xlink:href="#DejaVuSans-44" transform="translate(500.341797 0.684375)"/>
     <use xlink:href="#DejaVuSans-4d" transform="translate(577.34375 0.684375)"/>
     <use xlink:href="#DejaVuSans-54" transform="translate(663.623047 0.684375)"/>
     <use xlink:href="#DejaVuSans-22c5" transform="translate(744.189453 0.684375)"/>
     <use xlink:href="#DejaVuSans-68" transform="translate(795.458984 0.684375)"/>
     <use xlink:href="#DejaVuSans-61" transform="translate(858.837891 0.684375)"/>
     <use xlink:href="#DejaVuSans-2212" transform="translate(921.074219 38.965625) scale(0.7)"/>
     <use xlink:href="#DejaVuSans-31" transform="translate(979.726562 38.965625) scale(0.7)"/>
     <use xlink:href="#DejaVuSans-22c5" transform="translate(1046.479492 0.684375)"/>
     <use xlink:href="#DejaVuSans-79" transform="translate(1097.749023 0.684375)"/>
     <use xlink:href="#DejaVuSans-2212" transform="translate(1157.885742 38.965625) scale(0.7)"/>
     <use xlink:href="#DejaVuSans-31" transform="translate(1216.538086 38.965625) scale(0.7)"/>
    </g>
   </g>
   <g id="patch_19">
    <path d="M 107.245284 147.824426 
Q 107.245284 137.24585 107.245284 127.785309 
" style="fill: none; stroke: #3f666c; stroke-linecap: round"/>
    <path d="M 105.245284 131.785309 
L 107.245284 127.785309 
L 109.245284 131.785309 
" style="fill: none; stroke: #3f666c; stroke-linecap: round"/>
   </g>
   <g id="text_12">
    <!-- Oilcane 1566, 1.8 $\mathrm{dw}$ % oil -->
    <g style="fill: #3f666c" transform="translate(184.123454 54.459159) scale(0.08 -0.08)">
     <defs>
      <path id="ArialMT-4f" d="M 309 2231 
Q 309 3372 921 4017 
Q 1534 4663 2503 4663 
Q 3138 4663 3647 4359 
Q 4156 4056 4423 3514 
Q 4691 2972 4691 2284 
Q 4691 1588 4409 1038 
Q 4128 488 3612 205 
Q 3097 -78 2500 -78 
Q 1853 -78 1343 234 
Q 834 547 571 1087 
Q 309 1628 309 2231 
z
M 934 2222 
Q 934 1394 1379 917 
Q 1825 441 2497 441 
Q 3181 441 3623 922 
Q 4066 1403 4066 2288 
Q 4066 2847 3877 3264 
Q 3688 3681 3323 3911 
Q 2959 4141 2506 4141 
Q 1863 4141 1398 3698 
Q 934 3256 934 2222 
z
" transform="scale(0.015625)"/>
      <path id="ArialMT-38" d="M 1131 2484 
Q 781 2613 612 2850 
Q 444 3088 444 3419 
Q 444 3919 803 4259 
Q 1163 4600 1759 4600 
Q 2359 4600 2725 4251 
Q 3091 3903 3091 3403 
Q 3091 3084 2923 2848 
Q 2756 2613 2416 2484 
Q 2838 2347 3058 2040 
Q 3278 1734 3278 1309 
Q 3278 722 2862 322 
Q 2447 -78 1769 -78 
Q 1091 -78 675 323 
Q 259 725 259 1325 
Q 259 1772 486 2073 
Q 713 2375 1131 2484 
z
M 1019 3438 
Q 1019 3113 1228 2906 
Q 1438 2700 1772 2700 
Q 2097 2700 2305 2904 
Q 2513 3109 2513 3406 
Q 2513 3716 2298 3927 
Q 2084 4138 1766 4138 
Q 1444 4138 1231 3931 
Q 1019 3725 1019 3438 
z
M 838 1322 
Q 838 1081 952 856 
Q 1066 631 1291 507 
Q 1516 384 1775 384 
Q 2178 384 2440 643 
Q 2703 903 2703 1303 
Q 2703 1709 2433 1975 
Q 2163 2241 1756 2241 
Q 1359 2241 1098 1978 
Q 838 1716 838 1322 
z
" transform="scale(0.015625)"/>
     </defs>
     <use xlink:href="#ArialMT-4f" transform="translate(0 0.015625)"/>
     <use xlink:href="#ArialMT-69" transform="translate(77.783203 0.015625)"/>
     <use xlink:href="#ArialMT-6c" transform="translate(100 0.015625)"/>
     <use xlink:href="#ArialMT-63" transform="translate(122.216797 0.015625)"/>
     <use xlink:href="#ArialMT-61" transform="translate(172.216797 0.015625)"/>
     <use xlink:href="#ArialMT-6e" transform="translate(227.832031 0.015625)"/>
     <use xlink:href="#ArialMT-65" transform="translate(283.447266 0.015625)"/>
     <use xlink:href="#ArialMT-20" transform="translate(339.0625 0.015625)"/>
     <use xlink:href="#ArialMT-31" transform="translate(366.845703 0.015625)"/>
     <use xlink:href="#ArialMT-35" transform="translate(422.460938 0.015625)"/>
     <use xlink:href="#ArialMT-36" transform="translate(478.076172 0.015625)"/>
     <use xlink:href="#ArialMT-36" transform="translate(533.691406 0.015625)"/>
     <use xlink:href="#ArialMT-2c" transform="translate(589.306641 0.015625)"/>
     <use xlink:href="#ArialMT-20" transform="translate(617.089844 0.015625)"/>
     <use xlink:href="#ArialMT-31" transform="translate(644.873047 0.015625)"/>
     <use xlink:href="#ArialMT-2e" transform="translate(700.488281 0.015625)"/>
     <use xlink:href="#ArialMT-38" transform="translate(728.271484 0.015625)"/>
     <use xlink:href="#ArialMT-20" transform="translate(783.886719 0.015625)"/>
     <use xlink:href="#DejaVuSans-64" transform="translate(811.669922 0.015625)"/>
     <use xlink:href="#DejaVuSans-77" transform="translate(875.146484 0.015625)"/>
     <use xlink:href="#ArialMT-20" transform="translate(956.933594 0.015625)"/>
     <use xlink:href="#ArialMT-25" transform="translate(984.716797 0.015625)"/>
     <use xlink:href="#ArialMT-20" transform="translate(1073.632812 0.015625)"/>
     <use xlink:href="#ArialMT-6f" transform="translate(1101.416016 0.015625)"/>
     <use xlink:href="#ArialMT-69" transform="translate(1157.03125 0.015625)"/>
     <use xlink:href="#ArialMT-6c" transform="translate(1179.248047 0.015625)"/>
    </g>
    <!-- Yield: 17.7 $\rightarrow$ 21.6 [17.8, 22.6] $\mathrm{DMT} \cdot \mathrm{ha}^{-1} \cdot \mathrm{y}^{-1}$ -->
    <g style="fill: #3f666c" transform="translate(184.123454 64.689159) scale(0.08 -0.08)">
     <defs>
      <path id="ArialMT-37" d="M 303 3981 
L 303 4522 
L 3269 4522 
L 3269 4084 
Q 2831 3619 2401 2847 
Q 1972 2075 1738 1259 
Q 1569 684 1522 0 
L 944 0 
Q 953 541 1156 1306 
Q 1359 2072 1739 2783 
Q 2119 3494 2547 3981 
L 303 3981 
z
" transform="scale(0.015625)"/>
      <path id="DejaVuSans-2192" d="M 5050 2147 
L 5050 1866 
L 3822 638 
L 3447 1013 
L 4175 1741 
L 366 1741 
L 366 2272 
L 4175 2272 
L 3447 3000 
L 3822 3375 
L 5050 2147 
z
" transform="scale(0.015625)"/>
     </defs>
     <use xlink:href="#ArialMT-59" transform="translate(0 0.684375)"/>
     <use xlink:href="#ArialMT-69" transform="translate(66.699219 0.684375)"/>
     <use xlink:href="#ArialMT-65" transform="translate(88.916016 0.684375)"/>
     <use xlink:href="#ArialMT-6c" transform="translate(144.53125 0.684375)"/>
     <use xlink:href="#ArialMT-64" transform="translate(166.748047 0.684375)"/>
     <use xlink:href="#ArialMT-3a" transform="translate(222.363281 0.684375)"/>
     <use xlink:href="#ArialMT-20" transform="translate(250.146484 0.684375)"/>
     <use xlink:href="#ArialMT-31" transform="translate(277.929688 0.684375)"/>
     <use xlink:href="#ArialMT-37" transform="translate(333.544922 0.684375)"/>
     <use xlink:href="#ArialMT-2e" transform="translate(389.160156 0.684375)"/>
     <use xlink:href="#ArialMT-37" transform="translate(416.943359 0.684375)"/>
     <use xlink:href="#ArialMT-20" transform="translate(472.558594 0.684375)"/>
     <use xlink:href="#DejaVuSans-2192" transform="translate(519.824219 0.684375)"/>
     <use xlink:href="#ArialMT-20" transform="translate(623.095703 0.684375)"/>
     <use xlink:href="#ArialMT-32" transform="translate(650.878906 0.684375)"/>
     <use xlink:href="#ArialMT-31" transform="translate(706.494141 0.684375)"/>
     <use xlink:href="#ArialMT-2e" transform="translate(762.109375 0.684375)"/>
     <use xlink:href="#ArialMT-36" transform="translate(789.892578 0.684375)"/>
     <use xlink:href="#ArialMT-20" transform="translate(845.507812 0.684375)"/>
     <use xlink:href="#ArialMT-5b" transform="translate(873.291016 0.684375)"/>
     <use xlink:href="#ArialMT-31" transform="translate(901.074219 0.684375)"/>
     <use xlink:href="#ArialMT-37" transform="translate(956.689453 0.684375)"/>
     <use xlink:href="#ArialMT-2e" transform="translate(1012.304688 0.684375)"/>
     <use xlink:href="#ArialMT-38" transform="translate(1040.087891 0.684375)"/>
     <use xlink:href="#ArialMT-2c" transform="translate(1095.703125 0.684375)"/>
     <use xlink:href="#ArialMT-20" transform="translate(1123.486328 0.684375)"/>
     <use xlink:href="#ArialMT-32" transform="translate(1151.269531 0.684375)"/>
     <use xlink:href="#ArialMT-32" transform="translate(1206.884766 0.684375)"/>
     <use xlink:href="#ArialMT-2e" transform="translate(1262.5 0.684375)"/>
     <use xlink:href="#ArialMT-36" transform="translate(1290.283203 0.684375)"/>
     <use xlink:href="#ArialMT-5d" transform="translate(1345.898438 0.684375)"/>
     <use xlink:href="#ArialMT-20" transform="translate(1373.681641 0.684375)"/>
     <use xlink:href="#DejaVuSans-44" transform="translate(1401.464844 0.684375)"/>
     <use xlink:href="#DejaVuSans-4d" transform="translate(1478.466797 0.684375)"/>
     <use xlink:href="#DejaVuSans-54" transform="translate(1564.746094 0.684375)"/>
     <use xlink:href="#DejaVuSans-22c5" transform="translate(1645.3125 0.684375)"/>
     <use xlink:href="#DejaVuSans-68" transform="translate(1696.582031 0.684375)"/>
     <use xlink:href="#DejaVuSans-61" transform="translate(1759.960938 0.684375)"/>
     <use xlink:href="#DejaVuSans-2212" transform="translate(1822.197266 38.965625) scale(0.7)"/>
     <use xlink:href="#DejaVuSans-31" transform="translate(1880.849609 38.965625) scale(0.7)"/>
     <use xlink:href="#DejaVuSans-22c5" transform="translate(1947.602539 0.684375)"/>
     <use xlink:href="#DejaVuSans-79" transform="translate(1998.87207 0.684375)"/>
     <use xlink:href="#DejaVuSans-2212" transform="translate(2059.008789 38.965625) scale(0.7)"/>
     <use xlink:href="#DejaVuSans-31" transform="translate(2117.661133 38.965625) scale(0.7)"/>
    </g>
    <!--  -->
    <g style="fill: #3f666c" transform="translate(184.123454 73.240659) scale(0.08 -0.08)"/>
   </g>
   <g id="text_13">
    <!-- Oilcane Target, 10 $\mathrm{dw}$ % oil -->
    <g style="fill: #2d6b2d" transform="translate(274.984936 104.656508) scale(0.08 -0.08)">
     <use xlink:href="#ArialMT-4f" transform="translate(0 0.015625)"/>
     <use xlink:href="#ArialMT-69" transform="translate(77.783203 0.015625)"/>
     <use xlink:href="#ArialMT-6c" transform="translate(100 0.015625)"/>
     <use xlink:href="#ArialMT-63" transform="translate(122.216797 0.015625)"/>
     <use xlink:href="#ArialMT-61" transform="translate(172.216797 0.015625)"/>
     <use xlink:href="#ArialMT-6e" transform="translate(227.832031 0.015625)"/>
     <use xlink:href="#ArialMT-65" transform="translate(283.447266 0.015625)"/>
     <use xlink:href="#ArialMT-20" transform="translate(339.0625 0.015625)"/>
     <use xlink:href="#ArialMT-54" transform="translate(366.845703 0.015625)"/>
     <use xlink:href="#ArialMT-61" transform="translate(427.929688 0.015625)"/>
     <use xlink:href="#ArialMT-72" transform="translate(483.544922 0.015625)"/>
     <use xlink:href="#ArialMT-67" transform="translate(516.845703 0.015625)"/>
     <use xlink:href="#ArialMT-65" transform="translate(572.460938 0.015625)"/>
     <use xlink:href="#ArialMT-74" transform="translate(628.076172 0.015625)"/>
     <use xlink:href="#ArialMT-2c" transform="translate(655.859375 0.015625)"/>
     <use xlink:href="#ArialMT-20" transform="translate(683.642578 0.015625)"/>
     <use xlink:href="#ArialMT-31" transform="translate(711.425781 0.015625)"/>
     <use xlink:href="#ArialMT-30" transform="translate(767.041016 0.015625)"/>
     <use xlink:href="#ArialMT-20" transform="translate(822.65625 0.015625)"/>
     <use xlink:href="#DejaVuSans-64" transform="translate(850.439453 0.015625)"/>
     <use xlink:href="#DejaVuSans-77" transform="translate(913.916016 0.015625)"/>
     <use xlink:href="#ArialMT-20" transform="translate(995.703125 0.015625)"/>
     <use xlink:href="#ArialMT-25" transform="translate(1023.486328 0.015625)"/>
     <use xlink:href="#ArialMT-20" transform="translate(1112.402344 0.015625)"/>
     <use xlink:href="#ArialMT-6f" transform="translate(1140.185547 0.015625)"/>
     <use xlink:href="#ArialMT-69" transform="translate(1195.800781 0.015625)"/>
     <use xlink:href="#ArialMT-6c" transform="translate(1218.017578 0.015625)"/>
    </g>
    <!-- Yield: 17.0 $\mathrm{DMT} \cdot \mathrm{ha}^{-1} \cdot \mathrm{y}^{-1}$ -->
    <g style="fill: #2d6b2d" transform="translate(274.064936 115.056508) scale(0.08 -0.08)">
     <use xlink:href="#ArialMT-59" transform="translate(0 0.684375)"/>
     <use xlink:href="#ArialMT-69" transform="translate(66.699219 0.684375)"/>
     <use xlink:href="#ArialMT-65" transform="translate(88.916016 0.684375)"/>
     <use xlink:href="#ArialMT-6c" transform="translate(144.53125 0.684375)"/>
     <use xlink:href="#ArialMT-64" transform="translate(166.748047 0.684375)"/>
     <use xlink:href="#ArialMT-3a" transform="translate(222.363281 0.684375)"/>
     <use xlink:href="#ArialMT-20" transform="translate(250.146484 0.684375)"/>
     <use xlink:href="#ArialMT-31" transform="translate(277.929688 0.684375)"/>
     <use xlink:href="#ArialMT-37" transform="translate(333.544922 0.684375)"/>
     <use xlink:href="#ArialMT-2e" transform="translate(389.160156 0.684375)"/>
     <use xlink:href="#ArialMT-30" transform="translate(416.943359 0.684375)"/>
     <use xlink:href="#ArialMT-20" transform="translate(472.558594 0.684375)"/>
     <use xlink:href="#DejaVuSans-44" transform="translate(500.341797 0.684375)"/>
     <use xlink:href="#DejaVuSans-4d" transform="translate(577.34375 0.684375)"/>
     <use xlink:href="#DejaVuSans-54" transform="translate(663.623047 0.684375)"/>
     <use xlink:href="#DejaVuSans-22c5" transform="translate(744.189453 0.684375)"/>
     <use xlink:href="#DejaVuSans-68" transform="translate(795.458984 0.684375)"/>
     <use xlink:href="#DejaVuSans-61" transform="translate(858.837891 0.684375)"/>
     <use xlink:href="#DejaVuSans-2212" transform="translate(921.074219 38.965625) scale(0.7)"/>
     <use xlink:href="#DejaVuSans-31" transform="translate(979.726562 38.965625) scale(0.7)"/>
     <use xlink:href="#DejaVuSans-22c5" transform="translate(1046.479492 0.684375)"/>
     <use xlink:href="#DejaVuSans-79" transform="translate(1097.749023 0.684375)"/>
     <use xlink:href="#DejaVuSans-2212" transform="translate(1157.885742 38.965625) scale(0.7)"/>
     <use xlink:href="#DejaVuSans-31" transform="translate(1216.538086 38.965625) scale(0.7)"/>
    </g>
   </g>
  </g>
 </g>
 <defs>
  <clipPath id="pd5e26d6f5f">
   <rect x="59.5278" y="14.286672" width="397.645704" height="242.873424"/>
  </clipPath>
 </defs>
</svg>
