<?xml version="1.0" encoding="utf-8" standalone="no"?>
<!DOCTYPE svg PUBLIC "-//W3C//DTD SVG 1.1//EN"
  "http://www.w3.org/Graphics/SVG/1.1/DTD/svg11.dtd">
<svg xmlns:xlink="http://www.w3.org/1999/xlink" width="476.2224pt" height="380.97792pt" viewBox="0 0 476.2224 380.97792" xmlns="http://www.w3.org/2000/svg" version="1.1">
 <metadata>
  <rdf:RDF xmlns:dc="http://purl.org/dc/elements/1.1/" xmlns:cc="http://creativecommons.org/ns#" xmlns:rdf="http://www.w3.org/1999/02/22-rdf-syntax-ns#">
   <cc:Work>
    <dc:type rdf:resource="http://purl.org/dc/dcmitype/StillImage"/>
    <dc:date>2024-02-11T20:27:35.984353</dc:date>
    <dc:format>image/svg+xml</dc:format>
    <dc:creator>
     <cc:Agent>
      <dc:title>Matplotlib v3.7.1, https://matplotlib.org/</dc:title>
     </cc:Agent>
    </dc:creator>
   </cc:Work>
  </rdf:RDF>
 </metadata>
 <defs>
  <style type="text/css">*{stroke-linejoin: round; stroke-linecap: butt}</style>
 </defs>
 <g id="figure_1">
  <g id="patch_1">
   <path d="M 0 380.97792 
L 476.2224 380.97792 
L 476.2224 0 
L 0 0 
L 0 380.97792 
z
" style="fill: none"/>
  </g>
  <g id="axes_1">
   <g id="patch_2">
    <path d="M 142.86672 350.499686 
L 464.31684 350.499686 
L 464.31684 7.619558 
L 142.86672 7.619558 
L 142.86672 350.499686 
z
" style="fill: none"/>
   </g>
   <g id="PolyCollection_1">
    <path d="M 303.59178 334.914226 
L 303.59178 324.165633 
L 299.29446 324.165633 
L 299.29446 334.914226 
z
" clip-path="url(#p774b01f34b)" style="fill: #5fc1cf"/>
   </g>
   <g id="PolyCollection_2">
    <path d="M 303.59178 302.668446 
L 303.59178 291.919853 
L 287.153975 291.919853 
L 287.153975 302.668446 
z
" clip-path="url(#p774b01f34b)" style="fill: #5fc1cf"/>
   </g>
   <g id="PolyCollection_3">
    <path d="M 303.59178 270.422666 
L 303.59178 259.674073 
L 284.648432 259.674073 
L 284.648432 270.422666 
z
" clip-path="url(#p774b01f34b)" style="fill: #5fc1cf"/>
   </g>
   <g id="PolyCollection_4">
    <path d="M 303.59178 238.176886 
L 303.59178 227.428292 
L 280.746743 227.428292 
L 280.746743 238.176886 
z
" clip-path="url(#p774b01f34b)" style="fill: #5fc1cf"/>
   </g>
   <g id="PolyCollection_5">
    <path d="M 303.59178 205.931106 
L 303.59178 195.182512 
L 278.216205 195.182512 
L 278.216205 205.931106 
z
" clip-path="url(#p774b01f34b)" style="fill: #5fc1cf"/>
   </g>
   <g id="PolyCollection_6">
    <path d="M 303.59178 173.685326 
L 303.59178 162.936732 
L 332.308326 162.936732 
L 332.308326 173.685326 
z
" clip-path="url(#p774b01f34b)" style="fill: #5fc1cf"/>
   </g>
   <g id="PolyCollection_7">
    <path d="M 303.59178 141.439546 
L 303.59178 130.690952 
L 270.803219 130.690952 
L 270.803219 141.439546 
z
" clip-path="url(#p774b01f34b)" style="fill: #5fc1cf"/>
   </g>
   <g id="PolyCollection_8">
    <path d="M 303.59178 109.193766 
L 303.59178 98.445172 
L 267.156983 98.445172 
L 267.156983 109.193766 
z
" clip-path="url(#p774b01f34b)" style="fill: #5fc1cf"/>
   </g>
   <g id="PolyCollection_9">
    <path d="M 303.59178 76.947986 
L 303.59178 66.199392 
L 336.929688 66.199392 
L 336.929688 76.947986 
z
" clip-path="url(#p774b01f34b)" style="fill: #5fc1cf"/>
   </g>
   <g id="PolyCollection_10">
    <path d="M 303.59178 44.702205 
L 303.59178 33.953612 
L 171.986954 33.953612 
L 171.986954 44.702205 
z
" clip-path="url(#p774b01f34b)" style="fill: #5fc1cf"/>
   </g>
   <g id="PolyCollection_11">
    <path d="M 303.59178 324.165633 
L 303.59178 313.417039 
L 288.838941 313.417039 
L 288.838941 324.165633 
z
" clip-path="url(#p774b01f34b)" style="fill: #f88f5f"/>
   </g>
   <g id="PolyCollection_12">
    <path d="M 303.59178 291.919853 
L 303.59178 281.171259 
L 289.67108 281.171259 
L 289.67108 291.919853 
z
" clip-path="url(#p774b01f34b)" style="fill: #f88f5f"/>
   </g>
   <g id="PolyCollection_13">
    <path d="M 303.59178 259.674073 
L 303.59178 248.925479 
L 292.327271 248.925479 
L 292.327271 259.674073 
z
" clip-path="url(#p774b01f34b)" style="fill: #f88f5f"/>
   </g>
   <g id="PolyCollection_14">
    <path d="M 303.59178 227.428292 
L 303.59178 216.679699 
L 293.994743 216.679699 
L 293.994743 227.428292 
z
" clip-path="url(#p774b01f34b)" style="fill: #f88f5f"/>
   </g>
   <g id="PolyCollection_15">
    <path d="M 303.59178 195.182512 
L 303.59178 184.433919 
L 287.99394 184.433919 
L 287.99394 195.182512 
z
" clip-path="url(#p774b01f34b)" style="fill: #f88f5f"/>
   </g>
   <g id="PolyCollection_16">
    <path d="M 303.59178 162.936732 
L 303.59178 152.188139 
L 325.468541 152.188139 
L 325.468541 162.936732 
z
" clip-path="url(#p774b01f34b)" style="fill: #f88f5f"/>
   </g>
   <g id="PolyCollection_17">
    <path d="M 303.59178 130.690952 
L 303.59178 119.942359 
L 280.519395 119.942359 
L 280.519395 130.690952 
z
" clip-path="url(#p774b01f34b)" style="fill: #f88f5f"/>
   </g>
   <g id="PolyCollection_18">
    <path d="M 303.59178 98.445172 
L 303.59178 87.696579 
L 275.127323 87.696579 
L 275.127323 98.445172 
z
" clip-path="url(#p774b01f34b)" style="fill: #f88f5f"/>
   </g>
   <g id="PolyCollection_19">
    <path d="M 303.59178 66.199392 
L 303.59178 55.450799 
L 342.227221 55.450799 
L 342.227221 66.199392 
z
" clip-path="url(#p774b01f34b)" style="fill: #f88f5f"/>
   </g>
   <g id="PolyCollection_20">
    <path d="M 303.59178 33.953612 
L 303.59178 23.205019 
L 161.573668 23.205019 
L 161.573668 33.953612 
z
" clip-path="url(#p774b01f34b)" style="fill: #f88f5f"/>
   </g>
   <g id="matplotlib.axis_1">
    <g id="xtick_1">
     <g id="line2d_1">
      <defs>
       <path id="mdead2f8cbf" d="M 0 2 
L 0 -2 
" style="stroke: #000000; stroke-width: 0.8"/>
      </defs>
      <g>
       <use xlink:href="#mdead2f8cbf" x="142.86672" y="350.499686" style="stroke: #000000; stroke-width: 0.8"/>
      </g>
     </g>
     <g id="text_1">
      <!-- -1.00 -->
      <g transform="translate(133.75047 361.725936) scale(0.08 -0.08)">
       <defs>
        <path id="ArialMT-2d" d="M 203 1375 
L 203 1941 
L 1931 1941 
L 1931 1375 
L 203 1375 
z
" transform="scale(0.015625)"/>
        <path id="ArialMT-31" d="M 2384 0 
L 1822 0 
L 1822 3584 
Q 1619 3391 1289 3197 
Q 959 3003 697 2906 
L 697 3450 
Q 1169 3672 1522 3987 
Q 1875 4303 2022 4600 
L 2384 4600 
L 2384 0 
z
" transform="scale(0.015625)"/>
        <path id="ArialMT-2e" d="M 581 0 
L 581 641 
L 1222 641 
L 1222 0 
L 581 0 
z
" transform="scale(0.015625)"/>
        <path id="ArialMT-30" d="M 266 2259 
Q 266 3072 433 3567 
Q 600 4063 929 4331 
Q 1259 4600 1759 4600 
Q 2128 4600 2406 4451 
Q 2684 4303 2865 4023 
Q 3047 3744 3150 3342 
Q 3253 2941 3253 2259 
Q 3253 1453 3087 958 
Q 2922 463 2592 192 
Q 2263 -78 1759 -78 
Q 1097 -78 719 397 
Q 266 969 266 2259 
z
M 844 2259 
Q 844 1131 1108 757 
Q 1372 384 1759 384 
Q 2147 384 2411 759 
Q 2675 1134 2675 2259 
Q 2675 3391 2411 3762 
Q 2147 4134 1753 4134 
Q 1366 4134 1134 3806 
Q 844 3388 844 2259 
z
" transform="scale(0.015625)"/>
       </defs>
       <use xlink:href="#ArialMT-2d"/>
       <use xlink:href="#ArialMT-31" x="33.300781"/>
       <use xlink:href="#ArialMT-2e" x="88.916016"/>
       <use xlink:href="#ArialMT-30" x="116.699219"/>
       <use xlink:href="#ArialMT-30" x="172.314453"/>
      </g>
     </g>
    </g>
    <g id="xtick_2">
     <g id="line2d_2">
      <g>
       <use xlink:href="#mdead2f8cbf" x="223.22925" y="350.499686" style="stroke: #000000; stroke-width: 0.8"/>
      </g>
     </g>
     <g id="text_2">
      <!-- -0.50 -->
      <g transform="translate(214.113 361.725936) scale(0.08 -0.08)">
       <defs>
        <path id="ArialMT-35" d="M 266 1200 
L 856 1250 
Q 922 819 1161 601 
Q 1400 384 1738 384 
Q 2144 384 2425 690 
Q 2706 997 2706 1503 
Q 2706 1984 2436 2262 
Q 2166 2541 1728 2541 
Q 1456 2541 1237 2417 
Q 1019 2294 894 2097 
L 366 2166 
L 809 4519 
L 3088 4519 
L 3088 3981 
L 1259 3981 
L 1013 2750 
Q 1425 3038 1878 3038 
Q 2478 3038 2890 2622 
Q 3303 2206 3303 1553 
Q 3303 931 2941 478 
Q 2500 -78 1738 -78 
Q 1113 -78 717 272 
Q 322 622 266 1200 
z
" transform="scale(0.015625)"/>
       </defs>
       <use xlink:href="#ArialMT-2d"/>
       <use xlink:href="#ArialMT-30" x="33.300781"/>
       <use xlink:href="#ArialMT-2e" x="88.916016"/>
       <use xlink:href="#ArialMT-35" x="116.699219"/>
       <use xlink:href="#ArialMT-30" x="172.314453"/>
      </g>
     </g>
    </g>
    <g id="xtick_3">
     <g id="line2d_3">
      <g>
       <use xlink:href="#mdead2f8cbf" x="303.59178" y="350.499686" style="stroke: #000000; stroke-width: 0.8"/>
      </g>
     </g>
     <g id="text_3">
      <!-- 0.00 -->
      <g transform="translate(295.807405 361.725936) scale(0.08 -0.08)">
       <use xlink:href="#ArialMT-30"/>
       <use xlink:href="#ArialMT-2e" x="55.615234"/>
       <use xlink:href="#ArialMT-30" x="83.398438"/>
       <use xlink:href="#ArialMT-30" x="139.013672"/>
      </g>
     </g>
    </g>
    <g id="xtick_4">
     <g id="line2d_4">
      <g>
       <use xlink:href="#mdead2f8cbf" x="383.95431" y="350.499686" style="stroke: #000000; stroke-width: 0.8"/>
      </g>
     </g>
     <g id="text_4">
      <!-- 0.50 -->
      <g transform="translate(376.169935 361.725936) scale(0.08 -0.08)">
       <use xlink:href="#ArialMT-30"/>
       <use xlink:href="#ArialMT-2e" x="55.615234"/>
       <use xlink:href="#ArialMT-35" x="83.398438"/>
       <use xlink:href="#ArialMT-30" x="139.013672"/>
      </g>
     </g>
    </g>
    <g id="xtick_5">
     <g id="line2d_5">
      <g>
       <use xlink:href="#mdead2f8cbf" x="464.31684" y="350.499686" style="stroke: #000000; stroke-width: 0.8"/>
      </g>
     </g>
     <g id="text_5">
      <!-- 1.00 -->
      <g transform="translate(456.532465 361.725936) scale(0.08 -0.08)">
       <use xlink:href="#ArialMT-31"/>
       <use xlink:href="#ArialMT-2e" x="55.615234"/>
       <use xlink:href="#ArialMT-30" x="83.398438"/>
       <use xlink:href="#ArialMT-30" x="139.013672"/>
      </g>
     </g>
    </g>
    <g id="xtick_6">
     <g id="line2d_6">
      <defs>
       <path id="m7e4454cf5f" d="M 0 2 
L 0 -2 
" style="stroke: #000000; stroke-width: 0.6"/>
      </defs>
      <g>
       <use xlink:href="#m7e4454cf5f" x="183.047985" y="350.499686" style="stroke: #000000; stroke-width: 0.6"/>
      </g>
     </g>
    </g>
    <g id="xtick_7">
     <g id="line2d_7">
      <g>
       <use xlink:href="#m7e4454cf5f" x="263.410515" y="350.499686" style="stroke: #000000; stroke-width: 0.6"/>
      </g>
     </g>
    </g>
    <g id="xtick_8">
     <g id="line2d_8">
      <g>
       <use xlink:href="#m7e4454cf5f" x="343.773045" y="350.499686" style="stroke: #000000; stroke-width: 0.6"/>
      </g>
     </g>
    </g>
    <g id="xtick_9">
     <g id="line2d_9">
      <g>
       <use xlink:href="#m7e4454cf5f" x="424.135575" y="350.499686" style="stroke: #000000; stroke-width: 0.6"/>
      </g>
     </g>
    </g>
    <g id="text_6">
     <!-- Spearman's correlation with MBSP -->
     <g transform="translate(241.91678 373.139686) scale(0.08 -0.08)">
      <defs>
       <path id="ArialMT-53" d="M 288 1472 
L 859 1522 
Q 900 1178 1048 958 
Q 1197 738 1509 602 
Q 1822 466 2213 466 
Q 2559 466 2825 569 
Q 3091 672 3220 851 
Q 3350 1031 3350 1244 
Q 3350 1459 3225 1620 
Q 3100 1781 2813 1891 
Q 2628 1963 1997 2114 
Q 1366 2266 1113 2400 
Q 784 2572 623 2826 
Q 463 3081 463 3397 
Q 463 3744 659 4045 
Q 856 4347 1234 4503 
Q 1613 4659 2075 4659 
Q 2584 4659 2973 4495 
Q 3363 4331 3572 4012 
Q 3781 3694 3797 3291 
L 3216 3247 
Q 3169 3681 2898 3903 
Q 2628 4125 2100 4125 
Q 1550 4125 1298 3923 
Q 1047 3722 1047 3438 
Q 1047 3191 1225 3031 
Q 1400 2872 2139 2705 
Q 2878 2538 3153 2413 
Q 3553 2228 3743 1945 
Q 3934 1663 3934 1294 
Q 3934 928 3725 604 
Q 3516 281 3123 101 
Q 2731 -78 2241 -78 
Q 1619 -78 1198 103 
Q 778 284 539 648 
Q 300 1013 288 1472 
z
" transform="scale(0.015625)"/>
       <path id="ArialMT-70" d="M 422 -1272 
L 422 3319 
L 934 3319 
L 934 2888 
Q 1116 3141 1344 3267 
Q 1572 3394 1897 3394 
Q 2322 3394 2647 3175 
Q 2972 2956 3137 2557 
Q 3303 2159 3303 1684 
Q 3303 1175 3120 767 
Q 2938 359 2589 142 
Q 2241 -75 1856 -75 
Q 1575 -75 1351 44 
Q 1128 163 984 344 
L 984 -1272 
L 422 -1272 
z
M 931 1641 
Q 931 1000 1190 694 
Q 1450 388 1819 388 
Q 2194 388 2461 705 
Q 2728 1022 2728 1688 
Q 2728 2322 2467 2637 
Q 2206 2953 1844 2953 
Q 1484 2953 1207 2617 
Q 931 2281 931 1641 
z
" transform="scale(0.015625)"/>
       <path id="ArialMT-65" d="M 2694 1069 
L 3275 997 
Q 3138 488 2766 206 
Q 2394 -75 1816 -75 
Q 1088 -75 661 373 
Q 234 822 234 1631 
Q 234 2469 665 2931 
Q 1097 3394 1784 3394 
Q 2450 3394 2872 2941 
Q 3294 2488 3294 1666 
Q 3294 1616 3291 1516 
L 816 1516 
Q 847 969 1125 678 
Q 1403 388 1819 388 
Q 2128 388 2347 550 
Q 2566 713 2694 1069 
z
M 847 1978 
L 2700 1978 
Q 2663 2397 2488 2606 
Q 2219 2931 1791 2931 
Q 1403 2931 1139 2672 
Q 875 2413 847 1978 
z
" transform="scale(0.015625)"/>
       <path id="ArialMT-61" d="M 2588 409 
Q 2275 144 1986 34 
Q 1697 -75 1366 -75 
Q 819 -75 525 192 
Q 231 459 231 875 
Q 231 1119 342 1320 
Q 453 1522 633 1644 
Q 813 1766 1038 1828 
Q 1203 1872 1538 1913 
Q 2219 1994 2541 2106 
Q 2544 2222 2544 2253 
Q 2544 2597 2384 2738 
Q 2169 2928 1744 2928 
Q 1347 2928 1158 2789 
Q 969 2650 878 2297 
L 328 2372 
Q 403 2725 575 2942 
Q 747 3159 1072 3276 
Q 1397 3394 1825 3394 
Q 2250 3394 2515 3294 
Q 2781 3194 2906 3042 
Q 3031 2891 3081 2659 
Q 3109 2516 3109 2141 
L 3109 1391 
Q 3109 606 3145 398 
Q 3181 191 3288 0 
L 2700 0 
Q 2613 175 2588 409 
z
M 2541 1666 
Q 2234 1541 1622 1453 
Q 1275 1403 1131 1340 
Q 988 1278 909 1158 
Q 831 1038 831 891 
Q 831 666 1001 516 
Q 1172 366 1500 366 
Q 1825 366 2078 508 
Q 2331 650 2450 897 
Q 2541 1088 2541 1459 
L 2541 1666 
z
" transform="scale(0.015625)"/>
       <path id="ArialMT-72" d="M 416 0 
L 416 3319 
L 922 3319 
L 922 2816 
Q 1116 3169 1280 3281 
Q 1444 3394 1641 3394 
Q 1925 3394 2219 3213 
L 2025 2691 
Q 1819 2813 1613 2813 
Q 1428 2813 1281 2702 
Q 1134 2591 1072 2394 
Q 978 2094 978 1738 
L 978 0 
L 416 0 
z
" transform="scale(0.015625)"/>
       <path id="ArialMT-6d" d="M 422 0 
L 422 3319 
L 925 3319 
L 925 2853 
Q 1081 3097 1340 3245 
Q 1600 3394 1931 3394 
Q 2300 3394 2536 3241 
Q 2772 3088 2869 2813 
Q 3263 3394 3894 3394 
Q 4388 3394 4653 3120 
Q 4919 2847 4919 2278 
L 4919 0 
L 4359 0 
L 4359 2091 
Q 4359 2428 4304 2576 
Q 4250 2725 4106 2815 
Q 3963 2906 3769 2906 
Q 3419 2906 3187 2673 
Q 2956 2441 2956 1928 
L 2956 0 
L 2394 0 
L 2394 2156 
Q 2394 2531 2256 2718 
Q 2119 2906 1806 2906 
Q 1569 2906 1367 2781 
Q 1166 2656 1075 2415 
Q 984 2175 984 1722 
L 984 0 
L 422 0 
z
" transform="scale(0.015625)"/>
       <path id="ArialMT-6e" d="M 422 0 
L 422 3319 
L 928 3319 
L 928 2847 
Q 1294 3394 1984 3394 
Q 2284 3394 2536 3286 
Q 2788 3178 2913 3003 
Q 3038 2828 3088 2588 
Q 3119 2431 3119 2041 
L 3119 0 
L 2556 0 
L 2556 2019 
Q 2556 2363 2490 2533 
Q 2425 2703 2258 2804 
Q 2091 2906 1866 2906 
Q 1506 2906 1245 2678 
Q 984 2450 984 1813 
L 984 0 
L 422 0 
z
" transform="scale(0.015625)"/>
       <path id="ArialMT-27" d="M 425 2959 
L 281 3816 
L 281 4581 
L 922 4581 
L 922 3816 
L 772 2959 
L 425 2959 
z
" transform="scale(0.015625)"/>
       <path id="ArialMT-73" d="M 197 991 
L 753 1078 
Q 800 744 1014 566 
Q 1228 388 1613 388 
Q 2000 388 2187 545 
Q 2375 703 2375 916 
Q 2375 1106 2209 1216 
Q 2094 1291 1634 1406 
Q 1016 1563 777 1677 
Q 538 1791 414 1992 
Q 291 2194 291 2438 
Q 291 2659 392 2848 
Q 494 3038 669 3163 
Q 800 3259 1026 3326 
Q 1253 3394 1513 3394 
Q 1903 3394 2198 3281 
Q 2494 3169 2634 2976 
Q 2775 2784 2828 2463 
L 2278 2388 
Q 2241 2644 2061 2787 
Q 1881 2931 1553 2931 
Q 1166 2931 1000 2803 
Q 834 2675 834 2503 
Q 834 2394 903 2306 
Q 972 2216 1119 2156 
Q 1203 2125 1616 2013 
Q 2213 1853 2448 1751 
Q 2684 1650 2818 1456 
Q 2953 1263 2953 975 
Q 2953 694 2789 445 
Q 2625 197 2315 61 
Q 2006 -75 1616 -75 
Q 969 -75 630 194 
Q 291 463 197 991 
z
" transform="scale(0.015625)"/>
       <path id="ArialMT-20" transform="scale(0.015625)"/>
       <path id="ArialMT-63" d="M 2588 1216 
L 3141 1144 
Q 3050 572 2676 248 
Q 2303 -75 1759 -75 
Q 1078 -75 664 370 
Q 250 816 250 1647 
Q 250 2184 428 2587 
Q 606 2991 970 3192 
Q 1334 3394 1763 3394 
Q 2303 3394 2647 3120 
Q 2991 2847 3088 2344 
L 2541 2259 
Q 2463 2594 2264 2762 
Q 2066 2931 1784 2931 
Q 1359 2931 1093 2626 
Q 828 2322 828 1663 
Q 828 994 1084 691 
Q 1341 388 1753 388 
Q 2084 388 2306 591 
Q 2528 794 2588 1216 
z
" transform="scale(0.015625)"/>
       <path id="ArialMT-6f" d="M 213 1659 
Q 213 2581 725 3025 
Q 1153 3394 1769 3394 
Q 2453 3394 2887 2945 
Q 3322 2497 3322 1706 
Q 3322 1066 3130 698 
Q 2938 331 2570 128 
Q 2203 -75 1769 -75 
Q 1072 -75 642 372 
Q 213 819 213 1659 
z
M 791 1659 
Q 791 1022 1069 705 
Q 1347 388 1769 388 
Q 2188 388 2466 706 
Q 2744 1025 2744 1678 
Q 2744 2294 2464 2611 
Q 2184 2928 1769 2928 
Q 1347 2928 1069 2612 
Q 791 2297 791 1659 
z
" transform="scale(0.015625)"/>
       <path id="ArialMT-6c" d="M 409 0 
L 409 4581 
L 972 4581 
L 972 0 
L 409 0 
z
" transform="scale(0.015625)"/>
       <path id="ArialMT-74" d="M 1650 503 
L 1731 6 
Q 1494 -44 1306 -44 
Q 1000 -44 831 53 
Q 663 150 594 308 
Q 525 466 525 972 
L 525 2881 
L 113 2881 
L 113 3319 
L 525 3319 
L 525 4141 
L 1084 4478 
L 1084 3319 
L 1650 3319 
L 1650 2881 
L 1084 2881 
L 1084 941 
Q 1084 700 1114 631 
Q 1144 563 1211 522 
Q 1278 481 1403 481 
Q 1497 481 1650 503 
z
" transform="scale(0.015625)"/>
       <path id="ArialMT-69" d="M 425 3934 
L 425 4581 
L 988 4581 
L 988 3934 
L 425 3934 
z
M 425 0 
L 425 3319 
L 988 3319 
L 988 0 
L 425 0 
z
" transform="scale(0.015625)"/>
       <path id="ArialMT-77" d="M 1034 0 
L 19 3319 
L 600 3319 
L 1128 1403 
L 1325 691 
Q 1338 744 1497 1375 
L 2025 3319 
L 2603 3319 
L 3100 1394 
L 3266 759 
L 3456 1400 
L 4025 3319 
L 4572 3319 
L 3534 0 
L 2950 0 
L 2422 1988 
L 2294 2553 
L 1622 0 
L 1034 0 
z
" transform="scale(0.015625)"/>
       <path id="ArialMT-68" d="M 422 0 
L 422 4581 
L 984 4581 
L 984 2938 
Q 1378 3394 1978 3394 
Q 2347 3394 2619 3248 
Q 2891 3103 3008 2847 
Q 3125 2591 3125 2103 
L 3125 0 
L 2563 0 
L 2563 2103 
Q 2563 2525 2380 2717 
Q 2197 2909 1863 2909 
Q 1613 2909 1392 2779 
Q 1172 2650 1078 2428 
Q 984 2206 984 1816 
L 984 0 
L 422 0 
z
" transform="scale(0.015625)"/>
       <path id="ArialMT-4d" d="M 475 0 
L 475 4581 
L 1388 4581 
L 2472 1338 
Q 2622 884 2691 659 
Q 2769 909 2934 1394 
L 4031 4581 
L 4847 4581 
L 4847 0 
L 4263 0 
L 4263 3834 
L 2931 0 
L 2384 0 
L 1059 3900 
L 1059 0 
L 475 0 
z
" transform="scale(0.015625)"/>
       <path id="ArialMT-42" d="M 469 0 
L 469 4581 
L 2188 4581 
Q 2713 4581 3030 4442 
Q 3347 4303 3526 4014 
Q 3706 3725 3706 3409 
Q 3706 3116 3547 2856 
Q 3388 2597 3066 2438 
Q 3481 2316 3704 2022 
Q 3928 1728 3928 1328 
Q 3928 1006 3792 729 
Q 3656 453 3456 303 
Q 3256 153 2954 76 
Q 2653 0 2216 0 
L 469 0 
z
M 1075 2656 
L 2066 2656 
Q 2469 2656 2644 2709 
Q 2875 2778 2992 2937 
Q 3109 3097 3109 3338 
Q 3109 3566 3000 3739 
Q 2891 3913 2687 3977 
Q 2484 4041 1991 4041 
L 1075 4041 
L 1075 2656 
z
M 1075 541 
L 2216 541 
Q 2509 541 2628 563 
Q 2838 600 2978 687 
Q 3119 775 3209 942 
Q 3300 1109 3300 1328 
Q 3300 1584 3169 1773 
Q 3038 1963 2805 2039 
Q 2572 2116 2134 2116 
L 1075 2116 
L 1075 541 
z
" transform="scale(0.015625)"/>
       <path id="ArialMT-50" d="M 494 0 
L 494 4581 
L 2222 4581 
Q 2678 4581 2919 4538 
Q 3256 4481 3484 4323 
Q 3713 4166 3852 3881 
Q 3991 3597 3991 3256 
Q 3991 2672 3619 2267 
Q 3247 1863 2275 1863 
L 1100 1863 
L 1100 0 
L 494 0 
z
M 1100 2403 
L 2284 2403 
Q 2872 2403 3119 2622 
Q 3366 2841 3366 3238 
Q 3366 3525 3220 3729 
Q 3075 3934 2838 4000 
Q 2684 4041 2272 4041 
L 1100 4041 
L 1100 2403 
z
" transform="scale(0.015625)"/>
      </defs>
      <use xlink:href="#ArialMT-53"/>
      <use xlink:href="#ArialMT-70" x="66.699219"/>
      <use xlink:href="#ArialMT-65" x="122.314453"/>
      <use xlink:href="#ArialMT-61" x="177.929688"/>
      <use xlink:href="#ArialMT-72" x="233.544922"/>
      <use xlink:href="#ArialMT-6d" x="266.845703"/>
      <use xlink:href="#ArialMT-61" x="350.146484"/>
      <use xlink:href="#ArialMT-6e" x="405.761719"/>
      <use xlink:href="#ArialMT-27" x="461.376953"/>
      <use xlink:href="#ArialMT-73" x="480.46875"/>
      <use xlink:href="#ArialMT-20" x="530.46875"/>
      <use xlink:href="#ArialMT-63" x="558.251953"/>
      <use xlink:href="#ArialMT-6f" x="608.251953"/>
      <use xlink:href="#ArialMT-72" x="663.867188"/>
      <use xlink:href="#ArialMT-72" x="697.167969"/>
      <use xlink:href="#ArialMT-65" x="730.46875"/>
      <use xlink:href="#ArialMT-6c" x="786.083984"/>
      <use xlink:href="#ArialMT-61" x="808.300781"/>
      <use xlink:href="#ArialMT-74" x="863.916016"/>
      <use xlink:href="#ArialMT-69" x="891.699219"/>
      <use xlink:href="#ArialMT-6f" x="913.916016"/>
      <use xlink:href="#ArialMT-6e" x="969.53125"/>
      <use xlink:href="#ArialMT-20" x="1025.146484"/>
      <use xlink:href="#ArialMT-77" x="1052.929688"/>
      <use xlink:href="#ArialMT-69" x="1125.146484"/>
      <use xlink:href="#ArialMT-74" x="1147.363281"/>
      <use xlink:href="#ArialMT-68" x="1175.146484"/>
      <use xlink:href="#ArialMT-20" x="1230.761719"/>
      <use xlink:href="#ArialMT-4d" x="1258.544922"/>
      <use xlink:href="#ArialMT-42" x="1341.845703"/>
      <use xlink:href="#ArialMT-53" x="1408.544922"/>
      <use xlink:href="#ArialMT-50" x="1475.244141"/>
     </g>
    </g>
   </g>
   <g id="matplotlib.axis_2">
    <g id="ytick_1">
     <g id="line2d_10">
      <defs>
       <path id="m1145119fa5" d="M 2 0 
L -2 -0 
" style="stroke: #000000; stroke-width: 0.8"/>
      </defs>
      <g>
       <use xlink:href="#m1145119fa5" x="142.86672" y="324.165633" style="stroke: #000000; stroke-width: 0.8"/>
      </g>
     </g>
     <g id="text_7">
      <!-- Juicing oil recovery -->
      <g transform="translate(69.34297 323.186883) scale(0.08 -0.08)">
       <defs>
        <path id="ArialMT-4a" d="M 184 1300 
L 731 1375 
Q 753 850 928 656 
Q 1103 463 1413 463 
Q 1641 463 1806 567 
Q 1972 672 2034 851 
Q 2097 1031 2097 1425 
L 2097 4581 
L 2703 4581 
L 2703 1459 
Q 2703 884 2564 568 
Q 2425 253 2123 87 
Q 1822 -78 1416 -78 
Q 813 -78 492 269 
Q 172 616 184 1300 
z
" transform="scale(0.015625)"/>
        <path id="ArialMT-75" d="M 2597 0 
L 2597 488 
Q 2209 -75 1544 -75 
Q 1250 -75 995 37 
Q 741 150 617 320 
Q 494 491 444 738 
Q 409 903 409 1263 
L 409 3319 
L 972 3319 
L 972 1478 
Q 972 1038 1006 884 
Q 1059 663 1231 536 
Q 1403 409 1656 409 
Q 1909 409 2131 539 
Q 2353 669 2445 892 
Q 2538 1116 2538 1541 
L 2538 3319 
L 3100 3319 
L 3100 0 
L 2597 0 
z
" transform="scale(0.015625)"/>
        <path id="ArialMT-67" d="M 319 -275 
L 866 -356 
Q 900 -609 1056 -725 
Q 1266 -881 1628 -881 
Q 2019 -881 2231 -725 
Q 2444 -569 2519 -288 
Q 2563 -116 2559 434 
Q 2191 0 1641 0 
Q 956 0 581 494 
Q 206 988 206 1678 
Q 206 2153 378 2554 
Q 550 2956 876 3175 
Q 1203 3394 1644 3394 
Q 2231 3394 2613 2919 
L 2613 3319 
L 3131 3319 
L 3131 450 
Q 3131 -325 2973 -648 
Q 2816 -972 2473 -1159 
Q 2131 -1347 1631 -1347 
Q 1038 -1347 672 -1080 
Q 306 -813 319 -275 
z
M 784 1719 
Q 784 1066 1043 766 
Q 1303 466 1694 466 
Q 2081 466 2343 764 
Q 2606 1063 2606 1700 
Q 2606 2309 2336 2618 
Q 2066 2928 1684 2928 
Q 1309 2928 1046 2623 
Q 784 2319 784 1719 
z
" transform="scale(0.015625)"/>
        <path id="ArialMT-76" d="M 1344 0 
L 81 3319 
L 675 3319 
L 1388 1331 
Q 1503 1009 1600 663 
Q 1675 925 1809 1294 
L 2547 3319 
L 3125 3319 
L 1869 0 
L 1344 0 
z
" transform="scale(0.015625)"/>
        <path id="ArialMT-79" d="M 397 -1278 
L 334 -750 
Q 519 -800 656 -800 
Q 844 -800 956 -737 
Q 1069 -675 1141 -563 
Q 1194 -478 1313 -144 
Q 1328 -97 1363 -6 
L 103 3319 
L 709 3319 
L 1400 1397 
Q 1534 1031 1641 628 
Q 1738 1016 1872 1384 
L 2581 3319 
L 3144 3319 
L 1881 -56 
Q 1678 -603 1566 -809 
Q 1416 -1088 1222 -1217 
Q 1028 -1347 759 -1347 
Q 597 -1347 397 -1278 
z
" transform="scale(0.015625)"/>
       </defs>
       <use xlink:href="#ArialMT-4a"/>
       <use xlink:href="#ArialMT-75" x="50"/>
       <use xlink:href="#ArialMT-69" x="105.615234"/>
       <use xlink:href="#ArialMT-63" x="127.832031"/>
       <use xlink:href="#ArialMT-69" x="177.832031"/>
       <use xlink:href="#ArialMT-6e" x="200.048828"/>
       <use xlink:href="#ArialMT-67" x="255.664062"/>
       <use xlink:href="#ArialMT-20" x="311.279297"/>
       <use xlink:href="#ArialMT-6f" x="339.0625"/>
       <use xlink:href="#ArialMT-69" x="394.677734"/>
       <use xlink:href="#ArialMT-6c" x="416.894531"/>
       <use xlink:href="#ArialMT-20" x="439.111328"/>
       <use xlink:href="#ArialMT-72" x="466.894531"/>
       <use xlink:href="#ArialMT-65" x="500.195312"/>
       <use xlink:href="#ArialMT-63" x="555.810547"/>
       <use xlink:href="#ArialMT-6f" x="605.810547"/>
       <use xlink:href="#ArialMT-76" x="661.425781"/>
       <use xlink:href="#ArialMT-65" x="711.425781"/>
       <use xlink:href="#ArialMT-72" x="767.041016"/>
       <use xlink:href="#ArialMT-79" x="800.341797"/>
      </g>
      <!-- [60 $-$ 90 $\%$] -->
      <g transform="translate(94.08672 332.070633) scale(0.08 -0.08)">
       <defs>
        <path id="ArialMT-5b" d="M 434 -1272 
L 434 4581 
L 1675 4581 
L 1675 4116 
L 997 4116 
L 997 -806 
L 1675 -806 
L 1675 -1272 
L 434 -1272 
z
" transform="scale(0.015625)"/>
        <path id="ArialMT-36" d="M 3184 3459 
L 2625 3416 
Q 2550 3747 2413 3897 
Q 2184 4138 1850 4138 
Q 1581 4138 1378 3988 
Q 1113 3794 959 3422 
Q 806 3050 800 2363 
Q 1003 2672 1297 2822 
Q 1591 2972 1913 2972 
Q 2475 2972 2870 2558 
Q 3266 2144 3266 1488 
Q 3266 1056 3080 686 
Q 2894 316 2569 119 
Q 2244 -78 1831 -78 
Q 1128 -78 684 439 
Q 241 956 241 2144 
Q 241 3472 731 4075 
Q 1159 4600 1884 4600 
Q 2425 4600 2770 4297 
Q 3116 3994 3184 3459 
z
M 888 1484 
Q 888 1194 1011 928 
Q 1134 663 1356 523 
Q 1578 384 1822 384 
Q 2178 384 2434 671 
Q 2691 959 2691 1453 
Q 2691 1928 2437 2201 
Q 2184 2475 1800 2475 
Q 1419 2475 1153 2201 
Q 888 1928 888 1484 
z
" transform="scale(0.015625)"/>
        <path id="DejaVuSans-2212" d="M 678 2272 
L 4684 2272 
L 4684 1741 
L 678 1741 
L 678 2272 
z
" transform="scale(0.015625)"/>
        <path id="ArialMT-39" d="M 350 1059 
L 891 1109 
Q 959 728 1153 556 
Q 1347 384 1650 384 
Q 1909 384 2104 503 
Q 2300 622 2425 820 
Q 2550 1019 2634 1356 
Q 2719 1694 2719 2044 
Q 2719 2081 2716 2156 
Q 2547 1888 2255 1720 
Q 1963 1553 1622 1553 
Q 1053 1553 659 1965 
Q 266 2378 266 3053 
Q 266 3750 677 4175 
Q 1088 4600 1706 4600 
Q 2153 4600 2523 4359 
Q 2894 4119 3086 3673 
Q 3278 3228 3278 2384 
Q 3278 1506 3087 986 
Q 2897 466 2520 194 
Q 2144 -78 1638 -78 
Q 1100 -78 759 220 
Q 419 519 350 1059 
z
M 2653 3081 
Q 2653 3566 2395 3850 
Q 2138 4134 1775 4134 
Q 1400 4134 1122 3828 
Q 844 3522 844 3034 
Q 844 2597 1108 2323 
Q 1372 2050 1759 2050 
Q 2150 2050 2401 2323 
Q 2653 2597 2653 3081 
z
" transform="scale(0.015625)"/>
        <path id="DejaVuSans-25" d="M 4653 2053 
Q 4381 2053 4226 1822 
Q 4072 1591 4072 1178 
Q 4072 772 4226 539 
Q 4381 306 4653 306 
Q 4919 306 5073 539 
Q 5228 772 5228 1178 
Q 5228 1588 5073 1820 
Q 4919 2053 4653 2053 
z
M 4653 2450 
Q 5147 2450 5437 2106 
Q 5728 1763 5728 1178 
Q 5728 594 5436 251 
Q 5144 -91 4653 -91 
Q 4153 -91 3862 251 
Q 3572 594 3572 1178 
Q 3572 1766 3864 2108 
Q 4156 2450 4653 2450 
z
M 1428 4353 
Q 1159 4353 1004 4120 
Q 850 3888 850 3481 
Q 850 3069 1003 2837 
Q 1156 2606 1428 2606 
Q 1700 2606 1854 2837 
Q 2009 3069 2009 3481 
Q 2009 3884 1853 4118 
Q 1697 4353 1428 4353 
z
M 4250 4750 
L 4750 4750 
L 1831 -91 
L 1331 -91 
L 4250 4750 
z
M 1428 4750 
Q 1922 4750 2215 4408 
Q 2509 4066 2509 3481 
Q 2509 2891 2217 2550 
Q 1925 2209 1428 2209 
Q 931 2209 642 2551 
Q 353 2894 353 3481 
Q 353 4063 643 4406 
Q 934 4750 1428 4750 
z
" transform="scale(0.015625)"/>
        <path id="ArialMT-5d" d="M 1363 -1272 
L 122 -1272 
L 122 -806 
L 800 -806 
L 800 4116 
L 122 4116 
L 122 4581 
L 1363 4581 
L 1363 -1272 
z
" transform="scale(0.015625)"/>
       </defs>
       <use xlink:href="#ArialMT-5b" transform="translate(0 0.78125)"/>
       <use xlink:href="#ArialMT-36" transform="translate(27.783203 0.78125)"/>
       <use xlink:href="#ArialMT-30" transform="translate(83.398438 0.78125)"/>
       <use xlink:href="#ArialMT-20" transform="translate(139.013672 0.78125)"/>
       <use xlink:href="#DejaVuSans-2212" transform="translate(166.796875 0.78125)"/>
       <use xlink:href="#ArialMT-20" transform="translate(250.585938 0.78125)"/>
       <use xlink:href="#ArialMT-39" transform="translate(278.369141 0.78125)"/>
       <use xlink:href="#ArialMT-30" transform="translate(333.984375 0.78125)"/>
       <use xlink:href="#ArialMT-20" transform="translate(389.599609 0.78125)"/>
       <use xlink:href="#DejaVuSans-25" transform="translate(417.382812 0.78125)"/>
       <use xlink:href="#ArialMT-5d" transform="translate(512.402344 0.78125)"/>
      </g>
     </g>
    </g>
    <g id="ytick_2">
     <g id="line2d_11">
      <g>
       <use xlink:href="#m1145119fa5" x="142.86672" y="291.919853" style="stroke: #000000; stroke-width: 0.8"/>
      </g>
     </g>
     <g id="text_8">
      <!-- Glucose to microbial oil yield -->
      <g transform="translate(35.99672 290.389853) scale(0.08 -0.08)">
       <defs>
        <path id="ArialMT-47" d="M 2638 1797 
L 2638 2334 
L 4578 2338 
L 4578 638 
Q 4131 281 3656 101 
Q 3181 -78 2681 -78 
Q 2006 -78 1454 211 
Q 903 500 622 1047 
Q 341 1594 341 2269 
Q 341 2938 620 3517 
Q 900 4097 1425 4378 
Q 1950 4659 2634 4659 
Q 3131 4659 3532 4498 
Q 3934 4338 4162 4050 
Q 4391 3763 4509 3300 
L 3963 3150 
Q 3859 3500 3706 3700 
Q 3553 3900 3268 4020 
Q 2984 4141 2638 4141 
Q 2222 4141 1919 4014 
Q 1616 3888 1430 3681 
Q 1244 3475 1141 3228 
Q 966 2803 966 2306 
Q 966 1694 1177 1281 
Q 1388 869 1791 669 
Q 2194 469 2647 469 
Q 3041 469 3416 620 
Q 3791 772 3984 944 
L 3984 1797 
L 2638 1797 
z
" transform="scale(0.015625)"/>
        <path id="ArialMT-62" d="M 941 0 
L 419 0 
L 419 4581 
L 981 4581 
L 981 2947 
Q 1338 3394 1891 3394 
Q 2197 3394 2470 3270 
Q 2744 3147 2920 2923 
Q 3097 2700 3197 2384 
Q 3297 2069 3297 1709 
Q 3297 856 2875 390 
Q 2453 -75 1863 -75 
Q 1275 -75 941 416 
L 941 0 
z
M 934 1684 
Q 934 1088 1097 822 
Q 1363 388 1816 388 
Q 2184 388 2453 708 
Q 2722 1028 2722 1663 
Q 2722 2313 2464 2622 
Q 2206 2931 1841 2931 
Q 1472 2931 1203 2611 
Q 934 2291 934 1684 
z
" transform="scale(0.015625)"/>
        <path id="ArialMT-64" d="M 2575 0 
L 2575 419 
Q 2259 -75 1647 -75 
Q 1250 -75 917 144 
Q 584 363 401 755 
Q 219 1147 219 1656 
Q 219 2153 384 2558 
Q 550 2963 881 3178 
Q 1213 3394 1622 3394 
Q 1922 3394 2156 3267 
Q 2391 3141 2538 2938 
L 2538 4581 
L 3097 4581 
L 3097 0 
L 2575 0 
z
M 797 1656 
Q 797 1019 1065 703 
Q 1334 388 1700 388 
Q 2069 388 2326 689 
Q 2584 991 2584 1609 
Q 2584 2291 2321 2609 
Q 2059 2928 1675 2928 
Q 1300 2928 1048 2622 
Q 797 2316 797 1656 
z
" transform="scale(0.015625)"/>
       </defs>
       <use xlink:href="#ArialMT-47"/>
       <use xlink:href="#ArialMT-6c" x="77.783203"/>
       <use xlink:href="#ArialMT-75" x="100"/>
       <use xlink:href="#ArialMT-63" x="155.615234"/>
       <use xlink:href="#ArialMT-6f" x="205.615234"/>
       <use xlink:href="#ArialMT-73" x="261.230469"/>
       <use xlink:href="#ArialMT-65" x="311.230469"/>
       <use xlink:href="#ArialMT-20" x="366.845703"/>
       <use xlink:href="#ArialMT-74" x="394.628906"/>
       <use xlink:href="#ArialMT-6f" x="422.412109"/>
       <use xlink:href="#ArialMT-20" x="478.027344"/>
       <use xlink:href="#ArialMT-6d" x="505.810547"/>
       <use xlink:href="#ArialMT-69" x="589.111328"/>
       <use xlink:href="#ArialMT-63" x="611.328125"/>
       <use xlink:href="#ArialMT-72" x="661.328125"/>
       <use xlink:href="#ArialMT-6f" x="694.628906"/>
       <use xlink:href="#ArialMT-62" x="750.244141"/>
       <use xlink:href="#ArialMT-69" x="805.859375"/>
       <use xlink:href="#ArialMT-61" x="828.076172"/>
       <use xlink:href="#ArialMT-6c" x="883.691406"/>
       <use xlink:href="#ArialMT-20" x="905.908203"/>
       <use xlink:href="#ArialMT-6f" x="933.691406"/>
       <use xlink:href="#ArialMT-69" x="989.306641"/>
       <use xlink:href="#ArialMT-6c" x="1011.523438"/>
       <use xlink:href="#ArialMT-20" x="1033.740234"/>
       <use xlink:href="#ArialMT-79" x="1061.523438"/>
       <use xlink:href="#ArialMT-69" x="1111.523438"/>
       <use xlink:href="#ArialMT-65" x="1133.740234"/>
       <use xlink:href="#ArialMT-6c" x="1189.355469"/>
       <use xlink:href="#ArialMT-64" x="1211.572266"/>
      </g>
      <!-- [13.2 $-$ 18 $\mathrm{\mathrm{g} \cdot \mathrm{g}}^{{-1}}$] -->
      <g transform="translate(70.64672 300.713603) scale(0.08 -0.08)">
       <defs>
        <path id="ArialMT-33" d="M 269 1209 
L 831 1284 
Q 928 806 1161 595 
Q 1394 384 1728 384 
Q 2125 384 2398 659 
Q 2672 934 2672 1341 
Q 2672 1728 2419 1979 
Q 2166 2231 1775 2231 
Q 1616 2231 1378 2169 
L 1441 2663 
Q 1497 2656 1531 2656 
Q 1891 2656 2178 2843 
Q 2466 3031 2466 3422 
Q 2466 3731 2256 3934 
Q 2047 4138 1716 4138 
Q 1388 4138 1169 3931 
Q 950 3725 888 3313 
L 325 3413 
Q 428 3978 793 4289 
Q 1159 4600 1703 4600 
Q 2078 4600 2393 4439 
Q 2709 4278 2876 4000 
Q 3044 3722 3044 3409 
Q 3044 3113 2884 2869 
Q 2725 2625 2413 2481 
Q 2819 2388 3044 2092 
Q 3269 1797 3269 1353 
Q 3269 753 2831 336 
Q 2394 -81 1725 -81 
Q 1122 -81 723 278 
Q 325 638 269 1209 
z
" transform="scale(0.015625)"/>
        <path id="ArialMT-32" d="M 3222 541 
L 3222 0 
L 194 0 
Q 188 203 259 391 
Q 375 700 629 1000 
Q 884 1300 1366 1694 
Q 2113 2306 2375 2664 
Q 2638 3022 2638 3341 
Q 2638 3675 2398 3904 
Q 2159 4134 1775 4134 
Q 1369 4134 1125 3890 
Q 881 3647 878 3216 
L 300 3275 
Q 359 3922 746 4261 
Q 1134 4600 1788 4600 
Q 2447 4600 2831 4234 
Q 3216 3869 3216 3328 
Q 3216 3053 3103 2787 
Q 2991 2522 2730 2228 
Q 2469 1934 1863 1422 
Q 1356 997 1212 845 
Q 1069 694 975 541 
L 3222 541 
z
" transform="scale(0.015625)"/>
        <path id="ArialMT-38" d="M 1131 2484 
Q 781 2613 612 2850 
Q 444 3088 444 3419 
Q 444 3919 803 4259 
Q 1163 4600 1759 4600 
Q 2359 4600 2725 4251 
Q 3091 3903 3091 3403 
Q 3091 3084 2923 2848 
Q 2756 2613 2416 2484 
Q 2838 2347 3058 2040 
Q 3278 1734 3278 1309 
Q 3278 722 2862 322 
Q 2447 -78 1769 -78 
Q 1091 -78 675 323 
Q 259 725 259 1325 
Q 259 1772 486 2073 
Q 713 2375 1131 2484 
z
M 1019 3438 
Q 1019 3113 1228 2906 
Q 1438 2700 1772 2700 
Q 2097 2700 2305 2904 
Q 2513 3109 2513 3406 
Q 2513 3716 2298 3927 
Q 2084 4138 1766 4138 
Q 1444 4138 1231 3931 
Q 1019 3725 1019 3438 
z
M 838 1322 
Q 838 1081 952 856 
Q 1066 631 1291 507 
Q 1516 384 1775 384 
Q 2178 384 2440 643 
Q 2703 903 2703 1303 
Q 2703 1709 2433 1975 
Q 2163 2241 1756 2241 
Q 1359 2241 1098 1978 
Q 838 1716 838 1322 
z
" transform="scale(0.015625)"/>
        <path id="DejaVuSans-67" d="M 2906 1791 
Q 2906 2416 2648 2759 
Q 2391 3103 1925 3103 
Q 1463 3103 1205 2759 
Q 947 2416 947 1791 
Q 947 1169 1205 825 
Q 1463 481 1925 481 
Q 2391 481 2648 825 
Q 2906 1169 2906 1791 
z
M 3481 434 
Q 3481 -459 3084 -895 
Q 2688 -1331 1869 -1331 
Q 1566 -1331 1297 -1286 
Q 1028 -1241 775 -1147 
L 775 -588 
Q 1028 -725 1275 -790 
Q 1522 -856 1778 -856 
Q 2344 -856 2625 -561 
Q 2906 -266 2906 331 
L 2906 616 
Q 2728 306 2450 153 
Q 2172 0 1784 0 
Q 1141 0 747 490 
Q 353 981 353 1791 
Q 353 2603 747 3093 
Q 1141 3584 1784 3584 
Q 2172 3584 2450 3431 
Q 2728 3278 2906 2969 
L 2906 3500 
L 3481 3500 
L 3481 434 
z
" transform="scale(0.015625)"/>
        <path id="DejaVuSans-22c5" d="M 684 2619 
L 1344 2619 
L 1344 1825 
L 684 1825 
L 684 2619 
z
" transform="scale(0.015625)"/>
        <path id="DejaVuSans-31" d="M 794 531 
L 1825 531 
L 1825 4091 
L 703 3866 
L 703 4441 
L 1819 4666 
L 2450 4666 
L 2450 531 
L 3481 531 
L 3481 0 
L 794 0 
L 794 531 
z
" transform="scale(0.015625)"/>
       </defs>
       <use xlink:href="#ArialMT-5b" transform="translate(0 0.684375)"/>
       <use xlink:href="#ArialMT-31" transform="translate(27.783203 0.684375)"/>
       <use xlink:href="#ArialMT-33" transform="translate(83.398438 0.684375)"/>
       <use xlink:href="#ArialMT-2e" transform="translate(139.013672 0.684375)"/>
       <use xlink:href="#ArialMT-32" transform="translate(166.796875 0.684375)"/>
       <use xlink:href="#ArialMT-20" transform="translate(222.412109 0.684375)"/>
       <use xlink:href="#DejaVuSans-2212" transform="translate(250.195312 0.684375)"/>
       <use xlink:href="#ArialMT-20" transform="translate(333.984375 0.684375)"/>
       <use xlink:href="#ArialMT-31" transform="translate(361.767578 0.684375)"/>
       <use xlink:href="#ArialMT-38" transform="translate(417.382812 0.684375)"/>
       <use xlink:href="#ArialMT-20" transform="translate(472.998047 0.684375)"/>
       <use xlink:href="#DejaVuSans-67" transform="translate(500.78125 0.684375)"/>
       <use xlink:href="#DejaVuSans-22c5" transform="translate(583.740234 0.684375)"/>
       <use xlink:href="#DejaVuSans-67" transform="translate(635.009766 0.684375)"/>
       <use xlink:href="#DejaVuSans-2212" transform="translate(699.443359 38.965625) scale(0.7)"/>
       <use xlink:href="#DejaVuSans-31" transform="translate(758.095703 38.965625) scale(0.7)"/>
       <use xlink:href="#ArialMT-5d" transform="translate(805.366211 0.684375)"/>
      </g>
     </g>
    </g>
    <g id="ytick_3">
     <g id="line2d_12">
      <g>
       <use xlink:href="#m1145119fa5" x="142.86672" y="259.674073" style="stroke: #000000; stroke-width: 0.8"/>
      </g>
     </g>
     <g id="text_9">
      <!-- Microbial oil productivity -->
      <g transform="translate(52.45297 258.095323) scale(0.08 -0.08)">
       <use xlink:href="#ArialMT-4d"/>
       <use xlink:href="#ArialMT-69" x="83.300781"/>
       <use xlink:href="#ArialMT-63" x="105.517578"/>
       <use xlink:href="#ArialMT-72" x="155.517578"/>
       <use xlink:href="#ArialMT-6f" x="188.818359"/>
       <use xlink:href="#ArialMT-62" x="244.433594"/>
       <use xlink:href="#ArialMT-69" x="300.048828"/>
       <use xlink:href="#ArialMT-61" x="322.265625"/>
       <use xlink:href="#ArialMT-6c" x="377.880859"/>
       <use xlink:href="#ArialMT-20" x="400.097656"/>
       <use xlink:href="#ArialMT-6f" x="427.880859"/>
       <use xlink:href="#ArialMT-69" x="483.496094"/>
       <use xlink:href="#ArialMT-6c" x="505.712891"/>
       <use xlink:href="#ArialMT-20" x="527.929688"/>
       <use xlink:href="#ArialMT-70" x="555.712891"/>
       <use xlink:href="#ArialMT-72" x="611.328125"/>
       <use xlink:href="#ArialMT-6f" x="644.628906"/>
       <use xlink:href="#ArialMT-64" x="700.244141"/>
       <use xlink:href="#ArialMT-75" x="755.859375"/>
       <use xlink:href="#ArialMT-63" x="811.474609"/>
       <use xlink:href="#ArialMT-74" x="861.474609"/>
       <use xlink:href="#ArialMT-69" x="889.257812"/>
       <use xlink:href="#ArialMT-76" x="911.474609"/>
       <use xlink:href="#ArialMT-69" x="961.474609"/>
       <use xlink:href="#ArialMT-74" x="983.691406"/>
       <use xlink:href="#ArialMT-79" x="1011.474609"/>
      </g>
      <!-- [0.17 $-$ 0.31 $\mathrm{g} \cdot \mathrm{L}^{-1} \cdot \mathrm{h}^{-1}$] -->
      <g transform="translate(45.36672 268.419073) scale(0.08 -0.08)">
       <defs>
        <path id="ArialMT-37" d="M 303 3981 
L 303 4522 
L 3269 4522 
L 3269 4084 
Q 2831 3619 2401 2847 
Q 1972 2075 1738 1259 
Q 1569 684 1522 0 
L 944 0 
Q 953 541 1156 1306 
Q 1359 2072 1739 2783 
Q 2119 3494 2547 3981 
L 303 3981 
z
" transform="scale(0.015625)"/>
        <path id="DejaVuSans-4c" d="M 628 4666 
L 1259 4666 
L 1259 531 
L 3531 531 
L 3531 0 
L 628 0 
L 628 4666 
z
" transform="scale(0.015625)"/>
        <path id="DejaVuSans-68" d="M 3513 2113 
L 3513 0 
L 2938 0 
L 2938 2094 
Q 2938 2591 2744 2837 
Q 2550 3084 2163 3084 
Q 1697 3084 1428 2787 
Q 1159 2491 1159 1978 
L 1159 0 
L 581 0 
L 581 4863 
L 1159 4863 
L 1159 2956 
Q 1366 3272 1645 3428 
Q 1925 3584 2291 3584 
Q 2894 3584 3203 3211 
Q 3513 2838 3513 2113 
z
" transform="scale(0.015625)"/>
       </defs>
       <use xlink:href="#ArialMT-5b" transform="translate(0 0.684375)"/>
       <use xlink:href="#ArialMT-30" transform="translate(27.783203 0.684375)"/>
       <use xlink:href="#ArialMT-2e" transform="translate(83.398438 0.684375)"/>
       <use xlink:href="#ArialMT-31" transform="translate(111.181641 0.684375)"/>
       <use xlink:href="#ArialMT-37" transform="translate(166.796875 0.684375)"/>
       <use xlink:href="#ArialMT-20" transform="translate(222.412109 0.684375)"/>
       <use xlink:href="#DejaVuSans-2212" transform="translate(250.195312 0.684375)"/>
       <use xlink:href="#ArialMT-20" transform="translate(333.984375 0.684375)"/>
       <use xlink:href="#ArialMT-30" transform="translate(361.767578 0.684375)"/>
       <use xlink:href="#ArialMT-2e" transform="translate(417.382812 0.684375)"/>
       <use xlink:href="#ArialMT-33" transform="translate(445.166016 0.684375)"/>
       <use xlink:href="#ArialMT-31" transform="translate(500.78125 0.684375)"/>
       <use xlink:href="#ArialMT-20" transform="translate(556.396484 0.684375)"/>
       <use xlink:href="#DejaVuSans-67" transform="translate(584.179688 0.684375)"/>
       <use xlink:href="#DejaVuSans-22c5" transform="translate(667.138672 0.684375)"/>
       <use xlink:href="#DejaVuSans-4c" transform="translate(718.408203 0.684375)"/>
       <use xlink:href="#DejaVuSans-2212" transform="translate(775.078125 38.965625) scale(0.7)"/>
       <use xlink:href="#DejaVuSans-31" transform="translate(833.730469 38.965625) scale(0.7)"/>
       <use xlink:href="#DejaVuSans-22c5" transform="translate(900.483398 0.684375)"/>
       <use xlink:href="#DejaVuSans-68" transform="translate(951.75293 0.684375)"/>
       <use xlink:href="#DejaVuSans-2212" transform="translate(1016.088867 38.965625) scale(0.7)"/>
       <use xlink:href="#DejaVuSans-31" transform="translate(1074.741211 38.965625) scale(0.7)"/>
       <use xlink:href="#ArialMT-5d" transform="translate(1122.011719 0.684375)"/>
      </g>
     </g>
    </g>
    <g id="ytick_4">
     <g id="line2d_13">
      <g>
       <use xlink:href="#m1145119fa5" x="142.86672" y="227.428292" style="stroke: #000000; stroke-width: 0.8"/>
      </g>
     </g>
     <g id="text_10">
      <!-- Microbial oil titer -->
      <g transform="translate(79.57672 225.896417) scale(0.08 -0.08)">
       <use xlink:href="#ArialMT-4d"/>
       <use xlink:href="#ArialMT-69" x="83.300781"/>
       <use xlink:href="#ArialMT-63" x="105.517578"/>
       <use xlink:href="#ArialMT-72" x="155.517578"/>
       <use xlink:href="#ArialMT-6f" x="188.818359"/>
       <use xlink:href="#ArialMT-62" x="244.433594"/>
       <use xlink:href="#ArialMT-69" x="300.048828"/>
       <use xlink:href="#ArialMT-61" x="322.265625"/>
       <use xlink:href="#ArialMT-6c" x="377.880859"/>
       <use xlink:href="#ArialMT-20" x="400.097656"/>
       <use xlink:href="#ArialMT-6f" x="427.880859"/>
       <use xlink:href="#ArialMT-69" x="483.496094"/>
       <use xlink:href="#ArialMT-6c" x="505.712891"/>
       <use xlink:href="#ArialMT-20" x="527.929688"/>
       <use xlink:href="#ArialMT-74" x="555.712891"/>
       <use xlink:href="#ArialMT-69" x="583.496094"/>
       <use xlink:href="#ArialMT-74" x="605.712891"/>
       <use xlink:href="#ArialMT-65" x="633.496094"/>
       <use xlink:href="#ArialMT-72" x="689.111328"/>
      </g>
      <!-- [13.2 $-$ 27.4 $\mathrm{g} \cdot \mathrm{L}^{-1}$] -->
      <g transform="translate(64.64672 236.126417) scale(0.08 -0.08)">
       <defs>
        <path id="ArialMT-34" d="M 2069 0 
L 2069 1097 
L 81 1097 
L 81 1613 
L 2172 4581 
L 2631 4581 
L 2631 1613 
L 3250 1613 
L 3250 1097 
L 2631 1097 
L 2631 0 
L 2069 0 
z
M 2069 1613 
L 2069 3678 
L 634 1613 
L 2069 1613 
z
" transform="scale(0.015625)"/>
       </defs>
       <use xlink:href="#ArialMT-5b" transform="translate(0 0.684375)"/>
       <use xlink:href="#ArialMT-31" transform="translate(27.783203 0.684375)"/>
       <use xlink:href="#ArialMT-33" transform="translate(83.398438 0.684375)"/>
       <use xlink:href="#ArialMT-2e" transform="translate(139.013672 0.684375)"/>
       <use xlink:href="#ArialMT-32" transform="translate(166.796875 0.684375)"/>
       <use xlink:href="#ArialMT-20" transform="translate(222.412109 0.684375)"/>
       <use xlink:href="#DejaVuSans-2212" transform="translate(250.195312 0.684375)"/>
       <use xlink:href="#ArialMT-20" transform="translate(333.984375 0.684375)"/>
       <use xlink:href="#ArialMT-32" transform="translate(361.767578 0.684375)"/>
       <use xlink:href="#ArialMT-37" transform="translate(417.382812 0.684375)"/>
       <use xlink:href="#ArialMT-2e" transform="translate(472.998047 0.684375)"/>
       <use xlink:href="#ArialMT-34" transform="translate(500.78125 0.684375)"/>
       <use xlink:href="#ArialMT-20" transform="translate(556.396484 0.684375)"/>
       <use xlink:href="#DejaVuSans-67" transform="translate(584.179688 0.684375)"/>
       <use xlink:href="#DejaVuSans-22c5" transform="translate(667.138672 0.684375)"/>
       <use xlink:href="#DejaVuSans-4c" transform="translate(718.408203 0.684375)"/>
       <use xlink:href="#DejaVuSans-2212" transform="translate(775.078125 38.965625) scale(0.7)"/>
       <use xlink:href="#DejaVuSans-31" transform="translate(833.730469 38.965625) scale(0.7)"/>
       <use xlink:href="#ArialMT-5d" transform="translate(881.000977 0.684375)"/>
      </g>
     </g>
    </g>
    <g id="ytick_5">
     <g id="line2d_14">
      <g>
       <use xlink:href="#m1145119fa5" x="142.86672" y="195.182512" style="stroke: #000000; stroke-width: 0.8"/>
      </g>
     </g>
     <g id="text_11">
      <!-- Microbial oil recovery -->
      <g transform="translate(62.23797 194.203762) scale(0.08 -0.08)">
       <use xlink:href="#ArialMT-4d"/>
       <use xlink:href="#ArialMT-69" x="83.300781"/>
       <use xlink:href="#ArialMT-63" x="105.517578"/>
       <use xlink:href="#ArialMT-72" x="155.517578"/>
       <use xlink:href="#ArialMT-6f" x="188.818359"/>
       <use xlink:href="#ArialMT-62" x="244.433594"/>
       <use xlink:href="#ArialMT-69" x="300.048828"/>
       <use xlink:href="#ArialMT-61" x="322.265625"/>
       <use xlink:href="#ArialMT-6c" x="377.880859"/>
       <use xlink:href="#ArialMT-20" x="400.097656"/>
       <use xlink:href="#ArialMT-6f" x="427.880859"/>
       <use xlink:href="#ArialMT-69" x="483.496094"/>
       <use xlink:href="#ArialMT-6c" x="505.712891"/>
       <use xlink:href="#ArialMT-20" x="527.929688"/>
       <use xlink:href="#ArialMT-72" x="555.712891"/>
       <use xlink:href="#ArialMT-65" x="589.013672"/>
       <use xlink:href="#ArialMT-63" x="644.628906"/>
       <use xlink:href="#ArialMT-6f" x="694.628906"/>
       <use xlink:href="#ArialMT-76" x="750.244141"/>
       <use xlink:href="#ArialMT-65" x="800.244141"/>
       <use xlink:href="#ArialMT-72" x="855.859375"/>
       <use xlink:href="#ArialMT-79" x="889.160156"/>
      </g>
      <!-- [50 $-$ 90 $\%$] -->
      <g transform="translate(94.08672 203.087512) scale(0.08 -0.08)">
       <use xlink:href="#ArialMT-5b" transform="translate(0 0.78125)"/>
       <use xlink:href="#ArialMT-35" transform="translate(27.783203 0.78125)"/>
       <use xlink:href="#ArialMT-30" transform="translate(83.398438 0.78125)"/>
       <use xlink:href="#ArialMT-20" transform="translate(139.013672 0.78125)"/>
       <use xlink:href="#DejaVuSans-2212" transform="translate(166.796875 0.78125)"/>
       <use xlink:href="#ArialMT-20" transform="translate(250.585938 0.78125)"/>
       <use xlink:href="#ArialMT-39" transform="translate(278.369141 0.78125)"/>
       <use xlink:href="#ArialMT-30" transform="translate(333.984375 0.78125)"/>
       <use xlink:href="#ArialMT-20" transform="translate(389.599609 0.78125)"/>
       <use xlink:href="#DejaVuSans-25" transform="translate(417.382812 0.78125)"/>
       <use xlink:href="#ArialMT-5d" transform="translate(512.402344 0.78125)"/>
      </g>
     </g>
    </g>
    <g id="ytick_6">
     <g id="line2d_15">
      <g>
       <use xlink:href="#m1145119fa5" x="142.86672" y="162.936732" style="stroke: #000000; stroke-width: 0.8"/>
      </g>
     </g>
     <g id="text_12">
      <!-- IRR -->
      <g transform="translate(123.58922 162.004857) scale(0.08 -0.08)">
       <defs>
        <path id="ArialMT-49" d="M 597 0 
L 597 4581 
L 1203 4581 
L 1203 0 
L 597 0 
z
" transform="scale(0.015625)"/>
        <path id="ArialMT-52" d="M 503 0 
L 503 4581 
L 2534 4581 
Q 3147 4581 3465 4457 
Q 3784 4334 3975 4021 
Q 4166 3709 4166 3331 
Q 4166 2844 3850 2509 
Q 3534 2175 2875 2084 
Q 3116 1969 3241 1856 
Q 3506 1613 3744 1247 
L 4541 0 
L 3778 0 
L 3172 953 
Q 2906 1366 2734 1584 
Q 2563 1803 2427 1890 
Q 2291 1978 2150 2013 
Q 2047 2034 1813 2034 
L 1109 2034 
L 1109 0 
L 503 0 
z
M 1109 2559 
L 2413 2559 
Q 2828 2559 3062 2645 
Q 3297 2731 3419 2920 
Q 3541 3109 3541 3331 
Q 3541 3656 3305 3865 
Q 3069 4075 2559 4075 
L 1109 4075 
L 1109 2559 
z
" transform="scale(0.015625)"/>
       </defs>
       <use xlink:href="#ArialMT-49"/>
       <use xlink:href="#ArialMT-52" x="27.783203"/>
       <use xlink:href="#ArialMT-52" x="100"/>
      </g>
      <!-- [10 $-$ 15 $\%$] -->
      <g transform="translate(94.08672 170.794857) scale(0.08 -0.08)">
       <use xlink:href="#ArialMT-5b" transform="translate(0 0.78125)"/>
       <use xlink:href="#ArialMT-31" transform="translate(27.783203 0.78125)"/>
       <use xlink:href="#ArialMT-30" transform="translate(83.398438 0.78125)"/>
       <use xlink:href="#ArialMT-20" transform="translate(139.013672 0.78125)"/>
       <use xlink:href="#DejaVuSans-2212" transform="translate(166.796875 0.78125)"/>
       <use xlink:href="#ArialMT-20" transform="translate(250.585938 0.78125)"/>
       <use xlink:href="#ArialMT-31" transform="translate(278.369141 0.78125)"/>
       <use xlink:href="#ArialMT-35" transform="translate(333.984375 0.78125)"/>
       <use xlink:href="#ArialMT-20" transform="translate(389.599609 0.78125)"/>
       <use xlink:href="#DejaVuSans-25" transform="translate(417.382812 0.78125)"/>
       <use xlink:href="#ArialMT-5d" transform="translate(512.402344 0.78125)"/>
      </g>
     </g>
    </g>
    <g id="ytick_7">
     <g id="line2d_16">
      <g>
       <use xlink:href="#m1145119fa5" x="142.86672" y="130.690952" style="stroke: #000000; stroke-width: 0.8"/>
      </g>
     </g>
     <g id="text_13">
      <!-- Cane operating days -->
      <g transform="translate(63.54422 129.160952) scale(0.08 -0.08)">
       <defs>
        <path id="ArialMT-43" d="M 3763 1606 
L 4369 1453 
Q 4178 706 3683 314 
Q 3188 -78 2472 -78 
Q 1731 -78 1267 223 
Q 803 525 561 1097 
Q 319 1669 319 2325 
Q 319 3041 592 3573 
Q 866 4106 1370 4382 
Q 1875 4659 2481 4659 
Q 3169 4659 3637 4309 
Q 4106 3959 4291 3325 
L 3694 3184 
Q 3534 3684 3231 3912 
Q 2928 4141 2469 4141 
Q 1941 4141 1586 3887 
Q 1231 3634 1087 3207 
Q 944 2781 944 2328 
Q 944 1744 1114 1308 
Q 1284 872 1643 656 
Q 2003 441 2422 441 
Q 2931 441 3284 734 
Q 3638 1028 3763 1606 
z
" transform="scale(0.015625)"/>
       </defs>
       <use xlink:href="#ArialMT-43"/>
       <use xlink:href="#ArialMT-61" x="72.216797"/>
       <use xlink:href="#ArialMT-6e" x="127.832031"/>
       <use xlink:href="#ArialMT-65" x="183.447266"/>
       <use xlink:href="#ArialMT-20" x="239.0625"/>
       <use xlink:href="#ArialMT-6f" x="266.845703"/>
       <use xlink:href="#ArialMT-70" x="322.460938"/>
       <use xlink:href="#ArialMT-65" x="378.076172"/>
       <use xlink:href="#ArialMT-72" x="433.691406"/>
       <use xlink:href="#ArialMT-61" x="466.992188"/>
       <use xlink:href="#ArialMT-74" x="522.607422"/>
       <use xlink:href="#ArialMT-69" x="550.390625"/>
       <use xlink:href="#ArialMT-6e" x="572.607422"/>
       <use xlink:href="#ArialMT-67" x="628.222656"/>
       <use xlink:href="#ArialMT-20" x="683.837891"/>
       <use xlink:href="#ArialMT-64" x="711.621094"/>
       <use xlink:href="#ArialMT-61" x="767.236328"/>
       <use xlink:href="#ArialMT-79" x="822.851562"/>
       <use xlink:href="#ArialMT-73" x="872.851562"/>
      </g>
      <!-- [120 $-$ 180 $\mathrm{day} \cdot \mathrm{y}^{-1}$] -->
      <g transform="translate(59.12672 139.484702) scale(0.08 -0.08)">
       <defs>
        <path id="DejaVuSans-64" d="M 2906 2969 
L 2906 4863 
L 3481 4863 
L 3481 0 
L 2906 0 
L 2906 525 
Q 2725 213 2448 61 
Q 2172 -91 1784 -91 
Q 1150 -91 751 415 
Q 353 922 353 1747 
Q 353 2572 751 3078 
Q 1150 3584 1784 3584 
Q 2172 3584 2448 3432 
Q 2725 3281 2906 2969 
z
M 947 1747 
Q 947 1113 1208 752 
Q 1469 391 1925 391 
Q 2381 391 2643 752 
Q 2906 1113 2906 1747 
Q 2906 2381 2643 2742 
Q 2381 3103 1925 3103 
Q 1469 3103 1208 2742 
Q 947 2381 947 1747 
z
" transform="scale(0.015625)"/>
        <path id="DejaVuSans-61" d="M 2194 1759 
Q 1497 1759 1228 1600 
Q 959 1441 959 1056 
Q 959 750 1161 570 
Q 1363 391 1709 391 
Q 2188 391 2477 730 
Q 2766 1069 2766 1631 
L 2766 1759 
L 2194 1759 
z
M 3341 1997 
L 3341 0 
L 2766 0 
L 2766 531 
Q 2569 213 2275 61 
Q 1981 -91 1556 -91 
Q 1019 -91 701 211 
Q 384 513 384 1019 
Q 384 1609 779 1909 
Q 1175 2209 1959 2209 
L 2766 2209 
L 2766 2266 
Q 2766 2663 2505 2880 
Q 2244 3097 1772 3097 
Q 1472 3097 1187 3025 
Q 903 2953 641 2809 
L 641 3341 
Q 956 3463 1253 3523 
Q 1550 3584 1831 3584 
Q 2591 3584 2966 3190 
Q 3341 2797 3341 1997 
z
" transform="scale(0.015625)"/>
        <path id="DejaVuSans-79" d="M 2059 -325 
Q 1816 -950 1584 -1140 
Q 1353 -1331 966 -1331 
L 506 -1331 
L 506 -850 
L 844 -850 
Q 1081 -850 1212 -737 
Q 1344 -625 1503 -206 
L 1606 56 
L 191 3500 
L 800 3500 
L 1894 763 
L 2988 3500 
L 3597 3500 
L 2059 -325 
z
" transform="scale(0.015625)"/>
       </defs>
       <use xlink:href="#ArialMT-5b" transform="translate(0 0.684375)"/>
       <use xlink:href="#ArialMT-31" transform="translate(27.783203 0.684375)"/>
       <use xlink:href="#ArialMT-32" transform="translate(83.398438 0.684375)"/>
       <use xlink:href="#ArialMT-30" transform="translate(139.013672 0.684375)"/>
       <use xlink:href="#ArialMT-20" transform="translate(194.628906 0.684375)"/>
       <use xlink:href="#DejaVuSans-2212" transform="translate(222.412109 0.684375)"/>
       <use xlink:href="#ArialMT-20" transform="translate(306.201172 0.684375)"/>
       <use xlink:href="#ArialMT-31" transform="translate(333.984375 0.684375)"/>
       <use xlink:href="#ArialMT-38" transform="translate(389.599609 0.684375)"/>
       <use xlink:href="#ArialMT-30" transform="translate(445.214844 0.684375)"/>
       <use xlink:href="#ArialMT-20" transform="translate(500.830078 0.684375)"/>
       <use xlink:href="#DejaVuSans-64" transform="translate(528.613281 0.684375)"/>
       <use xlink:href="#DejaVuSans-61" transform="translate(592.089844 0.684375)"/>
       <use xlink:href="#DejaVuSans-79" transform="translate(653.369141 0.684375)"/>
       <use xlink:href="#DejaVuSans-22c5" transform="translate(732.03125 0.684375)"/>
       <use xlink:href="#DejaVuSans-79" transform="translate(783.300781 0.684375)"/>
       <use xlink:href="#DejaVuSans-2212" transform="translate(843.4375 38.965625) scale(0.7)"/>
       <use xlink:href="#DejaVuSans-31" transform="translate(902.089844 38.965625) scale(0.7)"/>
       <use xlink:href="#ArialMT-5d" transform="translate(949.360352 0.684375)"/>
      </g>
     </g>
    </g>
    <g id="ytick_8">
     <g id="line2d_17">
      <g>
       <use xlink:href="#m1145119fa5" x="142.86672" y="98.445172" style="stroke: #000000; stroke-width: 0.8"/>
      </g>
     </g>
     <g id="text_14">
      <!-- Cane oil content -->
      <g transform="translate(79.55422 97.473297) scale(0.08 -0.08)">
       <use xlink:href="#ArialMT-43"/>
       <use xlink:href="#ArialMT-61" x="72.216797"/>
       <use xlink:href="#ArialMT-6e" x="127.832031"/>
       <use xlink:href="#ArialMT-65" x="183.447266"/>
       <use xlink:href="#ArialMT-20" x="239.0625"/>
       <use xlink:href="#ArialMT-6f" x="266.845703"/>
       <use xlink:href="#ArialMT-69" x="322.460938"/>
       <use xlink:href="#ArialMT-6c" x="344.677734"/>
       <use xlink:href="#ArialMT-20" x="366.894531"/>
       <use xlink:href="#ArialMT-63" x="394.677734"/>
       <use xlink:href="#ArialMT-6f" x="444.677734"/>
       <use xlink:href="#ArialMT-6e" x="500.292969"/>
       <use xlink:href="#ArialMT-74" x="555.908203"/>
       <use xlink:href="#ArialMT-65" x="583.691406"/>
       <use xlink:href="#ArialMT-6e" x="639.306641"/>
       <use xlink:href="#ArialMT-74" x="694.921875"/>
      </g>
      <!-- [1.8 $-$ 5.4 $\mathrm{dw \%}$] -->
      <g transform="translate(78.00672 106.359297) scale(0.08 -0.08)">
       <defs>
        <path id="DejaVuSans-77" d="M 269 3500 
L 844 3500 
L 1563 769 
L 2278 3500 
L 2956 3500 
L 3675 769 
L 4391 3500 
L 4966 3500 
L 4050 0 
L 3372 0 
L 2619 2869 
L 1863 0 
L 1184 0 
L 269 3500 
z
" transform="scale(0.015625)"/>
       </defs>
       <use xlink:href="#ArialMT-5b" transform="translate(0 0.015625)"/>
       <use xlink:href="#ArialMT-31" transform="translate(27.783203 0.015625)"/>
       <use xlink:href="#ArialMT-2e" transform="translate(83.398438 0.015625)"/>
       <use xlink:href="#ArialMT-38" transform="translate(111.181641 0.015625)"/>
       <use xlink:href="#ArialMT-20" transform="translate(166.796875 0.015625)"/>
       <use xlink:href="#DejaVuSans-2212" transform="translate(194.580078 0.015625)"/>
       <use xlink:href="#ArialMT-20" transform="translate(278.369141 0.015625)"/>
       <use xlink:href="#ArialMT-35" transform="translate(306.152344 0.015625)"/>
       <use xlink:href="#ArialMT-2e" transform="translate(361.767578 0.015625)"/>
       <use xlink:href="#ArialMT-34" transform="translate(389.550781 0.015625)"/>
       <use xlink:href="#ArialMT-20" transform="translate(445.166016 0.015625)"/>
       <use xlink:href="#DejaVuSans-64" transform="translate(472.949219 0.015625)"/>
       <use xlink:href="#DejaVuSans-77" transform="translate(536.425781 0.015625)"/>
       <use xlink:href="#DejaVuSans-25" transform="translate(618.212891 0.015625)"/>
       <use xlink:href="#ArialMT-5d" transform="translate(713.232422 0.015625)"/>
      </g>
     </g>
    </g>
    <g id="ytick_9">
     <g id="line2d_18">
      <g>
       <use xlink:href="#m1145119fa5" x="142.86672" y="66.199392" style="stroke: #000000; stroke-width: 0.8"/>
      </g>
     </g>
     <g id="text_15">
      <!-- Baseline feedstock price -->
      <g transform="translate(50.65672 64.716267) scale(0.08 -0.08)">
       <defs>
        <path id="ArialMT-66" d="M 556 0 
L 556 2881 
L 59 2881 
L 59 3319 
L 556 3319 
L 556 3672 
Q 556 4006 616 4169 
Q 697 4388 901 4523 
Q 1106 4659 1475 4659 
Q 1713 4659 2000 4603 
L 1916 4113 
Q 1741 4144 1584 4144 
Q 1328 4144 1222 4034 
Q 1116 3925 1116 3625 
L 1116 3319 
L 1763 3319 
L 1763 2881 
L 1116 2881 
L 1116 0 
L 556 0 
z
" transform="scale(0.015625)"/>
        <path id="ArialMT-6b" d="M 425 0 
L 425 4581 
L 988 4581 
L 988 1969 
L 2319 3319 
L 3047 3319 
L 1778 2088 
L 3175 0 
L 2481 0 
L 1384 1697 
L 988 1316 
L 988 0 
L 425 0 
z
" transform="scale(0.015625)"/>
       </defs>
       <use xlink:href="#ArialMT-42"/>
       <use xlink:href="#ArialMT-61" x="66.699219"/>
       <use xlink:href="#ArialMT-73" x="122.314453"/>
       <use xlink:href="#ArialMT-65" x="172.314453"/>
       <use xlink:href="#ArialMT-6c" x="227.929688"/>
       <use xlink:href="#ArialMT-69" x="250.146484"/>
       <use xlink:href="#ArialMT-6e" x="272.363281"/>
       <use xlink:href="#ArialMT-65" x="327.978516"/>
       <use xlink:href="#ArialMT-20" x="383.59375"/>
       <use xlink:href="#ArialMT-66" x="411.376953"/>
       <use xlink:href="#ArialMT-65" x="439.160156"/>
       <use xlink:href="#ArialMT-65" x="494.775391"/>
       <use xlink:href="#ArialMT-64" x="550.390625"/>
       <use xlink:href="#ArialMT-73" x="606.005859"/>
       <use xlink:href="#ArialMT-74" x="656.005859"/>
       <use xlink:href="#ArialMT-6f" x="683.789062"/>
       <use xlink:href="#ArialMT-63" x="739.404297"/>
       <use xlink:href="#ArialMT-6b" x="789.404297"/>
       <use xlink:href="#ArialMT-20" x="839.404297"/>
       <use xlink:href="#ArialMT-70" x="867.1875"/>
       <use xlink:href="#ArialMT-72" x="922.802734"/>
       <use xlink:href="#ArialMT-69" x="956.103516"/>
       <use xlink:href="#ArialMT-63" x="978.320312"/>
       <use xlink:href="#ArialMT-65" x="1028.320312"/>
      </g>
      <!-- [0.0263 $-$ 0.0438 $\mathrm{USD} \cdot \mathrm{kg}^{-1}$] -->
      <g transform="translate(29.52672 74.946267) scale(0.08 -0.08)">
       <defs>
        <path id="DejaVuSans-55" d="M 556 4666 
L 1191 4666 
L 1191 1831 
Q 1191 1081 1462 751 
Q 1734 422 2344 422 
Q 2950 422 3222 751 
Q 3494 1081 3494 1831 
L 3494 4666 
L 4128 4666 
L 4128 1753 
Q 4128 841 3676 375 
Q 3225 -91 2344 -91 
Q 1459 -91 1007 375 
Q 556 841 556 1753 
L 556 4666 
z
" transform="scale(0.015625)"/>
        <path id="DejaVuSans-53" d="M 3425 4513 
L 3425 3897 
Q 3066 4069 2747 4153 
Q 2428 4238 2131 4238 
Q 1616 4238 1336 4038 
Q 1056 3838 1056 3469 
Q 1056 3159 1242 3001 
Q 1428 2844 1947 2747 
L 2328 2669 
Q 3034 2534 3370 2195 
Q 3706 1856 3706 1288 
Q 3706 609 3251 259 
Q 2797 -91 1919 -91 
Q 1588 -91 1214 -16 
Q 841 59 441 206 
L 441 856 
Q 825 641 1194 531 
Q 1563 422 1919 422 
Q 2459 422 2753 634 
Q 3047 847 3047 1241 
Q 3047 1584 2836 1778 
Q 2625 1972 2144 2069 
L 1759 2144 
Q 1053 2284 737 2584 
Q 422 2884 422 3419 
Q 422 4038 858 4394 
Q 1294 4750 2059 4750 
Q 2388 4750 2728 4690 
Q 3069 4631 3425 4513 
z
" transform="scale(0.015625)"/>
        <path id="DejaVuSans-44" d="M 1259 4147 
L 1259 519 
L 2022 519 
Q 2988 519 3436 956 
Q 3884 1394 3884 2338 
Q 3884 3275 3436 3711 
Q 2988 4147 2022 4147 
L 1259 4147 
z
M 628 4666 
L 1925 4666 
Q 3281 4666 3915 4102 
Q 4550 3538 4550 2338 
Q 4550 1131 3912 565 
Q 3275 0 1925 0 
L 628 0 
L 628 4666 
z
" transform="scale(0.015625)"/>
        <path id="DejaVuSans-6b" d="M 581 4863 
L 1159 4863 
L 1159 1991 
L 2875 3500 
L 3609 3500 
L 1753 1863 
L 3688 0 
L 2938 0 
L 1159 1709 
L 1159 0 
L 581 0 
L 581 4863 
z
" transform="scale(0.015625)"/>
       </defs>
       <use xlink:href="#ArialMT-5b" transform="translate(0 0.684375)"/>
       <use xlink:href="#ArialMT-30" transform="translate(27.783203 0.684375)"/>
       <use xlink:href="#ArialMT-2e" transform="translate(83.398438 0.684375)"/>
       <use xlink:href="#ArialMT-30" transform="translate(111.181641 0.684375)"/>
       <use xlink:href="#ArialMT-32" transform="translate(166.796875 0.684375)"/>
       <use xlink:href="#ArialMT-36" transform="translate(222.412109 0.684375)"/>
       <use xlink:href="#ArialMT-33" transform="translate(278.027344 0.684375)"/>
       <use xlink:href="#ArialMT-20" transform="translate(333.642578 0.684375)"/>
       <use xlink:href="#DejaVuSans-2212" transform="translate(361.425781 0.684375)"/>
       <use xlink:href="#ArialMT-20" transform="translate(445.214844 0.684375)"/>
       <use xlink:href="#ArialMT-30" transform="translate(472.998047 0.684375)"/>
       <use xlink:href="#ArialMT-2e" transform="translate(528.613281 0.684375)"/>
       <use xlink:href="#ArialMT-30" transform="translate(556.396484 0.684375)"/>
       <use xlink:href="#ArialMT-34" transform="translate(612.011719 0.684375)"/>
       <use xlink:href="#ArialMT-33" transform="translate(667.626953 0.684375)"/>
       <use xlink:href="#ArialMT-38" transform="translate(723.242188 0.684375)"/>
       <use xlink:href="#ArialMT-20" transform="translate(778.857422 0.684375)"/>
       <use xlink:href="#DejaVuSans-55" transform="translate(806.640625 0.684375)"/>
       <use xlink:href="#DejaVuSans-53" transform="translate(879.833984 0.684375)"/>
       <use xlink:href="#DejaVuSans-44" transform="translate(943.310547 0.684375)"/>
       <use xlink:href="#DejaVuSans-22c5" transform="translate(1039.794922 0.684375)"/>
       <use xlink:href="#DejaVuSans-6b" transform="translate(1091.064453 0.684375)"/>
       <use xlink:href="#DejaVuSans-67" transform="translate(1148.974609 0.684375)"/>
       <use xlink:href="#DejaVuSans-2212" transform="translate(1213.408203 38.965625) scale(0.7)"/>
       <use xlink:href="#DejaVuSans-31" transform="translate(1272.060547 38.965625) scale(0.7)"/>
       <use xlink:href="#ArialMT-5d" transform="translate(1319.331055 0.684375)"/>
      </g>
     </g>
    </g>
    <g id="ytick_10">
     <g id="line2d_19">
      <g>
       <use xlink:href="#m1145119fa5" x="142.86672" y="33.953612" style="stroke: #000000; stroke-width: 0.8"/>
      </g>
     </g>
     <g id="text_16">
      <!-- Dry biomass yield -->
      <g transform="translate(74.24047 32.374862) scale(0.08 -0.08)">
       <defs>
        <path id="ArialMT-44" d="M 494 0 
L 494 4581 
L 2072 4581 
Q 2606 4581 2888 4516 
Q 3281 4425 3559 4188 
Q 3922 3881 4101 3404 
Q 4281 2928 4281 2316 
Q 4281 1794 4159 1391 
Q 4038 988 3847 723 
Q 3656 459 3429 307 
Q 3203 156 2883 78 
Q 2563 0 2147 0 
L 494 0 
z
M 1100 541 
L 2078 541 
Q 2531 541 2789 625 
Q 3047 709 3200 863 
Q 3416 1078 3536 1442 
Q 3656 1806 3656 2325 
Q 3656 3044 3420 3430 
Q 3184 3816 2847 3947 
Q 2603 4041 2063 4041 
L 1100 4041 
L 1100 541 
z
" transform="scale(0.015625)"/>
       </defs>
       <use xlink:href="#ArialMT-44"/>
       <use xlink:href="#ArialMT-72" x="72.216797"/>
       <use xlink:href="#ArialMT-79" x="105.517578"/>
       <use xlink:href="#ArialMT-20" x="155.517578"/>
       <use xlink:href="#ArialMT-62" x="183.300781"/>
       <use xlink:href="#ArialMT-69" x="238.916016"/>
       <use xlink:href="#ArialMT-6f" x="261.132812"/>
       <use xlink:href="#ArialMT-6d" x="316.748047"/>
       <use xlink:href="#ArialMT-61" x="400.048828"/>
       <use xlink:href="#ArialMT-73" x="455.664062"/>
       <use xlink:href="#ArialMT-73" x="505.664062"/>
       <use xlink:href="#ArialMT-20" x="555.664062"/>
       <use xlink:href="#ArialMT-79" x="583.447266"/>
       <use xlink:href="#ArialMT-69" x="633.447266"/>
       <use xlink:href="#ArialMT-65" x="655.664062"/>
       <use xlink:href="#ArialMT-6c" x="711.279297"/>
       <use xlink:href="#ArialMT-64" x="733.496094"/>
      </g>
      <!-- [4.87 $-$ 25.6 $\mathrm{DMT} \cdot \mathrm{ha}^{-1} \cdot \mathrm{y}^{-1}$] -->
      <g transform="translate(27.28672 42.698612) scale(0.08 -0.08)">
       <defs>
        <path id="DejaVuSans-4d" d="M 628 4666 
L 1569 4666 
L 2759 1491 
L 3956 4666 
L 4897 4666 
L 4897 0 
L 4281 0 
L 4281 4097 
L 3078 897 
L 2444 897 
L 1241 4097 
L 1241 0 
L 628 0 
L 628 4666 
z
" transform="scale(0.015625)"/>
        <path id="DejaVuSans-54" d="M -19 4666 
L 3928 4666 
L 3928 4134 
L 2272 4134 
L 2272 0 
L 1638 0 
L 1638 4134 
L -19 4134 
L -19 4666 
z
" transform="scale(0.015625)"/>
       </defs>
       <use xlink:href="#ArialMT-5b" transform="translate(0 0.684375)"/>
       <use xlink:href="#ArialMT-34" transform="translate(27.783203 0.684375)"/>
       <use xlink:href="#ArialMT-2e" transform="translate(83.398438 0.684375)"/>
       <use xlink:href="#ArialMT-38" transform="translate(111.181641 0.684375)"/>
       <use xlink:href="#ArialMT-37" transform="translate(166.796875 0.684375)"/>
       <use xlink:href="#ArialMT-20" transform="translate(222.412109 0.684375)"/>
       <use xlink:href="#DejaVuSans-2212" transform="translate(250.195312 0.684375)"/>
       <use xlink:href="#ArialMT-20" transform="translate(333.984375 0.684375)"/>
       <use xlink:href="#ArialMT-32" transform="translate(361.767578 0.684375)"/>
       <use xlink:href="#ArialMT-35" transform="translate(417.382812 0.684375)"/>
       <use xlink:href="#ArialMT-2e" transform="translate(472.998047 0.684375)"/>
       <use xlink:href="#ArialMT-36" transform="translate(500.78125 0.684375)"/>
       <use xlink:href="#ArialMT-20" transform="translate(556.396484 0.684375)"/>
       <use xlink:href="#DejaVuSans-44" transform="translate(584.179688 0.684375)"/>
       <use xlink:href="#DejaVuSans-4d" transform="translate(661.181641 0.684375)"/>
       <use xlink:href="#DejaVuSans-54" transform="translate(747.460938 0.684375)"/>
       <use xlink:href="#DejaVuSans-22c5" transform="translate(828.027344 0.684375)"/>
       <use xlink:href="#DejaVuSans-68" transform="translate(879.296875 0.684375)"/>
       <use xlink:href="#DejaVuSans-61" transform="translate(942.675781 0.684375)"/>
       <use xlink:href="#DejaVuSans-2212" transform="translate(1004.912109 38.965625) scale(0.7)"/>
       <use xlink:href="#DejaVuSans-31" transform="translate(1063.564453 38.965625) scale(0.7)"/>
       <use xlink:href="#DejaVuSans-22c5" transform="translate(1130.317383 0.684375)"/>
       <use xlink:href="#DejaVuSans-79" transform="translate(1181.586914 0.684375)"/>
       <use xlink:href="#DejaVuSans-2212" transform="translate(1241.723633 38.965625) scale(0.7)"/>
       <use xlink:href="#DejaVuSans-31" transform="translate(1300.375977 38.965625) scale(0.7)"/>
       <use xlink:href="#ArialMT-5d" transform="translate(1347.646484 0.684375)"/>
      </g>
     </g>
    </g>
   </g>
   <g id="line2d_20">
    <path d="M 303.59178 350.499686 
L 303.59178 7.619558 
" clip-path="url(#p774b01f34b)" style="fill: none; stroke: #3d4240; stroke-linecap: square"/>
   </g>
   <g id="patch_3">
    <path d="M 142.86672 350.499686 
L 142.86672 7.619558 
" style="fill: none; stroke: #000000; stroke-width: 0.8; stroke-linejoin: miter; stroke-linecap: square"/>
   </g>
   <g id="patch_4">
    <path d="M 464.31684 350.499686 
L 464.31684 7.619558 
" style="fill: none; stroke: #000000; stroke-width: 0.8; stroke-linejoin: miter; stroke-linecap: square"/>
   </g>
   <g id="patch_5">
    <path d="M 142.86672 350.499686 
L 464.31684 350.499686 
" style="fill: none; stroke: #000000; stroke-width: 0.8; stroke-linejoin: miter; stroke-linecap: square"/>
   </g>
   <g id="patch_6">
    <path d="M 142.86672 7.619558 
L 464.31684 7.619558 
" style="fill: none; stroke: #000000; stroke-width: 0.8; stroke-linejoin: miter; stroke-linecap: square"/>
   </g>
  </g>
  <g id="axes_2">
   <g id="matplotlib.axis_3">
    <g id="ytick_11">
     <g id="line2d_21">
      <defs>
       <path id="me26d1e51d9" d="M 0 0 
L -3.5 0 
" style="stroke: #000000; stroke-width: 0.8"/>
      </defs>
      <g>
       <use xlink:href="#me26d1e51d9" x="464.31684" y="324.165633" style="stroke: #000000; stroke-width: 0.8"/>
      </g>
     </g>
    </g>
    <g id="ytick_12">
     <g id="line2d_22">
      <g>
       <use xlink:href="#me26d1e51d9" x="464.31684" y="291.919853" style="stroke: #000000; stroke-width: 0.8"/>
      </g>
     </g>
    </g>
    <g id="ytick_13">
     <g id="line2d_23">
      <g>
       <use xlink:href="#me26d1e51d9" x="464.31684" y="259.674073" style="stroke: #000000; stroke-width: 0.8"/>
      </g>
     </g>
    </g>
    <g id="ytick_14">
     <g id="line2d_24">
      <g>
       <use xlink:href="#me26d1e51d9" x="464.31684" y="227.428292" style="stroke: #000000; stroke-width: 0.8"/>
      </g>
     </g>
    </g>
    <g id="ytick_15">
     <g id="line2d_25">
      <g>
       <use xlink:href="#me26d1e51d9" x="464.31684" y="195.182512" style="stroke: #000000; stroke-width: 0.8"/>
      </g>
     </g>
    </g>
    <g id="ytick_16">
     <g id="line2d_26">
      <g>
       <use xlink:href="#me26d1e51d9" x="464.31684" y="162.936732" style="stroke: #000000; stroke-width: 0.8"/>
      </g>
     </g>
    </g>
    <g id="ytick_17">
     <g id="line2d_27">
      <g>
       <use xlink:href="#me26d1e51d9" x="464.31684" y="130.690952" style="stroke: #000000; stroke-width: 0.8"/>
      </g>
     </g>
    </g>
    <g id="ytick_18">
     <g id="line2d_28">
      <g>
       <use xlink:href="#me26d1e51d9" x="464.31684" y="98.445172" style="stroke: #000000; stroke-width: 0.8"/>
      </g>
     </g>
    </g>
    <g id="ytick_19">
     <g id="line2d_29">
      <g>
       <use xlink:href="#me26d1e51d9" x="464.31684" y="66.199392" style="stroke: #000000; stroke-width: 0.8"/>
      </g>
     </g>
    </g>
    <g id="ytick_20">
     <g id="line2d_30">
      <g>
       <use xlink:href="#me26d1e51d9" x="464.31684" y="33.953612" style="stroke: #000000; stroke-width: 0.8"/>
      </g>
     </g>
    </g>
   </g>
   <g id="patch_7">
    <path d="M 142.86672 350.499686 
L 142.86672 7.619558 
" style="fill: none; stroke: #000000; stroke-width: 0.8; stroke-linejoin: miter; stroke-linecap: square"/>
   </g>
   <g id="patch_8">
    <path d="M 464.31684 350.499686 
L 464.31684 7.619558 
" style="fill: none; stroke: #000000; stroke-width: 0.8; stroke-linejoin: miter; stroke-linecap: square"/>
   </g>
   <g id="patch_9">
    <path d="M 142.86672 350.499686 
L 464.31684 350.499686 
" style="fill: none; stroke: #000000; stroke-width: 0.8; stroke-linejoin: miter; stroke-linecap: square"/>
   </g>
   <g id="patch_10">
    <path d="M 142.86672 7.619558 
L 464.31684 7.619558 
" style="fill: none; stroke: #000000; stroke-width: 0.8; stroke-linejoin: miter; stroke-linecap: square"/>
   </g>
  </g>
  <g id="axes_3">
   <g id="matplotlib.axis_4">
    <g id="xtick_10">
     <g id="line2d_31">
      <defs>
       <path id="m9cef2bce7a" d="M 0 0 
L 0 2 
" style="stroke: #000000; stroke-width: 0.8"/>
      </defs>
      <g>
       <use xlink:href="#m9cef2bce7a" x="142.86672" y="7.619558" style="stroke: #000000; stroke-width: 0.8"/>
      </g>
     </g>
    </g>
    <g id="xtick_11">
     <g id="line2d_32">
      <g>
       <use xlink:href="#m9cef2bce7a" x="207.156744" y="7.619558" style="stroke: #000000; stroke-width: 0.8"/>
      </g>
     </g>
    </g>
    <g id="xtick_12">
     <g id="line2d_33">
      <g>
       <use xlink:href="#m9cef2bce7a" x="271.446768" y="7.619558" style="stroke: #000000; stroke-width: 0.8"/>
      </g>
     </g>
    </g>
    <g id="xtick_13">
     <g id="line2d_34">
      <g>
       <use xlink:href="#m9cef2bce7a" x="335.736792" y="7.619558" style="stroke: #000000; stroke-width: 0.8"/>
      </g>
     </g>
    </g>
    <g id="xtick_14">
     <g id="line2d_35">
      <g>
       <use xlink:href="#m9cef2bce7a" x="400.026816" y="7.619558" style="stroke: #000000; stroke-width: 0.8"/>
      </g>
     </g>
    </g>
    <g id="xtick_15">
     <g id="line2d_36">
      <g>
       <use xlink:href="#m9cef2bce7a" x="464.31684" y="7.619558" style="stroke: #000000; stroke-width: 0.8"/>
      </g>
     </g>
    </g>
   </g>
   <g id="patch_11">
    <path d="M 142.86672 350.499686 
L 142.86672 7.619558 
" style="fill: none; stroke: #000000; stroke-width: 0.8; stroke-linejoin: miter; stroke-linecap: square"/>
   </g>
   <g id="patch_12">
    <path d="M 464.31684 350.499686 
L 464.31684 7.619558 
" style="fill: none; stroke: #000000; stroke-width: 0.8; stroke-linejoin: miter; stroke-linecap: square"/>
   </g>
   <g id="patch_13">
    <path d="M 142.86672 350.499686 
L 464.31684 350.499686 
" style="fill: none; stroke: #000000; stroke-width: 0.8; stroke-linejoin: miter; stroke-linecap: square"/>
   </g>
   <g id="patch_14">
    <path d="M 142.86672 7.619558 
L 464.31684 7.619558 
" style="fill: none; stroke: #000000; stroke-width: 0.8; stroke-linejoin: miter; stroke-linecap: square"/>
   </g>
   <g id="legend_1">
    <g id="patch_15">
     <path d="M 420.23059 346.499686 
L 458.71684 346.499686 
Q 460.31684 346.499686 460.31684 344.899686 
L 460.31684 323.067186 
Q 460.31684 321.467186 458.71684 321.467186 
L 420.23059 321.467186 
Q 418.63059 321.467186 418.63059 323.067186 
L 418.63059 344.899686 
Q 418.63059 346.499686 420.23059 346.499686 
z
" style="fill: #ffffff; opacity: 0.8; stroke: #cccccc; stroke-linejoin: miter"/>
    </g>
    <g id="patch_16">
     <path d="M 421.83059 330.393436 
L 437.83059 330.393436 
L 437.83059 324.793436 
L 421.83059 324.793436 
z
" style="fill: #f88f5f; stroke: #f88f5f; stroke-linejoin: miter"/>
    </g>
    <g id="text_17">
     <!-- DC -->
     <g transform="translate(444.23059 330.393436) scale(0.08 -0.08)">
      <use xlink:href="#ArialMT-44"/>
      <use xlink:href="#ArialMT-43" x="72.216797"/>
     </g>
    </g>
    <g id="patch_17">
     <path d="M 421.83059 341.709686 
L 437.83059 341.709686 
L 437.83059 336.109686 
L 421.83059 336.109686 
z
" style="fill: #5fc1cf; stroke: #5fc1cf; stroke-linejoin: miter"/>
    </g>
    <g id="text_18">
     <!-- ICF -->
     <g transform="translate(444.23059 341.709686) scale(0.08 -0.08)">
      <defs>
       <path id="ArialMT-46" d="M 525 0 
L 525 4581 
L 3616 4581 
L 3616 4041 
L 1131 4041 
L 1131 2622 
L 3281 2622 
L 3281 2081 
L 1131 2081 
L 1131 0 
L 525 0 
z
" transform="scale(0.015625)"/>
      </defs>
      <use xlink:href="#ArialMT-49"/>
      <use xlink:href="#ArialMT-43" x="27.783203"/>
      <use xlink:href="#ArialMT-46" x="100"/>
     </g>
    </g>
   </g>
  </g>
 </g>
 <defs>
  <clipPath id="p774b01f34b">
   <rect x="142.86672" y="7.619558" width="321.45012" height="342.880128"/>
  </clipPath>
 </defs>
</svg>
